%TF.GenerationSoftware,KiCad,Pcbnew,9.0.0*%
%TF.CreationDate,2025-11-21T22:56:44-08:00*%
%TF.ProjectId,MegaAV_Pro_VA0,4d656761-4156-45f5-9072-6f5f5641302e,rev?*%
%TF.SameCoordinates,Original*%
%TF.FileFunction,Soldermask,Top*%
%TF.FilePolarity,Negative*%
%FSLAX46Y46*%
G04 Gerber Fmt 4.6, Leading zero omitted, Abs format (unit mm)*
G04 Created by KiCad (PCBNEW 9.0.0) date 2025-11-21 22:56:44*
%MOMM*%
%LPD*%
G01*
G04 APERTURE LIST*
G04 Aperture macros list*
%AMRoundRect*
0 Rectangle with rounded corners*
0 $1 Rounding radius*
0 $2 $3 $4 $5 $6 $7 $8 $9 X,Y pos of 4 corners*
0 Add a 4 corners polygon primitive as box body*
4,1,4,$2,$3,$4,$5,$6,$7,$8,$9,$2,$3,0*
0 Add four circle primitives for the rounded corners*
1,1,$1+$1,$2,$3*
1,1,$1+$1,$4,$5*
1,1,$1+$1,$6,$7*
1,1,$1+$1,$8,$9*
0 Add four rect primitives between the rounded corners*
20,1,$1+$1,$2,$3,$4,$5,0*
20,1,$1+$1,$4,$5,$6,$7,0*
20,1,$1+$1,$6,$7,$8,$9,0*
20,1,$1+$1,$8,$9,$2,$3,0*%
%AMFreePoly0*
4,1,23,0.500000,-0.750000,0.000000,-0.750000,0.000000,-0.745722,-0.065263,-0.745722,-0.191342,-0.711940,-0.304381,-0.646677,-0.396677,-0.554381,-0.461940,-0.441342,-0.495722,-0.315263,-0.495722,-0.250000,-0.500000,-0.250000,-0.500000,0.250000,-0.495722,0.250000,-0.495722,0.315263,-0.461940,0.441342,-0.396677,0.554381,-0.304381,0.646677,-0.191342,0.711940,-0.065263,0.745722,0.000000,0.745722,
0.000000,0.750000,0.500000,0.750000,0.500000,-0.750000,0.500000,-0.750000,$1*%
%AMFreePoly1*
4,1,23,0.000000,0.745722,0.065263,0.745722,0.191342,0.711940,0.304381,0.646677,0.396677,0.554381,0.461940,0.441342,0.495722,0.315263,0.495722,0.250000,0.500000,0.250000,0.500000,-0.250000,0.495722,-0.250000,0.495722,-0.315263,0.461940,-0.441342,0.396677,-0.554381,0.304381,-0.646677,0.191342,-0.711940,0.065263,-0.745722,0.000000,-0.745722,0.000000,-0.750000,-0.500000,-0.750000,
-0.500000,0.750000,0.000000,0.750000,0.000000,0.745722,0.000000,0.745722,$1*%
%AMFreePoly2*
4,1,23,0.550000,-0.750000,0.000000,-0.750000,0.000000,-0.745722,-0.065263,-0.745722,-0.191342,-0.711940,-0.304381,-0.646677,-0.396677,-0.554381,-0.461940,-0.441342,-0.495722,-0.315263,-0.495722,-0.250000,-0.500000,-0.250000,-0.500000,0.250000,-0.495722,0.250000,-0.495722,0.315263,-0.461940,0.441342,-0.396677,0.554381,-0.304381,0.646677,-0.191342,0.711940,-0.065263,0.745722,0.000000,0.745722,
0.000000,0.750000,0.550000,0.750000,0.550000,-0.750000,0.550000,-0.750000,$1*%
%AMFreePoly3*
4,1,23,0.000000,0.745722,0.065263,0.745722,0.191342,0.711940,0.304381,0.646677,0.396677,0.554381,0.461940,0.441342,0.495722,0.315263,0.495722,0.250000,0.500000,0.250000,0.500000,-0.250000,0.495722,-0.250000,0.495722,-0.315263,0.461940,-0.441342,0.396677,-0.554381,0.304381,-0.646677,0.191342,-0.711940,0.065263,-0.745722,0.000000,-0.745722,0.000000,-0.750000,-0.550000,-0.750000,
-0.550000,0.750000,0.000000,0.750000,0.000000,0.745722,0.000000,0.745722,$1*%
G04 Aperture macros list end*
%ADD10RoundRect,0.200000X-0.200000X-0.275000X0.200000X-0.275000X0.200000X0.275000X-0.200000X0.275000X0*%
%ADD11RoundRect,0.140000X0.140000X0.170000X-0.140000X0.170000X-0.140000X-0.170000X0.140000X-0.170000X0*%
%ADD12RoundRect,0.140000X-0.140000X-0.170000X0.140000X-0.170000X0.140000X0.170000X-0.140000X0.170000X0*%
%ADD13FreePoly0,180.000000*%
%ADD14FreePoly1,180.000000*%
%ADD15RoundRect,0.250000X-0.250000X-0.750000X0.250000X-0.750000X0.250000X0.750000X-0.250000X0.750000X0*%
%ADD16RoundRect,0.135000X0.185000X-0.135000X0.185000X0.135000X-0.185000X0.135000X-0.185000X-0.135000X0*%
%ADD17RoundRect,0.135000X0.135000X0.185000X-0.135000X0.185000X-0.135000X-0.185000X0.135000X-0.185000X0*%
%ADD18RoundRect,0.135000X-0.135000X-0.185000X0.135000X-0.185000X0.135000X0.185000X-0.135000X0.185000X0*%
%ADD19RoundRect,0.100000X0.637500X0.100000X-0.637500X0.100000X-0.637500X-0.100000X0.637500X-0.100000X0*%
%ADD20RoundRect,0.140000X-0.170000X0.140000X-0.170000X-0.140000X0.170000X-0.140000X0.170000X0.140000X0*%
%ADD21RoundRect,0.200000X0.275000X-0.200000X0.275000X0.200000X-0.275000X0.200000X-0.275000X-0.200000X0*%
%ADD22RoundRect,0.250000X0.475000X-0.250000X0.475000X0.250000X-0.475000X0.250000X-0.475000X-0.250000X0*%
%ADD23RoundRect,0.200000X-0.275000X0.200000X-0.275000X-0.200000X0.275000X-0.200000X0.275000X0.200000X0*%
%ADD24RoundRect,0.200000X0.200000X0.275000X-0.200000X0.275000X-0.200000X-0.275000X0.200000X-0.275000X0*%
%ADD25RoundRect,0.250000X0.750000X-0.250000X0.750000X0.250000X-0.750000X0.250000X-0.750000X-0.250000X0*%
%ADD26FreePoly2,270.000000*%
%ADD27R,1.500000X1.000000*%
%ADD28FreePoly3,270.000000*%
%ADD29FreePoly0,0.000000*%
%ADD30FreePoly1,0.000000*%
%ADD31RoundRect,0.250000X-0.250000X-0.475000X0.250000X-0.475000X0.250000X0.475000X-0.250000X0.475000X0*%
%ADD32RoundRect,0.135000X-0.185000X0.135000X-0.185000X-0.135000X0.185000X-0.135000X0.185000X0.135000X0*%
%ADD33RoundRect,0.218750X0.218750X0.381250X-0.218750X0.381250X-0.218750X-0.381250X0.218750X-0.381250X0*%
%ADD34FreePoly2,90.000000*%
%ADD35FreePoly3,90.000000*%
%ADD36FreePoly0,90.000000*%
%ADD37FreePoly1,90.000000*%
%ADD38RoundRect,0.250000X-0.925000X0.412500X-0.925000X-0.412500X0.925000X-0.412500X0.925000X0.412500X0*%
%ADD39RoundRect,0.106250X-0.106250X1.118750X-0.106250X-1.118750X0.106250X-1.118750X0.106250X1.118750X0*%
%ADD40RoundRect,0.100000X-0.100000X1.125000X-0.100000X-1.125000X0.100000X-1.125000X0.100000X1.125000X0*%
%ADD41RoundRect,0.250000X0.250000X0.475000X-0.250000X0.475000X-0.250000X-0.475000X0.250000X-0.475000X0*%
%ADD42RoundRect,0.100000X-0.637500X-0.100000X0.637500X-0.100000X0.637500X0.100000X-0.637500X0.100000X0*%
%ADD43RoundRect,0.250000X0.925000X-0.412500X0.925000X0.412500X-0.925000X0.412500X-0.925000X-0.412500X0*%
%ADD44FreePoly0,270.000000*%
%ADD45FreePoly1,270.000000*%
%ADD46RoundRect,0.250000X-0.412500X-0.925000X0.412500X-0.925000X0.412500X0.925000X-0.412500X0.925000X0*%
%ADD47RoundRect,0.250000X0.650000X-0.325000X0.650000X0.325000X-0.650000X0.325000X-0.650000X-0.325000X0*%
%ADD48RoundRect,0.150000X-0.512500X-0.150000X0.512500X-0.150000X0.512500X0.150000X-0.512500X0.150000X0*%
%ADD49RoundRect,0.150000X0.725000X0.150000X-0.725000X0.150000X-0.725000X-0.150000X0.725000X-0.150000X0*%
%ADD50RoundRect,0.140000X0.170000X-0.140000X0.170000X0.140000X-0.170000X0.140000X-0.170000X-0.140000X0*%
%ADD51RoundRect,0.250000X0.325000X0.650000X-0.325000X0.650000X-0.325000X-0.650000X0.325000X-0.650000X0*%
%ADD52RoundRect,0.250000X-0.475000X0.250000X-0.475000X-0.250000X0.475000X-0.250000X0.475000X0.250000X0*%
%ADD53R,0.300000X0.800000*%
%ADD54R,1.220000X1.400000*%
%ADD55R,0.850000X1.400000*%
%ADD56RoundRect,0.100000X0.100000X-0.637500X0.100000X0.637500X-0.100000X0.637500X-0.100000X-0.637500X0*%
%ADD57RoundRect,0.125000X-0.125000X-0.125000X0.125000X-0.125000X0.125000X0.125000X-0.125000X0.125000X0*%
%ADD58C,1.711200*%
%ADD59O,3.759200X5.029200*%
%ADD60C,3.759200*%
%ADD61RoundRect,0.150000X0.825000X0.150000X-0.825000X0.150000X-0.825000X-0.150000X0.825000X-0.150000X0*%
%ADD62RoundRect,0.125000X0.125000X-0.125000X0.125000X0.125000X-0.125000X0.125000X-0.125000X-0.125000X0*%
G04 APERTURE END LIST*
%TO.C,PSGPD2*%
G36*
X211725000Y-131000000D02*
G01*
X211425000Y-131000000D01*
X211425000Y-129500000D01*
X211725000Y-129500000D01*
X211725000Y-131000000D01*
G37*
%TO.C,HPL_RES2*%
G36*
X218625000Y-112000000D02*
G01*
X217125000Y-112000000D01*
X217125000Y-113500000D01*
X218625000Y-113500000D01*
X218625000Y-112000000D01*
G37*
%TO.C,MD1_PU1*%
G36*
X189419752Y-133272554D02*
G01*
X189719752Y-133272554D01*
X189719752Y-134772554D01*
X189419752Y-134772554D01*
X189419752Y-133272554D01*
G37*
%TO.C,FML_1*%
G36*
X200025000Y-122325000D02*
G01*
X201525000Y-122325000D01*
X201525000Y-120825000D01*
X200025000Y-120825000D01*
X200025000Y-122325000D01*
G37*
%TO.C,HPR_RES1*%
G36*
X215175000Y-116660000D02*
G01*
X213675000Y-116660000D01*
X213675000Y-118160000D01*
X215175000Y-118160000D01*
X215175000Y-116660000D01*
G37*
%TO.C,SA1*%
G36*
X184079833Y-112029200D02*
G01*
X185579833Y-112029200D01*
X185579833Y-111729200D01*
X184079833Y-111729200D01*
X184079833Y-112029200D01*
G37*
%TO.C,LPF1*%
G36*
X184041350Y-115320105D02*
G01*
X185541350Y-115320105D01*
X185541350Y-115020105D01*
X184041350Y-115020105D01*
X184041350Y-115320105D01*
G37*
%TO.C,PSGPD4*%
G36*
X201420000Y-132160000D02*
G01*
X199920000Y-132160000D01*
X199920000Y-132460000D01*
X201420000Y-132460000D01*
X201420000Y-132160000D01*
G37*
%TO.C,PSGPD3*%
G36*
X211725000Y-129075000D02*
G01*
X211425000Y-129075000D01*
X211425000Y-127575000D01*
X211725000Y-127575000D01*
X211725000Y-129075000D01*
G37*
%TO.C,32XPD2*%
G36*
X211775000Y-125175000D02*
G01*
X211475000Y-125175000D01*
X211475000Y-123675000D01*
X211775000Y-123675000D01*
X211775000Y-125175000D01*
G37*
%TO.C,HPL_RES1*%
G36*
X215175000Y-112025000D02*
G01*
X213675000Y-112025000D01*
X213675000Y-113525000D01*
X215175000Y-113525000D01*
X215175000Y-112025000D01*
G37*
%TO.C,FMR_1*%
G36*
X210750000Y-121825000D02*
G01*
X212250000Y-121825000D01*
X212250000Y-120325000D01*
X210750000Y-120325000D01*
X210750000Y-121825000D01*
G37*
%TO.C,FMR_2*%
G36*
X207200000Y-121825000D02*
G01*
X208700000Y-121825000D01*
X208700000Y-120325000D01*
X207200000Y-120325000D01*
X207200000Y-121825000D01*
G37*
%TO.C,32XPD1*%
G36*
X211725000Y-132950000D02*
G01*
X211425000Y-132950000D01*
X211425000Y-131450000D01*
X211725000Y-131450000D01*
X211725000Y-132950000D01*
G37*
%TO.C,HPR_RES2*%
G36*
X218625000Y-116635000D02*
G01*
X217125000Y-116635000D01*
X217125000Y-118135000D01*
X218625000Y-118135000D01*
X218625000Y-116635000D01*
G37*
%TO.C,PSGPD1*%
G36*
X211750000Y-127125000D02*
G01*
X211450000Y-127125000D01*
X211450000Y-125625000D01*
X211750000Y-125625000D01*
X211750000Y-127125000D01*
G37*
%TO.C,FML_2*%
G36*
X203600000Y-122375000D02*
G01*
X205100000Y-122375000D01*
X205100000Y-120875000D01*
X203600000Y-120875000D01*
X203600000Y-122375000D01*
G37*
%TD*%
D10*
%TO.C,R56*%
X196994696Y-96539750D03*
X198644696Y-96539750D03*
%TD*%
D11*
%TO.C,C39*%
X187485813Y-112715431D03*
X186525813Y-112715431D03*
%TD*%
D12*
%TO.C,C8*%
X176830000Y-117110000D03*
X177790000Y-117110000D03*
%TD*%
D13*
%TO.C,PSGPD2*%
X212225000Y-130250000D03*
D14*
X210925000Y-130250000D03*
%TD*%
D15*
%TO.C,B_IN1*%
X182381242Y-133628613D03*
%TD*%
D16*
%TO.C,R21*%
X209725000Y-122970000D03*
X209725000Y-121950000D03*
%TD*%
D17*
%TO.C,R72*%
X187654016Y-109827898D03*
X186634016Y-109827898D03*
%TD*%
D12*
%TO.C,C31*%
X188147276Y-107608121D03*
X189107276Y-107608121D03*
%TD*%
D17*
%TO.C,R40*%
X203353910Y-116269479D03*
X202333910Y-116269479D03*
%TD*%
D15*
%TO.C,S_IN1*%
X170250000Y-133900000D03*
%TD*%
D11*
%TO.C,C17*%
X193567500Y-122530000D03*
X192607500Y-122530000D03*
%TD*%
D18*
%TO.C,R46*%
X198585000Y-110075000D03*
X199605000Y-110075000D03*
%TD*%
D15*
%TO.C,REGION*%
X171602004Y-113618487D03*
%TD*%
D19*
%TO.C,U7*%
X200537500Y-116450000D03*
X200537500Y-115800000D03*
X200537500Y-115150000D03*
X200537500Y-114500000D03*
X200537500Y-113850000D03*
X200537500Y-113200000D03*
X200537500Y-112550000D03*
X194812500Y-112550000D03*
X194812500Y-113200000D03*
X194812500Y-113850000D03*
X194812500Y-114500000D03*
X194812500Y-115150000D03*
X194812500Y-115800000D03*
X194812500Y-116450000D03*
%TD*%
D15*
%TO.C,G_IN1*%
X184724110Y-134073698D03*
%TD*%
D20*
%TO.C,C11*%
X192450000Y-129195000D03*
X192450000Y-130155000D03*
%TD*%
D21*
%TO.C,R13*%
X184212343Y-126993911D03*
X184212343Y-125343911D03*
%TD*%
D15*
%TO.C,CD_L1*%
X200620000Y-142700000D03*
%TD*%
%TO.C,CLK_IN1*%
X179862995Y-134148552D03*
%TD*%
D22*
%TO.C,C26*%
X205600662Y-114961633D03*
X205600662Y-113061633D03*
%TD*%
D16*
%TO.C,R63*%
X216145000Y-112275000D03*
X216145000Y-111255000D03*
%TD*%
D23*
%TO.C,R37*%
X188581609Y-116814454D03*
X188581609Y-118464454D03*
%TD*%
D24*
%TO.C,R26*%
X205443559Y-125141974D03*
X203793559Y-125141974D03*
%TD*%
D25*
%TO.C,SR3*%
X216650000Y-122125000D03*
%TD*%
D26*
%TO.C,HPL_RES2*%
X217875000Y-111450000D03*
D27*
X217875000Y-112750000D03*
D28*
X217875000Y-114050000D03*
%TD*%
D29*
%TO.C,MD1_PU1*%
X188919752Y-134022554D03*
D30*
X190219752Y-134022554D03*
%TD*%
D31*
%TO.C,C10*%
X176830000Y-118700000D03*
X178730000Y-118700000D03*
%TD*%
D32*
%TO.C,R32*%
X203740459Y-128700114D03*
X203740459Y-129720114D03*
%TD*%
D12*
%TO.C,C36*%
X198645000Y-111025000D03*
X199605000Y-111025000D03*
%TD*%
D33*
%TO.C,L1*%
X172561496Y-111034565D03*
X170436496Y-111034565D03*
%TD*%
D16*
%TO.C,R18*%
X192281530Y-132157988D03*
X192281530Y-131137988D03*
%TD*%
D25*
%TO.C,CHROMA1*%
X197845270Y-97905149D03*
%TD*%
D34*
%TO.C,FML_1*%
X200775000Y-122875000D03*
D27*
X200775000Y-121575000D03*
D35*
X200775000Y-120275000D03*
%TD*%
D15*
%TO.C,GND2*%
X179858948Y-131075199D03*
%TD*%
D16*
%TO.C,R7*%
X193400000Y-126625000D03*
X193400000Y-125605000D03*
%TD*%
D17*
%TO.C,R27*%
X205610000Y-126925000D03*
X204590000Y-126925000D03*
%TD*%
D11*
%TO.C,C5*%
X182980984Y-124742600D03*
X182020984Y-124742600D03*
%TD*%
D25*
%TO.C,FM_R1*%
X202540000Y-137660000D03*
%TD*%
D22*
%TO.C,C4*%
X195460000Y-135290000D03*
X195460000Y-133390000D03*
%TD*%
D25*
%TO.C,HPL_SL2*%
X217825491Y-127271000D03*
%TD*%
D17*
%TO.C,R20*%
X183055381Y-122842576D03*
X182035381Y-122842576D03*
%TD*%
D10*
%TO.C,R15*%
X213872873Y-132177633D03*
X215522873Y-132177633D03*
%TD*%
D15*
%TO.C,HP_L1*%
X202675000Y-132875000D03*
%TD*%
D10*
%TO.C,R57*%
X197060751Y-99413531D03*
X198710751Y-99413531D03*
%TD*%
D26*
%TO.C,HPR_RES1*%
X214425000Y-116110000D03*
D27*
X214425000Y-117410000D03*
D28*
X214425000Y-118710000D03*
%TD*%
D11*
%TO.C,C18*%
X193567500Y-121610000D03*
X192607500Y-121610000D03*
%TD*%
D36*
%TO.C,SA1*%
X184829833Y-112529200D03*
D37*
X184829833Y-111229200D03*
%TD*%
D15*
%TO.C,HP_R1*%
X205325000Y-132865000D03*
%TD*%
D38*
%TO.C,C56*%
X186764264Y-128685429D03*
X186764264Y-131760429D03*
%TD*%
D23*
%TO.C,R38*%
X187116822Y-116799507D03*
X187116822Y-118449507D03*
%TD*%
D12*
%TO.C,C37*%
X199090000Y-117975000D03*
X200050000Y-117975000D03*
%TD*%
D39*
%TO.C,U8*%
X182662500Y-107755000D03*
D40*
X182025000Y-107755000D03*
X181375000Y-107755000D03*
X180725000Y-107755000D03*
X180075000Y-107755000D03*
X179425000Y-107755000D03*
X178775000Y-107755000D03*
X178125000Y-107755000D03*
X177475000Y-107755000D03*
X176825000Y-107755000D03*
X176175000Y-107755000D03*
X175525000Y-107755000D03*
X174875000Y-107755000D03*
X174225000Y-107755000D03*
X174225000Y-114205000D03*
X174875000Y-114205000D03*
X175525000Y-114205000D03*
X176175000Y-114205000D03*
X176825000Y-114205000D03*
X177475000Y-114205000D03*
X178125000Y-114205000D03*
X178775000Y-114205000D03*
X179425000Y-114205000D03*
X180075000Y-114205000D03*
X180725000Y-114205000D03*
X181375000Y-114205000D03*
X182025000Y-114205000D03*
D39*
X182662500Y-114205000D03*
%TD*%
D16*
%TO.C,R30*%
X213773039Y-126234349D03*
X213773039Y-125214349D03*
%TD*%
D17*
%TO.C,R41*%
X203235000Y-113200000D03*
X202215000Y-113200000D03*
%TD*%
%TO.C,R68*%
X171157773Y-105917981D03*
X170137773Y-105917981D03*
%TD*%
%TO.C,R48*%
X195885000Y-118800000D03*
X194865000Y-118800000D03*
%TD*%
D22*
%TO.C,C15*%
X198025000Y-124325000D03*
X198025000Y-122425000D03*
%TD*%
D41*
%TO.C,C38*%
X188751676Y-111277738D03*
X186851676Y-111277738D03*
%TD*%
D32*
%TO.C,R23*%
X202600000Y-122230000D03*
X202600000Y-123250000D03*
%TD*%
D15*
%TO.C,32X_L1*%
X196280000Y-142730000D03*
%TD*%
D42*
%TO.C,U3*%
X196057500Y-125950000D03*
X196057500Y-126600000D03*
X196057500Y-127250000D03*
X196057500Y-127900000D03*
X196057500Y-128550000D03*
X196057500Y-129200000D03*
X196057500Y-129850000D03*
X201782500Y-129850000D03*
X201782500Y-129200000D03*
X201782500Y-128550000D03*
X201782500Y-127900000D03*
X201782500Y-127250000D03*
X201782500Y-126600000D03*
X201782500Y-125950000D03*
%TD*%
D18*
%TO.C,R69*%
X182100000Y-116440000D03*
X183120000Y-116440000D03*
%TD*%
D36*
%TO.C,LPF1*%
X184791350Y-115820105D03*
D37*
X184791350Y-114520105D03*
%TD*%
D21*
%TO.C,R14*%
X190054393Y-126951459D03*
X190054393Y-125301459D03*
%TD*%
D16*
%TO.C,R31*%
X203649079Y-127849561D03*
X203649079Y-126829561D03*
%TD*%
D32*
%TO.C,R22*%
X209750000Y-119925000D03*
X209750000Y-120945000D03*
%TD*%
D24*
%TO.C,R35*%
X185511639Y-118163918D03*
X183861639Y-118163918D03*
%TD*%
D25*
%TO.C,SL3*%
X216650000Y-120475000D03*
%TD*%
%TO.C,HPL_SL1*%
X217832965Y-128540707D03*
%TD*%
D16*
%TO.C,R25*%
X198935017Y-132160071D03*
X198935017Y-131140071D03*
%TD*%
D43*
%TO.C,C48*%
X171275000Y-104062500D03*
X171275000Y-100987500D03*
%TD*%
D11*
%TO.C,C32*%
X185570000Y-108520000D03*
X184610000Y-108520000D03*
%TD*%
D15*
%TO.C,R_IN1*%
X186729530Y-134029302D03*
%TD*%
D44*
%TO.C,PSGPD4*%
X200670000Y-131660000D03*
D45*
X200670000Y-132960000D03*
%TD*%
D46*
%TO.C,C47*%
X192396688Y-99338485D03*
X195471688Y-99338485D03*
%TD*%
D32*
%TO.C,R61*%
X214845472Y-125203078D03*
X214845472Y-126223078D03*
%TD*%
D16*
%TO.C,R71*%
X178860000Y-117250000D03*
X178860000Y-116230000D03*
%TD*%
D20*
%TO.C,C49*%
X171759471Y-108774711D03*
X171759471Y-109734711D03*
%TD*%
D18*
%TO.C,R2*%
X171410000Y-118190000D03*
X172430000Y-118190000D03*
%TD*%
D10*
%TO.C,R17*%
X213938265Y-124046570D03*
X215588265Y-124046570D03*
%TD*%
D25*
%TO.C,HPR_SL2*%
X217724912Y-131807118D03*
%TD*%
D47*
%TO.C,C44*%
X197150000Y-108375000D03*
X197150000Y-105425000D03*
%TD*%
D48*
%TO.C,U9*%
X181923297Y-129331303D03*
X181923297Y-130281303D03*
X181923297Y-131231303D03*
X184198297Y-131231303D03*
X184198297Y-129331303D03*
%TD*%
D18*
%TO.C,R1*%
X182030399Y-123791699D03*
X183050399Y-123791699D03*
%TD*%
D16*
%TO.C,R19*%
X192320000Y-134820000D03*
X192320000Y-133800000D03*
%TD*%
D46*
%TO.C,C46*%
X192357453Y-96035241D03*
X195432453Y-96035241D03*
%TD*%
D11*
%TO.C,C6*%
X172370000Y-119180000D03*
X171410000Y-119180000D03*
%TD*%
D12*
%TO.C,C23*%
X174530362Y-129091467D03*
X175490362Y-129091467D03*
%TD*%
D24*
%TO.C,R39*%
X203839864Y-115025157D03*
X202189864Y-115025157D03*
%TD*%
D15*
%TO.C,GND1*%
X193970000Y-142820000D03*
%TD*%
%TO.C,5V1*%
X191510000Y-142820000D03*
%TD*%
D21*
%TO.C,R43*%
X190067882Y-115483500D03*
X190067882Y-113833500D03*
%TD*%
D41*
%TO.C,C28*%
X182204351Y-117940023D03*
X180304351Y-117940023D03*
%TD*%
D13*
%TO.C,PSGPD3*%
X212225000Y-128325000D03*
D14*
X210925000Y-128325000D03*
%TD*%
D17*
%TO.C,R55*%
X197260000Y-110050000D03*
X196240000Y-110050000D03*
%TD*%
D13*
%TO.C,32XPD2*%
X212275000Y-124425000D03*
D14*
X210975000Y-124425000D03*
%TD*%
D17*
%TO.C,R28*%
X205660000Y-128875000D03*
X204640000Y-128875000D03*
%TD*%
D21*
%TO.C,R9*%
X185677130Y-126993911D03*
X185677130Y-125343911D03*
%TD*%
D11*
%TO.C,C34*%
X185605000Y-105975000D03*
X184645000Y-105975000D03*
%TD*%
D25*
%TO.C,LUMA1*%
X197910039Y-95181405D03*
%TD*%
D22*
%TO.C,C14*%
X196050000Y-124325000D03*
X196050000Y-122425000D03*
%TD*%
D49*
%TO.C,U6*%
X192880834Y-106277760D03*
X192880834Y-105007760D03*
X192880834Y-103737760D03*
X192880834Y-102467760D03*
X187730834Y-102467760D03*
X187730834Y-103737760D03*
X187730834Y-105007760D03*
X187730834Y-106277760D03*
%TD*%
D16*
%TO.C,R65*%
X216150000Y-116795000D03*
X216150000Y-115775000D03*
%TD*%
D18*
%TO.C,R49*%
X196240000Y-111050000D03*
X197260000Y-111050000D03*
%TD*%
D50*
%TO.C,C50*%
X170712693Y-109734711D03*
X170712693Y-108774711D03*
%TD*%
D20*
%TO.C,C12*%
X194425000Y-125640000D03*
X194425000Y-126600000D03*
%TD*%
D22*
%TO.C,C27*%
X208050662Y-113786633D03*
X208050662Y-111886633D03*
%TD*%
D17*
%TO.C,R3*%
X176480000Y-128040000D03*
X175460000Y-128040000D03*
%TD*%
D24*
%TO.C,R29*%
X205364253Y-130878458D03*
X203714253Y-130878458D03*
%TD*%
D51*
%TO.C,C43*%
X194463383Y-109304456D03*
X191513383Y-109304456D03*
%TD*%
D22*
%TO.C,C24*%
X208050662Y-117186633D03*
X208050662Y-115286633D03*
%TD*%
D15*
%TO.C,CD_R1*%
X202790000Y-142700000D03*
%TD*%
D50*
%TO.C,C13*%
X194300000Y-130175000D03*
X194300000Y-129215000D03*
%TD*%
D22*
%TO.C,C1*%
X175050000Y-118900000D03*
X175050000Y-117000000D03*
%TD*%
D46*
%TO.C,C45*%
X194937500Y-102800000D03*
X198012500Y-102800000D03*
%TD*%
D18*
%TO.C,R6*%
X170760000Y-128680000D03*
X171780000Y-128680000D03*
%TD*%
D32*
%TO.C,R8*%
X193375000Y-129180000D03*
X193375000Y-130200000D03*
%TD*%
D41*
%TO.C,C55*%
X180136731Y-128643255D03*
X178236731Y-128643255D03*
%TD*%
D21*
%TO.C,R44*%
X188603095Y-115476027D03*
X188603095Y-113826027D03*
%TD*%
D17*
%TO.C,R4*%
X192371088Y-125597715D03*
X191351088Y-125597715D03*
%TD*%
D26*
%TO.C,HPL_RES1*%
X214425000Y-111475000D03*
D27*
X214425000Y-112775000D03*
D28*
X214425000Y-114075000D03*
%TD*%
D41*
%TO.C,C19*%
X208750000Y-124800000D03*
X206850000Y-124800000D03*
%TD*%
D52*
%TO.C,C29*%
X182544235Y-119700010D03*
X182544235Y-121600010D03*
%TD*%
D10*
%TO.C,R33*%
X213895293Y-130215865D03*
X215545293Y-130215865D03*
%TD*%
D34*
%TO.C,FMR_1*%
X211500000Y-122375000D03*
D27*
X211500000Y-121075000D03*
D35*
X211500000Y-119775000D03*
%TD*%
D22*
%TO.C,C54*%
X190264255Y-131776439D03*
X190264255Y-129876439D03*
%TD*%
D18*
%TO.C,R66*%
X196871919Y-100674356D03*
X197891919Y-100674356D03*
%TD*%
D41*
%TO.C,C21*%
X208750000Y-128750000D03*
X206850000Y-128750000D03*
%TD*%
D25*
%TO.C,HPR_SL1*%
X217729895Y-133270659D03*
%TD*%
D34*
%TO.C,FMR_2*%
X207950000Y-122375000D03*
D27*
X207950000Y-121075000D03*
D35*
X207950000Y-119775000D03*
%TD*%
D17*
%TO.C,R70*%
X180820000Y-116440000D03*
X179800000Y-116440000D03*
%TD*%
D41*
%TO.C,C22*%
X208750000Y-130725000D03*
X206850000Y-130725000D03*
%TD*%
D47*
%TO.C,C42*%
X192175000Y-117900000D03*
X192175000Y-114950000D03*
%TD*%
D18*
%TO.C,R47*%
X196940000Y-118775000D03*
X197960000Y-118775000D03*
%TD*%
D41*
%TO.C,C20*%
X208750000Y-126775000D03*
X206850000Y-126775000D03*
%TD*%
D17*
%TO.C,R16*%
X195910807Y-121043428D03*
X194890807Y-121043428D03*
%TD*%
D13*
%TO.C,32XPD1*%
X212225000Y-132200000D03*
D14*
X210925000Y-132200000D03*
%TD*%
D12*
%TO.C,C7*%
X173530000Y-128050000D03*
X174490000Y-128050000D03*
%TD*%
%TO.C,C35*%
X196995000Y-117850000D03*
X197955000Y-117850000D03*
%TD*%
D53*
%TO.C,Z1*%
X171700000Y-137360000D03*
X172200000Y-137360000D03*
X172700000Y-137360000D03*
X173200000Y-137360000D03*
X173700000Y-137360000D03*
X174200000Y-137360000D03*
X174700000Y-137360000D03*
X175200000Y-137360000D03*
X175700000Y-137360000D03*
X176200000Y-137360000D03*
X176700000Y-137360000D03*
X177200000Y-137360000D03*
X177700000Y-137360000D03*
X178200000Y-137360000D03*
X178700000Y-137360000D03*
X179200000Y-137360000D03*
X179700000Y-137360000D03*
X180200000Y-137360000D03*
X180700000Y-137360000D03*
X181200000Y-137360000D03*
X181700000Y-137360000D03*
X182200000Y-137360000D03*
X182700000Y-137360000D03*
X183200000Y-137360000D03*
X183700000Y-137360000D03*
X184200000Y-137360000D03*
X184700000Y-137360000D03*
X185200000Y-137360000D03*
X185700000Y-137360000D03*
X186200000Y-137360000D03*
X186700000Y-137360000D03*
X187200000Y-137360000D03*
X187700000Y-137360000D03*
D54*
X170460000Y-142210000D03*
D55*
X174025000Y-143220000D03*
X176375000Y-143220000D03*
X183025000Y-143220000D03*
X185375000Y-143220000D03*
D54*
X188940000Y-142210000D03*
%TD*%
D22*
%TO.C,C3*%
X197830000Y-135280000D03*
X197830000Y-133380000D03*
%TD*%
D25*
%TO.C,FM_L1*%
X202510000Y-139750000D03*
%TD*%
D18*
%TO.C,R5*%
X193315000Y-131100000D03*
X194335000Y-131100000D03*
%TD*%
D56*
%TO.C,U1*%
X176835000Y-126497500D03*
X177485000Y-126497500D03*
X178135000Y-126497500D03*
X178785000Y-126497500D03*
X179435000Y-126497500D03*
X180085000Y-126497500D03*
X180735000Y-126497500D03*
X180735000Y-120772500D03*
X180085000Y-120772500D03*
X179435000Y-120772500D03*
X178785000Y-120772500D03*
X178135000Y-120772500D03*
X177485000Y-120772500D03*
X176835000Y-120772500D03*
%TD*%
D18*
%TO.C,R59*%
X171998651Y-105873140D03*
X173018651Y-105873140D03*
%TD*%
D21*
%TO.C,R10*%
X187134444Y-126993911D03*
X187134444Y-125343911D03*
%TD*%
D57*
%TO.C,D2*%
X170526869Y-107375294D03*
X172726869Y-107375294D03*
%TD*%
D32*
%TO.C,R60*%
X218341897Y-123638145D03*
X218341897Y-124658145D03*
%TD*%
D10*
%TO.C,R34*%
X213899030Y-128257158D03*
X215549030Y-128257158D03*
%TD*%
D16*
%TO.C,R54*%
X191250000Y-113560000D03*
X191250000Y-112540000D03*
%TD*%
D26*
%TO.C,HPR_RES2*%
X217875000Y-116085000D03*
D27*
X217875000Y-117385000D03*
D28*
X217875000Y-118685000D03*
%TD*%
D11*
%TO.C,C16*%
X193567500Y-123450000D03*
X192607500Y-123450000D03*
%TD*%
D18*
%TO.C,R67*%
X190039749Y-101205031D03*
X191059749Y-101205031D03*
%TD*%
D16*
%TO.C,R62*%
X216145000Y-114305000D03*
X216145000Y-113285000D03*
%TD*%
D10*
%TO.C,R58*%
X175810594Y-104999939D03*
X177460594Y-104999939D03*
%TD*%
D12*
%TO.C,C30*%
X196070000Y-131150000D03*
X197030000Y-131150000D03*
%TD*%
D56*
%TO.C,U2*%
X170760000Y-126480000D03*
X171410000Y-126480000D03*
X172060000Y-126480000D03*
X172710000Y-126480000D03*
X173360000Y-126480000D03*
X174010000Y-126480000D03*
X174660000Y-126480000D03*
X175310000Y-126480000D03*
X175310000Y-120755000D03*
X174660000Y-120755000D03*
X174010000Y-120755000D03*
X173360000Y-120755000D03*
X172710000Y-120755000D03*
X172060000Y-120755000D03*
X171410000Y-120755000D03*
X170760000Y-120755000D03*
%TD*%
D31*
%TO.C,C25*%
X202622567Y-117738003D03*
X204522567Y-117738003D03*
%TD*%
D19*
%TO.C,U4*%
X191070000Y-123830000D03*
X191070000Y-123180000D03*
X191070000Y-122530000D03*
X191070000Y-121880000D03*
X191070000Y-121230000D03*
X191070000Y-120580000D03*
X191070000Y-119930000D03*
X185345000Y-119930000D03*
X185345000Y-120580000D03*
X185345000Y-121230000D03*
X185345000Y-121880000D03*
X185345000Y-122530000D03*
X185345000Y-123180000D03*
X185345000Y-123830000D03*
%TD*%
D16*
%TO.C,R52*%
X192500000Y-113550000D03*
X192500000Y-112530000D03*
%TD*%
D10*
%TO.C,R12*%
X189382413Y-128363756D03*
X191032413Y-128363756D03*
%TD*%
D21*
%TO.C,R11*%
X188600816Y-126987580D03*
X188600816Y-125337580D03*
%TD*%
D50*
%TO.C,C2*%
X173350000Y-118900000D03*
X173350000Y-117940000D03*
%TD*%
D15*
%TO.C,32X_R1*%
X198440000Y-142720000D03*
%TD*%
D32*
%TO.C,R24*%
X202575000Y-119980000D03*
X202575000Y-121000000D03*
%TD*%
D20*
%TO.C,C9*%
X192400000Y-126620000D03*
X192400000Y-127580000D03*
%TD*%
D17*
%TO.C,R53*%
X195885000Y-119975000D03*
X194865000Y-119975000D03*
%TD*%
D58*
%TO.C,CN1*%
X180453000Y-99929200D03*
X178421000Y-99929200D03*
X182840600Y-99929200D03*
X180884800Y-102723200D03*
X178929000Y-102723200D03*
X175017400Y-99929200D03*
X182840600Y-102723200D03*
X176973200Y-102723200D03*
X175017400Y-102723200D03*
D59*
X171690000Y-97440000D03*
D60*
X178929000Y-96551000D03*
D59*
X186168000Y-97440000D03*
%TD*%
D16*
%TO.C,R64*%
X216150000Y-118895000D03*
X216150000Y-117875000D03*
%TD*%
D11*
%TO.C,C33*%
X185590000Y-107230000D03*
X184630000Y-107230000D03*
%TD*%
D13*
%TO.C,PSGPD1*%
X212250000Y-126375000D03*
D14*
X210950000Y-126375000D03*
%TD*%
D61*
%TO.C,U5*%
X177478296Y-134179826D03*
X177478296Y-132909826D03*
X177478296Y-131639826D03*
X177478296Y-130369826D03*
X172528296Y-130369826D03*
X172528296Y-131639826D03*
X172528296Y-132909826D03*
X172528296Y-134179826D03*
%TD*%
D24*
%TO.C,R42*%
X203936084Y-111946738D03*
X202286084Y-111946738D03*
%TD*%
D43*
%TO.C,C41*%
X189775000Y-98962500D03*
X189775000Y-95887500D03*
%TD*%
D62*
%TO.C,D1*%
X182506976Y-128044125D03*
X182506976Y-125844125D03*
%TD*%
D23*
%TO.C,R36*%
X190046396Y-116806981D03*
X190046396Y-118456981D03*
%TD*%
D25*
%TO.C,P1*%
X202530000Y-135610000D03*
%TD*%
D34*
%TO.C,FML_2*%
X204350000Y-122925000D03*
D27*
X204350000Y-121625000D03*
D35*
X204350000Y-120325000D03*
%TD*%
D21*
%TO.C,R45*%
X187145781Y-115498447D03*
X187145781Y-113848447D03*
%TD*%
M02*
