%TF.GenerationSoftware,KiCad,Pcbnew,9.0.0*%
%TF.CreationDate,2025-11-20T17:42:52-08:00*%
%TF.ProjectId,MegaAV_VA1,4d656761-4156-45f5-9641-312e6b696361,rev?*%
%TF.SameCoordinates,Original*%
%TF.FileFunction,Legend,Top*%
%TF.FilePolarity,Positive*%
%FSLAX46Y46*%
G04 Gerber Fmt 4.6, Leading zero omitted, Abs format (unit mm)*
G04 Created by KiCad (PCBNEW 9.0.0) date 2025-11-20 17:42:52*
%MOMM*%
%LPD*%
G01*
G04 APERTURE LIST*
%ADD10C,0.100000*%
%ADD11C,0.075000*%
%ADD12C,0.101600*%
%ADD13C,0.125000*%
%ADD14C,0.150000*%
%ADD15C,0.120000*%
%ADD16C,0.127000*%
G04 APERTURE END LIST*
D10*
X201800000Y-122250000D02*
X203300000Y-122250000D01*
X214425000Y-110725000D02*
X214850000Y-110300000D01*
X212950000Y-127000000D02*
X213250000Y-127300000D01*
X201150000Y-138800000D02*
X202050000Y-138800000D01*
X171200000Y-134450000D02*
X171200000Y-135000000D01*
X213400000Y-113350000D02*
X212350000Y-114150000D01*
X217425000Y-110300000D02*
X216900000Y-110300000D01*
X206150000Y-120725000D02*
X206150000Y-119800000D01*
X212900000Y-129050000D02*
X213200000Y-129300000D01*
X170850000Y-134050000D02*
X171200000Y-134450000D01*
X201800000Y-120900000D02*
X203300000Y-120900000D01*
X215450000Y-113400000D02*
X216850000Y-113400000D01*
X212325000Y-123425000D02*
X212700000Y-123200000D01*
X210500000Y-121700000D02*
X208950000Y-121700000D01*
X215450000Y-118100000D02*
X216800000Y-118100000D01*
X205350000Y-122250000D02*
X206950000Y-121750000D01*
X210450000Y-120400000D02*
X209000000Y-120400000D01*
X215450000Y-116750000D02*
X216850000Y-116750000D01*
X213250000Y-127300000D02*
X215827291Y-127300000D01*
X212650000Y-116750000D02*
X213400000Y-116750000D01*
X201050000Y-136650000D02*
X202300000Y-136650000D01*
X212850000Y-130950000D02*
X213250000Y-131250000D01*
X213400000Y-118000000D02*
X212650000Y-118000000D01*
X212750000Y-133050000D02*
X213250000Y-133500000D01*
X212700000Y-123200000D02*
X215891282Y-123200000D01*
X206150000Y-122000000D02*
X206150000Y-122850000D01*
X213250000Y-131250000D02*
X216049624Y-131250000D01*
X202050000Y-138800000D02*
X202350000Y-139100000D01*
X199660000Y-132800000D02*
X199370000Y-133100000D01*
X214850000Y-110300000D02*
X215550000Y-110300000D01*
X200950000Y-134500000D02*
X202000000Y-134500000D01*
X202000000Y-134500000D02*
X202400000Y-134900000D01*
X205350000Y-121000000D02*
X206950000Y-120450000D01*
X217425000Y-110300000D02*
X217875000Y-110700000D01*
X213200000Y-129300000D02*
X216015994Y-129300000D01*
X202300000Y-136650000D02*
X202650000Y-137000000D01*
X215450000Y-112200000D02*
X216850000Y-112200000D01*
X213250000Y-133500000D02*
X215933787Y-133500000D01*
X217359940Y-130011169D02*
X217359940Y-129411169D01*
X217359940Y-129696883D02*
X217702797Y-129696883D01*
X217702797Y-130011169D02*
X217702797Y-129411169D01*
X217988511Y-130011169D02*
X217988511Y-129411169D01*
X217988511Y-129411169D02*
X218217082Y-129411169D01*
X218217082Y-129411169D02*
X218274225Y-129439740D01*
X218274225Y-129439740D02*
X218302796Y-129468312D01*
X218302796Y-129468312D02*
X218331368Y-129525455D01*
X218331368Y-129525455D02*
X218331368Y-129611169D01*
X218331368Y-129611169D02*
X218302796Y-129668312D01*
X218302796Y-129668312D02*
X218274225Y-129696883D01*
X218274225Y-129696883D02*
X218217082Y-129725455D01*
X218217082Y-129725455D02*
X217988511Y-129725455D01*
X217359940Y-130977135D02*
X217359940Y-130377135D01*
X217359940Y-130377135D02*
X217588511Y-130377135D01*
X217588511Y-130377135D02*
X217645654Y-130405706D01*
X217645654Y-130405706D02*
X217674225Y-130434278D01*
X217674225Y-130434278D02*
X217702797Y-130491421D01*
X217702797Y-130491421D02*
X217702797Y-130577135D01*
X217702797Y-130577135D02*
X217674225Y-130634278D01*
X217674225Y-130634278D02*
X217645654Y-130662849D01*
X217645654Y-130662849D02*
X217588511Y-130691421D01*
X217588511Y-130691421D02*
X217359940Y-130691421D01*
X218274225Y-130977135D02*
X217931368Y-130977135D01*
X218102797Y-130977135D02*
X218102797Y-130377135D01*
X218102797Y-130377135D02*
X218045654Y-130462849D01*
X218045654Y-130462849D02*
X217988511Y-130519992D01*
X217988511Y-130519992D02*
X217931368Y-130548564D01*
D11*
X184378563Y-109880692D02*
X184464278Y-109909263D01*
X184464278Y-109909263D02*
X184607135Y-109909263D01*
X184607135Y-109909263D02*
X184664278Y-109880692D01*
X184664278Y-109880692D02*
X184692849Y-109852120D01*
X184692849Y-109852120D02*
X184721420Y-109794977D01*
X184721420Y-109794977D02*
X184721420Y-109737834D01*
X184721420Y-109737834D02*
X184692849Y-109680692D01*
X184692849Y-109680692D02*
X184664278Y-109652120D01*
X184664278Y-109652120D02*
X184607135Y-109623549D01*
X184607135Y-109623549D02*
X184492849Y-109594977D01*
X184492849Y-109594977D02*
X184435706Y-109566406D01*
X184435706Y-109566406D02*
X184407135Y-109537834D01*
X184407135Y-109537834D02*
X184378563Y-109480692D01*
X184378563Y-109480692D02*
X184378563Y-109423549D01*
X184378563Y-109423549D02*
X184407135Y-109366406D01*
X184407135Y-109366406D02*
X184435706Y-109337834D01*
X184435706Y-109337834D02*
X184492849Y-109309263D01*
X184492849Y-109309263D02*
X184635706Y-109309263D01*
X184635706Y-109309263D02*
X184721420Y-109337834D01*
X184949992Y-109737834D02*
X185235707Y-109737834D01*
X184892849Y-109909263D02*
X185092849Y-109309263D01*
X185092849Y-109309263D02*
X185292849Y-109909263D01*
D10*
X179480055Y-132268098D02*
X179422913Y-132239527D01*
X179422913Y-132239527D02*
X179337198Y-132239527D01*
X179337198Y-132239527D02*
X179251484Y-132268098D01*
X179251484Y-132268098D02*
X179194341Y-132325241D01*
X179194341Y-132325241D02*
X179165770Y-132382384D01*
X179165770Y-132382384D02*
X179137198Y-132496670D01*
X179137198Y-132496670D02*
X179137198Y-132582384D01*
X179137198Y-132582384D02*
X179165770Y-132696670D01*
X179165770Y-132696670D02*
X179194341Y-132753813D01*
X179194341Y-132753813D02*
X179251484Y-132810956D01*
X179251484Y-132810956D02*
X179337198Y-132839527D01*
X179337198Y-132839527D02*
X179394341Y-132839527D01*
X179394341Y-132839527D02*
X179480055Y-132810956D01*
X179480055Y-132810956D02*
X179508627Y-132782384D01*
X179508627Y-132782384D02*
X179508627Y-132582384D01*
X179508627Y-132582384D02*
X179394341Y-132582384D01*
X179765770Y-132839527D02*
X179765770Y-132239527D01*
X179765770Y-132239527D02*
X180108627Y-132839527D01*
X180108627Y-132839527D02*
X180108627Y-132239527D01*
X180394341Y-132839527D02*
X180394341Y-132239527D01*
X180394341Y-132239527D02*
X180537198Y-132239527D01*
X180537198Y-132239527D02*
X180622912Y-132268098D01*
X180622912Y-132268098D02*
X180680055Y-132325241D01*
X180680055Y-132325241D02*
X180708626Y-132382384D01*
X180708626Y-132382384D02*
X180737198Y-132496670D01*
X180737198Y-132496670D02*
X180737198Y-132582384D01*
X180737198Y-132582384D02*
X180708626Y-132696670D01*
X180708626Y-132696670D02*
X180680055Y-132753813D01*
X180680055Y-132753813D02*
X180622912Y-132810956D01*
X180622912Y-132810956D02*
X180537198Y-132839527D01*
X180537198Y-132839527D02*
X180394341Y-132839527D01*
X188828783Y-135837976D02*
X188828783Y-135237976D01*
X188828783Y-135237976D02*
X189028783Y-135666547D01*
X189028783Y-135666547D02*
X189228783Y-135237976D01*
X189228783Y-135237976D02*
X189228783Y-135837976D01*
X189514497Y-135837976D02*
X189514497Y-135237976D01*
X189514497Y-135237976D02*
X189657354Y-135237976D01*
X189657354Y-135237976D02*
X189743068Y-135266547D01*
X189743068Y-135266547D02*
X189800211Y-135323690D01*
X189800211Y-135323690D02*
X189828782Y-135380833D01*
X189828782Y-135380833D02*
X189857354Y-135495119D01*
X189857354Y-135495119D02*
X189857354Y-135580833D01*
X189857354Y-135580833D02*
X189828782Y-135695119D01*
X189828782Y-135695119D02*
X189800211Y-135752262D01*
X189800211Y-135752262D02*
X189743068Y-135809405D01*
X189743068Y-135809405D02*
X189657354Y-135837976D01*
X189657354Y-135837976D02*
X189514497Y-135837976D01*
X190428782Y-135837976D02*
X190085925Y-135837976D01*
X190257354Y-135837976D02*
X190257354Y-135237976D01*
X190257354Y-135237976D02*
X190200211Y-135323690D01*
X190200211Y-135323690D02*
X190143068Y-135380833D01*
X190143068Y-135380833D02*
X190085925Y-135409405D01*
X188828783Y-136803942D02*
X188828783Y-136203942D01*
X188828783Y-136203942D02*
X189057354Y-136203942D01*
X189057354Y-136203942D02*
X189114497Y-136232513D01*
X189114497Y-136232513D02*
X189143068Y-136261085D01*
X189143068Y-136261085D02*
X189171640Y-136318228D01*
X189171640Y-136318228D02*
X189171640Y-136403942D01*
X189171640Y-136403942D02*
X189143068Y-136461085D01*
X189143068Y-136461085D02*
X189114497Y-136489656D01*
X189114497Y-136489656D02*
X189057354Y-136518228D01*
X189057354Y-136518228D02*
X188828783Y-136518228D01*
X189428783Y-136203942D02*
X189428783Y-136689656D01*
X189428783Y-136689656D02*
X189457354Y-136746799D01*
X189457354Y-136746799D02*
X189485926Y-136775371D01*
X189485926Y-136775371D02*
X189543068Y-136803942D01*
X189543068Y-136803942D02*
X189657354Y-136803942D01*
X189657354Y-136803942D02*
X189714497Y-136775371D01*
X189714497Y-136775371D02*
X189743068Y-136746799D01*
X189743068Y-136746799D02*
X189771640Y-136689656D01*
X189771640Y-136689656D02*
X189771640Y-136203942D01*
X199567217Y-134188609D02*
X199233884Y-134188609D01*
X199233884Y-134712419D02*
X199233884Y-133712419D01*
X199233884Y-133712419D02*
X199710074Y-133712419D01*
X195601503Y-139655405D02*
X195972931Y-139655405D01*
X195972931Y-139655405D02*
X195772931Y-139883976D01*
X195772931Y-139883976D02*
X195858646Y-139883976D01*
X195858646Y-139883976D02*
X195915789Y-139912548D01*
X195915789Y-139912548D02*
X195944360Y-139941119D01*
X195944360Y-139941119D02*
X195972931Y-139998262D01*
X195972931Y-139998262D02*
X195972931Y-140141119D01*
X195972931Y-140141119D02*
X195944360Y-140198262D01*
X195944360Y-140198262D02*
X195915789Y-140226834D01*
X195915789Y-140226834D02*
X195858646Y-140255405D01*
X195858646Y-140255405D02*
X195687217Y-140255405D01*
X195687217Y-140255405D02*
X195630074Y-140226834D01*
X195630074Y-140226834D02*
X195601503Y-140198262D01*
X196201503Y-139712548D02*
X196230075Y-139683976D01*
X196230075Y-139683976D02*
X196287218Y-139655405D01*
X196287218Y-139655405D02*
X196430075Y-139655405D01*
X196430075Y-139655405D02*
X196487218Y-139683976D01*
X196487218Y-139683976D02*
X196515789Y-139712548D01*
X196515789Y-139712548D02*
X196544360Y-139769691D01*
X196544360Y-139769691D02*
X196544360Y-139826834D01*
X196544360Y-139826834D02*
X196515789Y-139912548D01*
X196515789Y-139912548D02*
X196172932Y-140255405D01*
X196172932Y-140255405D02*
X196544360Y-140255405D01*
X196744361Y-140255405D02*
X197058647Y-139855405D01*
X196744361Y-139855405D02*
X197058647Y-140255405D01*
X196401503Y-141221371D02*
X196115789Y-141221371D01*
X196115789Y-141221371D02*
X196115789Y-140621371D01*
D12*
X218688479Y-122267619D02*
X218053479Y-122267619D01*
X218053479Y-122267619D02*
X218053479Y-122025714D01*
X218053479Y-122025714D02*
X218083717Y-121965238D01*
X218083717Y-121965238D02*
X218113955Y-121935000D01*
X218113955Y-121935000D02*
X218174431Y-121904762D01*
X218174431Y-121904762D02*
X218265145Y-121904762D01*
X218265145Y-121904762D02*
X218325621Y-121935000D01*
X218325621Y-121935000D02*
X218355860Y-121965238D01*
X218355860Y-121965238D02*
X218386098Y-122025714D01*
X218386098Y-122025714D02*
X218386098Y-122267619D01*
X218688479Y-121360476D02*
X218355860Y-121360476D01*
X218355860Y-121360476D02*
X218295383Y-121390714D01*
X218295383Y-121390714D02*
X218265145Y-121451190D01*
X218265145Y-121451190D02*
X218265145Y-121572143D01*
X218265145Y-121572143D02*
X218295383Y-121632619D01*
X218658241Y-121360476D02*
X218688479Y-121420952D01*
X218688479Y-121420952D02*
X218688479Y-121572143D01*
X218688479Y-121572143D02*
X218658241Y-121632619D01*
X218658241Y-121632619D02*
X218597764Y-121662857D01*
X218597764Y-121662857D02*
X218537288Y-121662857D01*
X218537288Y-121662857D02*
X218476812Y-121632619D01*
X218476812Y-121632619D02*
X218446574Y-121572143D01*
X218446574Y-121572143D02*
X218446574Y-121420952D01*
X218446574Y-121420952D02*
X218416336Y-121360476D01*
X218658241Y-121088333D02*
X218688479Y-121027857D01*
X218688479Y-121027857D02*
X218688479Y-120906905D01*
X218688479Y-120906905D02*
X218658241Y-120846428D01*
X218658241Y-120846428D02*
X218597764Y-120816190D01*
X218597764Y-120816190D02*
X218567526Y-120816190D01*
X218567526Y-120816190D02*
X218507050Y-120846428D01*
X218507050Y-120846428D02*
X218476812Y-120906905D01*
X218476812Y-120906905D02*
X218476812Y-120997619D01*
X218476812Y-120997619D02*
X218446574Y-121058095D01*
X218446574Y-121058095D02*
X218386098Y-121088333D01*
X218386098Y-121088333D02*
X218355860Y-121088333D01*
X218355860Y-121088333D02*
X218295383Y-121058095D01*
X218295383Y-121058095D02*
X218265145Y-120997619D01*
X218265145Y-120997619D02*
X218265145Y-120906905D01*
X218265145Y-120906905D02*
X218295383Y-120846428D01*
X218658241Y-120574285D02*
X218688479Y-120513809D01*
X218688479Y-120513809D02*
X218688479Y-120392857D01*
X218688479Y-120392857D02*
X218658241Y-120332380D01*
X218658241Y-120332380D02*
X218597764Y-120302142D01*
X218597764Y-120302142D02*
X218567526Y-120302142D01*
X218567526Y-120302142D02*
X218507050Y-120332380D01*
X218507050Y-120332380D02*
X218476812Y-120392857D01*
X218476812Y-120392857D02*
X218476812Y-120483571D01*
X218476812Y-120483571D02*
X218446574Y-120544047D01*
X218446574Y-120544047D02*
X218386098Y-120574285D01*
X218386098Y-120574285D02*
X218355860Y-120574285D01*
X218355860Y-120574285D02*
X218295383Y-120544047D01*
X218295383Y-120544047D02*
X218265145Y-120483571D01*
X218265145Y-120483571D02*
X218265145Y-120392857D01*
X218265145Y-120392857D02*
X218295383Y-120332380D01*
D10*
X216617664Y-131122419D02*
X216617664Y-130598609D01*
X216617664Y-130598609D02*
X216570045Y-130503371D01*
X216570045Y-130503371D02*
X216474807Y-130455752D01*
X216474807Y-130455752D02*
X216284331Y-130455752D01*
X216284331Y-130455752D02*
X216189093Y-130503371D01*
X216617664Y-131074800D02*
X216522426Y-131122419D01*
X216522426Y-131122419D02*
X216284331Y-131122419D01*
X216284331Y-131122419D02*
X216189093Y-131074800D01*
X216189093Y-131074800D02*
X216141474Y-130979561D01*
X216141474Y-130979561D02*
X216141474Y-130884323D01*
X216141474Y-130884323D02*
X216189093Y-130789085D01*
X216189093Y-130789085D02*
X216284331Y-130741466D01*
X216284331Y-130741466D02*
X216522426Y-130741466D01*
X216522426Y-130741466D02*
X216617664Y-130693847D01*
D12*
X196577270Y-98035830D02*
X196547032Y-98066069D01*
X196547032Y-98066069D02*
X196456318Y-98096307D01*
X196456318Y-98096307D02*
X196395842Y-98096307D01*
X196395842Y-98096307D02*
X196305127Y-98066069D01*
X196305127Y-98066069D02*
X196244651Y-98005592D01*
X196244651Y-98005592D02*
X196214413Y-97945116D01*
X196214413Y-97945116D02*
X196184175Y-97824164D01*
X196184175Y-97824164D02*
X196184175Y-97733449D01*
X196184175Y-97733449D02*
X196214413Y-97612497D01*
X196214413Y-97612497D02*
X196244651Y-97552021D01*
X196244651Y-97552021D02*
X196305127Y-97491545D01*
X196305127Y-97491545D02*
X196395842Y-97461307D01*
X196395842Y-97461307D02*
X196456318Y-97461307D01*
X196456318Y-97461307D02*
X196547032Y-97491545D01*
X196547032Y-97491545D02*
X196577270Y-97521783D01*
D13*
X216213014Y-129564484D02*
X216213014Y-128564484D01*
X216213014Y-128945436D02*
X216308252Y-128897817D01*
X216308252Y-128897817D02*
X216498728Y-128897817D01*
X216498728Y-128897817D02*
X216593966Y-128945436D01*
X216593966Y-128945436D02*
X216641585Y-128993055D01*
X216641585Y-128993055D02*
X216689204Y-129088293D01*
X216689204Y-129088293D02*
X216689204Y-129374007D01*
X216689204Y-129374007D02*
X216641585Y-129469245D01*
X216641585Y-129469245D02*
X216593966Y-129516865D01*
X216593966Y-129516865D02*
X216498728Y-129564484D01*
X216498728Y-129564484D02*
X216308252Y-129564484D01*
X216308252Y-129564484D02*
X216213014Y-129516865D01*
D10*
X182417986Y-135489529D02*
X182503700Y-135518101D01*
X182503700Y-135518101D02*
X182532271Y-135546672D01*
X182532271Y-135546672D02*
X182560843Y-135603815D01*
X182560843Y-135603815D02*
X182560843Y-135689529D01*
X182560843Y-135689529D02*
X182532271Y-135746672D01*
X182532271Y-135746672D02*
X182503700Y-135775244D01*
X182503700Y-135775244D02*
X182446557Y-135803815D01*
X182446557Y-135803815D02*
X182217986Y-135803815D01*
X182217986Y-135803815D02*
X182217986Y-135203815D01*
X182217986Y-135203815D02*
X182417986Y-135203815D01*
X182417986Y-135203815D02*
X182475129Y-135232386D01*
X182475129Y-135232386D02*
X182503700Y-135260958D01*
X182503700Y-135260958D02*
X182532271Y-135318101D01*
X182532271Y-135318101D02*
X182532271Y-135375244D01*
X182532271Y-135375244D02*
X182503700Y-135432386D01*
X182503700Y-135432386D02*
X182475129Y-135460958D01*
X182475129Y-135460958D02*
X182417986Y-135489529D01*
X182417986Y-135489529D02*
X182217986Y-135489529D01*
X217450083Y-125580921D02*
X217450083Y-124980921D01*
X217450083Y-125266635D02*
X217792940Y-125266635D01*
X217792940Y-125580921D02*
X217792940Y-124980921D01*
X218078654Y-125580921D02*
X218078654Y-124980921D01*
X218078654Y-124980921D02*
X218307225Y-124980921D01*
X218307225Y-124980921D02*
X218364368Y-125009492D01*
X218364368Y-125009492D02*
X218392939Y-125038064D01*
X218392939Y-125038064D02*
X218421511Y-125095207D01*
X218421511Y-125095207D02*
X218421511Y-125180921D01*
X218421511Y-125180921D02*
X218392939Y-125238064D01*
X218392939Y-125238064D02*
X218364368Y-125266635D01*
X218364368Y-125266635D02*
X218307225Y-125295207D01*
X218307225Y-125295207D02*
X218078654Y-125295207D01*
X217450083Y-126546887D02*
X217450083Y-125946887D01*
X217450083Y-125946887D02*
X217678654Y-125946887D01*
X217678654Y-125946887D02*
X217735797Y-125975458D01*
X217735797Y-125975458D02*
X217764368Y-126004030D01*
X217764368Y-126004030D02*
X217792940Y-126061173D01*
X217792940Y-126061173D02*
X217792940Y-126146887D01*
X217792940Y-126146887D02*
X217764368Y-126204030D01*
X217764368Y-126204030D02*
X217735797Y-126232601D01*
X217735797Y-126232601D02*
X217678654Y-126261173D01*
X217678654Y-126261173D02*
X217450083Y-126261173D01*
X218021511Y-126004030D02*
X218050083Y-125975458D01*
X218050083Y-125975458D02*
X218107226Y-125946887D01*
X218107226Y-125946887D02*
X218250083Y-125946887D01*
X218250083Y-125946887D02*
X218307226Y-125975458D01*
X218307226Y-125975458D02*
X218335797Y-126004030D01*
X218335797Y-126004030D02*
X218364368Y-126061173D01*
X218364368Y-126061173D02*
X218364368Y-126118316D01*
X218364368Y-126118316D02*
X218335797Y-126204030D01*
X218335797Y-126204030D02*
X217992940Y-126546887D01*
X217992940Y-126546887D02*
X218364368Y-126546887D01*
X216470065Y-127247054D02*
X216374827Y-127294673D01*
X216374827Y-127294673D02*
X216184351Y-127294673D01*
X216184351Y-127294673D02*
X216089113Y-127247054D01*
X216089113Y-127247054D02*
X216041494Y-127199434D01*
X216041494Y-127199434D02*
X215993875Y-127104196D01*
X215993875Y-127104196D02*
X215993875Y-126818482D01*
X215993875Y-126818482D02*
X216041494Y-126723244D01*
X216041494Y-126723244D02*
X216089113Y-126675625D01*
X216089113Y-126675625D02*
X216184351Y-126628006D01*
X216184351Y-126628006D02*
X216374827Y-126628006D01*
X216374827Y-126628006D02*
X216470065Y-126675625D01*
X211558646Y-113872419D02*
X212225312Y-113872419D01*
X212225312Y-113872419D02*
X211558646Y-114872419D01*
X211558646Y-114872419D02*
X212225312Y-114872419D01*
D11*
X184405409Y-117431799D02*
X184119695Y-117431799D01*
X184119695Y-117431799D02*
X184119695Y-116831799D01*
X184605409Y-117431799D02*
X184605409Y-116831799D01*
X184605409Y-116831799D02*
X184833980Y-116831799D01*
X184833980Y-116831799D02*
X184891123Y-116860370D01*
X184891123Y-116860370D02*
X184919694Y-116888942D01*
X184919694Y-116888942D02*
X184948266Y-116946085D01*
X184948266Y-116946085D02*
X184948266Y-117031799D01*
X184948266Y-117031799D02*
X184919694Y-117088942D01*
X184919694Y-117088942D02*
X184891123Y-117117513D01*
X184891123Y-117117513D02*
X184833980Y-117146085D01*
X184833980Y-117146085D02*
X184605409Y-117146085D01*
X185405409Y-117117513D02*
X185205409Y-117117513D01*
X185205409Y-117431799D02*
X185205409Y-116831799D01*
X185205409Y-116831799D02*
X185491123Y-116831799D01*
D10*
X200281503Y-141364228D02*
X200252931Y-141392800D01*
X200252931Y-141392800D02*
X200167217Y-141421371D01*
X200167217Y-141421371D02*
X200110074Y-141421371D01*
X200110074Y-141421371D02*
X200024360Y-141392800D01*
X200024360Y-141392800D02*
X199967217Y-141335657D01*
X199967217Y-141335657D02*
X199938646Y-141278514D01*
X199938646Y-141278514D02*
X199910074Y-141164228D01*
X199910074Y-141164228D02*
X199910074Y-141078514D01*
X199910074Y-141078514D02*
X199938646Y-140964228D01*
X199938646Y-140964228D02*
X199967217Y-140907085D01*
X199967217Y-140907085D02*
X200024360Y-140849942D01*
X200024360Y-140849942D02*
X200110074Y-140821371D01*
X200110074Y-140821371D02*
X200167217Y-140821371D01*
X200167217Y-140821371D02*
X200252931Y-140849942D01*
X200252931Y-140849942D02*
X200281503Y-140878514D01*
X200538646Y-141421371D02*
X200538646Y-140821371D01*
X200538646Y-140821371D02*
X200681503Y-140821371D01*
X200681503Y-140821371D02*
X200767217Y-140849942D01*
X200767217Y-140849942D02*
X200824360Y-140907085D01*
X200824360Y-140907085D02*
X200852931Y-140964228D01*
X200852931Y-140964228D02*
X200881503Y-141078514D01*
X200881503Y-141078514D02*
X200881503Y-141164228D01*
X200881503Y-141164228D02*
X200852931Y-141278514D01*
X200852931Y-141278514D02*
X200824360Y-141335657D01*
X200824360Y-141335657D02*
X200767217Y-141392800D01*
X200767217Y-141392800D02*
X200681503Y-141421371D01*
X200681503Y-141421371D02*
X200538646Y-141421371D01*
X201424360Y-141421371D02*
X201138646Y-141421371D01*
X201138646Y-141421371D02*
X201138646Y-140821371D01*
X184851070Y-135282039D02*
X184793928Y-135253468D01*
X184793928Y-135253468D02*
X184708213Y-135253468D01*
X184708213Y-135253468D02*
X184622499Y-135282039D01*
X184622499Y-135282039D02*
X184565356Y-135339182D01*
X184565356Y-135339182D02*
X184536785Y-135396325D01*
X184536785Y-135396325D02*
X184508213Y-135510611D01*
X184508213Y-135510611D02*
X184508213Y-135596325D01*
X184508213Y-135596325D02*
X184536785Y-135710611D01*
X184536785Y-135710611D02*
X184565356Y-135767754D01*
X184565356Y-135767754D02*
X184622499Y-135824897D01*
X184622499Y-135824897D02*
X184708213Y-135853468D01*
X184708213Y-135853468D02*
X184765356Y-135853468D01*
X184765356Y-135853468D02*
X184851070Y-135824897D01*
X184851070Y-135824897D02*
X184879642Y-135796325D01*
X184879642Y-135796325D02*
X184879642Y-135596325D01*
X184879642Y-135596325D02*
X184765356Y-135596325D01*
X178913759Y-135868965D02*
X178999474Y-135897536D01*
X178999474Y-135897536D02*
X179142331Y-135897536D01*
X179142331Y-135897536D02*
X179199474Y-135868965D01*
X179199474Y-135868965D02*
X179228045Y-135840393D01*
X179228045Y-135840393D02*
X179256616Y-135783250D01*
X179256616Y-135783250D02*
X179256616Y-135726107D01*
X179256616Y-135726107D02*
X179228045Y-135668965D01*
X179228045Y-135668965D02*
X179199474Y-135640393D01*
X179199474Y-135640393D02*
X179142331Y-135611822D01*
X179142331Y-135611822D02*
X179028045Y-135583250D01*
X179028045Y-135583250D02*
X178970902Y-135554679D01*
X178970902Y-135554679D02*
X178942331Y-135526107D01*
X178942331Y-135526107D02*
X178913759Y-135468965D01*
X178913759Y-135468965D02*
X178913759Y-135411822D01*
X178913759Y-135411822D02*
X178942331Y-135354679D01*
X178942331Y-135354679D02*
X178970902Y-135326107D01*
X178970902Y-135326107D02*
X179028045Y-135297536D01*
X179028045Y-135297536D02*
X179170902Y-135297536D01*
X179170902Y-135297536D02*
X179256616Y-135326107D01*
X179713760Y-135583250D02*
X179799474Y-135611822D01*
X179799474Y-135611822D02*
X179828045Y-135640393D01*
X179828045Y-135640393D02*
X179856617Y-135697536D01*
X179856617Y-135697536D02*
X179856617Y-135783250D01*
X179856617Y-135783250D02*
X179828045Y-135840393D01*
X179828045Y-135840393D02*
X179799474Y-135868965D01*
X179799474Y-135868965D02*
X179742331Y-135897536D01*
X179742331Y-135897536D02*
X179513760Y-135897536D01*
X179513760Y-135897536D02*
X179513760Y-135297536D01*
X179513760Y-135297536D02*
X179713760Y-135297536D01*
X179713760Y-135297536D02*
X179770903Y-135326107D01*
X179770903Y-135326107D02*
X179799474Y-135354679D01*
X179799474Y-135354679D02*
X179828045Y-135411822D01*
X179828045Y-135411822D02*
X179828045Y-135468965D01*
X179828045Y-135468965D02*
X179799474Y-135526107D01*
X179799474Y-135526107D02*
X179770903Y-135554679D01*
X179770903Y-135554679D02*
X179713760Y-135583250D01*
X179713760Y-135583250D02*
X179513760Y-135583250D01*
X180456617Y-135840393D02*
X180428045Y-135868965D01*
X180428045Y-135868965D02*
X180342331Y-135897536D01*
X180342331Y-135897536D02*
X180285188Y-135897536D01*
X180285188Y-135897536D02*
X180199474Y-135868965D01*
X180199474Y-135868965D02*
X180142331Y-135811822D01*
X180142331Y-135811822D02*
X180113760Y-135754679D01*
X180113760Y-135754679D02*
X180085188Y-135640393D01*
X180085188Y-135640393D02*
X180085188Y-135554679D01*
X180085188Y-135554679D02*
X180113760Y-135440393D01*
X180113760Y-135440393D02*
X180142331Y-135383250D01*
X180142331Y-135383250D02*
X180199474Y-135326107D01*
X180199474Y-135326107D02*
X180285188Y-135297536D01*
X180285188Y-135297536D02*
X180342331Y-135297536D01*
X180342331Y-135297536D02*
X180428045Y-135326107D01*
X180428045Y-135326107D02*
X180456617Y-135354679D01*
X181056617Y-135897536D02*
X180856617Y-135611822D01*
X180713760Y-135897536D02*
X180713760Y-135297536D01*
X180713760Y-135297536D02*
X180942331Y-135297536D01*
X180942331Y-135297536D02*
X180999474Y-135326107D01*
X180999474Y-135326107D02*
X181028045Y-135354679D01*
X181028045Y-135354679D02*
X181056617Y-135411822D01*
X181056617Y-135411822D02*
X181056617Y-135497536D01*
X181056617Y-135497536D02*
X181028045Y-135554679D01*
X181028045Y-135554679D02*
X180999474Y-135583250D01*
X180999474Y-135583250D02*
X180942331Y-135611822D01*
X180942331Y-135611822D02*
X180713760Y-135611822D01*
X186910039Y-135841055D02*
X186710039Y-135555341D01*
X186567182Y-135841055D02*
X186567182Y-135241055D01*
X186567182Y-135241055D02*
X186795753Y-135241055D01*
X186795753Y-135241055D02*
X186852896Y-135269626D01*
X186852896Y-135269626D02*
X186881467Y-135298198D01*
X186881467Y-135298198D02*
X186910039Y-135355341D01*
X186910039Y-135355341D02*
X186910039Y-135441055D01*
X186910039Y-135441055D02*
X186881467Y-135498198D01*
X186881467Y-135498198D02*
X186852896Y-135526769D01*
X186852896Y-135526769D02*
X186795753Y-135555341D01*
X186795753Y-135555341D02*
X186567182Y-135555341D01*
X216244360Y-110326253D02*
X216244360Y-110802444D01*
X215911027Y-109802444D02*
X216244360Y-110326253D01*
X216244360Y-110326253D02*
X216577693Y-109802444D01*
X205906265Y-118667657D02*
X205953884Y-118620038D01*
X205953884Y-118620038D02*
X206049122Y-118572419D01*
X206049122Y-118572419D02*
X206287217Y-118572419D01*
X206287217Y-118572419D02*
X206382455Y-118620038D01*
X206382455Y-118620038D02*
X206430074Y-118667657D01*
X206430074Y-118667657D02*
X206477693Y-118762895D01*
X206477693Y-118762895D02*
X206477693Y-118858133D01*
X206477693Y-118858133D02*
X206430074Y-119000990D01*
X206430074Y-119000990D02*
X205858646Y-119572419D01*
X205858646Y-119572419D02*
X206477693Y-119572419D01*
X170171503Y-135784228D02*
X170142931Y-135812800D01*
X170142931Y-135812800D02*
X170057217Y-135841371D01*
X170057217Y-135841371D02*
X170000074Y-135841371D01*
X170000074Y-135841371D02*
X169914360Y-135812800D01*
X169914360Y-135812800D02*
X169857217Y-135755657D01*
X169857217Y-135755657D02*
X169828646Y-135698514D01*
X169828646Y-135698514D02*
X169800074Y-135584228D01*
X169800074Y-135584228D02*
X169800074Y-135498514D01*
X169800074Y-135498514D02*
X169828646Y-135384228D01*
X169828646Y-135384228D02*
X169857217Y-135327085D01*
X169857217Y-135327085D02*
X169914360Y-135269942D01*
X169914360Y-135269942D02*
X170000074Y-135241371D01*
X170000074Y-135241371D02*
X170057217Y-135241371D01*
X170057217Y-135241371D02*
X170142931Y-135269942D01*
X170142931Y-135269942D02*
X170171503Y-135298514D01*
X170400074Y-135812800D02*
X170485789Y-135841371D01*
X170485789Y-135841371D02*
X170628646Y-135841371D01*
X170628646Y-135841371D02*
X170685789Y-135812800D01*
X170685789Y-135812800D02*
X170714360Y-135784228D01*
X170714360Y-135784228D02*
X170742931Y-135727085D01*
X170742931Y-135727085D02*
X170742931Y-135669942D01*
X170742931Y-135669942D02*
X170714360Y-135612800D01*
X170714360Y-135612800D02*
X170685789Y-135584228D01*
X170685789Y-135584228D02*
X170628646Y-135555657D01*
X170628646Y-135555657D02*
X170514360Y-135527085D01*
X170514360Y-135527085D02*
X170457217Y-135498514D01*
X170457217Y-135498514D02*
X170428646Y-135469942D01*
X170428646Y-135469942D02*
X170400074Y-135412800D01*
X170400074Y-135412800D02*
X170400074Y-135355657D01*
X170400074Y-135355657D02*
X170428646Y-135298514D01*
X170428646Y-135298514D02*
X170457217Y-135269942D01*
X170457217Y-135269942D02*
X170514360Y-135241371D01*
X170514360Y-135241371D02*
X170657217Y-135241371D01*
X170657217Y-135241371D02*
X170742931Y-135269942D01*
X171114360Y-135555657D02*
X171114360Y-135841371D01*
X170914360Y-135241371D02*
X171114360Y-135555657D01*
X171114360Y-135555657D02*
X171314360Y-135241371D01*
X171514361Y-135841371D02*
X171514361Y-135241371D01*
X171514361Y-135241371D02*
X171857218Y-135841371D01*
X171857218Y-135841371D02*
X171857218Y-135241371D01*
X172485789Y-135784228D02*
X172457217Y-135812800D01*
X172457217Y-135812800D02*
X172371503Y-135841371D01*
X172371503Y-135841371D02*
X172314360Y-135841371D01*
X172314360Y-135841371D02*
X172228646Y-135812800D01*
X172228646Y-135812800D02*
X172171503Y-135755657D01*
X172171503Y-135755657D02*
X172142932Y-135698514D01*
X172142932Y-135698514D02*
X172114360Y-135584228D01*
X172114360Y-135584228D02*
X172114360Y-135498514D01*
X172114360Y-135498514D02*
X172142932Y-135384228D01*
X172142932Y-135384228D02*
X172171503Y-135327085D01*
X172171503Y-135327085D02*
X172228646Y-135269942D01*
X172228646Y-135269942D02*
X172314360Y-135241371D01*
X172314360Y-135241371D02*
X172371503Y-135241371D01*
X172371503Y-135241371D02*
X172457217Y-135269942D01*
X172457217Y-135269942D02*
X172485789Y-135298514D01*
X206777693Y-123822419D02*
X206206265Y-123822419D01*
X206491979Y-123822419D02*
X206491979Y-122822419D01*
X206491979Y-122822419D02*
X206396741Y-122965276D01*
X206396741Y-122965276D02*
X206301503Y-123060514D01*
X206301503Y-123060514D02*
X206206265Y-123108133D01*
X193412931Y-140659942D02*
X193355789Y-140631371D01*
X193355789Y-140631371D02*
X193270074Y-140631371D01*
X193270074Y-140631371D02*
X193184360Y-140659942D01*
X193184360Y-140659942D02*
X193127217Y-140717085D01*
X193127217Y-140717085D02*
X193098646Y-140774228D01*
X193098646Y-140774228D02*
X193070074Y-140888514D01*
X193070074Y-140888514D02*
X193070074Y-140974228D01*
X193070074Y-140974228D02*
X193098646Y-141088514D01*
X193098646Y-141088514D02*
X193127217Y-141145657D01*
X193127217Y-141145657D02*
X193184360Y-141202800D01*
X193184360Y-141202800D02*
X193270074Y-141231371D01*
X193270074Y-141231371D02*
X193327217Y-141231371D01*
X193327217Y-141231371D02*
X193412931Y-141202800D01*
X193412931Y-141202800D02*
X193441503Y-141174228D01*
X193441503Y-141174228D02*
X193441503Y-140974228D01*
X193441503Y-140974228D02*
X193327217Y-140974228D01*
X193698646Y-141231371D02*
X193698646Y-140631371D01*
X193698646Y-140631371D02*
X194041503Y-141231371D01*
X194041503Y-141231371D02*
X194041503Y-140631371D01*
X194327217Y-141231371D02*
X194327217Y-140631371D01*
X194327217Y-140631371D02*
X194470074Y-140631371D01*
X194470074Y-140631371D02*
X194555788Y-140659942D01*
X194555788Y-140659942D02*
X194612931Y-140717085D01*
X194612931Y-140717085D02*
X194641502Y-140774228D01*
X194641502Y-140774228D02*
X194670074Y-140888514D01*
X194670074Y-140888514D02*
X194670074Y-140974228D01*
X194670074Y-140974228D02*
X194641502Y-141088514D01*
X194641502Y-141088514D02*
X194612931Y-141145657D01*
X194612931Y-141145657D02*
X194555788Y-141202800D01*
X194555788Y-141202800D02*
X194470074Y-141231371D01*
X194470074Y-141231371D02*
X194327217Y-141231371D01*
X200577085Y-138111353D02*
X200577085Y-138311353D01*
X200891371Y-138311353D02*
X200291371Y-138311353D01*
X200291371Y-138311353D02*
X200291371Y-138025639D01*
X200891371Y-137797067D02*
X200291371Y-137797067D01*
X200291371Y-137797067D02*
X200719942Y-137597067D01*
X200719942Y-137597067D02*
X200291371Y-137397067D01*
X200291371Y-137397067D02*
X200891371Y-137397067D01*
X200891371Y-136768496D02*
X200605657Y-136968496D01*
X200891371Y-137111353D02*
X200291371Y-137111353D01*
X200291371Y-137111353D02*
X200291371Y-136882782D01*
X200291371Y-136882782D02*
X200319942Y-136825639D01*
X200319942Y-136825639D02*
X200348514Y-136797068D01*
X200348514Y-136797068D02*
X200405657Y-136768496D01*
X200405657Y-136768496D02*
X200491371Y-136768496D01*
X200491371Y-136768496D02*
X200548514Y-136797068D01*
X200548514Y-136797068D02*
X200577085Y-136825639D01*
X200577085Y-136825639D02*
X200605657Y-136882782D01*
X200605657Y-136882782D02*
X200605657Y-137111353D01*
X216623737Y-123911557D02*
X216623737Y-122911557D01*
X216623737Y-123863938D02*
X216528499Y-123911557D01*
X216528499Y-123911557D02*
X216338023Y-123911557D01*
X216338023Y-123911557D02*
X216242785Y-123863938D01*
X216242785Y-123863938D02*
X216195166Y-123816318D01*
X216195166Y-123816318D02*
X216147547Y-123721080D01*
X216147547Y-123721080D02*
X216147547Y-123435366D01*
X216147547Y-123435366D02*
X216195166Y-123340128D01*
X216195166Y-123340128D02*
X216242785Y-123292509D01*
X216242785Y-123292509D02*
X216338023Y-123244890D01*
X216338023Y-123244890D02*
X216528499Y-123244890D01*
X216528499Y-123244890D02*
X216623737Y-123292509D01*
X206218628Y-132078646D02*
X206818628Y-132078646D01*
X206532914Y-132078646D02*
X206532914Y-132421503D01*
X206218628Y-132421503D02*
X206818628Y-132421503D01*
X206218628Y-132707217D02*
X206818628Y-132707217D01*
X206818628Y-132707217D02*
X206818628Y-132935788D01*
X206818628Y-132935788D02*
X206790057Y-132992931D01*
X206790057Y-132992931D02*
X206761485Y-133021502D01*
X206761485Y-133021502D02*
X206704342Y-133050074D01*
X206704342Y-133050074D02*
X206618628Y-133050074D01*
X206618628Y-133050074D02*
X206561485Y-133021502D01*
X206561485Y-133021502D02*
X206532914Y-132992931D01*
X206532914Y-132992931D02*
X206504342Y-132935788D01*
X206504342Y-132935788D02*
X206504342Y-132707217D01*
X206218628Y-133650074D02*
X206504342Y-133450074D01*
X206218628Y-133307217D02*
X206818628Y-133307217D01*
X206818628Y-133307217D02*
X206818628Y-133535788D01*
X206818628Y-133535788D02*
X206790057Y-133592931D01*
X206790057Y-133592931D02*
X206761485Y-133621502D01*
X206761485Y-133621502D02*
X206704342Y-133650074D01*
X206704342Y-133650074D02*
X206618628Y-133650074D01*
X206618628Y-133650074D02*
X206561485Y-133621502D01*
X206561485Y-133621502D02*
X206532914Y-133592931D01*
X206532914Y-133592931D02*
X206504342Y-133535788D01*
X206504342Y-133535788D02*
X206504342Y-133307217D01*
X197801503Y-139605405D02*
X198172931Y-139605405D01*
X198172931Y-139605405D02*
X197972931Y-139833976D01*
X197972931Y-139833976D02*
X198058646Y-139833976D01*
X198058646Y-139833976D02*
X198115789Y-139862548D01*
X198115789Y-139862548D02*
X198144360Y-139891119D01*
X198144360Y-139891119D02*
X198172931Y-139948262D01*
X198172931Y-139948262D02*
X198172931Y-140091119D01*
X198172931Y-140091119D02*
X198144360Y-140148262D01*
X198144360Y-140148262D02*
X198115789Y-140176834D01*
X198115789Y-140176834D02*
X198058646Y-140205405D01*
X198058646Y-140205405D02*
X197887217Y-140205405D01*
X197887217Y-140205405D02*
X197830074Y-140176834D01*
X197830074Y-140176834D02*
X197801503Y-140148262D01*
X198401503Y-139662548D02*
X198430075Y-139633976D01*
X198430075Y-139633976D02*
X198487218Y-139605405D01*
X198487218Y-139605405D02*
X198630075Y-139605405D01*
X198630075Y-139605405D02*
X198687218Y-139633976D01*
X198687218Y-139633976D02*
X198715789Y-139662548D01*
X198715789Y-139662548D02*
X198744360Y-139719691D01*
X198744360Y-139719691D02*
X198744360Y-139776834D01*
X198744360Y-139776834D02*
X198715789Y-139862548D01*
X198715789Y-139862548D02*
X198372932Y-140205405D01*
X198372932Y-140205405D02*
X198744360Y-140205405D01*
X198944361Y-140205405D02*
X199258647Y-139805405D01*
X198944361Y-139805405D02*
X199258647Y-140205405D01*
X198658646Y-141171371D02*
X198458646Y-140885657D01*
X198315789Y-141171371D02*
X198315789Y-140571371D01*
X198315789Y-140571371D02*
X198544360Y-140571371D01*
X198544360Y-140571371D02*
X198601503Y-140599942D01*
X198601503Y-140599942D02*
X198630074Y-140628514D01*
X198630074Y-140628514D02*
X198658646Y-140685657D01*
X198658646Y-140685657D02*
X198658646Y-140771371D01*
X198658646Y-140771371D02*
X198630074Y-140828514D01*
X198630074Y-140828514D02*
X198601503Y-140857085D01*
X198601503Y-140857085D02*
X198544360Y-140885657D01*
X198544360Y-140885657D02*
X198315789Y-140885657D01*
X211608646Y-117472419D02*
X212275312Y-117472419D01*
X212275312Y-117472419D02*
X211608646Y-118472419D01*
X211608646Y-118472419D02*
X212275312Y-118472419D01*
X190518646Y-141042800D02*
X190975789Y-141042800D01*
X190747217Y-141271371D02*
X190747217Y-140814228D01*
X191547217Y-140671371D02*
X191261503Y-140671371D01*
X191261503Y-140671371D02*
X191232931Y-140957085D01*
X191232931Y-140957085D02*
X191261503Y-140928514D01*
X191261503Y-140928514D02*
X191318646Y-140899942D01*
X191318646Y-140899942D02*
X191461503Y-140899942D01*
X191461503Y-140899942D02*
X191518646Y-140928514D01*
X191518646Y-140928514D02*
X191547217Y-140957085D01*
X191547217Y-140957085D02*
X191575788Y-141014228D01*
X191575788Y-141014228D02*
X191575788Y-141157085D01*
X191575788Y-141157085D02*
X191547217Y-141214228D01*
X191547217Y-141214228D02*
X191518646Y-141242800D01*
X191518646Y-141242800D02*
X191461503Y-141271371D01*
X191461503Y-141271371D02*
X191318646Y-141271371D01*
X191318646Y-141271371D02*
X191261503Y-141242800D01*
X191261503Y-141242800D02*
X191232931Y-141214228D01*
X191747217Y-140671371D02*
X191947217Y-141271371D01*
X191947217Y-141271371D02*
X192147217Y-140671371D01*
X202411503Y-141384228D02*
X202382931Y-141412800D01*
X202382931Y-141412800D02*
X202297217Y-141441371D01*
X202297217Y-141441371D02*
X202240074Y-141441371D01*
X202240074Y-141441371D02*
X202154360Y-141412800D01*
X202154360Y-141412800D02*
X202097217Y-141355657D01*
X202097217Y-141355657D02*
X202068646Y-141298514D01*
X202068646Y-141298514D02*
X202040074Y-141184228D01*
X202040074Y-141184228D02*
X202040074Y-141098514D01*
X202040074Y-141098514D02*
X202068646Y-140984228D01*
X202068646Y-140984228D02*
X202097217Y-140927085D01*
X202097217Y-140927085D02*
X202154360Y-140869942D01*
X202154360Y-140869942D02*
X202240074Y-140841371D01*
X202240074Y-140841371D02*
X202297217Y-140841371D01*
X202297217Y-140841371D02*
X202382931Y-140869942D01*
X202382931Y-140869942D02*
X202411503Y-140898514D01*
X202668646Y-141441371D02*
X202668646Y-140841371D01*
X202668646Y-140841371D02*
X202811503Y-140841371D01*
X202811503Y-140841371D02*
X202897217Y-140869942D01*
X202897217Y-140869942D02*
X202954360Y-140927085D01*
X202954360Y-140927085D02*
X202982931Y-140984228D01*
X202982931Y-140984228D02*
X203011503Y-141098514D01*
X203011503Y-141098514D02*
X203011503Y-141184228D01*
X203011503Y-141184228D02*
X202982931Y-141298514D01*
X202982931Y-141298514D02*
X202954360Y-141355657D01*
X202954360Y-141355657D02*
X202897217Y-141412800D01*
X202897217Y-141412800D02*
X202811503Y-141441371D01*
X202811503Y-141441371D02*
X202668646Y-141441371D01*
X203611503Y-141441371D02*
X203411503Y-141155657D01*
X203268646Y-141441371D02*
X203268646Y-140841371D01*
X203268646Y-140841371D02*
X203497217Y-140841371D01*
X203497217Y-140841371D02*
X203554360Y-140869942D01*
X203554360Y-140869942D02*
X203582931Y-140898514D01*
X203582931Y-140898514D02*
X203611503Y-140955657D01*
X203611503Y-140955657D02*
X203611503Y-141041371D01*
X203611503Y-141041371D02*
X203582931Y-141098514D01*
X203582931Y-141098514D02*
X203554360Y-141127085D01*
X203554360Y-141127085D02*
X203497217Y-141155657D01*
X203497217Y-141155657D02*
X203268646Y-141155657D01*
X200881371Y-136191353D02*
X200281371Y-136191353D01*
X200281371Y-136191353D02*
X200281371Y-135962782D01*
X200281371Y-135962782D02*
X200309942Y-135905639D01*
X200309942Y-135905639D02*
X200338514Y-135877068D01*
X200338514Y-135877068D02*
X200395657Y-135848496D01*
X200395657Y-135848496D02*
X200481371Y-135848496D01*
X200481371Y-135848496D02*
X200538514Y-135877068D01*
X200538514Y-135877068D02*
X200567085Y-135905639D01*
X200567085Y-135905639D02*
X200595657Y-135962782D01*
X200595657Y-135962782D02*
X200595657Y-136191353D01*
X200852800Y-135619925D02*
X200881371Y-135534211D01*
X200881371Y-135534211D02*
X200881371Y-135391353D01*
X200881371Y-135391353D02*
X200852800Y-135334211D01*
X200852800Y-135334211D02*
X200824228Y-135305639D01*
X200824228Y-135305639D02*
X200767085Y-135277068D01*
X200767085Y-135277068D02*
X200709942Y-135277068D01*
X200709942Y-135277068D02*
X200652800Y-135305639D01*
X200652800Y-135305639D02*
X200624228Y-135334211D01*
X200624228Y-135334211D02*
X200595657Y-135391353D01*
X200595657Y-135391353D02*
X200567085Y-135505639D01*
X200567085Y-135505639D02*
X200538514Y-135562782D01*
X200538514Y-135562782D02*
X200509942Y-135591353D01*
X200509942Y-135591353D02*
X200452800Y-135619925D01*
X200452800Y-135619925D02*
X200395657Y-135619925D01*
X200395657Y-135619925D02*
X200338514Y-135591353D01*
X200338514Y-135591353D02*
X200309942Y-135562782D01*
X200309942Y-135562782D02*
X200281371Y-135505639D01*
X200281371Y-135505639D02*
X200281371Y-135362782D01*
X200281371Y-135362782D02*
X200309942Y-135277068D01*
X200309942Y-134705639D02*
X200281371Y-134762782D01*
X200281371Y-134762782D02*
X200281371Y-134848496D01*
X200281371Y-134848496D02*
X200309942Y-134934210D01*
X200309942Y-134934210D02*
X200367085Y-134991353D01*
X200367085Y-134991353D02*
X200424228Y-135019924D01*
X200424228Y-135019924D02*
X200538514Y-135048496D01*
X200538514Y-135048496D02*
X200624228Y-135048496D01*
X200624228Y-135048496D02*
X200738514Y-135019924D01*
X200738514Y-135019924D02*
X200795657Y-134991353D01*
X200795657Y-134991353D02*
X200852800Y-134934210D01*
X200852800Y-134934210D02*
X200881371Y-134848496D01*
X200881371Y-134848496D02*
X200881371Y-134791353D01*
X200881371Y-134791353D02*
X200852800Y-134705639D01*
X200852800Y-134705639D02*
X200824228Y-134677067D01*
X200824228Y-134677067D02*
X200624228Y-134677067D01*
X200624228Y-134677067D02*
X200624228Y-134791353D01*
X216531720Y-133372419D02*
X216531720Y-132372419D01*
X216531720Y-133324800D02*
X216436482Y-133372419D01*
X216436482Y-133372419D02*
X216246006Y-133372419D01*
X216246006Y-133372419D02*
X216150768Y-133324800D01*
X216150768Y-133324800D02*
X216103149Y-133277180D01*
X216103149Y-133277180D02*
X216055530Y-133181942D01*
X216055530Y-133181942D02*
X216055530Y-132896228D01*
X216055530Y-132896228D02*
X216103149Y-132800990D01*
X216103149Y-132800990D02*
X216150768Y-132753371D01*
X216150768Y-132753371D02*
X216246006Y-132705752D01*
X216246006Y-132705752D02*
X216436482Y-132705752D01*
X216436482Y-132705752D02*
X216531720Y-132753371D01*
X211944360Y-116296228D02*
X211944360Y-116772419D01*
X211611027Y-115772419D02*
X211944360Y-116296228D01*
X211944360Y-116296228D02*
X212277693Y-115772419D01*
X200607085Y-140041353D02*
X200607085Y-140241353D01*
X200921371Y-140241353D02*
X200321371Y-140241353D01*
X200321371Y-140241353D02*
X200321371Y-139955639D01*
X200921371Y-139727067D02*
X200321371Y-139727067D01*
X200321371Y-139727067D02*
X200749942Y-139527067D01*
X200749942Y-139527067D02*
X200321371Y-139327067D01*
X200321371Y-139327067D02*
X200921371Y-139327067D01*
X200921371Y-138755639D02*
X200921371Y-139041353D01*
X200921371Y-139041353D02*
X200321371Y-139041353D01*
X203698628Y-132188646D02*
X204298628Y-132188646D01*
X204012914Y-132188646D02*
X204012914Y-132531503D01*
X203698628Y-132531503D02*
X204298628Y-132531503D01*
X203698628Y-132817217D02*
X204298628Y-132817217D01*
X204298628Y-132817217D02*
X204298628Y-133045788D01*
X204298628Y-133045788D02*
X204270057Y-133102931D01*
X204270057Y-133102931D02*
X204241485Y-133131502D01*
X204241485Y-133131502D02*
X204184342Y-133160074D01*
X204184342Y-133160074D02*
X204098628Y-133160074D01*
X204098628Y-133160074D02*
X204041485Y-133131502D01*
X204041485Y-133131502D02*
X204012914Y-133102931D01*
X204012914Y-133102931D02*
X203984342Y-133045788D01*
X203984342Y-133045788D02*
X203984342Y-132817217D01*
X203698628Y-133702931D02*
X203698628Y-133417217D01*
X203698628Y-133417217D02*
X204298628Y-133417217D01*
D12*
X196545866Y-95116372D02*
X196545866Y-95418753D01*
X196334200Y-94783753D02*
X196545866Y-95116372D01*
X196545866Y-95116372D02*
X196757533Y-94783753D01*
D11*
X170582925Y-115576531D02*
X170382925Y-115290817D01*
X170240068Y-115576531D02*
X170240068Y-114976531D01*
X170240068Y-114976531D02*
X170468639Y-114976531D01*
X170468639Y-114976531D02*
X170525782Y-115005102D01*
X170525782Y-115005102D02*
X170554353Y-115033674D01*
X170554353Y-115033674D02*
X170582925Y-115090817D01*
X170582925Y-115090817D02*
X170582925Y-115176531D01*
X170582925Y-115176531D02*
X170554353Y-115233674D01*
X170554353Y-115233674D02*
X170525782Y-115262245D01*
X170525782Y-115262245D02*
X170468639Y-115290817D01*
X170468639Y-115290817D02*
X170240068Y-115290817D01*
X170840068Y-115262245D02*
X171040068Y-115262245D01*
X171125782Y-115576531D02*
X170840068Y-115576531D01*
X170840068Y-115576531D02*
X170840068Y-114976531D01*
X170840068Y-114976531D02*
X171125782Y-114976531D01*
X171697210Y-115005102D02*
X171640068Y-114976531D01*
X171640068Y-114976531D02*
X171554353Y-114976531D01*
X171554353Y-114976531D02*
X171468639Y-115005102D01*
X171468639Y-115005102D02*
X171411496Y-115062245D01*
X171411496Y-115062245D02*
X171382925Y-115119388D01*
X171382925Y-115119388D02*
X171354353Y-115233674D01*
X171354353Y-115233674D02*
X171354353Y-115319388D01*
X171354353Y-115319388D02*
X171382925Y-115433674D01*
X171382925Y-115433674D02*
X171411496Y-115490817D01*
X171411496Y-115490817D02*
X171468639Y-115547960D01*
X171468639Y-115547960D02*
X171554353Y-115576531D01*
X171554353Y-115576531D02*
X171611496Y-115576531D01*
X171611496Y-115576531D02*
X171697210Y-115547960D01*
X171697210Y-115547960D02*
X171725782Y-115519388D01*
X171725782Y-115519388D02*
X171725782Y-115319388D01*
X171725782Y-115319388D02*
X171611496Y-115319388D01*
X171982925Y-115576531D02*
X171982925Y-114976531D01*
X172382924Y-114976531D02*
X172497210Y-114976531D01*
X172497210Y-114976531D02*
X172554353Y-115005102D01*
X172554353Y-115005102D02*
X172611496Y-115062245D01*
X172611496Y-115062245D02*
X172640067Y-115176531D01*
X172640067Y-115176531D02*
X172640067Y-115376531D01*
X172640067Y-115376531D02*
X172611496Y-115490817D01*
X172611496Y-115490817D02*
X172554353Y-115547960D01*
X172554353Y-115547960D02*
X172497210Y-115576531D01*
X172497210Y-115576531D02*
X172382924Y-115576531D01*
X172382924Y-115576531D02*
X172325782Y-115547960D01*
X172325782Y-115547960D02*
X172268639Y-115490817D01*
X172268639Y-115490817D02*
X172240067Y-115376531D01*
X172240067Y-115376531D02*
X172240067Y-115176531D01*
X172240067Y-115176531D02*
X172268639Y-115062245D01*
X172268639Y-115062245D02*
X172325782Y-115005102D01*
X172325782Y-115005102D02*
X172382924Y-114976531D01*
X172897210Y-115576531D02*
X172897210Y-114976531D01*
X172897210Y-114976531D02*
X173240067Y-115576531D01*
X173240067Y-115576531D02*
X173240067Y-114976531D01*
D14*
X196820931Y-114254819D02*
X196820931Y-115064342D01*
X196820931Y-115064342D02*
X196868550Y-115159580D01*
X196868550Y-115159580D02*
X196916169Y-115207200D01*
X196916169Y-115207200D02*
X197011407Y-115254819D01*
X197011407Y-115254819D02*
X197201883Y-115254819D01*
X197201883Y-115254819D02*
X197297121Y-115207200D01*
X197297121Y-115207200D02*
X197344740Y-115159580D01*
X197344740Y-115159580D02*
X197392359Y-115064342D01*
X197392359Y-115064342D02*
X197392359Y-114254819D01*
X197773312Y-114254819D02*
X198439978Y-114254819D01*
X198439978Y-114254819D02*
X198011407Y-115254819D01*
D12*
X215405536Y-122741048D02*
X215429726Y-122668476D01*
X215429726Y-122668476D02*
X215429726Y-122547524D01*
X215429726Y-122547524D02*
X215405536Y-122499143D01*
X215405536Y-122499143D02*
X215381345Y-122474952D01*
X215381345Y-122474952D02*
X215332964Y-122450762D01*
X215332964Y-122450762D02*
X215284583Y-122450762D01*
X215284583Y-122450762D02*
X215236202Y-122474952D01*
X215236202Y-122474952D02*
X215212012Y-122499143D01*
X215212012Y-122499143D02*
X215187821Y-122547524D01*
X215187821Y-122547524D02*
X215163631Y-122644286D01*
X215163631Y-122644286D02*
X215139440Y-122692667D01*
X215139440Y-122692667D02*
X215115250Y-122716857D01*
X215115250Y-122716857D02*
X215066869Y-122741048D01*
X215066869Y-122741048D02*
X215018488Y-122741048D01*
X215018488Y-122741048D02*
X214970107Y-122716857D01*
X214970107Y-122716857D02*
X214945916Y-122692667D01*
X214945916Y-122692667D02*
X214921726Y-122644286D01*
X214921726Y-122644286D02*
X214921726Y-122523333D01*
X214921726Y-122523333D02*
X214945916Y-122450762D01*
X215429726Y-121942761D02*
X215187821Y-122112095D01*
X215429726Y-122233047D02*
X214921726Y-122233047D01*
X214921726Y-122233047D02*
X214921726Y-122039523D01*
X214921726Y-122039523D02*
X214945916Y-121991142D01*
X214945916Y-121991142D02*
X214970107Y-121966952D01*
X214970107Y-121966952D02*
X215018488Y-121942761D01*
X215018488Y-121942761D02*
X215091059Y-121942761D01*
X215091059Y-121942761D02*
X215139440Y-121966952D01*
X215139440Y-121966952D02*
X215163631Y-121991142D01*
X215163631Y-121991142D02*
X215187821Y-122039523D01*
X215187821Y-122039523D02*
X215187821Y-122233047D01*
X214921726Y-121773428D02*
X214921726Y-121458952D01*
X214921726Y-121458952D02*
X215115250Y-121628285D01*
X215115250Y-121628285D02*
X215115250Y-121555714D01*
X215115250Y-121555714D02*
X215139440Y-121507333D01*
X215139440Y-121507333D02*
X215163631Y-121483142D01*
X215163631Y-121483142D02*
X215212012Y-121458952D01*
X215212012Y-121458952D02*
X215332964Y-121458952D01*
X215332964Y-121458952D02*
X215381345Y-121483142D01*
X215381345Y-121483142D02*
X215405536Y-121507333D01*
X215405536Y-121507333D02*
X215429726Y-121555714D01*
X215429726Y-121555714D02*
X215429726Y-121700857D01*
X215429726Y-121700857D02*
X215405536Y-121749238D01*
X215405536Y-121749238D02*
X215381345Y-121773428D01*
D14*
X177939819Y-111741904D02*
X178749342Y-111741904D01*
X178749342Y-111741904D02*
X178844580Y-111694285D01*
X178844580Y-111694285D02*
X178892200Y-111646666D01*
X178892200Y-111646666D02*
X178939819Y-111551428D01*
X178939819Y-111551428D02*
X178939819Y-111360952D01*
X178939819Y-111360952D02*
X178892200Y-111265714D01*
X178892200Y-111265714D02*
X178844580Y-111218095D01*
X178844580Y-111218095D02*
X178749342Y-111170476D01*
X178749342Y-111170476D02*
X177939819Y-111170476D01*
X178368390Y-110551428D02*
X178320771Y-110646666D01*
X178320771Y-110646666D02*
X178273152Y-110694285D01*
X178273152Y-110694285D02*
X178177914Y-110741904D01*
X178177914Y-110741904D02*
X178130295Y-110741904D01*
X178130295Y-110741904D02*
X178035057Y-110694285D01*
X178035057Y-110694285D02*
X177987438Y-110646666D01*
X177987438Y-110646666D02*
X177939819Y-110551428D01*
X177939819Y-110551428D02*
X177939819Y-110360952D01*
X177939819Y-110360952D02*
X177987438Y-110265714D01*
X177987438Y-110265714D02*
X178035057Y-110218095D01*
X178035057Y-110218095D02*
X178130295Y-110170476D01*
X178130295Y-110170476D02*
X178177914Y-110170476D01*
X178177914Y-110170476D02*
X178273152Y-110218095D01*
X178273152Y-110218095D02*
X178320771Y-110265714D01*
X178320771Y-110265714D02*
X178368390Y-110360952D01*
X178368390Y-110360952D02*
X178368390Y-110551428D01*
X178368390Y-110551428D02*
X178416009Y-110646666D01*
X178416009Y-110646666D02*
X178463628Y-110694285D01*
X178463628Y-110694285D02*
X178558866Y-110741904D01*
X178558866Y-110741904D02*
X178749342Y-110741904D01*
X178749342Y-110741904D02*
X178844580Y-110694285D01*
X178844580Y-110694285D02*
X178892200Y-110646666D01*
X178892200Y-110646666D02*
X178939819Y-110551428D01*
X178939819Y-110551428D02*
X178939819Y-110360952D01*
X178939819Y-110360952D02*
X178892200Y-110265714D01*
X178892200Y-110265714D02*
X178844580Y-110218095D01*
X178844580Y-110218095D02*
X178749342Y-110170476D01*
X178749342Y-110170476D02*
X178558866Y-110170476D01*
X178558866Y-110170476D02*
X178463628Y-110218095D01*
X178463628Y-110218095D02*
X178416009Y-110265714D01*
X178416009Y-110265714D02*
X178368390Y-110360952D01*
X198158095Y-127204819D02*
X198158095Y-128014342D01*
X198158095Y-128014342D02*
X198205714Y-128109580D01*
X198205714Y-128109580D02*
X198253333Y-128157200D01*
X198253333Y-128157200D02*
X198348571Y-128204819D01*
X198348571Y-128204819D02*
X198539047Y-128204819D01*
X198539047Y-128204819D02*
X198634285Y-128157200D01*
X198634285Y-128157200D02*
X198681904Y-128109580D01*
X198681904Y-128109580D02*
X198729523Y-128014342D01*
X198729523Y-128014342D02*
X198729523Y-127204819D01*
X199110476Y-127204819D02*
X199729523Y-127204819D01*
X199729523Y-127204819D02*
X199396190Y-127585771D01*
X199396190Y-127585771D02*
X199539047Y-127585771D01*
X199539047Y-127585771D02*
X199634285Y-127633390D01*
X199634285Y-127633390D02*
X199681904Y-127681009D01*
X199681904Y-127681009D02*
X199729523Y-127776247D01*
X199729523Y-127776247D02*
X199729523Y-128014342D01*
X199729523Y-128014342D02*
X199681904Y-128109580D01*
X199681904Y-128109580D02*
X199634285Y-128157200D01*
X199634285Y-128157200D02*
X199539047Y-128204819D01*
X199539047Y-128204819D02*
X199253333Y-128204819D01*
X199253333Y-128204819D02*
X199158095Y-128157200D01*
X199158095Y-128157200D02*
X199110476Y-128109580D01*
D12*
X215355536Y-121042667D02*
X215379726Y-120970095D01*
X215379726Y-120970095D02*
X215379726Y-120849143D01*
X215379726Y-120849143D02*
X215355536Y-120800762D01*
X215355536Y-120800762D02*
X215331345Y-120776571D01*
X215331345Y-120776571D02*
X215282964Y-120752381D01*
X215282964Y-120752381D02*
X215234583Y-120752381D01*
X215234583Y-120752381D02*
X215186202Y-120776571D01*
X215186202Y-120776571D02*
X215162012Y-120800762D01*
X215162012Y-120800762D02*
X215137821Y-120849143D01*
X215137821Y-120849143D02*
X215113631Y-120945905D01*
X215113631Y-120945905D02*
X215089440Y-120994286D01*
X215089440Y-120994286D02*
X215065250Y-121018476D01*
X215065250Y-121018476D02*
X215016869Y-121042667D01*
X215016869Y-121042667D02*
X214968488Y-121042667D01*
X214968488Y-121042667D02*
X214920107Y-121018476D01*
X214920107Y-121018476D02*
X214895916Y-120994286D01*
X214895916Y-120994286D02*
X214871726Y-120945905D01*
X214871726Y-120945905D02*
X214871726Y-120824952D01*
X214871726Y-120824952D02*
X214895916Y-120752381D01*
X215379726Y-120292761D02*
X215379726Y-120534666D01*
X215379726Y-120534666D02*
X214871726Y-120534666D01*
X214871726Y-120171809D02*
X214871726Y-119857333D01*
X214871726Y-119857333D02*
X215065250Y-120026666D01*
X215065250Y-120026666D02*
X215065250Y-119954095D01*
X215065250Y-119954095D02*
X215089440Y-119905714D01*
X215089440Y-119905714D02*
X215113631Y-119881523D01*
X215113631Y-119881523D02*
X215162012Y-119857333D01*
X215162012Y-119857333D02*
X215282964Y-119857333D01*
X215282964Y-119857333D02*
X215331345Y-119881523D01*
X215331345Y-119881523D02*
X215355536Y-119905714D01*
X215355536Y-119905714D02*
X215379726Y-119954095D01*
X215379726Y-119954095D02*
X215379726Y-120099238D01*
X215379726Y-120099238D02*
X215355536Y-120147619D01*
X215355536Y-120147619D02*
X215331345Y-120171809D01*
D14*
X182670936Y-130979449D02*
X183480459Y-130979449D01*
X183480459Y-130979449D02*
X183575697Y-130931830D01*
X183575697Y-130931830D02*
X183623317Y-130884211D01*
X183623317Y-130884211D02*
X183670936Y-130788973D01*
X183670936Y-130788973D02*
X183670936Y-130598497D01*
X183670936Y-130598497D02*
X183623317Y-130503259D01*
X183623317Y-130503259D02*
X183575697Y-130455640D01*
X183575697Y-130455640D02*
X183480459Y-130408021D01*
X183480459Y-130408021D02*
X182670936Y-130408021D01*
X183670936Y-129884211D02*
X183670936Y-129693735D01*
X183670936Y-129693735D02*
X183623317Y-129598497D01*
X183623317Y-129598497D02*
X183575697Y-129550878D01*
X183575697Y-129550878D02*
X183432840Y-129455640D01*
X183432840Y-129455640D02*
X183242364Y-129408021D01*
X183242364Y-129408021D02*
X182861412Y-129408021D01*
X182861412Y-129408021D02*
X182766174Y-129455640D01*
X182766174Y-129455640D02*
X182718555Y-129503259D01*
X182718555Y-129503259D02*
X182670936Y-129598497D01*
X182670936Y-129598497D02*
X182670936Y-129788973D01*
X182670936Y-129788973D02*
X182718555Y-129884211D01*
X182718555Y-129884211D02*
X182766174Y-129931830D01*
X182766174Y-129931830D02*
X182861412Y-129979449D01*
X182861412Y-129979449D02*
X183099507Y-129979449D01*
X183099507Y-129979449D02*
X183194745Y-129931830D01*
X183194745Y-129931830D02*
X183242364Y-129884211D01*
X183242364Y-129884211D02*
X183289983Y-129788973D01*
X183289983Y-129788973D02*
X183289983Y-129598497D01*
X183289983Y-129598497D02*
X183242364Y-129503259D01*
X183242364Y-129503259D02*
X183194745Y-129455640D01*
X183194745Y-129455640D02*
X183099507Y-129408021D01*
X189263095Y-102954819D02*
X189263095Y-103764342D01*
X189263095Y-103764342D02*
X189310714Y-103859580D01*
X189310714Y-103859580D02*
X189358333Y-103907200D01*
X189358333Y-103907200D02*
X189453571Y-103954819D01*
X189453571Y-103954819D02*
X189644047Y-103954819D01*
X189644047Y-103954819D02*
X189739285Y-103907200D01*
X189739285Y-103907200D02*
X189786904Y-103859580D01*
X189786904Y-103859580D02*
X189834523Y-103764342D01*
X189834523Y-103764342D02*
X189834523Y-102954819D01*
X190739285Y-102954819D02*
X190548809Y-102954819D01*
X190548809Y-102954819D02*
X190453571Y-103002438D01*
X190453571Y-103002438D02*
X190405952Y-103050057D01*
X190405952Y-103050057D02*
X190310714Y-103192914D01*
X190310714Y-103192914D02*
X190263095Y-103383390D01*
X190263095Y-103383390D02*
X190263095Y-103764342D01*
X190263095Y-103764342D02*
X190310714Y-103859580D01*
X190310714Y-103859580D02*
X190358333Y-103907200D01*
X190358333Y-103907200D02*
X190453571Y-103954819D01*
X190453571Y-103954819D02*
X190644047Y-103954819D01*
X190644047Y-103954819D02*
X190739285Y-103907200D01*
X190739285Y-103907200D02*
X190786904Y-103859580D01*
X190786904Y-103859580D02*
X190834523Y-103764342D01*
X190834523Y-103764342D02*
X190834523Y-103526247D01*
X190834523Y-103526247D02*
X190786904Y-103431009D01*
X190786904Y-103431009D02*
X190739285Y-103383390D01*
X190739285Y-103383390D02*
X190644047Y-103335771D01*
X190644047Y-103335771D02*
X190453571Y-103335771D01*
X190453571Y-103335771D02*
X190358333Y-103383390D01*
X190358333Y-103383390D02*
X190310714Y-103431009D01*
X190310714Y-103431009D02*
X190263095Y-103526247D01*
X178138095Y-123072319D02*
X178138095Y-123881842D01*
X178138095Y-123881842D02*
X178185714Y-123977080D01*
X178185714Y-123977080D02*
X178233333Y-124024700D01*
X178233333Y-124024700D02*
X178328571Y-124072319D01*
X178328571Y-124072319D02*
X178519047Y-124072319D01*
X178519047Y-124072319D02*
X178614285Y-124024700D01*
X178614285Y-124024700D02*
X178661904Y-123977080D01*
X178661904Y-123977080D02*
X178709523Y-123881842D01*
X178709523Y-123881842D02*
X178709523Y-123072319D01*
X179709523Y-124072319D02*
X179138095Y-124072319D01*
X179423809Y-124072319D02*
X179423809Y-123072319D01*
X179423809Y-123072319D02*
X179328571Y-123215176D01*
X179328571Y-123215176D02*
X179233333Y-123310414D01*
X179233333Y-123310414D02*
X179138095Y-123358033D01*
X172338095Y-123072319D02*
X172338095Y-123881842D01*
X172338095Y-123881842D02*
X172385714Y-123977080D01*
X172385714Y-123977080D02*
X172433333Y-124024700D01*
X172433333Y-124024700D02*
X172528571Y-124072319D01*
X172528571Y-124072319D02*
X172719047Y-124072319D01*
X172719047Y-124072319D02*
X172814285Y-124024700D01*
X172814285Y-124024700D02*
X172861904Y-123977080D01*
X172861904Y-123977080D02*
X172909523Y-123881842D01*
X172909523Y-123881842D02*
X172909523Y-123072319D01*
X173338095Y-123167557D02*
X173385714Y-123119938D01*
X173385714Y-123119938D02*
X173480952Y-123072319D01*
X173480952Y-123072319D02*
X173719047Y-123072319D01*
X173719047Y-123072319D02*
X173814285Y-123119938D01*
X173814285Y-123119938D02*
X173861904Y-123167557D01*
X173861904Y-123167557D02*
X173909523Y-123262795D01*
X173909523Y-123262795D02*
X173909523Y-123358033D01*
X173909523Y-123358033D02*
X173861904Y-123500890D01*
X173861904Y-123500890D02*
X173290476Y-124072319D01*
X173290476Y-124072319D02*
X173909523Y-124072319D01*
X187538095Y-121204819D02*
X187538095Y-122014342D01*
X187538095Y-122014342D02*
X187585714Y-122109580D01*
X187585714Y-122109580D02*
X187633333Y-122157200D01*
X187633333Y-122157200D02*
X187728571Y-122204819D01*
X187728571Y-122204819D02*
X187919047Y-122204819D01*
X187919047Y-122204819D02*
X188014285Y-122157200D01*
X188014285Y-122157200D02*
X188061904Y-122109580D01*
X188061904Y-122109580D02*
X188109523Y-122014342D01*
X188109523Y-122014342D02*
X188109523Y-121204819D01*
X189014285Y-121538152D02*
X189014285Y-122204819D01*
X188776190Y-121157200D02*
X188538095Y-121871485D01*
X188538095Y-121871485D02*
X189157142Y-121871485D01*
X174241391Y-131669027D02*
X174241391Y-132478550D01*
X174241391Y-132478550D02*
X174289010Y-132573788D01*
X174289010Y-132573788D02*
X174336629Y-132621408D01*
X174336629Y-132621408D02*
X174431867Y-132669027D01*
X174431867Y-132669027D02*
X174622343Y-132669027D01*
X174622343Y-132669027D02*
X174717581Y-132621408D01*
X174717581Y-132621408D02*
X174765200Y-132573788D01*
X174765200Y-132573788D02*
X174812819Y-132478550D01*
X174812819Y-132478550D02*
X174812819Y-131669027D01*
X175765200Y-131669027D02*
X175289010Y-131669027D01*
X175289010Y-131669027D02*
X175241391Y-132145217D01*
X175241391Y-132145217D02*
X175289010Y-132097598D01*
X175289010Y-132097598D02*
X175384248Y-132049979D01*
X175384248Y-132049979D02*
X175622343Y-132049979D01*
X175622343Y-132049979D02*
X175717581Y-132097598D01*
X175717581Y-132097598D02*
X175765200Y-132145217D01*
X175765200Y-132145217D02*
X175812819Y-132240455D01*
X175812819Y-132240455D02*
X175812819Y-132478550D01*
X175812819Y-132478550D02*
X175765200Y-132573788D01*
X175765200Y-132573788D02*
X175717581Y-132621408D01*
X175717581Y-132621408D02*
X175622343Y-132669027D01*
X175622343Y-132669027D02*
X175384248Y-132669027D01*
X175384248Y-132669027D02*
X175289010Y-132621408D01*
X175289010Y-132621408D02*
X175241391Y-132573788D01*
D15*
%TO.C,R56*%
X197582438Y-96017250D02*
X198056954Y-96017250D01*
X197582438Y-97062250D02*
X198056954Y-97062250D01*
%TO.C,C39*%
X187113649Y-112355431D02*
X186897977Y-112355431D01*
X187113649Y-113075431D02*
X186897977Y-113075431D01*
%TO.C,C8*%
X177202164Y-116750000D02*
X177417836Y-116750000D01*
X177202164Y-117470000D02*
X177417836Y-117470000D01*
%TO.C,PSGPD2*%
X210175000Y-130550000D02*
X210175000Y-129950000D01*
X210875000Y-129250000D02*
X212275000Y-129250000D01*
X212275000Y-131250000D02*
X210875000Y-131250000D01*
X212975000Y-129950000D02*
X212975000Y-130550000D01*
X210175000Y-129950000D02*
G75*
G02*
X210875000Y-129250000I700000J0D01*
G01*
X210875000Y-131250000D02*
G75*
G02*
X210175000Y-130550000I0J700000D01*
G01*
X212275000Y-129250000D02*
G75*
G02*
X212975000Y-129950000I1J-699999D01*
G01*
X212975000Y-130550000D02*
G75*
G02*
X212275000Y-131250000I-699999J-1D01*
G01*
%TO.C,R21*%
X209345000Y-122613641D02*
X209345000Y-122306359D01*
X210105000Y-122613641D02*
X210105000Y-122306359D01*
%TO.C,R72*%
X187297657Y-109447898D02*
X186990375Y-109447898D01*
X187297657Y-110207898D02*
X186990375Y-110207898D01*
%TO.C,C31*%
X188442164Y-105565000D02*
X188657836Y-105565000D01*
X188442164Y-106285000D02*
X188657836Y-106285000D01*
%TO.C,R40*%
X202997551Y-115889479D02*
X202690269Y-115889479D01*
X202997551Y-116649479D02*
X202690269Y-116649479D01*
%TO.C,C17*%
X193195336Y-122170000D02*
X192979664Y-122170000D01*
X193195336Y-122890000D02*
X192979664Y-122890000D01*
%TO.C,R46*%
X198941359Y-109695000D02*
X199248641Y-109695000D01*
X198941359Y-110455000D02*
X199248641Y-110455000D01*
%TO.C,U7*%
X197675000Y-111890000D02*
X195475000Y-111890000D01*
X197675000Y-111890000D02*
X199875000Y-111890000D01*
X197675000Y-117110000D02*
X195475000Y-117110000D01*
X197675000Y-117110000D02*
X199875000Y-117110000D01*
X200815000Y-117240000D02*
X200335000Y-117240000D01*
X200575000Y-116910000D01*
X200815000Y-117240000D01*
G36*
X200815000Y-117240000D02*
G01*
X200335000Y-117240000D01*
X200575000Y-116910000D01*
X200815000Y-117240000D01*
G37*
%TO.C,C11*%
X192090000Y-129567164D02*
X192090000Y-129782836D01*
X192810000Y-129567164D02*
X192810000Y-129782836D01*
%TO.C,R13*%
X183689843Y-126406169D02*
X183689843Y-125931653D01*
X184734843Y-126406169D02*
X184734843Y-125931653D01*
%TO.C,C26*%
X204865662Y-114272885D02*
X204865662Y-113750381D01*
X206335662Y-114272885D02*
X206335662Y-113750381D01*
%TO.C,R63*%
X215765000Y-111918641D02*
X215765000Y-111611359D01*
X216525000Y-111918641D02*
X216525000Y-111611359D01*
%TO.C,R37*%
X188059109Y-117402196D02*
X188059109Y-117876712D01*
X189104109Y-117402196D02*
X189104109Y-117876712D01*
%TO.C,R26*%
X204855817Y-124619474D02*
X204381301Y-124619474D01*
X204855817Y-125664474D02*
X204381301Y-125664474D01*
%TO.C,HPL_RES2*%
X216375000Y-111250000D02*
X216375000Y-111850000D01*
X216675000Y-111550000D02*
X216375000Y-111250000D01*
X216675000Y-111550000D02*
X216375000Y-111850000D01*
X216875000Y-114150000D02*
X216875000Y-111350000D01*
X217575000Y-110700000D02*
X218175000Y-110700000D01*
X218175000Y-114800000D02*
X217575000Y-114800000D01*
X218875000Y-111350000D02*
X218875000Y-114150000D01*
X216875000Y-111400000D02*
G75*
G02*
X217575000Y-110700000I699999J1D01*
G01*
X217575000Y-114800000D02*
G75*
G02*
X216875000Y-114100000I0J700000D01*
G01*
X218175000Y-110700000D02*
G75*
G02*
X218875000Y-111400000I1J-699999D01*
G01*
X218875000Y-114100000D02*
G75*
G02*
X218175000Y-114800000I-700000J0D01*
G01*
%TO.C,MD1_PU1*%
X188169752Y-134322554D02*
X188169752Y-133722554D01*
X188869752Y-133022554D02*
X190269752Y-133022554D01*
X190269752Y-135022554D02*
X188869752Y-135022554D01*
X190969752Y-133722554D02*
X190969752Y-134322554D01*
X188169752Y-133722554D02*
G75*
G02*
X188869752Y-133022554I699999J1D01*
G01*
X188869752Y-135022554D02*
G75*
G02*
X188169752Y-134322554I-1J699999D01*
G01*
X190269752Y-133022554D02*
G75*
G02*
X190969752Y-133722554I0J-700000D01*
G01*
X190969752Y-134322554D02*
G75*
G02*
X190269752Y-135022554I-700000J0D01*
G01*
%TO.C,C10*%
X177518748Y-117965000D02*
X178041252Y-117965000D01*
X177518748Y-119435000D02*
X178041252Y-119435000D01*
%TO.C,R32*%
X203360459Y-129056473D02*
X203360459Y-129363755D01*
X204120459Y-129056473D02*
X204120459Y-129363755D01*
%TO.C,C36*%
X199017164Y-110665000D02*
X199232836Y-110665000D01*
X199017164Y-111385000D02*
X199232836Y-111385000D01*
%TO.C,L1*%
X171769622Y-109772275D02*
X170970378Y-109772275D01*
X171769622Y-110892275D02*
X170970378Y-110892275D01*
%TO.C,R18*%
X191901530Y-131801629D02*
X191901530Y-131494347D01*
X192661530Y-131801629D02*
X192661530Y-131494347D01*
%TO.C,FML_1*%
X199775000Y-122975000D02*
X199775000Y-120175000D01*
X200475000Y-119525000D02*
X201075000Y-119525000D01*
X201075000Y-123625000D02*
X200475000Y-123625000D01*
X201775000Y-120175000D02*
X201775000Y-122975000D01*
X201975000Y-122775000D02*
X202275000Y-122475000D01*
X201975000Y-122775000D02*
X202275000Y-123075000D01*
X202275000Y-123075000D02*
X202275000Y-122475000D01*
X199775000Y-120225000D02*
G75*
G02*
X200475000Y-119525000I700000J0D01*
G01*
X200475000Y-123625000D02*
G75*
G02*
X199775000Y-122925000I-1J699999D01*
G01*
X201075000Y-119525000D02*
G75*
G02*
X201775000Y-120225000I0J-700000D01*
G01*
X201775000Y-122925000D02*
G75*
G02*
X201075000Y-123625000I-699999J-1D01*
G01*
%TO.C,R7*%
X193020000Y-126268641D02*
X193020000Y-125961359D01*
X193780000Y-126268641D02*
X193780000Y-125961359D01*
%TO.C,R27*%
X205253641Y-126545000D02*
X204946359Y-126545000D01*
X205253641Y-127305000D02*
X204946359Y-127305000D01*
%TO.C,C5*%
X181655964Y-127078003D02*
X181655964Y-126862331D01*
X182375964Y-127078003D02*
X182375964Y-126862331D01*
%TO.C,C4*%
X194725000Y-134601252D02*
X194725000Y-134078748D01*
X196195000Y-134601252D02*
X196195000Y-134078748D01*
%TO.C,R20*%
X182656772Y-124219024D02*
X182349490Y-124219024D01*
X182656772Y-124979024D02*
X182349490Y-124979024D01*
%TO.C,R15*%
X214460615Y-131655133D02*
X214935131Y-131655133D01*
X214460615Y-132700133D02*
X214935131Y-132700133D01*
%TO.C,R57*%
X197648493Y-98891031D02*
X198123009Y-98891031D01*
X197648493Y-99936031D02*
X198123009Y-99936031D01*
%TO.C,HPR_RES1*%
X212925000Y-115910000D02*
X212925000Y-116510000D01*
X213225000Y-116210000D02*
X212925000Y-115910000D01*
X213225000Y-116210000D02*
X212925000Y-116510000D01*
X213425000Y-118810000D02*
X213425000Y-116010000D01*
X214125000Y-115360000D02*
X214725000Y-115360000D01*
X214725000Y-119460000D02*
X214125000Y-119460000D01*
X215425000Y-116010000D02*
X215425000Y-118810000D01*
X213425000Y-116060000D02*
G75*
G02*
X214125000Y-115360000I699999J1D01*
G01*
X214125000Y-119460000D02*
G75*
G02*
X213425000Y-118760000I0J700000D01*
G01*
X214725000Y-115360000D02*
G75*
G02*
X215425000Y-116060000I1J-699999D01*
G01*
X215425000Y-118760000D02*
G75*
G02*
X214725000Y-119460000I-700000J0D01*
G01*
%TO.C,C18*%
X193195336Y-121250000D02*
X192979664Y-121250000D01*
X193195336Y-121970000D02*
X192979664Y-121970000D01*
%TO.C,C56*%
X185254264Y-127762929D02*
X185254264Y-131972929D01*
X188274264Y-127762929D02*
X185254264Y-127762929D01*
X188274264Y-131972929D02*
X188274264Y-127762929D01*
%TO.C,R38*%
X186594322Y-117387249D02*
X186594322Y-117861765D01*
X187639322Y-117387249D02*
X187639322Y-117861765D01*
%TO.C,C37*%
X199462164Y-117615000D02*
X199677836Y-117615000D01*
X199462164Y-118335000D02*
X199677836Y-118335000D01*
%TO.C,U8*%
X173490000Y-107820000D02*
X173765000Y-107820000D01*
X173490000Y-110980000D02*
X173490000Y-107820000D01*
X173490000Y-110980000D02*
X173490000Y-114140000D01*
X173490000Y-114140000D02*
X173765000Y-114140000D01*
X183410000Y-107820000D02*
X183135000Y-107820000D01*
X183410000Y-110980000D02*
X183410000Y-107820000D01*
X183410000Y-110980000D02*
X183410000Y-114140000D01*
X183410000Y-114140000D02*
X183135000Y-114140000D01*
X183465000Y-107470000D02*
X183135000Y-107230000D01*
X183465000Y-106990000D01*
X183465000Y-107470000D01*
G36*
X183465000Y-107470000D02*
G01*
X183135000Y-107230000D01*
X183465000Y-106990000D01*
X183465000Y-107470000D01*
G37*
%TO.C,R30*%
X213393039Y-125877990D02*
X213393039Y-125570708D01*
X214153039Y-125877990D02*
X214153039Y-125570708D01*
%TO.C,R41*%
X202878641Y-112820000D02*
X202571359Y-112820000D01*
X202878641Y-113580000D02*
X202571359Y-113580000D01*
%TO.C,R68*%
X172606359Y-105240000D02*
X172913641Y-105240000D01*
X172606359Y-106000000D02*
X172913641Y-106000000D01*
%TO.C,R48*%
X195528641Y-118420000D02*
X195221359Y-118420000D01*
X195528641Y-119180000D02*
X195221359Y-119180000D01*
%TO.C,C15*%
X197290000Y-123636252D02*
X197290000Y-123113748D01*
X198760000Y-123636252D02*
X198760000Y-123113748D01*
%TO.C,C38*%
X188062928Y-110542738D02*
X187540424Y-110542738D01*
X188062928Y-112012738D02*
X187540424Y-112012738D01*
%TO.C,R23*%
X202220000Y-122586359D02*
X202220000Y-122893641D01*
X202980000Y-122586359D02*
X202980000Y-122893641D01*
%TO.C,U3*%
X198920000Y-125290000D02*
X196720000Y-125290000D01*
X198920000Y-125290000D02*
X201120000Y-125290000D01*
X198920000Y-130510000D02*
X196720000Y-130510000D01*
X198920000Y-130510000D02*
X201120000Y-130510000D01*
X196020000Y-125490000D02*
X195780000Y-125160000D01*
X196260000Y-125160000D01*
X196020000Y-125490000D01*
G36*
X196020000Y-125490000D02*
G01*
X195780000Y-125160000D01*
X196260000Y-125160000D01*
X196020000Y-125490000D01*
G37*
%TO.C,R69*%
X182456359Y-116060000D02*
X182763641Y-116060000D01*
X182456359Y-116820000D02*
X182763641Y-116820000D01*
%TO.C,LPF1*%
X184491350Y-113770105D02*
X185091350Y-113770105D01*
X185791350Y-114470105D02*
X185791350Y-115870105D01*
X183791350Y-115870105D02*
X183791350Y-114470105D01*
X185091350Y-116570105D02*
X184491350Y-116570105D01*
X185091350Y-113770105D02*
G75*
G02*
X185791350Y-114470105I0J-700000D01*
G01*
X183791350Y-114470105D02*
G75*
G02*
X184491350Y-113770105I700000J0D01*
G01*
X185791350Y-115870105D02*
G75*
G02*
X185091350Y-116570105I-699999J-1D01*
G01*
X184491350Y-116570105D02*
G75*
G02*
X183791350Y-115870105I-1J699999D01*
G01*
%TO.C,R14*%
X189531893Y-126363717D02*
X189531893Y-125889201D01*
X190576893Y-126363717D02*
X190576893Y-125889201D01*
%TO.C,R31*%
X203269079Y-127493202D02*
X203269079Y-127185920D01*
X204029079Y-127493202D02*
X204029079Y-127185920D01*
%TO.C,R22*%
X209370000Y-120281359D02*
X209370000Y-120588641D01*
X210130000Y-120281359D02*
X210130000Y-120588641D01*
%TO.C,R35*%
X184923897Y-117641418D02*
X184449381Y-117641418D01*
X184923897Y-118686418D02*
X184449381Y-118686418D01*
%TO.C,R25*%
X198555017Y-131803712D02*
X198555017Y-131496430D01*
X199315017Y-131803712D02*
X199315017Y-131496430D01*
%TO.C,C48*%
X169765000Y-100775000D02*
X169765000Y-104985000D01*
X169765000Y-104985000D02*
X172785000Y-104985000D01*
X172785000Y-104985000D02*
X172785000Y-100775000D01*
%TO.C,C32*%
X185197836Y-108160000D02*
X184982164Y-108160000D01*
X185197836Y-108880000D02*
X184982164Y-108880000D01*
%TO.C,PSGPD4*%
X199670000Y-133010000D02*
X199670000Y-131610000D01*
X200370000Y-130910000D02*
X200970000Y-130910000D01*
X200970000Y-133710000D02*
X200370000Y-133710000D01*
X201670000Y-131610000D02*
X201670000Y-133010000D01*
X199670000Y-131610000D02*
G75*
G02*
X200370000Y-130910000I699999J1D01*
G01*
X200370000Y-133710000D02*
G75*
G02*
X199670000Y-133010000I0J700000D01*
G01*
X200970000Y-130910000D02*
G75*
G02*
X201670000Y-131610000I1J-699999D01*
G01*
X201670000Y-133010000D02*
G75*
G02*
X200970000Y-133710000I-700000J0D01*
G01*
%TO.C,C47*%
X191474188Y-97828485D02*
X191474188Y-100848485D01*
X191474188Y-100848485D02*
X195684188Y-100848485D01*
X195684188Y-97828485D02*
X191474188Y-97828485D01*
%TO.C,R61*%
X214465472Y-125559437D02*
X214465472Y-125866719D01*
X215225472Y-125559437D02*
X215225472Y-125866719D01*
%TO.C,R71*%
X178480000Y-116893641D02*
X178480000Y-116586359D01*
X179240000Y-116893641D02*
X179240000Y-116586359D01*
%TO.C,C49*%
X171280000Y-108452164D02*
X171280000Y-108667836D01*
X172000000Y-108452164D02*
X172000000Y-108667836D01*
%TO.C,R2*%
X171766359Y-117810000D02*
X172073641Y-117810000D01*
X171766359Y-118570000D02*
X172073641Y-118570000D01*
%TO.C,R17*%
X214526007Y-123524070D02*
X215000523Y-123524070D01*
X214526007Y-124569070D02*
X215000523Y-124569070D01*
%TO.C,C44*%
X196240000Y-107611252D02*
X196240000Y-106188748D01*
X198060000Y-107611252D02*
X198060000Y-106188748D01*
%TO.C,U9*%
X183060797Y-128721303D02*
X182260797Y-128721303D01*
X183060797Y-128721303D02*
X183860797Y-128721303D01*
X183060797Y-131841303D02*
X182260797Y-131841303D01*
X183060797Y-131841303D02*
X183860797Y-131841303D01*
X181760797Y-128771303D02*
X181520797Y-128441303D01*
X182000797Y-128441303D01*
X181760797Y-128771303D01*
G36*
X181760797Y-128771303D02*
G01*
X181520797Y-128441303D01*
X182000797Y-128441303D01*
X181760797Y-128771303D01*
G37*
%TO.C,R1*%
X182344508Y-125168147D02*
X182651790Y-125168147D01*
X182344508Y-125928147D02*
X182651790Y-125928147D01*
%TO.C,R19*%
X191940000Y-134463641D02*
X191940000Y-134156359D01*
X192700000Y-134463641D02*
X192700000Y-134156359D01*
%TO.C,C46*%
X191434953Y-94525241D02*
X191434953Y-97545241D01*
X191434953Y-97545241D02*
X195644953Y-97545241D01*
X195644953Y-94525241D02*
X191434953Y-94525241D01*
%TO.C,C6*%
X171997836Y-118820000D02*
X171782164Y-118820000D01*
X171997836Y-119540000D02*
X171782164Y-119540000D01*
%TO.C,C23*%
X175645460Y-128704208D02*
X175861132Y-128704208D01*
X175645460Y-129424208D02*
X175861132Y-129424208D01*
%TO.C,R39*%
X203252122Y-114502657D02*
X202777606Y-114502657D01*
X203252122Y-115547657D02*
X202777606Y-115547657D01*
%TO.C,R43*%
X189545382Y-114895758D02*
X189545382Y-114421242D01*
X190590382Y-114895758D02*
X190590382Y-114421242D01*
%TO.C,C28*%
X182629651Y-123314191D02*
X182413979Y-123314191D01*
X182629651Y-124034191D02*
X182413979Y-124034191D01*
%TO.C,PSGPD3*%
X210175000Y-128625000D02*
X210175000Y-128025000D01*
X210875000Y-127325000D02*
X212275000Y-127325000D01*
X212275000Y-129325000D02*
X210875000Y-129325000D01*
X212975000Y-128025000D02*
X212975000Y-128625000D01*
X210175000Y-128025000D02*
G75*
G02*
X210875000Y-127325000I700000J0D01*
G01*
X210875000Y-129325000D02*
G75*
G02*
X210175000Y-128625000I0J700000D01*
G01*
X212275000Y-127325000D02*
G75*
G02*
X212975000Y-128025000I1J-699999D01*
G01*
X212975000Y-128625000D02*
G75*
G02*
X212275000Y-129325000I-699999J-1D01*
G01*
%TO.C,R55*%
X196903641Y-109670000D02*
X196596359Y-109670000D01*
X196903641Y-110430000D02*
X196596359Y-110430000D01*
%TO.C,32XPD2*%
X210225000Y-124725000D02*
X210225000Y-124125000D01*
X210925000Y-123425000D02*
X212325000Y-123425000D01*
X212325000Y-125425000D02*
X210925000Y-125425000D01*
X213025000Y-124125000D02*
X213025000Y-124725000D01*
X210225000Y-124125000D02*
G75*
G02*
X210925000Y-123425000I700000J0D01*
G01*
X210925000Y-125425000D02*
G75*
G02*
X210225000Y-124725000I0J700000D01*
G01*
X212325000Y-123425000D02*
G75*
G02*
X213025000Y-124125000I1J-699999D01*
G01*
X213025000Y-124725000D02*
G75*
G02*
X212325000Y-125425000I-699999J-1D01*
G01*
%TO.C,R28*%
X205303641Y-128495000D02*
X204996359Y-128495000D01*
X205303641Y-129255000D02*
X204996359Y-129255000D01*
%TO.C,R9*%
X185154630Y-126406169D02*
X185154630Y-125931653D01*
X186199630Y-126406169D02*
X186199630Y-125931653D01*
%TO.C,C34*%
X185232836Y-105615000D02*
X185017164Y-105615000D01*
X185232836Y-106335000D02*
X185017164Y-106335000D01*
%TO.C,C14*%
X195315000Y-123636252D02*
X195315000Y-123113748D01*
X196785000Y-123636252D02*
X196785000Y-123113748D01*
%TO.C,U6*%
X190025000Y-101865000D02*
X187825000Y-101865000D01*
X190025000Y-101865000D02*
X192225000Y-101865000D01*
X190025000Y-105085000D02*
X187825000Y-105085000D01*
X190025000Y-105085000D02*
X192225000Y-105085000D01*
X193165000Y-105240000D02*
X192685000Y-105240000D01*
X192925000Y-104910000D01*
X193165000Y-105240000D01*
G36*
X193165000Y-105240000D02*
G01*
X192685000Y-105240000D01*
X192925000Y-104910000D01*
X193165000Y-105240000D01*
G37*
%TO.C,R65*%
X215770000Y-116438641D02*
X215770000Y-116131359D01*
X216530000Y-116438641D02*
X216530000Y-116131359D01*
%TO.C,R49*%
X196596359Y-110670000D02*
X196903641Y-110670000D01*
X196596359Y-111430000D02*
X196903641Y-111430000D01*
%TO.C,C50*%
X170350000Y-108667836D02*
X170350000Y-108452164D01*
X171070000Y-108667836D02*
X171070000Y-108452164D01*
%TO.C,C12*%
X194065000Y-126012164D02*
X194065000Y-126227836D01*
X194785000Y-126012164D02*
X194785000Y-126227836D01*
%TO.C,C27*%
X207315662Y-113097885D02*
X207315662Y-112575381D01*
X208785662Y-113097885D02*
X208785662Y-112575381D01*
%TO.C,R3*%
X176123641Y-127660000D02*
X175816359Y-127660000D01*
X176123641Y-128420000D02*
X175816359Y-128420000D01*
%TO.C,R29*%
X204776511Y-130355958D02*
X204301995Y-130355958D01*
X204776511Y-131400958D02*
X204301995Y-131400958D01*
%TO.C,C43*%
X191490000Y-109861252D02*
X191490000Y-108438748D01*
X193310000Y-109861252D02*
X193310000Y-108438748D01*
%TO.C,C24*%
X207315662Y-116497885D02*
X207315662Y-115975381D01*
X208785662Y-116497885D02*
X208785662Y-115975381D01*
%TO.C,C13*%
X193940000Y-129802836D02*
X193940000Y-129587164D01*
X194660000Y-129802836D02*
X194660000Y-129587164D01*
%TO.C,C1*%
X174315000Y-118211252D02*
X174315000Y-117688748D01*
X175785000Y-118211252D02*
X175785000Y-117688748D01*
%TO.C,C45*%
X194015000Y-101290000D02*
X194015000Y-104310000D01*
X194015000Y-104310000D02*
X198225000Y-104310000D01*
X198225000Y-101290000D02*
X194015000Y-101290000D01*
%TO.C,R6*%
X171116359Y-128300000D02*
X171423641Y-128300000D01*
X171116359Y-129060000D02*
X171423641Y-129060000D01*
%TO.C,R8*%
X192995000Y-129536359D02*
X192995000Y-129843641D01*
X193755000Y-129536359D02*
X193755000Y-129843641D01*
%TO.C,C55*%
X179447983Y-127908255D02*
X178925479Y-127908255D01*
X179447983Y-129378255D02*
X178925479Y-129378255D01*
%TO.C,R44*%
X188080595Y-114888285D02*
X188080595Y-114413769D01*
X189125595Y-114888285D02*
X189125595Y-114413769D01*
%TO.C,R4*%
X192014729Y-125217715D02*
X191707447Y-125217715D01*
X192014729Y-125977715D02*
X191707447Y-125977715D01*
%TO.C,HPL_RES1*%
X212925000Y-111275000D02*
X212925000Y-111875000D01*
X213225000Y-111575000D02*
X212925000Y-111275000D01*
X213225000Y-111575000D02*
X212925000Y-111875000D01*
X213425000Y-114175000D02*
X213425000Y-111375000D01*
X214125000Y-110725000D02*
X214725000Y-110725000D01*
X214725000Y-114825000D02*
X214125000Y-114825000D01*
X215425000Y-111375000D02*
X215425000Y-114175000D01*
X213425000Y-111425000D02*
G75*
G02*
X214125000Y-110725000I699999J1D01*
G01*
X214125000Y-114825000D02*
G75*
G02*
X213425000Y-114125000I0J700000D01*
G01*
X214725000Y-110725000D02*
G75*
G02*
X215425000Y-111425000I1J-699999D01*
G01*
X215425000Y-114125000D02*
G75*
G02*
X214725000Y-114825000I-700000J0D01*
G01*
%TO.C,C19*%
X208061252Y-124065000D02*
X207538748Y-124065000D01*
X208061252Y-125535000D02*
X207538748Y-125535000D01*
%TO.C,C29*%
X181809235Y-121260598D02*
X181809235Y-121783102D01*
X183279235Y-121260598D02*
X183279235Y-121783102D01*
%TO.C,R33*%
X214483035Y-129693365D02*
X214957551Y-129693365D01*
X214483035Y-130738365D02*
X214957551Y-130738365D01*
%TO.C,FMR_1*%
X210500000Y-122475000D02*
X210500000Y-119675000D01*
X211200000Y-119025000D02*
X211800000Y-119025000D01*
X211800000Y-123125000D02*
X211200000Y-123125000D01*
X212500000Y-119675000D02*
X212500000Y-122475000D01*
X212700000Y-122275000D02*
X213000000Y-121975000D01*
X212700000Y-122275000D02*
X213000000Y-122575000D01*
X213000000Y-122575000D02*
X213000000Y-121975000D01*
X210500000Y-119725000D02*
G75*
G02*
X211200000Y-119025000I700000J0D01*
G01*
X211200000Y-123125000D02*
G75*
G02*
X210500000Y-122425000I-1J699999D01*
G01*
X211800000Y-119025000D02*
G75*
G02*
X212500000Y-119725000I0J-700000D01*
G01*
X212500000Y-122425000D02*
G75*
G02*
X211800000Y-123125000I-699999J-1D01*
G01*
%TO.C,C54*%
X189529255Y-131087691D02*
X189529255Y-130565187D01*
X190999255Y-131087691D02*
X190999255Y-130565187D01*
%TO.C,R66*%
X197228278Y-100294356D02*
X197535560Y-100294356D01*
X197228278Y-101054356D02*
X197535560Y-101054356D01*
%TO.C,C21*%
X208061252Y-128015000D02*
X207538748Y-128015000D01*
X208061252Y-129485000D02*
X207538748Y-129485000D01*
%TO.C,FMR_2*%
X206950000Y-122475000D02*
X206950000Y-119675000D01*
X207650000Y-119025000D02*
X208250000Y-119025000D01*
X208250000Y-123125000D02*
X207650000Y-123125000D01*
X208950000Y-119675000D02*
X208950000Y-122475000D01*
X209150000Y-122275000D02*
X209450000Y-121975000D01*
X209150000Y-122275000D02*
X209450000Y-122575000D01*
X209450000Y-122575000D02*
X209450000Y-121975000D01*
X206950000Y-119725000D02*
G75*
G02*
X207650000Y-119025000I700000J0D01*
G01*
X207650000Y-123125000D02*
G75*
G02*
X206950000Y-122425000I-1J699999D01*
G01*
X208250000Y-119025000D02*
G75*
G02*
X208950000Y-119725000I0J-700000D01*
G01*
X208950000Y-122425000D02*
G75*
G02*
X208250000Y-123125000I-699999J-1D01*
G01*
%TO.C,R70*%
X180463641Y-116060000D02*
X180156359Y-116060000D01*
X180463641Y-116820000D02*
X180156359Y-116820000D01*
%TO.C,C22*%
X208061252Y-129990000D02*
X207538748Y-129990000D01*
X208061252Y-131460000D02*
X207538748Y-131460000D01*
%TO.C,C42*%
X191265000Y-117136252D02*
X191265000Y-115713748D01*
X193085000Y-117136252D02*
X193085000Y-115713748D01*
%TO.C,R47*%
X197296359Y-118395000D02*
X197603641Y-118395000D01*
X197296359Y-119155000D02*
X197603641Y-119155000D01*
%TO.C,C20*%
X208061252Y-126040000D02*
X207538748Y-126040000D01*
X208061252Y-127510000D02*
X207538748Y-127510000D01*
%TO.C,R16*%
X195554448Y-120663428D02*
X195247166Y-120663428D01*
X195554448Y-121423428D02*
X195247166Y-121423428D01*
%TO.C,32XPD1*%
X210175000Y-132500000D02*
X210175000Y-131900000D01*
X210875000Y-131200000D02*
X212275000Y-131200000D01*
X212275000Y-133200000D02*
X210875000Y-133200000D01*
X212975000Y-131900000D02*
X212975000Y-132500000D01*
X210175000Y-131900000D02*
G75*
G02*
X210875000Y-131200000I700000J0D01*
G01*
X210875000Y-133200000D02*
G75*
G02*
X210175000Y-132500000I0J700000D01*
G01*
X212275000Y-131200000D02*
G75*
G02*
X212975000Y-131900000I1J-699999D01*
G01*
X212975000Y-132500000D02*
G75*
G02*
X212275000Y-133200000I-699999J-1D01*
G01*
%TO.C,C7*%
X173902164Y-127690000D02*
X174117836Y-127690000D01*
X173902164Y-128410000D02*
X174117836Y-128410000D01*
%TO.C,C35*%
X197367164Y-117490000D02*
X197582836Y-117490000D01*
X197367164Y-118210000D02*
X197582836Y-118210000D01*
%TO.C,Z1*%
X170090000Y-137480000D02*
X171100000Y-137480000D01*
X170090000Y-141140000D02*
X170090000Y-137480000D01*
X171110000Y-137680000D02*
X171110000Y-137480000D01*
X171110000Y-137680000D02*
X171300000Y-137680000D01*
X171300000Y-137680000D02*
X171300000Y-136980000D01*
X171400000Y-142890000D02*
X173300000Y-142890000D01*
X175700000Y-142890000D02*
X174700000Y-142890000D01*
X177100000Y-142890000D02*
X182300000Y-142890000D01*
X183700000Y-142890000D02*
X184700000Y-142890000D01*
X186100000Y-142890000D02*
X188000000Y-142890000D01*
X188290000Y-137480000D02*
X188290000Y-137680000D01*
X188290000Y-137680000D02*
X188100000Y-137680000D01*
X188300000Y-137480000D02*
X189310000Y-137480000D01*
X189310000Y-137480000D02*
X189310000Y-141140000D01*
%TO.C,C3*%
X197095000Y-134591252D02*
X197095000Y-134068748D01*
X198565000Y-134591252D02*
X198565000Y-134068748D01*
%TO.C,R5*%
X193671359Y-130720000D02*
X193978641Y-130720000D01*
X193671359Y-131480000D02*
X193978641Y-131480000D01*
%TO.C,U1*%
X176175000Y-123635000D02*
X176175000Y-121435000D01*
X176175000Y-123635000D02*
X176175000Y-125835000D01*
X181395000Y-123635000D02*
X181395000Y-121435000D01*
X181395000Y-123635000D02*
X181395000Y-125835000D01*
X176375000Y-126535000D02*
X176045000Y-126775000D01*
X176045000Y-126295000D01*
X176375000Y-126535000D01*
G36*
X176375000Y-126535000D02*
G01*
X176045000Y-126775000D01*
X176045000Y-126295000D01*
X176375000Y-126535000D01*
G37*
%TO.C,R59*%
X172618447Y-106190501D02*
X172925729Y-106190501D01*
X172618447Y-106950501D02*
X172925729Y-106950501D01*
%TO.C,R10*%
X186611944Y-126406169D02*
X186611944Y-125931653D01*
X187656944Y-126406169D02*
X187656944Y-125931653D01*
%TO.C,D2*%
X170100000Y-106440000D02*
X170100000Y-107240000D01*
X171460000Y-106440000D02*
X170100000Y-106440000D01*
X171460000Y-107240000D02*
X170100000Y-107240000D01*
%TO.C,R60*%
X217961897Y-123994504D02*
X217961897Y-124301786D01*
X218721897Y-123994504D02*
X218721897Y-124301786D01*
%TO.C,R34*%
X214486772Y-127734658D02*
X214961288Y-127734658D01*
X214486772Y-128779658D02*
X214961288Y-128779658D01*
%TO.C,R54*%
X190870000Y-113203641D02*
X190870000Y-112896359D01*
X191630000Y-113203641D02*
X191630000Y-112896359D01*
%TO.C,HPR_RES2*%
X216375000Y-115885000D02*
X216375000Y-116485000D01*
X216675000Y-116185000D02*
X216375000Y-115885000D01*
X216675000Y-116185000D02*
X216375000Y-116485000D01*
X216875000Y-118785000D02*
X216875000Y-115985000D01*
X217575000Y-115335000D02*
X218175000Y-115335000D01*
X218175000Y-119435000D02*
X217575000Y-119435000D01*
X218875000Y-115985000D02*
X218875000Y-118785000D01*
X216875000Y-116035000D02*
G75*
G02*
X217575000Y-115335000I699999J1D01*
G01*
X217575000Y-119435000D02*
G75*
G02*
X216875000Y-118735000I0J700000D01*
G01*
X218175000Y-115335000D02*
G75*
G02*
X218875000Y-116035000I1J-699999D01*
G01*
X218875000Y-118735000D02*
G75*
G02*
X218175000Y-119435000I-700000J0D01*
G01*
%TO.C,C16*%
X193195336Y-123090000D02*
X192979664Y-123090000D01*
X193195336Y-123810000D02*
X192979664Y-123810000D01*
%TO.C,R67*%
X190373298Y-100817495D02*
X190680580Y-100817495D01*
X190373298Y-101577495D02*
X190680580Y-101577495D01*
%TO.C,R62*%
X215765000Y-113948641D02*
X215765000Y-113641359D01*
X216525000Y-113948641D02*
X216525000Y-113641359D01*
%TO.C,R58*%
X173762742Y-103752500D02*
X174237258Y-103752500D01*
X173762742Y-104797500D02*
X174237258Y-104797500D01*
%TO.C,C30*%
X196442164Y-130790000D02*
X196657836Y-130790000D01*
X196442164Y-131510000D02*
X196657836Y-131510000D01*
%TO.C,U2*%
X170300000Y-123617500D02*
X170300000Y-121417500D01*
X170300000Y-123617500D02*
X170300000Y-125817500D01*
X175770000Y-123617500D02*
X175770000Y-121417500D01*
X175770000Y-123617500D02*
X175770000Y-125817500D01*
X171000000Y-127807500D02*
X170520000Y-127807500D01*
X170760000Y-127477500D01*
X171000000Y-127807500D01*
G36*
X171000000Y-127807500D02*
G01*
X170520000Y-127807500D01*
X170760000Y-127477500D01*
X171000000Y-127807500D01*
G37*
%TO.C,C25*%
X203311315Y-117003003D02*
X203833819Y-117003003D01*
X203311315Y-118473003D02*
X203833819Y-118473003D01*
%TO.C,U4*%
X188207500Y-119270000D02*
X186007500Y-119270000D01*
X188207500Y-119270000D02*
X190407500Y-119270000D01*
X188207500Y-124490000D02*
X186007500Y-124490000D01*
X188207500Y-124490000D02*
X190407500Y-124490000D01*
X191347500Y-124620000D02*
X190867500Y-124620000D01*
X191107500Y-124290000D01*
X191347500Y-124620000D01*
G36*
X191347500Y-124620000D02*
G01*
X190867500Y-124620000D01*
X191107500Y-124290000D01*
X191347500Y-124620000D01*
G37*
%TO.C,R52*%
X192120000Y-113193641D02*
X192120000Y-112886359D01*
X192880000Y-113193641D02*
X192880000Y-112886359D01*
%TO.C,R12*%
X189970155Y-127841256D02*
X190444671Y-127841256D01*
X189970155Y-128886256D02*
X190444671Y-128886256D01*
%TO.C,R11*%
X188078316Y-126399838D02*
X188078316Y-125925322D01*
X189123316Y-126399838D02*
X189123316Y-125925322D01*
%TO.C,C2*%
X172990000Y-118527836D02*
X172990000Y-118312164D01*
X173710000Y-118527836D02*
X173710000Y-118312164D01*
%TO.C,R24*%
X202195000Y-120336359D02*
X202195000Y-120643641D01*
X202955000Y-120336359D02*
X202955000Y-120643641D01*
%TO.C,C9*%
X192040000Y-126992164D02*
X192040000Y-127207836D01*
X192760000Y-126992164D02*
X192760000Y-127207836D01*
%TO.C,R53*%
X195528641Y-119595000D02*
X195221359Y-119595000D01*
X195528641Y-120355000D02*
X195221359Y-120355000D01*
D16*
%TO.C,CN1*%
X171309000Y-91725000D02*
X171309000Y-104425000D01*
X171309000Y-91725000D02*
X186549000Y-91725000D01*
X171309000Y-104425000D02*
X186549000Y-104425000D01*
X186549000Y-104425000D02*
X186549000Y-91725000D01*
D15*
%TO.C,R64*%
X215770000Y-118538641D02*
X215770000Y-118231359D01*
X216530000Y-118538641D02*
X216530000Y-118231359D01*
%TO.C,C33*%
X185217836Y-106870000D02*
X185002164Y-106870000D01*
X185217836Y-107590000D02*
X185002164Y-107590000D01*
%TO.C,PSGPD1*%
X210200000Y-126675000D02*
X210200000Y-126075000D01*
X210900000Y-125375000D02*
X212300000Y-125375000D01*
X212300000Y-127375000D02*
X210900000Y-127375000D01*
X213000000Y-126075000D02*
X213000000Y-126675000D01*
X210200000Y-126075000D02*
G75*
G02*
X210900000Y-125375000I700000J0D01*
G01*
X210900000Y-127375000D02*
G75*
G02*
X210200000Y-126675000I0J700000D01*
G01*
X212300000Y-125375000D02*
G75*
G02*
X213000000Y-126075000I1J-699999D01*
G01*
X213000000Y-126675000D02*
G75*
G02*
X212300000Y-127375000I-699999J-1D01*
G01*
%TO.C,U5*%
X174993296Y-129749208D02*
X173043296Y-129749208D01*
X174993296Y-129749208D02*
X176943296Y-129749208D01*
X174993296Y-134869208D02*
X173043296Y-134869208D01*
X174993296Y-134869208D02*
X176943296Y-134869208D01*
X177933296Y-135104208D02*
X177453296Y-135104208D01*
X177693296Y-134774208D01*
X177933296Y-135104208D01*
G36*
X177933296Y-135104208D02*
G01*
X177453296Y-135104208D01*
X177693296Y-134774208D01*
X177933296Y-135104208D01*
G37*
%TO.C,R42*%
X203348342Y-111424238D02*
X202873826Y-111424238D01*
X203348342Y-112469238D02*
X202873826Y-112469238D01*
%TO.C,C41*%
X188265000Y-95675000D02*
X188265000Y-99885000D01*
X188265000Y-99885000D02*
X191285000Y-99885000D01*
X191285000Y-99885000D02*
X191285000Y-95675000D01*
%TO.C,D1*%
X182525228Y-126360557D02*
X182525228Y-127720557D01*
X182525228Y-127720557D02*
X183325228Y-127720557D01*
X183325228Y-126360557D02*
X183325228Y-127720557D01*
%TO.C,R36*%
X189523896Y-117394723D02*
X189523896Y-117869239D01*
X190568896Y-117394723D02*
X190568896Y-117869239D01*
%TO.C,FML_2*%
X203350000Y-123025000D02*
X203350000Y-120225000D01*
X204050000Y-119575000D02*
X204650000Y-119575000D01*
X204650000Y-123675000D02*
X204050000Y-123675000D01*
X205350000Y-120225000D02*
X205350000Y-123025000D01*
X205550000Y-122825000D02*
X205850000Y-122525000D01*
X205550000Y-122825000D02*
X205850000Y-123125000D01*
X205850000Y-123125000D02*
X205850000Y-122525000D01*
X203350000Y-120275000D02*
G75*
G02*
X204050000Y-119575000I700000J0D01*
G01*
X204050000Y-123675000D02*
G75*
G02*
X203350000Y-122975000I-1J699999D01*
G01*
X204650000Y-119575000D02*
G75*
G02*
X205350000Y-120275000I0J-700000D01*
G01*
X205350000Y-122975000D02*
G75*
G02*
X204650000Y-123675000I-699999J-1D01*
G01*
%TO.C,R45*%
X186623281Y-114910705D02*
X186623281Y-114436189D01*
X187668281Y-114910705D02*
X187668281Y-114436189D01*
%TO.C,SA1*%
X183829833Y-112579200D02*
X183829833Y-111179200D01*
X184529833Y-110479200D02*
X185129833Y-110479200D01*
X185129833Y-113279200D02*
X184529833Y-113279200D01*
X185829833Y-111179200D02*
X185829833Y-112579200D01*
X183829833Y-111179200D02*
G75*
G02*
X184529833Y-110479200I700000J0D01*
G01*
X184529833Y-113279200D02*
G75*
G02*
X183829833Y-112579200I-1J699999D01*
G01*
X185129833Y-110479200D02*
G75*
G02*
X185829833Y-111179200I0J-700000D01*
G01*
X185829833Y-112579200D02*
G75*
G02*
X185129833Y-113279200I-699999J-1D01*
G01*
%TD*%
M02*
