%TF.GenerationSoftware,KiCad,Pcbnew,9.0.0*%
%TF.CreationDate,2025-11-21T22:56:44-08:00*%
%TF.ProjectId,MegaAV_Pro_VA0,4d656761-4156-45f5-9072-6f5f5641302e,rev?*%
%TF.SameCoordinates,Original*%
%TF.FileFunction,Legend,Bot*%
%TF.FilePolarity,Positive*%
%FSLAX46Y46*%
G04 Gerber Fmt 4.6, Leading zero omitted, Abs format (unit mm)*
G04 Created by KiCad (PCBNEW 9.0.0) date 2025-11-21 22:56:44*
%MOMM*%
%LPD*%
G01*
G04 APERTURE LIST*
%ADD10C,0.100000*%
%ADD11C,0.120000*%
%ADD12C,0.200000*%
%ADD13C,0.000000*%
%ADD14C,0.010000*%
G04 APERTURE END LIST*
D10*
X194657257Y-121051450D02*
X194757257Y-133601450D01*
X201150000Y-136075000D02*
X201150000Y-143525000D01*
X186346875Y-109849896D02*
X219000000Y-109850000D01*
X188314318Y-133538346D02*
X188314318Y-118138346D01*
X219000000Y-109850000D02*
X219050000Y-134050000D01*
X218850000Y-134050000D02*
X186538073Y-134199896D01*
X204350000Y-133775000D02*
X204350000Y-122225000D01*
X219050000Y-134050000D02*
X218850000Y-134050000D01*
X186538073Y-134199896D02*
X186346875Y-109849896D01*
X217100000Y-119500000D02*
X217250000Y-133250000D01*
D11*
X173930810Y-123311522D02*
X174597477Y-123311522D01*
X174407001Y-123311522D02*
X174502239Y-123263903D01*
X174502239Y-123263903D02*
X174549858Y-123216284D01*
X174549858Y-123216284D02*
X174597477Y-123121046D01*
X174597477Y-123121046D02*
X174597477Y-123025808D01*
X173978430Y-122311522D02*
X173930810Y-122406760D01*
X173930810Y-122406760D02*
X173930810Y-122597236D01*
X173930810Y-122597236D02*
X173978430Y-122692474D01*
X173978430Y-122692474D02*
X174073668Y-122740093D01*
X174073668Y-122740093D02*
X174454620Y-122740093D01*
X174454620Y-122740093D02*
X174549858Y-122692474D01*
X174549858Y-122692474D02*
X174597477Y-122597236D01*
X174597477Y-122597236D02*
X174597477Y-122406760D01*
X174597477Y-122406760D02*
X174549858Y-122311522D01*
X174549858Y-122311522D02*
X174454620Y-122263903D01*
X174454620Y-122263903D02*
X174359382Y-122263903D01*
X174359382Y-122263903D02*
X174264144Y-122740093D01*
X174597477Y-121930569D02*
X173930810Y-121692474D01*
X173930810Y-121692474D02*
X174597477Y-121454379D01*
X174026049Y-121073426D02*
X173978430Y-121025807D01*
X173978430Y-121025807D02*
X173930810Y-121073426D01*
X173930810Y-121073426D02*
X173978430Y-121121045D01*
X173978430Y-121121045D02*
X174026049Y-121073426D01*
X174026049Y-121073426D02*
X173930810Y-121073426D01*
X174930810Y-119978188D02*
X173930810Y-119644855D01*
X173930810Y-119644855D02*
X174930810Y-119311522D01*
X174216525Y-119025807D02*
X174216525Y-118549617D01*
X173930810Y-119121045D02*
X174930810Y-118787712D01*
X174930810Y-118787712D02*
X173930810Y-118454379D01*
X174930810Y-117930569D02*
X174930810Y-117835331D01*
X174930810Y-117835331D02*
X174883191Y-117740093D01*
X174883191Y-117740093D02*
X174835572Y-117692474D01*
X174835572Y-117692474D02*
X174740334Y-117644855D01*
X174740334Y-117644855D02*
X174549858Y-117597236D01*
X174549858Y-117597236D02*
X174311763Y-117597236D01*
X174311763Y-117597236D02*
X174121287Y-117644855D01*
X174121287Y-117644855D02*
X174026049Y-117692474D01*
X174026049Y-117692474D02*
X173978430Y-117740093D01*
X173978430Y-117740093D02*
X173930810Y-117835331D01*
X173930810Y-117835331D02*
X173930810Y-117930569D01*
X173930810Y-117930569D02*
X173978430Y-118025807D01*
X173978430Y-118025807D02*
X174026049Y-118073426D01*
X174026049Y-118073426D02*
X174121287Y-118121045D01*
X174121287Y-118121045D02*
X174311763Y-118168664D01*
X174311763Y-118168664D02*
X174549858Y-118168664D01*
X174549858Y-118168664D02*
X174740334Y-118121045D01*
X174740334Y-118121045D02*
X174835572Y-118073426D01*
X174835572Y-118073426D02*
X174883191Y-118025807D01*
X174883191Y-118025807D02*
X174930810Y-117930569D01*
X189293620Y-142761529D02*
X189769811Y-143094862D01*
X189293620Y-143332957D02*
X190293620Y-143332957D01*
X190293620Y-143332957D02*
X190293620Y-142952005D01*
X190293620Y-142952005D02*
X190246001Y-142856767D01*
X190246001Y-142856767D02*
X190198382Y-142809148D01*
X190198382Y-142809148D02*
X190103144Y-142761529D01*
X190103144Y-142761529D02*
X189960287Y-142761529D01*
X189960287Y-142761529D02*
X189865049Y-142809148D01*
X189865049Y-142809148D02*
X189817430Y-142856767D01*
X189817430Y-142856767D02*
X189769811Y-142952005D01*
X189769811Y-142952005D02*
X189769811Y-143332957D01*
X189293620Y-142332957D02*
X190293620Y-142332957D01*
X189293620Y-141856767D02*
X190293620Y-141856767D01*
X190293620Y-141856767D02*
X190293620Y-141475815D01*
X190293620Y-141475815D02*
X190246001Y-141380577D01*
X190246001Y-141380577D02*
X190198382Y-141332958D01*
X190198382Y-141332958D02*
X190103144Y-141285339D01*
X190103144Y-141285339D02*
X189960287Y-141285339D01*
X189960287Y-141285339D02*
X189865049Y-141332958D01*
X189865049Y-141332958D02*
X189817430Y-141380577D01*
X189817430Y-141380577D02*
X189769811Y-141475815D01*
X189769811Y-141475815D02*
X189769811Y-141856767D01*
X189674573Y-140856767D02*
X189674573Y-140094863D01*
X189817430Y-139285339D02*
X189817430Y-139618672D01*
X189293620Y-139618672D02*
X190293620Y-139618672D01*
X190293620Y-139618672D02*
X190293620Y-139142482D01*
X189341240Y-138380577D02*
X189293620Y-138475815D01*
X189293620Y-138475815D02*
X189293620Y-138666291D01*
X189293620Y-138666291D02*
X189341240Y-138761529D01*
X189341240Y-138761529D02*
X189436478Y-138809148D01*
X189436478Y-138809148D02*
X189817430Y-138809148D01*
X189817430Y-138809148D02*
X189912668Y-138761529D01*
X189912668Y-138761529D02*
X189960287Y-138666291D01*
X189960287Y-138666291D02*
X189960287Y-138475815D01*
X189960287Y-138475815D02*
X189912668Y-138380577D01*
X189912668Y-138380577D02*
X189817430Y-138332958D01*
X189817430Y-138332958D02*
X189722192Y-138332958D01*
X189722192Y-138332958D02*
X189626954Y-138809148D01*
X189293620Y-137761529D02*
X189341240Y-137856767D01*
X189341240Y-137856767D02*
X189436478Y-137904386D01*
X189436478Y-137904386D02*
X190293620Y-137904386D01*
X189293620Y-137380576D02*
X189960287Y-137380576D01*
X190293620Y-137380576D02*
X190246001Y-137428195D01*
X190246001Y-137428195D02*
X190198382Y-137380576D01*
X190198382Y-137380576D02*
X190246001Y-137332957D01*
X190246001Y-137332957D02*
X190293620Y-137380576D01*
X190293620Y-137380576D02*
X190198382Y-137380576D01*
X189293620Y-136999624D02*
X189960287Y-136475815D01*
X189960287Y-136999624D02*
X189293620Y-136475815D01*
D10*
X218513527Y-132970710D02*
X217799242Y-132970710D01*
X217799242Y-132970710D02*
X217656385Y-133008805D01*
X217656385Y-133008805D02*
X217561147Y-133084996D01*
X217561147Y-133084996D02*
X217513527Y-133199281D01*
X217513527Y-133199281D02*
X217513527Y-133275472D01*
X218513527Y-132589757D02*
X217704004Y-132589757D01*
X217704004Y-132589757D02*
X217608766Y-132551662D01*
X217608766Y-132551662D02*
X217561147Y-132513567D01*
X217561147Y-132513567D02*
X217513527Y-132437376D01*
X217513527Y-132437376D02*
X217513527Y-132284995D01*
X217513527Y-132284995D02*
X217561147Y-132208805D01*
X217561147Y-132208805D02*
X217608766Y-132170710D01*
X217608766Y-132170710D02*
X217704004Y-132132614D01*
X217704004Y-132132614D02*
X218513527Y-132132614D01*
X217513527Y-131751662D02*
X218513527Y-131751662D01*
X218513527Y-131751662D02*
X217799242Y-131484996D01*
X217799242Y-131484996D02*
X218513527Y-131218329D01*
X218513527Y-131218329D02*
X217513527Y-131218329D01*
X217513527Y-130837376D02*
X218513527Y-130837376D01*
X218513527Y-130837376D02*
X218513527Y-130532614D01*
X218513527Y-130532614D02*
X218465908Y-130456424D01*
X218465908Y-130456424D02*
X218418289Y-130418329D01*
X218418289Y-130418329D02*
X218323051Y-130380233D01*
X218323051Y-130380233D02*
X218180194Y-130380233D01*
X218180194Y-130380233D02*
X218084956Y-130418329D01*
X218084956Y-130418329D02*
X218037337Y-130456424D01*
X218037337Y-130456424D02*
X217989718Y-130532614D01*
X217989718Y-130532614D02*
X217989718Y-130837376D01*
X218037337Y-130037376D02*
X218037337Y-129770710D01*
X217513527Y-129656424D02*
X217513527Y-130037376D01*
X217513527Y-130037376D02*
X218513527Y-130037376D01*
X218513527Y-130037376D02*
X218513527Y-129656424D01*
X217513527Y-128856423D02*
X217989718Y-129123090D01*
X217513527Y-129313566D02*
X218513527Y-129313566D01*
X218513527Y-129313566D02*
X218513527Y-129008804D01*
X218513527Y-129008804D02*
X218465908Y-128932614D01*
X218465908Y-128932614D02*
X218418289Y-128894519D01*
X218418289Y-128894519D02*
X218323051Y-128856423D01*
X218323051Y-128856423D02*
X218180194Y-128856423D01*
X218180194Y-128856423D02*
X218084956Y-128894519D01*
X218084956Y-128894519D02*
X218037337Y-128932614D01*
X218037337Y-128932614D02*
X217989718Y-129008804D01*
X217989718Y-129008804D02*
X217989718Y-129313566D01*
X217561147Y-127942138D02*
X217513527Y-127827852D01*
X217513527Y-127827852D02*
X217513527Y-127637376D01*
X217513527Y-127637376D02*
X217561147Y-127561185D01*
X217561147Y-127561185D02*
X217608766Y-127523090D01*
X217608766Y-127523090D02*
X217704004Y-127484995D01*
X217704004Y-127484995D02*
X217799242Y-127484995D01*
X217799242Y-127484995D02*
X217894480Y-127523090D01*
X217894480Y-127523090D02*
X217942099Y-127561185D01*
X217942099Y-127561185D02*
X217989718Y-127637376D01*
X217989718Y-127637376D02*
X218037337Y-127789757D01*
X218037337Y-127789757D02*
X218084956Y-127865947D01*
X218084956Y-127865947D02*
X218132575Y-127904042D01*
X218132575Y-127904042D02*
X218227813Y-127942138D01*
X218227813Y-127942138D02*
X218323051Y-127942138D01*
X218323051Y-127942138D02*
X218418289Y-127904042D01*
X218418289Y-127904042D02*
X218465908Y-127865947D01*
X218465908Y-127865947D02*
X218513527Y-127789757D01*
X218513527Y-127789757D02*
X218513527Y-127599280D01*
X218513527Y-127599280D02*
X218465908Y-127484995D01*
X218037337Y-127142137D02*
X218037337Y-126875471D01*
X217513527Y-126761185D02*
X217513527Y-127142137D01*
X217513527Y-127142137D02*
X218513527Y-127142137D01*
X218513527Y-127142137D02*
X218513527Y-126761185D01*
X218513527Y-126532613D02*
X218513527Y-126075470D01*
X217513527Y-126304042D02*
X218513527Y-126304042D01*
X218513527Y-125923089D02*
X218513527Y-125465946D01*
X217513527Y-125694518D02*
X218513527Y-125694518D01*
X217513527Y-125199279D02*
X218513527Y-125199279D01*
X217513527Y-124818327D02*
X218513527Y-124818327D01*
X218513527Y-124818327D02*
X217513527Y-124361184D01*
X217513527Y-124361184D02*
X218513527Y-124361184D01*
X218465908Y-123561185D02*
X218513527Y-123637375D01*
X218513527Y-123637375D02*
X218513527Y-123751661D01*
X218513527Y-123751661D02*
X218465908Y-123865947D01*
X218465908Y-123865947D02*
X218370670Y-123942137D01*
X218370670Y-123942137D02*
X218275432Y-123980232D01*
X218275432Y-123980232D02*
X218084956Y-124018328D01*
X218084956Y-124018328D02*
X217942099Y-124018328D01*
X217942099Y-124018328D02*
X217751623Y-123980232D01*
X217751623Y-123980232D02*
X217656385Y-123942137D01*
X217656385Y-123942137D02*
X217561147Y-123865947D01*
X217561147Y-123865947D02*
X217513527Y-123751661D01*
X217513527Y-123751661D02*
X217513527Y-123675470D01*
X217513527Y-123675470D02*
X217561147Y-123561185D01*
X217561147Y-123561185D02*
X217608766Y-123523089D01*
X217608766Y-123523089D02*
X217942099Y-123523089D01*
X217942099Y-123523089D02*
X217942099Y-123675470D01*
X217561147Y-123218328D02*
X217513527Y-123104042D01*
X217513527Y-123104042D02*
X217513527Y-122913566D01*
X217513527Y-122913566D02*
X217561147Y-122837375D01*
X217561147Y-122837375D02*
X217608766Y-122799280D01*
X217608766Y-122799280D02*
X217704004Y-122761185D01*
X217704004Y-122761185D02*
X217799242Y-122761185D01*
X217799242Y-122761185D02*
X217894480Y-122799280D01*
X217894480Y-122799280D02*
X217942099Y-122837375D01*
X217942099Y-122837375D02*
X217989718Y-122913566D01*
X217989718Y-122913566D02*
X218037337Y-123065947D01*
X218037337Y-123065947D02*
X218084956Y-123142137D01*
X218084956Y-123142137D02*
X218132575Y-123180232D01*
X218132575Y-123180232D02*
X218227813Y-123218328D01*
X218227813Y-123218328D02*
X218323051Y-123218328D01*
X218323051Y-123218328D02*
X218418289Y-123180232D01*
X218418289Y-123180232D02*
X218465908Y-123142137D01*
X218465908Y-123142137D02*
X218513527Y-123065947D01*
X218513527Y-123065947D02*
X218513527Y-122875470D01*
X218513527Y-122875470D02*
X218465908Y-122761185D01*
X217608766Y-122418327D02*
X217561147Y-122380232D01*
X217561147Y-122380232D02*
X217513527Y-122418327D01*
X217513527Y-122418327D02*
X217561147Y-122456423D01*
X217561147Y-122456423D02*
X217608766Y-122418327D01*
X217608766Y-122418327D02*
X217513527Y-122418327D01*
X218132575Y-122418327D02*
X218084956Y-122380232D01*
X218084956Y-122380232D02*
X218037337Y-122418327D01*
X218037337Y-122418327D02*
X218084956Y-122456423D01*
X218084956Y-122456423D02*
X218132575Y-122418327D01*
X218132575Y-122418327D02*
X218037337Y-122418327D01*
X215903583Y-133808805D02*
X216903583Y-133808805D01*
X216903583Y-133808805D02*
X216189298Y-133542139D01*
X216189298Y-133542139D02*
X216903583Y-133275472D01*
X216903583Y-133275472D02*
X215903583Y-133275472D01*
X215903583Y-132894519D02*
X216903583Y-132894519D01*
X216903583Y-132894519D02*
X216903583Y-132704043D01*
X216903583Y-132704043D02*
X216855964Y-132589757D01*
X216855964Y-132589757D02*
X216760726Y-132513567D01*
X216760726Y-132513567D02*
X216665488Y-132475472D01*
X216665488Y-132475472D02*
X216475012Y-132437376D01*
X216475012Y-132437376D02*
X216332155Y-132437376D01*
X216332155Y-132437376D02*
X216141679Y-132475472D01*
X216141679Y-132475472D02*
X216046441Y-132513567D01*
X216046441Y-132513567D02*
X215951203Y-132589757D01*
X215951203Y-132589757D02*
X215903583Y-132704043D01*
X215903583Y-132704043D02*
X215903583Y-132894519D01*
X215903583Y-131675472D02*
X215903583Y-132132615D01*
X215903583Y-131904043D02*
X216903583Y-131904043D01*
X216903583Y-131904043D02*
X216760726Y-131980234D01*
X216760726Y-131980234D02*
X216665488Y-132056424D01*
X216665488Y-132056424D02*
X216617869Y-132132615D01*
X216903583Y-130837376D02*
X215903583Y-130570709D01*
X215903583Y-130570709D02*
X216903583Y-130304043D01*
X216189298Y-130075472D02*
X216189298Y-129694519D01*
X215903583Y-130151662D02*
X216903583Y-129884995D01*
X216903583Y-129884995D02*
X215903583Y-129618329D01*
X216903583Y-129199281D02*
X216903583Y-129123091D01*
X216903583Y-129123091D02*
X216855964Y-129046900D01*
X216855964Y-129046900D02*
X216808345Y-129008805D01*
X216808345Y-129008805D02*
X216713107Y-128970710D01*
X216713107Y-128970710D02*
X216522631Y-128932615D01*
X216522631Y-128932615D02*
X216284536Y-128932615D01*
X216284536Y-128932615D02*
X216094060Y-128970710D01*
X216094060Y-128970710D02*
X215998822Y-129008805D01*
X215998822Y-129008805D02*
X215951203Y-129046900D01*
X215951203Y-129046900D02*
X215903583Y-129123091D01*
X215903583Y-129123091D02*
X215903583Y-129199281D01*
X215903583Y-129199281D02*
X215951203Y-129275472D01*
X215951203Y-129275472D02*
X215998822Y-129313567D01*
X215998822Y-129313567D02*
X216094060Y-129351662D01*
X216094060Y-129351662D02*
X216284536Y-129389758D01*
X216284536Y-129389758D02*
X216522631Y-129389758D01*
X216522631Y-129389758D02*
X216713107Y-129351662D01*
X216713107Y-129351662D02*
X216808345Y-129313567D01*
X216808345Y-129313567D02*
X216855964Y-129275472D01*
X216855964Y-129275472D02*
X216903583Y-129199281D01*
X216284536Y-128589757D02*
X216284536Y-127980234D01*
X216903583Y-127256424D02*
X216903583Y-127408805D01*
X216903583Y-127408805D02*
X216855964Y-127484996D01*
X216855964Y-127484996D02*
X216808345Y-127523091D01*
X216808345Y-127523091D02*
X216665488Y-127599281D01*
X216665488Y-127599281D02*
X216475012Y-127637377D01*
X216475012Y-127637377D02*
X216094060Y-127637377D01*
X216094060Y-127637377D02*
X215998822Y-127599281D01*
X215998822Y-127599281D02*
X215951203Y-127561186D01*
X215951203Y-127561186D02*
X215903583Y-127484996D01*
X215903583Y-127484996D02*
X215903583Y-127332615D01*
X215903583Y-127332615D02*
X215951203Y-127256424D01*
X215951203Y-127256424D02*
X215998822Y-127218329D01*
X215998822Y-127218329D02*
X216094060Y-127180234D01*
X216094060Y-127180234D02*
X216332155Y-127180234D01*
X216332155Y-127180234D02*
X216427393Y-127218329D01*
X216427393Y-127218329D02*
X216475012Y-127256424D01*
X216475012Y-127256424D02*
X216522631Y-127332615D01*
X216522631Y-127332615D02*
X216522631Y-127484996D01*
X216522631Y-127484996D02*
X216475012Y-127561186D01*
X216475012Y-127561186D02*
X216427393Y-127599281D01*
X216427393Y-127599281D02*
X216332155Y-127637377D01*
X215998822Y-126837376D02*
X215951203Y-126799281D01*
X215951203Y-126799281D02*
X215903583Y-126837376D01*
X215903583Y-126837376D02*
X215951203Y-126875472D01*
X215951203Y-126875472D02*
X215998822Y-126837376D01*
X215998822Y-126837376D02*
X215903583Y-126837376D01*
X216475012Y-126342139D02*
X216522631Y-126418329D01*
X216522631Y-126418329D02*
X216570250Y-126456424D01*
X216570250Y-126456424D02*
X216665488Y-126494520D01*
X216665488Y-126494520D02*
X216713107Y-126494520D01*
X216713107Y-126494520D02*
X216808345Y-126456424D01*
X216808345Y-126456424D02*
X216855964Y-126418329D01*
X216855964Y-126418329D02*
X216903583Y-126342139D01*
X216903583Y-126342139D02*
X216903583Y-126189758D01*
X216903583Y-126189758D02*
X216855964Y-126113567D01*
X216855964Y-126113567D02*
X216808345Y-126075472D01*
X216808345Y-126075472D02*
X216713107Y-126037377D01*
X216713107Y-126037377D02*
X216665488Y-126037377D01*
X216665488Y-126037377D02*
X216570250Y-126075472D01*
X216570250Y-126075472D02*
X216522631Y-126113567D01*
X216522631Y-126113567D02*
X216475012Y-126189758D01*
X216475012Y-126189758D02*
X216475012Y-126342139D01*
X216475012Y-126342139D02*
X216427393Y-126418329D01*
X216427393Y-126418329D02*
X216379774Y-126456424D01*
X216379774Y-126456424D02*
X216284536Y-126494520D01*
X216284536Y-126494520D02*
X216094060Y-126494520D01*
X216094060Y-126494520D02*
X215998822Y-126456424D01*
X215998822Y-126456424D02*
X215951203Y-126418329D01*
X215951203Y-126418329D02*
X215903583Y-126342139D01*
X215903583Y-126342139D02*
X215903583Y-126189758D01*
X215903583Y-126189758D02*
X215951203Y-126113567D01*
X215951203Y-126113567D02*
X215998822Y-126075472D01*
X215998822Y-126075472D02*
X216094060Y-126037377D01*
X216094060Y-126037377D02*
X216284536Y-126037377D01*
X216284536Y-126037377D02*
X216379774Y-126075472D01*
X216379774Y-126075472D02*
X216427393Y-126113567D01*
X216427393Y-126113567D02*
X216475012Y-126189758D01*
X215998822Y-125694519D02*
X215951203Y-125656424D01*
X215951203Y-125656424D02*
X215903583Y-125694519D01*
X215903583Y-125694519D02*
X215951203Y-125732615D01*
X215951203Y-125732615D02*
X215998822Y-125694519D01*
X215998822Y-125694519D02*
X215903583Y-125694519D01*
X216522631Y-125694519D02*
X216475012Y-125656424D01*
X216475012Y-125656424D02*
X216427393Y-125694519D01*
X216427393Y-125694519D02*
X216475012Y-125732615D01*
X216475012Y-125732615D02*
X216522631Y-125694519D01*
X216522631Y-125694519D02*
X216427393Y-125694519D01*
X215903583Y-124284996D02*
X215903583Y-124742139D01*
X215903583Y-124513567D02*
X216903583Y-124513567D01*
X216903583Y-124513567D02*
X216760726Y-124589758D01*
X216760726Y-124589758D02*
X216665488Y-124665948D01*
X216665488Y-124665948D02*
X216617869Y-124742139D01*
X216189298Y-123980234D02*
X216189298Y-123599281D01*
X215903583Y-124056424D02*
X216903583Y-123789757D01*
X216903583Y-123789757D02*
X215903583Y-123523091D01*
X215998822Y-122799281D02*
X215951203Y-122837377D01*
X215951203Y-122837377D02*
X215903583Y-122951662D01*
X215903583Y-122951662D02*
X215903583Y-123027853D01*
X215903583Y-123027853D02*
X215951203Y-123142139D01*
X215951203Y-123142139D02*
X216046441Y-123218329D01*
X216046441Y-123218329D02*
X216141679Y-123256424D01*
X216141679Y-123256424D02*
X216332155Y-123294520D01*
X216332155Y-123294520D02*
X216475012Y-123294520D01*
X216475012Y-123294520D02*
X216665488Y-123256424D01*
X216665488Y-123256424D02*
X216760726Y-123218329D01*
X216760726Y-123218329D02*
X216855964Y-123142139D01*
X216855964Y-123142139D02*
X216903583Y-123027853D01*
X216903583Y-123027853D02*
X216903583Y-122951662D01*
X216903583Y-122951662D02*
X216855964Y-122837377D01*
X216855964Y-122837377D02*
X216808345Y-122799281D01*
X214293639Y-133808805D02*
X215293639Y-133808805D01*
X215293639Y-133808805D02*
X214579354Y-133542139D01*
X214579354Y-133542139D02*
X215293639Y-133275472D01*
X215293639Y-133275472D02*
X214293639Y-133275472D01*
X214293639Y-132894519D02*
X215293639Y-132894519D01*
X215293639Y-132894519D02*
X215293639Y-132704043D01*
X215293639Y-132704043D02*
X215246020Y-132589757D01*
X215246020Y-132589757D02*
X215150782Y-132513567D01*
X215150782Y-132513567D02*
X215055544Y-132475472D01*
X215055544Y-132475472D02*
X214865068Y-132437376D01*
X214865068Y-132437376D02*
X214722211Y-132437376D01*
X214722211Y-132437376D02*
X214531735Y-132475472D01*
X214531735Y-132475472D02*
X214436497Y-132513567D01*
X214436497Y-132513567D02*
X214341259Y-132589757D01*
X214341259Y-132589757D02*
X214293639Y-132704043D01*
X214293639Y-132704043D02*
X214293639Y-132894519D01*
X214293639Y-131675472D02*
X214293639Y-132132615D01*
X214293639Y-131904043D02*
X215293639Y-131904043D01*
X215293639Y-131904043D02*
X215150782Y-131980234D01*
X215150782Y-131980234D02*
X215055544Y-132056424D01*
X215055544Y-132056424D02*
X215007925Y-132132615D01*
X215293639Y-130837376D02*
X214293639Y-130570709D01*
X214293639Y-130570709D02*
X215293639Y-130304043D01*
X214579354Y-130075472D02*
X214579354Y-129694519D01*
X214293639Y-130151662D02*
X215293639Y-129884995D01*
X215293639Y-129884995D02*
X214293639Y-129618329D01*
X215293639Y-129427853D02*
X215293639Y-128894519D01*
X215293639Y-128894519D02*
X214293639Y-129237377D01*
X214341259Y-128551662D02*
X214293639Y-128551662D01*
X214293639Y-128551662D02*
X214198401Y-128589757D01*
X214198401Y-128589757D02*
X214150782Y-128627853D01*
X214293639Y-127599281D02*
X215293639Y-127599281D01*
X215293639Y-127599281D02*
X214579354Y-127332615D01*
X214579354Y-127332615D02*
X215293639Y-127065948D01*
X215293639Y-127065948D02*
X214293639Y-127065948D01*
X214293639Y-126684995D02*
X215293639Y-126684995D01*
X215293639Y-126684995D02*
X215293639Y-126494519D01*
X215293639Y-126494519D02*
X215246020Y-126380233D01*
X215246020Y-126380233D02*
X215150782Y-126304043D01*
X215150782Y-126304043D02*
X215055544Y-126265948D01*
X215055544Y-126265948D02*
X214865068Y-126227852D01*
X214865068Y-126227852D02*
X214722211Y-126227852D01*
X214722211Y-126227852D02*
X214531735Y-126265948D01*
X214531735Y-126265948D02*
X214436497Y-126304043D01*
X214436497Y-126304043D02*
X214341259Y-126380233D01*
X214341259Y-126380233D02*
X214293639Y-126494519D01*
X214293639Y-126494519D02*
X214293639Y-126684995D01*
X215198401Y-125923091D02*
X215246020Y-125884995D01*
X215246020Y-125884995D02*
X215293639Y-125808805D01*
X215293639Y-125808805D02*
X215293639Y-125618329D01*
X215293639Y-125618329D02*
X215246020Y-125542138D01*
X215246020Y-125542138D02*
X215198401Y-125504043D01*
X215198401Y-125504043D02*
X215103163Y-125465948D01*
X215103163Y-125465948D02*
X215007925Y-125465948D01*
X215007925Y-125465948D02*
X214865068Y-125504043D01*
X214865068Y-125504043D02*
X214293639Y-125961186D01*
X214293639Y-125961186D02*
X214293639Y-125465948D01*
X215293639Y-124627852D02*
X214293639Y-124361185D01*
X214293639Y-124361185D02*
X215293639Y-124094519D01*
X214579354Y-123865948D02*
X214579354Y-123484995D01*
X214293639Y-123942138D02*
X215293639Y-123675471D01*
X215293639Y-123675471D02*
X214293639Y-123408805D01*
X215293639Y-123218329D02*
X215293639Y-122723091D01*
X215293639Y-122723091D02*
X214912687Y-122989757D01*
X214912687Y-122989757D02*
X214912687Y-122875472D01*
X214912687Y-122875472D02*
X214865068Y-122799281D01*
X214865068Y-122799281D02*
X214817449Y-122761186D01*
X214817449Y-122761186D02*
X214722211Y-122723091D01*
X214722211Y-122723091D02*
X214484116Y-122723091D01*
X214484116Y-122723091D02*
X214388878Y-122761186D01*
X214388878Y-122761186D02*
X214341259Y-122799281D01*
X214341259Y-122799281D02*
X214293639Y-122875472D01*
X214293639Y-122875472D02*
X214293639Y-123104043D01*
X214293639Y-123104043D02*
X214341259Y-123180234D01*
X214341259Y-123180234D02*
X214388878Y-123218329D01*
X214388878Y-122380233D02*
X214341259Y-122342138D01*
X214341259Y-122342138D02*
X214293639Y-122380233D01*
X214293639Y-122380233D02*
X214341259Y-122418329D01*
X214341259Y-122418329D02*
X214388878Y-122380233D01*
X214388878Y-122380233D02*
X214293639Y-122380233D01*
X214912687Y-122380233D02*
X214865068Y-122342138D01*
X214865068Y-122342138D02*
X214817449Y-122380233D01*
X214817449Y-122380233D02*
X214865068Y-122418329D01*
X214865068Y-122418329D02*
X214912687Y-122380233D01*
X214912687Y-122380233D02*
X214817449Y-122380233D01*
X215198401Y-121427853D02*
X215246020Y-121389757D01*
X215246020Y-121389757D02*
X215293639Y-121313567D01*
X215293639Y-121313567D02*
X215293639Y-121123091D01*
X215293639Y-121123091D02*
X215246020Y-121046900D01*
X215246020Y-121046900D02*
X215198401Y-121008805D01*
X215198401Y-121008805D02*
X215103163Y-120970710D01*
X215103163Y-120970710D02*
X215007925Y-120970710D01*
X215007925Y-120970710D02*
X214865068Y-121008805D01*
X214865068Y-121008805D02*
X214293639Y-121465948D01*
X214293639Y-121465948D02*
X214293639Y-120970710D01*
X214579354Y-120665948D02*
X214579354Y-120284995D01*
X214293639Y-120742138D02*
X215293639Y-120475471D01*
X215293639Y-120475471D02*
X214293639Y-120208805D01*
X214388878Y-119484995D02*
X214341259Y-119523091D01*
X214341259Y-119523091D02*
X214293639Y-119637376D01*
X214293639Y-119637376D02*
X214293639Y-119713567D01*
X214293639Y-119713567D02*
X214341259Y-119827853D01*
X214341259Y-119827853D02*
X214436497Y-119904043D01*
X214436497Y-119904043D02*
X214531735Y-119942138D01*
X214531735Y-119942138D02*
X214722211Y-119980234D01*
X214722211Y-119980234D02*
X214865068Y-119980234D01*
X214865068Y-119980234D02*
X215055544Y-119942138D01*
X215055544Y-119942138D02*
X215150782Y-119904043D01*
X215150782Y-119904043D02*
X215246020Y-119827853D01*
X215246020Y-119827853D02*
X215293639Y-119713567D01*
X215293639Y-119713567D02*
X215293639Y-119637376D01*
X215293639Y-119637376D02*
X215246020Y-119523091D01*
X215246020Y-119523091D02*
X215198401Y-119484995D01*
X213960306Y-118304043D02*
X213960306Y-118494519D01*
X213960306Y-118494519D02*
X215388878Y-118494519D01*
X215388878Y-118494519D02*
X215388878Y-118304043D01*
X214674592Y-117999281D02*
X214674592Y-117389758D01*
X215293639Y-116856424D02*
X215293639Y-116780234D01*
X215293639Y-116780234D02*
X215246020Y-116704043D01*
X215246020Y-116704043D02*
X215198401Y-116665948D01*
X215198401Y-116665948D02*
X215103163Y-116627853D01*
X215103163Y-116627853D02*
X214912687Y-116589758D01*
X214912687Y-116589758D02*
X214674592Y-116589758D01*
X214674592Y-116589758D02*
X214484116Y-116627853D01*
X214484116Y-116627853D02*
X214388878Y-116665948D01*
X214388878Y-116665948D02*
X214341259Y-116704043D01*
X214341259Y-116704043D02*
X214293639Y-116780234D01*
X214293639Y-116780234D02*
X214293639Y-116856424D01*
X214293639Y-116856424D02*
X214341259Y-116932615D01*
X214341259Y-116932615D02*
X214388878Y-116970710D01*
X214388878Y-116970710D02*
X214484116Y-117008805D01*
X214484116Y-117008805D02*
X214674592Y-117046901D01*
X214674592Y-117046901D02*
X214912687Y-117046901D01*
X214912687Y-117046901D02*
X215103163Y-117008805D01*
X215103163Y-117008805D02*
X215198401Y-116970710D01*
X215198401Y-116970710D02*
X215246020Y-116932615D01*
X215246020Y-116932615D02*
X215293639Y-116856424D01*
X214293639Y-115827853D02*
X214293639Y-116284996D01*
X214293639Y-116056424D02*
X215293639Y-116056424D01*
X215293639Y-116056424D02*
X215150782Y-116132615D01*
X215150782Y-116132615D02*
X215055544Y-116208805D01*
X215055544Y-116208805D02*
X215007925Y-116284996D01*
X214341259Y-115446900D02*
X214293639Y-115446900D01*
X214293639Y-115446900D02*
X214198401Y-115484995D01*
X214198401Y-115484995D02*
X214150782Y-115523091D01*
X215198401Y-114532615D02*
X215246020Y-114494519D01*
X215246020Y-114494519D02*
X215293639Y-114418329D01*
X215293639Y-114418329D02*
X215293639Y-114227853D01*
X215293639Y-114227853D02*
X215246020Y-114151662D01*
X215246020Y-114151662D02*
X215198401Y-114113567D01*
X215198401Y-114113567D02*
X215103163Y-114075472D01*
X215103163Y-114075472D02*
X215007925Y-114075472D01*
X215007925Y-114075472D02*
X214865068Y-114113567D01*
X214865068Y-114113567D02*
X214293639Y-114570710D01*
X214293639Y-114570710D02*
X214293639Y-114075472D01*
X214579354Y-113770710D02*
X214579354Y-113389757D01*
X214293639Y-113846900D02*
X215293639Y-113580233D01*
X215293639Y-113580233D02*
X214293639Y-113313567D01*
X214817449Y-112780234D02*
X214817449Y-113046900D01*
X214293639Y-113046900D02*
X215293639Y-113046900D01*
X215293639Y-113046900D02*
X215293639Y-112665948D01*
X213960306Y-112437377D02*
X213960306Y-112246901D01*
X213960306Y-112246901D02*
X215388878Y-112246901D01*
X215388878Y-112246901D02*
X215388878Y-112437377D01*
X212683695Y-133808805D02*
X213683695Y-133808805D01*
X213683695Y-133808805D02*
X212969410Y-133542139D01*
X212969410Y-133542139D02*
X213683695Y-133275472D01*
X213683695Y-133275472D02*
X212683695Y-133275472D01*
X212683695Y-132894519D02*
X213683695Y-132894519D01*
X213683695Y-132894519D02*
X213683695Y-132704043D01*
X213683695Y-132704043D02*
X213636076Y-132589757D01*
X213636076Y-132589757D02*
X213540838Y-132513567D01*
X213540838Y-132513567D02*
X213445600Y-132475472D01*
X213445600Y-132475472D02*
X213255124Y-132437376D01*
X213255124Y-132437376D02*
X213112267Y-132437376D01*
X213112267Y-132437376D02*
X212921791Y-132475472D01*
X212921791Y-132475472D02*
X212826553Y-132513567D01*
X212826553Y-132513567D02*
X212731315Y-132589757D01*
X212731315Y-132589757D02*
X212683695Y-132704043D01*
X212683695Y-132704043D02*
X212683695Y-132894519D01*
X213588457Y-132132615D02*
X213636076Y-132094519D01*
X213636076Y-132094519D02*
X213683695Y-132018329D01*
X213683695Y-132018329D02*
X213683695Y-131827853D01*
X213683695Y-131827853D02*
X213636076Y-131751662D01*
X213636076Y-131751662D02*
X213588457Y-131713567D01*
X213588457Y-131713567D02*
X213493219Y-131675472D01*
X213493219Y-131675472D02*
X213397981Y-131675472D01*
X213397981Y-131675472D02*
X213255124Y-131713567D01*
X213255124Y-131713567D02*
X212683695Y-132170710D01*
X212683695Y-132170710D02*
X212683695Y-131675472D01*
X213683695Y-130837376D02*
X212683695Y-130570709D01*
X212683695Y-130570709D02*
X213683695Y-130304043D01*
X212969410Y-130075472D02*
X212969410Y-129694519D01*
X212683695Y-130151662D02*
X213683695Y-129884995D01*
X213683695Y-129884995D02*
X212683695Y-129618329D01*
X213683695Y-129199281D02*
X213683695Y-129123091D01*
X213683695Y-129123091D02*
X213636076Y-129046900D01*
X213636076Y-129046900D02*
X213588457Y-129008805D01*
X213588457Y-129008805D02*
X213493219Y-128970710D01*
X213493219Y-128970710D02*
X213302743Y-128932615D01*
X213302743Y-128932615D02*
X213064648Y-128932615D01*
X213064648Y-128932615D02*
X212874172Y-128970710D01*
X212874172Y-128970710D02*
X212778934Y-129008805D01*
X212778934Y-129008805D02*
X212731315Y-129046900D01*
X212731315Y-129046900D02*
X212683695Y-129123091D01*
X212683695Y-129123091D02*
X212683695Y-129199281D01*
X212683695Y-129199281D02*
X212731315Y-129275472D01*
X212731315Y-129275472D02*
X212778934Y-129313567D01*
X212778934Y-129313567D02*
X212874172Y-129351662D01*
X212874172Y-129351662D02*
X213064648Y-129389758D01*
X213064648Y-129389758D02*
X213302743Y-129389758D01*
X213302743Y-129389758D02*
X213493219Y-129351662D01*
X213493219Y-129351662D02*
X213588457Y-129313567D01*
X213588457Y-129313567D02*
X213636076Y-129275472D01*
X213636076Y-129275472D02*
X213683695Y-129199281D01*
X213064648Y-128589757D02*
X213064648Y-127980234D01*
X212683695Y-127180234D02*
X212683695Y-127637377D01*
X212683695Y-127408805D02*
X213683695Y-127408805D01*
X213683695Y-127408805D02*
X213540838Y-127484996D01*
X213540838Y-127484996D02*
X213445600Y-127561186D01*
X213445600Y-127561186D02*
X213397981Y-127637377D01*
X212778934Y-126837376D02*
X212731315Y-126799281D01*
X212731315Y-126799281D02*
X212683695Y-126837376D01*
X212683695Y-126837376D02*
X212731315Y-126875472D01*
X212731315Y-126875472D02*
X212778934Y-126837376D01*
X212778934Y-126837376D02*
X212683695Y-126837376D01*
X213255124Y-126342139D02*
X213302743Y-126418329D01*
X213302743Y-126418329D02*
X213350362Y-126456424D01*
X213350362Y-126456424D02*
X213445600Y-126494520D01*
X213445600Y-126494520D02*
X213493219Y-126494520D01*
X213493219Y-126494520D02*
X213588457Y-126456424D01*
X213588457Y-126456424D02*
X213636076Y-126418329D01*
X213636076Y-126418329D02*
X213683695Y-126342139D01*
X213683695Y-126342139D02*
X213683695Y-126189758D01*
X213683695Y-126189758D02*
X213636076Y-126113567D01*
X213636076Y-126113567D02*
X213588457Y-126075472D01*
X213588457Y-126075472D02*
X213493219Y-126037377D01*
X213493219Y-126037377D02*
X213445600Y-126037377D01*
X213445600Y-126037377D02*
X213350362Y-126075472D01*
X213350362Y-126075472D02*
X213302743Y-126113567D01*
X213302743Y-126113567D02*
X213255124Y-126189758D01*
X213255124Y-126189758D02*
X213255124Y-126342139D01*
X213255124Y-126342139D02*
X213207505Y-126418329D01*
X213207505Y-126418329D02*
X213159886Y-126456424D01*
X213159886Y-126456424D02*
X213064648Y-126494520D01*
X213064648Y-126494520D02*
X212874172Y-126494520D01*
X212874172Y-126494520D02*
X212778934Y-126456424D01*
X212778934Y-126456424D02*
X212731315Y-126418329D01*
X212731315Y-126418329D02*
X212683695Y-126342139D01*
X212683695Y-126342139D02*
X212683695Y-126189758D01*
X212683695Y-126189758D02*
X212731315Y-126113567D01*
X212731315Y-126113567D02*
X212778934Y-126075472D01*
X212778934Y-126075472D02*
X212874172Y-126037377D01*
X212874172Y-126037377D02*
X213064648Y-126037377D01*
X213064648Y-126037377D02*
X213159886Y-126075472D01*
X213159886Y-126075472D02*
X213207505Y-126113567D01*
X213207505Y-126113567D02*
X213255124Y-126189758D01*
X212778934Y-125694519D02*
X212731315Y-125656424D01*
X212731315Y-125656424D02*
X212683695Y-125694519D01*
X212683695Y-125694519D02*
X212731315Y-125732615D01*
X212731315Y-125732615D02*
X212778934Y-125694519D01*
X212778934Y-125694519D02*
X212683695Y-125694519D01*
X213302743Y-125694519D02*
X213255124Y-125656424D01*
X213255124Y-125656424D02*
X213207505Y-125694519D01*
X213207505Y-125694519D02*
X213255124Y-125732615D01*
X213255124Y-125732615D02*
X213302743Y-125694519D01*
X213302743Y-125694519D02*
X213207505Y-125694519D01*
X213588457Y-124742139D02*
X213636076Y-124704043D01*
X213636076Y-124704043D02*
X213683695Y-124627853D01*
X213683695Y-124627853D02*
X213683695Y-124437377D01*
X213683695Y-124437377D02*
X213636076Y-124361186D01*
X213636076Y-124361186D02*
X213588457Y-124323091D01*
X213588457Y-124323091D02*
X213493219Y-124284996D01*
X213493219Y-124284996D02*
X213397981Y-124284996D01*
X213397981Y-124284996D02*
X213255124Y-124323091D01*
X213255124Y-124323091D02*
X212683695Y-124780234D01*
X212683695Y-124780234D02*
X212683695Y-124284996D01*
X212969410Y-123370710D02*
X212969410Y-122989757D01*
X212683695Y-123446900D02*
X213683695Y-123180233D01*
X213683695Y-123180233D02*
X212683695Y-122913567D01*
X212778934Y-122189757D02*
X212731315Y-122227853D01*
X212731315Y-122227853D02*
X212683695Y-122342138D01*
X212683695Y-122342138D02*
X212683695Y-122418329D01*
X212683695Y-122418329D02*
X212731315Y-122532615D01*
X212731315Y-122532615D02*
X212826553Y-122608805D01*
X212826553Y-122608805D02*
X212921791Y-122646900D01*
X212921791Y-122646900D02*
X213112267Y-122684996D01*
X213112267Y-122684996D02*
X213255124Y-122684996D01*
X213255124Y-122684996D02*
X213445600Y-122646900D01*
X213445600Y-122646900D02*
X213540838Y-122608805D01*
X213540838Y-122608805D02*
X213636076Y-122532615D01*
X213636076Y-122532615D02*
X213683695Y-122418329D01*
X213683695Y-122418329D02*
X213683695Y-122342138D01*
X213683695Y-122342138D02*
X213636076Y-122227853D01*
X213636076Y-122227853D02*
X213588457Y-122189757D01*
X212683695Y-121846900D02*
X213683695Y-121846900D01*
X213683695Y-121846900D02*
X213683695Y-121656424D01*
X213683695Y-121656424D02*
X213636076Y-121542138D01*
X213636076Y-121542138D02*
X213540838Y-121465948D01*
X213540838Y-121465948D02*
X213445600Y-121427853D01*
X213445600Y-121427853D02*
X213255124Y-121389757D01*
X213255124Y-121389757D02*
X213112267Y-121389757D01*
X213112267Y-121389757D02*
X212921791Y-121427853D01*
X212921791Y-121427853D02*
X212826553Y-121465948D01*
X212826553Y-121465948D02*
X212731315Y-121542138D01*
X212731315Y-121542138D02*
X212683695Y-121656424D01*
X212683695Y-121656424D02*
X212683695Y-121846900D01*
X212350362Y-120208805D02*
X212350362Y-120399281D01*
X212350362Y-120399281D02*
X213778934Y-120399281D01*
X213778934Y-120399281D02*
X213778934Y-120208805D01*
X213064648Y-119904043D02*
X213064648Y-119294520D01*
X213683695Y-118761186D02*
X213683695Y-118684996D01*
X213683695Y-118684996D02*
X213636076Y-118608805D01*
X213636076Y-118608805D02*
X213588457Y-118570710D01*
X213588457Y-118570710D02*
X213493219Y-118532615D01*
X213493219Y-118532615D02*
X213302743Y-118494520D01*
X213302743Y-118494520D02*
X213064648Y-118494520D01*
X213064648Y-118494520D02*
X212874172Y-118532615D01*
X212874172Y-118532615D02*
X212778934Y-118570710D01*
X212778934Y-118570710D02*
X212731315Y-118608805D01*
X212731315Y-118608805D02*
X212683695Y-118684996D01*
X212683695Y-118684996D02*
X212683695Y-118761186D01*
X212683695Y-118761186D02*
X212731315Y-118837377D01*
X212731315Y-118837377D02*
X212778934Y-118875472D01*
X212778934Y-118875472D02*
X212874172Y-118913567D01*
X212874172Y-118913567D02*
X213064648Y-118951663D01*
X213064648Y-118951663D02*
X213302743Y-118951663D01*
X213302743Y-118951663D02*
X213493219Y-118913567D01*
X213493219Y-118913567D02*
X213588457Y-118875472D01*
X213588457Y-118875472D02*
X213636076Y-118837377D01*
X213636076Y-118837377D02*
X213683695Y-118761186D01*
X212683695Y-117732615D02*
X212683695Y-118189758D01*
X212683695Y-117961186D02*
X213683695Y-117961186D01*
X213683695Y-117961186D02*
X213540838Y-118037377D01*
X213540838Y-118037377D02*
X213445600Y-118113567D01*
X213445600Y-118113567D02*
X213397981Y-118189758D01*
X212731315Y-117351662D02*
X212683695Y-117351662D01*
X212683695Y-117351662D02*
X212588457Y-117389757D01*
X212588457Y-117389757D02*
X212540838Y-117427853D01*
X213588457Y-116437377D02*
X213636076Y-116399281D01*
X213636076Y-116399281D02*
X213683695Y-116323091D01*
X213683695Y-116323091D02*
X213683695Y-116132615D01*
X213683695Y-116132615D02*
X213636076Y-116056424D01*
X213636076Y-116056424D02*
X213588457Y-116018329D01*
X213588457Y-116018329D02*
X213493219Y-115980234D01*
X213493219Y-115980234D02*
X213397981Y-115980234D01*
X213397981Y-115980234D02*
X213255124Y-116018329D01*
X213255124Y-116018329D02*
X212683695Y-116475472D01*
X212683695Y-116475472D02*
X212683695Y-115980234D01*
X212969410Y-115675472D02*
X212969410Y-115294519D01*
X212683695Y-115751662D02*
X213683695Y-115484995D01*
X213683695Y-115484995D02*
X212683695Y-115218329D01*
X213207505Y-114684996D02*
X213207505Y-114951662D01*
X212683695Y-114951662D02*
X213683695Y-114951662D01*
X213683695Y-114951662D02*
X213683695Y-114570710D01*
X212683695Y-114265948D02*
X213683695Y-114265948D01*
X213683695Y-114265948D02*
X213683695Y-114075472D01*
X213683695Y-114075472D02*
X213636076Y-113961186D01*
X213636076Y-113961186D02*
X213540838Y-113884996D01*
X213540838Y-113884996D02*
X213445600Y-113846901D01*
X213445600Y-113846901D02*
X213255124Y-113808805D01*
X213255124Y-113808805D02*
X213112267Y-113808805D01*
X213112267Y-113808805D02*
X212921791Y-113846901D01*
X212921791Y-113846901D02*
X212826553Y-113884996D01*
X212826553Y-113884996D02*
X212731315Y-113961186D01*
X212731315Y-113961186D02*
X212683695Y-114075472D01*
X212683695Y-114075472D02*
X212683695Y-114265948D01*
X212350362Y-113542139D02*
X212350362Y-113351663D01*
X212350362Y-113351663D02*
X213778934Y-113351663D01*
X213778934Y-113351663D02*
X213778934Y-113542139D01*
X211073751Y-133808805D02*
X212073751Y-133808805D01*
X212073751Y-133808805D02*
X211359466Y-133542139D01*
X211359466Y-133542139D02*
X212073751Y-133275472D01*
X212073751Y-133275472D02*
X211073751Y-133275472D01*
X211073751Y-132894519D02*
X212073751Y-132894519D01*
X212073751Y-132894519D02*
X212073751Y-132704043D01*
X212073751Y-132704043D02*
X212026132Y-132589757D01*
X212026132Y-132589757D02*
X211930894Y-132513567D01*
X211930894Y-132513567D02*
X211835656Y-132475472D01*
X211835656Y-132475472D02*
X211645180Y-132437376D01*
X211645180Y-132437376D02*
X211502323Y-132437376D01*
X211502323Y-132437376D02*
X211311847Y-132475472D01*
X211311847Y-132475472D02*
X211216609Y-132513567D01*
X211216609Y-132513567D02*
X211121371Y-132589757D01*
X211121371Y-132589757D02*
X211073751Y-132704043D01*
X211073751Y-132704043D02*
X211073751Y-132894519D01*
X211978513Y-132132615D02*
X212026132Y-132094519D01*
X212026132Y-132094519D02*
X212073751Y-132018329D01*
X212073751Y-132018329D02*
X212073751Y-131827853D01*
X212073751Y-131827853D02*
X212026132Y-131751662D01*
X212026132Y-131751662D02*
X211978513Y-131713567D01*
X211978513Y-131713567D02*
X211883275Y-131675472D01*
X211883275Y-131675472D02*
X211788037Y-131675472D01*
X211788037Y-131675472D02*
X211645180Y-131713567D01*
X211645180Y-131713567D02*
X211073751Y-132170710D01*
X211073751Y-132170710D02*
X211073751Y-131675472D01*
X212073751Y-130837376D02*
X211073751Y-130570709D01*
X211073751Y-130570709D02*
X212073751Y-130304043D01*
X211359466Y-130075472D02*
X211359466Y-129694519D01*
X211073751Y-130151662D02*
X212073751Y-129884995D01*
X212073751Y-129884995D02*
X211073751Y-129618329D01*
X211978513Y-129389758D02*
X212026132Y-129351662D01*
X212026132Y-129351662D02*
X212073751Y-129275472D01*
X212073751Y-129275472D02*
X212073751Y-129084996D01*
X212073751Y-129084996D02*
X212026132Y-129008805D01*
X212026132Y-129008805D02*
X211978513Y-128970710D01*
X211978513Y-128970710D02*
X211883275Y-128932615D01*
X211883275Y-128932615D02*
X211788037Y-128932615D01*
X211788037Y-128932615D02*
X211645180Y-128970710D01*
X211645180Y-128970710D02*
X211073751Y-129427853D01*
X211073751Y-129427853D02*
X211073751Y-128932615D01*
X211454704Y-128589757D02*
X211454704Y-127980234D01*
X211978513Y-127637377D02*
X212026132Y-127599281D01*
X212026132Y-127599281D02*
X212073751Y-127523091D01*
X212073751Y-127523091D02*
X212073751Y-127332615D01*
X212073751Y-127332615D02*
X212026132Y-127256424D01*
X212026132Y-127256424D02*
X211978513Y-127218329D01*
X211978513Y-127218329D02*
X211883275Y-127180234D01*
X211883275Y-127180234D02*
X211788037Y-127180234D01*
X211788037Y-127180234D02*
X211645180Y-127218329D01*
X211645180Y-127218329D02*
X211073751Y-127675472D01*
X211073751Y-127675472D02*
X211073751Y-127180234D01*
X211168990Y-126837376D02*
X211121371Y-126799281D01*
X211121371Y-126799281D02*
X211073751Y-126837376D01*
X211073751Y-126837376D02*
X211121371Y-126875472D01*
X211121371Y-126875472D02*
X211168990Y-126837376D01*
X211168990Y-126837376D02*
X211073751Y-126837376D01*
X212073751Y-126532615D02*
X212073751Y-126037377D01*
X212073751Y-126037377D02*
X211692799Y-126304043D01*
X211692799Y-126304043D02*
X211692799Y-126189758D01*
X211692799Y-126189758D02*
X211645180Y-126113567D01*
X211645180Y-126113567D02*
X211597561Y-126075472D01*
X211597561Y-126075472D02*
X211502323Y-126037377D01*
X211502323Y-126037377D02*
X211264228Y-126037377D01*
X211264228Y-126037377D02*
X211168990Y-126075472D01*
X211168990Y-126075472D02*
X211121371Y-126113567D01*
X211121371Y-126113567D02*
X211073751Y-126189758D01*
X211073751Y-126189758D02*
X211073751Y-126418329D01*
X211073751Y-126418329D02*
X211121371Y-126494520D01*
X211121371Y-126494520D02*
X211168990Y-126532615D01*
X211168990Y-125694519D02*
X211121371Y-125656424D01*
X211121371Y-125656424D02*
X211073751Y-125694519D01*
X211073751Y-125694519D02*
X211121371Y-125732615D01*
X211121371Y-125732615D02*
X211168990Y-125694519D01*
X211168990Y-125694519D02*
X211073751Y-125694519D01*
X211692799Y-125694519D02*
X211645180Y-125656424D01*
X211645180Y-125656424D02*
X211597561Y-125694519D01*
X211597561Y-125694519D02*
X211645180Y-125732615D01*
X211645180Y-125732615D02*
X211692799Y-125694519D01*
X211692799Y-125694519D02*
X211597561Y-125694519D01*
X211073751Y-124284996D02*
X211073751Y-124742139D01*
X211073751Y-124513567D02*
X212073751Y-124513567D01*
X212073751Y-124513567D02*
X211930894Y-124589758D01*
X211930894Y-124589758D02*
X211835656Y-124665948D01*
X211835656Y-124665948D02*
X211788037Y-124742139D01*
X211597561Y-123675472D02*
X211549942Y-123561186D01*
X211549942Y-123561186D02*
X211502323Y-123523091D01*
X211502323Y-123523091D02*
X211407085Y-123484995D01*
X211407085Y-123484995D02*
X211264228Y-123484995D01*
X211264228Y-123484995D02*
X211168990Y-123523091D01*
X211168990Y-123523091D02*
X211121371Y-123561186D01*
X211121371Y-123561186D02*
X211073751Y-123637376D01*
X211073751Y-123637376D02*
X211073751Y-123942138D01*
X211073751Y-123942138D02*
X212073751Y-123942138D01*
X212073751Y-123942138D02*
X212073751Y-123675472D01*
X212073751Y-123675472D02*
X212026132Y-123599281D01*
X212026132Y-123599281D02*
X211978513Y-123561186D01*
X211978513Y-123561186D02*
X211883275Y-123523091D01*
X211883275Y-123523091D02*
X211788037Y-123523091D01*
X211788037Y-123523091D02*
X211692799Y-123561186D01*
X211692799Y-123561186D02*
X211645180Y-123599281D01*
X211645180Y-123599281D02*
X211597561Y-123675472D01*
X211597561Y-123675472D02*
X211597561Y-123942138D01*
X209463807Y-133808805D02*
X210463807Y-133808805D01*
X210463807Y-133808805D02*
X209749522Y-133542139D01*
X209749522Y-133542139D02*
X210463807Y-133275472D01*
X210463807Y-133275472D02*
X209463807Y-133275472D01*
X209463807Y-132894519D02*
X210463807Y-132894519D01*
X210463807Y-132894519D02*
X210463807Y-132704043D01*
X210463807Y-132704043D02*
X210416188Y-132589757D01*
X210416188Y-132589757D02*
X210320950Y-132513567D01*
X210320950Y-132513567D02*
X210225712Y-132475472D01*
X210225712Y-132475472D02*
X210035236Y-132437376D01*
X210035236Y-132437376D02*
X209892379Y-132437376D01*
X209892379Y-132437376D02*
X209701903Y-132475472D01*
X209701903Y-132475472D02*
X209606665Y-132513567D01*
X209606665Y-132513567D02*
X209511427Y-132589757D01*
X209511427Y-132589757D02*
X209463807Y-132704043D01*
X209463807Y-132704043D02*
X209463807Y-132894519D01*
X210368569Y-132132615D02*
X210416188Y-132094519D01*
X210416188Y-132094519D02*
X210463807Y-132018329D01*
X210463807Y-132018329D02*
X210463807Y-131827853D01*
X210463807Y-131827853D02*
X210416188Y-131751662D01*
X210416188Y-131751662D02*
X210368569Y-131713567D01*
X210368569Y-131713567D02*
X210273331Y-131675472D01*
X210273331Y-131675472D02*
X210178093Y-131675472D01*
X210178093Y-131675472D02*
X210035236Y-131713567D01*
X210035236Y-131713567D02*
X209463807Y-132170710D01*
X209463807Y-132170710D02*
X209463807Y-131675472D01*
X210463807Y-130837376D02*
X209463807Y-130570709D01*
X209463807Y-130570709D02*
X210463807Y-130304043D01*
X209749522Y-130075472D02*
X209749522Y-129694519D01*
X209463807Y-130151662D02*
X210463807Y-129884995D01*
X210463807Y-129884995D02*
X209463807Y-129618329D01*
X210130474Y-129008805D02*
X209463807Y-129008805D01*
X210511427Y-129199281D02*
X209797141Y-129389758D01*
X209797141Y-129389758D02*
X209797141Y-128894519D01*
X209559046Y-128589757D02*
X209511427Y-128551662D01*
X209511427Y-128551662D02*
X209463807Y-128589757D01*
X209463807Y-128589757D02*
X209511427Y-128627853D01*
X209511427Y-128627853D02*
X209559046Y-128589757D01*
X209559046Y-128589757D02*
X209463807Y-128589757D01*
X210082855Y-128589757D02*
X210035236Y-128551662D01*
X210035236Y-128551662D02*
X209987617Y-128589757D01*
X209987617Y-128589757D02*
X210035236Y-128627853D01*
X210035236Y-128627853D02*
X210082855Y-128589757D01*
X210082855Y-128589757D02*
X209987617Y-128589757D01*
X210368569Y-127637377D02*
X210416188Y-127599281D01*
X210416188Y-127599281D02*
X210463807Y-127523091D01*
X210463807Y-127523091D02*
X210463807Y-127332615D01*
X210463807Y-127332615D02*
X210416188Y-127256424D01*
X210416188Y-127256424D02*
X210368569Y-127218329D01*
X210368569Y-127218329D02*
X210273331Y-127180234D01*
X210273331Y-127180234D02*
X210178093Y-127180234D01*
X210178093Y-127180234D02*
X210035236Y-127218329D01*
X210035236Y-127218329D02*
X209463807Y-127675472D01*
X209463807Y-127675472D02*
X209463807Y-127180234D01*
X209749522Y-126875472D02*
X209749522Y-126494519D01*
X209463807Y-126951662D02*
X210463807Y-126684995D01*
X210463807Y-126684995D02*
X209463807Y-126418329D01*
X207853863Y-133808805D02*
X208853863Y-133808805D01*
X208853863Y-133808805D02*
X208139578Y-133542139D01*
X208139578Y-133542139D02*
X208853863Y-133275472D01*
X208853863Y-133275472D02*
X207853863Y-133275472D01*
X207853863Y-132894519D02*
X208853863Y-132894519D01*
X208853863Y-132894519D02*
X208853863Y-132704043D01*
X208853863Y-132704043D02*
X208806244Y-132589757D01*
X208806244Y-132589757D02*
X208711006Y-132513567D01*
X208711006Y-132513567D02*
X208615768Y-132475472D01*
X208615768Y-132475472D02*
X208425292Y-132437376D01*
X208425292Y-132437376D02*
X208282435Y-132437376D01*
X208282435Y-132437376D02*
X208091959Y-132475472D01*
X208091959Y-132475472D02*
X207996721Y-132513567D01*
X207996721Y-132513567D02*
X207901483Y-132589757D01*
X207901483Y-132589757D02*
X207853863Y-132704043D01*
X207853863Y-132704043D02*
X207853863Y-132894519D01*
X208853863Y-132170710D02*
X208853863Y-131675472D01*
X208853863Y-131675472D02*
X208472911Y-131942138D01*
X208472911Y-131942138D02*
X208472911Y-131827853D01*
X208472911Y-131827853D02*
X208425292Y-131751662D01*
X208425292Y-131751662D02*
X208377673Y-131713567D01*
X208377673Y-131713567D02*
X208282435Y-131675472D01*
X208282435Y-131675472D02*
X208044340Y-131675472D01*
X208044340Y-131675472D02*
X207949102Y-131713567D01*
X207949102Y-131713567D02*
X207901483Y-131751662D01*
X207901483Y-131751662D02*
X207853863Y-131827853D01*
X207853863Y-131827853D02*
X207853863Y-132056424D01*
X207853863Y-132056424D02*
X207901483Y-132132615D01*
X207901483Y-132132615D02*
X207949102Y-132170710D01*
X207949102Y-131332614D02*
X207901483Y-131294519D01*
X207901483Y-131294519D02*
X207853863Y-131332614D01*
X207853863Y-131332614D02*
X207901483Y-131370710D01*
X207901483Y-131370710D02*
X207949102Y-131332614D01*
X207949102Y-131332614D02*
X207853863Y-131332614D01*
X208472911Y-131332614D02*
X208425292Y-131294519D01*
X208425292Y-131294519D02*
X208377673Y-131332614D01*
X208377673Y-131332614D02*
X208425292Y-131370710D01*
X208425292Y-131370710D02*
X208472911Y-131332614D01*
X208472911Y-131332614D02*
X208377673Y-131332614D01*
X208758625Y-130380234D02*
X208806244Y-130342138D01*
X208806244Y-130342138D02*
X208853863Y-130265948D01*
X208853863Y-130265948D02*
X208853863Y-130075472D01*
X208853863Y-130075472D02*
X208806244Y-129999281D01*
X208806244Y-129999281D02*
X208758625Y-129961186D01*
X208758625Y-129961186D02*
X208663387Y-129923091D01*
X208663387Y-129923091D02*
X208568149Y-129923091D01*
X208568149Y-129923091D02*
X208425292Y-129961186D01*
X208425292Y-129961186D02*
X207853863Y-130418329D01*
X207853863Y-130418329D02*
X207853863Y-129923091D01*
X208139578Y-129618329D02*
X208139578Y-129237376D01*
X207853863Y-129694519D02*
X208853863Y-129427852D01*
X208853863Y-129427852D02*
X207853863Y-129161186D01*
X207853863Y-128894519D02*
X208853863Y-128894519D01*
X208853863Y-128894519D02*
X208853863Y-128704043D01*
X208853863Y-128704043D02*
X208806244Y-128589757D01*
X208806244Y-128589757D02*
X208711006Y-128513567D01*
X208711006Y-128513567D02*
X208615768Y-128475472D01*
X208615768Y-128475472D02*
X208425292Y-128437376D01*
X208425292Y-128437376D02*
X208282435Y-128437376D01*
X208282435Y-128437376D02*
X208091959Y-128475472D01*
X208091959Y-128475472D02*
X207996721Y-128513567D01*
X207996721Y-128513567D02*
X207901483Y-128589757D01*
X207901483Y-128589757D02*
X207853863Y-128704043D01*
X207853863Y-128704043D02*
X207853863Y-128894519D01*
X204633975Y-133351662D02*
X205110166Y-133618329D01*
X204633975Y-133808805D02*
X205633975Y-133808805D01*
X205633975Y-133808805D02*
X205633975Y-133504043D01*
X205633975Y-133504043D02*
X205586356Y-133427853D01*
X205586356Y-133427853D02*
X205538737Y-133389758D01*
X205538737Y-133389758D02*
X205443499Y-133351662D01*
X205443499Y-133351662D02*
X205300642Y-133351662D01*
X205300642Y-133351662D02*
X205205404Y-133389758D01*
X205205404Y-133389758D02*
X205157785Y-133427853D01*
X205157785Y-133427853D02*
X205110166Y-133504043D01*
X205110166Y-133504043D02*
X205110166Y-133808805D01*
X205157785Y-133008805D02*
X205157785Y-132742139D01*
X204633975Y-132627853D02*
X204633975Y-133008805D01*
X204633975Y-133008805D02*
X205633975Y-133008805D01*
X205633975Y-133008805D02*
X205633975Y-132627853D01*
X205586356Y-131865948D02*
X205633975Y-131942138D01*
X205633975Y-131942138D02*
X205633975Y-132056424D01*
X205633975Y-132056424D02*
X205586356Y-132170710D01*
X205586356Y-132170710D02*
X205491118Y-132246900D01*
X205491118Y-132246900D02*
X205395880Y-132284995D01*
X205395880Y-132284995D02*
X205205404Y-132323091D01*
X205205404Y-132323091D02*
X205062547Y-132323091D01*
X205062547Y-132323091D02*
X204872071Y-132284995D01*
X204872071Y-132284995D02*
X204776833Y-132246900D01*
X204776833Y-132246900D02*
X204681595Y-132170710D01*
X204681595Y-132170710D02*
X204633975Y-132056424D01*
X204633975Y-132056424D02*
X204633975Y-131980233D01*
X204633975Y-131980233D02*
X204681595Y-131865948D01*
X204681595Y-131865948D02*
X204729214Y-131827852D01*
X204729214Y-131827852D02*
X205062547Y-131827852D01*
X205062547Y-131827852D02*
X205062547Y-131980233D01*
X204633975Y-131484995D02*
X205633975Y-131484995D01*
X205633975Y-130951662D02*
X205633975Y-130799281D01*
X205633975Y-130799281D02*
X205586356Y-130723091D01*
X205586356Y-130723091D02*
X205491118Y-130646900D01*
X205491118Y-130646900D02*
X205300642Y-130608805D01*
X205300642Y-130608805D02*
X204967309Y-130608805D01*
X204967309Y-130608805D02*
X204776833Y-130646900D01*
X204776833Y-130646900D02*
X204681595Y-130723091D01*
X204681595Y-130723091D02*
X204633975Y-130799281D01*
X204633975Y-130799281D02*
X204633975Y-130951662D01*
X204633975Y-130951662D02*
X204681595Y-131027853D01*
X204681595Y-131027853D02*
X204776833Y-131104043D01*
X204776833Y-131104043D02*
X204967309Y-131142139D01*
X204967309Y-131142139D02*
X205300642Y-131142139D01*
X205300642Y-131142139D02*
X205491118Y-131104043D01*
X205491118Y-131104043D02*
X205586356Y-131027853D01*
X205586356Y-131027853D02*
X205633975Y-130951662D01*
X204633975Y-130265948D02*
X205633975Y-130265948D01*
X205633975Y-130265948D02*
X204633975Y-129808805D01*
X204633975Y-129808805D02*
X205633975Y-129808805D01*
X204681595Y-128856425D02*
X204633975Y-128742139D01*
X204633975Y-128742139D02*
X204633975Y-128551663D01*
X204633975Y-128551663D02*
X204681595Y-128475472D01*
X204681595Y-128475472D02*
X204729214Y-128437377D01*
X204729214Y-128437377D02*
X204824452Y-128399282D01*
X204824452Y-128399282D02*
X204919690Y-128399282D01*
X204919690Y-128399282D02*
X205014928Y-128437377D01*
X205014928Y-128437377D02*
X205062547Y-128475472D01*
X205062547Y-128475472D02*
X205110166Y-128551663D01*
X205110166Y-128551663D02*
X205157785Y-128704044D01*
X205157785Y-128704044D02*
X205205404Y-128780234D01*
X205205404Y-128780234D02*
X205253023Y-128818329D01*
X205253023Y-128818329D02*
X205348261Y-128856425D01*
X205348261Y-128856425D02*
X205443499Y-128856425D01*
X205443499Y-128856425D02*
X205538737Y-128818329D01*
X205538737Y-128818329D02*
X205586356Y-128780234D01*
X205586356Y-128780234D02*
X205633975Y-128704044D01*
X205633975Y-128704044D02*
X205633975Y-128513567D01*
X205633975Y-128513567D02*
X205586356Y-128399282D01*
X205157785Y-128056424D02*
X205157785Y-127789758D01*
X204633975Y-127675472D02*
X204633975Y-128056424D01*
X204633975Y-128056424D02*
X205633975Y-128056424D01*
X205633975Y-128056424D02*
X205633975Y-127675472D01*
X204633975Y-126951662D02*
X204633975Y-127332614D01*
X204633975Y-127332614D02*
X205633975Y-127332614D01*
X205157785Y-126684995D02*
X205157785Y-126418329D01*
X204633975Y-126304043D02*
X204633975Y-126684995D01*
X204633975Y-126684995D02*
X205633975Y-126684995D01*
X205633975Y-126684995D02*
X205633975Y-126304043D01*
X204729214Y-125504042D02*
X204681595Y-125542138D01*
X204681595Y-125542138D02*
X204633975Y-125656423D01*
X204633975Y-125656423D02*
X204633975Y-125732614D01*
X204633975Y-125732614D02*
X204681595Y-125846900D01*
X204681595Y-125846900D02*
X204776833Y-125923090D01*
X204776833Y-125923090D02*
X204872071Y-125961185D01*
X204872071Y-125961185D02*
X205062547Y-125999281D01*
X205062547Y-125999281D02*
X205205404Y-125999281D01*
X205205404Y-125999281D02*
X205395880Y-125961185D01*
X205395880Y-125961185D02*
X205491118Y-125923090D01*
X205491118Y-125923090D02*
X205586356Y-125846900D01*
X205586356Y-125846900D02*
X205633975Y-125732614D01*
X205633975Y-125732614D02*
X205633975Y-125656423D01*
X205633975Y-125656423D02*
X205586356Y-125542138D01*
X205586356Y-125542138D02*
X205538737Y-125504042D01*
X205633975Y-125275471D02*
X205633975Y-124818328D01*
X204633975Y-125046900D02*
X205633975Y-125046900D01*
X204729214Y-124551661D02*
X204681595Y-124513566D01*
X204681595Y-124513566D02*
X204633975Y-124551661D01*
X204633975Y-124551661D02*
X204681595Y-124589757D01*
X204681595Y-124589757D02*
X204729214Y-124551661D01*
X204729214Y-124551661D02*
X204633975Y-124551661D01*
X205253023Y-124551661D02*
X205205404Y-124513566D01*
X205205404Y-124513566D02*
X205157785Y-124551661D01*
X205157785Y-124551661D02*
X205205404Y-124589757D01*
X205205404Y-124589757D02*
X205253023Y-124551661D01*
X205253023Y-124551661D02*
X205157785Y-124551661D01*
X203547841Y-133542139D02*
X203500222Y-133427853D01*
X203500222Y-133427853D02*
X203452603Y-133389758D01*
X203452603Y-133389758D02*
X203357365Y-133351662D01*
X203357365Y-133351662D02*
X203214508Y-133351662D01*
X203214508Y-133351662D02*
X203119270Y-133389758D01*
X203119270Y-133389758D02*
X203071651Y-133427853D01*
X203071651Y-133427853D02*
X203024031Y-133504043D01*
X203024031Y-133504043D02*
X203024031Y-133808805D01*
X203024031Y-133808805D02*
X204024031Y-133808805D01*
X204024031Y-133808805D02*
X204024031Y-133542139D01*
X204024031Y-133542139D02*
X203976412Y-133465948D01*
X203976412Y-133465948D02*
X203928793Y-133427853D01*
X203928793Y-133427853D02*
X203833555Y-133389758D01*
X203833555Y-133389758D02*
X203738317Y-133389758D01*
X203738317Y-133389758D02*
X203643079Y-133427853D01*
X203643079Y-133427853D02*
X203595460Y-133465948D01*
X203595460Y-133465948D02*
X203547841Y-133542139D01*
X203547841Y-133542139D02*
X203547841Y-133808805D01*
X203024031Y-133008805D02*
X203690698Y-133008805D01*
X203500222Y-133008805D02*
X203595460Y-132970710D01*
X203595460Y-132970710D02*
X203643079Y-132932615D01*
X203643079Y-132932615D02*
X203690698Y-132856424D01*
X203690698Y-132856424D02*
X203690698Y-132780234D01*
X203024031Y-132513567D02*
X203690698Y-132513567D01*
X204024031Y-132513567D02*
X203976412Y-132551663D01*
X203976412Y-132551663D02*
X203928793Y-132513567D01*
X203928793Y-132513567D02*
X203976412Y-132475472D01*
X203976412Y-132475472D02*
X204024031Y-132513567D01*
X204024031Y-132513567D02*
X203928793Y-132513567D01*
X203024031Y-131789758D02*
X204024031Y-131789758D01*
X203071651Y-131789758D02*
X203024031Y-131865949D01*
X203024031Y-131865949D02*
X203024031Y-132018330D01*
X203024031Y-132018330D02*
X203071651Y-132094520D01*
X203071651Y-132094520D02*
X203119270Y-132132615D01*
X203119270Y-132132615D02*
X203214508Y-132170711D01*
X203214508Y-132170711D02*
X203500222Y-132170711D01*
X203500222Y-132170711D02*
X203595460Y-132132615D01*
X203595460Y-132132615D02*
X203643079Y-132094520D01*
X203643079Y-132094520D02*
X203690698Y-132018330D01*
X203690698Y-132018330D02*
X203690698Y-131865949D01*
X203690698Y-131865949D02*
X203643079Y-131789758D01*
X203690698Y-131065948D02*
X202881174Y-131065948D01*
X202881174Y-131065948D02*
X202785936Y-131104043D01*
X202785936Y-131104043D02*
X202738317Y-131142139D01*
X202738317Y-131142139D02*
X202690698Y-131218329D01*
X202690698Y-131218329D02*
X202690698Y-131332615D01*
X202690698Y-131332615D02*
X202738317Y-131408805D01*
X203071651Y-131065948D02*
X203024031Y-131142139D01*
X203024031Y-131142139D02*
X203024031Y-131294520D01*
X203024031Y-131294520D02*
X203071651Y-131370710D01*
X203071651Y-131370710D02*
X203119270Y-131408805D01*
X203119270Y-131408805D02*
X203214508Y-131446901D01*
X203214508Y-131446901D02*
X203500222Y-131446901D01*
X203500222Y-131446901D02*
X203595460Y-131408805D01*
X203595460Y-131408805D02*
X203643079Y-131370710D01*
X203643079Y-131370710D02*
X203690698Y-131294520D01*
X203690698Y-131294520D02*
X203690698Y-131142139D01*
X203690698Y-131142139D02*
X203643079Y-131065948D01*
X203071651Y-130380233D02*
X203024031Y-130456424D01*
X203024031Y-130456424D02*
X203024031Y-130608805D01*
X203024031Y-130608805D02*
X203071651Y-130684995D01*
X203071651Y-130684995D02*
X203166889Y-130723091D01*
X203166889Y-130723091D02*
X203547841Y-130723091D01*
X203547841Y-130723091D02*
X203643079Y-130684995D01*
X203643079Y-130684995D02*
X203690698Y-130608805D01*
X203690698Y-130608805D02*
X203690698Y-130456424D01*
X203690698Y-130456424D02*
X203643079Y-130380233D01*
X203643079Y-130380233D02*
X203547841Y-130342138D01*
X203547841Y-130342138D02*
X203452603Y-130342138D01*
X203452603Y-130342138D02*
X203357365Y-130723091D01*
X203024031Y-129389757D02*
X204024031Y-129389757D01*
X204024031Y-129389757D02*
X204024031Y-129084995D01*
X204024031Y-129084995D02*
X203976412Y-129008805D01*
X203976412Y-129008805D02*
X203928793Y-128970710D01*
X203928793Y-128970710D02*
X203833555Y-128932614D01*
X203833555Y-128932614D02*
X203690698Y-128932614D01*
X203690698Y-128932614D02*
X203595460Y-128970710D01*
X203595460Y-128970710D02*
X203547841Y-129008805D01*
X203547841Y-129008805D02*
X203500222Y-129084995D01*
X203500222Y-129084995D02*
X203500222Y-129389757D01*
X203309746Y-128627853D02*
X203309746Y-128246900D01*
X203024031Y-128704043D02*
X204024031Y-128437376D01*
X204024031Y-128437376D02*
X203024031Y-128170710D01*
X203024031Y-127523091D02*
X203024031Y-127904043D01*
X203024031Y-127904043D02*
X204024031Y-127904043D01*
X204024031Y-126494519D02*
X204024031Y-126342138D01*
X204024031Y-126342138D02*
X203976412Y-126265948D01*
X203976412Y-126265948D02*
X203881174Y-126189757D01*
X203881174Y-126189757D02*
X203690698Y-126151662D01*
X203690698Y-126151662D02*
X203357365Y-126151662D01*
X203357365Y-126151662D02*
X203166889Y-126189757D01*
X203166889Y-126189757D02*
X203071651Y-126265948D01*
X203071651Y-126265948D02*
X203024031Y-126342138D01*
X203024031Y-126342138D02*
X203024031Y-126494519D01*
X203024031Y-126494519D02*
X203071651Y-126570710D01*
X203071651Y-126570710D02*
X203166889Y-126646900D01*
X203166889Y-126646900D02*
X203357365Y-126684996D01*
X203357365Y-126684996D02*
X203690698Y-126684996D01*
X203690698Y-126684996D02*
X203881174Y-126646900D01*
X203881174Y-126646900D02*
X203976412Y-126570710D01*
X203976412Y-126570710D02*
X204024031Y-126494519D01*
X203024031Y-125808805D02*
X203690698Y-125808805D01*
X203500222Y-125808805D02*
X203595460Y-125770710D01*
X203595460Y-125770710D02*
X203643079Y-125732615D01*
X203643079Y-125732615D02*
X203690698Y-125656424D01*
X203690698Y-125656424D02*
X203690698Y-125580234D01*
X203024031Y-124704043D02*
X204024031Y-124704043D01*
X204024031Y-124704043D02*
X203024031Y-124246900D01*
X203024031Y-124246900D02*
X204024031Y-124246900D01*
X204024031Y-123980234D02*
X204024031Y-123523091D01*
X203024031Y-123751663D02*
X204024031Y-123751663D01*
X203071651Y-123294520D02*
X203024031Y-123180234D01*
X203024031Y-123180234D02*
X203024031Y-122989758D01*
X203024031Y-122989758D02*
X203071651Y-122913567D01*
X203071651Y-122913567D02*
X203119270Y-122875472D01*
X203119270Y-122875472D02*
X203214508Y-122837377D01*
X203214508Y-122837377D02*
X203309746Y-122837377D01*
X203309746Y-122837377D02*
X203404984Y-122875472D01*
X203404984Y-122875472D02*
X203452603Y-122913567D01*
X203452603Y-122913567D02*
X203500222Y-122989758D01*
X203500222Y-122989758D02*
X203547841Y-123142139D01*
X203547841Y-123142139D02*
X203595460Y-123218329D01*
X203595460Y-123218329D02*
X203643079Y-123256424D01*
X203643079Y-123256424D02*
X203738317Y-123294520D01*
X203738317Y-123294520D02*
X203833555Y-123294520D01*
X203833555Y-123294520D02*
X203928793Y-123256424D01*
X203928793Y-123256424D02*
X203976412Y-123218329D01*
X203976412Y-123218329D02*
X204024031Y-123142139D01*
X204024031Y-123142139D02*
X204024031Y-122951662D01*
X204024031Y-122951662D02*
X203976412Y-122837377D01*
X203119270Y-122037376D02*
X203071651Y-122075472D01*
X203071651Y-122075472D02*
X203024031Y-122189757D01*
X203024031Y-122189757D02*
X203024031Y-122265948D01*
X203024031Y-122265948D02*
X203071651Y-122380234D01*
X203071651Y-122380234D02*
X203166889Y-122456424D01*
X203166889Y-122456424D02*
X203262127Y-122494519D01*
X203262127Y-122494519D02*
X203452603Y-122532615D01*
X203452603Y-122532615D02*
X203595460Y-122532615D01*
X203595460Y-122532615D02*
X203785936Y-122494519D01*
X203785936Y-122494519D02*
X203881174Y-122456424D01*
X203881174Y-122456424D02*
X203976412Y-122380234D01*
X203976412Y-122380234D02*
X204024031Y-122265948D01*
X204024031Y-122265948D02*
X204024031Y-122189757D01*
X204024031Y-122189757D02*
X203976412Y-122075472D01*
X203976412Y-122075472D02*
X203928793Y-122037376D01*
X204024031Y-120856424D02*
X203309746Y-120856424D01*
X203309746Y-120856424D02*
X203166889Y-120894519D01*
X203166889Y-120894519D02*
X203071651Y-120970710D01*
X203071651Y-120970710D02*
X203024031Y-121084995D01*
X203024031Y-121084995D02*
X203024031Y-121161186D01*
X203690698Y-120132614D02*
X203024031Y-120132614D01*
X203690698Y-120475471D02*
X203166889Y-120475471D01*
X203166889Y-120475471D02*
X203071651Y-120437376D01*
X203071651Y-120437376D02*
X203024031Y-120361186D01*
X203024031Y-120361186D02*
X203024031Y-120246900D01*
X203024031Y-120246900D02*
X203071651Y-120170709D01*
X203071651Y-120170709D02*
X203119270Y-120132614D01*
X203024031Y-119751661D02*
X203690698Y-119751661D01*
X203595460Y-119751661D02*
X203643079Y-119713566D01*
X203643079Y-119713566D02*
X203690698Y-119637376D01*
X203690698Y-119637376D02*
X203690698Y-119523090D01*
X203690698Y-119523090D02*
X203643079Y-119446899D01*
X203643079Y-119446899D02*
X203547841Y-119408804D01*
X203547841Y-119408804D02*
X203024031Y-119408804D01*
X203547841Y-119408804D02*
X203643079Y-119370709D01*
X203643079Y-119370709D02*
X203690698Y-119294518D01*
X203690698Y-119294518D02*
X203690698Y-119180233D01*
X203690698Y-119180233D02*
X203643079Y-119104042D01*
X203643079Y-119104042D02*
X203547841Y-119065947D01*
X203547841Y-119065947D02*
X203024031Y-119065947D01*
X203690698Y-118684994D02*
X202690698Y-118684994D01*
X203643079Y-118684994D02*
X203690698Y-118608804D01*
X203690698Y-118608804D02*
X203690698Y-118456423D01*
X203690698Y-118456423D02*
X203643079Y-118380232D01*
X203643079Y-118380232D02*
X203595460Y-118342137D01*
X203595460Y-118342137D02*
X203500222Y-118304042D01*
X203500222Y-118304042D02*
X203214508Y-118304042D01*
X203214508Y-118304042D02*
X203119270Y-118342137D01*
X203119270Y-118342137D02*
X203071651Y-118380232D01*
X203071651Y-118380232D02*
X203024031Y-118456423D01*
X203024031Y-118456423D02*
X203024031Y-118608804D01*
X203024031Y-118608804D02*
X203071651Y-118684994D01*
X203071651Y-117656422D02*
X203024031Y-117732613D01*
X203024031Y-117732613D02*
X203024031Y-117884994D01*
X203024031Y-117884994D02*
X203071651Y-117961184D01*
X203071651Y-117961184D02*
X203166889Y-117999280D01*
X203166889Y-117999280D02*
X203547841Y-117999280D01*
X203547841Y-117999280D02*
X203643079Y-117961184D01*
X203643079Y-117961184D02*
X203690698Y-117884994D01*
X203690698Y-117884994D02*
X203690698Y-117732613D01*
X203690698Y-117732613D02*
X203643079Y-117656422D01*
X203643079Y-117656422D02*
X203547841Y-117618327D01*
X203547841Y-117618327D02*
X203452603Y-117618327D01*
X203452603Y-117618327D02*
X203357365Y-117999280D01*
X203024031Y-117275470D02*
X203690698Y-117275470D01*
X203500222Y-117275470D02*
X203595460Y-117237375D01*
X203595460Y-117237375D02*
X203643079Y-117199280D01*
X203643079Y-117199280D02*
X203690698Y-117123089D01*
X203690698Y-117123089D02*
X203690698Y-117046899D01*
X201937897Y-133542139D02*
X201890278Y-133427853D01*
X201890278Y-133427853D02*
X201842659Y-133389758D01*
X201842659Y-133389758D02*
X201747421Y-133351662D01*
X201747421Y-133351662D02*
X201604564Y-133351662D01*
X201604564Y-133351662D02*
X201509326Y-133389758D01*
X201509326Y-133389758D02*
X201461707Y-133427853D01*
X201461707Y-133427853D02*
X201414087Y-133504043D01*
X201414087Y-133504043D02*
X201414087Y-133808805D01*
X201414087Y-133808805D02*
X202414087Y-133808805D01*
X202414087Y-133808805D02*
X202414087Y-133542139D01*
X202414087Y-133542139D02*
X202366468Y-133465948D01*
X202366468Y-133465948D02*
X202318849Y-133427853D01*
X202318849Y-133427853D02*
X202223611Y-133389758D01*
X202223611Y-133389758D02*
X202128373Y-133389758D01*
X202128373Y-133389758D02*
X202033135Y-133427853D01*
X202033135Y-133427853D02*
X201985516Y-133465948D01*
X201985516Y-133465948D02*
X201937897Y-133542139D01*
X201937897Y-133542139D02*
X201937897Y-133808805D01*
X201414087Y-133008805D02*
X202080754Y-133008805D01*
X201890278Y-133008805D02*
X201985516Y-132970710D01*
X201985516Y-132970710D02*
X202033135Y-132932615D01*
X202033135Y-132932615D02*
X202080754Y-132856424D01*
X202080754Y-132856424D02*
X202080754Y-132780234D01*
X201414087Y-132513567D02*
X202080754Y-132513567D01*
X202414087Y-132513567D02*
X202366468Y-132551663D01*
X202366468Y-132551663D02*
X202318849Y-132513567D01*
X202318849Y-132513567D02*
X202366468Y-132475472D01*
X202366468Y-132475472D02*
X202414087Y-132513567D01*
X202414087Y-132513567D02*
X202318849Y-132513567D01*
X201414087Y-131789758D02*
X202414087Y-131789758D01*
X201461707Y-131789758D02*
X201414087Y-131865949D01*
X201414087Y-131865949D02*
X201414087Y-132018330D01*
X201414087Y-132018330D02*
X201461707Y-132094520D01*
X201461707Y-132094520D02*
X201509326Y-132132615D01*
X201509326Y-132132615D02*
X201604564Y-132170711D01*
X201604564Y-132170711D02*
X201890278Y-132170711D01*
X201890278Y-132170711D02*
X201985516Y-132132615D01*
X201985516Y-132132615D02*
X202033135Y-132094520D01*
X202033135Y-132094520D02*
X202080754Y-132018330D01*
X202080754Y-132018330D02*
X202080754Y-131865949D01*
X202080754Y-131865949D02*
X202033135Y-131789758D01*
X202080754Y-131065948D02*
X201271230Y-131065948D01*
X201271230Y-131065948D02*
X201175992Y-131104043D01*
X201175992Y-131104043D02*
X201128373Y-131142139D01*
X201128373Y-131142139D02*
X201080754Y-131218329D01*
X201080754Y-131218329D02*
X201080754Y-131332615D01*
X201080754Y-131332615D02*
X201128373Y-131408805D01*
X201461707Y-131065948D02*
X201414087Y-131142139D01*
X201414087Y-131142139D02*
X201414087Y-131294520D01*
X201414087Y-131294520D02*
X201461707Y-131370710D01*
X201461707Y-131370710D02*
X201509326Y-131408805D01*
X201509326Y-131408805D02*
X201604564Y-131446901D01*
X201604564Y-131446901D02*
X201890278Y-131446901D01*
X201890278Y-131446901D02*
X201985516Y-131408805D01*
X201985516Y-131408805D02*
X202033135Y-131370710D01*
X202033135Y-131370710D02*
X202080754Y-131294520D01*
X202080754Y-131294520D02*
X202080754Y-131142139D01*
X202080754Y-131142139D02*
X202033135Y-131065948D01*
X201461707Y-130380233D02*
X201414087Y-130456424D01*
X201414087Y-130456424D02*
X201414087Y-130608805D01*
X201414087Y-130608805D02*
X201461707Y-130684995D01*
X201461707Y-130684995D02*
X201556945Y-130723091D01*
X201556945Y-130723091D02*
X201937897Y-130723091D01*
X201937897Y-130723091D02*
X202033135Y-130684995D01*
X202033135Y-130684995D02*
X202080754Y-130608805D01*
X202080754Y-130608805D02*
X202080754Y-130456424D01*
X202080754Y-130456424D02*
X202033135Y-130380233D01*
X202033135Y-130380233D02*
X201937897Y-130342138D01*
X201937897Y-130342138D02*
X201842659Y-130342138D01*
X201842659Y-130342138D02*
X201747421Y-130723091D01*
X201461707Y-129427853D02*
X201414087Y-129313567D01*
X201414087Y-129313567D02*
X201414087Y-129123091D01*
X201414087Y-129123091D02*
X201461707Y-129046900D01*
X201461707Y-129046900D02*
X201509326Y-129008805D01*
X201509326Y-129008805D02*
X201604564Y-128970710D01*
X201604564Y-128970710D02*
X201699802Y-128970710D01*
X201699802Y-128970710D02*
X201795040Y-129008805D01*
X201795040Y-129008805D02*
X201842659Y-129046900D01*
X201842659Y-129046900D02*
X201890278Y-129123091D01*
X201890278Y-129123091D02*
X201937897Y-129275472D01*
X201937897Y-129275472D02*
X201985516Y-129351662D01*
X201985516Y-129351662D02*
X202033135Y-129389757D01*
X202033135Y-129389757D02*
X202128373Y-129427853D01*
X202128373Y-129427853D02*
X202223611Y-129427853D01*
X202223611Y-129427853D02*
X202318849Y-129389757D01*
X202318849Y-129389757D02*
X202366468Y-129351662D01*
X202366468Y-129351662D02*
X202414087Y-129275472D01*
X202414087Y-129275472D02*
X202414087Y-129084995D01*
X202414087Y-129084995D02*
X202366468Y-128970710D01*
X201699802Y-128665948D02*
X201699802Y-128284995D01*
X201414087Y-128742138D02*
X202414087Y-128475471D01*
X202414087Y-128475471D02*
X201414087Y-128208805D01*
X202080754Y-127446900D02*
X202080754Y-127142138D01*
X201414087Y-127332614D02*
X202271230Y-127332614D01*
X202271230Y-127332614D02*
X202366468Y-127294519D01*
X202366468Y-127294519D02*
X202414087Y-127218329D01*
X202414087Y-127218329D02*
X202414087Y-127142138D01*
X201414087Y-126761186D02*
X201461707Y-126837376D01*
X201461707Y-126837376D02*
X201509326Y-126875471D01*
X201509326Y-126875471D02*
X201604564Y-126913567D01*
X201604564Y-126913567D02*
X201890278Y-126913567D01*
X201890278Y-126913567D02*
X201985516Y-126875471D01*
X201985516Y-126875471D02*
X202033135Y-126837376D01*
X202033135Y-126837376D02*
X202080754Y-126761186D01*
X202080754Y-126761186D02*
X202080754Y-126646900D01*
X202080754Y-126646900D02*
X202033135Y-126570709D01*
X202033135Y-126570709D02*
X201985516Y-126532614D01*
X201985516Y-126532614D02*
X201890278Y-126494519D01*
X201890278Y-126494519D02*
X201604564Y-126494519D01*
X201604564Y-126494519D02*
X201509326Y-126532614D01*
X201509326Y-126532614D02*
X201461707Y-126570709D01*
X201461707Y-126570709D02*
X201414087Y-126646900D01*
X201414087Y-126646900D02*
X201414087Y-126761186D01*
X201414087Y-126151661D02*
X202080754Y-126151661D01*
X201890278Y-126151661D02*
X201985516Y-126113566D01*
X201985516Y-126113566D02*
X202033135Y-126075471D01*
X202033135Y-126075471D02*
X202080754Y-125999280D01*
X202080754Y-125999280D02*
X202080754Y-125923090D01*
X201414087Y-125046899D02*
X202414087Y-125046899D01*
X202414087Y-125046899D02*
X202414087Y-124742137D01*
X202414087Y-124742137D02*
X202366468Y-124665947D01*
X202366468Y-124665947D02*
X202318849Y-124627852D01*
X202318849Y-124627852D02*
X202223611Y-124589756D01*
X202223611Y-124589756D02*
X202080754Y-124589756D01*
X202080754Y-124589756D02*
X201985516Y-124627852D01*
X201985516Y-124627852D02*
X201937897Y-124665947D01*
X201937897Y-124665947D02*
X201890278Y-124742137D01*
X201890278Y-124742137D02*
X201890278Y-125046899D01*
X201699802Y-124284995D02*
X201699802Y-123904042D01*
X201414087Y-124361185D02*
X202414087Y-124094518D01*
X202414087Y-124094518D02*
X201414087Y-123827852D01*
X201414087Y-123180233D02*
X201414087Y-123561185D01*
X201414087Y-123561185D02*
X202414087Y-123561185D01*
X201318849Y-123104043D02*
X201318849Y-122494519D01*
X201414087Y-122304042D02*
X202414087Y-122304042D01*
X202414087Y-122304042D02*
X201699802Y-122037376D01*
X201699802Y-122037376D02*
X202414087Y-121770709D01*
X202414087Y-121770709D02*
X201414087Y-121770709D01*
X198194199Y-133808805D02*
X199194199Y-133808805D01*
X198860866Y-133542139D02*
X198860866Y-133237377D01*
X198194199Y-133427853D02*
X199051342Y-133427853D01*
X199051342Y-133427853D02*
X199146580Y-133389758D01*
X199146580Y-133389758D02*
X199194199Y-133313568D01*
X199194199Y-133313568D02*
X199194199Y-133237377D01*
X198860866Y-132437377D02*
X198194199Y-132246901D01*
X198860866Y-132056424D02*
X198194199Y-132246901D01*
X198194199Y-132246901D02*
X197956104Y-132323091D01*
X197956104Y-132323091D02*
X197908485Y-132361186D01*
X197908485Y-132361186D02*
X197860866Y-132437377D01*
X198194199Y-131637377D02*
X198241819Y-131713567D01*
X198241819Y-131713567D02*
X198289438Y-131751662D01*
X198289438Y-131751662D02*
X198384676Y-131789758D01*
X198384676Y-131789758D02*
X198670390Y-131789758D01*
X198670390Y-131789758D02*
X198765628Y-131751662D01*
X198765628Y-131751662D02*
X198813247Y-131713567D01*
X198813247Y-131713567D02*
X198860866Y-131637377D01*
X198860866Y-131637377D02*
X198860866Y-131523091D01*
X198860866Y-131523091D02*
X198813247Y-131446900D01*
X198813247Y-131446900D02*
X198765628Y-131408805D01*
X198765628Y-131408805D02*
X198670390Y-131370710D01*
X198670390Y-131370710D02*
X198384676Y-131370710D01*
X198384676Y-131370710D02*
X198289438Y-131408805D01*
X198289438Y-131408805D02*
X198241819Y-131446900D01*
X198241819Y-131446900D02*
X198194199Y-131523091D01*
X198194199Y-131523091D02*
X198194199Y-131637377D01*
X198860866Y-130684995D02*
X198194199Y-130684995D01*
X198860866Y-131027852D02*
X198337057Y-131027852D01*
X198337057Y-131027852D02*
X198241819Y-130989757D01*
X198241819Y-130989757D02*
X198194199Y-130913567D01*
X198194199Y-130913567D02*
X198194199Y-130799281D01*
X198194199Y-130799281D02*
X198241819Y-130723090D01*
X198241819Y-130723090D02*
X198289438Y-130684995D01*
X198194199Y-129313566D02*
X198194199Y-129694518D01*
X198194199Y-129694518D02*
X199194199Y-129694518D01*
X198194199Y-129046899D02*
X199194199Y-129046899D01*
X198718009Y-128399281D02*
X198718009Y-128665947D01*
X198194199Y-128665947D02*
X199194199Y-128665947D01*
X199194199Y-128665947D02*
X199194199Y-128284995D01*
X199194199Y-128094519D02*
X199194199Y-127637376D01*
X198194199Y-127865948D02*
X199194199Y-127865948D01*
X198718009Y-127370709D02*
X198718009Y-127104043D01*
X198194199Y-126989757D02*
X198194199Y-127370709D01*
X198194199Y-127370709D02*
X199194199Y-127370709D01*
X199194199Y-127370709D02*
X199194199Y-126989757D01*
X198194199Y-126646899D02*
X199194199Y-126646899D01*
X199194199Y-126646899D02*
X199194199Y-126456423D01*
X199194199Y-126456423D02*
X199146580Y-126342137D01*
X199146580Y-126342137D02*
X199051342Y-126265947D01*
X199051342Y-126265947D02*
X198956104Y-126227852D01*
X198956104Y-126227852D02*
X198765628Y-126189756D01*
X198765628Y-126189756D02*
X198622771Y-126189756D01*
X198622771Y-126189756D02*
X198432295Y-126227852D01*
X198432295Y-126227852D02*
X198337057Y-126265947D01*
X198337057Y-126265947D02*
X198241819Y-126342137D01*
X198241819Y-126342137D02*
X198194199Y-126456423D01*
X198194199Y-126456423D02*
X198194199Y-126646899D01*
X198194199Y-124780232D02*
X198670390Y-125046899D01*
X198194199Y-125237375D02*
X199194199Y-125237375D01*
X199194199Y-125237375D02*
X199194199Y-124932613D01*
X199194199Y-124932613D02*
X199146580Y-124856423D01*
X199146580Y-124856423D02*
X199098961Y-124818328D01*
X199098961Y-124818328D02*
X199003723Y-124780232D01*
X199003723Y-124780232D02*
X198860866Y-124780232D01*
X198860866Y-124780232D02*
X198765628Y-124818328D01*
X198765628Y-124818328D02*
X198718009Y-124856423D01*
X198718009Y-124856423D02*
X198670390Y-124932613D01*
X198670390Y-124932613D02*
X198670390Y-125237375D01*
X199146580Y-124018328D02*
X199194199Y-124094518D01*
X199194199Y-124094518D02*
X199194199Y-124208804D01*
X199194199Y-124208804D02*
X199146580Y-124323090D01*
X199146580Y-124323090D02*
X199051342Y-124399280D01*
X199051342Y-124399280D02*
X198956104Y-124437375D01*
X198956104Y-124437375D02*
X198765628Y-124475471D01*
X198765628Y-124475471D02*
X198622771Y-124475471D01*
X198622771Y-124475471D02*
X198432295Y-124437375D01*
X198432295Y-124437375D02*
X198337057Y-124399280D01*
X198337057Y-124399280D02*
X198241819Y-124323090D01*
X198241819Y-124323090D02*
X198194199Y-124208804D01*
X198194199Y-124208804D02*
X198194199Y-124132613D01*
X198194199Y-124132613D02*
X198241819Y-124018328D01*
X198241819Y-124018328D02*
X198289438Y-123980232D01*
X198289438Y-123980232D02*
X198622771Y-123980232D01*
X198622771Y-123980232D02*
X198622771Y-124132613D01*
X198718009Y-123370709D02*
X198670390Y-123256423D01*
X198670390Y-123256423D02*
X198622771Y-123218328D01*
X198622771Y-123218328D02*
X198527533Y-123180232D01*
X198527533Y-123180232D02*
X198384676Y-123180232D01*
X198384676Y-123180232D02*
X198289438Y-123218328D01*
X198289438Y-123218328D02*
X198241819Y-123256423D01*
X198241819Y-123256423D02*
X198194199Y-123332613D01*
X198194199Y-123332613D02*
X198194199Y-123637375D01*
X198194199Y-123637375D02*
X199194199Y-123637375D01*
X199194199Y-123637375D02*
X199194199Y-123370709D01*
X199194199Y-123370709D02*
X199146580Y-123294518D01*
X199146580Y-123294518D02*
X199098961Y-123256423D01*
X199098961Y-123256423D02*
X199003723Y-123218328D01*
X199003723Y-123218328D02*
X198908485Y-123218328D01*
X198908485Y-123218328D02*
X198813247Y-123256423D01*
X198813247Y-123256423D02*
X198765628Y-123294518D01*
X198765628Y-123294518D02*
X198718009Y-123370709D01*
X198718009Y-123370709D02*
X198718009Y-123637375D01*
X198194199Y-121846899D02*
X198194199Y-122227851D01*
X198194199Y-122227851D02*
X199194199Y-122227851D01*
X198241819Y-121275470D02*
X198194199Y-121351661D01*
X198194199Y-121351661D02*
X198194199Y-121504042D01*
X198194199Y-121504042D02*
X198241819Y-121580232D01*
X198241819Y-121580232D02*
X198337057Y-121618328D01*
X198337057Y-121618328D02*
X198718009Y-121618328D01*
X198718009Y-121618328D02*
X198813247Y-121580232D01*
X198813247Y-121580232D02*
X198860866Y-121504042D01*
X198860866Y-121504042D02*
X198860866Y-121351661D01*
X198860866Y-121351661D02*
X198813247Y-121275470D01*
X198813247Y-121275470D02*
X198718009Y-121237375D01*
X198718009Y-121237375D02*
X198622771Y-121237375D01*
X198622771Y-121237375D02*
X198527533Y-121618328D01*
X198860866Y-120551661D02*
X198051342Y-120551661D01*
X198051342Y-120551661D02*
X197956104Y-120589756D01*
X197956104Y-120589756D02*
X197908485Y-120627852D01*
X197908485Y-120627852D02*
X197860866Y-120704042D01*
X197860866Y-120704042D02*
X197860866Y-120818328D01*
X197860866Y-120818328D02*
X197908485Y-120894518D01*
X198241819Y-120551661D02*
X198194199Y-120627852D01*
X198194199Y-120627852D02*
X198194199Y-120780233D01*
X198194199Y-120780233D02*
X198241819Y-120856423D01*
X198241819Y-120856423D02*
X198289438Y-120894518D01*
X198289438Y-120894518D02*
X198384676Y-120932614D01*
X198384676Y-120932614D02*
X198670390Y-120932614D01*
X198670390Y-120932614D02*
X198765628Y-120894518D01*
X198765628Y-120894518D02*
X198813247Y-120856423D01*
X198813247Y-120856423D02*
X198860866Y-120780233D01*
X198860866Y-120780233D02*
X198860866Y-120627852D01*
X198860866Y-120627852D02*
X198813247Y-120551661D01*
X198241819Y-120208804D02*
X198194199Y-120132613D01*
X198194199Y-120132613D02*
X198194199Y-119980232D01*
X198194199Y-119980232D02*
X198241819Y-119904042D01*
X198241819Y-119904042D02*
X198337057Y-119865946D01*
X198337057Y-119865946D02*
X198384676Y-119865946D01*
X198384676Y-119865946D02*
X198479914Y-119904042D01*
X198479914Y-119904042D02*
X198527533Y-119980232D01*
X198527533Y-119980232D02*
X198527533Y-120094518D01*
X198527533Y-120094518D02*
X198575152Y-120170708D01*
X198575152Y-120170708D02*
X198670390Y-120208804D01*
X198670390Y-120208804D02*
X198718009Y-120208804D01*
X198718009Y-120208804D02*
X198813247Y-120170708D01*
X198813247Y-120170708D02*
X198860866Y-120094518D01*
X198860866Y-120094518D02*
X198860866Y-119980232D01*
X198860866Y-119980232D02*
X198813247Y-119904042D01*
X198289438Y-119523089D02*
X198241819Y-119484994D01*
X198241819Y-119484994D02*
X198194199Y-119523089D01*
X198194199Y-119523089D02*
X198241819Y-119561185D01*
X198241819Y-119561185D02*
X198289438Y-119523089D01*
X198289438Y-119523089D02*
X198194199Y-119523089D01*
X198813247Y-119523089D02*
X198765628Y-119484994D01*
X198765628Y-119484994D02*
X198718009Y-119523089D01*
X198718009Y-119523089D02*
X198765628Y-119561185D01*
X198765628Y-119561185D02*
X198813247Y-119523089D01*
X198813247Y-119523089D02*
X198718009Y-119523089D01*
X198194199Y-118532613D02*
X199194199Y-118532613D01*
X199194199Y-118532613D02*
X198479914Y-118265947D01*
X198479914Y-118265947D02*
X199194199Y-117999280D01*
X199194199Y-117999280D02*
X198194199Y-117999280D01*
X198194199Y-117618327D02*
X199194199Y-117618327D01*
X199194199Y-117618327D02*
X199194199Y-117427851D01*
X199194199Y-117427851D02*
X199146580Y-117313565D01*
X199146580Y-117313565D02*
X199051342Y-117237375D01*
X199051342Y-117237375D02*
X198956104Y-117199280D01*
X198956104Y-117199280D02*
X198765628Y-117161184D01*
X198765628Y-117161184D02*
X198622771Y-117161184D01*
X198622771Y-117161184D02*
X198432295Y-117199280D01*
X198432295Y-117199280D02*
X198337057Y-117237375D01*
X198337057Y-117237375D02*
X198241819Y-117313565D01*
X198241819Y-117313565D02*
X198194199Y-117427851D01*
X198194199Y-117427851D02*
X198194199Y-117618327D01*
X198194199Y-116399280D02*
X198194199Y-116856423D01*
X198194199Y-116627851D02*
X199194199Y-116627851D01*
X199194199Y-116627851D02*
X199051342Y-116704042D01*
X199051342Y-116704042D02*
X198956104Y-116780232D01*
X198956104Y-116780232D02*
X198908485Y-116856423D01*
X198194199Y-116056422D02*
X199194199Y-116056422D01*
X199194199Y-116056422D02*
X199194199Y-115751660D01*
X199194199Y-115751660D02*
X199146580Y-115675470D01*
X199146580Y-115675470D02*
X199098961Y-115637375D01*
X199098961Y-115637375D02*
X199003723Y-115599279D01*
X199003723Y-115599279D02*
X198860866Y-115599279D01*
X198860866Y-115599279D02*
X198765628Y-115637375D01*
X198765628Y-115637375D02*
X198718009Y-115675470D01*
X198718009Y-115675470D02*
X198670390Y-115751660D01*
X198670390Y-115751660D02*
X198670390Y-116056422D01*
X199194199Y-115256422D02*
X198384676Y-115256422D01*
X198384676Y-115256422D02*
X198289438Y-115218327D01*
X198289438Y-115218327D02*
X198241819Y-115180232D01*
X198241819Y-115180232D02*
X198194199Y-115104041D01*
X198194199Y-115104041D02*
X198194199Y-114951660D01*
X198194199Y-114951660D02*
X198241819Y-114875470D01*
X198241819Y-114875470D02*
X198289438Y-114837375D01*
X198289438Y-114837375D02*
X198384676Y-114799279D01*
X198384676Y-114799279D02*
X199194199Y-114799279D01*
X194974311Y-133808805D02*
X195974311Y-133808805D01*
X195498121Y-133808805D02*
X195498121Y-133351662D01*
X194974311Y-133351662D02*
X195974311Y-133351662D01*
X195498121Y-132970710D02*
X195498121Y-132704044D01*
X194974311Y-132589758D02*
X194974311Y-132970710D01*
X194974311Y-132970710D02*
X195974311Y-132970710D01*
X195974311Y-132970710D02*
X195974311Y-132589758D01*
X195260026Y-132284996D02*
X195260026Y-131904043D01*
X194974311Y-132361186D02*
X195974311Y-132094519D01*
X195974311Y-132094519D02*
X194974311Y-131827853D01*
X194974311Y-131561186D02*
X195974311Y-131561186D01*
X195974311Y-131561186D02*
X195974311Y-131370710D01*
X195974311Y-131370710D02*
X195926692Y-131256424D01*
X195926692Y-131256424D02*
X195831454Y-131180234D01*
X195831454Y-131180234D02*
X195736216Y-131142139D01*
X195736216Y-131142139D02*
X195545740Y-131104043D01*
X195545740Y-131104043D02*
X195402883Y-131104043D01*
X195402883Y-131104043D02*
X195212407Y-131142139D01*
X195212407Y-131142139D02*
X195117169Y-131180234D01*
X195117169Y-131180234D02*
X195021931Y-131256424D01*
X195021931Y-131256424D02*
X194974311Y-131370710D01*
X194974311Y-131370710D02*
X194974311Y-131561186D01*
X194974311Y-130761186D02*
X195974311Y-130761186D01*
X195974311Y-130761186D02*
X195974311Y-130456424D01*
X195974311Y-130456424D02*
X195926692Y-130380234D01*
X195926692Y-130380234D02*
X195879073Y-130342139D01*
X195879073Y-130342139D02*
X195783835Y-130304043D01*
X195783835Y-130304043D02*
X195640978Y-130304043D01*
X195640978Y-130304043D02*
X195545740Y-130342139D01*
X195545740Y-130342139D02*
X195498121Y-130380234D01*
X195498121Y-130380234D02*
X195450502Y-130456424D01*
X195450502Y-130456424D02*
X195450502Y-130761186D01*
X194974311Y-129961186D02*
X195974311Y-129961186D01*
X195498121Y-129961186D02*
X195498121Y-129504043D01*
X194974311Y-129504043D02*
X195974311Y-129504043D01*
X195974311Y-128970710D02*
X195974311Y-128818329D01*
X195974311Y-128818329D02*
X195926692Y-128742139D01*
X195926692Y-128742139D02*
X195831454Y-128665948D01*
X195831454Y-128665948D02*
X195640978Y-128627853D01*
X195640978Y-128627853D02*
X195307645Y-128627853D01*
X195307645Y-128627853D02*
X195117169Y-128665948D01*
X195117169Y-128665948D02*
X195021931Y-128742139D01*
X195021931Y-128742139D02*
X194974311Y-128818329D01*
X194974311Y-128818329D02*
X194974311Y-128970710D01*
X194974311Y-128970710D02*
X195021931Y-129046901D01*
X195021931Y-129046901D02*
X195117169Y-129123091D01*
X195117169Y-129123091D02*
X195307645Y-129161187D01*
X195307645Y-129161187D02*
X195640978Y-129161187D01*
X195640978Y-129161187D02*
X195831454Y-129123091D01*
X195831454Y-129123091D02*
X195926692Y-129046901D01*
X195926692Y-129046901D02*
X195974311Y-128970710D01*
X194974311Y-128284996D02*
X195974311Y-128284996D01*
X195974311Y-128284996D02*
X194974311Y-127827853D01*
X194974311Y-127827853D02*
X195974311Y-127827853D01*
X195498121Y-127446901D02*
X195498121Y-127180235D01*
X194974311Y-127065949D02*
X194974311Y-127446901D01*
X194974311Y-127446901D02*
X195974311Y-127446901D01*
X195974311Y-127446901D02*
X195974311Y-127065949D01*
X195974311Y-125961186D02*
X195974311Y-125808805D01*
X195974311Y-125808805D02*
X195926692Y-125732615D01*
X195926692Y-125732615D02*
X195831454Y-125656424D01*
X195831454Y-125656424D02*
X195640978Y-125618329D01*
X195640978Y-125618329D02*
X195307645Y-125618329D01*
X195307645Y-125618329D02*
X195117169Y-125656424D01*
X195117169Y-125656424D02*
X195021931Y-125732615D01*
X195021931Y-125732615D02*
X194974311Y-125808805D01*
X194974311Y-125808805D02*
X194974311Y-125961186D01*
X194974311Y-125961186D02*
X195021931Y-126037377D01*
X195021931Y-126037377D02*
X195117169Y-126113567D01*
X195117169Y-126113567D02*
X195307645Y-126151663D01*
X195307645Y-126151663D02*
X195640978Y-126151663D01*
X195640978Y-126151663D02*
X195831454Y-126113567D01*
X195831454Y-126113567D02*
X195926692Y-126037377D01*
X195926692Y-126037377D02*
X195974311Y-125961186D01*
X195974311Y-125275472D02*
X195164788Y-125275472D01*
X195164788Y-125275472D02*
X195069550Y-125237377D01*
X195069550Y-125237377D02*
X195021931Y-125199282D01*
X195021931Y-125199282D02*
X194974311Y-125123091D01*
X194974311Y-125123091D02*
X194974311Y-124970710D01*
X194974311Y-124970710D02*
X195021931Y-124894520D01*
X195021931Y-124894520D02*
X195069550Y-124856425D01*
X195069550Y-124856425D02*
X195164788Y-124818329D01*
X195164788Y-124818329D02*
X195974311Y-124818329D01*
X195974311Y-124551663D02*
X195974311Y-124094520D01*
X194974311Y-124323092D02*
X195974311Y-124323092D01*
X195069550Y-123827853D02*
X195021931Y-123789758D01*
X195021931Y-123789758D02*
X194974311Y-123827853D01*
X194974311Y-123827853D02*
X195021931Y-123865949D01*
X195021931Y-123865949D02*
X195069550Y-123827853D01*
X195069550Y-123827853D02*
X194974311Y-123827853D01*
X195593359Y-123827853D02*
X195545740Y-123789758D01*
X195545740Y-123789758D02*
X195498121Y-123827853D01*
X195498121Y-123827853D02*
X195545740Y-123865949D01*
X195545740Y-123865949D02*
X195593359Y-123827853D01*
X195593359Y-123827853D02*
X195498121Y-123827853D01*
X193364367Y-133808805D02*
X194364367Y-133808805D01*
X194364367Y-133808805D02*
X193650082Y-133542139D01*
X193650082Y-133542139D02*
X194364367Y-133275472D01*
X194364367Y-133275472D02*
X193364367Y-133275472D01*
X193364367Y-132894519D02*
X194364367Y-132894519D01*
X194364367Y-132894519D02*
X194364367Y-132704043D01*
X194364367Y-132704043D02*
X194316748Y-132589757D01*
X194316748Y-132589757D02*
X194221510Y-132513567D01*
X194221510Y-132513567D02*
X194126272Y-132475472D01*
X194126272Y-132475472D02*
X193935796Y-132437376D01*
X193935796Y-132437376D02*
X193792939Y-132437376D01*
X193792939Y-132437376D02*
X193602463Y-132475472D01*
X193602463Y-132475472D02*
X193507225Y-132513567D01*
X193507225Y-132513567D02*
X193411987Y-132589757D01*
X193411987Y-132589757D02*
X193364367Y-132704043D01*
X193364367Y-132704043D02*
X193364367Y-132894519D01*
X193364367Y-131675472D02*
X193364367Y-132132615D01*
X193364367Y-131904043D02*
X194364367Y-131904043D01*
X194364367Y-131904043D02*
X194221510Y-131980234D01*
X194221510Y-131980234D02*
X194126272Y-132056424D01*
X194126272Y-132056424D02*
X194078653Y-132132615D01*
X194364367Y-130837376D02*
X193364367Y-130570709D01*
X193364367Y-130570709D02*
X194364367Y-130304043D01*
X193650082Y-130075472D02*
X193650082Y-129694519D01*
X193364367Y-130151662D02*
X194364367Y-129884995D01*
X194364367Y-129884995D02*
X193364367Y-129618329D01*
X194364367Y-129199281D02*
X194364367Y-129123091D01*
X194364367Y-129123091D02*
X194316748Y-129046900D01*
X194316748Y-129046900D02*
X194269129Y-129008805D01*
X194269129Y-129008805D02*
X194173891Y-128970710D01*
X194173891Y-128970710D02*
X193983415Y-128932615D01*
X193983415Y-128932615D02*
X193745320Y-128932615D01*
X193745320Y-128932615D02*
X193554844Y-128970710D01*
X193554844Y-128970710D02*
X193459606Y-129008805D01*
X193459606Y-129008805D02*
X193411987Y-129046900D01*
X193411987Y-129046900D02*
X193364367Y-129123091D01*
X193364367Y-129123091D02*
X193364367Y-129199281D01*
X193364367Y-129199281D02*
X193411987Y-129275472D01*
X193411987Y-129275472D02*
X193459606Y-129313567D01*
X193459606Y-129313567D02*
X193554844Y-129351662D01*
X193554844Y-129351662D02*
X193745320Y-129389758D01*
X193745320Y-129389758D02*
X193983415Y-129389758D01*
X193983415Y-129389758D02*
X194173891Y-129351662D01*
X194173891Y-129351662D02*
X194269129Y-129313567D01*
X194269129Y-129313567D02*
X194316748Y-129275472D01*
X194316748Y-129275472D02*
X194364367Y-129199281D01*
X193745320Y-128589757D02*
X193745320Y-127980234D01*
X194364367Y-127713567D02*
X193364367Y-127446900D01*
X193364367Y-127446900D02*
X194364367Y-127180234D01*
X193650082Y-126951663D02*
X193650082Y-126570710D01*
X193364367Y-127027853D02*
X194364367Y-126761186D01*
X194364367Y-126761186D02*
X193364367Y-126494520D01*
X194364367Y-125884996D02*
X194364367Y-126037377D01*
X194364367Y-126037377D02*
X194316748Y-126113568D01*
X194316748Y-126113568D02*
X194269129Y-126151663D01*
X194269129Y-126151663D02*
X194126272Y-126227853D01*
X194126272Y-126227853D02*
X193935796Y-126265949D01*
X193935796Y-126265949D02*
X193554844Y-126265949D01*
X193554844Y-126265949D02*
X193459606Y-126227853D01*
X193459606Y-126227853D02*
X193411987Y-126189758D01*
X193411987Y-126189758D02*
X193364367Y-126113568D01*
X193364367Y-126113568D02*
X193364367Y-125961187D01*
X193364367Y-125961187D02*
X193411987Y-125884996D01*
X193411987Y-125884996D02*
X193459606Y-125846901D01*
X193459606Y-125846901D02*
X193554844Y-125808806D01*
X193554844Y-125808806D02*
X193792939Y-125808806D01*
X193792939Y-125808806D02*
X193888177Y-125846901D01*
X193888177Y-125846901D02*
X193935796Y-125884996D01*
X193935796Y-125884996D02*
X193983415Y-125961187D01*
X193983415Y-125961187D02*
X193983415Y-126113568D01*
X193983415Y-126113568D02*
X193935796Y-126189758D01*
X193935796Y-126189758D02*
X193888177Y-126227853D01*
X193888177Y-126227853D02*
X193792939Y-126265949D01*
X193459606Y-125465948D02*
X193411987Y-125427853D01*
X193411987Y-125427853D02*
X193364367Y-125465948D01*
X193364367Y-125465948D02*
X193411987Y-125504044D01*
X193411987Y-125504044D02*
X193459606Y-125465948D01*
X193459606Y-125465948D02*
X193364367Y-125465948D01*
X193935796Y-124970711D02*
X193983415Y-125046901D01*
X193983415Y-125046901D02*
X194031034Y-125084996D01*
X194031034Y-125084996D02*
X194126272Y-125123092D01*
X194126272Y-125123092D02*
X194173891Y-125123092D01*
X194173891Y-125123092D02*
X194269129Y-125084996D01*
X194269129Y-125084996D02*
X194316748Y-125046901D01*
X194316748Y-125046901D02*
X194364367Y-124970711D01*
X194364367Y-124970711D02*
X194364367Y-124818330D01*
X194364367Y-124818330D02*
X194316748Y-124742139D01*
X194316748Y-124742139D02*
X194269129Y-124704044D01*
X194269129Y-124704044D02*
X194173891Y-124665949D01*
X194173891Y-124665949D02*
X194126272Y-124665949D01*
X194126272Y-124665949D02*
X194031034Y-124704044D01*
X194031034Y-124704044D02*
X193983415Y-124742139D01*
X193983415Y-124742139D02*
X193935796Y-124818330D01*
X193935796Y-124818330D02*
X193935796Y-124970711D01*
X193935796Y-124970711D02*
X193888177Y-125046901D01*
X193888177Y-125046901D02*
X193840558Y-125084996D01*
X193840558Y-125084996D02*
X193745320Y-125123092D01*
X193745320Y-125123092D02*
X193554844Y-125123092D01*
X193554844Y-125123092D02*
X193459606Y-125084996D01*
X193459606Y-125084996D02*
X193411987Y-125046901D01*
X193411987Y-125046901D02*
X193364367Y-124970711D01*
X193364367Y-124970711D02*
X193364367Y-124818330D01*
X193364367Y-124818330D02*
X193411987Y-124742139D01*
X193411987Y-124742139D02*
X193459606Y-124704044D01*
X193459606Y-124704044D02*
X193554844Y-124665949D01*
X193554844Y-124665949D02*
X193745320Y-124665949D01*
X193745320Y-124665949D02*
X193840558Y-124704044D01*
X193840558Y-124704044D02*
X193888177Y-124742139D01*
X193888177Y-124742139D02*
X193935796Y-124818330D01*
X193459606Y-124323091D02*
X193411987Y-124284996D01*
X193411987Y-124284996D02*
X193364367Y-124323091D01*
X193364367Y-124323091D02*
X193411987Y-124361187D01*
X193411987Y-124361187D02*
X193459606Y-124323091D01*
X193459606Y-124323091D02*
X193364367Y-124323091D01*
X193983415Y-124323091D02*
X193935796Y-124284996D01*
X193935796Y-124284996D02*
X193888177Y-124323091D01*
X193888177Y-124323091D02*
X193935796Y-124361187D01*
X193935796Y-124361187D02*
X193983415Y-124323091D01*
X193983415Y-124323091D02*
X193888177Y-124323091D01*
X193840558Y-123180234D02*
X193364367Y-123180234D01*
X194364367Y-123446901D02*
X193840558Y-123180234D01*
X193840558Y-123180234D02*
X194364367Y-122913568D01*
X191754423Y-133808805D02*
X192754423Y-133808805D01*
X192754423Y-133808805D02*
X192040138Y-133542139D01*
X192040138Y-133542139D02*
X192754423Y-133275472D01*
X192754423Y-133275472D02*
X191754423Y-133275472D01*
X191754423Y-132894519D02*
X192754423Y-132894519D01*
X192754423Y-132894519D02*
X192754423Y-132704043D01*
X192754423Y-132704043D02*
X192706804Y-132589757D01*
X192706804Y-132589757D02*
X192611566Y-132513567D01*
X192611566Y-132513567D02*
X192516328Y-132475472D01*
X192516328Y-132475472D02*
X192325852Y-132437376D01*
X192325852Y-132437376D02*
X192182995Y-132437376D01*
X192182995Y-132437376D02*
X191992519Y-132475472D01*
X191992519Y-132475472D02*
X191897281Y-132513567D01*
X191897281Y-132513567D02*
X191802043Y-132589757D01*
X191802043Y-132589757D02*
X191754423Y-132704043D01*
X191754423Y-132704043D02*
X191754423Y-132894519D01*
X191754423Y-131675472D02*
X191754423Y-132132615D01*
X191754423Y-131904043D02*
X192754423Y-131904043D01*
X192754423Y-131904043D02*
X192611566Y-131980234D01*
X192611566Y-131980234D02*
X192516328Y-132056424D01*
X192516328Y-132056424D02*
X192468709Y-132132615D01*
X192754423Y-130837376D02*
X191754423Y-130570709D01*
X191754423Y-130570709D02*
X192754423Y-130304043D01*
X192040138Y-130075472D02*
X192040138Y-129694519D01*
X191754423Y-130151662D02*
X192754423Y-129884995D01*
X192754423Y-129884995D02*
X191754423Y-129618329D01*
X192754423Y-129427853D02*
X192754423Y-128894519D01*
X192754423Y-128894519D02*
X191754423Y-129237377D01*
X191802043Y-128551662D02*
X191754423Y-128551662D01*
X191754423Y-128551662D02*
X191659185Y-128589757D01*
X191659185Y-128589757D02*
X191611566Y-128627853D01*
X191849662Y-127142138D02*
X191802043Y-127180234D01*
X191802043Y-127180234D02*
X191754423Y-127294519D01*
X191754423Y-127294519D02*
X191754423Y-127370710D01*
X191754423Y-127370710D02*
X191802043Y-127484996D01*
X191802043Y-127484996D02*
X191897281Y-127561186D01*
X191897281Y-127561186D02*
X191992519Y-127599281D01*
X191992519Y-127599281D02*
X192182995Y-127637377D01*
X192182995Y-127637377D02*
X192325852Y-127637377D01*
X192325852Y-127637377D02*
X192516328Y-127599281D01*
X192516328Y-127599281D02*
X192611566Y-127561186D01*
X192611566Y-127561186D02*
X192706804Y-127484996D01*
X192706804Y-127484996D02*
X192754423Y-127370710D01*
X192754423Y-127370710D02*
X192754423Y-127294519D01*
X192754423Y-127294519D02*
X192706804Y-127180234D01*
X192706804Y-127180234D02*
X192659185Y-127142138D01*
X191754423Y-126799281D02*
X192754423Y-126799281D01*
X192754423Y-126799281D02*
X192754423Y-126608805D01*
X192754423Y-126608805D02*
X192706804Y-126494519D01*
X192706804Y-126494519D02*
X192611566Y-126418329D01*
X192611566Y-126418329D02*
X192516328Y-126380234D01*
X192516328Y-126380234D02*
X192325852Y-126342138D01*
X192325852Y-126342138D02*
X192182995Y-126342138D01*
X192182995Y-126342138D02*
X191992519Y-126380234D01*
X191992519Y-126380234D02*
X191897281Y-126418329D01*
X191897281Y-126418329D02*
X191802043Y-126494519D01*
X191802043Y-126494519D02*
X191754423Y-126608805D01*
X191754423Y-126608805D02*
X191754423Y-126799281D01*
X192754423Y-126075472D02*
X191754423Y-125542138D01*
X192754423Y-125542138D02*
X191754423Y-126075472D01*
X191802043Y-125199281D02*
X191754423Y-125199281D01*
X191754423Y-125199281D02*
X191659185Y-125237376D01*
X191659185Y-125237376D02*
X191611566Y-125275472D01*
X191754423Y-124246900D02*
X192754423Y-124246900D01*
X192754423Y-124246900D02*
X191754423Y-123789757D01*
X191754423Y-123789757D02*
X192754423Y-123789757D01*
X192754423Y-123256424D02*
X192754423Y-123104043D01*
X192754423Y-123104043D02*
X192706804Y-123027853D01*
X192706804Y-123027853D02*
X192611566Y-122951662D01*
X192611566Y-122951662D02*
X192421090Y-122913567D01*
X192421090Y-122913567D02*
X192087757Y-122913567D01*
X192087757Y-122913567D02*
X191897281Y-122951662D01*
X191897281Y-122951662D02*
X191802043Y-123027853D01*
X191802043Y-123027853D02*
X191754423Y-123104043D01*
X191754423Y-123104043D02*
X191754423Y-123256424D01*
X191754423Y-123256424D02*
X191802043Y-123332615D01*
X191802043Y-123332615D02*
X191897281Y-123408805D01*
X191897281Y-123408805D02*
X192087757Y-123446901D01*
X192087757Y-123446901D02*
X192421090Y-123446901D01*
X192421090Y-123446901D02*
X192611566Y-123408805D01*
X192611566Y-123408805D02*
X192706804Y-123332615D01*
X192706804Y-123332615D02*
X192754423Y-123256424D01*
X191754423Y-122570710D02*
X192754423Y-122570710D01*
X192754423Y-122570710D02*
X192040138Y-122304044D01*
X192040138Y-122304044D02*
X192754423Y-122037377D01*
X192754423Y-122037377D02*
X191754423Y-122037377D01*
X192040138Y-121694520D02*
X192040138Y-121313567D01*
X191754423Y-121770710D02*
X192754423Y-121504043D01*
X192754423Y-121504043D02*
X191754423Y-121237377D01*
X191754423Y-120970710D02*
X192754423Y-120970710D01*
X192754423Y-120970710D02*
X192754423Y-120780234D01*
X192754423Y-120780234D02*
X192706804Y-120665948D01*
X192706804Y-120665948D02*
X192611566Y-120589758D01*
X192611566Y-120589758D02*
X192516328Y-120551663D01*
X192516328Y-120551663D02*
X192325852Y-120513567D01*
X192325852Y-120513567D02*
X192182995Y-120513567D01*
X192182995Y-120513567D02*
X191992519Y-120551663D01*
X191992519Y-120551663D02*
X191897281Y-120589758D01*
X191897281Y-120589758D02*
X191802043Y-120665948D01*
X191802043Y-120665948D02*
X191754423Y-120780234D01*
X191754423Y-120780234D02*
X191754423Y-120970710D01*
X191802043Y-120132615D02*
X191754423Y-120132615D01*
X191754423Y-120132615D02*
X191659185Y-120170710D01*
X191659185Y-120170710D02*
X191611566Y-120208806D01*
X191754423Y-119180234D02*
X192754423Y-119180234D01*
X192754423Y-119180234D02*
X192040138Y-118913568D01*
X192040138Y-118913568D02*
X192754423Y-118646901D01*
X192754423Y-118646901D02*
X191754423Y-118646901D01*
X192278233Y-118265948D02*
X192278233Y-117999282D01*
X191754423Y-117884996D02*
X191754423Y-118265948D01*
X191754423Y-118265948D02*
X192754423Y-118265948D01*
X192754423Y-118265948D02*
X192754423Y-117884996D01*
X192706804Y-117123091D02*
X192754423Y-117199281D01*
X192754423Y-117199281D02*
X192754423Y-117313567D01*
X192754423Y-117313567D02*
X192706804Y-117427853D01*
X192706804Y-117427853D02*
X192611566Y-117504043D01*
X192611566Y-117504043D02*
X192516328Y-117542138D01*
X192516328Y-117542138D02*
X192325852Y-117580234D01*
X192325852Y-117580234D02*
X192182995Y-117580234D01*
X192182995Y-117580234D02*
X191992519Y-117542138D01*
X191992519Y-117542138D02*
X191897281Y-117504043D01*
X191897281Y-117504043D02*
X191802043Y-117427853D01*
X191802043Y-117427853D02*
X191754423Y-117313567D01*
X191754423Y-117313567D02*
X191754423Y-117237376D01*
X191754423Y-117237376D02*
X191802043Y-117123091D01*
X191802043Y-117123091D02*
X191849662Y-117084995D01*
X191849662Y-117084995D02*
X192182995Y-117084995D01*
X192182995Y-117084995D02*
X192182995Y-117237376D01*
X192040138Y-116780234D02*
X192040138Y-116399281D01*
X191754423Y-116856424D02*
X192754423Y-116589757D01*
X192754423Y-116589757D02*
X191754423Y-116323091D01*
X192754423Y-115218329D02*
X192040138Y-115218329D01*
X192040138Y-115218329D02*
X191897281Y-115256424D01*
X191897281Y-115256424D02*
X191802043Y-115332615D01*
X191802043Y-115332615D02*
X191754423Y-115446900D01*
X191754423Y-115446900D02*
X191754423Y-115523091D01*
X192278233Y-114837376D02*
X192278233Y-114570710D01*
X191754423Y-114456424D02*
X191754423Y-114837376D01*
X191754423Y-114837376D02*
X192754423Y-114837376D01*
X192754423Y-114837376D02*
X192754423Y-114456424D01*
X192754423Y-114227852D02*
X192754423Y-113770709D01*
X191754423Y-113999281D02*
X192754423Y-113999281D01*
X191849662Y-113504042D02*
X191802043Y-113465947D01*
X191802043Y-113465947D02*
X191754423Y-113504042D01*
X191754423Y-113504042D02*
X191802043Y-113542138D01*
X191802043Y-113542138D02*
X191849662Y-113504042D01*
X191849662Y-113504042D02*
X191754423Y-113504042D01*
X192373471Y-113504042D02*
X192325852Y-113465947D01*
X192325852Y-113465947D02*
X192278233Y-113504042D01*
X192278233Y-113504042D02*
X192325852Y-113542138D01*
X192325852Y-113542138D02*
X192373471Y-113504042D01*
X192373471Y-113504042D02*
X192278233Y-113504042D01*
X192754423Y-112589757D02*
X192754423Y-112056423D01*
X192754423Y-112056423D02*
X191754423Y-112589757D01*
X191754423Y-112589757D02*
X191754423Y-112056423D01*
X188534535Y-133808805D02*
X189534535Y-133808805D01*
X189534535Y-133808805D02*
X188534535Y-133351662D01*
X188534535Y-133351662D02*
X189534535Y-133351662D01*
X189534535Y-132818329D02*
X189534535Y-132665948D01*
X189534535Y-132665948D02*
X189486916Y-132589758D01*
X189486916Y-132589758D02*
X189391678Y-132513567D01*
X189391678Y-132513567D02*
X189201202Y-132475472D01*
X189201202Y-132475472D02*
X188867869Y-132475472D01*
X188867869Y-132475472D02*
X188677393Y-132513567D01*
X188677393Y-132513567D02*
X188582155Y-132589758D01*
X188582155Y-132589758D02*
X188534535Y-132665948D01*
X188534535Y-132665948D02*
X188534535Y-132818329D01*
X188534535Y-132818329D02*
X188582155Y-132894520D01*
X188582155Y-132894520D02*
X188677393Y-132970710D01*
X188677393Y-132970710D02*
X188867869Y-133008806D01*
X188867869Y-133008806D02*
X189201202Y-133008806D01*
X189201202Y-133008806D02*
X189391678Y-132970710D01*
X189391678Y-132970710D02*
X189486916Y-132894520D01*
X189486916Y-132894520D02*
X189534535Y-132818329D01*
X188534535Y-131523091D02*
X189534535Y-131523091D01*
X189058345Y-131523091D02*
X189058345Y-131065948D01*
X188534535Y-131065948D02*
X189534535Y-131065948D01*
X189058345Y-130684996D02*
X189058345Y-130418330D01*
X188534535Y-130304044D02*
X188534535Y-130684996D01*
X188534535Y-130684996D02*
X189534535Y-130684996D01*
X189534535Y-130684996D02*
X189534535Y-130304044D01*
X188820250Y-129999282D02*
X188820250Y-129618329D01*
X188534535Y-130075472D02*
X189534535Y-129808805D01*
X189534535Y-129808805D02*
X188534535Y-129542139D01*
X188534535Y-129275472D02*
X189534535Y-129275472D01*
X189534535Y-129275472D02*
X189534535Y-129084996D01*
X189534535Y-129084996D02*
X189486916Y-128970710D01*
X189486916Y-128970710D02*
X189391678Y-128894520D01*
X189391678Y-128894520D02*
X189296440Y-128856425D01*
X189296440Y-128856425D02*
X189105964Y-128818329D01*
X189105964Y-128818329D02*
X188963107Y-128818329D01*
X188963107Y-128818329D02*
X188772631Y-128856425D01*
X188772631Y-128856425D02*
X188677393Y-128894520D01*
X188677393Y-128894520D02*
X188582155Y-128970710D01*
X188582155Y-128970710D02*
X188534535Y-129084996D01*
X188534535Y-129084996D02*
X188534535Y-129275472D01*
X188534535Y-128475472D02*
X189534535Y-128475472D01*
X189534535Y-128475472D02*
X189534535Y-128170710D01*
X189534535Y-128170710D02*
X189486916Y-128094520D01*
X189486916Y-128094520D02*
X189439297Y-128056425D01*
X189439297Y-128056425D02*
X189344059Y-128018329D01*
X189344059Y-128018329D02*
X189201202Y-128018329D01*
X189201202Y-128018329D02*
X189105964Y-128056425D01*
X189105964Y-128056425D02*
X189058345Y-128094520D01*
X189058345Y-128094520D02*
X189010726Y-128170710D01*
X189010726Y-128170710D02*
X189010726Y-128475472D01*
X188534535Y-127675472D02*
X189534535Y-127675472D01*
X189058345Y-127675472D02*
X189058345Y-127218329D01*
X188534535Y-127218329D02*
X189534535Y-127218329D01*
X189534535Y-126684996D02*
X189534535Y-126532615D01*
X189534535Y-126532615D02*
X189486916Y-126456425D01*
X189486916Y-126456425D02*
X189391678Y-126380234D01*
X189391678Y-126380234D02*
X189201202Y-126342139D01*
X189201202Y-126342139D02*
X188867869Y-126342139D01*
X188867869Y-126342139D02*
X188677393Y-126380234D01*
X188677393Y-126380234D02*
X188582155Y-126456425D01*
X188582155Y-126456425D02*
X188534535Y-126532615D01*
X188534535Y-126532615D02*
X188534535Y-126684996D01*
X188534535Y-126684996D02*
X188582155Y-126761187D01*
X188582155Y-126761187D02*
X188677393Y-126837377D01*
X188677393Y-126837377D02*
X188867869Y-126875473D01*
X188867869Y-126875473D02*
X189201202Y-126875473D01*
X189201202Y-126875473D02*
X189391678Y-126837377D01*
X189391678Y-126837377D02*
X189486916Y-126761187D01*
X189486916Y-126761187D02*
X189534535Y-126684996D01*
X188534535Y-125999282D02*
X189534535Y-125999282D01*
X189534535Y-125999282D02*
X188534535Y-125542139D01*
X188534535Y-125542139D02*
X189534535Y-125542139D01*
X189058345Y-125161187D02*
X189058345Y-124894521D01*
X188534535Y-124780235D02*
X188534535Y-125161187D01*
X188534535Y-125161187D02*
X189534535Y-125161187D01*
X189534535Y-125161187D02*
X189534535Y-124780235D01*
X189534535Y-123675472D02*
X189534535Y-123523091D01*
X189534535Y-123523091D02*
X189486916Y-123446901D01*
X189486916Y-123446901D02*
X189391678Y-123370710D01*
X189391678Y-123370710D02*
X189201202Y-123332615D01*
X189201202Y-123332615D02*
X188867869Y-123332615D01*
X188867869Y-123332615D02*
X188677393Y-123370710D01*
X188677393Y-123370710D02*
X188582155Y-123446901D01*
X188582155Y-123446901D02*
X188534535Y-123523091D01*
X188534535Y-123523091D02*
X188534535Y-123675472D01*
X188534535Y-123675472D02*
X188582155Y-123751663D01*
X188582155Y-123751663D02*
X188677393Y-123827853D01*
X188677393Y-123827853D02*
X188867869Y-123865949D01*
X188867869Y-123865949D02*
X189201202Y-123865949D01*
X189201202Y-123865949D02*
X189391678Y-123827853D01*
X189391678Y-123827853D02*
X189486916Y-123751663D01*
X189486916Y-123751663D02*
X189534535Y-123675472D01*
X189534535Y-122989758D02*
X188725012Y-122989758D01*
X188725012Y-122989758D02*
X188629774Y-122951663D01*
X188629774Y-122951663D02*
X188582155Y-122913568D01*
X188582155Y-122913568D02*
X188534535Y-122837377D01*
X188534535Y-122837377D02*
X188534535Y-122684996D01*
X188534535Y-122684996D02*
X188582155Y-122608806D01*
X188582155Y-122608806D02*
X188629774Y-122570711D01*
X188629774Y-122570711D02*
X188725012Y-122532615D01*
X188725012Y-122532615D02*
X189534535Y-122532615D01*
X189534535Y-122265949D02*
X189534535Y-121808806D01*
X188534535Y-122037378D02*
X189534535Y-122037378D01*
X188629774Y-121542139D02*
X188582155Y-121504044D01*
X188582155Y-121504044D02*
X188534535Y-121542139D01*
X188534535Y-121542139D02*
X188582155Y-121580235D01*
X188582155Y-121580235D02*
X188629774Y-121542139D01*
X188629774Y-121542139D02*
X188534535Y-121542139D01*
X189153583Y-121542139D02*
X189105964Y-121504044D01*
X189105964Y-121504044D02*
X189058345Y-121542139D01*
X189058345Y-121542139D02*
X189105964Y-121580235D01*
X189105964Y-121580235D02*
X189153583Y-121542139D01*
X189153583Y-121542139D02*
X189058345Y-121542139D01*
X187400782Y-133656424D02*
X186924591Y-133656424D01*
X187924591Y-133923091D02*
X187400782Y-133656424D01*
X187400782Y-133656424D02*
X187924591Y-133389758D01*
X186924591Y-131865948D02*
X186924591Y-131904044D01*
X186924591Y-131904044D02*
X186972211Y-131980234D01*
X186972211Y-131980234D02*
X187115068Y-132094520D01*
X187115068Y-132094520D02*
X187400782Y-132284996D01*
X187400782Y-132284996D02*
X187543639Y-132361186D01*
X187543639Y-132361186D02*
X187686496Y-132399282D01*
X187686496Y-132399282D02*
X187781734Y-132399282D01*
X187781734Y-132399282D02*
X187876972Y-132361186D01*
X187876972Y-132361186D02*
X187924591Y-132284996D01*
X187924591Y-132284996D02*
X187924591Y-132246901D01*
X187924591Y-132246901D02*
X187876972Y-132170710D01*
X187876972Y-132170710D02*
X187781734Y-132132615D01*
X187781734Y-132132615D02*
X187734115Y-132132615D01*
X187734115Y-132132615D02*
X187638877Y-132170710D01*
X187638877Y-132170710D02*
X187591258Y-132208805D01*
X187591258Y-132208805D02*
X187400782Y-132437377D01*
X187400782Y-132437377D02*
X187353163Y-132475472D01*
X187353163Y-132475472D02*
X187257925Y-132513567D01*
X187257925Y-132513567D02*
X187115068Y-132513567D01*
X187115068Y-132513567D02*
X187019830Y-132475472D01*
X187019830Y-132475472D02*
X186972211Y-132437377D01*
X186972211Y-132437377D02*
X186924591Y-132361186D01*
X186924591Y-132361186D02*
X186924591Y-132246901D01*
X186924591Y-132246901D02*
X186972211Y-132170710D01*
X186972211Y-132170710D02*
X187019830Y-132132615D01*
X187019830Y-132132615D02*
X187210306Y-132018329D01*
X187210306Y-132018329D02*
X187353163Y-131980234D01*
X187353163Y-131980234D02*
X187448401Y-131980234D01*
X186972211Y-130951663D02*
X186924591Y-130837377D01*
X186924591Y-130837377D02*
X186924591Y-130646901D01*
X186924591Y-130646901D02*
X186972211Y-130570710D01*
X186972211Y-130570710D02*
X187019830Y-130532615D01*
X187019830Y-130532615D02*
X187115068Y-130494520D01*
X187115068Y-130494520D02*
X187210306Y-130494520D01*
X187210306Y-130494520D02*
X187305544Y-130532615D01*
X187305544Y-130532615D02*
X187353163Y-130570710D01*
X187353163Y-130570710D02*
X187400782Y-130646901D01*
X187400782Y-130646901D02*
X187448401Y-130799282D01*
X187448401Y-130799282D02*
X187496020Y-130875472D01*
X187496020Y-130875472D02*
X187543639Y-130913567D01*
X187543639Y-130913567D02*
X187638877Y-130951663D01*
X187638877Y-130951663D02*
X187734115Y-130951663D01*
X187734115Y-130951663D02*
X187829353Y-130913567D01*
X187829353Y-130913567D02*
X187876972Y-130875472D01*
X187876972Y-130875472D02*
X187924591Y-130799282D01*
X187924591Y-130799282D02*
X187924591Y-130608805D01*
X187924591Y-130608805D02*
X187876972Y-130494520D01*
X186924591Y-130151662D02*
X187924591Y-130151662D01*
X187448401Y-130151662D02*
X187448401Y-129694519D01*
X186924591Y-129694519D02*
X187924591Y-129694519D01*
X187924591Y-129161186D02*
X187924591Y-129008805D01*
X187924591Y-129008805D02*
X187876972Y-128932615D01*
X187876972Y-128932615D02*
X187781734Y-128856424D01*
X187781734Y-128856424D02*
X187591258Y-128818329D01*
X187591258Y-128818329D02*
X187257925Y-128818329D01*
X187257925Y-128818329D02*
X187067449Y-128856424D01*
X187067449Y-128856424D02*
X186972211Y-128932615D01*
X186972211Y-128932615D02*
X186924591Y-129008805D01*
X186924591Y-129008805D02*
X186924591Y-129161186D01*
X186924591Y-129161186D02*
X186972211Y-129237377D01*
X186972211Y-129237377D02*
X187067449Y-129313567D01*
X187067449Y-129313567D02*
X187257925Y-129351663D01*
X187257925Y-129351663D02*
X187591258Y-129351663D01*
X187591258Y-129351663D02*
X187781734Y-129313567D01*
X187781734Y-129313567D02*
X187876972Y-129237377D01*
X187876972Y-129237377D02*
X187924591Y-129161186D01*
X186924591Y-128018329D02*
X187400782Y-128284996D01*
X186924591Y-128475472D02*
X187924591Y-128475472D01*
X187924591Y-128475472D02*
X187924591Y-128170710D01*
X187924591Y-128170710D02*
X187876972Y-128094520D01*
X187876972Y-128094520D02*
X187829353Y-128056425D01*
X187829353Y-128056425D02*
X187734115Y-128018329D01*
X187734115Y-128018329D02*
X187591258Y-128018329D01*
X187591258Y-128018329D02*
X187496020Y-128056425D01*
X187496020Y-128056425D02*
X187448401Y-128094520D01*
X187448401Y-128094520D02*
X187400782Y-128170710D01*
X187400782Y-128170710D02*
X187400782Y-128475472D01*
X187924591Y-127789758D02*
X187924591Y-127332615D01*
X186924591Y-127561187D02*
X187924591Y-127561187D01*
X186924591Y-126456424D02*
X187924591Y-126456424D01*
X187448401Y-126456424D02*
X187448401Y-125999281D01*
X186924591Y-125999281D02*
X187924591Y-125999281D01*
X186924591Y-125618329D02*
X187924591Y-125618329D01*
X187924591Y-125618329D02*
X187924591Y-125313567D01*
X187924591Y-125313567D02*
X187876972Y-125237377D01*
X187876972Y-125237377D02*
X187829353Y-125199282D01*
X187829353Y-125199282D02*
X187734115Y-125161186D01*
X187734115Y-125161186D02*
X187591258Y-125161186D01*
X187591258Y-125161186D02*
X187496020Y-125199282D01*
X187496020Y-125199282D02*
X187448401Y-125237377D01*
X187448401Y-125237377D02*
X187400782Y-125313567D01*
X187400782Y-125313567D02*
X187400782Y-125618329D01*
X186924591Y-124208805D02*
X187924591Y-124208805D01*
X187924591Y-124208805D02*
X187924591Y-123904043D01*
X187924591Y-123904043D02*
X187876972Y-123827853D01*
X187876972Y-123827853D02*
X187829353Y-123789758D01*
X187829353Y-123789758D02*
X187734115Y-123751662D01*
X187734115Y-123751662D02*
X187591258Y-123751662D01*
X187591258Y-123751662D02*
X187496020Y-123789758D01*
X187496020Y-123789758D02*
X187448401Y-123827853D01*
X187448401Y-123827853D02*
X187400782Y-123904043D01*
X187400782Y-123904043D02*
X187400782Y-124208805D01*
X186924591Y-122989758D02*
X186924591Y-123446901D01*
X186924591Y-123218329D02*
X187924591Y-123218329D01*
X187924591Y-123218329D02*
X187781734Y-123294520D01*
X187781734Y-123294520D02*
X187686496Y-123370710D01*
X187686496Y-123370710D02*
X187638877Y-123446901D01*
X187210306Y-122075472D02*
X187210306Y-121694519D01*
X186924591Y-122151662D02*
X187924591Y-121884995D01*
X187924591Y-121884995D02*
X186924591Y-121618329D01*
X186924591Y-121351662D02*
X187924591Y-121351662D01*
X187924591Y-121351662D02*
X186924591Y-120894519D01*
X186924591Y-120894519D02*
X187924591Y-120894519D01*
X186924591Y-120513567D02*
X187924591Y-120513567D01*
X187924591Y-120513567D02*
X187924591Y-120323091D01*
X187924591Y-120323091D02*
X187876972Y-120208805D01*
X187876972Y-120208805D02*
X187781734Y-120132615D01*
X187781734Y-120132615D02*
X187686496Y-120094520D01*
X187686496Y-120094520D02*
X187496020Y-120056424D01*
X187496020Y-120056424D02*
X187353163Y-120056424D01*
X187353163Y-120056424D02*
X187162687Y-120094520D01*
X187162687Y-120094520D02*
X187067449Y-120132615D01*
X187067449Y-120132615D02*
X186972211Y-120208805D01*
X186972211Y-120208805D02*
X186924591Y-120323091D01*
X186924591Y-120323091D02*
X186924591Y-120513567D01*
X186924591Y-119104043D02*
X187924591Y-119104043D01*
X187448401Y-119104043D02*
X187448401Y-118646900D01*
X186924591Y-118646900D02*
X187924591Y-118646900D01*
X186924591Y-118265948D02*
X187924591Y-118265948D01*
X187924591Y-118265948D02*
X187924591Y-117961186D01*
X187924591Y-117961186D02*
X187876972Y-117884996D01*
X187876972Y-117884996D02*
X187829353Y-117846901D01*
X187829353Y-117846901D02*
X187734115Y-117808805D01*
X187734115Y-117808805D02*
X187591258Y-117808805D01*
X187591258Y-117808805D02*
X187496020Y-117846901D01*
X187496020Y-117846901D02*
X187448401Y-117884996D01*
X187448401Y-117884996D02*
X187400782Y-117961186D01*
X187400782Y-117961186D02*
X187400782Y-118265948D01*
X186924591Y-116856424D02*
X187924591Y-116856424D01*
X187924591Y-116856424D02*
X187924591Y-116551662D01*
X187924591Y-116551662D02*
X187876972Y-116475472D01*
X187876972Y-116475472D02*
X187829353Y-116437377D01*
X187829353Y-116437377D02*
X187734115Y-116399281D01*
X187734115Y-116399281D02*
X187591258Y-116399281D01*
X187591258Y-116399281D02*
X187496020Y-116437377D01*
X187496020Y-116437377D02*
X187448401Y-116475472D01*
X187448401Y-116475472D02*
X187400782Y-116551662D01*
X187400782Y-116551662D02*
X187400782Y-116856424D01*
X187829353Y-116094520D02*
X187876972Y-116056424D01*
X187876972Y-116056424D02*
X187924591Y-115980234D01*
X187924591Y-115980234D02*
X187924591Y-115789758D01*
X187924591Y-115789758D02*
X187876972Y-115713567D01*
X187876972Y-115713567D02*
X187829353Y-115675472D01*
X187829353Y-115675472D02*
X187734115Y-115637377D01*
X187734115Y-115637377D02*
X187638877Y-115637377D01*
X187638877Y-115637377D02*
X187496020Y-115675472D01*
X187496020Y-115675472D02*
X186924591Y-116132615D01*
X186924591Y-116132615D02*
X186924591Y-115637377D01*
D11*
X201453564Y-143182957D02*
X202453564Y-143182957D01*
X202453564Y-143182957D02*
X202453564Y-142944862D01*
X202453564Y-142944862D02*
X202405945Y-142802005D01*
X202405945Y-142802005D02*
X202310707Y-142706767D01*
X202310707Y-142706767D02*
X202215469Y-142659148D01*
X202215469Y-142659148D02*
X202024993Y-142611529D01*
X202024993Y-142611529D02*
X201882136Y-142611529D01*
X201882136Y-142611529D02*
X201691660Y-142659148D01*
X201691660Y-142659148D02*
X201596422Y-142706767D01*
X201596422Y-142706767D02*
X201501184Y-142802005D01*
X201501184Y-142802005D02*
X201453564Y-142944862D01*
X201453564Y-142944862D02*
X201453564Y-143182957D01*
X201501184Y-141802005D02*
X201453564Y-141897243D01*
X201453564Y-141897243D02*
X201453564Y-142087719D01*
X201453564Y-142087719D02*
X201501184Y-142182957D01*
X201501184Y-142182957D02*
X201596422Y-142230576D01*
X201596422Y-142230576D02*
X201977374Y-142230576D01*
X201977374Y-142230576D02*
X202072612Y-142182957D01*
X202072612Y-142182957D02*
X202120231Y-142087719D01*
X202120231Y-142087719D02*
X202120231Y-141897243D01*
X202120231Y-141897243D02*
X202072612Y-141802005D01*
X202072612Y-141802005D02*
X201977374Y-141754386D01*
X201977374Y-141754386D02*
X201882136Y-141754386D01*
X201882136Y-141754386D02*
X201786898Y-142230576D01*
X202120231Y-141421052D02*
X201453564Y-141182957D01*
X201453564Y-141182957D02*
X202120231Y-140944862D01*
X202453564Y-139944861D02*
X202453564Y-139373433D01*
X201453564Y-139659147D02*
X202453564Y-139659147D01*
X201501184Y-138659147D02*
X201453564Y-138754385D01*
X201453564Y-138754385D02*
X201453564Y-138944861D01*
X201453564Y-138944861D02*
X201501184Y-139040099D01*
X201501184Y-139040099D02*
X201596422Y-139087718D01*
X201596422Y-139087718D02*
X201977374Y-139087718D01*
X201977374Y-139087718D02*
X202072612Y-139040099D01*
X202072612Y-139040099D02*
X202120231Y-138944861D01*
X202120231Y-138944861D02*
X202120231Y-138754385D01*
X202120231Y-138754385D02*
X202072612Y-138659147D01*
X202072612Y-138659147D02*
X201977374Y-138611528D01*
X201977374Y-138611528D02*
X201882136Y-138611528D01*
X201882136Y-138611528D02*
X201786898Y-139087718D01*
X201453564Y-137754385D02*
X201977374Y-137754385D01*
X201977374Y-137754385D02*
X202072612Y-137802004D01*
X202072612Y-137802004D02*
X202120231Y-137897242D01*
X202120231Y-137897242D02*
X202120231Y-138087718D01*
X202120231Y-138087718D02*
X202072612Y-138182956D01*
X201501184Y-137754385D02*
X201453564Y-137849623D01*
X201453564Y-137849623D02*
X201453564Y-138087718D01*
X201453564Y-138087718D02*
X201501184Y-138182956D01*
X201501184Y-138182956D02*
X201596422Y-138230575D01*
X201596422Y-138230575D02*
X201691660Y-138230575D01*
X201691660Y-138230575D02*
X201786898Y-138182956D01*
X201786898Y-138182956D02*
X201834517Y-138087718D01*
X201834517Y-138087718D02*
X201834517Y-137849623D01*
X201834517Y-137849623D02*
X201882136Y-137754385D01*
X201453564Y-137278194D02*
X202120231Y-137278194D01*
X202024993Y-137278194D02*
X202072612Y-137230575D01*
X202072612Y-137230575D02*
X202120231Y-137135337D01*
X202120231Y-137135337D02*
X202120231Y-136992480D01*
X202120231Y-136992480D02*
X202072612Y-136897242D01*
X202072612Y-136897242D02*
X201977374Y-136849623D01*
X201977374Y-136849623D02*
X201453564Y-136849623D01*
X201977374Y-136849623D02*
X202072612Y-136802004D01*
X202072612Y-136802004D02*
X202120231Y-136706766D01*
X202120231Y-136706766D02*
X202120231Y-136563909D01*
X202120231Y-136563909D02*
X202072612Y-136468670D01*
X202072612Y-136468670D02*
X201977374Y-136421051D01*
X201977374Y-136421051D02*
X201453564Y-136421051D01*
X201548803Y-135944861D02*
X201501184Y-135897242D01*
X201501184Y-135897242D02*
X201453564Y-135944861D01*
X201453564Y-135944861D02*
X201501184Y-135992480D01*
X201501184Y-135992480D02*
X201548803Y-135944861D01*
X201548803Y-135944861D02*
X201453564Y-135944861D01*
X202072612Y-135944861D02*
X202024993Y-135897242D01*
X202024993Y-135897242D02*
X201977374Y-135944861D01*
X201977374Y-135944861D02*
X202024993Y-135992480D01*
X202024993Y-135992480D02*
X202072612Y-135944861D01*
X202072612Y-135944861D02*
X201977374Y-135944861D01*
X200843620Y-143325814D02*
X199843620Y-142992481D01*
X199843620Y-142992481D02*
X200843620Y-142659148D01*
X199843620Y-142325814D02*
X200510287Y-142325814D01*
X200843620Y-142325814D02*
X200796001Y-142373433D01*
X200796001Y-142373433D02*
X200748382Y-142325814D01*
X200748382Y-142325814D02*
X200796001Y-142278195D01*
X200796001Y-142278195D02*
X200843620Y-142325814D01*
X200843620Y-142325814D02*
X200748382Y-142325814D01*
X199843620Y-141706767D02*
X199891240Y-141802005D01*
X199891240Y-141802005D02*
X199986478Y-141849624D01*
X199986478Y-141849624D02*
X200843620Y-141849624D01*
X199843620Y-141182957D02*
X199891240Y-141278195D01*
X199891240Y-141278195D02*
X199986478Y-141325814D01*
X199986478Y-141325814D02*
X200843620Y-141325814D01*
X199843620Y-140373433D02*
X200367430Y-140373433D01*
X200367430Y-140373433D02*
X200462668Y-140421052D01*
X200462668Y-140421052D02*
X200510287Y-140516290D01*
X200510287Y-140516290D02*
X200510287Y-140706766D01*
X200510287Y-140706766D02*
X200462668Y-140802004D01*
X199891240Y-140373433D02*
X199843620Y-140468671D01*
X199843620Y-140468671D02*
X199843620Y-140706766D01*
X199843620Y-140706766D02*
X199891240Y-140802004D01*
X199891240Y-140802004D02*
X199986478Y-140849623D01*
X199986478Y-140849623D02*
X200081716Y-140849623D01*
X200081716Y-140849623D02*
X200176954Y-140802004D01*
X200176954Y-140802004D02*
X200224573Y-140706766D01*
X200224573Y-140706766D02*
X200224573Y-140468671D01*
X200224573Y-140468671D02*
X200272192Y-140373433D01*
X199843620Y-139897242D02*
X200843620Y-139897242D01*
X199843620Y-139468671D02*
X200367430Y-139468671D01*
X200367430Y-139468671D02*
X200462668Y-139516290D01*
X200462668Y-139516290D02*
X200510287Y-139611528D01*
X200510287Y-139611528D02*
X200510287Y-139754385D01*
X200510287Y-139754385D02*
X200462668Y-139849623D01*
X200462668Y-139849623D02*
X200415049Y-139897242D01*
X199891240Y-138611528D02*
X199843620Y-138706766D01*
X199843620Y-138706766D02*
X199843620Y-138897242D01*
X199843620Y-138897242D02*
X199891240Y-138992480D01*
X199891240Y-138992480D02*
X199986478Y-139040099D01*
X199986478Y-139040099D02*
X200367430Y-139040099D01*
X200367430Y-139040099D02*
X200462668Y-138992480D01*
X200462668Y-138992480D02*
X200510287Y-138897242D01*
X200510287Y-138897242D02*
X200510287Y-138706766D01*
X200510287Y-138706766D02*
X200462668Y-138611528D01*
X200462668Y-138611528D02*
X200367430Y-138563909D01*
X200367430Y-138563909D02*
X200272192Y-138563909D01*
X200272192Y-138563909D02*
X200176954Y-139040099D01*
X199843620Y-137706766D02*
X200843620Y-137706766D01*
X199891240Y-137706766D02*
X199843620Y-137802004D01*
X199843620Y-137802004D02*
X199843620Y-137992480D01*
X199843620Y-137992480D02*
X199891240Y-138087718D01*
X199891240Y-138087718D02*
X199938859Y-138135337D01*
X199938859Y-138135337D02*
X200034097Y-138182956D01*
X200034097Y-138182956D02*
X200319811Y-138182956D01*
X200319811Y-138182956D02*
X200415049Y-138135337D01*
X200415049Y-138135337D02*
X200462668Y-138087718D01*
X200462668Y-138087718D02*
X200510287Y-137992480D01*
X200510287Y-137992480D02*
X200510287Y-137802004D01*
X200510287Y-137802004D02*
X200462668Y-137706766D01*
X199843620Y-137182956D02*
X199843620Y-136992480D01*
X199843620Y-136992480D02*
X199891240Y-136897242D01*
X199891240Y-136897242D02*
X199938859Y-136849623D01*
X199938859Y-136849623D02*
X200081716Y-136754385D01*
X200081716Y-136754385D02*
X200272192Y-136706766D01*
X200272192Y-136706766D02*
X200653144Y-136706766D01*
X200653144Y-136706766D02*
X200748382Y-136754385D01*
X200748382Y-136754385D02*
X200796001Y-136802004D01*
X200796001Y-136802004D02*
X200843620Y-136897242D01*
X200843620Y-136897242D02*
X200843620Y-137087718D01*
X200843620Y-137087718D02*
X200796001Y-137182956D01*
X200796001Y-137182956D02*
X200748382Y-137230575D01*
X200748382Y-137230575D02*
X200653144Y-137278194D01*
X200653144Y-137278194D02*
X200415049Y-137278194D01*
X200415049Y-137278194D02*
X200319811Y-137230575D01*
X200319811Y-137230575D02*
X200272192Y-137182956D01*
X200272192Y-137182956D02*
X200224573Y-137087718D01*
X200224573Y-137087718D02*
X200224573Y-136897242D01*
X200224573Y-136897242D02*
X200272192Y-136802004D01*
X200272192Y-136802004D02*
X200319811Y-136754385D01*
X200319811Y-136754385D02*
X200415049Y-136706766D01*
X200510287Y-135849623D02*
X199843620Y-135849623D01*
X200891240Y-136087718D02*
X200176954Y-136325813D01*
X200176954Y-136325813D02*
X200176954Y-135706766D01*
X198233676Y-142611529D02*
X198709867Y-142944862D01*
X198233676Y-143182957D02*
X199233676Y-143182957D01*
X199233676Y-143182957D02*
X199233676Y-142802005D01*
X199233676Y-142802005D02*
X199186057Y-142706767D01*
X199186057Y-142706767D02*
X199138438Y-142659148D01*
X199138438Y-142659148D02*
X199043200Y-142611529D01*
X199043200Y-142611529D02*
X198900343Y-142611529D01*
X198900343Y-142611529D02*
X198805105Y-142659148D01*
X198805105Y-142659148D02*
X198757486Y-142706767D01*
X198757486Y-142706767D02*
X198709867Y-142802005D01*
X198709867Y-142802005D02*
X198709867Y-143182957D01*
X199186057Y-141659148D02*
X199233676Y-141754386D01*
X199233676Y-141754386D02*
X199233676Y-141897243D01*
X199233676Y-141897243D02*
X199186057Y-142040100D01*
X199186057Y-142040100D02*
X199090819Y-142135338D01*
X199090819Y-142135338D02*
X198995581Y-142182957D01*
X198995581Y-142182957D02*
X198805105Y-142230576D01*
X198805105Y-142230576D02*
X198662248Y-142230576D01*
X198662248Y-142230576D02*
X198471772Y-142182957D01*
X198471772Y-142182957D02*
X198376534Y-142135338D01*
X198376534Y-142135338D02*
X198281296Y-142040100D01*
X198281296Y-142040100D02*
X198233676Y-141897243D01*
X198233676Y-141897243D02*
X198233676Y-141802005D01*
X198233676Y-141802005D02*
X198281296Y-141659148D01*
X198281296Y-141659148D02*
X198328915Y-141611529D01*
X198328915Y-141611529D02*
X198662248Y-141611529D01*
X198662248Y-141611529D02*
X198662248Y-141802005D01*
X198757486Y-140849624D02*
X198709867Y-140706767D01*
X198709867Y-140706767D02*
X198662248Y-140659148D01*
X198662248Y-140659148D02*
X198567010Y-140611529D01*
X198567010Y-140611529D02*
X198424153Y-140611529D01*
X198424153Y-140611529D02*
X198328915Y-140659148D01*
X198328915Y-140659148D02*
X198281296Y-140706767D01*
X198281296Y-140706767D02*
X198233676Y-140802005D01*
X198233676Y-140802005D02*
X198233676Y-141182957D01*
X198233676Y-141182957D02*
X199233676Y-141182957D01*
X199233676Y-141182957D02*
X199233676Y-140849624D01*
X199233676Y-140849624D02*
X199186057Y-140754386D01*
X199186057Y-140754386D02*
X199138438Y-140706767D01*
X199138438Y-140706767D02*
X199043200Y-140659148D01*
X199043200Y-140659148D02*
X198947962Y-140659148D01*
X198947962Y-140659148D02*
X198852724Y-140706767D01*
X198852724Y-140706767D02*
X198805105Y-140754386D01*
X198805105Y-140754386D02*
X198757486Y-140849624D01*
X198757486Y-140849624D02*
X198757486Y-141182957D01*
X198281296Y-139802005D02*
X198233676Y-139897243D01*
X198233676Y-139897243D02*
X198233676Y-140087719D01*
X198233676Y-140087719D02*
X198281296Y-140182957D01*
X198281296Y-140182957D02*
X198376534Y-140230576D01*
X198376534Y-140230576D02*
X198757486Y-140230576D01*
X198757486Y-140230576D02*
X198852724Y-140182957D01*
X198852724Y-140182957D02*
X198900343Y-140087719D01*
X198900343Y-140087719D02*
X198900343Y-139897243D01*
X198900343Y-139897243D02*
X198852724Y-139802005D01*
X198852724Y-139802005D02*
X198757486Y-139754386D01*
X198757486Y-139754386D02*
X198662248Y-139754386D01*
X198662248Y-139754386D02*
X198567010Y-140230576D01*
X198900343Y-139468671D02*
X198900343Y-139087719D01*
X199233676Y-139325814D02*
X198376534Y-139325814D01*
X198376534Y-139325814D02*
X198281296Y-139278195D01*
X198281296Y-139278195D02*
X198233676Y-139182957D01*
X198233676Y-139182957D02*
X198233676Y-139087719D01*
X198281296Y-138373433D02*
X198233676Y-138468671D01*
X198233676Y-138468671D02*
X198233676Y-138659147D01*
X198233676Y-138659147D02*
X198281296Y-138754385D01*
X198281296Y-138754385D02*
X198376534Y-138802004D01*
X198376534Y-138802004D02*
X198757486Y-138802004D01*
X198757486Y-138802004D02*
X198852724Y-138754385D01*
X198852724Y-138754385D02*
X198900343Y-138659147D01*
X198900343Y-138659147D02*
X198900343Y-138468671D01*
X198900343Y-138468671D02*
X198852724Y-138373433D01*
X198852724Y-138373433D02*
X198757486Y-138325814D01*
X198757486Y-138325814D02*
X198662248Y-138325814D01*
X198662248Y-138325814D02*
X198567010Y-138802004D01*
X198233676Y-137897242D02*
X198900343Y-137897242D01*
X198709867Y-137897242D02*
X198805105Y-137849623D01*
X198805105Y-137849623D02*
X198852724Y-137802004D01*
X198852724Y-137802004D02*
X198900343Y-137706766D01*
X198900343Y-137706766D02*
X198900343Y-137611528D01*
D12*
X172768052Y-132785271D02*
X174768052Y-132785271D01*
X174768052Y-132785271D02*
X174768052Y-132023366D01*
X174768052Y-132023366D02*
X174672814Y-131832890D01*
X174672814Y-131832890D02*
X174577576Y-131737652D01*
X174577576Y-131737652D02*
X174387100Y-131642414D01*
X174387100Y-131642414D02*
X174101386Y-131642414D01*
X174101386Y-131642414D02*
X173910910Y-131737652D01*
X173910910Y-131737652D02*
X173815671Y-131832890D01*
X173815671Y-131832890D02*
X173720433Y-132023366D01*
X173720433Y-132023366D02*
X173720433Y-132785271D01*
X172768052Y-129642414D02*
X173720433Y-130309081D01*
X172768052Y-130785271D02*
X174768052Y-130785271D01*
X174768052Y-130785271D02*
X174768052Y-130023366D01*
X174768052Y-130023366D02*
X174672814Y-129832890D01*
X174672814Y-129832890D02*
X174577576Y-129737652D01*
X174577576Y-129737652D02*
X174387100Y-129642414D01*
X174387100Y-129642414D02*
X174101386Y-129642414D01*
X174101386Y-129642414D02*
X173910910Y-129737652D01*
X173910910Y-129737652D02*
X173815671Y-129832890D01*
X173815671Y-129832890D02*
X173720433Y-130023366D01*
X173720433Y-130023366D02*
X173720433Y-130785271D01*
X174768052Y-128404319D02*
X174768052Y-128023366D01*
X174768052Y-128023366D02*
X174672814Y-127832890D01*
X174672814Y-127832890D02*
X174482338Y-127642414D01*
X174482338Y-127642414D02*
X174101386Y-127547176D01*
X174101386Y-127547176D02*
X173434719Y-127547176D01*
X173434719Y-127547176D02*
X173053767Y-127642414D01*
X173053767Y-127642414D02*
X172863291Y-127832890D01*
X172863291Y-127832890D02*
X172768052Y-128023366D01*
X172768052Y-128023366D02*
X172768052Y-128404319D01*
X172768052Y-128404319D02*
X172863291Y-128594795D01*
X172863291Y-128594795D02*
X173053767Y-128785271D01*
X173053767Y-128785271D02*
X173434719Y-128880509D01*
X173434719Y-128880509D02*
X174101386Y-128880509D01*
X174101386Y-128880509D02*
X174482338Y-128785271D01*
X174482338Y-128785271D02*
X174672814Y-128594795D01*
X174672814Y-128594795D02*
X174768052Y-128404319D01*
D13*
%TO.C,G\u002A\u002A\u002A*%
G36*
X175276587Y-132019214D02*
G01*
X175368623Y-132051017D01*
X175488257Y-132096064D01*
X175609884Y-132144391D01*
X175707897Y-132186037D01*
X175756691Y-132211040D01*
X175757407Y-132211886D01*
X175749472Y-132257758D01*
X175713461Y-132352044D01*
X175658938Y-132474269D01*
X175595462Y-132603955D01*
X175532595Y-132720626D01*
X175479899Y-132803807D01*
X175479413Y-132804318D01*
X175434776Y-132805459D01*
X175346556Y-132790629D01*
X175223502Y-132763644D01*
X175223502Y-132386822D01*
X175224040Y-132291474D01*
X175227302Y-132146731D01*
X175232866Y-132047091D01*
X175239969Y-132010000D01*
X175276587Y-132019214D01*
G37*
G36*
X177947792Y-124530000D02*
G01*
X177947792Y-125090000D01*
X177847635Y-125090000D01*
X177807439Y-125091895D01*
X177767297Y-125112087D01*
X177750724Y-125171303D01*
X177747477Y-125290000D01*
X177747477Y-125490000D01*
X177467035Y-125490000D01*
X177186594Y-125490000D01*
X177186594Y-125174280D01*
X177185012Y-125049322D01*
X177175942Y-124929818D01*
X177156212Y-124863326D01*
X177122884Y-124834150D01*
X177074876Y-124821839D01*
X177030145Y-124837849D01*
X177003122Y-124900720D01*
X176989826Y-125021429D01*
X176986278Y-125210954D01*
X176987618Y-125351508D01*
X177000726Y-125493876D01*
X177039296Y-125581818D01*
X177116987Y-125628425D01*
X177247458Y-125646788D01*
X177444370Y-125650000D01*
X177747477Y-125650000D01*
X177747477Y-125990000D01*
X177747477Y-126330000D01*
X177296767Y-126329122D01*
X177276749Y-126329065D01*
X177058970Y-126324832D01*
X176900585Y-126312473D01*
X176782547Y-126289645D01*
X176685805Y-126254006D01*
X176619626Y-126219309D01*
X176448600Y-126091043D01*
X176312017Y-125933497D01*
X176231762Y-125770000D01*
X176229354Y-125759966D01*
X176217337Y-125664169D01*
X176206609Y-125505725D01*
X176197817Y-125299182D01*
X176191608Y-125059091D01*
X176188630Y-124800000D01*
X176185016Y-123970000D01*
X177066404Y-123970000D01*
X177947792Y-123970000D01*
X177947792Y-124530000D01*
G37*
G36*
X180865112Y-107825814D02*
G01*
X180868714Y-107904088D01*
X180871052Y-108034515D01*
X180871716Y-108200000D01*
X180871035Y-108590000D01*
X179449477Y-109046913D01*
X179419652Y-109056504D01*
X179100679Y-109159734D01*
X178807824Y-109255668D01*
X178549461Y-109341477D01*
X178333960Y-109414334D01*
X178169694Y-109471410D01*
X178065035Y-109509879D01*
X178028357Y-109526913D01*
X178028803Y-109527633D01*
X178073168Y-109547728D01*
X178184316Y-109589930D01*
X178353925Y-109651298D01*
X178573677Y-109728891D01*
X178835253Y-109819768D01*
X179130332Y-109920990D01*
X179450596Y-110029615D01*
X180872398Y-110509229D01*
X180872398Y-110879615D01*
X180871936Y-110969205D01*
X180868890Y-111113471D01*
X180863624Y-111212935D01*
X180856876Y-111250000D01*
X180822660Y-111241981D01*
X180718438Y-111209867D01*
X180553775Y-111155841D01*
X180336681Y-111082730D01*
X180075166Y-110993362D01*
X179777238Y-110890565D01*
X179450908Y-110777165D01*
X179104186Y-110655990D01*
X178745081Y-110529867D01*
X178381602Y-110401624D01*
X178021760Y-110274088D01*
X177673564Y-110150086D01*
X177345024Y-110032446D01*
X177044149Y-109923996D01*
X176778949Y-109827562D01*
X176557434Y-109745971D01*
X176387614Y-109682053D01*
X176277498Y-109638632D01*
X176235095Y-109618538D01*
X176207150Y-109580562D01*
X176188985Y-109522983D01*
X176220580Y-109455900D01*
X176250231Y-109441619D01*
X176348508Y-109402800D01*
X176507760Y-109342868D01*
X176720038Y-109264639D01*
X176977394Y-109170930D01*
X177271879Y-109064558D01*
X177595545Y-108948339D01*
X177940443Y-108825090D01*
X178298625Y-108697629D01*
X178662142Y-108568771D01*
X179023046Y-108441333D01*
X179373388Y-108318133D01*
X179705220Y-108201986D01*
X180010593Y-108095710D01*
X180281559Y-108002121D01*
X180510170Y-107924036D01*
X180688476Y-107864272D01*
X180808530Y-107825645D01*
X180862382Y-107810972D01*
X180865112Y-107825814D01*
G37*
G36*
X175435557Y-111754101D02*
G01*
X175547077Y-111792599D01*
X175721186Y-111852604D01*
X175951117Y-111931786D01*
X176230106Y-112027817D01*
X176551386Y-112138369D01*
X176908193Y-112261111D01*
X177293761Y-112393717D01*
X177701325Y-112533857D01*
X177705306Y-112535225D01*
X178244679Y-112721531D01*
X178709118Y-112883801D01*
X179099950Y-113022522D01*
X179418497Y-113138183D01*
X179666086Y-113231273D01*
X179844041Y-113302281D01*
X179953686Y-113351694D01*
X179996347Y-113380000D01*
X180006791Y-113410396D01*
X180001974Y-113497639D01*
X179965398Y-113575998D01*
X179910327Y-113610000D01*
X179907785Y-113610530D01*
X179851966Y-113628085D01*
X179730154Y-113668454D01*
X179550447Y-113728861D01*
X179320943Y-113806530D01*
X179049740Y-113898685D01*
X178744935Y-114002548D01*
X178414625Y-114115344D01*
X178066908Y-114234297D01*
X177709881Y-114356630D01*
X177351643Y-114479567D01*
X177000290Y-114600331D01*
X176663920Y-114716148D01*
X176350630Y-114824239D01*
X176068518Y-114921829D01*
X175825682Y-115006142D01*
X175630219Y-115074402D01*
X175490226Y-115123831D01*
X175413802Y-115151655D01*
X175383027Y-115157552D01*
X175362077Y-115137546D01*
X175350371Y-115077553D01*
X175345400Y-114964241D01*
X175344657Y-114784280D01*
X175345622Y-114390000D01*
X176766896Y-113932607D01*
X176796644Y-113923029D01*
X177115568Y-113819701D01*
X177408378Y-113723701D01*
X177666704Y-113637858D01*
X177882174Y-113564999D01*
X178046417Y-113507952D01*
X178151060Y-113469545D01*
X178187734Y-113452607D01*
X178187291Y-113451902D01*
X178142946Y-113431938D01*
X178031810Y-113389883D01*
X177862204Y-113328670D01*
X177642449Y-113251237D01*
X177380865Y-113160516D01*
X177085774Y-113059443D01*
X176765495Y-112950953D01*
X175343691Y-112471906D01*
X175343691Y-112096674D01*
X175345571Y-111938676D01*
X175353571Y-111814231D01*
X175369168Y-111751212D01*
X175393770Y-111739577D01*
X175435557Y-111754101D01*
G37*
G36*
X180829750Y-106894156D02*
G01*
X180854019Y-106917458D01*
X180865856Y-106975109D01*
X180868174Y-107082299D01*
X180863886Y-107254215D01*
X180852367Y-107618429D01*
X178929338Y-108293545D01*
X178905041Y-108302075D01*
X178512466Y-108439903D01*
X178128461Y-108574735D01*
X177762600Y-108703207D01*
X177424457Y-108821958D01*
X177123607Y-108927624D01*
X176869624Y-109016844D01*
X176672082Y-109086254D01*
X176540557Y-109132492D01*
X176323977Y-109212678D01*
X176160344Y-109286691D01*
X176057414Y-109357222D01*
X176006464Y-109432739D01*
X175998775Y-109521712D01*
X176025627Y-109632611D01*
X176047974Y-109687323D01*
X176116137Y-109767649D01*
X176237399Y-109828068D01*
X176289091Y-109846762D01*
X176414540Y-109891279D01*
X176602284Y-109957470D01*
X176845036Y-110042780D01*
X177135508Y-110144654D01*
X177466414Y-110260537D01*
X177830466Y-110387873D01*
X178220379Y-110524107D01*
X178628865Y-110666683D01*
X180852367Y-111442371D01*
X180863833Y-111826186D01*
X180865658Y-111928094D01*
X180863211Y-112073204D01*
X180854795Y-112172925D01*
X180841416Y-112210000D01*
X180829298Y-112206558D01*
X180752387Y-112180917D01*
X180611365Y-112132475D01*
X180413765Y-112063889D01*
X180167119Y-111977815D01*
X179878959Y-111876909D01*
X179556817Y-111763828D01*
X179208225Y-111641227D01*
X178840715Y-111511763D01*
X178461819Y-111378093D01*
X178079069Y-111242872D01*
X177699998Y-111108757D01*
X177332136Y-110978404D01*
X176983017Y-110854469D01*
X176660173Y-110739609D01*
X176371135Y-110636479D01*
X176123435Y-110547737D01*
X175924606Y-110476038D01*
X175752566Y-110398544D01*
X175539147Y-110252330D01*
X175374587Y-110075967D01*
X175274511Y-109883691D01*
X175252409Y-109805047D01*
X175221141Y-109532967D01*
X175256298Y-109271548D01*
X175352919Y-109034399D01*
X175506042Y-108835128D01*
X175710707Y-108687342D01*
X175723822Y-108681148D01*
X175812823Y-108644816D01*
X175965288Y-108586595D01*
X176173504Y-108509210D01*
X176429760Y-108415390D01*
X176726343Y-108307861D01*
X177055541Y-108189349D01*
X177409642Y-108062581D01*
X177780933Y-107930285D01*
X178161703Y-107795187D01*
X178544240Y-107660014D01*
X178920830Y-107527492D01*
X179283763Y-107400349D01*
X179625325Y-107281311D01*
X179937806Y-107173106D01*
X180213491Y-107078459D01*
X180444671Y-107000099D01*
X180623631Y-106940751D01*
X180742661Y-106903143D01*
X180794048Y-106890000D01*
X180829750Y-106894156D01*
G37*
G36*
X176135889Y-119010998D02*
G01*
X176185471Y-119026618D01*
X176302430Y-119066220D01*
X176479368Y-119127223D01*
X176708889Y-119207050D01*
X176983596Y-119303119D01*
X177296093Y-119412852D01*
X177638983Y-119533669D01*
X178004869Y-119662990D01*
X178187704Y-119727890D01*
X178604789Y-119877474D01*
X178970663Y-120010976D01*
X179281204Y-120126819D01*
X179532293Y-120223431D01*
X179719807Y-120299237D01*
X179839627Y-120352663D01*
X179887630Y-120382135D01*
X179908623Y-120431681D01*
X179886934Y-120520000D01*
X179853804Y-120542009D01*
X179744611Y-120591448D01*
X179561050Y-120664916D01*
X179304142Y-120762035D01*
X178974909Y-120882427D01*
X178574373Y-121025715D01*
X178103556Y-121191520D01*
X177563479Y-121379464D01*
X177561410Y-121380181D01*
X177152773Y-121521511D01*
X176816010Y-121637699D01*
X176766633Y-121654735D01*
X176409639Y-121777580D01*
X176088437Y-121887774D01*
X175809676Y-121983045D01*
X175580004Y-122061122D01*
X175406066Y-122119732D01*
X175294513Y-122156603D01*
X175251990Y-122169464D01*
X175245801Y-122162262D01*
X175235096Y-122096463D01*
X175230136Y-121976686D01*
X175231958Y-121820986D01*
X175243534Y-121471972D01*
X175724291Y-121303264D01*
X175759056Y-121291012D01*
X175928574Y-121229584D01*
X176059288Y-121179388D01*
X176138864Y-121145321D01*
X176154969Y-121132278D01*
X176145147Y-121125733D01*
X176131444Y-121084324D01*
X176120988Y-120998611D01*
X176113440Y-120861459D01*
X176108466Y-120665730D01*
X176106207Y-120450000D01*
X176785963Y-120450000D01*
X176787839Y-120602683D01*
X176794178Y-120751564D01*
X176803936Y-120852752D01*
X176816010Y-120890098D01*
X176819774Y-120889834D01*
X176882453Y-120875163D01*
X177000056Y-120841431D01*
X177157970Y-120793370D01*
X177341585Y-120735712D01*
X177536289Y-120673190D01*
X177727470Y-120610537D01*
X177900516Y-120552485D01*
X178040815Y-120503766D01*
X178133757Y-120469114D01*
X178164728Y-120453261D01*
X178125872Y-120436906D01*
X178025032Y-120400874D01*
X177877581Y-120350383D01*
X177698708Y-120290414D01*
X177503597Y-120225953D01*
X177307436Y-120161981D01*
X177125410Y-120103484D01*
X176972707Y-120055443D01*
X176864511Y-120022844D01*
X176816010Y-120010668D01*
X176805577Y-120037948D01*
X176795415Y-120130556D01*
X176788509Y-120273277D01*
X176785963Y-120450000D01*
X176106207Y-120450000D01*
X176105728Y-120404290D01*
X176104890Y-120070000D01*
X176105937Y-119793168D01*
X176108960Y-119539057D01*
X176113667Y-119323379D01*
X176119762Y-119156525D01*
X176126950Y-119048887D01*
X176134938Y-119010855D01*
X176135889Y-119010998D01*
G37*
G36*
X175412430Y-110780840D02*
G01*
X175518107Y-110816186D01*
X175684798Y-110873470D01*
X175904964Y-110950015D01*
X176171066Y-111043142D01*
X176475564Y-111150171D01*
X176810920Y-111268423D01*
X177169595Y-111395219D01*
X177544050Y-111527881D01*
X177926744Y-111663729D01*
X178310140Y-111800085D01*
X178686698Y-111934269D01*
X179048880Y-112063603D01*
X179389145Y-112185407D01*
X179699955Y-112297002D01*
X179973771Y-112395710D01*
X180203053Y-112478851D01*
X180380263Y-112543747D01*
X180497861Y-112587718D01*
X180548309Y-112608085D01*
X180564598Y-112617603D01*
X180673053Y-112709795D01*
X180787045Y-112843487D01*
X180885187Y-112990920D01*
X180946092Y-113124338D01*
X180966039Y-113200231D01*
X180993490Y-113472954D01*
X180954768Y-113734245D01*
X180853687Y-113968439D01*
X180694060Y-114159872D01*
X180672275Y-114178032D01*
X180626656Y-114210533D01*
X180566840Y-114245698D01*
X180487245Y-114285689D01*
X180382286Y-114332673D01*
X180246381Y-114388814D01*
X180073946Y-114456275D01*
X179859399Y-114537222D01*
X179597155Y-114633820D01*
X179281632Y-114748232D01*
X178907247Y-114882623D01*
X178468416Y-115039157D01*
X177959557Y-115220000D01*
X177712458Y-115307667D01*
X177291046Y-115456962D01*
X176895364Y-115596871D01*
X176531630Y-115725211D01*
X176206063Y-115839797D01*
X175924881Y-115938447D01*
X175694303Y-116018976D01*
X175520545Y-116079200D01*
X175409828Y-116116937D01*
X175368369Y-116130000D01*
X175361459Y-116116179D01*
X175353327Y-116039354D01*
X175350018Y-115910250D01*
X175352257Y-115746127D01*
X175363723Y-115362254D01*
X176946215Y-114806937D01*
X177481237Y-114619226D01*
X177979945Y-114444255D01*
X178412389Y-114292406D01*
X178783355Y-114161870D01*
X179097624Y-114050840D01*
X179359980Y-113957507D01*
X179575208Y-113880063D01*
X179748090Y-113816701D01*
X179883410Y-113765613D01*
X179985952Y-113724991D01*
X180060500Y-113693026D01*
X180111836Y-113667912D01*
X180144744Y-113647839D01*
X180164008Y-113631001D01*
X180174412Y-113615589D01*
X180180739Y-113599795D01*
X180187773Y-113581812D01*
X180213983Y-113477955D01*
X180190463Y-113347390D01*
X180184907Y-113326422D01*
X180180811Y-113302762D01*
X180175597Y-113281985D01*
X180163949Y-113261979D01*
X180140549Y-113240633D01*
X180100083Y-113215838D01*
X180037234Y-113185481D01*
X179946687Y-113147454D01*
X179823124Y-113099644D01*
X179661231Y-113039941D01*
X179455691Y-112966234D01*
X179201188Y-112876413D01*
X178892405Y-112768366D01*
X178524028Y-112639984D01*
X178090740Y-112489154D01*
X177587225Y-112313768D01*
X175363723Y-111538715D01*
X175352257Y-111154358D01*
X175350466Y-111051956D01*
X175353118Y-110906810D01*
X175361863Y-110807077D01*
X175375652Y-110770000D01*
X175412430Y-110780840D01*
G37*
G36*
X176484806Y-105736559D02*
G01*
X177162439Y-105737569D01*
X177916638Y-105739113D01*
X182713086Y-105750000D01*
X182804335Y-105841094D01*
X182895584Y-105932187D01*
X182915616Y-108476420D01*
X182935647Y-111020653D01*
X184274647Y-109676139D01*
X185613648Y-108331624D01*
X185802984Y-108500812D01*
X185892154Y-108584934D01*
X185965686Y-108664280D01*
X185994884Y-108710000D01*
X185988439Y-108720492D01*
X185935649Y-108781447D01*
X185833951Y-108891034D01*
X185688522Y-109043899D01*
X185504538Y-109234687D01*
X185287176Y-109458045D01*
X185041610Y-109708619D01*
X184773019Y-109981055D01*
X184486578Y-110270000D01*
X182975710Y-111790000D01*
X184558203Y-113358260D01*
X186140695Y-114926520D01*
X185962085Y-115108260D01*
X185873170Y-115193958D01*
X185790681Y-115263372D01*
X185744007Y-115290000D01*
X185743033Y-115289764D01*
X185702648Y-115257519D01*
X185611694Y-115174706D01*
X185475814Y-115046755D01*
X185300655Y-114879097D01*
X185091858Y-114677162D01*
X184855070Y-114446380D01*
X184595933Y-114192183D01*
X184320093Y-113920000D01*
X182935647Y-112550000D01*
X182915616Y-114778912D01*
X182895584Y-117007823D01*
X182804335Y-117098912D01*
X182713086Y-117190000D01*
X178223864Y-117199910D01*
X177916638Y-117200588D01*
X177127289Y-117202069D01*
X176399320Y-117202857D01*
X175747778Y-117202904D01*
X175170798Y-117202196D01*
X174666512Y-117200721D01*
X174233056Y-117198468D01*
X173868563Y-117195422D01*
X173571165Y-117191573D01*
X173338998Y-117186907D01*
X173170194Y-117181412D01*
X173062888Y-117175075D01*
X173015213Y-117167885D01*
X172956242Y-117135961D01*
X172890411Y-117063591D01*
X172848425Y-116950560D01*
X172826216Y-116784038D01*
X172819717Y-116551195D01*
X172819709Y-116525015D01*
X172818038Y-116356991D01*
X172809996Y-116246183D01*
X172790623Y-116172354D01*
X172754962Y-116115266D01*
X172698054Y-116054683D01*
X172576391Y-115933212D01*
X172578726Y-115341606D01*
X172578705Y-115266585D01*
X172575124Y-115045393D01*
X172567013Y-114845960D01*
X172555345Y-114687692D01*
X172541092Y-114590000D01*
X172534944Y-114563335D01*
X172510336Y-114406583D01*
X172499554Y-114250000D01*
X172495227Y-114128418D01*
X172477508Y-114038169D01*
X172438380Y-114006038D01*
X172369670Y-114032250D01*
X172263203Y-114117025D01*
X172110808Y-114260588D01*
X172017519Y-114353056D01*
X171876900Y-114498812D01*
X171757162Y-114630217D01*
X171677079Y-114727076D01*
X171666075Y-114741632D01*
X171560140Y-114850700D01*
X171467362Y-114889055D01*
X171376995Y-114890000D01*
X171387236Y-111483332D01*
X171387266Y-111473506D01*
X174342114Y-111473506D01*
X174342123Y-112112602D01*
X174342199Y-112762300D01*
X174342416Y-113340155D01*
X174342846Y-113850492D01*
X174343565Y-114297638D01*
X174344645Y-114685916D01*
X174346161Y-115019652D01*
X174348185Y-115303172D01*
X174350793Y-115540800D01*
X174354057Y-115736862D01*
X174358052Y-115895683D01*
X174362851Y-116021588D01*
X174368527Y-116118903D01*
X174375155Y-116191953D01*
X174382808Y-116245062D01*
X174391561Y-116282557D01*
X174401485Y-116308763D01*
X174412657Y-116328004D01*
X174425148Y-116344606D01*
X174508182Y-116450000D01*
X178186640Y-116450000D01*
X178223864Y-116450000D01*
X178845835Y-116449949D01*
X179392907Y-116449736D01*
X179870031Y-116449260D01*
X180282157Y-116448422D01*
X180634236Y-116447120D01*
X180931217Y-116445254D01*
X181178050Y-116442725D01*
X181379685Y-116439431D01*
X181541074Y-116435273D01*
X181667165Y-116430151D01*
X181762909Y-116423963D01*
X181833256Y-116416609D01*
X181883157Y-116407990D01*
X181917561Y-116398005D01*
X181941418Y-116386553D01*
X181959679Y-116373535D01*
X182054259Y-116297069D01*
X182054259Y-111470310D01*
X182054251Y-110994901D01*
X182054173Y-110322318D01*
X182053958Y-109722735D01*
X182053537Y-109191897D01*
X182052842Y-108725551D01*
X182051807Y-108319446D01*
X182050362Y-107969328D01*
X182048442Y-107670943D01*
X182045977Y-107420039D01*
X182042899Y-107212363D01*
X182039143Y-107043661D01*
X182034638Y-106909681D01*
X182029319Y-106806170D01*
X182023117Y-106728875D01*
X182015964Y-106673542D01*
X182007793Y-106635918D01*
X181998535Y-106611752D01*
X181988124Y-106596789D01*
X181976492Y-106586776D01*
X181957875Y-106578303D01*
X181917298Y-106569499D01*
X181852022Y-106561796D01*
X181757426Y-106555126D01*
X181628892Y-106549419D01*
X181461802Y-106544606D01*
X181251536Y-106540618D01*
X180993476Y-106537387D01*
X180683003Y-106534842D01*
X180315498Y-106532915D01*
X179886343Y-106531536D01*
X179390918Y-106530637D01*
X178824605Y-106530148D01*
X178182785Y-106530000D01*
X174466847Y-106530000D01*
X174404481Y-106618901D01*
X174397677Y-106631624D01*
X174388920Y-106660715D01*
X174381119Y-106706618D01*
X174374222Y-106773546D01*
X174368173Y-106865709D01*
X174362920Y-106987323D01*
X174358407Y-107142597D01*
X174354581Y-107335747D01*
X174351387Y-107570983D01*
X174348772Y-107852518D01*
X174346681Y-108184566D01*
X174345060Y-108571338D01*
X174343855Y-109017047D01*
X174343012Y-109525906D01*
X174342477Y-110102127D01*
X174342196Y-110749923D01*
X174342114Y-111473506D01*
X171387266Y-111473506D01*
X171387364Y-111441399D01*
X171389798Y-110775944D01*
X171392790Y-110188438D01*
X171396371Y-109676946D01*
X171400570Y-109239532D01*
X171405417Y-108874264D01*
X171410943Y-108579205D01*
X171417178Y-108352420D01*
X171424151Y-108191976D01*
X171431893Y-108095937D01*
X171440435Y-108062368D01*
X171449474Y-108063123D01*
X171505965Y-108101716D01*
X171593043Y-108184905D01*
X171695940Y-108299014D01*
X171804233Y-108421291D01*
X171939222Y-108563245D01*
X172078658Y-108701467D01*
X172210752Y-108824970D01*
X172323721Y-108922771D01*
X172405778Y-108983884D01*
X172445138Y-108997323D01*
X172451537Y-108987508D01*
X172473826Y-108906106D01*
X172496570Y-108757777D01*
X172518784Y-108552584D01*
X172539484Y-108300587D01*
X172557686Y-108011847D01*
X172572406Y-107696425D01*
X172574657Y-107638608D01*
X172584322Y-107402995D01*
X172593536Y-107232132D01*
X172604491Y-107113428D01*
X172619378Y-107034289D01*
X172640388Y-106982123D01*
X172669713Y-106944339D01*
X172709543Y-106908343D01*
X172717435Y-106901540D01*
X172765812Y-106854302D01*
X172795896Y-106802340D01*
X172812019Y-106726836D01*
X172818514Y-106608973D01*
X172819717Y-106429933D01*
X172821618Y-106299093D01*
X172838120Y-106093329D01*
X172875018Y-105946577D01*
X172936470Y-105845734D01*
X173026630Y-105777699D01*
X173029790Y-105776283D01*
X173066250Y-105768699D01*
X173136566Y-105761985D01*
X173244297Y-105756114D01*
X173393002Y-105751058D01*
X173586240Y-105746788D01*
X173827571Y-105743276D01*
X174120553Y-105740495D01*
X174468746Y-105738416D01*
X174875708Y-105737011D01*
X175345000Y-105736251D01*
X175880179Y-105736110D01*
X176484806Y-105736559D01*
G37*
G36*
X175264401Y-131052983D02*
G01*
X175349576Y-131077247D01*
X175479007Y-131120577D01*
X175635554Y-131176516D01*
X175802074Y-131238605D01*
X175961428Y-131300389D01*
X176096474Y-131355409D01*
X176190071Y-131397210D01*
X176225080Y-131419333D01*
X176223111Y-131428289D01*
X176194322Y-131495489D01*
X176138360Y-131607639D01*
X176064441Y-131746000D01*
X175903802Y-132038230D01*
X177937391Y-132746487D01*
X178130949Y-132814031D01*
X178625757Y-132988148D01*
X179045317Y-133138167D01*
X179390392Y-133264373D01*
X179661744Y-133367053D01*
X179860136Y-133446494D01*
X179986330Y-133502982D01*
X180041089Y-133536804D01*
X180085756Y-133614724D01*
X180111199Y-133730001D01*
X180095079Y-133819847D01*
X180041089Y-133924402D01*
X180027429Y-133936463D01*
X179939649Y-133986311D01*
X179782796Y-134058298D01*
X179562026Y-134150248D01*
X179282498Y-134259983D01*
X178949370Y-134385324D01*
X178947122Y-134386155D01*
X178674105Y-134487152D01*
X178423091Y-134580142D01*
X178204712Y-134661176D01*
X178029595Y-134726307D01*
X177908372Y-134771584D01*
X177851671Y-134793062D01*
X177833659Y-134802284D01*
X177828043Y-134815278D01*
X177844997Y-134833423D01*
X177891119Y-134859484D01*
X177973002Y-134896221D01*
X178097243Y-134946399D01*
X178270437Y-135012778D01*
X178499178Y-135098123D01*
X178790062Y-135205195D01*
X179149685Y-135336757D01*
X179202506Y-135356161D01*
X179439952Y-135446093D01*
X179653435Y-135531171D01*
X179830051Y-135605973D01*
X179956893Y-135665071D01*
X180021057Y-135703043D01*
X180037806Y-135719858D01*
X180099183Y-135839140D01*
X180108001Y-135979207D01*
X180060667Y-136103709D01*
X180042864Y-136115895D01*
X179954181Y-136156767D01*
X179796145Y-136220816D01*
X179572956Y-136306486D01*
X179288819Y-136412221D01*
X178947935Y-136536467D01*
X178554508Y-136677666D01*
X178112740Y-136834263D01*
X177626834Y-137004702D01*
X175243534Y-137836696D01*
X175232077Y-138222561D01*
X175220620Y-138608425D01*
X175772928Y-138412958D01*
X176339945Y-138212153D01*
X177021661Y-137970297D01*
X177632580Y-137753000D01*
X178175468Y-137559255D01*
X178653090Y-137388056D01*
X179068210Y-137238398D01*
X179423595Y-137109275D01*
X179722009Y-136999681D01*
X179966217Y-136908610D01*
X180158985Y-136835057D01*
X180303078Y-136778016D01*
X180401261Y-136736480D01*
X180456299Y-136709445D01*
X180514970Y-136671212D01*
X180685618Y-136500960D01*
X180803287Y-136279713D01*
X180860619Y-136020016D01*
X180858055Y-135759285D01*
X180795368Y-135529324D01*
X180667284Y-135327004D01*
X180468938Y-135144683D01*
X180195469Y-134974720D01*
X179899139Y-134817072D01*
X180153638Y-134688803D01*
X180287989Y-134616045D01*
X180440899Y-134522896D01*
X180557009Y-134441086D01*
X180704922Y-134279153D01*
X180812412Y-134062639D01*
X180864984Y-133819259D01*
X180858560Y-133568537D01*
X180789063Y-133330000D01*
X180760550Y-133263963D01*
X180737625Y-133198682D01*
X180743969Y-133190000D01*
X180749812Y-133198603D01*
X180789796Y-133266474D01*
X180863108Y-133395296D01*
X180966141Y-133578524D01*
X181095287Y-133809611D01*
X181246936Y-134082010D01*
X181417483Y-134389175D01*
X181603319Y-134724560D01*
X181800835Y-135081617D01*
X182006424Y-135453801D01*
X182216479Y-135834564D01*
X182427391Y-136217360D01*
X182635552Y-136595644D01*
X182837355Y-136962867D01*
X183029191Y-137312484D01*
X183207454Y-137637948D01*
X183368534Y-137932712D01*
X183508824Y-138190230D01*
X183624716Y-138403956D01*
X183712602Y-138567343D01*
X183768875Y-138673844D01*
X183789926Y-138716913D01*
X183784796Y-138729215D01*
X183750996Y-138741831D01*
X183680081Y-138751685D01*
X183564884Y-138759076D01*
X183398237Y-138764304D01*
X183172973Y-138767668D01*
X182881924Y-138769467D01*
X182517922Y-138770000D01*
X181232966Y-138770000D01*
X181232966Y-140370000D01*
X181232966Y-141970000D01*
X180932493Y-141970000D01*
X180632020Y-141970000D01*
X180632020Y-140370000D01*
X180632020Y-138770000D01*
X177927761Y-138770000D01*
X175223502Y-138770000D01*
X175223502Y-140370000D01*
X175223502Y-141970000D01*
X174923029Y-141970000D01*
X174622556Y-141970000D01*
X174622556Y-140370000D01*
X174622556Y-138770000D01*
X173417726Y-138770000D01*
X173212090Y-138769830D01*
X172902441Y-138768540D01*
X172661378Y-138765703D01*
X172481500Y-138760991D01*
X172355408Y-138754071D01*
X172275702Y-138744614D01*
X172234982Y-138732289D01*
X172225849Y-138716766D01*
X172226472Y-138715107D01*
X172252111Y-138665023D01*
X172312489Y-138552131D01*
X172404124Y-138382760D01*
X172523535Y-138163236D01*
X172667240Y-137899889D01*
X172831757Y-137599047D01*
X173013606Y-137267038D01*
X173209303Y-136910190D01*
X173415369Y-136534831D01*
X173628321Y-136147289D01*
X173844677Y-135753893D01*
X174060957Y-135360970D01*
X174273678Y-134974850D01*
X174479359Y-134601859D01*
X174674518Y-134248327D01*
X174855674Y-133920581D01*
X175019346Y-133624950D01*
X175162050Y-133367762D01*
X175280307Y-133155345D01*
X175370634Y-132994027D01*
X175429551Y-132890136D01*
X175453574Y-132850000D01*
X175455442Y-132849608D01*
X175507769Y-132861799D01*
X175623340Y-132895922D01*
X175791533Y-132948433D01*
X176001726Y-133015786D01*
X176243297Y-133094436D01*
X176505623Y-133180836D01*
X176778082Y-133271441D01*
X177050052Y-133362706D01*
X177310909Y-133451084D01*
X177550032Y-133533031D01*
X177756799Y-133605000D01*
X177920586Y-133663446D01*
X178030772Y-133704823D01*
X178076734Y-133725586D01*
X178075140Y-133729316D01*
X178023553Y-133757569D01*
X177908661Y-133808524D01*
X177739414Y-133878534D01*
X177524760Y-133963953D01*
X177273649Y-134061132D01*
X176995031Y-134166425D01*
X176960033Y-134179503D01*
X176660383Y-134291550D01*
X176370287Y-134400141D01*
X176102843Y-134500365D01*
X175871151Y-134587310D01*
X175688313Y-134656064D01*
X175567427Y-134701715D01*
X175250311Y-134822057D01*
X175447238Y-134897798D01*
X175512676Y-134923293D01*
X175654064Y-134980140D01*
X175764354Y-135026653D01*
X175774548Y-135030989D01*
X175859152Y-135064458D01*
X176005665Y-135120617D01*
X176203468Y-135195460D01*
X176441938Y-135284981D01*
X176710455Y-135385175D01*
X176998398Y-135492037D01*
X178112253Y-135904306D01*
X177274950Y-136190888D01*
X177273395Y-136191420D01*
X176978557Y-136291582D01*
X176662671Y-136397623D01*
X176349924Y-136501510D01*
X176064497Y-136595210D01*
X175830575Y-136670688D01*
X175223502Y-136863906D01*
X175223502Y-137236953D01*
X175224573Y-137328963D01*
X175231385Y-137473408D01*
X175243093Y-137572931D01*
X175258072Y-137610000D01*
X175284787Y-137602326D01*
X175381435Y-137570889D01*
X175541974Y-137517297D01*
X175759744Y-137443827D01*
X176028084Y-137352761D01*
X176340335Y-137246377D01*
X176689835Y-137126953D01*
X177069924Y-136996771D01*
X177473942Y-136858108D01*
X177895229Y-136713243D01*
X178327124Y-136564457D01*
X178762968Y-136414028D01*
X179196098Y-136264236D01*
X179619856Y-136117360D01*
X179774454Y-136056253D01*
X179866575Y-135996798D01*
X179896741Y-135932823D01*
X179873674Y-135855323D01*
X179870995Y-135851693D01*
X179810284Y-135813720D01*
X179676384Y-135751669D01*
X179471780Y-135666502D01*
X179198954Y-135559180D01*
X178860391Y-135430662D01*
X178458575Y-135281910D01*
X177995987Y-135113885D01*
X177475113Y-134927546D01*
X177470958Y-134926064D01*
X177350327Y-134877476D01*
X177272720Y-134835480D01*
X177254766Y-134809023D01*
X177278200Y-134797705D01*
X177369726Y-134761036D01*
X177521397Y-134703283D01*
X177724173Y-134627802D01*
X177969014Y-134537949D01*
X178246883Y-134437081D01*
X178548739Y-134328554D01*
X178734813Y-134261766D01*
X179065436Y-134141571D01*
X179330132Y-134042519D01*
X179535636Y-133961628D01*
X179688678Y-133895915D01*
X179795992Y-133842399D01*
X179864309Y-133798098D01*
X179900362Y-133760030D01*
X179910884Y-133725212D01*
X179910876Y-133724406D01*
X179902530Y-133699609D01*
X179874656Y-133671534D01*
X179821605Y-133637982D01*
X179737727Y-133596753D01*
X179617373Y-133545649D01*
X179454894Y-133482469D01*
X179244638Y-133405014D01*
X178980958Y-133311085D01*
X178658204Y-133198482D01*
X178270725Y-133065007D01*
X177812873Y-132908459D01*
X177593451Y-132833606D01*
X177188959Y-132695440D01*
X176851454Y-132579613D01*
X176574956Y-132483753D01*
X176353489Y-132405491D01*
X176181074Y-132342457D01*
X176051733Y-132292282D01*
X175959488Y-132252596D01*
X175898361Y-132221028D01*
X175862374Y-132195210D01*
X175845549Y-132172771D01*
X175841909Y-132151341D01*
X175845474Y-132128552D01*
X175851299Y-132092124D01*
X175842374Y-132050544D01*
X175799588Y-132015667D01*
X175708664Y-131977534D01*
X175555325Y-131926189D01*
X175243534Y-131825274D01*
X175232067Y-131437637D01*
X175229860Y-131332360D01*
X175230395Y-131186946D01*
X175235512Y-131087100D01*
X175244652Y-131050000D01*
X175264401Y-131052983D01*
G37*
G36*
X175406295Y-117859997D02*
G01*
X175523212Y-117894525D01*
X175700807Y-117951066D01*
X175931229Y-118026874D01*
X176206625Y-118119201D01*
X176519142Y-118225302D01*
X176860929Y-118342429D01*
X177224133Y-118467837D01*
X177600901Y-118598779D01*
X177983381Y-118732508D01*
X178363721Y-118866277D01*
X178734069Y-118997341D01*
X179086572Y-119122953D01*
X179413377Y-119240366D01*
X179706633Y-119346833D01*
X179958487Y-119439609D01*
X180161087Y-119515946D01*
X180306580Y-119573099D01*
X180387114Y-119608320D01*
X180572200Y-119731354D01*
X180737929Y-119923975D01*
X180838519Y-120162006D01*
X180872398Y-120442747D01*
X180849374Y-120700176D01*
X180766700Y-120950445D01*
X180625276Y-121148840D01*
X180426531Y-121292635D01*
X180422440Y-121294632D01*
X180348026Y-121325379D01*
X180205880Y-121379867D01*
X180002989Y-121455551D01*
X179746341Y-121549888D01*
X179442922Y-121660331D01*
X179099721Y-121784336D01*
X178723724Y-121919360D01*
X178321920Y-122062856D01*
X177901295Y-122212280D01*
X177831744Y-122236929D01*
X177417544Y-122383998D01*
X177025820Y-122523543D01*
X176663205Y-122653174D01*
X176336334Y-122770498D01*
X176051840Y-122873123D01*
X175816357Y-122958658D01*
X175636519Y-123024710D01*
X175518960Y-123068887D01*
X175470314Y-123088798D01*
X175481813Y-123097545D01*
X175568165Y-123106704D01*
X175732891Y-123114312D01*
X175975042Y-123120347D01*
X176293669Y-123124785D01*
X176687820Y-123127605D01*
X177156546Y-123128784D01*
X178909307Y-123130000D01*
X178909307Y-124310000D01*
X178909307Y-125490000D01*
X178628865Y-125490000D01*
X178592983Y-125490055D01*
X178460107Y-125493143D01*
X178386558Y-125504716D01*
X178355081Y-125529939D01*
X178348423Y-125573980D01*
X178352604Y-125612469D01*
X178375596Y-125636737D01*
X178432703Y-125648106D01*
X178539230Y-125649534D01*
X178710478Y-125643980D01*
X178811818Y-125639156D01*
X178969659Y-125624667D01*
X179065225Y-125602353D01*
X179110495Y-125570000D01*
X179111935Y-125566969D01*
X179121941Y-125501571D01*
X179130804Y-125366772D01*
X179138236Y-125171894D01*
X179143950Y-124926258D01*
X179147658Y-124639187D01*
X179149072Y-124320000D01*
X179149685Y-123130000D01*
X179531820Y-123130000D01*
X179913955Y-123130000D01*
X179902404Y-124466628D01*
X179890852Y-125803255D01*
X179770663Y-125973065D01*
X179711645Y-126050627D01*
X179604316Y-126157474D01*
X179478758Y-126232389D01*
X179319620Y-126281144D01*
X179111550Y-126309512D01*
X178839196Y-126323263D01*
X178830111Y-126323508D01*
X178627886Y-126329494D01*
X178492052Y-126336454D01*
X178409399Y-126347351D01*
X178366717Y-126365144D01*
X178350795Y-126392794D01*
X178348423Y-126433263D01*
X178348423Y-126530000D01*
X178850499Y-126530000D01*
X178984673Y-126529119D01*
X179211135Y-126520068D01*
X179385500Y-126497515D01*
X179526450Y-126456919D01*
X179652668Y-126393742D01*
X179782834Y-126303444D01*
X179834829Y-126255998D01*
X179934166Y-126132712D01*
X180014961Y-125994682D01*
X180038069Y-125943907D01*
X180059401Y-125889071D01*
X180076071Y-125828337D01*
X180088657Y-125752443D01*
X180097738Y-125652126D01*
X180103892Y-125518124D01*
X180107697Y-125341173D01*
X180109733Y-125112011D01*
X180110577Y-124821374D01*
X180110808Y-124460000D01*
X180111199Y-123130000D01*
X180493622Y-123130000D01*
X180876045Y-123130000D01*
X180864206Y-124620000D01*
X180852367Y-126110000D01*
X180733551Y-126344367D01*
X180622513Y-126529681D01*
X180392809Y-126796928D01*
X180111564Y-127019285D01*
X179793369Y-127186020D01*
X179452816Y-127286398D01*
X179376613Y-127297666D01*
X179199689Y-127314301D01*
X178991178Y-127325743D01*
X178781759Y-127330000D01*
X178348423Y-127330000D01*
X178348423Y-127670000D01*
X178348423Y-128010000D01*
X178248266Y-128010000D01*
X178148108Y-128010000D01*
X178148108Y-129190000D01*
X178148108Y-130370000D01*
X178668005Y-130370000D01*
X178684194Y-130370001D01*
X178892294Y-130370720D01*
X179035689Y-130374418D01*
X179128854Y-130383508D01*
X179186264Y-130400401D01*
X179222393Y-130427508D01*
X179251716Y-130467241D01*
X179275593Y-130502239D01*
X179317381Y-130540094D01*
X179375884Y-130539833D01*
X179480251Y-130506456D01*
X179667660Y-130419764D01*
X179870414Y-130254704D01*
X180014961Y-130034682D01*
X180042659Y-129973003D01*
X180064571Y-129913306D01*
X180081174Y-129845837D01*
X180093210Y-129760278D01*
X180101419Y-129646312D01*
X180106542Y-129493620D01*
X180109321Y-129291883D01*
X180110496Y-129030782D01*
X180110808Y-128700000D01*
X180111199Y-127570000D01*
X180493854Y-127570000D01*
X180876509Y-127570000D01*
X180864438Y-128860000D01*
X180852367Y-130150000D01*
X180738121Y-130366694D01*
X180677582Y-130471001D01*
X180479411Y-130730409D01*
X180238845Y-130958478D01*
X179979921Y-131130977D01*
X179972056Y-131135111D01*
X179847970Y-131200922D01*
X179756171Y-131250668D01*
X179716027Y-131273862D01*
X179726340Y-131301586D01*
X179770303Y-131390921D01*
X179843901Y-131532655D01*
X179942159Y-131717351D01*
X180060100Y-131935573D01*
X180192749Y-132177884D01*
X180305548Y-132382795D01*
X180430080Y-132609236D01*
X180537633Y-132805040D01*
X180622794Y-132960344D01*
X180680151Y-133065285D01*
X180704291Y-133110000D01*
X180705674Y-133116619D01*
X180675641Y-133101175D01*
X180608168Y-133044888D01*
X180597374Y-133035292D01*
X180490130Y-132950818D01*
X180391641Y-132888028D01*
X180377145Y-132881586D01*
X180291883Y-132848340D01*
X180141548Y-132792257D01*
X179933557Y-132716022D01*
X179675327Y-132622320D01*
X179374272Y-132513836D01*
X179037810Y-132393255D01*
X178673357Y-132263262D01*
X178288329Y-132126541D01*
X178262325Y-132117327D01*
X177887570Y-131984413D01*
X177826145Y-131962628D01*
X177459268Y-131831996D01*
X177155755Y-131723032D01*
X176909666Y-131633336D01*
X176715060Y-131560508D01*
X176565999Y-131502150D01*
X176456542Y-131455862D01*
X176380750Y-131419244D01*
X176332683Y-131389898D01*
X176306402Y-131365423D01*
X176295966Y-131343420D01*
X176295436Y-131321491D01*
X176290049Y-131260839D01*
X176275556Y-131243530D01*
X176341989Y-131243530D01*
X176553960Y-131289789D01*
X176565110Y-131291938D01*
X176668883Y-131302789D01*
X176833799Y-131311445D01*
X177048992Y-131317976D01*
X177303595Y-131322454D01*
X177586743Y-131324948D01*
X177887570Y-131325529D01*
X178195209Y-131324269D01*
X178498794Y-131321237D01*
X178787460Y-131316504D01*
X179050340Y-131310142D01*
X179276569Y-131302220D01*
X179455279Y-131292809D01*
X179575606Y-131281981D01*
X179626683Y-131269805D01*
X179627808Y-131268573D01*
X179628383Y-131208247D01*
X179581113Y-131085351D01*
X179485762Y-130899262D01*
X179304632Y-130568914D01*
X178047950Y-130579087D01*
X178002190Y-130579457D01*
X177433649Y-130584059D01*
X176699747Y-130590000D01*
X176520868Y-130916765D01*
X176341989Y-131243530D01*
X176275556Y-131243530D01*
X176242608Y-131204181D01*
X176135184Y-131142839D01*
X176034393Y-131087382D01*
X175793049Y-130905779D01*
X175574917Y-130676501D01*
X175398426Y-130420782D01*
X175282007Y-130159856D01*
X175277719Y-130144777D01*
X175261616Y-130055089D01*
X175248884Y-129919333D01*
X175239249Y-129730728D01*
X175232437Y-129482491D01*
X175228173Y-129167843D01*
X175226182Y-128780000D01*
X175223502Y-127570000D01*
X175604102Y-127570000D01*
X175984701Y-127570000D01*
X175985680Y-128620000D01*
X175987008Y-128866066D01*
X175991207Y-129144979D01*
X175997829Y-129395807D01*
X176006431Y-129605572D01*
X176016569Y-129761296D01*
X176027797Y-129850000D01*
X176113464Y-130080618D01*
X176267681Y-130281528D01*
X176487303Y-130436326D01*
X176519232Y-130452991D01*
X176626177Y-130506013D01*
X176688308Y-130524739D01*
X176726909Y-130511731D01*
X176763261Y-130469552D01*
X176788300Y-130435329D01*
X176818298Y-130371231D01*
X176787931Y-130330043D01*
X176714733Y-130301221D01*
X176866089Y-130301221D01*
X176866192Y-130304078D01*
X176883630Y-130331261D01*
X176938415Y-130350151D01*
X177041227Y-130362041D01*
X177202746Y-130368226D01*
X177433649Y-130370000D01*
X177947792Y-130370000D01*
X177947792Y-129190000D01*
X177947792Y-128010000D01*
X177847635Y-128010000D01*
X177847163Y-128010001D01*
X177798949Y-128013165D01*
X177769496Y-128033168D01*
X177754181Y-128085800D01*
X177748383Y-128186852D01*
X177747477Y-128352113D01*
X177747477Y-128694226D01*
X177306783Y-129490000D01*
X177238369Y-129613726D01*
X177118936Y-129830684D01*
X177016521Y-130017983D01*
X176936595Y-130165552D01*
X176884627Y-130263321D01*
X176866089Y-130301221D01*
X176714733Y-130301221D01*
X176688448Y-130290871D01*
X176561017Y-130222754D01*
X176419486Y-130096262D01*
X176300750Y-129941104D01*
X176227969Y-129782832D01*
X176221529Y-129749779D01*
X176209534Y-129627526D01*
X176199529Y-129440911D01*
X176191891Y-129200444D01*
X176187002Y-128916637D01*
X176185240Y-128600000D01*
X176185016Y-127570000D01*
X176584971Y-127570000D01*
X176984926Y-127570000D01*
X176995618Y-128600000D01*
X177006310Y-129630000D01*
X177096452Y-129642783D01*
X177186594Y-129655565D01*
X177186594Y-128832783D01*
X177186594Y-128010000D01*
X177467035Y-128010000D01*
X177747477Y-128010000D01*
X177747477Y-127670000D01*
X177747477Y-127330000D01*
X177336830Y-127329769D01*
X177140235Y-127327094D01*
X176846556Y-127308550D01*
X176599385Y-127269106D01*
X176378223Y-127204969D01*
X176162575Y-127112342D01*
X176138516Y-127100287D01*
X175875341Y-126930000D01*
X177747477Y-126930000D01*
X177747477Y-127290000D01*
X178047950Y-127290000D01*
X178348423Y-127290000D01*
X178348423Y-126930000D01*
X178348423Y-126570000D01*
X178047950Y-126570000D01*
X177747477Y-126570000D01*
X177747477Y-126930000D01*
X175875341Y-126930000D01*
X175825686Y-126897871D01*
X175568360Y-126639699D01*
X175371761Y-126330930D01*
X175243534Y-126071859D01*
X175232018Y-124226850D01*
X175229167Y-123770000D01*
X175984701Y-123770000D01*
X175987405Y-124720000D01*
X175990395Y-125071672D01*
X175999621Y-125388329D01*
X176017635Y-125643107D01*
X176047076Y-125845425D01*
X176090583Y-126004704D01*
X176150796Y-126130366D01*
X176230353Y-126231830D01*
X176331895Y-126318516D01*
X176458060Y-126399846D01*
X176533725Y-126441841D01*
X176609434Y-126473826D01*
X176696348Y-126495126D01*
X176811695Y-126508633D01*
X176972706Y-126517239D01*
X177196609Y-126523836D01*
X177747477Y-126537672D01*
X177747477Y-126433836D01*
X177748617Y-126395061D01*
X177762370Y-126357843D01*
X177805584Y-126338484D01*
X177895148Y-126331149D01*
X178047950Y-126330000D01*
X178348423Y-126330000D01*
X178348423Y-125990000D01*
X178348423Y-125650000D01*
X178047950Y-125650000D01*
X177993863Y-125649875D01*
X177861162Y-125646420D01*
X177786934Y-125634903D01*
X177754574Y-125610903D01*
X177747477Y-125570000D01*
X177769095Y-125508750D01*
X177847635Y-125490000D01*
X177887830Y-125488106D01*
X177927973Y-125467914D01*
X177944545Y-125408698D01*
X177947792Y-125290000D01*
X177948741Y-125209736D01*
X177958853Y-125129577D01*
X177988508Y-125096485D01*
X178047950Y-125090000D01*
X178088146Y-125091895D01*
X178128288Y-125112087D01*
X178144861Y-125171303D01*
X178148108Y-125290000D01*
X178149057Y-125370265D01*
X178159169Y-125450424D01*
X178188823Y-125483516D01*
X178248266Y-125490000D01*
X178288461Y-125488106D01*
X178328604Y-125467914D01*
X178345176Y-125408698D01*
X178348423Y-125290000D01*
X178347475Y-125209736D01*
X178337363Y-125129577D01*
X178307708Y-125096485D01*
X178248266Y-125090000D01*
X178148108Y-125090000D01*
X178148108Y-124430000D01*
X178148108Y-123770000D01*
X177066404Y-123770000D01*
X175984701Y-123770000D01*
X175229167Y-123770000D01*
X175220503Y-122381841D01*
X176854574Y-121808734D01*
X176942055Y-121778052D01*
X177325744Y-121643485D01*
X177713583Y-121507464D01*
X178092282Y-121374651D01*
X178448548Y-121249707D01*
X178769092Y-121137294D01*
X179040620Y-121042071D01*
X179249843Y-120968702D01*
X179249974Y-120968656D01*
X179520898Y-120872235D01*
X179725099Y-120795755D01*
X179872208Y-120734910D01*
X179971854Y-120685393D01*
X180033669Y-120642898D01*
X180067281Y-120603117D01*
X180090156Y-120548282D01*
X180096011Y-120403899D01*
X180038508Y-120259078D01*
X180024787Y-120250219D01*
X179944795Y-120214315D01*
X179800044Y-120155639D01*
X179597557Y-120076849D01*
X179344357Y-119980602D01*
X179047467Y-119869557D01*
X178713910Y-119746372D01*
X178350710Y-119613705D01*
X177964888Y-119474214D01*
X175924606Y-118740273D01*
X175914003Y-119935137D01*
X175903400Y-121130000D01*
X175563451Y-121130000D01*
X175223502Y-121130000D01*
X175223502Y-119490000D01*
X175223502Y-117850000D01*
X175360026Y-117850000D01*
X175406295Y-117859997D01*
G37*
G36*
X179910884Y-128657372D02*
G01*
X179910854Y-128772679D01*
X179910190Y-129074924D01*
X179908147Y-129310884D01*
X179904053Y-129490884D01*
X179897237Y-129625250D01*
X179887029Y-129724310D01*
X179872759Y-129798388D01*
X179853756Y-129857812D01*
X179829349Y-129912906D01*
X179817177Y-129936445D01*
X179689972Y-130101140D01*
X179514161Y-130239093D01*
X179317439Y-130327853D01*
X179191693Y-130363859D01*
X178770058Y-129600507D01*
X178348423Y-128837156D01*
X178348423Y-128423578D01*
X178348423Y-128010000D01*
X178628865Y-128010000D01*
X178909307Y-128010000D01*
X178909307Y-128830000D01*
X178909307Y-129650000D01*
X179005178Y-129650000D01*
X179070700Y-129635926D01*
X179125367Y-129586729D01*
X179130169Y-129554979D01*
X179136460Y-129449644D01*
X179141832Y-129284359D01*
X179146011Y-129070916D01*
X179148721Y-128821109D01*
X179149685Y-128546729D01*
X179149685Y-127570000D01*
X179530285Y-127570000D01*
X179910884Y-127570000D01*
X179910884Y-128657372D01*
G37*
D14*
X195802041Y-143449416D02*
X193005114Y-143449416D01*
X193102901Y-143300174D01*
X193160720Y-143233470D01*
X193318561Y-143103853D01*
X193513440Y-142980711D01*
X193582043Y-142946428D01*
X193859147Y-142838855D01*
X194203812Y-142735436D01*
X194571601Y-142647242D01*
X194918073Y-142585346D01*
X195198791Y-142560818D01*
X195243258Y-142559624D01*
X195422539Y-142539769D01*
X195538843Y-142503945D01*
X195539029Y-142503828D01*
X195576327Y-142478980D01*
X195586593Y-142452722D01*
X195554495Y-142410669D01*
X195464703Y-142338435D01*
X195301888Y-142221632D01*
X195050720Y-142045876D01*
X194925652Y-141951226D01*
X194824840Y-141838750D01*
X194817104Y-141746629D01*
X194832177Y-141696203D01*
X194865756Y-141529720D01*
X194895505Y-141322166D01*
X194912376Y-141210684D01*
X194954990Y-141043836D01*
X195002121Y-140958014D01*
X195036852Y-140944007D01*
X195179758Y-140920229D01*
X195373416Y-140910389D01*
X195473149Y-140907263D01*
X195618073Y-140888909D01*
X195675041Y-140859785D01*
X195673149Y-140853875D01*
X195605222Y-140789603D01*
X195459398Y-140684510D01*
X195262442Y-140558160D01*
X195056437Y-140422567D01*
X194899774Y-140285772D01*
X194848720Y-140179166D01*
X194820403Y-140004365D01*
X194732886Y-139925345D01*
X194676301Y-139938451D01*
X194587742Y-139958962D01*
X194481321Y-140016399D01*
X194413677Y-140057424D01*
X194411932Y-140060709D01*
X194441091Y-140128805D01*
X194524802Y-140247886D01*
X194534697Y-140260594D01*
X194640023Y-140435269D01*
X194637938Y-140553241D01*
X194528546Y-140624776D01*
X194453128Y-140659004D01*
X194419078Y-140708430D01*
X194426618Y-140723441D01*
X194479863Y-140828467D01*
X194559585Y-140985125D01*
X194567731Y-141001189D01*
X194635597Y-141161484D01*
X194640771Y-141290813D01*
X194587424Y-141460365D01*
X194445307Y-141698791D01*
X194207479Y-141887309D01*
X194203436Y-141890513D01*
X193982741Y-141968760D01*
X193888350Y-142002225D01*
X193515710Y-142030941D01*
X193101177Y-141973681D01*
X192660411Y-141827459D01*
X192647925Y-141822162D01*
X192580874Y-141800962D01*
X192589493Y-141838107D01*
X192676286Y-141953466D01*
X192695230Y-141978383D01*
X192806709Y-142202747D01*
X192809351Y-142401868D01*
X192718998Y-142564390D01*
X192551491Y-142678958D01*
X192322672Y-142734219D01*
X192282194Y-142731945D01*
X192048381Y-142718815D01*
X191744462Y-142621393D01*
X191649435Y-142580252D01*
X191546987Y-142542610D01*
X191507721Y-142528184D01*
X191441810Y-142517981D01*
X191443053Y-142527196D01*
X191500906Y-142602463D01*
X191620798Y-142731874D01*
X191779008Y-142892206D01*
X191951816Y-143060239D01*
X192115502Y-143212750D01*
X192246344Y-143326518D01*
X192320624Y-143378320D01*
X192361892Y-143353645D01*
X192345492Y-143221295D01*
X192321003Y-143110139D01*
X192337271Y-143080599D01*
X192415905Y-143141568D01*
X192551074Y-143241046D01*
X192722291Y-143343676D01*
X192777260Y-143375018D01*
X192803742Y-143402886D01*
X192774702Y-143422224D01*
X192675845Y-143434662D01*
X192492876Y-143441829D01*
X192211498Y-143445356D01*
X191817416Y-143446874D01*
X190722041Y-143449416D01*
X190722041Y-141436604D01*
X190857801Y-141436604D01*
X190887063Y-141705119D01*
X190953006Y-141915164D01*
X191099751Y-142100022D01*
X191311118Y-142212194D01*
X191546987Y-142236902D01*
X191775842Y-142176950D01*
X191966165Y-142035145D01*
X192086439Y-141814291D01*
X192099368Y-141760673D01*
X192079952Y-141688037D01*
X191964571Y-141671416D01*
X191927808Y-141670417D01*
X191826868Y-141632438D01*
X191801541Y-141512666D01*
X191801549Y-141509499D01*
X191831358Y-141387968D01*
X191935335Y-141353916D01*
X192026090Y-141333746D01*
X192028085Y-141298120D01*
X192944541Y-141298120D01*
X192963178Y-141340635D01*
X193069197Y-141340129D01*
X193267426Y-141255882D01*
X193346663Y-141217132D01*
X193444751Y-141195115D01*
X193542451Y-141235272D01*
X193687889Y-141348164D01*
X193764080Y-141406226D01*
X193900382Y-141485433D01*
X193982741Y-141498946D01*
X193992295Y-141480857D01*
X193950978Y-141398466D01*
X193837759Y-141284975D01*
X193628810Y-141110537D01*
X193826426Y-141008346D01*
X193851431Y-140994774D01*
X193966893Y-140910480D01*
X194023268Y-140835388D01*
X194009096Y-140795091D01*
X193913394Y-140815085D01*
X193912916Y-140815184D01*
X193712887Y-140897570D01*
X193560258Y-140949029D01*
X193458414Y-140953738D01*
X193371449Y-140912246D01*
X193263455Y-140825100D01*
X193213216Y-140785680D01*
X193079160Y-140707514D01*
X192996793Y-140696900D01*
X192993068Y-140696420D01*
X192981753Y-140710313D01*
X193013140Y-140789786D01*
X193133416Y-140908090D01*
X193341483Y-141077906D01*
X193143012Y-141160115D01*
X193125406Y-141167627D01*
X192997101Y-141238626D01*
X192944541Y-141298120D01*
X192028085Y-141298120D01*
X192030585Y-141253473D01*
X192012980Y-141201136D01*
X191992041Y-141094906D01*
X191974142Y-141052657D01*
X191890797Y-140934718D01*
X191762402Y-140782599D01*
X191616374Y-140646738D01*
X191394496Y-140534234D01*
X191185554Y-140538297D01*
X191002709Y-140661033D01*
X190973408Y-140701302D01*
X190902642Y-140892590D01*
X190863550Y-141151725D01*
X190857801Y-141436604D01*
X190722041Y-141436604D01*
X190722041Y-140026392D01*
X191992299Y-140026392D01*
X192008154Y-140204314D01*
X192086467Y-140337232D01*
X192126171Y-140362549D01*
X192282194Y-140384039D01*
X192437070Y-140327865D01*
X192531838Y-140210769D01*
X192549136Y-140128381D01*
X192524785Y-139944710D01*
X192427789Y-139804647D01*
X192283942Y-139735960D01*
X192119041Y-139766416D01*
X192035712Y-139859340D01*
X191992299Y-140026392D01*
X190722041Y-140026392D01*
X190722041Y-139722530D01*
X193143438Y-139722530D01*
X193246166Y-139811079D01*
X193275232Y-139831637D01*
X193321954Y-139893075D01*
X193262041Y-139958601D01*
X193227657Y-139987510D01*
X193233888Y-140012712D01*
X193349947Y-140000813D01*
X193512937Y-140006502D01*
X193746822Y-140097364D01*
X193795539Y-140124379D01*
X193913394Y-140171066D01*
X193960541Y-140157968D01*
X193934653Y-140110693D01*
X193830198Y-140051105D01*
X193800449Y-140041033D01*
X193737233Y-139992645D01*
X193782573Y-139908814D01*
X193816584Y-139864146D01*
X193814781Y-139828712D01*
X193709769Y-139848017D01*
X193579541Y-139851776D01*
X193572976Y-139851965D01*
X193344644Y-139758600D01*
X193229191Y-139698598D01*
X193143789Y-139681835D01*
X193143438Y-139722530D01*
X190722041Y-139722530D01*
X190722041Y-139575916D01*
X194676301Y-139575916D01*
X194692908Y-139568729D01*
X194782372Y-139501135D01*
X194913041Y-139385416D01*
X195014064Y-139280213D01*
X195059858Y-139205560D01*
X195026184Y-139199117D01*
X194913041Y-139276311D01*
X194844191Y-139338834D01*
X194746782Y-139445953D01*
X194681102Y-139537277D01*
X194676301Y-139575916D01*
X190722041Y-139575916D01*
X190722041Y-139202398D01*
X194207479Y-139202398D01*
X194236999Y-139189625D01*
X194254265Y-139167662D01*
X194332203Y-139046394D01*
X194419531Y-138888416D01*
X194497846Y-138730296D01*
X194548750Y-138608607D01*
X194553841Y-138559916D01*
X194528350Y-138574836D01*
X194450907Y-138672025D01*
X194357131Y-138829791D01*
X194276818Y-138994791D01*
X194223817Y-139128271D01*
X194207479Y-139202398D01*
X190722041Y-139202398D01*
X190722041Y-138951573D01*
X192888447Y-138951573D01*
X192944541Y-139067916D01*
X192952894Y-139080695D01*
X192996793Y-139126854D01*
X193007069Y-139055789D01*
X192999793Y-138999788D01*
X192944541Y-138909166D01*
X192897770Y-138896043D01*
X192888447Y-138951573D01*
X190722041Y-138951573D01*
X190722041Y-138750416D01*
X193516041Y-138750416D01*
X193520327Y-138864785D01*
X193543318Y-139010806D01*
X193579541Y-139067916D01*
X193602415Y-139046490D01*
X193631619Y-138931532D01*
X193643041Y-138750416D01*
X193638756Y-138636048D01*
X193615765Y-138490027D01*
X193579541Y-138432916D01*
X193556668Y-138454343D01*
X193527464Y-138569301D01*
X193516041Y-138750416D01*
X190722041Y-138750416D01*
X190722041Y-138369416D01*
X195802041Y-138369416D01*
X195802041Y-143449416D01*
G36*
X195802041Y-143449416D02*
G01*
X193005114Y-143449416D01*
X193102901Y-143300174D01*
X193160720Y-143233470D01*
X193318561Y-143103853D01*
X193513440Y-142980711D01*
X193582043Y-142946428D01*
X193859147Y-142838855D01*
X194203812Y-142735436D01*
X194571601Y-142647242D01*
X194918073Y-142585346D01*
X195198791Y-142560818D01*
X195243258Y-142559624D01*
X195422539Y-142539769D01*
X195538843Y-142503945D01*
X195539029Y-142503828D01*
X195576327Y-142478980D01*
X195586593Y-142452722D01*
X195554495Y-142410669D01*
X195464703Y-142338435D01*
X195301888Y-142221632D01*
X195050720Y-142045876D01*
X194925652Y-141951226D01*
X194824840Y-141838750D01*
X194817104Y-141746629D01*
X194832177Y-141696203D01*
X194865756Y-141529720D01*
X194895505Y-141322166D01*
X194912376Y-141210684D01*
X194954990Y-141043836D01*
X195002121Y-140958014D01*
X195036852Y-140944007D01*
X195179758Y-140920229D01*
X195373416Y-140910389D01*
X195473149Y-140907263D01*
X195618073Y-140888909D01*
X195675041Y-140859785D01*
X195673149Y-140853875D01*
X195605222Y-140789603D01*
X195459398Y-140684510D01*
X195262442Y-140558160D01*
X195056437Y-140422567D01*
X194899774Y-140285772D01*
X194848720Y-140179166D01*
X194820403Y-140004365D01*
X194732886Y-139925345D01*
X194676301Y-139938451D01*
X194587742Y-139958962D01*
X194481321Y-140016399D01*
X194413677Y-140057424D01*
X194411932Y-140060709D01*
X194441091Y-140128805D01*
X194524802Y-140247886D01*
X194534697Y-140260594D01*
X194640023Y-140435269D01*
X194637938Y-140553241D01*
X194528546Y-140624776D01*
X194453128Y-140659004D01*
X194419078Y-140708430D01*
X194426618Y-140723441D01*
X194479863Y-140828467D01*
X194559585Y-140985125D01*
X194567731Y-141001189D01*
X194635597Y-141161484D01*
X194640771Y-141290813D01*
X194587424Y-141460365D01*
X194445307Y-141698791D01*
X194207479Y-141887309D01*
X194203436Y-141890513D01*
X193982741Y-141968760D01*
X193888350Y-142002225D01*
X193515710Y-142030941D01*
X193101177Y-141973681D01*
X192660411Y-141827459D01*
X192647925Y-141822162D01*
X192580874Y-141800962D01*
X192589493Y-141838107D01*
X192676286Y-141953466D01*
X192695230Y-141978383D01*
X192806709Y-142202747D01*
X192809351Y-142401868D01*
X192718998Y-142564390D01*
X192551491Y-142678958D01*
X192322672Y-142734219D01*
X192282194Y-142731945D01*
X192048381Y-142718815D01*
X191744462Y-142621393D01*
X191649435Y-142580252D01*
X191546987Y-142542610D01*
X191507721Y-142528184D01*
X191441810Y-142517981D01*
X191443053Y-142527196D01*
X191500906Y-142602463D01*
X191620798Y-142731874D01*
X191779008Y-142892206D01*
X191951816Y-143060239D01*
X192115502Y-143212750D01*
X192246344Y-143326518D01*
X192320624Y-143378320D01*
X192361892Y-143353645D01*
X192345492Y-143221295D01*
X192321003Y-143110139D01*
X192337271Y-143080599D01*
X192415905Y-143141568D01*
X192551074Y-143241046D01*
X192722291Y-143343676D01*
X192777260Y-143375018D01*
X192803742Y-143402886D01*
X192774702Y-143422224D01*
X192675845Y-143434662D01*
X192492876Y-143441829D01*
X192211498Y-143445356D01*
X191817416Y-143446874D01*
X190722041Y-143449416D01*
X190722041Y-141436604D01*
X190857801Y-141436604D01*
X190887063Y-141705119D01*
X190953006Y-141915164D01*
X191099751Y-142100022D01*
X191311118Y-142212194D01*
X191546987Y-142236902D01*
X191775842Y-142176950D01*
X191966165Y-142035145D01*
X192086439Y-141814291D01*
X192099368Y-141760673D01*
X192079952Y-141688037D01*
X191964571Y-141671416D01*
X191927808Y-141670417D01*
X191826868Y-141632438D01*
X191801541Y-141512666D01*
X191801549Y-141509499D01*
X191831358Y-141387968D01*
X191935335Y-141353916D01*
X192026090Y-141333746D01*
X192028085Y-141298120D01*
X192944541Y-141298120D01*
X192963178Y-141340635D01*
X193069197Y-141340129D01*
X193267426Y-141255882D01*
X193346663Y-141217132D01*
X193444751Y-141195115D01*
X193542451Y-141235272D01*
X193687889Y-141348164D01*
X193764080Y-141406226D01*
X193900382Y-141485433D01*
X193982741Y-141498946D01*
X193992295Y-141480857D01*
X193950978Y-141398466D01*
X193837759Y-141284975D01*
X193628810Y-141110537D01*
X193826426Y-141008346D01*
X193851431Y-140994774D01*
X193966893Y-140910480D01*
X194023268Y-140835388D01*
X194009096Y-140795091D01*
X193913394Y-140815085D01*
X193912916Y-140815184D01*
X193712887Y-140897570D01*
X193560258Y-140949029D01*
X193458414Y-140953738D01*
X193371449Y-140912246D01*
X193263455Y-140825100D01*
X193213216Y-140785680D01*
X193079160Y-140707514D01*
X192996793Y-140696900D01*
X192993068Y-140696420D01*
X192981753Y-140710313D01*
X193013140Y-140789786D01*
X193133416Y-140908090D01*
X193341483Y-141077906D01*
X193143012Y-141160115D01*
X193125406Y-141167627D01*
X192997101Y-141238626D01*
X192944541Y-141298120D01*
X192028085Y-141298120D01*
X192030585Y-141253473D01*
X192012980Y-141201136D01*
X191992041Y-141094906D01*
X191974142Y-141052657D01*
X191890797Y-140934718D01*
X191762402Y-140782599D01*
X191616374Y-140646738D01*
X191394496Y-140534234D01*
X191185554Y-140538297D01*
X191002709Y-140661033D01*
X190973408Y-140701302D01*
X190902642Y-140892590D01*
X190863550Y-141151725D01*
X190857801Y-141436604D01*
X190722041Y-141436604D01*
X190722041Y-140026392D01*
X191992299Y-140026392D01*
X192008154Y-140204314D01*
X192086467Y-140337232D01*
X192126171Y-140362549D01*
X192282194Y-140384039D01*
X192437070Y-140327865D01*
X192531838Y-140210769D01*
X192549136Y-140128381D01*
X192524785Y-139944710D01*
X192427789Y-139804647D01*
X192283942Y-139735960D01*
X192119041Y-139766416D01*
X192035712Y-139859340D01*
X191992299Y-140026392D01*
X190722041Y-140026392D01*
X190722041Y-139722530D01*
X193143438Y-139722530D01*
X193246166Y-139811079D01*
X193275232Y-139831637D01*
X193321954Y-139893075D01*
X193262041Y-139958601D01*
X193227657Y-139987510D01*
X193233888Y-140012712D01*
X193349947Y-140000813D01*
X193512937Y-140006502D01*
X193746822Y-140097364D01*
X193795539Y-140124379D01*
X193913394Y-140171066D01*
X193960541Y-140157968D01*
X193934653Y-140110693D01*
X193830198Y-140051105D01*
X193800449Y-140041033D01*
X193737233Y-139992645D01*
X193782573Y-139908814D01*
X193816584Y-139864146D01*
X193814781Y-139828712D01*
X193709769Y-139848017D01*
X193579541Y-139851776D01*
X193572976Y-139851965D01*
X193344644Y-139758600D01*
X193229191Y-139698598D01*
X193143789Y-139681835D01*
X193143438Y-139722530D01*
X190722041Y-139722530D01*
X190722041Y-139575916D01*
X194676301Y-139575916D01*
X194692908Y-139568729D01*
X194782372Y-139501135D01*
X194913041Y-139385416D01*
X195014064Y-139280213D01*
X195059858Y-139205560D01*
X195026184Y-139199117D01*
X194913041Y-139276311D01*
X194844191Y-139338834D01*
X194746782Y-139445953D01*
X194681102Y-139537277D01*
X194676301Y-139575916D01*
X190722041Y-139575916D01*
X190722041Y-139202398D01*
X194207479Y-139202398D01*
X194236999Y-139189625D01*
X194254265Y-139167662D01*
X194332203Y-139046394D01*
X194419531Y-138888416D01*
X194497846Y-138730296D01*
X194548750Y-138608607D01*
X194553841Y-138559916D01*
X194528350Y-138574836D01*
X194450907Y-138672025D01*
X194357131Y-138829791D01*
X194276818Y-138994791D01*
X194223817Y-139128271D01*
X194207479Y-139202398D01*
X190722041Y-139202398D01*
X190722041Y-138951573D01*
X192888447Y-138951573D01*
X192944541Y-139067916D01*
X192952894Y-139080695D01*
X192996793Y-139126854D01*
X193007069Y-139055789D01*
X192999793Y-138999788D01*
X192944541Y-138909166D01*
X192897770Y-138896043D01*
X192888447Y-138951573D01*
X190722041Y-138951573D01*
X190722041Y-138750416D01*
X193516041Y-138750416D01*
X193520327Y-138864785D01*
X193543318Y-139010806D01*
X193579541Y-139067916D01*
X193602415Y-139046490D01*
X193631619Y-138931532D01*
X193643041Y-138750416D01*
X193638756Y-138636048D01*
X193615765Y-138490027D01*
X193579541Y-138432916D01*
X193556668Y-138454343D01*
X193527464Y-138569301D01*
X193516041Y-138750416D01*
X190722041Y-138750416D01*
X190722041Y-138369416D01*
X195802041Y-138369416D01*
X195802041Y-143449416D01*
G37*
%TD*%
M02*
