%TF.GenerationSoftware,KiCad,Pcbnew,9.0.0*%
%TF.CreationDate,2025-11-21T22:56:44-08:00*%
%TF.ProjectId,MegaAV_Pro_VA0,4d656761-4156-45f5-9072-6f5f5641302e,rev?*%
%TF.SameCoordinates,Original*%
%TF.FileFunction,Copper,L2,Inr*%
%TF.FilePolarity,Positive*%
%FSLAX46Y46*%
G04 Gerber Fmt 4.6, Leading zero omitted, Abs format (unit mm)*
G04 Created by KiCad (PCBNEW 9.0.0) date 2025-11-21 22:56:44*
%MOMM*%
%LPD*%
G01*
G04 APERTURE LIST*
%TA.AperFunction,ComponentPad*%
%ADD10C,1.508000*%
%TD*%
%TA.AperFunction,ComponentPad*%
%ADD11O,3.556000X4.826000*%
%TD*%
%TA.AperFunction,ComponentPad*%
%ADD12C,3.556000*%
%TD*%
%TA.AperFunction,ViaPad*%
%ADD13C,0.600000*%
%TD*%
%TA.AperFunction,Conductor*%
%ADD14C,0.200000*%
%TD*%
%TA.AperFunction,Conductor*%
%ADD15C,0.350000*%
%TD*%
G04 APERTURE END LIST*
D10*
%TO.N,/B-OUT*%
%TO.C,CN1*%
X180453000Y-99929200D03*
%TO.N,+5V*%
X178421000Y-99929200D03*
%TO.N,/G-OUT*%
X182840600Y-99929200D03*
%TO.N,/CV-OUT*%
X180884800Y-102723200D03*
%TO.N,/CSync_OUT*%
X178929000Y-102723200D03*
%TO.N,/AUD-M*%
X175017400Y-99929200D03*
%TO.N,/R-OUT*%
X182840600Y-102723200D03*
%TO.N,/AUD-L*%
X176973200Y-102723200D03*
%TO.N,/AUD-R*%
X175017400Y-102723200D03*
D11*
%TO.N,GND*%
X171690000Y-97440000D03*
D12*
X178929000Y-96551000D03*
D11*
X186168000Y-97440000D03*
%TD*%
D13*
%TO.N,+5V*%
X191465312Y-141155380D03*
X186889274Y-111095638D03*
X195550000Y-132025000D03*
X197025000Y-127900000D03*
X176462500Y-110687500D03*
X187730834Y-106277760D03*
X197650000Y-114125000D03*
X199425000Y-117300000D03*
X176075000Y-117825000D03*
X174903353Y-112417717D03*
X176784000Y-127390224D03*
X190217725Y-133631536D03*
X179733996Y-111883932D03*
X181923297Y-131231303D03*
X171575000Y-117300000D03*
X172375000Y-138675000D03*
X175578296Y-133039208D03*
X171749000Y-126625000D03*
X171775000Y-136300000D03*
X181426239Y-119759797D03*
X181923297Y-129331303D03*
%TO.N,/B-IN*%
X182414181Y-133561289D03*
X183855361Y-128181999D03*
%TO.N,GND*%
X177820000Y-117880000D03*
X170800000Y-124575000D03*
X213248398Y-125209746D03*
X192274286Y-132168631D03*
X202300000Y-125125000D03*
X202425000Y-110850000D03*
X192525000Y-101200000D03*
X204800000Y-127900000D03*
X194275000Y-135800000D03*
X209825000Y-130475000D03*
X201275000Y-138650000D03*
X197891919Y-100674356D03*
X200814519Y-127924030D03*
X177280000Y-104000000D03*
X196900000Y-120500000D03*
X201750000Y-142825000D03*
X192692823Y-142191116D03*
X201250000Y-136625000D03*
X176616729Y-112383001D03*
X193250000Y-138050000D03*
X173500000Y-138525000D03*
X196118602Y-101977998D03*
X188637443Y-122436086D03*
X192450000Y-130155000D03*
X182980984Y-124742600D03*
X178600000Y-124600000D03*
X199700000Y-124325000D03*
X194550000Y-117675000D03*
X190145620Y-143319483D03*
X170340000Y-116120000D03*
X197400000Y-113150000D03*
X187003511Y-124156265D03*
X189975000Y-112875000D03*
X200050000Y-117975000D03*
X185168079Y-101981654D03*
X183435489Y-108890691D03*
X190584584Y-136011170D03*
X174700000Y-110840000D03*
X170940000Y-127850000D03*
X209775000Y-126525000D03*
X197000000Y-125250000D03*
X176125000Y-125275000D03*
X204675000Y-110575000D03*
X175225691Y-96064718D03*
X213250000Y-120950000D03*
X178850000Y-122700000D03*
X176980000Y-109920000D03*
X173450000Y-123375000D03*
X217250000Y-125125000D03*
X206075000Y-120975000D03*
X180950000Y-125125000D03*
X172121779Y-112130665D03*
X190550000Y-137200000D03*
X199925000Y-135800000D03*
X199590016Y-126663051D03*
X187425000Y-121575000D03*
X190327482Y-120904253D03*
X176050000Y-120800000D03*
X198650000Y-120900000D03*
X177600000Y-138900000D03*
X171525000Y-122725000D03*
X193075000Y-127550000D03*
X206202509Y-118279022D03*
X198700000Y-139375000D03*
X179076057Y-109732146D03*
X182725570Y-126810847D03*
X197800000Y-116100000D03*
X172664979Y-109395377D03*
X197325000Y-142900000D03*
X202875000Y-114025000D03*
X182544235Y-121600010D03*
X209900000Y-133225000D03*
X212520237Y-115073602D03*
X203125000Y-141075000D03*
X181609574Y-110595272D03*
X179800618Y-136445143D03*
X205460938Y-129793538D03*
X202525000Y-138700000D03*
X173167032Y-113434738D03*
X199525000Y-143025000D03*
%TO.N,/PSG*%
X177190000Y-136570000D03*
X209700000Y-127750000D03*
X199675000Y-133875000D03*
%TO.N,/32X_L*%
X208538235Y-131788235D03*
X195400000Y-141130000D03*
X181160000Y-138720000D03*
%TO.N,/32X_R*%
X196725000Y-140975000D03*
X191725000Y-136425000D03*
X193775000Y-133200000D03*
X209903061Y-124692647D03*
%TO.N,/FM_R*%
X199550000Y-137680000D03*
X197300000Y-138075000D03*
%TO.N,/FM_L*%
X191050000Y-137950000D03*
X181109193Y-136259055D03*
%TO.N,/G-IN*%
X185789196Y-130539927D03*
X184725538Y-132731742D03*
%TO.N,/R-OUT*%
X189490000Y-119670000D03*
%TO.N,/G-OUT*%
X188390000Y-119670000D03*
%TO.N,/B-OUT*%
X187270000Y-119680000D03*
%TO.N,/R-IN*%
X188560124Y-126994306D03*
X186752677Y-133397464D03*
%TO.N,/CD_R*%
X209137588Y-118103133D03*
X176560000Y-138690000D03*
X199900000Y-140610000D03*
%TO.N,/CD_L*%
X210107778Y-117457777D03*
X200700000Y-143250000D03*
%TO.N,/AUD-R*%
X191050000Y-116700000D03*
%TO.N,/AUD-L*%
X190083128Y-105861117D03*
%TO.N,/AUD-M*%
X191452162Y-107886876D03*
%TO.N,Net-(C3-Pad2)*%
X194000000Y-127950000D03*
X196808477Y-132134756D03*
%TO.N,Net-(D1-A)*%
X181120000Y-123720000D03*
X174990000Y-122040000D03*
%TO.N,Net-(C16-Pad1)*%
X193637500Y-124330000D03*
X192250000Y-133070000D03*
%TO.N,Net-(C17-Pad1)*%
X191141997Y-130767131D03*
X193567500Y-122530000D03*
X191141997Y-127476399D03*
%TO.N,Net-(C18-Pad1)*%
X192370284Y-120094804D03*
X184212655Y-125402037D03*
%TO.N,Net-(SR3-Pin_1)*%
X213250000Y-122000000D03*
X203560949Y-126154897D03*
X200300000Y-125925000D03*
X201200000Y-117900000D03*
%TO.N,Net-(SL3-Pin_1)*%
X199798987Y-129904983D03*
X214725000Y-120625000D03*
X205942466Y-116284975D03*
%TO.N,Net-(C32-Pad1)*%
X190125000Y-109600000D03*
X190057916Y-116147141D03*
%TO.N,Net-(C33-Pad1)*%
X187050388Y-108557244D03*
X188605584Y-116148386D03*
%TO.N,Net-(C34-Pad1)*%
X188690000Y-108560000D03*
X187135815Y-116153369D03*
%TO.N,/SR*%
X207176301Y-116236499D03*
X214925000Y-117350000D03*
X198193456Y-119433016D03*
%TO.N,/SL*%
X212200000Y-113675000D03*
X200981953Y-110299000D03*
X197925000Y-111700000D03*
%TO.N,/V_REF*%
X190251297Y-131782674D03*
X194749649Y-104809198D03*
X199325000Y-113750000D03*
X198400000Y-115350000D03*
X196050000Y-115275000D03*
X187838566Y-129369943D03*
X199418545Y-127751195D03*
%TO.N,/HP_R*%
X189775000Y-97500000D03*
X208724265Y-133299265D03*
%TO.N,Net-(HPR_SL2-Pin_1)*%
X216698703Y-131742764D03*
X201875000Y-114050000D03*
X188250000Y-100950000D03*
%TO.N,Net-(HPL_SL2-Pin_1)*%
X198425000Y-112925000D03*
X192880834Y-106277760D03*
X216475000Y-125850000D03*
%TO.N,/HP_L*%
X202896046Y-132006824D03*
X196200000Y-102800000D03*
%TO.N,Net-(U8-LUM_OUT)*%
X196920000Y-100390000D03*
X179870000Y-110710000D03*
X193325000Y-96350000D03*
X182081007Y-112256394D03*
%TO.N,Net-(U8-CHROM_OUT)*%
X190100000Y-100425000D03*
X178350000Y-110990000D03*
X179800000Y-116440000D03*
%TO.N,Net-(U8-CVBS_OUT)*%
X178820000Y-116230000D03*
X171157773Y-105917981D03*
%TO.N,/CSync_OUT*%
X173270000Y-115900000D03*
%TO.N,Net-(D1-K)*%
X183050399Y-123791699D03*
X182506976Y-128044125D03*
%TO.N,Net-(MD1_PU1-A)*%
X188770563Y-133539101D03*
X188600816Y-125337580D03*
%TO.N,/REGION*%
X182741249Y-109570263D03*
X170569978Y-113573614D03*
X174150000Y-105910000D03*
%TO.N,/4xCLK*%
X172593296Y-129394208D03*
X175702673Y-112447633D03*
%TO.N,Net-(HPL_RES2-C)*%
X197825000Y-107000000D03*
X217875000Y-112675000D03*
X192880834Y-105007760D03*
X216437307Y-124711642D03*
%TO.N,Net-(HPR_RES2-C)*%
X187730834Y-103737760D03*
X217425000Y-123700000D03*
X217850000Y-117475000D03*
X195000000Y-101075000D03*
%TO.N,Net-(HPR_SL1-Pin_1)*%
X218293514Y-125885960D03*
X217729895Y-133270659D03*
%TD*%
D14*
%TO.N,/AUD-R*%
X174744157Y-113750000D02*
X189600000Y-113750000D01*
X175017400Y-102723200D02*
X173381438Y-104359162D01*
X173381438Y-104359162D02*
X173381438Y-112387281D01*
X173381438Y-112387281D02*
X174744157Y-113750000D01*
X191050000Y-115200000D02*
X191050000Y-116700000D01*
X189600000Y-113750000D02*
X191050000Y-115200000D01*
%TO.N,/AUD-L*%
X187550000Y-104825000D02*
X179075000Y-104825000D01*
X179075000Y-104825000D02*
X176973200Y-102723200D01*
X188541440Y-105816440D02*
X187550000Y-104825000D01*
X190038451Y-105816440D02*
X188541440Y-105816440D01*
X190083128Y-105861117D02*
X190038451Y-105816440D01*
%TO.N,/AUD-M*%
X190875000Y-107075000D02*
X190875000Y-104600000D01*
X190893802Y-107328516D02*
X190893802Y-107093802D01*
X191452162Y-107886876D02*
X190893802Y-107328516D01*
X187525000Y-101250000D02*
X176338200Y-101250000D01*
X190875000Y-104600000D02*
X187525000Y-101250000D01*
X190893802Y-107093802D02*
X190875000Y-107075000D01*
X176338200Y-101250000D02*
X175017400Y-99929200D01*
%TO.N,Net-(SR3-Pin_1)*%
X206600000Y-125950000D02*
X210550000Y-122000000D01*
X210550000Y-122000000D02*
X213250000Y-122000000D01*
X203765846Y-125950000D02*
X206600000Y-125950000D01*
X203560949Y-126154897D02*
X203765846Y-125950000D01*
%TO.N,Net-(SL3-Pin_1)*%
X208550000Y-119450000D02*
X205950000Y-116850000D01*
X205950000Y-116850000D02*
X205950000Y-116250000D01*
X213550000Y-119450000D02*
X208550000Y-119450000D01*
X214725000Y-120625000D02*
X213550000Y-119450000D01*
%TO.N,/SR*%
X214000000Y-116425000D02*
X207364802Y-116425000D01*
X207364802Y-116425000D02*
X207176301Y-116236499D01*
X214925000Y-117350000D02*
X214000000Y-116425000D01*
D15*
%TO.N,/V_REF*%
X198400000Y-115350000D02*
X199325000Y-114425000D01*
X199325000Y-114425000D02*
X199325000Y-113750000D01*
D14*
%TO.N,/HP_R*%
X202149265Y-133299265D02*
X208724265Y-133299265D01*
X197625000Y-128775000D02*
X202149265Y-133299265D01*
X194100000Y-101825000D02*
X194100000Y-116100000D01*
X194100000Y-116100000D02*
X197625000Y-119625000D01*
X197625000Y-119625000D02*
X197625000Y-128775000D01*
X189775000Y-97500000D02*
X194100000Y-101825000D01*
%TO.N,/HP_L*%
X202901000Y-122126000D02*
X197000000Y-116225000D01*
X197000000Y-114925000D02*
X195900000Y-113825000D01*
X197000000Y-116225000D02*
X197000000Y-114925000D01*
X195900000Y-103225000D02*
X196325000Y-102800000D01*
X202896046Y-132006824D02*
X202896046Y-129105954D01*
X202896046Y-129105954D02*
X202901000Y-129101000D01*
X195900000Y-113825000D02*
X195900000Y-103225000D01*
X196325000Y-102800000D02*
X196200000Y-102800000D01*
X202901000Y-129101000D02*
X202901000Y-122126000D01*
%TO.N,Net-(U8-LUM_OUT)*%
X181829963Y-112256394D02*
X180425018Y-110851449D01*
X180011449Y-110851449D02*
X179870000Y-110710000D01*
X182081007Y-112256394D02*
X181829963Y-112256394D01*
X180425018Y-110851449D02*
X180011449Y-110851449D01*
%TO.N,Net-(U8-CVBS_OUT)*%
X178820000Y-116230000D02*
X174620000Y-116230000D01*
X171380000Y-112990000D02*
X171380000Y-105620000D01*
X174620000Y-116230000D02*
X171380000Y-112990000D01*
%TO.N,Net-(MD1_PU1-A)*%
X188770563Y-133539101D02*
X188770563Y-130561769D01*
X189790928Y-126527692D02*
X188600816Y-125337580D01*
X188770563Y-130561769D02*
X189790928Y-129541404D01*
X189790928Y-129541404D02*
X189790928Y-126527692D01*
%TO.N,/REGION*%
X177770000Y-105910000D02*
X174150000Y-105910000D01*
X180740000Y-109050000D02*
X178760000Y-107070000D01*
X178760000Y-107070000D02*
X178760000Y-106900000D01*
X178760000Y-106900000D02*
X177770000Y-105910000D01*
X182385271Y-109050000D02*
X180740000Y-109050000D01*
X182741249Y-109405978D02*
X182385271Y-109050000D01*
X182741249Y-109570263D02*
X182741249Y-109405978D01*
%TO.N,Net-(HPL_RES2-C)*%
X217875000Y-112675000D02*
X216650000Y-111450000D01*
X216650000Y-111450000D02*
X201799943Y-111450000D01*
X201799943Y-111450000D02*
X201248943Y-110899000D01*
X197825000Y-108432100D02*
X197825000Y-107000000D01*
X200291900Y-110899000D02*
X197825000Y-108432100D01*
X201248943Y-110899000D02*
X200291900Y-110899000D01*
%TO.N,Net-(HPR_RES2-C)*%
X199950000Y-112250000D02*
X197224000Y-109524000D01*
X196124943Y-101100000D02*
X195025000Y-101100000D01*
X212625000Y-112250000D02*
X199950000Y-112250000D01*
X197224000Y-102199057D02*
X196124943Y-101100000D01*
X217850000Y-117475000D02*
X212625000Y-112250000D01*
X197224000Y-109524000D02*
X197224000Y-102199057D01*
%TD*%
%TA.AperFunction,Conductor*%
%TO.N,/AUD-L*%
G36*
X177711460Y-102579843D02*
G01*
X177716020Y-102585778D01*
X178004688Y-103429900D01*
X178094553Y-103692684D01*
X178097623Y-103701659D01*
X178097057Y-103710596D01*
X178094825Y-103713718D01*
X177963718Y-103844825D01*
X177955445Y-103848252D01*
X177951660Y-103847623D01*
X177883983Y-103824479D01*
X177729402Y-103771616D01*
X177723056Y-103766396D01*
X177680500Y-103692686D01*
X177587314Y-103599500D01*
X177587313Y-103599499D01*
X177587310Y-103599497D01*
X177473188Y-103533608D01*
X177473184Y-103533606D01*
X177345894Y-103499500D01*
X177345892Y-103499500D01*
X177214108Y-103499500D01*
X177214105Y-103499500D01*
X177086816Y-103533606D01*
X177071554Y-103542416D01*
X177062675Y-103543584D01*
X177061919Y-103543354D01*
X176835778Y-103466020D01*
X176829059Y-103460100D01*
X176828086Y-103452679D01*
X176970973Y-102730178D01*
X176975939Y-102722729D01*
X176980176Y-102720973D01*
X177702679Y-102578086D01*
X177711460Y-102579843D01*
G37*
%TD.AperFunction*%
%TD*%
%TA.AperFunction,Conductor*%
%TO.N,GND*%
G36*
X177381026Y-94635886D02*
G01*
X177448050Y-94655615D01*
X177493770Y-94708450D01*
X177504676Y-94767994D01*
X177504360Y-94772806D01*
X178224556Y-95493002D01*
X178101651Y-95582298D01*
X177960298Y-95723651D01*
X177871002Y-95846556D01*
X177150807Y-95126361D01*
X177150806Y-95126361D01*
X177030851Y-95282690D01*
X176881541Y-95541301D01*
X176881534Y-95541315D01*
X176767267Y-95817182D01*
X176689976Y-96105634D01*
X176651001Y-96401681D01*
X176651000Y-96401698D01*
X176651000Y-96700301D01*
X176651001Y-96700318D01*
X176689976Y-96996365D01*
X176767267Y-97284817D01*
X176881534Y-97560684D01*
X176881541Y-97560698D01*
X177030844Y-97819298D01*
X177030849Y-97819305D01*
X177150807Y-97975637D01*
X177871001Y-97255443D01*
X177960298Y-97378349D01*
X178101651Y-97519702D01*
X178224555Y-97608997D01*
X177504361Y-98329191D01*
X177660694Y-98449150D01*
X177660701Y-98449155D01*
X177919301Y-98598458D01*
X177919315Y-98598465D01*
X178195182Y-98712732D01*
X178298778Y-98740491D01*
X178358438Y-98776856D01*
X178388967Y-98839703D01*
X178380672Y-98909079D01*
X178336187Y-98962957D01*
X178290875Y-98981883D01*
X178142590Y-99011379D01*
X178142578Y-99011382D01*
X177968881Y-99083329D01*
X177968868Y-99083336D01*
X177812542Y-99187791D01*
X177812538Y-99187794D01*
X177679594Y-99320738D01*
X177679591Y-99320742D01*
X177575136Y-99477068D01*
X177575129Y-99477081D01*
X177503182Y-99650778D01*
X177503179Y-99650790D01*
X177466500Y-99835185D01*
X177466500Y-100023214D01*
X177503179Y-100207609D01*
X177503182Y-100207621D01*
X177575129Y-100381318D01*
X177575136Y-100381331D01*
X177679591Y-100537657D01*
X177679594Y-100537661D01*
X177812538Y-100670605D01*
X177812542Y-100670608D01*
X177890050Y-100722398D01*
X177934855Y-100776010D01*
X177943562Y-100845335D01*
X177913407Y-100908363D01*
X177853964Y-100945082D01*
X177821159Y-100949500D01*
X176514033Y-100949500D01*
X176484592Y-100940855D01*
X176454606Y-100934332D01*
X176449590Y-100930577D01*
X176446994Y-100929815D01*
X176426352Y-100913181D01*
X176347217Y-100834046D01*
X176317569Y-100786489D01*
X176315287Y-100779815D01*
X175954664Y-99725283D01*
X175954658Y-99725273D01*
X175952646Y-99720652D01*
X175953351Y-99720344D01*
X175943705Y-99693447D01*
X175935219Y-99650783D01*
X175905987Y-99580211D01*
X175863270Y-99477081D01*
X175863263Y-99477068D01*
X175758808Y-99320742D01*
X175758805Y-99320738D01*
X175625861Y-99187794D01*
X175625857Y-99187791D01*
X175469531Y-99083336D01*
X175469518Y-99083329D01*
X175295821Y-99011382D01*
X175295809Y-99011379D01*
X175111413Y-98974700D01*
X175111410Y-98974700D01*
X174923390Y-98974700D01*
X174923387Y-98974700D01*
X174738990Y-99011379D01*
X174738978Y-99011382D01*
X174565281Y-99083329D01*
X174565268Y-99083336D01*
X174408942Y-99187791D01*
X174408938Y-99187794D01*
X174275994Y-99320738D01*
X174275991Y-99320742D01*
X174171536Y-99477068D01*
X174171529Y-99477081D01*
X174099582Y-99650778D01*
X174099579Y-99650790D01*
X174062900Y-99835185D01*
X174062900Y-100023214D01*
X174099579Y-100207609D01*
X174099582Y-100207621D01*
X174171529Y-100381318D01*
X174171536Y-100381331D01*
X174275991Y-100537657D01*
X174275994Y-100537661D01*
X174408938Y-100670605D01*
X174408942Y-100670608D01*
X174565268Y-100775063D01*
X174565281Y-100775070D01*
X174658558Y-100813706D01*
X174738983Y-100847019D01*
X174781351Y-100855446D01*
X174808597Y-100864235D01*
X174813470Y-100866456D01*
X174813483Y-100866464D01*
X175874687Y-101229368D01*
X175922245Y-101259016D01*
X176097740Y-101434511D01*
X176153689Y-101490460D01*
X176153691Y-101490461D01*
X176153695Y-101490464D01*
X176181142Y-101506310D01*
X176222211Y-101530021D01*
X176298638Y-101550500D01*
X176377762Y-101550500D01*
X176717162Y-101550500D01*
X176784201Y-101570185D01*
X176829956Y-101622989D01*
X176839900Y-101692147D01*
X176810875Y-101755703D01*
X176752097Y-101793477D01*
X176741354Y-101796117D01*
X176694788Y-101805379D01*
X176694778Y-101805382D01*
X176521081Y-101877329D01*
X176521068Y-101877336D01*
X176364742Y-101981791D01*
X176364738Y-101981794D01*
X176231794Y-102114738D01*
X176231791Y-102114742D01*
X176127336Y-102271068D01*
X176127329Y-102271081D01*
X176109861Y-102313255D01*
X176066020Y-102367659D01*
X175999726Y-102389724D01*
X175932027Y-102372445D01*
X175884416Y-102321308D01*
X175880739Y-102313255D01*
X175863270Y-102271081D01*
X175863263Y-102271068D01*
X175758808Y-102114742D01*
X175758805Y-102114738D01*
X175625861Y-101981794D01*
X175625857Y-101981791D01*
X175469531Y-101877336D01*
X175469518Y-101877329D01*
X175295821Y-101805382D01*
X175295809Y-101805379D01*
X175111413Y-101768700D01*
X175111410Y-101768700D01*
X174923390Y-101768700D01*
X174923387Y-101768700D01*
X174738990Y-101805379D01*
X174738978Y-101805382D01*
X174565281Y-101877329D01*
X174565268Y-101877336D01*
X174408942Y-101981791D01*
X174408938Y-101981794D01*
X174275994Y-102114738D01*
X174275991Y-102114742D01*
X174171536Y-102271068D01*
X174171529Y-102271081D01*
X174099582Y-102444778D01*
X174099580Y-102444785D01*
X174091155Y-102487139D01*
X174082371Y-102514372D01*
X174080134Y-102519278D01*
X173717227Y-103580491D01*
X173687579Y-103628048D01*
X173196927Y-104118702D01*
X173140979Y-104174649D01*
X173140973Y-104174657D01*
X173101420Y-104243166D01*
X173101417Y-104243171D01*
X173087764Y-104294124D01*
X173080938Y-104319600D01*
X173080938Y-112426843D01*
X173087031Y-112449581D01*
X173101417Y-112503272D01*
X173101419Y-112503275D01*
X173136308Y-112563703D01*
X173136308Y-112563706D01*
X173136310Y-112563706D01*
X173136311Y-112563708D01*
X173140050Y-112570185D01*
X173140980Y-112571795D01*
X173851028Y-113281842D01*
X174559646Y-113990460D01*
X174628169Y-114030022D01*
X174704595Y-114050500D01*
X174783719Y-114050500D01*
X189424167Y-114050500D01*
X189491206Y-114070185D01*
X189511848Y-114086819D01*
X190713181Y-115288152D01*
X190746666Y-115349475D01*
X190749500Y-115375833D01*
X190749500Y-115881224D01*
X190729815Y-115948263D01*
X190677011Y-115994018D01*
X190607853Y-116003962D01*
X190544297Y-115974937D01*
X190518113Y-115943225D01*
X190510005Y-115929182D01*
X190458416Y-115839827D01*
X190365230Y-115746641D01*
X190296248Y-115706814D01*
X190251103Y-115680749D01*
X190163648Y-115657316D01*
X190123808Y-115646641D01*
X189992024Y-115646641D01*
X189864728Y-115680749D01*
X189750602Y-115746641D01*
X189750599Y-115746643D01*
X189657418Y-115839824D01*
X189657416Y-115839827D01*
X189591524Y-115953953D01*
X189568602Y-116039502D01*
X189557416Y-116081249D01*
X189557416Y-116213033D01*
X189572563Y-116269562D01*
X189591524Y-116340328D01*
X189611118Y-116374265D01*
X189657416Y-116454455D01*
X189750602Y-116547641D01*
X189864730Y-116613533D01*
X189992024Y-116647641D01*
X189992026Y-116647641D01*
X190123806Y-116647641D01*
X190123808Y-116647641D01*
X190251102Y-116613533D01*
X190363503Y-116548637D01*
X190431399Y-116532166D01*
X190497426Y-116555018D01*
X190540617Y-116609939D01*
X190549500Y-116656026D01*
X190549500Y-116765892D01*
X190562171Y-116813181D01*
X190583608Y-116893187D01*
X190606543Y-116932910D01*
X190649500Y-117007314D01*
X190742686Y-117100500D01*
X190856814Y-117166392D01*
X190984108Y-117200500D01*
X190984110Y-117200500D01*
X191115890Y-117200500D01*
X191115892Y-117200500D01*
X191243186Y-117166392D01*
X191357314Y-117100500D01*
X191450500Y-117007314D01*
X191516392Y-116893186D01*
X191550500Y-116765892D01*
X191550500Y-116634108D01*
X191536135Y-116580497D01*
X191532801Y-116558661D01*
X191523158Y-116532065D01*
X191516392Y-116506814D01*
X191515859Y-116505891D01*
X191515435Y-116505156D01*
X191506243Y-116485415D01*
X191497275Y-116460682D01*
X191357926Y-116076350D01*
X191350500Y-116034083D01*
X191350500Y-115160438D01*
X191350499Y-115160435D01*
X191349530Y-115156817D01*
X191349529Y-115156815D01*
X191349528Y-115156812D01*
X191330022Y-115084012D01*
X191290460Y-115015489D01*
X190544434Y-114269463D01*
X189784515Y-113509543D01*
X189784511Y-113509540D01*
X189781362Y-113507722D01*
X189736488Y-113481814D01*
X189715990Y-113469979D01*
X189688858Y-113462709D01*
X189639562Y-113449500D01*
X189639560Y-113449500D01*
X174919990Y-113449500D01*
X174852951Y-113429815D01*
X174832309Y-113413181D01*
X173770953Y-112351825D01*
X174402853Y-112351825D01*
X174402853Y-112483609D01*
X174410868Y-112513523D01*
X174436961Y-112610904D01*
X174463512Y-112656891D01*
X174502853Y-112725031D01*
X174596039Y-112818217D01*
X174710167Y-112884109D01*
X174837461Y-112918217D01*
X174837463Y-112918217D01*
X174969243Y-112918217D01*
X174969245Y-112918217D01*
X175096539Y-112884109D01*
X175210667Y-112818217D01*
X175210674Y-112818209D01*
X175211960Y-112817224D01*
X175213249Y-112816725D01*
X175217705Y-112814153D01*
X175218105Y-112814847D01*
X175277127Y-112792023D01*
X175345573Y-112806055D01*
X175375137Y-112827911D01*
X175395359Y-112848133D01*
X175509487Y-112914025D01*
X175636781Y-112948133D01*
X175636783Y-112948133D01*
X175768563Y-112948133D01*
X175768565Y-112948133D01*
X175895859Y-112914025D01*
X176009987Y-112848133D01*
X176103173Y-112754947D01*
X176169065Y-112640819D01*
X176203173Y-112513525D01*
X176203173Y-112381741D01*
X176169065Y-112254447D01*
X176103173Y-112140319D01*
X176009987Y-112047133D01*
X175941017Y-112007313D01*
X175895860Y-111981241D01*
X175832212Y-111964187D01*
X175768565Y-111947133D01*
X175636781Y-111947133D01*
X175509486Y-111981241D01*
X175395352Y-112047137D01*
X175394045Y-112048141D01*
X175392744Y-112048643D01*
X175388322Y-112051197D01*
X175387923Y-112050506D01*
X175328873Y-112073328D01*
X175260430Y-112059282D01*
X175230888Y-112037438D01*
X175210669Y-112017219D01*
X175210667Y-112017217D01*
X175128849Y-111969979D01*
X175096540Y-111951325D01*
X175064279Y-111942681D01*
X174969245Y-111917217D01*
X174837461Y-111917217D01*
X174710165Y-111951325D01*
X174596039Y-112017217D01*
X174596036Y-112017219D01*
X174502855Y-112110400D01*
X174502853Y-112110403D01*
X174436961Y-112224529D01*
X174410768Y-112322284D01*
X174402853Y-112351825D01*
X173770953Y-112351825D01*
X173718257Y-112299129D01*
X173684772Y-112237806D01*
X173681938Y-112211448D01*
X173681938Y-111818040D01*
X179233496Y-111818040D01*
X179233496Y-111949824D01*
X179248900Y-112007313D01*
X179267604Y-112077119D01*
X179286819Y-112110400D01*
X179333496Y-112191246D01*
X179426682Y-112284432D01*
X179540810Y-112350324D01*
X179668104Y-112384432D01*
X179668106Y-112384432D01*
X179799886Y-112384432D01*
X179799888Y-112384432D01*
X179927182Y-112350324D01*
X180041310Y-112284432D01*
X180134496Y-112191246D01*
X180200388Y-112077118D01*
X180234496Y-111949824D01*
X180234496Y-111818040D01*
X180200388Y-111690746D01*
X180134496Y-111576618D01*
X180041310Y-111483432D01*
X179988180Y-111452757D01*
X179944266Y-111427403D01*
X179931457Y-111413969D01*
X179915496Y-111404495D01*
X179907846Y-111389206D01*
X179896051Y-111376835D01*
X179892538Y-111358610D01*
X179884233Y-111342010D01*
X179886063Y-111325012D01*
X179882829Y-111308228D01*
X179889727Y-111290996D01*
X179891715Y-111272542D01*
X179902443Y-111259234D01*
X179908797Y-111243363D01*
X179923917Y-111232596D01*
X179935566Y-111218147D01*
X179960355Y-111206650D01*
X179965712Y-111202836D01*
X179967130Y-111202354D01*
X179970595Y-111201201D01*
X180063186Y-111176392D01*
X180087656Y-111162263D01*
X180099612Y-111158287D01*
X180117462Y-111157652D01*
X180138749Y-111151949D01*
X180249185Y-111151949D01*
X180316224Y-111171634D01*
X180336866Y-111188268D01*
X181625524Y-112476926D01*
X181645230Y-112502607D01*
X181680507Y-112563708D01*
X181773693Y-112656894D01*
X181887821Y-112722786D01*
X182015115Y-112756894D01*
X182015117Y-112756894D01*
X182146897Y-112756894D01*
X182146899Y-112756894D01*
X182274193Y-112722786D01*
X182388321Y-112656894D01*
X182481507Y-112563708D01*
X182547399Y-112449580D01*
X182581507Y-112322286D01*
X182581507Y-112190502D01*
X182547399Y-112063208D01*
X182540065Y-112050506D01*
X182516414Y-112009541D01*
X182481507Y-111949080D01*
X182388321Y-111855894D01*
X182322756Y-111818040D01*
X182274194Y-111790002D01*
X182184212Y-111765892D01*
X182146899Y-111755894D01*
X182015115Y-111755894D01*
X181887821Y-111790002D01*
X181887819Y-111790003D01*
X181879971Y-111792106D01*
X181879140Y-111789005D01*
X181824595Y-111794823D01*
X181762142Y-111763496D01*
X181759033Y-111760493D01*
X181028286Y-111029746D01*
X186388774Y-111029746D01*
X186388774Y-111161530D01*
X186398948Y-111199500D01*
X186422882Y-111288825D01*
X186434085Y-111308228D01*
X186488774Y-111402952D01*
X186581960Y-111496138D01*
X186696088Y-111562030D01*
X186823382Y-111596138D01*
X186823384Y-111596138D01*
X186955164Y-111596138D01*
X186955166Y-111596138D01*
X187082460Y-111562030D01*
X187196588Y-111496138D01*
X187289774Y-111402952D01*
X187355666Y-111288824D01*
X187389774Y-111161530D01*
X187389774Y-111029746D01*
X187355666Y-110902452D01*
X187289774Y-110788324D01*
X187196588Y-110695138D01*
X187108202Y-110644108D01*
X187082461Y-110629246D01*
X187014323Y-110610989D01*
X186955166Y-110595138D01*
X186823382Y-110595138D01*
X186696086Y-110629246D01*
X186581960Y-110695138D01*
X186581957Y-110695140D01*
X186488776Y-110788321D01*
X186488774Y-110788324D01*
X186422882Y-110902450D01*
X186398134Y-110994813D01*
X186388774Y-111029746D01*
X181028286Y-111029746D01*
X180609528Y-110610988D01*
X180595550Y-110602918D01*
X180595548Y-110602917D01*
X180582074Y-110595138D01*
X180541007Y-110571428D01*
X180464580Y-110550949D01*
X180410600Y-110550949D01*
X180394147Y-110546326D01*
X180378435Y-110536485D01*
X180360652Y-110531264D01*
X180346648Y-110516578D01*
X180334932Y-110509240D01*
X180330327Y-110499461D01*
X180320304Y-110488949D01*
X180270500Y-110402686D01*
X180177314Y-110309500D01*
X180120250Y-110276554D01*
X180063187Y-110243608D01*
X179979214Y-110221108D01*
X179935892Y-110209500D01*
X179804108Y-110209500D01*
X179676812Y-110243608D01*
X179562686Y-110309500D01*
X179562683Y-110309502D01*
X179469502Y-110402683D01*
X179469500Y-110402686D01*
X179403608Y-110516812D01*
X179380537Y-110602918D01*
X179369500Y-110644108D01*
X179369500Y-110775892D01*
X179375106Y-110796814D01*
X179403608Y-110903187D01*
X179436554Y-110960250D01*
X179469500Y-111017314D01*
X179562686Y-111110500D01*
X179645455Y-111158287D01*
X179659729Y-111166528D01*
X179707944Y-111217096D01*
X179721166Y-111285703D01*
X179695198Y-111350567D01*
X179638284Y-111391095D01*
X179629826Y-111393688D01*
X179605747Y-111400140D01*
X179540808Y-111417540D01*
X179426682Y-111483432D01*
X179426679Y-111483434D01*
X179333498Y-111576615D01*
X179333496Y-111576618D01*
X179267604Y-111690744D01*
X179241276Y-111789005D01*
X179233496Y-111818040D01*
X173681938Y-111818040D01*
X173681938Y-110621608D01*
X175962000Y-110621608D01*
X175962000Y-110753391D01*
X175996108Y-110880687D01*
X176009098Y-110903186D01*
X176062000Y-110994814D01*
X176155186Y-111088000D01*
X176227612Y-111129815D01*
X176265948Y-111151949D01*
X176269314Y-111153892D01*
X176396608Y-111188000D01*
X176396610Y-111188000D01*
X176528390Y-111188000D01*
X176528392Y-111188000D01*
X176655686Y-111153892D01*
X176769814Y-111088000D01*
X176863000Y-110994814D01*
X176903822Y-110924108D01*
X177849500Y-110924108D01*
X177849500Y-111055892D01*
X177858103Y-111087999D01*
X177883608Y-111183187D01*
X177903186Y-111217096D01*
X177949500Y-111297314D01*
X178042686Y-111390500D01*
X178156814Y-111456392D01*
X178284108Y-111490500D01*
X178284110Y-111490500D01*
X178415890Y-111490500D01*
X178415892Y-111490500D01*
X178543186Y-111456392D01*
X178657314Y-111390500D01*
X178750500Y-111297314D01*
X178816392Y-111183186D01*
X178850500Y-111055892D01*
X178850500Y-110924108D01*
X178816392Y-110796814D01*
X178750500Y-110682686D01*
X178657314Y-110589500D01*
X178582535Y-110546326D01*
X178543187Y-110523608D01*
X178433858Y-110494314D01*
X178415892Y-110489500D01*
X178284108Y-110489500D01*
X178156812Y-110523608D01*
X178042686Y-110589500D01*
X178042683Y-110589502D01*
X177949502Y-110682683D01*
X177949500Y-110682686D01*
X177883608Y-110796812D01*
X177855303Y-110902450D01*
X177849500Y-110924108D01*
X176903822Y-110924108D01*
X176928892Y-110880686D01*
X176963000Y-110753392D01*
X176963000Y-110621608D01*
X176928892Y-110494314D01*
X176927663Y-110492186D01*
X176892487Y-110431259D01*
X176863000Y-110380186D01*
X176769814Y-110287000D01*
X176694657Y-110243608D01*
X176655687Y-110221108D01*
X176592039Y-110204054D01*
X176528392Y-110187000D01*
X176396608Y-110187000D01*
X176269312Y-110221108D01*
X176155186Y-110287000D01*
X176155183Y-110287002D01*
X176062002Y-110380183D01*
X176062000Y-110380186D01*
X175996108Y-110494312D01*
X175962000Y-110621608D01*
X173681938Y-110621608D01*
X173681938Y-106432466D01*
X173701623Y-106365427D01*
X173754427Y-106319672D01*
X173823585Y-106309728D01*
X173867935Y-106325077D01*
X173956814Y-106376392D01*
X174084108Y-106410500D01*
X174084110Y-106410500D01*
X174215890Y-106410500D01*
X174215892Y-106410500D01*
X174343186Y-106376392D01*
X174457314Y-106310500D01*
X174520995Y-106246819D01*
X174582318Y-106213334D01*
X174608676Y-106210500D01*
X177594167Y-106210500D01*
X177661206Y-106230185D01*
X177681848Y-106246819D01*
X178423181Y-106988152D01*
X178455274Y-107043737D01*
X178459500Y-107059507D01*
X178459500Y-107109562D01*
X178479979Y-107185989D01*
X178496851Y-107215212D01*
X178505013Y-107229349D01*
X178519537Y-107254507D01*
X178519539Y-107254510D01*
X178519540Y-107254511D01*
X180499540Y-109234511D01*
X180555489Y-109290460D01*
X180555491Y-109290461D01*
X180555495Y-109290464D01*
X180589676Y-109310198D01*
X180624011Y-109330021D01*
X180700438Y-109350500D01*
X182120379Y-109350500D01*
X182187418Y-109370185D01*
X182233173Y-109422989D01*
X182243117Y-109492147D01*
X182240999Y-109502471D01*
X182240749Y-109504369D01*
X182240749Y-109504371D01*
X182240749Y-109636155D01*
X182248717Y-109665891D01*
X182274857Y-109763450D01*
X182292026Y-109793187D01*
X182340749Y-109877577D01*
X182433935Y-109970763D01*
X182548063Y-110036655D01*
X182675357Y-110070763D01*
X182675359Y-110070763D01*
X182807139Y-110070763D01*
X182807141Y-110070763D01*
X182934435Y-110036655D01*
X183048563Y-109970763D01*
X183141749Y-109877577D01*
X183207641Y-109763449D01*
X183241749Y-109636155D01*
X183241749Y-109534108D01*
X189624500Y-109534108D01*
X189624500Y-109665892D01*
X189627003Y-109675233D01*
X189658608Y-109793187D01*
X189680624Y-109831319D01*
X189724500Y-109907314D01*
X189817686Y-110000500D01*
X189931814Y-110066392D01*
X190059108Y-110100500D01*
X190059110Y-110100500D01*
X190190890Y-110100500D01*
X190190892Y-110100500D01*
X190318186Y-110066392D01*
X190432314Y-110000500D01*
X190525500Y-109907314D01*
X190591392Y-109793186D01*
X190625500Y-109665892D01*
X190625500Y-109534108D01*
X190591392Y-109406814D01*
X190525500Y-109292686D01*
X190432314Y-109199500D01*
X190373073Y-109165297D01*
X190318187Y-109133608D01*
X190228138Y-109109480D01*
X190190892Y-109099500D01*
X190059108Y-109099500D01*
X189931812Y-109133608D01*
X189817686Y-109199500D01*
X189817683Y-109199502D01*
X189724502Y-109292683D01*
X189724500Y-109292686D01*
X189658608Y-109406812D01*
X189650828Y-109435848D01*
X189624500Y-109534108D01*
X183241749Y-109534108D01*
X183241749Y-109504371D01*
X183207641Y-109377077D01*
X183141749Y-109262949D01*
X183048563Y-109169763D01*
X182982670Y-109131719D01*
X182934434Y-109103870D01*
X182870464Y-109086729D01*
X182814878Y-109054636D01*
X182569783Y-108809541D01*
X182569775Y-108809535D01*
X182501266Y-108769982D01*
X182501261Y-108769979D01*
X182472304Y-108762220D01*
X182424833Y-108749500D01*
X182424831Y-108749500D01*
X180915833Y-108749500D01*
X180886392Y-108740855D01*
X180856406Y-108734332D01*
X180851390Y-108730577D01*
X180848794Y-108729815D01*
X180828152Y-108713181D01*
X180606323Y-108491352D01*
X186549888Y-108491352D01*
X186549888Y-108623136D01*
X186566942Y-108686783D01*
X186583996Y-108750431D01*
X186595284Y-108769982D01*
X186649888Y-108864558D01*
X186743074Y-108957744D01*
X186857202Y-109023636D01*
X186984496Y-109057744D01*
X186984498Y-109057744D01*
X187116278Y-109057744D01*
X187116280Y-109057744D01*
X187243574Y-109023636D01*
X187357702Y-108957744D01*
X187450888Y-108864558D01*
X187516780Y-108750430D01*
X187550888Y-108623136D01*
X187550888Y-108494108D01*
X188189500Y-108494108D01*
X188189500Y-108625891D01*
X188223608Y-108753187D01*
X188232306Y-108768252D01*
X188289500Y-108867314D01*
X188382686Y-108960500D01*
X188496814Y-109026392D01*
X188624108Y-109060500D01*
X188624110Y-109060500D01*
X188755890Y-109060500D01*
X188755892Y-109060500D01*
X188883186Y-109026392D01*
X188997314Y-108960500D01*
X189090500Y-108867314D01*
X189156392Y-108753186D01*
X189190500Y-108625892D01*
X189190500Y-108494108D01*
X189156392Y-108366814D01*
X189090500Y-108252686D01*
X188997314Y-108159500D01*
X188907312Y-108107537D01*
X188883187Y-108093608D01*
X188819539Y-108076554D01*
X188755892Y-108059500D01*
X188624108Y-108059500D01*
X188496812Y-108093608D01*
X188382686Y-108159500D01*
X188382683Y-108159502D01*
X188289502Y-108252683D01*
X188289500Y-108252686D01*
X188223608Y-108366812D01*
X188189500Y-108494108D01*
X187550888Y-108494108D01*
X187550888Y-108491352D01*
X187516780Y-108364058D01*
X187450888Y-108249930D01*
X187357702Y-108156744D01*
X187300638Y-108123798D01*
X187243575Y-108090852D01*
X187156978Y-108067649D01*
X187116280Y-108056744D01*
X186984496Y-108056744D01*
X186857200Y-108090852D01*
X186743074Y-108156744D01*
X186743071Y-108156746D01*
X186649890Y-108249927D01*
X186649888Y-108249930D01*
X186583996Y-108364056D01*
X186577748Y-108387375D01*
X186549888Y-108491352D01*
X180606323Y-108491352D01*
X179096819Y-106981848D01*
X179063334Y-106920525D01*
X179060500Y-106894167D01*
X179060500Y-106860439D01*
X179046131Y-106806814D01*
X179040021Y-106784011D01*
X179017008Y-106744151D01*
X179000464Y-106715495D01*
X179000458Y-106715487D01*
X178944511Y-106659540D01*
X177954513Y-105669541D01*
X177954511Y-105669540D01*
X177951731Y-105667935D01*
X177951730Y-105667934D01*
X177951724Y-105667931D01*
X177914972Y-105646712D01*
X177885990Y-105629979D01*
X177860513Y-105623152D01*
X177809562Y-105609500D01*
X177809560Y-105609500D01*
X174608676Y-105609500D01*
X174541637Y-105589815D01*
X174520995Y-105573181D01*
X174457316Y-105509502D01*
X174457314Y-105509500D01*
X174396088Y-105474151D01*
X174343187Y-105443608D01*
X174251895Y-105419147D01*
X174215892Y-105409500D01*
X174084108Y-105409500D01*
X173956814Y-105443608D01*
X173956813Y-105443608D01*
X173956811Y-105443609D01*
X173956810Y-105443609D01*
X173867938Y-105494920D01*
X173800038Y-105511393D01*
X173734011Y-105488540D01*
X173690820Y-105433619D01*
X173681938Y-105387533D01*
X173681938Y-104534994D01*
X173701623Y-104467955D01*
X173718253Y-104447317D01*
X174112555Y-104053014D01*
X174160109Y-104023369D01*
X175221316Y-103660464D01*
X175221330Y-103660456D01*
X175225949Y-103658445D01*
X175226258Y-103659154D01*
X175253153Y-103649505D01*
X175295817Y-103641019D01*
X175469525Y-103569067D01*
X175625858Y-103464608D01*
X175758808Y-103331658D01*
X175863267Y-103175325D01*
X175880739Y-103133141D01*
X175924579Y-103078741D01*
X175990873Y-103056675D01*
X176058572Y-103073954D01*
X176106183Y-103125090D01*
X176109852Y-103133123D01*
X176127330Y-103175318D01*
X176127334Y-103175327D01*
X176127336Y-103175331D01*
X176231791Y-103331657D01*
X176231794Y-103331661D01*
X176364738Y-103464605D01*
X176364742Y-103464608D01*
X176521068Y-103569063D01*
X176521081Y-103569070D01*
X176614358Y-103607706D01*
X176694783Y-103641019D01*
X176722305Y-103646493D01*
X176737143Y-103649445D01*
X176764386Y-103658232D01*
X176769279Y-103660462D01*
X176769283Y-103660465D01*
X176995424Y-103737799D01*
X177002106Y-103739957D01*
X177002862Y-103740187D01*
X177089477Y-103747329D01*
X177098356Y-103746161D01*
X177135127Y-103733681D01*
X177142829Y-103731346D01*
X177206774Y-103714213D01*
X177225391Y-103709225D01*
X177257483Y-103705000D01*
X177302518Y-103705000D01*
X177334603Y-103709223D01*
X177378096Y-103720876D01*
X177408001Y-103733263D01*
X177446995Y-103755777D01*
X177472669Y-103775477D01*
X177504516Y-103807324D01*
X177524219Y-103833001D01*
X177545087Y-103869145D01*
X177592509Y-103925103D01*
X177592511Y-103925104D01*
X177592513Y-103925107D01*
X177598850Y-103930319D01*
X177598855Y-103930323D01*
X177662907Y-103966060D01*
X177830487Y-104023368D01*
X177878045Y-104053016D01*
X178834540Y-105009511D01*
X178890489Y-105065460D01*
X178890491Y-105065461D01*
X178890495Y-105065464D01*
X178959004Y-105105017D01*
X178959011Y-105105021D01*
X179035438Y-105125500D01*
X179114562Y-105125500D01*
X187374167Y-105125500D01*
X187441206Y-105145185D01*
X187461848Y-105161819D01*
X187865608Y-105565579D01*
X187899093Y-105626902D01*
X187894109Y-105696594D01*
X187852237Y-105752527D01*
X187786773Y-105776944D01*
X187777927Y-105777260D01*
X187664942Y-105777260D01*
X187537646Y-105811368D01*
X187423520Y-105877260D01*
X187423517Y-105877262D01*
X187330336Y-105970443D01*
X187330334Y-105970446D01*
X187264442Y-106084572D01*
X187247997Y-106145947D01*
X187230334Y-106211868D01*
X187230334Y-106343652D01*
X187239106Y-106376391D01*
X187264442Y-106470947D01*
X187287169Y-106510311D01*
X187330334Y-106585074D01*
X187423520Y-106678260D01*
X187537648Y-106744152D01*
X187664942Y-106778260D01*
X187664944Y-106778260D01*
X187796724Y-106778260D01*
X187796726Y-106778260D01*
X187924020Y-106744152D01*
X188038148Y-106678260D01*
X188131334Y-106585074D01*
X188197226Y-106470946D01*
X188231334Y-106343652D01*
X188231334Y-106211868D01*
X188231334Y-106203741D01*
X188233496Y-106203741D01*
X188242502Y-106145947D01*
X188288877Y-106093686D01*
X188356144Y-106074794D01*
X188416679Y-106091397D01*
X188423804Y-106095510D01*
X188425451Y-106096461D01*
X188501878Y-106116940D01*
X189406586Y-106116940D01*
X189457847Y-106128032D01*
X189822482Y-106293580D01*
X189822485Y-106293581D01*
X189824096Y-106294029D01*
X189826549Y-106295058D01*
X189827004Y-106295224D01*
X189826995Y-106295246D01*
X189852875Y-106306108D01*
X189889942Y-106327509D01*
X190017236Y-106361617D01*
X190017238Y-106361617D01*
X190149018Y-106361617D01*
X190149020Y-106361617D01*
X190276314Y-106327509D01*
X190388501Y-106262737D01*
X190456399Y-106246265D01*
X190522426Y-106269117D01*
X190565617Y-106324038D01*
X190574500Y-106370125D01*
X190574500Y-107114562D01*
X190586879Y-107160760D01*
X190589077Y-107168962D01*
X190593302Y-107201056D01*
X190593302Y-107368078D01*
X190594084Y-107370995D01*
X190613781Y-107444506D01*
X190613782Y-107444507D01*
X190623904Y-107462039D01*
X190637955Y-107486376D01*
X190653342Y-107513027D01*
X190653344Y-107513029D01*
X190768800Y-107628485D01*
X190793437Y-107663623D01*
X190977815Y-108057755D01*
X190982444Y-108067651D01*
X190985770Y-108080062D01*
X190998841Y-108102702D01*
X191001103Y-108107537D01*
X191010831Y-108128331D01*
X191017838Y-108141961D01*
X191018703Y-108143499D01*
X191020466Y-108146573D01*
X191024780Y-108152398D01*
X191024759Y-108152413D01*
X191037259Y-108169243D01*
X191051659Y-108194186D01*
X191051661Y-108194189D01*
X191051662Y-108194190D01*
X191144848Y-108287376D01*
X191258976Y-108353268D01*
X191386270Y-108387376D01*
X191386272Y-108387376D01*
X191518052Y-108387376D01*
X191518054Y-108387376D01*
X191645348Y-108353268D01*
X191759476Y-108287376D01*
X191852662Y-108194190D01*
X191918554Y-108080062D01*
X191952662Y-107952768D01*
X191952662Y-107820984D01*
X191918554Y-107693690D01*
X191852662Y-107579562D01*
X191759476Y-107486376D01*
X191751355Y-107481687D01*
X191717324Y-107462038D01*
X191717324Y-107462039D01*
X191711390Y-107458613D01*
X191693612Y-107445543D01*
X191667996Y-107433559D01*
X191663377Y-107430892D01*
X191663374Y-107430889D01*
X191645354Y-107420486D01*
X191645338Y-107420480D01*
X191643483Y-107419983D01*
X191623039Y-107412528D01*
X191265759Y-107245390D01*
X191258019Y-107238558D01*
X191248209Y-107235360D01*
X191232274Y-107215833D01*
X191213377Y-107199153D01*
X191209385Y-107187785D01*
X191204034Y-107181227D01*
X191199897Y-107160760D01*
X191195096Y-107147084D01*
X191194302Y-107140102D01*
X191194302Y-107054240D01*
X191177336Y-106990925D01*
X191176294Y-106981757D01*
X191176892Y-106978320D01*
X191175500Y-106967745D01*
X191175500Y-106211868D01*
X192380334Y-106211868D01*
X192380334Y-106343652D01*
X192389106Y-106376391D01*
X192414442Y-106470947D01*
X192437169Y-106510311D01*
X192480334Y-106585074D01*
X192573520Y-106678260D01*
X192687648Y-106744152D01*
X192814942Y-106778260D01*
X192814944Y-106778260D01*
X192946724Y-106778260D01*
X192946726Y-106778260D01*
X193074020Y-106744152D01*
X193188148Y-106678260D01*
X193281334Y-106585074D01*
X193347226Y-106470946D01*
X193381334Y-106343652D01*
X193381334Y-106211868D01*
X193347226Y-106084574D01*
X193341579Y-106074794D01*
X193329749Y-106054303D01*
X193281334Y-105970446D01*
X193188148Y-105877260D01*
X193131084Y-105844314D01*
X193074021Y-105811368D01*
X193010373Y-105794314D01*
X192946726Y-105777260D01*
X192814942Y-105777260D01*
X192687646Y-105811368D01*
X192573520Y-105877260D01*
X192573517Y-105877262D01*
X192480336Y-105970443D01*
X192480334Y-105970446D01*
X192414442Y-106084572D01*
X192397997Y-106145947D01*
X192380334Y-106211868D01*
X191175500Y-106211868D01*
X191175500Y-104941868D01*
X192380334Y-104941868D01*
X192380334Y-105073652D01*
X192397388Y-105137299D01*
X192414442Y-105200947D01*
X192447388Y-105258010D01*
X192480334Y-105315074D01*
X192573520Y-105408260D01*
X192687648Y-105474152D01*
X192814942Y-105508260D01*
X192814944Y-105508260D01*
X192946724Y-105508260D01*
X192946726Y-105508260D01*
X193074020Y-105474152D01*
X193188148Y-105408260D01*
X193281334Y-105315074D01*
X193347226Y-105200946D01*
X193381334Y-105073652D01*
X193381334Y-104941868D01*
X193347226Y-104814574D01*
X193281334Y-104700446D01*
X193188148Y-104607260D01*
X193107052Y-104560439D01*
X193074021Y-104541368D01*
X193010373Y-104524314D01*
X192946726Y-104507260D01*
X192814942Y-104507260D01*
X192687646Y-104541368D01*
X192573520Y-104607260D01*
X192573517Y-104607262D01*
X192480336Y-104700443D01*
X192480334Y-104700446D01*
X192414442Y-104814572D01*
X192398227Y-104875088D01*
X192380334Y-104941868D01*
X191175500Y-104941868D01*
X191175500Y-104560439D01*
X191171358Y-104544982D01*
X191155021Y-104484011D01*
X191133834Y-104447313D01*
X191115464Y-104415495D01*
X191115458Y-104415487D01*
X188337296Y-101637325D01*
X188303811Y-101576002D01*
X188308795Y-101506310D01*
X188350667Y-101450377D01*
X188392880Y-101429871D01*
X188443186Y-101416392D01*
X188557314Y-101350500D01*
X188650500Y-101257314D01*
X188716392Y-101143186D01*
X188750500Y-101015892D01*
X188750500Y-100884108D01*
X188716392Y-100756814D01*
X188650500Y-100642686D01*
X188557314Y-100549500D01*
X188500250Y-100516554D01*
X188443187Y-100483608D01*
X188421645Y-100477836D01*
X188315892Y-100449500D01*
X188184108Y-100449500D01*
X188056812Y-100483608D01*
X187942686Y-100549500D01*
X187942683Y-100549502D01*
X187849502Y-100642683D01*
X187849500Y-100642686D01*
X187783608Y-100756814D01*
X187754825Y-100864235D01*
X187752857Y-100871580D01*
X187716492Y-100931240D01*
X187653645Y-100961769D01*
X187600990Y-100959261D01*
X187564562Y-100949500D01*
X187564560Y-100949500D01*
X183440441Y-100949500D01*
X183373402Y-100929815D01*
X183327647Y-100877011D01*
X183317703Y-100807853D01*
X183346728Y-100744297D01*
X183371550Y-100722398D01*
X183409091Y-100697313D01*
X183449058Y-100670608D01*
X183582008Y-100537658D01*
X183686467Y-100381325D01*
X183695670Y-100359108D01*
X189599500Y-100359108D01*
X189599500Y-100490891D01*
X189633608Y-100618187D01*
X189647751Y-100642683D01*
X189699500Y-100732314D01*
X189792686Y-100825500D01*
X189906814Y-100891392D01*
X190034108Y-100925500D01*
X190034110Y-100925500D01*
X190165890Y-100925500D01*
X190165892Y-100925500D01*
X190293186Y-100891392D01*
X190407314Y-100825500D01*
X190500500Y-100732314D01*
X190566392Y-100618186D01*
X190600500Y-100490892D01*
X190600500Y-100359108D01*
X190566392Y-100231814D01*
X190500500Y-100117686D01*
X190407314Y-100024500D01*
X190346692Y-99989500D01*
X190293187Y-99958608D01*
X190229539Y-99941554D01*
X190165892Y-99924500D01*
X190034108Y-99924500D01*
X189906812Y-99958608D01*
X189792686Y-100024500D01*
X189792683Y-100024502D01*
X189699502Y-100117683D01*
X189699500Y-100117686D01*
X189633608Y-100231812D01*
X189599500Y-100359108D01*
X183695670Y-100359108D01*
X183758419Y-100207617D01*
X183795100Y-100023210D01*
X183795100Y-99835190D01*
X183795100Y-99835187D01*
X183795099Y-99835185D01*
X183772317Y-99720652D01*
X183758419Y-99650783D01*
X183729187Y-99580211D01*
X183686470Y-99477081D01*
X183686463Y-99477068D01*
X183582008Y-99320742D01*
X183582005Y-99320738D01*
X183449061Y-99187794D01*
X183449057Y-99187791D01*
X183292731Y-99083336D01*
X183292718Y-99083329D01*
X183119021Y-99011382D01*
X183119009Y-99011379D01*
X182934613Y-98974700D01*
X182934610Y-98974700D01*
X182746590Y-98974700D01*
X182746587Y-98974700D01*
X182562190Y-99011379D01*
X182562178Y-99011382D01*
X182388481Y-99083329D01*
X182388468Y-99083336D01*
X182232142Y-99187791D01*
X182232138Y-99187794D01*
X182099194Y-99320738D01*
X182099191Y-99320742D01*
X181994736Y-99477068D01*
X181994729Y-99477081D01*
X181922782Y-99650778D01*
X181922779Y-99650790D01*
X181886100Y-99835185D01*
X181886100Y-100023214D01*
X181922779Y-100207609D01*
X181922782Y-100207621D01*
X181994729Y-100381318D01*
X181994736Y-100381331D01*
X182099191Y-100537657D01*
X182099194Y-100537661D01*
X182232138Y-100670605D01*
X182232142Y-100670608D01*
X182309650Y-100722398D01*
X182354455Y-100776010D01*
X182363162Y-100845335D01*
X182333007Y-100908363D01*
X182273564Y-100945082D01*
X182240759Y-100949500D01*
X181052841Y-100949500D01*
X180985802Y-100929815D01*
X180940047Y-100877011D01*
X180930103Y-100807853D01*
X180959128Y-100744297D01*
X180983950Y-100722398D01*
X181021491Y-100697313D01*
X181061458Y-100670608D01*
X181194408Y-100537658D01*
X181298867Y-100381325D01*
X181370819Y-100207617D01*
X181407500Y-100023210D01*
X181407500Y-99835190D01*
X181407500Y-99835187D01*
X181407499Y-99835185D01*
X181384717Y-99720652D01*
X181370819Y-99650783D01*
X181341587Y-99580211D01*
X181298870Y-99477081D01*
X181298863Y-99477068D01*
X181194408Y-99320742D01*
X181194405Y-99320738D01*
X181061461Y-99187794D01*
X181061457Y-99187791D01*
X180905131Y-99083336D01*
X180905118Y-99083329D01*
X180731421Y-99011382D01*
X180731409Y-99011379D01*
X180547013Y-98974700D01*
X180547010Y-98974700D01*
X180358990Y-98974700D01*
X180358987Y-98974700D01*
X180174590Y-99011379D01*
X180174578Y-99011382D01*
X180000881Y-99083329D01*
X180000868Y-99083336D01*
X179844542Y-99187791D01*
X179844538Y-99187794D01*
X179711594Y-99320738D01*
X179711591Y-99320742D01*
X179607136Y-99477068D01*
X179607131Y-99477077D01*
X179551561Y-99611238D01*
X179507720Y-99665641D01*
X179441426Y-99687706D01*
X179373727Y-99670427D01*
X179326116Y-99619290D01*
X179322439Y-99611238D01*
X179266868Y-99477077D01*
X179266863Y-99477068D01*
X179162408Y-99320742D01*
X179162405Y-99320738D01*
X179029461Y-99187794D01*
X179029457Y-99187791D01*
X178873131Y-99083336D01*
X178873118Y-99083329D01*
X178835049Y-99067561D01*
X178780645Y-99023720D01*
X178758580Y-98957426D01*
X178775859Y-98889727D01*
X178826996Y-98842116D01*
X178882501Y-98829000D01*
X179078301Y-98829000D01*
X179078318Y-98828998D01*
X179374365Y-98790023D01*
X179662817Y-98712732D01*
X179938684Y-98598465D01*
X179938698Y-98598458D01*
X180197298Y-98449155D01*
X180197315Y-98449144D01*
X180353637Y-98329192D01*
X180353637Y-98329190D01*
X179633443Y-97608997D01*
X179756349Y-97519702D01*
X179897702Y-97378349D01*
X179986997Y-97255444D01*
X180707190Y-97975637D01*
X180707192Y-97975637D01*
X180827144Y-97819315D01*
X180827155Y-97819298D01*
X180963656Y-97582872D01*
X181052272Y-97377668D01*
X181090733Y-97284814D01*
X181168023Y-96996365D01*
X181206998Y-96700318D01*
X181207000Y-96700301D01*
X181207000Y-96401698D01*
X181206998Y-96401681D01*
X181168023Y-96105634D01*
X181090732Y-95817182D01*
X180976465Y-95541315D01*
X180976458Y-95541301D01*
X180827155Y-95282701D01*
X180827150Y-95282694D01*
X180707191Y-95126361D01*
X179986997Y-95846555D01*
X179897702Y-95723651D01*
X179756349Y-95582298D01*
X179633443Y-95493002D01*
X180353638Y-94772807D01*
X180353458Y-94770061D01*
X180368715Y-94701877D01*
X180418413Y-94652767D01*
X180477271Y-94637950D01*
X184897646Y-94640897D01*
X184964670Y-94660626D01*
X185010390Y-94713461D01*
X185020287Y-94782626D01*
X184991220Y-94846162D01*
X184959561Y-94872284D01*
X184899702Y-94906843D01*
X184899686Y-94906854D01*
X184662788Y-95088632D01*
X184662781Y-95088638D01*
X184451638Y-95299781D01*
X184451632Y-95299788D01*
X184269854Y-95536686D01*
X184269844Y-95536701D01*
X184120541Y-95795301D01*
X184120534Y-95795315D01*
X184006267Y-96071182D01*
X183928976Y-96359634D01*
X183890001Y-96655681D01*
X183890000Y-96655698D01*
X183890000Y-97190000D01*
X184898000Y-97190000D01*
X184898000Y-97690000D01*
X183890000Y-97690000D01*
X183890000Y-98224301D01*
X183890001Y-98224318D01*
X183928976Y-98520365D01*
X184006267Y-98808817D01*
X184120534Y-99084684D01*
X184120541Y-99084698D01*
X184269844Y-99343298D01*
X184269854Y-99343313D01*
X184451632Y-99580211D01*
X184451638Y-99580218D01*
X184662781Y-99791361D01*
X184662788Y-99791367D01*
X184899686Y-99973145D01*
X184899701Y-99973155D01*
X185158301Y-100122458D01*
X185158315Y-100122465D01*
X185434182Y-100236732D01*
X185722634Y-100314023D01*
X185918000Y-100339742D01*
X185918000Y-99321234D01*
X186068049Y-99345000D01*
X186267951Y-99345000D01*
X186418000Y-99321234D01*
X186418000Y-100339741D01*
X186613365Y-100314023D01*
X186901817Y-100236732D01*
X187177684Y-100122465D01*
X187177698Y-100122458D01*
X187436298Y-99973155D01*
X187436313Y-99973145D01*
X187673211Y-99791367D01*
X187673218Y-99791361D01*
X187884361Y-99580218D01*
X187884367Y-99580211D01*
X188066145Y-99343313D01*
X188066155Y-99343298D01*
X188215458Y-99084698D01*
X188215465Y-99084684D01*
X188329732Y-98808817D01*
X188407023Y-98520365D01*
X188445998Y-98224318D01*
X188446000Y-98224301D01*
X188446000Y-97690000D01*
X187438000Y-97690000D01*
X187438000Y-97434108D01*
X189274500Y-97434108D01*
X189274500Y-97565891D01*
X189308608Y-97693187D01*
X189328682Y-97727955D01*
X189374500Y-97807314D01*
X189467686Y-97900500D01*
X189515770Y-97928261D01*
X189533549Y-97941332D01*
X189559162Y-97953314D01*
X189563776Y-97955978D01*
X189563781Y-97955981D01*
X189581810Y-97966390D01*
X189581814Y-97966392D01*
X189583669Y-97966889D01*
X189604120Y-97974345D01*
X189998250Y-98158721D01*
X190033387Y-98183358D01*
X193763181Y-101913152D01*
X193796666Y-101974475D01*
X193799500Y-102000833D01*
X193799500Y-116139562D01*
X193807819Y-116170607D01*
X193819979Y-116215990D01*
X193819980Y-116215991D01*
X193847954Y-116264445D01*
X193850909Y-116269562D01*
X193859540Y-116284511D01*
X193859542Y-116284514D01*
X197288181Y-119713152D01*
X197321666Y-119774475D01*
X197324500Y-119800833D01*
X197324500Y-127300495D01*
X197304815Y-127367534D01*
X197252011Y-127413289D01*
X197182853Y-127423233D01*
X197168407Y-127420270D01*
X197090892Y-127399500D01*
X196959108Y-127399500D01*
X196831812Y-127433608D01*
X196717686Y-127499500D01*
X196717683Y-127499502D01*
X196624502Y-127592683D01*
X196624500Y-127592686D01*
X196558608Y-127706812D01*
X196529381Y-127815890D01*
X196524500Y-127834108D01*
X196524500Y-127965892D01*
X196527807Y-127978233D01*
X196558608Y-128093187D01*
X196587476Y-128143186D01*
X196624500Y-128207314D01*
X196717686Y-128300500D01*
X196831814Y-128366392D01*
X196959108Y-128400500D01*
X196959110Y-128400500D01*
X197090889Y-128400500D01*
X197090892Y-128400500D01*
X197168410Y-128379729D01*
X197238256Y-128381392D01*
X197296118Y-128420554D01*
X197323623Y-128484782D01*
X197324500Y-128499504D01*
X197324500Y-128814562D01*
X197328852Y-128830803D01*
X197339205Y-128869443D01*
X197344979Y-128890989D01*
X197362562Y-128921443D01*
X197384540Y-128959511D01*
X201908805Y-133483776D01*
X201964754Y-133539725D01*
X201964756Y-133539726D01*
X201964760Y-133539729D01*
X202013179Y-133567683D01*
X202033276Y-133579286D01*
X202109703Y-133599765D01*
X202188827Y-133599765D01*
X208058348Y-133599765D01*
X208100615Y-133607191D01*
X208519953Y-133759233D01*
X208531079Y-133765657D01*
X208556330Y-133772423D01*
X208582926Y-133782066D01*
X208594471Y-133785776D01*
X208597362Y-133786706D01*
X208598963Y-133787156D01*
X208599008Y-133787168D01*
X208599018Y-133787171D01*
X208602680Y-133788164D01*
X208602682Y-133788164D01*
X208609850Y-133789233D01*
X208609846Y-133789258D01*
X208630579Y-133792317D01*
X208658373Y-133799765D01*
X208658375Y-133799765D01*
X208790155Y-133799765D01*
X208790157Y-133799765D01*
X208917451Y-133765657D01*
X209031579Y-133699765D01*
X209124765Y-133606579D01*
X209190657Y-133492451D01*
X209224765Y-133365157D01*
X209224765Y-133233373D01*
X209217100Y-133204767D01*
X217229395Y-133204767D01*
X217229395Y-133336551D01*
X217232067Y-133346522D01*
X217263503Y-133463846D01*
X217287610Y-133505599D01*
X217329395Y-133577973D01*
X217422581Y-133671159D01*
X217521416Y-133728222D01*
X217528457Y-133732287D01*
X217536709Y-133737051D01*
X217664003Y-133771159D01*
X217664005Y-133771159D01*
X217795785Y-133771159D01*
X217795787Y-133771159D01*
X217923081Y-133737051D01*
X218037209Y-133671159D01*
X218130395Y-133577973D01*
X218196287Y-133463845D01*
X218230395Y-133336551D01*
X218230395Y-133204767D01*
X218196287Y-133077473D01*
X218130395Y-132963345D01*
X218037209Y-132870159D01*
X217960907Y-132826106D01*
X217923082Y-132804267D01*
X217859434Y-132787213D01*
X217795787Y-132770159D01*
X217664003Y-132770159D01*
X217536707Y-132804267D01*
X217422581Y-132870159D01*
X217422578Y-132870161D01*
X217329397Y-132963342D01*
X217329395Y-132963345D01*
X217263503Y-133077471D01*
X217248828Y-133132241D01*
X217229395Y-133204767D01*
X209217100Y-133204767D01*
X209190657Y-133106079D01*
X209124765Y-132991951D01*
X209031579Y-132898765D01*
X208940226Y-132846022D01*
X208917452Y-132832873D01*
X208843761Y-132813128D01*
X208790157Y-132798765D01*
X208658373Y-132798765D01*
X208658369Y-132798765D01*
X208611380Y-132811356D01*
X208611379Y-132811356D01*
X208604762Y-132813128D01*
X208582929Y-132816463D01*
X208556340Y-132826102D01*
X208551198Y-132827480D01*
X208551184Y-132827485D01*
X208531078Y-132832873D01*
X208531068Y-132832877D01*
X208529398Y-132833842D01*
X208509682Y-132843019D01*
X208100614Y-132991339D01*
X208058347Y-132998765D01*
X202325098Y-132998765D01*
X202258059Y-132979080D01*
X202237417Y-132962446D01*
X199871295Y-130596324D01*
X199837810Y-130535001D01*
X199842794Y-130465309D01*
X199884666Y-130409376D01*
X199926879Y-130388870D01*
X199992173Y-130371375D01*
X200106301Y-130305483D01*
X200199487Y-130212297D01*
X200265379Y-130098169D01*
X200299487Y-129970875D01*
X200299487Y-129839091D01*
X200265379Y-129711797D01*
X200199487Y-129597669D01*
X200106301Y-129504483D01*
X200017567Y-129453252D01*
X199992174Y-129438591D01*
X199911343Y-129416933D01*
X199864879Y-129404483D01*
X199733095Y-129404483D01*
X199605799Y-129438591D01*
X199491673Y-129504483D01*
X199491670Y-129504485D01*
X199398489Y-129597666D01*
X199398487Y-129597669D01*
X199352536Y-129677259D01*
X199332595Y-129711797D01*
X199316881Y-129770443D01*
X199315101Y-129777087D01*
X199278736Y-129836747D01*
X199215889Y-129867276D01*
X199146513Y-129858981D01*
X199107645Y-129832674D01*
X197961819Y-128686848D01*
X197928334Y-128625525D01*
X197925500Y-128599167D01*
X197925500Y-127685303D01*
X198918045Y-127685303D01*
X198918045Y-127817086D01*
X198952153Y-127944382D01*
X198977805Y-127988811D01*
X199018045Y-128058509D01*
X199111231Y-128151695D01*
X199225359Y-128217587D01*
X199352653Y-128251695D01*
X199352655Y-128251695D01*
X199484435Y-128251695D01*
X199484437Y-128251695D01*
X199611731Y-128217587D01*
X199725859Y-128151695D01*
X199819045Y-128058509D01*
X199884937Y-127944381D01*
X199919045Y-127817087D01*
X199919045Y-127685303D01*
X199884937Y-127558009D01*
X199880025Y-127549502D01*
X199875861Y-127542289D01*
X199819045Y-127443881D01*
X199725859Y-127350695D01*
X199666292Y-127316304D01*
X199611732Y-127284803D01*
X199548084Y-127267749D01*
X199484437Y-127250695D01*
X199352653Y-127250695D01*
X199225357Y-127284803D01*
X199111231Y-127350695D01*
X199111228Y-127350697D01*
X199018047Y-127443878D01*
X199018045Y-127443881D01*
X198952153Y-127558007D01*
X198918045Y-127685303D01*
X197925500Y-127685303D01*
X197925500Y-125859108D01*
X199799500Y-125859108D01*
X199799500Y-125990891D01*
X199833608Y-126118187D01*
X199856200Y-126157316D01*
X199899500Y-126232314D01*
X199992686Y-126325500D01*
X200091521Y-126382563D01*
X200098271Y-126386460D01*
X200106814Y-126391392D01*
X200234108Y-126425500D01*
X200234110Y-126425500D01*
X200365890Y-126425500D01*
X200365892Y-126425500D01*
X200493186Y-126391392D01*
X200607314Y-126325500D01*
X200700500Y-126232314D01*
X200766392Y-126118186D01*
X200800500Y-125990892D01*
X200800500Y-125859108D01*
X200766392Y-125731814D01*
X200700500Y-125617686D01*
X200607314Y-125524500D01*
X200550250Y-125491554D01*
X200493187Y-125458608D01*
X200429539Y-125441554D01*
X200365892Y-125424500D01*
X200234108Y-125424500D01*
X200106812Y-125458608D01*
X199992686Y-125524500D01*
X199992683Y-125524502D01*
X199899502Y-125617683D01*
X199899500Y-125617686D01*
X199833608Y-125731812D01*
X199799500Y-125859108D01*
X197925500Y-125859108D01*
X197925500Y-120040972D01*
X197945185Y-119973933D01*
X197997989Y-119928178D01*
X198067147Y-119918234D01*
X198081582Y-119921195D01*
X198127564Y-119933516D01*
X198127566Y-119933516D01*
X198259346Y-119933516D01*
X198259348Y-119933516D01*
X198386642Y-119899408D01*
X198500770Y-119833516D01*
X198593956Y-119740330D01*
X198659848Y-119626202D01*
X198693956Y-119498908D01*
X198693956Y-119367124D01*
X198659848Y-119239830D01*
X198593956Y-119125702D01*
X198500770Y-119032516D01*
X198443706Y-118999570D01*
X198386643Y-118966624D01*
X198322995Y-118949570D01*
X198259348Y-118932516D01*
X198127564Y-118932516D01*
X198000268Y-118966624D01*
X197886142Y-119032516D01*
X197886139Y-119032518D01*
X197792958Y-119125699D01*
X197792953Y-119125705D01*
X197785070Y-119139359D01*
X197734500Y-119187572D01*
X197665892Y-119200791D01*
X197601029Y-119174819D01*
X197590005Y-119165034D01*
X194436819Y-116011848D01*
X194403334Y-115950525D01*
X194400500Y-115924167D01*
X194400500Y-105395399D01*
X194420185Y-105328360D01*
X194472989Y-105282605D01*
X194542147Y-105272661D01*
X194556576Y-105275620D01*
X194683757Y-105309698D01*
X194683760Y-105309698D01*
X194815539Y-105309698D01*
X194815541Y-105309698D01*
X194942835Y-105275590D01*
X195056963Y-105209698D01*
X195150149Y-105116512D01*
X195216041Y-105002384D01*
X195250149Y-104875090D01*
X195250149Y-104743306D01*
X195216041Y-104616012D01*
X195150149Y-104501884D01*
X195056963Y-104408698D01*
X194999899Y-104375752D01*
X194942836Y-104342806D01*
X194856228Y-104319600D01*
X194815541Y-104308698D01*
X194683757Y-104308698D01*
X194556593Y-104342771D01*
X194486743Y-104341108D01*
X194428881Y-104301945D01*
X194401377Y-104237716D01*
X194400500Y-104222996D01*
X194400500Y-101785440D01*
X194400500Y-101785438D01*
X194396015Y-101768700D01*
X194380022Y-101709012D01*
X194340460Y-101640489D01*
X193024079Y-100324108D01*
X196419500Y-100324108D01*
X196419500Y-100455892D01*
X196428878Y-100490890D01*
X196453608Y-100583187D01*
X196468285Y-100608608D01*
X196519500Y-100697314D01*
X196612686Y-100790500D01*
X196726814Y-100856392D01*
X196854108Y-100890500D01*
X196854110Y-100890500D01*
X196985890Y-100890500D01*
X196985892Y-100890500D01*
X197113186Y-100856392D01*
X197227314Y-100790500D01*
X197320500Y-100697314D01*
X197386392Y-100583186D01*
X197420500Y-100455892D01*
X197420500Y-100324108D01*
X197386392Y-100196814D01*
X197320500Y-100082686D01*
X197227314Y-99989500D01*
X197170250Y-99956554D01*
X197113187Y-99923608D01*
X197049539Y-99906554D01*
X196985892Y-99889500D01*
X196854108Y-99889500D01*
X196726812Y-99923608D01*
X196612686Y-99989500D01*
X196612683Y-99989502D01*
X196519502Y-100082683D01*
X196519500Y-100082686D01*
X196453608Y-100196812D01*
X196442912Y-100236732D01*
X196419500Y-100324108D01*
X193024079Y-100324108D01*
X190458359Y-97758388D01*
X190433722Y-97723250D01*
X190244718Y-97319228D01*
X190241392Y-97306814D01*
X190228314Y-97284163D01*
X190216332Y-97258549D01*
X190209321Y-97244911D01*
X190208472Y-97243401D01*
X190206693Y-97240300D01*
X190206690Y-97240297D01*
X190202385Y-97234482D01*
X190202405Y-97234467D01*
X190189907Y-97217638D01*
X190175504Y-97192692D01*
X190175501Y-97192689D01*
X190175500Y-97192686D01*
X190082314Y-97099500D01*
X190025250Y-97066554D01*
X189968187Y-97033608D01*
X189904539Y-97016554D01*
X189840892Y-96999500D01*
X189709108Y-96999500D01*
X189581812Y-97033608D01*
X189467686Y-97099500D01*
X189467683Y-97099502D01*
X189374502Y-97192683D01*
X189374500Y-97192686D01*
X189308608Y-97306812D01*
X189274500Y-97434108D01*
X187438000Y-97434108D01*
X187438000Y-97190000D01*
X188446000Y-97190000D01*
X188446000Y-96655698D01*
X188445998Y-96655681D01*
X188407023Y-96359634D01*
X188393208Y-96308075D01*
X188386786Y-96284108D01*
X192824500Y-96284108D01*
X192824500Y-96415891D01*
X192858608Y-96543187D01*
X192863119Y-96551000D01*
X192924500Y-96657314D01*
X193017686Y-96750500D01*
X193131814Y-96816392D01*
X193259108Y-96850500D01*
X193259110Y-96850500D01*
X193390890Y-96850500D01*
X193390892Y-96850500D01*
X193518186Y-96816392D01*
X193632314Y-96750500D01*
X193725500Y-96657314D01*
X193791392Y-96543186D01*
X193825500Y-96415892D01*
X193825500Y-96284108D01*
X193791392Y-96156814D01*
X193725500Y-96042686D01*
X193632314Y-95949500D01*
X193521247Y-95885375D01*
X193518187Y-95883608D01*
X193454539Y-95866554D01*
X193390892Y-95849500D01*
X193259108Y-95849500D01*
X193131812Y-95883608D01*
X193017686Y-95949500D01*
X193017683Y-95949502D01*
X192924502Y-96042683D01*
X192924500Y-96042686D01*
X192858608Y-96156812D01*
X192824500Y-96284108D01*
X188386786Y-96284108D01*
X188329732Y-96071182D01*
X188215465Y-95795315D01*
X188215458Y-95795301D01*
X188066155Y-95536701D01*
X188066145Y-95536686D01*
X187884367Y-95299788D01*
X187884361Y-95299781D01*
X187673218Y-95088638D01*
X187673211Y-95088632D01*
X187436313Y-94906854D01*
X187436298Y-94906844D01*
X187379376Y-94873980D01*
X187331160Y-94823413D01*
X187317937Y-94754806D01*
X187343905Y-94689941D01*
X187400820Y-94649413D01*
X187441455Y-94642593D01*
X198875866Y-94650216D01*
X198942891Y-94669945D01*
X198988611Y-94722780D01*
X198999782Y-94774133D01*
X199009193Y-108891877D01*
X198989553Y-108958930D01*
X198936780Y-109004720D01*
X198867628Y-109014710D01*
X198804053Y-108985727D01*
X198797512Y-108979641D01*
X198161819Y-108343948D01*
X198128334Y-108282625D01*
X198125500Y-108256267D01*
X198125500Y-107458676D01*
X198145185Y-107391637D01*
X198161819Y-107370995D01*
X198164738Y-107368076D01*
X198225500Y-107307314D01*
X198291392Y-107193186D01*
X198325500Y-107065892D01*
X198325500Y-106934108D01*
X198291392Y-106806814D01*
X198225500Y-106692686D01*
X198132314Y-106599500D01*
X198075250Y-106566554D01*
X198018187Y-106533608D01*
X197954539Y-106516554D01*
X197890892Y-106499500D01*
X197759108Y-106499500D01*
X197680592Y-106520537D01*
X197610743Y-106518875D01*
X197552881Y-106479712D01*
X197525377Y-106415484D01*
X197524500Y-106400763D01*
X197524500Y-102159496D01*
X197504020Y-102083066D01*
X197504017Y-102083061D01*
X197464464Y-102014552D01*
X197464458Y-102014544D01*
X196309456Y-100859542D01*
X196309454Y-100859540D01*
X196287767Y-100847019D01*
X196240934Y-100819980D01*
X196240933Y-100819979D01*
X196215456Y-100813152D01*
X196164505Y-100799500D01*
X196164503Y-100799500D01*
X195483676Y-100799500D01*
X195416637Y-100779815D01*
X195395995Y-100763181D01*
X195307316Y-100674502D01*
X195307314Y-100674500D01*
X195250250Y-100641554D01*
X195193187Y-100608608D01*
X195129539Y-100591554D01*
X195065892Y-100574500D01*
X194934108Y-100574500D01*
X194806812Y-100608608D01*
X194692686Y-100674500D01*
X194692683Y-100674502D01*
X194599502Y-100767683D01*
X194599500Y-100767686D01*
X194533608Y-100881812D01*
X194499500Y-101009108D01*
X194499500Y-101140891D01*
X194533608Y-101268187D01*
X194566554Y-101325250D01*
X194599500Y-101382314D01*
X194692686Y-101475500D01*
X194806814Y-101541392D01*
X194934108Y-101575500D01*
X194934110Y-101575500D01*
X195065890Y-101575500D01*
X195065892Y-101575500D01*
X195193186Y-101541392D01*
X195307314Y-101475500D01*
X195345995Y-101436819D01*
X195407318Y-101403334D01*
X195433676Y-101400500D01*
X195949110Y-101400500D01*
X196016149Y-101420185D01*
X196036791Y-101436819D01*
X196887181Y-102287209D01*
X196920666Y-102348532D01*
X196923500Y-102374890D01*
X196923500Y-102624482D01*
X196903815Y-102691521D01*
X196851011Y-102737276D01*
X196781853Y-102747220D01*
X196718297Y-102718195D01*
X196680523Y-102659417D01*
X196679725Y-102656575D01*
X196666392Y-102606814D01*
X196600500Y-102492686D01*
X196507314Y-102399500D01*
X196450250Y-102366554D01*
X196393187Y-102333608D01*
X196317219Y-102313253D01*
X196265892Y-102299500D01*
X196134108Y-102299500D01*
X196006812Y-102333608D01*
X195892686Y-102399500D01*
X195892683Y-102399502D01*
X195799502Y-102492683D01*
X195799500Y-102492686D01*
X195733607Y-102606814D01*
X195712861Y-102684235D01*
X195712807Y-102684441D01*
X195710744Y-102692143D01*
X195701717Y-102714393D01*
X195692919Y-102760379D01*
X195692175Y-102764266D01*
X195692175Y-102764267D01*
X195633231Y-103072309D01*
X195622462Y-103101245D01*
X195623088Y-103101505D01*
X195619978Y-103109011D01*
X195613512Y-103133144D01*
X195599500Y-103185438D01*
X195599500Y-103250953D01*
X195598072Y-103260963D01*
X195597864Y-103263162D01*
X195597274Y-103270996D01*
X195599500Y-103284095D01*
X195599500Y-113864562D01*
X195603886Y-113880930D01*
X195619979Y-113940990D01*
X195619980Y-113940991D01*
X195628339Y-113955469D01*
X195648541Y-113990460D01*
X195659539Y-114009509D01*
X195659541Y-114009512D01*
X196213022Y-114562993D01*
X196246507Y-114624316D01*
X196241523Y-114694008D01*
X196199651Y-114749941D01*
X196134187Y-114774358D01*
X196124019Y-114774055D01*
X196124019Y-114774500D01*
X195984108Y-114774500D01*
X195856812Y-114808608D01*
X195742686Y-114874500D01*
X195742683Y-114874502D01*
X195649502Y-114967683D01*
X195649500Y-114967686D01*
X195583608Y-115081812D01*
X195563512Y-115156814D01*
X195549500Y-115209108D01*
X195549500Y-115340892D01*
X195550711Y-115345412D01*
X195583608Y-115468187D01*
X195611407Y-115516336D01*
X195649500Y-115582314D01*
X195742686Y-115675500D01*
X195856814Y-115741392D01*
X195984108Y-115775500D01*
X195984110Y-115775500D01*
X196115890Y-115775500D01*
X196115892Y-115775500D01*
X196243186Y-115741392D01*
X196357314Y-115675500D01*
X196450500Y-115582314D01*
X196468113Y-115551806D01*
X196518679Y-115503592D01*
X196587286Y-115490368D01*
X196652151Y-115516336D01*
X196692680Y-115573250D01*
X196699500Y-115613807D01*
X196699500Y-116264562D01*
X196713152Y-116315513D01*
X196719979Y-116340990D01*
X196719980Y-116340991D01*
X196720316Y-116341573D01*
X196739100Y-116374108D01*
X196759540Y-116409511D01*
X196759542Y-116409513D01*
X202564181Y-122214152D01*
X202597666Y-122275475D01*
X202600500Y-122301833D01*
X202600500Y-129031579D01*
X202596275Y-129063670D01*
X202595546Y-129066387D01*
X202595546Y-131340907D01*
X202588120Y-131383173D01*
X202531759Y-131538619D01*
X202439798Y-131792247D01*
X202439797Y-131792248D01*
X202436071Y-131802521D01*
X202429654Y-131813638D01*
X202422893Y-131838865D01*
X202421071Y-131843892D01*
X202413243Y-131865484D01*
X202408577Y-131880015D01*
X202408114Y-131881665D01*
X202407145Y-131885242D01*
X202406079Y-131892399D01*
X202406053Y-131892395D01*
X202402991Y-131913141D01*
X202395547Y-131940924D01*
X202395546Y-131940932D01*
X202395546Y-132072715D01*
X202429654Y-132200011D01*
X202461187Y-132254626D01*
X202495546Y-132314138D01*
X202588732Y-132407324D01*
X202702860Y-132473216D01*
X202830154Y-132507324D01*
X202830156Y-132507324D01*
X202961936Y-132507324D01*
X202961938Y-132507324D01*
X203089232Y-132473216D01*
X203203360Y-132407324D01*
X203296546Y-132314138D01*
X203362438Y-132200010D01*
X203396546Y-132072716D01*
X203396546Y-131940932D01*
X203382181Y-131887321D01*
X203378847Y-131865485D01*
X203369204Y-131838889D01*
X203362438Y-131813638D01*
X203361481Y-131811980D01*
X203352289Y-131792238D01*
X203339325Y-131756482D01*
X203326947Y-131722343D01*
X208037735Y-131722343D01*
X208037735Y-131854127D01*
X208044672Y-131880015D01*
X208071843Y-131981422D01*
X208104789Y-132038485D01*
X208137735Y-132095549D01*
X208230921Y-132188735D01*
X208345049Y-132254627D01*
X208472343Y-132288735D01*
X208472345Y-132288735D01*
X208604125Y-132288735D01*
X208604127Y-132288735D01*
X208731421Y-132254627D01*
X208845549Y-132188735D01*
X208938735Y-132095549D01*
X209004627Y-131981421D01*
X209038735Y-131854127D01*
X209038735Y-131722343D01*
X209026551Y-131676872D01*
X216198203Y-131676872D01*
X216198203Y-131808656D01*
X216208897Y-131848566D01*
X216232311Y-131935951D01*
X216245681Y-131959108D01*
X216298203Y-132050078D01*
X216391389Y-132143264D01*
X216505517Y-132209156D01*
X216632811Y-132243264D01*
X216632813Y-132243264D01*
X216764593Y-132243264D01*
X216764595Y-132243264D01*
X216891889Y-132209156D01*
X217006017Y-132143264D01*
X217099203Y-132050078D01*
X217165095Y-131935950D01*
X217199203Y-131808656D01*
X217199203Y-131676872D01*
X217165095Y-131549578D01*
X217099203Y-131435450D01*
X217006017Y-131342264D01*
X216948953Y-131309318D01*
X216891890Y-131276372D01*
X216828242Y-131259318D01*
X216764595Y-131242264D01*
X216632811Y-131242264D01*
X216505515Y-131276372D01*
X216391389Y-131342264D01*
X216391386Y-131342266D01*
X216298205Y-131435447D01*
X216298203Y-131435450D01*
X216232311Y-131549576D01*
X216220127Y-131595049D01*
X216198203Y-131676872D01*
X209026551Y-131676872D01*
X209004627Y-131595049D01*
X208938735Y-131480921D01*
X208845549Y-131387735D01*
X208764441Y-131340907D01*
X208731422Y-131321843D01*
X208667774Y-131304789D01*
X208604127Y-131287735D01*
X208472343Y-131287735D01*
X208345047Y-131321843D01*
X208230921Y-131387735D01*
X208230918Y-131387737D01*
X208137737Y-131480918D01*
X208137735Y-131480921D01*
X208071843Y-131595047D01*
X208038984Y-131717683D01*
X208037735Y-131722343D01*
X203326947Y-131722343D01*
X203203972Y-131383174D01*
X203196546Y-131340907D01*
X203196546Y-129175375D01*
X203200771Y-129143281D01*
X203201500Y-129140562D01*
X203201500Y-127684108D01*
X209199500Y-127684108D01*
X209199500Y-127815891D01*
X209233608Y-127943187D01*
X209259950Y-127988811D01*
X209299500Y-128057314D01*
X209392686Y-128150500D01*
X209506814Y-128216392D01*
X209634108Y-128250500D01*
X209634110Y-128250500D01*
X209765890Y-128250500D01*
X209765892Y-128250500D01*
X209893186Y-128216392D01*
X210007314Y-128150500D01*
X210100500Y-128057314D01*
X210166392Y-127943186D01*
X210200500Y-127815892D01*
X210200500Y-127684108D01*
X210166392Y-127556814D01*
X210100500Y-127442686D01*
X210007314Y-127349500D01*
X209949817Y-127316304D01*
X209893187Y-127283608D01*
X209829539Y-127266554D01*
X209765892Y-127249500D01*
X209634108Y-127249500D01*
X209506812Y-127283608D01*
X209392686Y-127349500D01*
X209392683Y-127349502D01*
X209299502Y-127442683D01*
X209299500Y-127442686D01*
X209233608Y-127556812D01*
X209199500Y-127684108D01*
X203201500Y-127684108D01*
X203201500Y-126737999D01*
X203221185Y-126670960D01*
X203273989Y-126625205D01*
X203343147Y-126615261D01*
X203359743Y-126619815D01*
X203359912Y-126619185D01*
X203367761Y-126621288D01*
X203367763Y-126621289D01*
X203495057Y-126655397D01*
X203495059Y-126655397D01*
X203626839Y-126655397D01*
X203626841Y-126655397D01*
X203754135Y-126621289D01*
X203868263Y-126555397D01*
X203961449Y-126462211D01*
X204027341Y-126348083D01*
X204028863Y-126342403D01*
X204065230Y-126282743D01*
X204128078Y-126252216D01*
X204148637Y-126250500D01*
X206639560Y-126250500D01*
X206639562Y-126250500D01*
X206715989Y-126230021D01*
X206784511Y-126190460D01*
X206840460Y-126134511D01*
X208348216Y-124626755D01*
X209402561Y-124626755D01*
X209402561Y-124758539D01*
X209407651Y-124777534D01*
X209436669Y-124885834D01*
X209466258Y-124937082D01*
X209502561Y-124999961D01*
X209595747Y-125093147D01*
X209709875Y-125159039D01*
X209837169Y-125193147D01*
X209837171Y-125193147D01*
X209968951Y-125193147D01*
X209968953Y-125193147D01*
X210096247Y-125159039D01*
X210210375Y-125093147D01*
X210303561Y-124999961D01*
X210369453Y-124885833D01*
X210403561Y-124758539D01*
X210403561Y-124645750D01*
X215936807Y-124645750D01*
X215936807Y-124777533D01*
X215970915Y-124904829D01*
X215989537Y-124937082D01*
X216036807Y-125018956D01*
X216129993Y-125112142D01*
X216211221Y-125159039D01*
X216251160Y-125182098D01*
X216250056Y-125184009D01*
X216295482Y-125220610D01*
X216317552Y-125286903D01*
X216300277Y-125354603D01*
X216255632Y-125398724D01*
X216167686Y-125449500D01*
X216167683Y-125449502D01*
X216074502Y-125542683D01*
X216074500Y-125542686D01*
X216008608Y-125656812D01*
X215974500Y-125784108D01*
X215974500Y-125915891D01*
X216008608Y-126043187D01*
X216029370Y-126079147D01*
X216074500Y-126157314D01*
X216167686Y-126250500D01*
X216281814Y-126316392D01*
X216409108Y-126350500D01*
X216409110Y-126350500D01*
X216540890Y-126350500D01*
X216540892Y-126350500D01*
X216668186Y-126316392D01*
X216782314Y-126250500D01*
X216875500Y-126157314D01*
X216941392Y-126043186D01*
X216975500Y-125915892D01*
X216975500Y-125784108D01*
X216941392Y-125656814D01*
X216875500Y-125542686D01*
X216782314Y-125449500D01*
X216668186Y-125383608D01*
X216668185Y-125383607D01*
X216661147Y-125379544D01*
X216662248Y-125377635D01*
X216616816Y-125341020D01*
X216594754Y-125274725D01*
X216612036Y-125207026D01*
X216656676Y-125162917D01*
X216663393Y-125159039D01*
X216744621Y-125112142D01*
X216837807Y-125018956D01*
X216903699Y-124904828D01*
X216937807Y-124777534D01*
X216937807Y-124645750D01*
X216903699Y-124518456D01*
X216837807Y-124404328D01*
X216744621Y-124311142D01*
X216687557Y-124278196D01*
X216630494Y-124245250D01*
X216559602Y-124226255D01*
X216503199Y-124211142D01*
X216371415Y-124211142D01*
X216244119Y-124245250D01*
X216129993Y-124311142D01*
X216129990Y-124311144D01*
X216036809Y-124404325D01*
X216036807Y-124404328D01*
X215970915Y-124518454D01*
X215936807Y-124645750D01*
X210403561Y-124645750D01*
X210403561Y-124626755D01*
X210369453Y-124499461D01*
X210303561Y-124385333D01*
X210210375Y-124292147D01*
X210151387Y-124258090D01*
X210096248Y-124226255D01*
X210000123Y-124200499D01*
X209968953Y-124192147D01*
X209837169Y-124192147D01*
X209709873Y-124226255D01*
X209595747Y-124292147D01*
X209595744Y-124292149D01*
X209502563Y-124385330D01*
X209502561Y-124385333D01*
X209436669Y-124499459D01*
X209428232Y-124530947D01*
X209402561Y-124626755D01*
X208348216Y-124626755D01*
X209340863Y-123634108D01*
X216924500Y-123634108D01*
X216924500Y-123765892D01*
X216929859Y-123785891D01*
X216958608Y-123893187D01*
X216979574Y-123929500D01*
X217024500Y-124007314D01*
X217117686Y-124100500D01*
X217231814Y-124166392D01*
X217359108Y-124200500D01*
X217359110Y-124200500D01*
X217490890Y-124200500D01*
X217490892Y-124200500D01*
X217618186Y-124166392D01*
X217732314Y-124100500D01*
X217825500Y-124007314D01*
X217891392Y-123893186D01*
X217925500Y-123765892D01*
X217925500Y-123634108D01*
X217891392Y-123506814D01*
X217825500Y-123392686D01*
X217732314Y-123299500D01*
X217652827Y-123253608D01*
X217618187Y-123233608D01*
X217554539Y-123216554D01*
X217490892Y-123199500D01*
X217359108Y-123199500D01*
X217231812Y-123233608D01*
X217117686Y-123299500D01*
X217117683Y-123299502D01*
X217024502Y-123392683D01*
X217024500Y-123392686D01*
X216958608Y-123506812D01*
X216924500Y-123634108D01*
X209340863Y-123634108D01*
X210638152Y-122336819D01*
X210699475Y-122303334D01*
X210725833Y-122300500D01*
X212791324Y-122300500D01*
X212858363Y-122320185D01*
X212879005Y-122336819D01*
X212942686Y-122400500D01*
X213056814Y-122466392D01*
X213184108Y-122500500D01*
X213184110Y-122500500D01*
X213315890Y-122500500D01*
X213315892Y-122500500D01*
X213443186Y-122466392D01*
X213557314Y-122400500D01*
X213650500Y-122307314D01*
X213716392Y-122193186D01*
X213750500Y-122065892D01*
X213750500Y-121934108D01*
X213716392Y-121806814D01*
X213650500Y-121692686D01*
X213557314Y-121599500D01*
X213500250Y-121566554D01*
X213443187Y-121533608D01*
X213379539Y-121516554D01*
X213315892Y-121499500D01*
X213184108Y-121499500D01*
X213056812Y-121533608D01*
X212942686Y-121599500D01*
X212942683Y-121599502D01*
X212879005Y-121663181D01*
X212817682Y-121696666D01*
X212791324Y-121699500D01*
X210510438Y-121699500D01*
X210434010Y-121719978D01*
X210365489Y-121759540D01*
X210365486Y-121759542D01*
X206511848Y-125613181D01*
X206450525Y-125646666D01*
X206424167Y-125649500D01*
X203726282Y-125649500D01*
X203699516Y-125656672D01*
X203635335Y-125656672D01*
X203626841Y-125654397D01*
X203495057Y-125654397D01*
X203367763Y-125688505D01*
X203367761Y-125688505D01*
X203359912Y-125690609D01*
X203359170Y-125687841D01*
X203303458Y-125693819D01*
X203240985Y-125662531D01*
X203205345Y-125602435D01*
X203201500Y-125571794D01*
X203201500Y-122086439D01*
X203201500Y-122086438D01*
X203181021Y-122010011D01*
X203160294Y-121974110D01*
X203141464Y-121941495D01*
X203141458Y-121941487D01*
X199196430Y-117996459D01*
X199162945Y-117935136D01*
X199167929Y-117865444D01*
X199191387Y-117834108D01*
X200699500Y-117834108D01*
X200699500Y-117965892D01*
X200707690Y-117996459D01*
X200733608Y-118093187D01*
X200756200Y-118132316D01*
X200799500Y-118207314D01*
X200892686Y-118300500D01*
X201006814Y-118366392D01*
X201134108Y-118400500D01*
X201134110Y-118400500D01*
X201265890Y-118400500D01*
X201265892Y-118400500D01*
X201393186Y-118366392D01*
X201507314Y-118300500D01*
X201600500Y-118207314D01*
X201666392Y-118093186D01*
X201700500Y-117965892D01*
X201700500Y-117834108D01*
X201666392Y-117706814D01*
X201600500Y-117592686D01*
X201507314Y-117499500D01*
X201450250Y-117466554D01*
X201393187Y-117433608D01*
X201301757Y-117409110D01*
X201265892Y-117399500D01*
X201134108Y-117399500D01*
X201006812Y-117433608D01*
X200892686Y-117499500D01*
X200892683Y-117499502D01*
X200799502Y-117592683D01*
X200799500Y-117592686D01*
X200733608Y-117706812D01*
X200717644Y-117766392D01*
X200699500Y-117834108D01*
X199191387Y-117834108D01*
X199209801Y-117809511D01*
X199275265Y-117785094D01*
X199316196Y-117789002D01*
X199359108Y-117800500D01*
X199359112Y-117800500D01*
X199490890Y-117800500D01*
X199490892Y-117800500D01*
X199618186Y-117766392D01*
X199732314Y-117700500D01*
X199825500Y-117607314D01*
X199891392Y-117493186D01*
X199925500Y-117365892D01*
X199925500Y-117234108D01*
X199891392Y-117106814D01*
X199825500Y-116992686D01*
X199732314Y-116899500D01*
X199675250Y-116866554D01*
X199618187Y-116833608D01*
X199554539Y-116816554D01*
X199490892Y-116799500D01*
X199359108Y-116799500D01*
X199231812Y-116833608D01*
X199117686Y-116899500D01*
X199117683Y-116899502D01*
X199024502Y-116992683D01*
X199024500Y-116992686D01*
X198958608Y-117106812D01*
X198933505Y-117200499D01*
X198924500Y-117234108D01*
X198924500Y-117365892D01*
X198931465Y-117391887D01*
X198935996Y-117408795D01*
X198934333Y-117478645D01*
X198895170Y-117536507D01*
X198830942Y-117564011D01*
X198762039Y-117552424D01*
X198728540Y-117528569D01*
X197419054Y-116219083D01*
X205441966Y-116219083D01*
X205441966Y-116350867D01*
X205476074Y-116478161D01*
X205494467Y-116510020D01*
X205495208Y-116511302D01*
X205506224Y-116536472D01*
X205507479Y-116540509D01*
X205640497Y-116855320D01*
X205643170Y-116862212D01*
X205649500Y-116880098D01*
X205649500Y-116889562D01*
X205669979Y-116965989D01*
X205689904Y-117000500D01*
X205695605Y-117010375D01*
X205695606Y-117010377D01*
X205709537Y-117034507D01*
X205709539Y-117034510D01*
X205709540Y-117034511D01*
X208309540Y-119634511D01*
X208365489Y-119690460D01*
X208365491Y-119690461D01*
X208365495Y-119690464D01*
X208434004Y-119730017D01*
X208434011Y-119730021D01*
X208510438Y-119750500D01*
X213374167Y-119750500D01*
X213441206Y-119770185D01*
X213461848Y-119786819D01*
X214188181Y-120513152D01*
X214221666Y-120574475D01*
X214224500Y-120600833D01*
X214224500Y-120690891D01*
X214258608Y-120818187D01*
X214291554Y-120875250D01*
X214324500Y-120932314D01*
X214417686Y-121025500D01*
X214531814Y-121091392D01*
X214659108Y-121125500D01*
X214659110Y-121125500D01*
X214790890Y-121125500D01*
X214790892Y-121125500D01*
X214918186Y-121091392D01*
X215032314Y-121025500D01*
X215125500Y-120932314D01*
X215191392Y-120818186D01*
X215225500Y-120690892D01*
X215225500Y-120559108D01*
X215191392Y-120431814D01*
X215125500Y-120317686D01*
X215032314Y-120224500D01*
X214956104Y-120180500D01*
X214918187Y-120158608D01*
X214835270Y-120136391D01*
X214790892Y-120124500D01*
X214700833Y-120124500D01*
X214633794Y-120104815D01*
X214613152Y-120088181D01*
X213734513Y-119209541D01*
X213734508Y-119209538D01*
X213724240Y-119203610D01*
X213724237Y-119203609D01*
X213724236Y-119203608D01*
X213665989Y-119169979D01*
X213589562Y-119149500D01*
X213589560Y-119149500D01*
X208725833Y-119149500D01*
X208658794Y-119129815D01*
X208638152Y-119113181D01*
X206342807Y-116817836D01*
X206332999Y-116799875D01*
X206319172Y-116784788D01*
X206316594Y-116769831D01*
X206309322Y-116756513D01*
X206310781Y-116736102D01*
X206307306Y-116715934D01*
X206314017Y-116690851D01*
X206314306Y-116686821D01*
X206316303Y-116681805D01*
X206316465Y-116681420D01*
X206376674Y-116542122D01*
X206378678Y-116534494D01*
X206382154Y-116526287D01*
X206384531Y-116523383D01*
X206388949Y-116512641D01*
X206408858Y-116478161D01*
X206442966Y-116350867D01*
X206442966Y-116350865D01*
X206445069Y-116343017D01*
X206447095Y-116343559D01*
X206470848Y-116289859D01*
X206509370Y-116264445D01*
X206497527Y-116257029D01*
X206609388Y-116257029D01*
X206658260Y-116287618D01*
X206685299Y-116337839D01*
X206709909Y-116429685D01*
X206775801Y-116543813D01*
X206868987Y-116636999D01*
X206983115Y-116702891D01*
X207110409Y-116736999D01*
X207110411Y-116736999D01*
X207242192Y-116736999D01*
X207242193Y-116736999D01*
X207274505Y-116728340D01*
X207317112Y-116725549D01*
X207317112Y-116725500D01*
X207317863Y-116725500D01*
X207322793Y-116725177D01*
X207325235Y-116725498D01*
X207325240Y-116725500D01*
X207404364Y-116725500D01*
X209965017Y-116725500D01*
X210032056Y-116745185D01*
X210077811Y-116797989D01*
X210087755Y-116867147D01*
X210058730Y-116930703D01*
X209999952Y-116968477D01*
X209997142Y-116969265D01*
X209970010Y-116976536D01*
X209914590Y-116991385D01*
X209800464Y-117057277D01*
X209800461Y-117057279D01*
X209707280Y-117150460D01*
X209707278Y-117150463D01*
X209641386Y-117264589D01*
X209624976Y-117325833D01*
X209607278Y-117391885D01*
X209607278Y-117523669D01*
X209611893Y-117540891D01*
X209616244Y-117557131D01*
X209614579Y-117626981D01*
X209575415Y-117684843D01*
X209511186Y-117712345D01*
X209442284Y-117700757D01*
X209434481Y-117696616D01*
X209366411Y-117657316D01*
X209330775Y-117636741D01*
X209220957Y-117607316D01*
X209203480Y-117602633D01*
X209071696Y-117602633D01*
X208944400Y-117636741D01*
X208830274Y-117702633D01*
X208830271Y-117702635D01*
X208737090Y-117795816D01*
X208737088Y-117795819D01*
X208671196Y-117909945D01*
X208653631Y-117975500D01*
X208637088Y-118037241D01*
X208637088Y-118169025D01*
X208652220Y-118225499D01*
X208671196Y-118296320D01*
X208704142Y-118353383D01*
X208737088Y-118410447D01*
X208830274Y-118503633D01*
X208944402Y-118569525D01*
X209071696Y-118603633D01*
X209071698Y-118603633D01*
X209203478Y-118603633D01*
X209203480Y-118603633D01*
X209330774Y-118569525D01*
X209444902Y-118503633D01*
X209538088Y-118410447D01*
X209603980Y-118296319D01*
X209638088Y-118169025D01*
X209638088Y-118037241D01*
X209629122Y-118003779D01*
X209630785Y-117933930D01*
X209669948Y-117876068D01*
X209734177Y-117848564D01*
X209803079Y-117860151D01*
X209810874Y-117864287D01*
X209914592Y-117924169D01*
X210041886Y-117958277D01*
X210041888Y-117958277D01*
X210173668Y-117958277D01*
X210173670Y-117958277D01*
X210300964Y-117924169D01*
X210415092Y-117858277D01*
X210508278Y-117765091D01*
X210574170Y-117650963D01*
X210608278Y-117523669D01*
X210608278Y-117391885D01*
X210574170Y-117264591D01*
X210508278Y-117150463D01*
X210415092Y-117057277D01*
X210333859Y-117010377D01*
X210300965Y-116991385D01*
X210245546Y-116976536D01*
X210218444Y-116969274D01*
X210158785Y-116932910D01*
X210128256Y-116870063D01*
X210136551Y-116800688D01*
X210181036Y-116746810D01*
X210247588Y-116725535D01*
X210250539Y-116725500D01*
X213824167Y-116725500D01*
X213891206Y-116745185D01*
X213911848Y-116761819D01*
X214388181Y-117238152D01*
X214421666Y-117299475D01*
X214424500Y-117325833D01*
X214424500Y-117415892D01*
X214426807Y-117424502D01*
X214458608Y-117543187D01*
X214466659Y-117557131D01*
X214524500Y-117657314D01*
X214617686Y-117750500D01*
X214731814Y-117816392D01*
X214859108Y-117850500D01*
X214859110Y-117850500D01*
X214990890Y-117850500D01*
X214990892Y-117850500D01*
X215118186Y-117816392D01*
X215232314Y-117750500D01*
X215325500Y-117657314D01*
X215391392Y-117543186D01*
X215425500Y-117415892D01*
X215425500Y-117284108D01*
X215391392Y-117156814D01*
X215325500Y-117042686D01*
X215232314Y-116949500D01*
X215157649Y-116906392D01*
X215118187Y-116883608D01*
X215038334Y-116862212D01*
X214990892Y-116849500D01*
X214900833Y-116849500D01*
X214833794Y-116829815D01*
X214813152Y-116813181D01*
X214184512Y-116184541D01*
X214184507Y-116184537D01*
X214160377Y-116170606D01*
X214160377Y-116170605D01*
X214160375Y-116170605D01*
X214115994Y-116144981D01*
X214115993Y-116144980D01*
X214085644Y-116136848D01*
X214039562Y-116124500D01*
X214039560Y-116124500D01*
X207759176Y-116124500D01*
X207692137Y-116104815D01*
X207646382Y-116052011D01*
X207644614Y-116047950D01*
X207642694Y-116043315D01*
X207642692Y-116043311D01*
X207576801Y-115929185D01*
X207483615Y-115835999D01*
X207412584Y-115794989D01*
X207369488Y-115770107D01*
X207296301Y-115750497D01*
X207242193Y-115735999D01*
X207110409Y-115735999D01*
X206983113Y-115770107D01*
X206868987Y-115835999D01*
X206868984Y-115836001D01*
X206775803Y-115929182D01*
X206775801Y-115929185D01*
X206709909Y-116043311D01*
X206696545Y-116093187D01*
X206675802Y-116170606D01*
X206673698Y-116178457D01*
X206671676Y-116177915D01*
X206647901Y-116231635D01*
X206609388Y-116257029D01*
X206497527Y-116257029D01*
X206460488Y-116233836D01*
X206433467Y-116183633D01*
X206408858Y-116091789D01*
X206406368Y-116087477D01*
X206399468Y-116075525D01*
X206342966Y-115977661D01*
X206249780Y-115884475D01*
X206172448Y-115839827D01*
X206135653Y-115818583D01*
X206047597Y-115794989D01*
X206008358Y-115784475D01*
X205876574Y-115784475D01*
X205749278Y-115818583D01*
X205635152Y-115884475D01*
X205635149Y-115884477D01*
X205541968Y-115977658D01*
X205541966Y-115977661D01*
X205476074Y-116091787D01*
X205451465Y-116183631D01*
X205441966Y-116219083D01*
X197419054Y-116219083D01*
X197336819Y-116136848D01*
X197303334Y-116075525D01*
X197300500Y-116049167D01*
X197300500Y-115284108D01*
X197899500Y-115284108D01*
X197899500Y-115415891D01*
X197933608Y-115543187D01*
X197956200Y-115582316D01*
X197999500Y-115657314D01*
X198092686Y-115750500D01*
X198206814Y-115816392D01*
X198334108Y-115850500D01*
X198334110Y-115850500D01*
X198465890Y-115850500D01*
X198465892Y-115850500D01*
X198593186Y-115816392D01*
X198707314Y-115750500D01*
X198800500Y-115657314D01*
X198866392Y-115543186D01*
X198900500Y-115415892D01*
X198900500Y-115415890D01*
X198902603Y-115408042D01*
X198904109Y-115408445D01*
X198928631Y-115353012D01*
X198935612Y-115345424D01*
X199625475Y-114655562D01*
X199674911Y-114569937D01*
X199700500Y-114474436D01*
X199700500Y-114375564D01*
X199700500Y-114131986D01*
X199716048Y-114071867D01*
X199722392Y-114060421D01*
X199725500Y-114057314D01*
X199767766Y-113984108D01*
X201374500Y-113984108D01*
X201374500Y-114115892D01*
X201390472Y-114175500D01*
X201408608Y-114243187D01*
X201423779Y-114269463D01*
X201474500Y-114357314D01*
X201567686Y-114450500D01*
X201681814Y-114516392D01*
X201809108Y-114550500D01*
X201809110Y-114550500D01*
X201940890Y-114550500D01*
X201940892Y-114550500D01*
X202068186Y-114516392D01*
X202182314Y-114450500D01*
X202275500Y-114357314D01*
X202341392Y-114243186D01*
X202375500Y-114115892D01*
X202375500Y-113984108D01*
X202341392Y-113856814D01*
X202275500Y-113742686D01*
X202182314Y-113649500D01*
X202112353Y-113609108D01*
X211699500Y-113609108D01*
X211699500Y-113740891D01*
X211733608Y-113868187D01*
X211766554Y-113925250D01*
X211799500Y-113982314D01*
X211892686Y-114075500D01*
X212006814Y-114141392D01*
X212134108Y-114175500D01*
X212134110Y-114175500D01*
X212265890Y-114175500D01*
X212265892Y-114175500D01*
X212393186Y-114141392D01*
X212507314Y-114075500D01*
X212600500Y-113982314D01*
X212666392Y-113868186D01*
X212700500Y-113740892D01*
X212700500Y-113609108D01*
X212666392Y-113481814D01*
X212600500Y-113367686D01*
X212507314Y-113274500D01*
X212450250Y-113241554D01*
X212393187Y-113208608D01*
X212329539Y-113191554D01*
X212265892Y-113174500D01*
X212134108Y-113174500D01*
X212006812Y-113208608D01*
X211892686Y-113274500D01*
X211892683Y-113274502D01*
X211799502Y-113367683D01*
X211799500Y-113367686D01*
X211733608Y-113481812D01*
X211699500Y-113609108D01*
X202112353Y-113609108D01*
X202068187Y-113583608D01*
X201968188Y-113556814D01*
X201940892Y-113549500D01*
X201809108Y-113549500D01*
X201681812Y-113583608D01*
X201567686Y-113649500D01*
X201567683Y-113649502D01*
X201474502Y-113742683D01*
X201474500Y-113742686D01*
X201408608Y-113856812D01*
X201382174Y-113955469D01*
X201374500Y-113984108D01*
X199767766Y-113984108D01*
X199791392Y-113943186D01*
X199825500Y-113815892D01*
X199825500Y-113684108D01*
X199791392Y-113556814D01*
X199725500Y-113442686D01*
X199632314Y-113349500D01*
X199573222Y-113315383D01*
X199518187Y-113283608D01*
X199435979Y-113261581D01*
X199390892Y-113249500D01*
X199259108Y-113249500D01*
X199131814Y-113283608D01*
X199131813Y-113283608D01*
X199131811Y-113283609D01*
X199131810Y-113283609D01*
X199028695Y-113343143D01*
X198960795Y-113359616D01*
X198894768Y-113336763D01*
X198851577Y-113281842D01*
X198844936Y-113212289D01*
X198859307Y-113173757D01*
X198891392Y-113118186D01*
X198925500Y-112990892D01*
X198925500Y-112859108D01*
X198891392Y-112731814D01*
X198825500Y-112617686D01*
X198732314Y-112524500D01*
X198658380Y-112481814D01*
X198618187Y-112458608D01*
X198528254Y-112434511D01*
X198490892Y-112424500D01*
X198359108Y-112424500D01*
X198231812Y-112458608D01*
X198117686Y-112524500D01*
X198117683Y-112524502D01*
X198024502Y-112617683D01*
X198024500Y-112617686D01*
X197958608Y-112731812D01*
X197927441Y-112848132D01*
X197924500Y-112859108D01*
X197924500Y-112990892D01*
X197941554Y-113054539D01*
X197958608Y-113118187D01*
X197958609Y-113118188D01*
X198024500Y-113232314D01*
X198117686Y-113325500D01*
X198231814Y-113391392D01*
X198359108Y-113425500D01*
X198359110Y-113425500D01*
X198490890Y-113425500D01*
X198490892Y-113425500D01*
X198618186Y-113391392D01*
X198721306Y-113331855D01*
X198789203Y-113315383D01*
X198855230Y-113338235D01*
X198898421Y-113393156D01*
X198905063Y-113462709D01*
X198890691Y-113501243D01*
X198858609Y-113556810D01*
X198858609Y-113556811D01*
X198858609Y-113556812D01*
X198858608Y-113556814D01*
X198836451Y-113639505D01*
X198824500Y-113684108D01*
X198824500Y-113815891D01*
X198858608Y-113943187D01*
X198885900Y-113990457D01*
X198924500Y-114057314D01*
X198924501Y-114057315D01*
X198928564Y-114064352D01*
X198927211Y-114065133D01*
X198932115Y-114077815D01*
X198944477Y-114097051D01*
X198947391Y-114117321D01*
X198949069Y-114121660D01*
X198949500Y-114131986D01*
X198949500Y-114218101D01*
X198929815Y-114285140D01*
X198913181Y-114305782D01*
X198404587Y-114814375D01*
X198343264Y-114847860D01*
X198334574Y-114849375D01*
X198206812Y-114883608D01*
X198092686Y-114949500D01*
X198092683Y-114949502D01*
X197999502Y-115042683D01*
X197999500Y-115042686D01*
X197933608Y-115156812D01*
X197899500Y-115284108D01*
X197300500Y-115284108D01*
X197300500Y-114885439D01*
X197300500Y-114885438D01*
X197280021Y-114809011D01*
X197279788Y-114808608D01*
X197236397Y-114733450D01*
X197238310Y-114732345D01*
X197217274Y-114677948D01*
X197231306Y-114609502D01*
X197280115Y-114559508D01*
X197348204Y-114543838D01*
X197402842Y-114560231D01*
X197456814Y-114591392D01*
X197584108Y-114625500D01*
X197584110Y-114625500D01*
X197715890Y-114625500D01*
X197715892Y-114625500D01*
X197843186Y-114591392D01*
X197957314Y-114525500D01*
X198050500Y-114432314D01*
X198116392Y-114318186D01*
X198150500Y-114190892D01*
X198150500Y-114059108D01*
X198116392Y-113931814D01*
X198050500Y-113817686D01*
X197957314Y-113724500D01*
X197887353Y-113684108D01*
X197843187Y-113658608D01*
X197771888Y-113639504D01*
X197715892Y-113624500D01*
X197584108Y-113624500D01*
X197456812Y-113658608D01*
X197342686Y-113724500D01*
X197342683Y-113724502D01*
X197249502Y-113817683D01*
X197249500Y-113817686D01*
X197183608Y-113931812D01*
X197170076Y-113982316D01*
X197149500Y-114059108D01*
X197149500Y-114190892D01*
X197180284Y-114305782D01*
X197183609Y-114318188D01*
X197183609Y-114318189D01*
X197211886Y-114367166D01*
X197228359Y-114435066D01*
X197205506Y-114501093D01*
X197150585Y-114544284D01*
X197081032Y-114550925D01*
X197018929Y-114518909D01*
X197016818Y-114516847D01*
X196236819Y-113736848D01*
X196203334Y-113675525D01*
X196200500Y-113649167D01*
X196200500Y-111634108D01*
X197424500Y-111634108D01*
X197424500Y-111765892D01*
X197430107Y-111786819D01*
X197458608Y-111893187D01*
X197463785Y-111902153D01*
X197524500Y-112007314D01*
X197617686Y-112100500D01*
X197731814Y-112166392D01*
X197859108Y-112200500D01*
X197859110Y-112200500D01*
X197990890Y-112200500D01*
X197990892Y-112200500D01*
X198118186Y-112166392D01*
X198232314Y-112100500D01*
X198325500Y-112007314D01*
X198391392Y-111893186D01*
X198425500Y-111765892D01*
X198425500Y-111634108D01*
X198391392Y-111506814D01*
X198325500Y-111392686D01*
X198232314Y-111299500D01*
X198212181Y-111287876D01*
X198212180Y-111287875D01*
X198118188Y-111233609D01*
X198118187Y-111233608D01*
X198118186Y-111233608D01*
X197990892Y-111199500D01*
X197859108Y-111199500D01*
X197731812Y-111233608D01*
X197617686Y-111299500D01*
X197617683Y-111299502D01*
X197524502Y-111392683D01*
X197524500Y-111392686D01*
X197458608Y-111506812D01*
X197443813Y-111562029D01*
X197424500Y-111634108D01*
X196200500Y-111634108D01*
X196200500Y-103473763D01*
X196220185Y-103406724D01*
X196255652Y-103370632D01*
X196471050Y-103226843D01*
X196472364Y-103225530D01*
X196497985Y-103205885D01*
X196507314Y-103200500D01*
X196600500Y-103107314D01*
X196666392Y-102993186D01*
X196679726Y-102943422D01*
X196716090Y-102883764D01*
X196778936Y-102853234D01*
X196848312Y-102861528D01*
X196902190Y-102906013D01*
X196923465Y-102972565D01*
X196923500Y-102975517D01*
X196923500Y-109563562D01*
X196943979Y-109639989D01*
X196943980Y-109639990D01*
X196950061Y-109650522D01*
X196950062Y-109650526D01*
X196950063Y-109650526D01*
X196983540Y-109708511D01*
X199709540Y-112434511D01*
X199765489Y-112490460D01*
X199765491Y-112490461D01*
X199765495Y-112490464D01*
X199787685Y-112503275D01*
X199834011Y-112530021D01*
X199910438Y-112550500D01*
X212449167Y-112550500D01*
X212516206Y-112570185D01*
X212536848Y-112586819D01*
X217313181Y-117363152D01*
X217346666Y-117424475D01*
X217349500Y-117450833D01*
X217349500Y-117540891D01*
X217383608Y-117668187D01*
X217402413Y-117700757D01*
X217449500Y-117782314D01*
X217542686Y-117875500D01*
X217656814Y-117941392D01*
X217784108Y-117975500D01*
X217784110Y-117975500D01*
X217915890Y-117975500D01*
X217915892Y-117975500D01*
X218043186Y-117941392D01*
X218157314Y-117875500D01*
X218250500Y-117782314D01*
X218316392Y-117668186D01*
X218350500Y-117540892D01*
X218350500Y-117409108D01*
X218316392Y-117281814D01*
X218250500Y-117167686D01*
X218157314Y-117074500D01*
X218088044Y-117034507D01*
X218043187Y-117008608D01*
X217978908Y-116991385D01*
X217915892Y-116974500D01*
X217825833Y-116974500D01*
X217758794Y-116954815D01*
X217738152Y-116938181D01*
X212809512Y-112009541D01*
X212809507Y-112009537D01*
X212780908Y-111993026D01*
X212761614Y-111981886D01*
X212713398Y-111931322D01*
X212700174Y-111862715D01*
X212726141Y-111797850D01*
X212783054Y-111757321D01*
X212823613Y-111750500D01*
X216474167Y-111750500D01*
X216541206Y-111770185D01*
X216561848Y-111786819D01*
X217338181Y-112563152D01*
X217371666Y-112624475D01*
X217374500Y-112650833D01*
X217374500Y-112740892D01*
X217378788Y-112756894D01*
X217408608Y-112868187D01*
X217417801Y-112884109D01*
X217474500Y-112982314D01*
X217567686Y-113075500D01*
X217681814Y-113141392D01*
X217809108Y-113175500D01*
X217809110Y-113175500D01*
X217940890Y-113175500D01*
X217940892Y-113175500D01*
X218068186Y-113141392D01*
X218182314Y-113075500D01*
X218275500Y-112982314D01*
X218341392Y-112868186D01*
X218375500Y-112740892D01*
X218375500Y-112609108D01*
X218341392Y-112481814D01*
X218275500Y-112367686D01*
X218182314Y-112274500D01*
X218118758Y-112237806D01*
X218068187Y-112208608D01*
X218003397Y-112191248D01*
X217940892Y-112174500D01*
X217850833Y-112174500D01*
X217783794Y-112154815D01*
X217763152Y-112138181D01*
X216834510Y-111209539D01*
X216797202Y-111188000D01*
X216781650Y-111179021D01*
X216765989Y-111169979D01*
X216689562Y-111149500D01*
X216689560Y-111149500D01*
X201975776Y-111149500D01*
X201908737Y-111129815D01*
X201888095Y-111113181D01*
X201449285Y-110674371D01*
X201415800Y-110613048D01*
X201420784Y-110543356D01*
X201429579Y-110524689D01*
X201434262Y-110516578D01*
X201448345Y-110492186D01*
X201482453Y-110364892D01*
X201482453Y-110233108D01*
X201448345Y-110105814D01*
X201382453Y-109991686D01*
X201289267Y-109898500D01*
X201260491Y-109881886D01*
X201212277Y-109831319D01*
X201199055Y-109762712D01*
X201225023Y-109697848D01*
X201281937Y-109657320D01*
X201322493Y-109650500D01*
X209270438Y-109650500D01*
X214270438Y-109650500D01*
X218875839Y-109650500D01*
X218942878Y-109670185D01*
X218988633Y-109722989D01*
X218999839Y-109774401D01*
X219012575Y-125693777D01*
X218992944Y-125760832D01*
X218940177Y-125806629D01*
X218871026Y-125816628D01*
X218807447Y-125787654D01*
X218769626Y-125728906D01*
X218768800Y-125725969D01*
X218764347Y-125709351D01*
X218759906Y-125692774D01*
X218694014Y-125578646D01*
X218600828Y-125485460D01*
X218538419Y-125449428D01*
X218486701Y-125419568D01*
X218369277Y-125388105D01*
X218359406Y-125385460D01*
X218227622Y-125385460D01*
X218100326Y-125419568D01*
X217986200Y-125485460D01*
X217986197Y-125485462D01*
X217893016Y-125578643D01*
X217893014Y-125578646D01*
X217827122Y-125692772D01*
X217793014Y-125820068D01*
X217793014Y-125951851D01*
X217827122Y-126079147D01*
X217849662Y-126118186D01*
X217893014Y-126193274D01*
X217986200Y-126286460D01*
X218083096Y-126342403D01*
X218097118Y-126350499D01*
X218100328Y-126352352D01*
X218227622Y-126386460D01*
X218227624Y-126386460D01*
X218359404Y-126386460D01*
X218359406Y-126386460D01*
X218486700Y-126352352D01*
X218600828Y-126286460D01*
X218694014Y-126193274D01*
X218759906Y-126079146D01*
X218769107Y-126044805D01*
X218805470Y-125985147D01*
X218868316Y-125954617D01*
X218937692Y-125962911D01*
X218991570Y-126007395D01*
X219012846Y-126073947D01*
X219012881Y-126076801D01*
X219016438Y-130522207D01*
X219019115Y-133868605D01*
X219019161Y-133925401D01*
X218999530Y-133992456D01*
X218946763Y-134038253D01*
X218895161Y-134049500D01*
X214359562Y-134049500D01*
X204329562Y-134049500D01*
X204250438Y-134049500D01*
X204212224Y-134059739D01*
X204174009Y-134069979D01*
X204174004Y-134069982D01*
X204105495Y-134109535D01*
X204105487Y-134109541D01*
X204049541Y-134165487D01*
X204049535Y-134165495D01*
X204009982Y-134234004D01*
X204009979Y-134234009D01*
X203998863Y-134275497D01*
X203989532Y-134310321D01*
X203989500Y-134310439D01*
X203989500Y-143923718D01*
X203987230Y-143931448D01*
X203988504Y-143939404D01*
X203977527Y-143964490D01*
X203969815Y-143990757D01*
X203963727Y-143996032D01*
X203960497Y-144003415D01*
X203937697Y-144018586D01*
X203917011Y-144036512D01*
X203907548Y-144038649D01*
X203902329Y-144042123D01*
X203867479Y-144047702D01*
X203774423Y-144049187D01*
X203772373Y-144049203D01*
X169764089Y-144029741D01*
X169697061Y-144010018D01*
X169651336Y-143957188D01*
X169640160Y-143905844D01*
X169639583Y-143184108D01*
X200199500Y-143184108D01*
X200199500Y-143315891D01*
X200233608Y-143443187D01*
X200266554Y-143500250D01*
X200299500Y-143557314D01*
X200392686Y-143650500D01*
X200506814Y-143716392D01*
X200634108Y-143750500D01*
X200634110Y-143750500D01*
X200765890Y-143750500D01*
X200765892Y-143750500D01*
X200893186Y-143716392D01*
X201007314Y-143650500D01*
X201100500Y-143557314D01*
X201166392Y-143443186D01*
X201200500Y-143315892D01*
X201200500Y-143184108D01*
X201166392Y-143056814D01*
X201100500Y-142942686D01*
X201007314Y-142849500D01*
X200950250Y-142816554D01*
X200893187Y-142783608D01*
X200829539Y-142766554D01*
X200765892Y-142749500D01*
X200634108Y-142749500D01*
X200506812Y-142783608D01*
X200392686Y-142849500D01*
X200392683Y-142849502D01*
X200299502Y-142942683D01*
X200299500Y-142942686D01*
X200233608Y-143056812D01*
X200199500Y-143184108D01*
X169639583Y-143184108D01*
X169637907Y-141089488D01*
X190964812Y-141089488D01*
X190964812Y-141221271D01*
X190998920Y-141348567D01*
X191014470Y-141375499D01*
X191064812Y-141462694D01*
X191157998Y-141555880D01*
X191272126Y-141621772D01*
X191399420Y-141655880D01*
X191399422Y-141655880D01*
X191531202Y-141655880D01*
X191531204Y-141655880D01*
X191658498Y-141621772D01*
X191772626Y-141555880D01*
X191865812Y-141462694D01*
X191931704Y-141348566D01*
X191965812Y-141221272D01*
X191965812Y-141089488D01*
X191959012Y-141064108D01*
X194899500Y-141064108D01*
X194899500Y-141195892D01*
X194916554Y-141259539D01*
X194933608Y-141323187D01*
X194963810Y-141375497D01*
X194999500Y-141437314D01*
X195092686Y-141530500D01*
X195206814Y-141596392D01*
X195334108Y-141630500D01*
X195334110Y-141630500D01*
X195465890Y-141630500D01*
X195465892Y-141630500D01*
X195593186Y-141596392D01*
X195707314Y-141530500D01*
X195800500Y-141437314D01*
X195866392Y-141323186D01*
X195900500Y-141195892D01*
X195900500Y-141064108D01*
X195866392Y-140936814D01*
X195850396Y-140909108D01*
X196224500Y-140909108D01*
X196224500Y-141040892D01*
X196237521Y-141089488D01*
X196258608Y-141168187D01*
X196274604Y-141195892D01*
X196324500Y-141282314D01*
X196417686Y-141375500D01*
X196531814Y-141441392D01*
X196659108Y-141475500D01*
X196659110Y-141475500D01*
X196790890Y-141475500D01*
X196790892Y-141475500D01*
X196918186Y-141441392D01*
X197032314Y-141375500D01*
X197125500Y-141282314D01*
X197191392Y-141168186D01*
X197225500Y-141040892D01*
X197225500Y-140909108D01*
X197191392Y-140781814D01*
X197125500Y-140667686D01*
X197032314Y-140574500D01*
X196979674Y-140544108D01*
X199399500Y-140544108D01*
X199399500Y-140675891D01*
X199433608Y-140803187D01*
X199466554Y-140860250D01*
X199499500Y-140917314D01*
X199592686Y-141010500D01*
X199706814Y-141076392D01*
X199834108Y-141110500D01*
X199834110Y-141110500D01*
X199965890Y-141110500D01*
X199965892Y-141110500D01*
X200093186Y-141076392D01*
X200207314Y-141010500D01*
X200300500Y-140917314D01*
X200366392Y-140803186D01*
X200400500Y-140675892D01*
X200400500Y-140544108D01*
X200366392Y-140416814D01*
X200300500Y-140302686D01*
X200207314Y-140209500D01*
X200150250Y-140176554D01*
X200093187Y-140143608D01*
X200029539Y-140126554D01*
X199965892Y-140109500D01*
X199834108Y-140109500D01*
X199706812Y-140143608D01*
X199592686Y-140209500D01*
X199592683Y-140209502D01*
X199499502Y-140302683D01*
X199499500Y-140302686D01*
X199433608Y-140416812D01*
X199399500Y-140544108D01*
X196979674Y-140544108D01*
X196975250Y-140541554D01*
X196918187Y-140508608D01*
X196854539Y-140491554D01*
X196790892Y-140474500D01*
X196659108Y-140474500D01*
X196531812Y-140508608D01*
X196417686Y-140574500D01*
X196417683Y-140574502D01*
X196324502Y-140667683D01*
X196324500Y-140667686D01*
X196258608Y-140781812D01*
X196252881Y-140803186D01*
X196224500Y-140909108D01*
X195850396Y-140909108D01*
X195800500Y-140822686D01*
X195707314Y-140729500D01*
X195650250Y-140696554D01*
X195593187Y-140663608D01*
X195529539Y-140646554D01*
X195465892Y-140629500D01*
X195334108Y-140629500D01*
X195206812Y-140663608D01*
X195092686Y-140729500D01*
X195092683Y-140729502D01*
X194999502Y-140822683D01*
X194999500Y-140822686D01*
X194933608Y-140936812D01*
X194913865Y-141010497D01*
X194899500Y-141064108D01*
X191959012Y-141064108D01*
X191931704Y-140962194D01*
X191865812Y-140848066D01*
X191772626Y-140754880D01*
X191715562Y-140721934D01*
X191658499Y-140688988D01*
X191578986Y-140667683D01*
X191531204Y-140654880D01*
X191399420Y-140654880D01*
X191272124Y-140688988D01*
X191157998Y-140754880D01*
X191157995Y-140754882D01*
X191064814Y-140848063D01*
X191064812Y-140848066D01*
X190998920Y-140962192D01*
X190964812Y-141089488D01*
X169637907Y-141089488D01*
X169635922Y-138609108D01*
X171874500Y-138609108D01*
X171874500Y-138740891D01*
X171908608Y-138868187D01*
X171934589Y-138913186D01*
X171974500Y-138982314D01*
X172067686Y-139075500D01*
X172181814Y-139141392D01*
X172309108Y-139175500D01*
X172309110Y-139175500D01*
X172440890Y-139175500D01*
X172440892Y-139175500D01*
X172568186Y-139141392D01*
X172682314Y-139075500D01*
X172775500Y-138982314D01*
X172841392Y-138868186D01*
X172875500Y-138740892D01*
X172875500Y-138624108D01*
X176059500Y-138624108D01*
X176059500Y-138755892D01*
X176076554Y-138819539D01*
X176093608Y-138883187D01*
X176110929Y-138913187D01*
X176159500Y-138997314D01*
X176252686Y-139090500D01*
X176366814Y-139156392D01*
X176494108Y-139190500D01*
X176494110Y-139190500D01*
X176625890Y-139190500D01*
X176625892Y-139190500D01*
X176753186Y-139156392D01*
X176867314Y-139090500D01*
X176960500Y-138997314D01*
X177026392Y-138883186D01*
X177060500Y-138755892D01*
X177060500Y-138654108D01*
X180659500Y-138654108D01*
X180659500Y-138785891D01*
X180693608Y-138913187D01*
X180726554Y-138970250D01*
X180759500Y-139027314D01*
X180852686Y-139120500D01*
X180966814Y-139186392D01*
X181094108Y-139220500D01*
X181094110Y-139220500D01*
X181225890Y-139220500D01*
X181225892Y-139220500D01*
X181353186Y-139186392D01*
X181467314Y-139120500D01*
X181560500Y-139027314D01*
X181626392Y-138913186D01*
X181660500Y-138785892D01*
X181660500Y-138654108D01*
X181626392Y-138526814D01*
X181560500Y-138412686D01*
X181467314Y-138319500D01*
X181410250Y-138286554D01*
X181353187Y-138253608D01*
X181241223Y-138223608D01*
X181225892Y-138219500D01*
X181094108Y-138219500D01*
X180966812Y-138253608D01*
X180852686Y-138319500D01*
X180852683Y-138319502D01*
X180759502Y-138412683D01*
X180759500Y-138412686D01*
X180693608Y-138526812D01*
X180659500Y-138654108D01*
X177060500Y-138654108D01*
X177060500Y-138624108D01*
X177026392Y-138496814D01*
X176960500Y-138382686D01*
X176867314Y-138289500D01*
X176805147Y-138253608D01*
X176753187Y-138223608D01*
X176689539Y-138206554D01*
X176625892Y-138189500D01*
X176494108Y-138189500D01*
X176366812Y-138223608D01*
X176252686Y-138289500D01*
X176252683Y-138289502D01*
X176159502Y-138382683D01*
X176159500Y-138382686D01*
X176093608Y-138496812D01*
X176072524Y-138575500D01*
X176059500Y-138624108D01*
X172875500Y-138624108D01*
X172875500Y-138609108D01*
X172841392Y-138481814D01*
X172775500Y-138367686D01*
X172682314Y-138274500D01*
X172594167Y-138223608D01*
X172568187Y-138208608D01*
X172496873Y-138189500D01*
X172440892Y-138174500D01*
X172309108Y-138174500D01*
X172181812Y-138208608D01*
X172067686Y-138274500D01*
X172067683Y-138274502D01*
X171974502Y-138367683D01*
X171974500Y-138367686D01*
X171908608Y-138481812D01*
X171874500Y-138609108D01*
X169635922Y-138609108D01*
X169635342Y-137884108D01*
X190549500Y-137884108D01*
X190549500Y-138015891D01*
X190583608Y-138143187D01*
X190601687Y-138174500D01*
X190649500Y-138257314D01*
X190742686Y-138350500D01*
X190856814Y-138416392D01*
X190984108Y-138450500D01*
X190984110Y-138450500D01*
X191115890Y-138450500D01*
X191115892Y-138450500D01*
X191243186Y-138416392D01*
X191357314Y-138350500D01*
X191450500Y-138257314D01*
X191516392Y-138143186D01*
X191550500Y-138015892D01*
X191550500Y-138009108D01*
X196799500Y-138009108D01*
X196799500Y-138140892D01*
X196800974Y-138146392D01*
X196833608Y-138268187D01*
X196863234Y-138319500D01*
X196899500Y-138382314D01*
X196992686Y-138475500D01*
X197106814Y-138541392D01*
X197234108Y-138575500D01*
X197234110Y-138575500D01*
X197365890Y-138575500D01*
X197365892Y-138575500D01*
X197493186Y-138541392D01*
X197607314Y-138475500D01*
X197700500Y-138382314D01*
X197766392Y-138268186D01*
X197800500Y-138140892D01*
X197800500Y-138009108D01*
X197766392Y-137881814D01*
X197700500Y-137767686D01*
X197607314Y-137674500D01*
X197550250Y-137641554D01*
X197502713Y-137614108D01*
X199049500Y-137614108D01*
X199049500Y-137745891D01*
X199083608Y-137873187D01*
X199089915Y-137884110D01*
X199149500Y-137987314D01*
X199242686Y-138080500D01*
X199356814Y-138146392D01*
X199484108Y-138180500D01*
X199484110Y-138180500D01*
X199615890Y-138180500D01*
X199615892Y-138180500D01*
X199743186Y-138146392D01*
X199857314Y-138080500D01*
X199950500Y-137987314D01*
X200016392Y-137873186D01*
X200050500Y-137745892D01*
X200050500Y-137614108D01*
X200016392Y-137486814D01*
X199950500Y-137372686D01*
X199857314Y-137279500D01*
X199800250Y-137246554D01*
X199743187Y-137213608D01*
X199679539Y-137196554D01*
X199615892Y-137179500D01*
X199484108Y-137179500D01*
X199356812Y-137213608D01*
X199242686Y-137279500D01*
X199242683Y-137279502D01*
X199149502Y-137372683D01*
X199149500Y-137372686D01*
X199083608Y-137486812D01*
X199049500Y-137614108D01*
X197502713Y-137614108D01*
X197493187Y-137608608D01*
X197429539Y-137591554D01*
X197365892Y-137574500D01*
X197234108Y-137574500D01*
X197106812Y-137608608D01*
X196992686Y-137674500D01*
X196992683Y-137674502D01*
X196899502Y-137767683D01*
X196899500Y-137767686D01*
X196833608Y-137881812D01*
X196805340Y-137987313D01*
X196799500Y-138009108D01*
X191550500Y-138009108D01*
X191550500Y-137884108D01*
X191516392Y-137756814D01*
X191450500Y-137642686D01*
X191357314Y-137549500D01*
X191300250Y-137516554D01*
X191243187Y-137483608D01*
X191179539Y-137466554D01*
X191115892Y-137449500D01*
X190984108Y-137449500D01*
X190856812Y-137483608D01*
X190742686Y-137549500D01*
X190742683Y-137549502D01*
X190649502Y-137642683D01*
X190649500Y-137642686D01*
X190583608Y-137756812D01*
X190549500Y-137884108D01*
X169635342Y-137884108D01*
X169634022Y-136234108D01*
X171274500Y-136234108D01*
X171274500Y-136365891D01*
X171308608Y-136493187D01*
X171314915Y-136504110D01*
X171374500Y-136607314D01*
X171467686Y-136700500D01*
X171581814Y-136766392D01*
X171709108Y-136800500D01*
X171709110Y-136800500D01*
X171840890Y-136800500D01*
X171840892Y-136800500D01*
X171968186Y-136766392D01*
X172082314Y-136700500D01*
X172175500Y-136607314D01*
X172235086Y-136504108D01*
X176689500Y-136504108D01*
X176689500Y-136635892D01*
X176706554Y-136699539D01*
X176723608Y-136763187D01*
X176745151Y-136800499D01*
X176789500Y-136877314D01*
X176882686Y-136970500D01*
X176996814Y-137036392D01*
X177124108Y-137070500D01*
X177124110Y-137070500D01*
X177255890Y-137070500D01*
X177255892Y-137070500D01*
X177383186Y-137036392D01*
X177497314Y-136970500D01*
X177590500Y-136877314D01*
X177656392Y-136763186D01*
X177690500Y-136635892D01*
X177690500Y-136504108D01*
X177656392Y-136376814D01*
X177590500Y-136262686D01*
X177520977Y-136193163D01*
X180608693Y-136193163D01*
X180608693Y-136324946D01*
X180642801Y-136452242D01*
X180672748Y-136504110D01*
X180708693Y-136566369D01*
X180801879Y-136659555D01*
X180916007Y-136725447D01*
X181043301Y-136759555D01*
X181043303Y-136759555D01*
X181175083Y-136759555D01*
X181175085Y-136759555D01*
X181302379Y-136725447D01*
X181416507Y-136659555D01*
X181509693Y-136566369D01*
X181575585Y-136452241D01*
X181600540Y-136359108D01*
X191224500Y-136359108D01*
X191224500Y-136490891D01*
X191258608Y-136618187D01*
X191282491Y-136659552D01*
X191324500Y-136732314D01*
X191417686Y-136825500D01*
X191531814Y-136891392D01*
X191659108Y-136925500D01*
X191659110Y-136925500D01*
X191790890Y-136925500D01*
X191790892Y-136925500D01*
X191918186Y-136891392D01*
X192032314Y-136825500D01*
X192125500Y-136732314D01*
X192191392Y-136618186D01*
X192225500Y-136490892D01*
X192225500Y-136359108D01*
X192191392Y-136231814D01*
X192188081Y-136226080D01*
X192155416Y-136169502D01*
X192125500Y-136117686D01*
X192032314Y-136024500D01*
X191975250Y-135991554D01*
X191918187Y-135958608D01*
X191854539Y-135941554D01*
X191790892Y-135924500D01*
X191659108Y-135924500D01*
X191531812Y-135958608D01*
X191417686Y-136024500D01*
X191417683Y-136024502D01*
X191324502Y-136117683D01*
X191324500Y-136117686D01*
X191258608Y-136231812D01*
X191224500Y-136359108D01*
X181600540Y-136359108D01*
X181609693Y-136324947D01*
X181609693Y-136193163D01*
X181575585Y-136065869D01*
X181509693Y-135951741D01*
X181416507Y-135858555D01*
X181359443Y-135825609D01*
X181302380Y-135792663D01*
X181238732Y-135775609D01*
X181175085Y-135758555D01*
X181043301Y-135758555D01*
X180916005Y-135792663D01*
X180801879Y-135858555D01*
X180801876Y-135858557D01*
X180708695Y-135951738D01*
X180708693Y-135951741D01*
X180642801Y-136065867D01*
X180608693Y-136193163D01*
X177520977Y-136193163D01*
X177497314Y-136169500D01*
X177407565Y-136117683D01*
X177383187Y-136103608D01*
X177319539Y-136086554D01*
X177255892Y-136069500D01*
X177124108Y-136069500D01*
X176996812Y-136103608D01*
X176882686Y-136169500D01*
X176882683Y-136169502D01*
X176789502Y-136262683D01*
X176789500Y-136262686D01*
X176723608Y-136376812D01*
X176692426Y-136493187D01*
X176689500Y-136504108D01*
X172235086Y-136504108D01*
X172241392Y-136493186D01*
X172275500Y-136365892D01*
X172275500Y-136234108D01*
X172241392Y-136106814D01*
X172175500Y-135992686D01*
X172082314Y-135899500D01*
X172011399Y-135858557D01*
X171968187Y-135833608D01*
X171904539Y-135816554D01*
X171840892Y-135799500D01*
X171709108Y-135799500D01*
X171581812Y-135833608D01*
X171467686Y-135899500D01*
X171467683Y-135899502D01*
X171374502Y-135992683D01*
X171374500Y-135992686D01*
X171308608Y-136106812D01*
X171274500Y-136234108D01*
X169634022Y-136234108D01*
X169631413Y-132973316D01*
X175077796Y-132973316D01*
X175077796Y-133105100D01*
X175089147Y-133147463D01*
X175111904Y-133232395D01*
X175131244Y-133265892D01*
X175177796Y-133346522D01*
X175270982Y-133439708D01*
X175385110Y-133505600D01*
X175512404Y-133539708D01*
X175512406Y-133539708D01*
X175644186Y-133539708D01*
X175644188Y-133539708D01*
X175771482Y-133505600D01*
X175789154Y-133495397D01*
X181913681Y-133495397D01*
X181913681Y-133627181D01*
X181925465Y-133671159D01*
X181947789Y-133754476D01*
X181967871Y-133789258D01*
X182013681Y-133868603D01*
X182106867Y-133961789D01*
X182220995Y-134027681D01*
X182348289Y-134061789D01*
X182348291Y-134061789D01*
X182480071Y-134061789D01*
X182480073Y-134061789D01*
X182607367Y-134027681D01*
X182721495Y-133961789D01*
X182814681Y-133868603D01*
X182880573Y-133754475D01*
X182914681Y-133627181D01*
X182914681Y-133495397D01*
X182880573Y-133368103D01*
X182859482Y-133331572D01*
X186252177Y-133331572D01*
X186252177Y-133463356D01*
X186259973Y-133492451D01*
X186286285Y-133590651D01*
X186307376Y-133627181D01*
X186352177Y-133704778D01*
X186445363Y-133797964D01*
X186559491Y-133863856D01*
X186686785Y-133897964D01*
X186686787Y-133897964D01*
X186818567Y-133897964D01*
X186818569Y-133897964D01*
X186945863Y-133863856D01*
X187059991Y-133797964D01*
X187153177Y-133704778D01*
X187219069Y-133590650D01*
X187253177Y-133463356D01*
X187253177Y-133331572D01*
X187219069Y-133204278D01*
X187153177Y-133090150D01*
X187059991Y-132996964D01*
X187000204Y-132962446D01*
X186945864Y-132931072D01*
X186882216Y-132914018D01*
X186818569Y-132896964D01*
X186686785Y-132896964D01*
X186559489Y-132931072D01*
X186445363Y-132996964D01*
X186445360Y-132996966D01*
X186352179Y-133090147D01*
X186352177Y-133090150D01*
X186286285Y-133204276D01*
X186254147Y-133324219D01*
X186252177Y-133331572D01*
X182859482Y-133331572D01*
X182814681Y-133253975D01*
X182721495Y-133160789D01*
X182626735Y-133106079D01*
X182607368Y-133094897D01*
X182542332Y-133077471D01*
X182480073Y-133060789D01*
X182348289Y-133060789D01*
X182220993Y-133094897D01*
X182106867Y-133160789D01*
X182106864Y-133160791D01*
X182013683Y-133253972D01*
X182013681Y-133253975D01*
X181947789Y-133368101D01*
X181922266Y-133463356D01*
X181913681Y-133495397D01*
X175789154Y-133495397D01*
X175885610Y-133439708D01*
X175978796Y-133346522D01*
X176044688Y-133232394D01*
X176078796Y-133105100D01*
X176078796Y-132973316D01*
X176044688Y-132846022D01*
X175978796Y-132731894D01*
X175912752Y-132665850D01*
X184225038Y-132665850D01*
X184225038Y-132797634D01*
X184234480Y-132832873D01*
X184259146Y-132924929D01*
X184262693Y-132931072D01*
X184325038Y-133039056D01*
X184418224Y-133132242D01*
X184532352Y-133198134D01*
X184659646Y-133232242D01*
X184659648Y-133232242D01*
X184791428Y-133232242D01*
X184791430Y-133232242D01*
X184918724Y-133198134D01*
X185032852Y-133132242D01*
X185126038Y-133039056D01*
X185191930Y-132924928D01*
X185226038Y-132797634D01*
X185226038Y-132665850D01*
X185191930Y-132538556D01*
X185126038Y-132424428D01*
X185032852Y-132331242D01*
X184949596Y-132283174D01*
X184918725Y-132265350D01*
X184836293Y-132243263D01*
X184791430Y-132231242D01*
X184659646Y-132231242D01*
X184532350Y-132265350D01*
X184418224Y-132331242D01*
X184418221Y-132331244D01*
X184325040Y-132424425D01*
X184325038Y-132424428D01*
X184259146Y-132538554D01*
X184232310Y-132638710D01*
X184225038Y-132665850D01*
X175912752Y-132665850D01*
X175885610Y-132638708D01*
X175820553Y-132601147D01*
X175771483Y-132572816D01*
X175707835Y-132555762D01*
X175644188Y-132538708D01*
X175512404Y-132538708D01*
X175385108Y-132572816D01*
X175270982Y-132638708D01*
X175270979Y-132638710D01*
X175177798Y-132731891D01*
X175177796Y-132731894D01*
X175111904Y-132846020D01*
X175097771Y-132898767D01*
X175077796Y-132973316D01*
X169631413Y-132973316D01*
X169629967Y-131165411D01*
X181422797Y-131165411D01*
X181422797Y-131297195D01*
X181434873Y-131342264D01*
X181456905Y-131424490D01*
X181463233Y-131435450D01*
X181522797Y-131538617D01*
X181615983Y-131631803D01*
X181730111Y-131697695D01*
X181857405Y-131731803D01*
X181857407Y-131731803D01*
X181989187Y-131731803D01*
X181989189Y-131731803D01*
X182116483Y-131697695D01*
X182230611Y-131631803D01*
X182323797Y-131538617D01*
X182389689Y-131424489D01*
X182423797Y-131297195D01*
X182423797Y-131165411D01*
X182389689Y-131038117D01*
X182323797Y-130923989D01*
X182230611Y-130830803D01*
X182173547Y-130797857D01*
X182116484Y-130764911D01*
X182014563Y-130737602D01*
X181989189Y-130730803D01*
X181857405Y-130730803D01*
X181730109Y-130764911D01*
X181615983Y-130830803D01*
X181615980Y-130830805D01*
X181522799Y-130923986D01*
X181522797Y-130923989D01*
X181456905Y-131038115D01*
X181456286Y-131040426D01*
X181422797Y-131165411D01*
X169629967Y-131165411D01*
X169629414Y-130474035D01*
X185288696Y-130474035D01*
X185288696Y-130605818D01*
X185322804Y-130733114D01*
X185355750Y-130790177D01*
X185388696Y-130847241D01*
X185481882Y-130940427D01*
X185596010Y-131006319D01*
X185723304Y-131040427D01*
X185723306Y-131040427D01*
X185855086Y-131040427D01*
X185855088Y-131040427D01*
X185982382Y-131006319D01*
X186096510Y-130940427D01*
X186189696Y-130847241D01*
X186255588Y-130733113D01*
X186289696Y-130605819D01*
X186289696Y-130474035D01*
X186255588Y-130346741D01*
X186189696Y-130232613D01*
X186096510Y-130139427D01*
X186025049Y-130098169D01*
X185982383Y-130073535D01*
X185918735Y-130056481D01*
X185855088Y-130039427D01*
X185723304Y-130039427D01*
X185596008Y-130073535D01*
X185481882Y-130139427D01*
X185481879Y-130139429D01*
X185388698Y-130232610D01*
X185388696Y-130232613D01*
X185322804Y-130346739D01*
X185288696Y-130474035D01*
X169629414Y-130474035D01*
X169628497Y-129328316D01*
X172092796Y-129328316D01*
X172092796Y-129460099D01*
X172126904Y-129587395D01*
X172132836Y-129597669D01*
X172192796Y-129701522D01*
X172285982Y-129794708D01*
X172400110Y-129860600D01*
X172527404Y-129894708D01*
X172527406Y-129894708D01*
X172659186Y-129894708D01*
X172659188Y-129894708D01*
X172786482Y-129860600D01*
X172900610Y-129794708D01*
X172993796Y-129701522D01*
X173059688Y-129587394D01*
X173093796Y-129460100D01*
X173093796Y-129328316D01*
X173076941Y-129265411D01*
X181422797Y-129265411D01*
X181422797Y-129397195D01*
X181433889Y-129438591D01*
X181456905Y-129524490D01*
X181479214Y-129563129D01*
X181522797Y-129638617D01*
X181615983Y-129731803D01*
X181694417Y-129777087D01*
X181724935Y-129794707D01*
X181730111Y-129797695D01*
X181857405Y-129831803D01*
X181857407Y-129831803D01*
X181989187Y-129831803D01*
X181989189Y-129831803D01*
X182116483Y-129797695D01*
X182230611Y-129731803D01*
X182323797Y-129638617D01*
X182389689Y-129524489D01*
X182423797Y-129397195D01*
X182423797Y-129304051D01*
X187338066Y-129304051D01*
X187338066Y-129435835D01*
X187344568Y-129460100D01*
X187372174Y-129563130D01*
X187382471Y-129580964D01*
X187438066Y-129677257D01*
X187531252Y-129770443D01*
X187645380Y-129836335D01*
X187772674Y-129870443D01*
X187772676Y-129870443D01*
X187904456Y-129870443D01*
X187904458Y-129870443D01*
X188031752Y-129836335D01*
X188145880Y-129770443D01*
X188239066Y-129677257D01*
X188304958Y-129563129D01*
X188339066Y-129435835D01*
X188339066Y-129304051D01*
X188304958Y-129176757D01*
X188239066Y-129062629D01*
X188145880Y-128969443D01*
X188073780Y-128927816D01*
X188031753Y-128903551D01*
X187968105Y-128886497D01*
X187904458Y-128869443D01*
X187772674Y-128869443D01*
X187645378Y-128903551D01*
X187531252Y-128969443D01*
X187531249Y-128969445D01*
X187438068Y-129062626D01*
X187438066Y-129062629D01*
X187372174Y-129176755D01*
X187365672Y-129201022D01*
X187338066Y-129304051D01*
X182423797Y-129304051D01*
X182423797Y-129265411D01*
X182389689Y-129138117D01*
X182323797Y-129023989D01*
X182230611Y-128930803D01*
X182166361Y-128893708D01*
X182116484Y-128864911D01*
X182052836Y-128847857D01*
X181989189Y-128830803D01*
X181857405Y-128830803D01*
X181730109Y-128864911D01*
X181615983Y-128930803D01*
X181615980Y-128930805D01*
X181522799Y-129023986D01*
X181522797Y-129023989D01*
X181456905Y-129138115D01*
X181440050Y-129201020D01*
X181422797Y-129265411D01*
X173076941Y-129265411D01*
X173059688Y-129201022D01*
X172993796Y-129086894D01*
X172900610Y-128993708D01*
X172841376Y-128959509D01*
X172786483Y-128927816D01*
X172695923Y-128903551D01*
X172659188Y-128893708D01*
X172527404Y-128893708D01*
X172400108Y-128927816D01*
X172285982Y-128993708D01*
X172285979Y-128993710D01*
X172192798Y-129086891D01*
X172192796Y-129086894D01*
X172126904Y-129201020D01*
X172092796Y-129328316D01*
X169628497Y-129328316D01*
X169627417Y-127978233D01*
X182006476Y-127978233D01*
X182006476Y-128110017D01*
X182023530Y-128173664D01*
X182040584Y-128237312D01*
X182052134Y-128257316D01*
X182106476Y-128351439D01*
X182199662Y-128444625D01*
X182313790Y-128510517D01*
X182441084Y-128544625D01*
X182441086Y-128544625D01*
X182572866Y-128544625D01*
X182572868Y-128544625D01*
X182700162Y-128510517D01*
X182814290Y-128444625D01*
X182907476Y-128351439D01*
X182973368Y-128237311D01*
X183005844Y-128116107D01*
X183354861Y-128116107D01*
X183354861Y-128247891D01*
X183368957Y-128300497D01*
X183388969Y-128375186D01*
X183412759Y-128416391D01*
X183454861Y-128489313D01*
X183548047Y-128582499D01*
X183662175Y-128648391D01*
X183789469Y-128682499D01*
X183789471Y-128682499D01*
X183921251Y-128682499D01*
X183921253Y-128682499D01*
X184048547Y-128648391D01*
X184162675Y-128582499D01*
X184255861Y-128489313D01*
X184321753Y-128375185D01*
X184355861Y-128247891D01*
X184355861Y-128116107D01*
X184321753Y-127988813D01*
X184255861Y-127874685D01*
X184162675Y-127781499D01*
X184105611Y-127748553D01*
X184048548Y-127715607D01*
X183935457Y-127685305D01*
X183921253Y-127681499D01*
X183789469Y-127681499D01*
X183662173Y-127715607D01*
X183548047Y-127781499D01*
X183548044Y-127781501D01*
X183454863Y-127874682D01*
X183454861Y-127874685D01*
X183388969Y-127988811D01*
X183361003Y-128093186D01*
X183354861Y-128116107D01*
X183005844Y-128116107D01*
X183007476Y-128110017D01*
X183007476Y-127978233D01*
X182973368Y-127850939D01*
X182907476Y-127736811D01*
X182814290Y-127643625D01*
X182757226Y-127610679D01*
X182700163Y-127577733D01*
X182594801Y-127549502D01*
X182572868Y-127543625D01*
X182441084Y-127543625D01*
X182313788Y-127577733D01*
X182199662Y-127643625D01*
X182199659Y-127643627D01*
X182106478Y-127736808D01*
X182106476Y-127736811D01*
X182040584Y-127850937D01*
X182015546Y-127944382D01*
X182006476Y-127978233D01*
X169627417Y-127978233D01*
X169626894Y-127324332D01*
X176283500Y-127324332D01*
X176283500Y-127456116D01*
X176293867Y-127494805D01*
X176317608Y-127583411D01*
X176350554Y-127640474D01*
X176383500Y-127697538D01*
X176476686Y-127790724D01*
X176590814Y-127856616D01*
X176718108Y-127890724D01*
X176718110Y-127890724D01*
X176849890Y-127890724D01*
X176849892Y-127890724D01*
X176977186Y-127856616D01*
X177091314Y-127790724D01*
X177184500Y-127697538D01*
X177250392Y-127583410D01*
X177284500Y-127456116D01*
X177284500Y-127324332D01*
X177250392Y-127197038D01*
X177184500Y-127082910D01*
X177091314Y-126989724D01*
X176991881Y-126932316D01*
X176985123Y-126928414D01*
X188059624Y-126928414D01*
X188059624Y-127060197D01*
X188093732Y-127187493D01*
X188099242Y-127197036D01*
X188159624Y-127301620D01*
X188252810Y-127394806D01*
X188366938Y-127460698D01*
X188494232Y-127494806D01*
X188494234Y-127494806D01*
X188626014Y-127494806D01*
X188626016Y-127494806D01*
X188753310Y-127460698D01*
X188867438Y-127394806D01*
X188960624Y-127301620D01*
X189026516Y-127187492D01*
X189060624Y-127060198D01*
X189060624Y-126928414D01*
X189026516Y-126801120D01*
X188960624Y-126686992D01*
X188867438Y-126593806D01*
X188807343Y-126559110D01*
X188753311Y-126527914D01*
X188689663Y-126510860D01*
X188626016Y-126493806D01*
X188494232Y-126493806D01*
X188366936Y-126527914D01*
X188252810Y-126593806D01*
X188252807Y-126593808D01*
X188159626Y-126686989D01*
X188159624Y-126686992D01*
X188093732Y-126801118D01*
X188059624Y-126928414D01*
X176985123Y-126928414D01*
X176977187Y-126923832D01*
X176913539Y-126906778D01*
X176849892Y-126889724D01*
X176718108Y-126889724D01*
X176590812Y-126923832D01*
X176476686Y-126989724D01*
X176476683Y-126989726D01*
X176383502Y-127082907D01*
X176383500Y-127082910D01*
X176317608Y-127197036D01*
X176289887Y-127300495D01*
X176283500Y-127324332D01*
X169626894Y-127324332D01*
X169626282Y-126559108D01*
X171248500Y-126559108D01*
X171248500Y-126690891D01*
X171282608Y-126818187D01*
X171315554Y-126875250D01*
X171348500Y-126932314D01*
X171441686Y-127025500D01*
X171555814Y-127091392D01*
X171683108Y-127125500D01*
X171683110Y-127125500D01*
X171814890Y-127125500D01*
X171814892Y-127125500D01*
X171942186Y-127091392D01*
X172056314Y-127025500D01*
X172149500Y-126932314D01*
X172215392Y-126818186D01*
X172249500Y-126690892D01*
X172249500Y-126559108D01*
X172215392Y-126431814D01*
X172149500Y-126317686D01*
X172056314Y-126224500D01*
X171997352Y-126190458D01*
X171942187Y-126158608D01*
X171852254Y-126134511D01*
X171814892Y-126124500D01*
X171683108Y-126124500D01*
X171555812Y-126158608D01*
X171441686Y-126224500D01*
X171441683Y-126224502D01*
X171348502Y-126317683D01*
X171348500Y-126317686D01*
X171282608Y-126431812D01*
X171248500Y-126559108D01*
X169626282Y-126559108D01*
X169625304Y-125336145D01*
X183712155Y-125336145D01*
X183712155Y-125467929D01*
X183716853Y-125485462D01*
X183746263Y-125595224D01*
X183756631Y-125613181D01*
X183812155Y-125709351D01*
X183905341Y-125802537D01*
X184019469Y-125868429D01*
X184146763Y-125902537D01*
X184146765Y-125902537D01*
X184278545Y-125902537D01*
X184278547Y-125902537D01*
X184405841Y-125868429D01*
X184519969Y-125802537D01*
X184613155Y-125709351D01*
X184679047Y-125595223D01*
X184713155Y-125467929D01*
X184713155Y-125336145D01*
X184695884Y-125271688D01*
X188100316Y-125271688D01*
X188100316Y-125403472D01*
X188112630Y-125449428D01*
X188134424Y-125530767D01*
X188162066Y-125578643D01*
X188200316Y-125644894D01*
X188293502Y-125738080D01*
X188392337Y-125795143D01*
X188405144Y-125802537D01*
X188407630Y-125803972D01*
X188534924Y-125838080D01*
X188534926Y-125838080D01*
X188624983Y-125838080D01*
X188692022Y-125857765D01*
X188712664Y-125874399D01*
X189454109Y-126615844D01*
X189487594Y-126677167D01*
X189490428Y-126703525D01*
X189490428Y-129365571D01*
X189470743Y-129432610D01*
X189454109Y-129453252D01*
X188530104Y-130377256D01*
X188530098Y-130377264D01*
X188490545Y-130445773D01*
X188490542Y-130445778D01*
X188470063Y-130522208D01*
X188470063Y-133080424D01*
X188450378Y-133147463D01*
X188433745Y-133168105D01*
X188370063Y-133231787D01*
X188304171Y-133345913D01*
X188279404Y-133438348D01*
X188270063Y-133473209D01*
X188270063Y-133604993D01*
X188270652Y-133607191D01*
X188304171Y-133732288D01*
X188328394Y-133774243D01*
X188370063Y-133846415D01*
X188463249Y-133939601D01*
X188577377Y-134005493D01*
X188704671Y-134039601D01*
X188704673Y-134039601D01*
X188836453Y-134039601D01*
X188836455Y-134039601D01*
X188963749Y-134005493D01*
X189077877Y-133939601D01*
X189171063Y-133846415D01*
X189236955Y-133732287D01*
X189271063Y-133604993D01*
X189271063Y-133565644D01*
X189717225Y-133565644D01*
X189717225Y-133697428D01*
X189719195Y-133704780D01*
X189751333Y-133824723D01*
X189773927Y-133863856D01*
X189817225Y-133938850D01*
X189910411Y-134032036D01*
X190024539Y-134097928D01*
X190151833Y-134132036D01*
X190151835Y-134132036D01*
X190283615Y-134132036D01*
X190283617Y-134132036D01*
X190410911Y-134097928D01*
X190525039Y-134032036D01*
X190618225Y-133938850D01*
X190684117Y-133824722D01*
X190688301Y-133809108D01*
X199174500Y-133809108D01*
X199174500Y-133940892D01*
X199180099Y-133961788D01*
X199208608Y-134068187D01*
X199232481Y-134109535D01*
X199274500Y-134182314D01*
X199367686Y-134275500D01*
X199481814Y-134341392D01*
X199609108Y-134375500D01*
X199609110Y-134375500D01*
X199740890Y-134375500D01*
X199740892Y-134375500D01*
X199868186Y-134341392D01*
X199982314Y-134275500D01*
X200075500Y-134182314D01*
X200141392Y-134068186D01*
X200175500Y-133940892D01*
X200175500Y-133809108D01*
X200141392Y-133681814D01*
X200075500Y-133567686D01*
X199982314Y-133474500D01*
X199922051Y-133439707D01*
X199868187Y-133408608D01*
X199804539Y-133391554D01*
X199740892Y-133374500D01*
X199609108Y-133374500D01*
X199481812Y-133408608D01*
X199367686Y-133474500D01*
X199367683Y-133474502D01*
X199274502Y-133567683D01*
X199274500Y-133567686D01*
X199208608Y-133681812D01*
X199179825Y-133789233D01*
X199174500Y-133809108D01*
X190688301Y-133809108D01*
X190718225Y-133697428D01*
X190718225Y-133565644D01*
X190684117Y-133438350D01*
X190618225Y-133324222D01*
X190525039Y-133231036D01*
X190416040Y-133168105D01*
X190410912Y-133165144D01*
X190311850Y-133138601D01*
X190283617Y-133131036D01*
X190151833Y-133131036D01*
X190024537Y-133165144D01*
X189910411Y-133231036D01*
X189910408Y-133231038D01*
X189817227Y-133324219D01*
X189817225Y-133324222D01*
X189751333Y-133438348D01*
X189732854Y-133507314D01*
X189717225Y-133565644D01*
X189271063Y-133565644D01*
X189271063Y-133473209D01*
X189236955Y-133345915D01*
X189171063Y-133231787D01*
X189107381Y-133168105D01*
X189073897Y-133106781D01*
X189071063Y-133080424D01*
X189071063Y-133004108D01*
X191749500Y-133004108D01*
X191749500Y-133135892D01*
X191756171Y-133160789D01*
X191783608Y-133263187D01*
X191785170Y-133265892D01*
X191849500Y-133377314D01*
X191942686Y-133470500D01*
X192056814Y-133536392D01*
X192184108Y-133570500D01*
X192184110Y-133570500D01*
X192315890Y-133570500D01*
X192315892Y-133570500D01*
X192443186Y-133536392D01*
X192557314Y-133470500D01*
X192650500Y-133377314D01*
X192716392Y-133263186D01*
X192750500Y-133135892D01*
X192750500Y-133134108D01*
X193274500Y-133134108D01*
X193274500Y-133265891D01*
X193308608Y-133393187D01*
X193341554Y-133450250D01*
X193374500Y-133507314D01*
X193467686Y-133600500D01*
X193581814Y-133666392D01*
X193709108Y-133700500D01*
X193709110Y-133700500D01*
X193840890Y-133700500D01*
X193840892Y-133700500D01*
X193968186Y-133666392D01*
X194082314Y-133600500D01*
X194175500Y-133507314D01*
X194241392Y-133393186D01*
X194275500Y-133265892D01*
X194275500Y-133134108D01*
X194241392Y-133006814D01*
X194175500Y-132892686D01*
X194082314Y-132799500D01*
X194025250Y-132766554D01*
X193968187Y-132733608D01*
X193904539Y-132716554D01*
X193840892Y-132699500D01*
X193709108Y-132699500D01*
X193581812Y-132733608D01*
X193467686Y-132799500D01*
X193467683Y-132799502D01*
X193374502Y-132892683D01*
X193374500Y-132892686D01*
X193308608Y-133006812D01*
X193274500Y-133134108D01*
X192750500Y-133134108D01*
X192750500Y-133004108D01*
X192716392Y-132876814D01*
X192650500Y-132762686D01*
X192557314Y-132669500D01*
X192498000Y-132635255D01*
X192443187Y-132603608D01*
X192379539Y-132586554D01*
X192315892Y-132569500D01*
X192184108Y-132569500D01*
X192056812Y-132603608D01*
X191942686Y-132669500D01*
X191942683Y-132669502D01*
X191849502Y-132762683D01*
X191849500Y-132762686D01*
X191783608Y-132876812D01*
X191757750Y-132973318D01*
X191749500Y-133004108D01*
X189071063Y-133004108D01*
X189071063Y-131716782D01*
X189750797Y-131716782D01*
X189750797Y-131848566D01*
X189760624Y-131885242D01*
X189784905Y-131975861D01*
X189788116Y-131981422D01*
X189850797Y-132089988D01*
X189943983Y-132183174D01*
X190058111Y-132249066D01*
X190185405Y-132283174D01*
X190185407Y-132283174D01*
X190317187Y-132283174D01*
X190317189Y-132283174D01*
X190444483Y-132249066D01*
X190558611Y-132183174D01*
X190651797Y-132089988D01*
X190717689Y-131975860D01*
X190722178Y-131959108D01*
X195049500Y-131959108D01*
X195049500Y-132090892D01*
X195063532Y-132143261D01*
X195083608Y-132218187D01*
X195104647Y-132254627D01*
X195149500Y-132332314D01*
X195242686Y-132425500D01*
X195356814Y-132491392D01*
X195484108Y-132525500D01*
X195484110Y-132525500D01*
X195615890Y-132525500D01*
X195615892Y-132525500D01*
X195743186Y-132491392D01*
X195857314Y-132425500D01*
X195950500Y-132332314D01*
X196016392Y-132218186D01*
X196050500Y-132090892D01*
X196050500Y-132068864D01*
X196307977Y-132068864D01*
X196307977Y-132200648D01*
X196325031Y-132264295D01*
X196342085Y-132327943D01*
X196344609Y-132332314D01*
X196407977Y-132442070D01*
X196501163Y-132535256D01*
X196615291Y-132601148D01*
X196742585Y-132635256D01*
X196742587Y-132635256D01*
X196874367Y-132635256D01*
X196874369Y-132635256D01*
X197001663Y-132601148D01*
X197115791Y-132535256D01*
X197208977Y-132442070D01*
X197274869Y-132327942D01*
X197308977Y-132200648D01*
X197308977Y-132068864D01*
X197274869Y-131941570D01*
X197274499Y-131940930D01*
X197266040Y-131926277D01*
X197208977Y-131827442D01*
X197115791Y-131734256D01*
X197016403Y-131676874D01*
X197001664Y-131668364D01*
X196938016Y-131651310D01*
X196874369Y-131634256D01*
X196742585Y-131634256D01*
X196615289Y-131668364D01*
X196501163Y-131734256D01*
X196501160Y-131734258D01*
X196407979Y-131827439D01*
X196407977Y-131827442D01*
X196342085Y-131941568D01*
X196313011Y-132050077D01*
X196307977Y-132068864D01*
X196050500Y-132068864D01*
X196050500Y-131959108D01*
X196016392Y-131831814D01*
X195950500Y-131717686D01*
X195857314Y-131624500D01*
X195796668Y-131589486D01*
X195743187Y-131558608D01*
X195668574Y-131538616D01*
X195615892Y-131524500D01*
X195484108Y-131524500D01*
X195356812Y-131558608D01*
X195242686Y-131624500D01*
X195242683Y-131624502D01*
X195149502Y-131717683D01*
X195149500Y-131717686D01*
X195083608Y-131831812D01*
X195067374Y-131892399D01*
X195049500Y-131959108D01*
X190722178Y-131959108D01*
X190751797Y-131848566D01*
X190751797Y-131716782D01*
X190717689Y-131589488D01*
X190651797Y-131475360D01*
X190558611Y-131382174D01*
X190501547Y-131349228D01*
X190444484Y-131316282D01*
X190373241Y-131297193D01*
X190317189Y-131282174D01*
X190185405Y-131282174D01*
X190058109Y-131316282D01*
X189943983Y-131382174D01*
X189943980Y-131382176D01*
X189850799Y-131475357D01*
X189850797Y-131475360D01*
X189784905Y-131589486D01*
X189755911Y-131697695D01*
X189750797Y-131716782D01*
X189071063Y-131716782D01*
X189071063Y-130737602D01*
X189079707Y-130708161D01*
X189081213Y-130701239D01*
X190641497Y-130701239D01*
X190641497Y-130833023D01*
X190645307Y-130847241D01*
X190675605Y-130960318D01*
X190702164Y-131006318D01*
X190741497Y-131074445D01*
X190834683Y-131167631D01*
X190948811Y-131233523D01*
X191076105Y-131267631D01*
X191076107Y-131267631D01*
X191207887Y-131267631D01*
X191207889Y-131267631D01*
X191335183Y-131233523D01*
X191449311Y-131167631D01*
X191542497Y-131074445D01*
X191608389Y-130960317D01*
X191642497Y-130833023D01*
X191642497Y-130701239D01*
X191608389Y-130573945D01*
X191542497Y-130459817D01*
X191449311Y-130366631D01*
X191392247Y-130333685D01*
X191335184Y-130300739D01*
X191271536Y-130283685D01*
X191207889Y-130266631D01*
X191076105Y-130266631D01*
X190948809Y-130300739D01*
X190834683Y-130366631D01*
X190834680Y-130366633D01*
X190741499Y-130459814D01*
X190741497Y-130459817D01*
X190675605Y-130573943D01*
X190649021Y-130673159D01*
X190641497Y-130701239D01*
X189081213Y-130701239D01*
X189086231Y-130678175D01*
X189089985Y-130673159D01*
X189090748Y-130670563D01*
X189107382Y-130649921D01*
X189151872Y-130605431D01*
X189545007Y-130212296D01*
X190031388Y-129725915D01*
X190048338Y-129696557D01*
X190070949Y-129657393D01*
X190091428Y-129580966D01*
X190091428Y-127410507D01*
X190641497Y-127410507D01*
X190641497Y-127542291D01*
X190645708Y-127558007D01*
X190675605Y-127669586D01*
X190691745Y-127697540D01*
X190741497Y-127783713D01*
X190834683Y-127876899D01*
X190948811Y-127942791D01*
X191076105Y-127976899D01*
X191076107Y-127976899D01*
X191207887Y-127976899D01*
X191207889Y-127976899D01*
X191335183Y-127942791D01*
X191436825Y-127884108D01*
X193499500Y-127884108D01*
X193499500Y-128015892D01*
X193510919Y-128058508D01*
X193533608Y-128143187D01*
X193566554Y-128200250D01*
X193599500Y-128257314D01*
X193692686Y-128350500D01*
X193806814Y-128416392D01*
X193934108Y-128450500D01*
X193934110Y-128450500D01*
X194065890Y-128450500D01*
X194065892Y-128450500D01*
X194193186Y-128416392D01*
X194307314Y-128350500D01*
X194400500Y-128257314D01*
X194466392Y-128143186D01*
X194500500Y-128015892D01*
X194500500Y-127884108D01*
X194466392Y-127756814D01*
X194400500Y-127642686D01*
X194307314Y-127549500D01*
X194250250Y-127516554D01*
X194193187Y-127483608D01*
X194090583Y-127456116D01*
X194065892Y-127449500D01*
X193934108Y-127449500D01*
X193806812Y-127483608D01*
X193692686Y-127549500D01*
X193692683Y-127549502D01*
X193599502Y-127642683D01*
X193599500Y-127642686D01*
X193533608Y-127756812D01*
X193506867Y-127856615D01*
X193499500Y-127884108D01*
X191436825Y-127884108D01*
X191449311Y-127876899D01*
X191542497Y-127783713D01*
X191608389Y-127669585D01*
X191642497Y-127542291D01*
X191642497Y-127410507D01*
X191608389Y-127283213D01*
X191542497Y-127169085D01*
X191449311Y-127075899D01*
X191362016Y-127025499D01*
X191335184Y-127010007D01*
X191271536Y-126992953D01*
X191207889Y-126975899D01*
X191076105Y-126975899D01*
X190948809Y-127010007D01*
X190834683Y-127075899D01*
X190834680Y-127075901D01*
X190741499Y-127169082D01*
X190741497Y-127169085D01*
X190675605Y-127283211D01*
X190657843Y-127349502D01*
X190641497Y-127410507D01*
X190091428Y-127410507D01*
X190091428Y-126488130D01*
X190076338Y-126431814D01*
X190076337Y-126431812D01*
X190076336Y-126431808D01*
X190070950Y-126411704D01*
X190056375Y-126386460D01*
X190031388Y-126343181D01*
X189137635Y-125449428D01*
X189104150Y-125388105D01*
X189101316Y-125361747D01*
X189101316Y-125271690D01*
X189101316Y-125271688D01*
X189067208Y-125144394D01*
X189001316Y-125030266D01*
X188908130Y-124937080D01*
X188819368Y-124885833D01*
X188794003Y-124871188D01*
X188730355Y-124854134D01*
X188666708Y-124837080D01*
X188534924Y-124837080D01*
X188407628Y-124871188D01*
X188293502Y-124937080D01*
X188293499Y-124937082D01*
X188200318Y-125030263D01*
X188200316Y-125030266D01*
X188134424Y-125144392D01*
X188117642Y-125207026D01*
X188100316Y-125271688D01*
X184695884Y-125271688D01*
X184679047Y-125208851D01*
X184613155Y-125094723D01*
X184519969Y-125001537D01*
X184462905Y-124968591D01*
X184405842Y-124935645D01*
X184342194Y-124918591D01*
X184278547Y-124901537D01*
X184146763Y-124901537D01*
X184019467Y-124935645D01*
X183905341Y-125001537D01*
X183905338Y-125001539D01*
X183812157Y-125094720D01*
X183812155Y-125094723D01*
X183746263Y-125208849D01*
X183728612Y-125274725D01*
X183712155Y-125336145D01*
X169625304Y-125336145D01*
X169623958Y-123654108D01*
X180619500Y-123654108D01*
X180619500Y-123785891D01*
X180653608Y-123913187D01*
X180663027Y-123929500D01*
X180719500Y-124027314D01*
X180812686Y-124120500D01*
X180926814Y-124186392D01*
X181054108Y-124220500D01*
X181054110Y-124220500D01*
X181185890Y-124220500D01*
X181185892Y-124220500D01*
X181313186Y-124186392D01*
X181427314Y-124120500D01*
X181520500Y-124027314D01*
X181586392Y-123913186D01*
X181620500Y-123785892D01*
X181620500Y-123725807D01*
X182549899Y-123725807D01*
X182549899Y-123857591D01*
X182564796Y-123913187D01*
X182584007Y-123984886D01*
X182616953Y-124041949D01*
X182649899Y-124099013D01*
X182743085Y-124192199D01*
X182857213Y-124258091D01*
X182984507Y-124292199D01*
X182984509Y-124292199D01*
X183116289Y-124292199D01*
X183116291Y-124292199D01*
X183221129Y-124264108D01*
X193137000Y-124264108D01*
X193137000Y-124395892D01*
X193154054Y-124459539D01*
X193171108Y-124523187D01*
X193204054Y-124580250D01*
X193237000Y-124637314D01*
X193330186Y-124730500D01*
X193444314Y-124796392D01*
X193571608Y-124830500D01*
X193571610Y-124830500D01*
X193703390Y-124830500D01*
X193703392Y-124830500D01*
X193830686Y-124796392D01*
X193944814Y-124730500D01*
X194038000Y-124637314D01*
X194103892Y-124523186D01*
X194138000Y-124395892D01*
X194138000Y-124264108D01*
X194103892Y-124136814D01*
X194038000Y-124022686D01*
X193944814Y-123929500D01*
X193881918Y-123893187D01*
X193830687Y-123863608D01*
X193767039Y-123846554D01*
X193703392Y-123829500D01*
X193571608Y-123829500D01*
X193444312Y-123863608D01*
X193330186Y-123929500D01*
X193330183Y-123929502D01*
X193237002Y-124022683D01*
X193237000Y-124022686D01*
X193171108Y-124136812D01*
X193138612Y-124258091D01*
X193137000Y-124264108D01*
X183221129Y-124264108D01*
X183243585Y-124258091D01*
X183357713Y-124192199D01*
X183450899Y-124099013D01*
X183516791Y-123984885D01*
X183550899Y-123857591D01*
X183550899Y-123725807D01*
X183516791Y-123598513D01*
X183450899Y-123484385D01*
X183357713Y-123391199D01*
X183300649Y-123358253D01*
X183243586Y-123325307D01*
X183179938Y-123308253D01*
X183116291Y-123291199D01*
X182984507Y-123291199D01*
X182857211Y-123325307D01*
X182743085Y-123391199D01*
X182743082Y-123391201D01*
X182649901Y-123484382D01*
X182649899Y-123484385D01*
X182584007Y-123598511D01*
X182569110Y-123654110D01*
X182549899Y-123725807D01*
X181620500Y-123725807D01*
X181620500Y-123654108D01*
X181586392Y-123526814D01*
X181520500Y-123412686D01*
X181427314Y-123319500D01*
X181370250Y-123286554D01*
X181313187Y-123253608D01*
X181238544Y-123233608D01*
X181185892Y-123219500D01*
X181054108Y-123219500D01*
X180926812Y-123253608D01*
X180812686Y-123319500D01*
X180812683Y-123319502D01*
X180719502Y-123412683D01*
X180719500Y-123412686D01*
X180653608Y-123526812D01*
X180619500Y-123654108D01*
X169623958Y-123654108D01*
X169622614Y-121974108D01*
X174489500Y-121974108D01*
X174489500Y-122105891D01*
X174523608Y-122233187D01*
X174556554Y-122290250D01*
X174589500Y-122347314D01*
X174682686Y-122440500D01*
X174796814Y-122506392D01*
X174924108Y-122540500D01*
X174924110Y-122540500D01*
X175055890Y-122540500D01*
X175055892Y-122540500D01*
X175183186Y-122506392D01*
X175256424Y-122464108D01*
X193067000Y-122464108D01*
X193067000Y-122595891D01*
X193101108Y-122723187D01*
X193134054Y-122780250D01*
X193167000Y-122837314D01*
X193260186Y-122930500D01*
X193374314Y-122996392D01*
X193501608Y-123030500D01*
X193501610Y-123030500D01*
X193633390Y-123030500D01*
X193633392Y-123030500D01*
X193760686Y-122996392D01*
X193874814Y-122930500D01*
X193968000Y-122837314D01*
X194033892Y-122723186D01*
X194068000Y-122595892D01*
X194068000Y-122464108D01*
X194033892Y-122336814D01*
X193968000Y-122222686D01*
X193874814Y-122129500D01*
X193817750Y-122096554D01*
X193760687Y-122063608D01*
X193697039Y-122046554D01*
X193633392Y-122029500D01*
X193501608Y-122029500D01*
X193374312Y-122063608D01*
X193260186Y-122129500D01*
X193260183Y-122129502D01*
X193167002Y-122222683D01*
X193167000Y-122222686D01*
X193101108Y-122336812D01*
X193067000Y-122464108D01*
X175256424Y-122464108D01*
X175297314Y-122440500D01*
X175390500Y-122347314D01*
X175456392Y-122233186D01*
X175490500Y-122105892D01*
X175490500Y-121974108D01*
X175456392Y-121846814D01*
X175390500Y-121732686D01*
X175297314Y-121639500D01*
X175228032Y-121599500D01*
X175183187Y-121573608D01*
X175119539Y-121556554D01*
X175055892Y-121539500D01*
X174924108Y-121539500D01*
X174796812Y-121573608D01*
X174682686Y-121639500D01*
X174682683Y-121639502D01*
X174589502Y-121732683D01*
X174589500Y-121732686D01*
X174523608Y-121846812D01*
X174489500Y-121974108D01*
X169622614Y-121974108D01*
X169620790Y-119693905D01*
X180925739Y-119693905D01*
X180925739Y-119825689D01*
X180935786Y-119863186D01*
X180959847Y-119952984D01*
X180979666Y-119987310D01*
X181025739Y-120067111D01*
X181118925Y-120160297D01*
X181217760Y-120217360D01*
X181230127Y-120224500D01*
X181233053Y-120226189D01*
X181360347Y-120260297D01*
X181360349Y-120260297D01*
X181492129Y-120260297D01*
X181492131Y-120260297D01*
X181619425Y-120226189D01*
X181733553Y-120160297D01*
X181826739Y-120067111D01*
X181892631Y-119952983D01*
X181926739Y-119825689D01*
X181926739Y-119693905D01*
X181905358Y-119614108D01*
X186769500Y-119614108D01*
X186769500Y-119745891D01*
X186803608Y-119873187D01*
X186831328Y-119921198D01*
X186869500Y-119987314D01*
X186962686Y-120080500D01*
X187076814Y-120146392D01*
X187204108Y-120180500D01*
X187204110Y-120180500D01*
X187335890Y-120180500D01*
X187335892Y-120180500D01*
X187463186Y-120146392D01*
X187577314Y-120080500D01*
X187670500Y-119987314D01*
X187725500Y-119892050D01*
X187776065Y-119843837D01*
X187844672Y-119830613D01*
X187909537Y-119856581D01*
X187940273Y-119892051D01*
X187945797Y-119901618D01*
X187989500Y-119977314D01*
X188082686Y-120070500D01*
X188196814Y-120136392D01*
X188324108Y-120170500D01*
X188324110Y-120170500D01*
X188455890Y-120170500D01*
X188455892Y-120170500D01*
X188583186Y-120136392D01*
X188697314Y-120070500D01*
X188790500Y-119977314D01*
X188832613Y-119904371D01*
X188883180Y-119856156D01*
X188951787Y-119842933D01*
X189016652Y-119868901D01*
X189047386Y-119904371D01*
X189089500Y-119977314D01*
X189182686Y-120070500D01*
X189296814Y-120136392D01*
X189424108Y-120170500D01*
X189424110Y-120170500D01*
X189555890Y-120170500D01*
X189555892Y-120170500D01*
X189683186Y-120136392D01*
X189797314Y-120070500D01*
X189838902Y-120028912D01*
X191869784Y-120028912D01*
X191869784Y-120160696D01*
X191886838Y-120224343D01*
X191903892Y-120287991D01*
X191921035Y-120317683D01*
X191969784Y-120402118D01*
X192062970Y-120495304D01*
X192177098Y-120561196D01*
X192304392Y-120595304D01*
X192304394Y-120595304D01*
X192436174Y-120595304D01*
X192436176Y-120595304D01*
X192563470Y-120561196D01*
X192677598Y-120495304D01*
X192770784Y-120402118D01*
X192836676Y-120287990D01*
X192870784Y-120160696D01*
X192870784Y-120028912D01*
X192836676Y-119901618D01*
X192835399Y-119899407D01*
X192797357Y-119833516D01*
X192770784Y-119787490D01*
X192677598Y-119694304D01*
X192620534Y-119661358D01*
X192563471Y-119628412D01*
X192499823Y-119611358D01*
X192436176Y-119594304D01*
X192304392Y-119594304D01*
X192177096Y-119628412D01*
X192062970Y-119694304D01*
X192062967Y-119694306D01*
X191969786Y-119787487D01*
X191969784Y-119787490D01*
X191903892Y-119901616D01*
X191869784Y-120028912D01*
X189838902Y-120028912D01*
X189890500Y-119977314D01*
X189956392Y-119863186D01*
X189990500Y-119735892D01*
X189990500Y-119604108D01*
X189956392Y-119476814D01*
X189890500Y-119362686D01*
X189797314Y-119269500D01*
X189740250Y-119236554D01*
X189683187Y-119203608D01*
X189619539Y-119186554D01*
X189555892Y-119169500D01*
X189424108Y-119169500D01*
X189296812Y-119203608D01*
X189182686Y-119269500D01*
X189182683Y-119269502D01*
X189089502Y-119362683D01*
X189089500Y-119362686D01*
X189083727Y-119372686D01*
X189047387Y-119435628D01*
X188996820Y-119483843D01*
X188928212Y-119497065D01*
X188863348Y-119471097D01*
X188832613Y-119435628D01*
X188790500Y-119362686D01*
X188697314Y-119269500D01*
X188640250Y-119236554D01*
X188583187Y-119203608D01*
X188519539Y-119186554D01*
X188455892Y-119169500D01*
X188324108Y-119169500D01*
X188196812Y-119203608D01*
X188082686Y-119269500D01*
X188082683Y-119269502D01*
X187989502Y-119362683D01*
X187989500Y-119362686D01*
X187934500Y-119457948D01*
X187883932Y-119506163D01*
X187815325Y-119519385D01*
X187750461Y-119493417D01*
X187719726Y-119457947D01*
X187670502Y-119372689D01*
X187670497Y-119372683D01*
X187577316Y-119279502D01*
X187577314Y-119279500D01*
X187508600Y-119239828D01*
X187463187Y-119213608D01*
X187366017Y-119187572D01*
X187335892Y-119179500D01*
X187204108Y-119179500D01*
X187076812Y-119213608D01*
X186962686Y-119279500D01*
X186962683Y-119279502D01*
X186869502Y-119372683D01*
X186869500Y-119372686D01*
X186803608Y-119486812D01*
X186769500Y-119614108D01*
X181905358Y-119614108D01*
X181892631Y-119566611D01*
X181826739Y-119452483D01*
X181733553Y-119359297D01*
X181676489Y-119326351D01*
X181619426Y-119293405D01*
X181530209Y-119269500D01*
X181492131Y-119259297D01*
X181360347Y-119259297D01*
X181233051Y-119293405D01*
X181118925Y-119359297D01*
X181118922Y-119359299D01*
X181025741Y-119452480D01*
X181025739Y-119452483D01*
X180959847Y-119566609D01*
X180927890Y-119685877D01*
X180925739Y-119693905D01*
X169620790Y-119693905D01*
X169618822Y-117234108D01*
X171074500Y-117234108D01*
X171074500Y-117365891D01*
X171108608Y-117493187D01*
X171136151Y-117540892D01*
X171174500Y-117607314D01*
X171267686Y-117700500D01*
X171366521Y-117757563D01*
X171381810Y-117766390D01*
X171381814Y-117766392D01*
X171509108Y-117800500D01*
X171509110Y-117800500D01*
X171640890Y-117800500D01*
X171640892Y-117800500D01*
X171768186Y-117766392D01*
X171780802Y-117759108D01*
X175574500Y-117759108D01*
X175574500Y-117890892D01*
X175586032Y-117933930D01*
X175608608Y-118018187D01*
X175641554Y-118075250D01*
X175674500Y-118132314D01*
X175767686Y-118225500D01*
X175881814Y-118291392D01*
X176009108Y-118325500D01*
X176009110Y-118325500D01*
X176140890Y-118325500D01*
X176140892Y-118325500D01*
X176268186Y-118291392D01*
X176382314Y-118225500D01*
X176475500Y-118132314D01*
X176541392Y-118018186D01*
X176575500Y-117890892D01*
X176575500Y-117759108D01*
X176541392Y-117631814D01*
X176475500Y-117517686D01*
X176382314Y-117424500D01*
X176325250Y-117391554D01*
X176268187Y-117358608D01*
X176204539Y-117341554D01*
X176140892Y-117324500D01*
X176009108Y-117324500D01*
X175881812Y-117358608D01*
X175767686Y-117424500D01*
X175767683Y-117424502D01*
X175674502Y-117517683D01*
X175674500Y-117517686D01*
X175608608Y-117631812D01*
X175585355Y-117718595D01*
X175574500Y-117759108D01*
X171780802Y-117759108D01*
X171882314Y-117700500D01*
X171975500Y-117607314D01*
X172041392Y-117493186D01*
X172075500Y-117365892D01*
X172075500Y-117234108D01*
X172041392Y-117106814D01*
X171975500Y-116992686D01*
X171882314Y-116899500D01*
X171825250Y-116866554D01*
X171768187Y-116833608D01*
X171704539Y-116816554D01*
X171640892Y-116799500D01*
X171509108Y-116799500D01*
X171381812Y-116833608D01*
X171267686Y-116899500D01*
X171267683Y-116899502D01*
X171174502Y-116992683D01*
X171174500Y-116992686D01*
X171108608Y-117106812D01*
X171074500Y-117234108D01*
X169618822Y-117234108D01*
X169615841Y-113507722D01*
X170069478Y-113507722D01*
X170069478Y-113639506D01*
X170085829Y-113700529D01*
X170103586Y-113766801D01*
X170131928Y-113815890D01*
X170169478Y-113880928D01*
X170262664Y-113974114D01*
X170376792Y-114040006D01*
X170504086Y-114074114D01*
X170504088Y-114074114D01*
X170635868Y-114074114D01*
X170635870Y-114074114D01*
X170763164Y-114040006D01*
X170877292Y-113974114D01*
X170970478Y-113880928D01*
X171036370Y-113766800D01*
X171070478Y-113639506D01*
X171070478Y-113507722D01*
X171043010Y-113405209D01*
X171044673Y-113335362D01*
X171083836Y-113277499D01*
X171148064Y-113249995D01*
X171216966Y-113261581D01*
X171250466Y-113285437D01*
X173178759Y-115213730D01*
X173212244Y-115275053D01*
X173207260Y-115344745D01*
X173165388Y-115400678D01*
X173123174Y-115421185D01*
X173076814Y-115433607D01*
X172962686Y-115499500D01*
X172962683Y-115499502D01*
X172869502Y-115592683D01*
X172869500Y-115592686D01*
X172803608Y-115706812D01*
X172791267Y-115752871D01*
X172769500Y-115834108D01*
X172769500Y-115965892D01*
X172775201Y-115987167D01*
X172803608Y-116093187D01*
X172826413Y-116132686D01*
X172869500Y-116207314D01*
X172962686Y-116300500D01*
X173076814Y-116366392D01*
X173204108Y-116400500D01*
X173204110Y-116400500D01*
X173335890Y-116400500D01*
X173335892Y-116400500D01*
X173463186Y-116366392D01*
X173577314Y-116300500D01*
X173670500Y-116207314D01*
X173736392Y-116093186D01*
X173748813Y-116046826D01*
X173785178Y-115987167D01*
X173848025Y-115956638D01*
X173917400Y-115964933D01*
X173956269Y-115991240D01*
X174379540Y-116414511D01*
X174435489Y-116470460D01*
X174435491Y-116470461D01*
X174435495Y-116470464D01*
X174496859Y-116505892D01*
X174504011Y-116510021D01*
X174580438Y-116530500D01*
X174659562Y-116530500D01*
X178361324Y-116530500D01*
X178428363Y-116550185D01*
X178449005Y-116566819D01*
X178512686Y-116630500D01*
X178626814Y-116696392D01*
X178754108Y-116730500D01*
X178754110Y-116730500D01*
X178885890Y-116730500D01*
X178885892Y-116730500D01*
X179013186Y-116696392D01*
X179127314Y-116630500D01*
X179142847Y-116614966D01*
X179204167Y-116581481D01*
X179273859Y-116586464D01*
X179329793Y-116628334D01*
X179337915Y-116640646D01*
X179399500Y-116747314D01*
X179492686Y-116840500D01*
X179606814Y-116906392D01*
X179734108Y-116940500D01*
X179734110Y-116940500D01*
X179865890Y-116940500D01*
X179865892Y-116940500D01*
X179993186Y-116906392D01*
X180107314Y-116840500D01*
X180200500Y-116747314D01*
X180266392Y-116633186D01*
X180300500Y-116505892D01*
X180300500Y-116374108D01*
X180266392Y-116246814D01*
X180200500Y-116132686D01*
X180155291Y-116087477D01*
X186635315Y-116087477D01*
X186635315Y-116219261D01*
X186642697Y-116246812D01*
X186669423Y-116346556D01*
X186685421Y-116374265D01*
X186735315Y-116460683D01*
X186828501Y-116553869D01*
X186942629Y-116619761D01*
X187069923Y-116653869D01*
X187069925Y-116653869D01*
X187201705Y-116653869D01*
X187201707Y-116653869D01*
X187329001Y-116619761D01*
X187443129Y-116553869D01*
X187536315Y-116460683D01*
X187602207Y-116346555D01*
X187636315Y-116219261D01*
X187636315Y-116087477D01*
X187634980Y-116082494D01*
X188105084Y-116082494D01*
X188105084Y-116214278D01*
X188113802Y-116246814D01*
X188139192Y-116341573D01*
X188158067Y-116374265D01*
X188205084Y-116455700D01*
X188298270Y-116548886D01*
X188397105Y-116605949D01*
X188410241Y-116613533D01*
X188412398Y-116614778D01*
X188539692Y-116648886D01*
X188539694Y-116648886D01*
X188671474Y-116648886D01*
X188671476Y-116648886D01*
X188798770Y-116614778D01*
X188912898Y-116548886D01*
X189006084Y-116455700D01*
X189071976Y-116341572D01*
X189106084Y-116214278D01*
X189106084Y-116082494D01*
X189071976Y-115955200D01*
X189006084Y-115841072D01*
X188912898Y-115747886D01*
X188855834Y-115714940D01*
X188798771Y-115681994D01*
X188735123Y-115664940D01*
X188671476Y-115647886D01*
X188539692Y-115647886D01*
X188412396Y-115681994D01*
X188298270Y-115747886D01*
X188298267Y-115747888D01*
X188205086Y-115841069D01*
X188205084Y-115841072D01*
X188139192Y-115955198D01*
X188112218Y-116055869D01*
X188105084Y-116082494D01*
X187634980Y-116082494D01*
X187602207Y-115960183D01*
X187536315Y-115846055D01*
X187443129Y-115752869D01*
X187363360Y-115706814D01*
X187329002Y-115686977D01*
X187265354Y-115669923D01*
X187201707Y-115652869D01*
X187069923Y-115652869D01*
X186942627Y-115686977D01*
X186828501Y-115752869D01*
X186828498Y-115752871D01*
X186735317Y-115846052D01*
X186735315Y-115846055D01*
X186669423Y-115960181D01*
X186647148Y-116043315D01*
X186635315Y-116087477D01*
X180155291Y-116087477D01*
X180107314Y-116039500D01*
X180028537Y-115994018D01*
X179993187Y-115973608D01*
X179898596Y-115948263D01*
X179865892Y-115939500D01*
X179734108Y-115939500D01*
X179606812Y-115973608D01*
X179492686Y-116039500D01*
X179492682Y-116039503D01*
X179477150Y-116055035D01*
X179415826Y-116088519D01*
X179346135Y-116083533D01*
X179290202Y-116041660D01*
X179282084Y-116029352D01*
X179242149Y-115960183D01*
X179220500Y-115922686D01*
X179127314Y-115829500D01*
X179049329Y-115784475D01*
X179013187Y-115763608D01*
X178930270Y-115741391D01*
X178885892Y-115729500D01*
X178754108Y-115729500D01*
X178626812Y-115763608D01*
X178512686Y-115829500D01*
X178512683Y-115829502D01*
X178449005Y-115893181D01*
X178387682Y-115926666D01*
X178361324Y-115929500D01*
X174795833Y-115929500D01*
X174728794Y-115909815D01*
X174708152Y-115893181D01*
X171716819Y-112901848D01*
X171683334Y-112840525D01*
X171680500Y-112814167D01*
X171680500Y-105580439D01*
X171673363Y-105553803D01*
X171660021Y-105504011D01*
X171651089Y-105488540D01*
X171620464Y-105435495D01*
X171620458Y-105435487D01*
X171564512Y-105379541D01*
X171564504Y-105379535D01*
X171495995Y-105339982D01*
X171495990Y-105339979D01*
X171452627Y-105328360D01*
X171419562Y-105319500D01*
X171340438Y-105319500D01*
X171307373Y-105328360D01*
X171264009Y-105339979D01*
X171264004Y-105339982D01*
X171195495Y-105379535D01*
X171195487Y-105379541D01*
X171193867Y-105381162D01*
X171192163Y-105382092D01*
X171189044Y-105384486D01*
X171188670Y-105383999D01*
X171132544Y-105414647D01*
X171106186Y-105417481D01*
X171091881Y-105417481D01*
X170964585Y-105451589D01*
X170850459Y-105517481D01*
X170850456Y-105517483D01*
X170757275Y-105610664D01*
X170757273Y-105610667D01*
X170691381Y-105724793D01*
X170657273Y-105852089D01*
X170657273Y-105983872D01*
X170691381Y-106111168D01*
X170694714Y-106116940D01*
X170757273Y-106225295D01*
X170850459Y-106318481D01*
X170964587Y-106384373D01*
X170987596Y-106390538D01*
X171047252Y-106426899D01*
X171077783Y-106489745D01*
X171079500Y-106510311D01*
X171079500Y-113029562D01*
X171086282Y-113054875D01*
X171084620Y-113124723D01*
X171045458Y-113182586D01*
X170981230Y-113210091D01*
X170912328Y-113198505D01*
X170878827Y-113174649D01*
X170877294Y-113173116D01*
X170877292Y-113173114D01*
X170782158Y-113118188D01*
X170763165Y-113107222D01*
X170699517Y-113090168D01*
X170635870Y-113073114D01*
X170504086Y-113073114D01*
X170376790Y-113107222D01*
X170262664Y-113173114D01*
X170262661Y-113173116D01*
X170169480Y-113266297D01*
X170169478Y-113266300D01*
X170103586Y-113380426D01*
X170096945Y-113405211D01*
X170069478Y-113507722D01*
X169615841Y-113507722D01*
X169604607Y-99464674D01*
X169624237Y-99397624D01*
X169677004Y-99351827D01*
X169746155Y-99341828D01*
X169809734Y-99370802D01*
X169826982Y-99389093D01*
X169973638Y-99580218D01*
X170184781Y-99791361D01*
X170184788Y-99791367D01*
X170421686Y-99973145D01*
X170421701Y-99973155D01*
X170680301Y-100122458D01*
X170680315Y-100122465D01*
X170956182Y-100236732D01*
X171244634Y-100314023D01*
X171440000Y-100339742D01*
X171440000Y-99321234D01*
X171590049Y-99345000D01*
X171789951Y-99345000D01*
X171940000Y-99321234D01*
X171940000Y-100339741D01*
X172135365Y-100314023D01*
X172423817Y-100236732D01*
X172699684Y-100122465D01*
X172699698Y-100122458D01*
X172958298Y-99973155D01*
X172958313Y-99973145D01*
X173195211Y-99791367D01*
X173195218Y-99791361D01*
X173406361Y-99580218D01*
X173406367Y-99580211D01*
X173588145Y-99343313D01*
X173588155Y-99343298D01*
X173737458Y-99084698D01*
X173737465Y-99084684D01*
X173851732Y-98808817D01*
X173929023Y-98520365D01*
X173967998Y-98224318D01*
X173968000Y-98224301D01*
X173968000Y-97690000D01*
X172960000Y-97690000D01*
X172960000Y-97190000D01*
X173968000Y-97190000D01*
X173968000Y-96655698D01*
X173967998Y-96655681D01*
X173936157Y-96413818D01*
X173929023Y-96359634D01*
X173851732Y-96071182D01*
X173737465Y-95795315D01*
X173737458Y-95795301D01*
X173588155Y-95536701D01*
X173588145Y-95536686D01*
X173406367Y-95299788D01*
X173406361Y-95299781D01*
X173195218Y-95088638D01*
X173195211Y-95088632D01*
X172958313Y-94906854D01*
X172958298Y-94906844D01*
X172884639Y-94864317D01*
X172836423Y-94813750D01*
X172823200Y-94745143D01*
X172849168Y-94680278D01*
X172906083Y-94639750D01*
X172946718Y-94632930D01*
X177381026Y-94635886D01*
G37*
%TD.AperFunction*%
%TA.AperFunction,Conductor*%
G36*
X187416206Y-101570185D02*
G01*
X187436848Y-101586819D01*
X190538181Y-104688152D01*
X190571666Y-104749475D01*
X190574500Y-104775833D01*
X190574500Y-105352108D01*
X190554815Y-105419147D01*
X190502011Y-105464902D01*
X190432853Y-105474846D01*
X190388500Y-105459495D01*
X190276317Y-105394726D01*
X190276314Y-105394725D01*
X190149020Y-105360617D01*
X190017236Y-105360617D01*
X190017234Y-105360617D01*
X190017228Y-105360618D01*
X189991122Y-105367612D01*
X189968445Y-105371478D01*
X189957234Y-105372331D01*
X189957219Y-105372333D01*
X189459192Y-105511373D01*
X189425849Y-105515940D01*
X188717273Y-105515940D01*
X188650234Y-105496255D01*
X188629592Y-105479621D01*
X187734512Y-104584541D01*
X187734504Y-104584535D01*
X187665995Y-104544982D01*
X187665990Y-104544979D01*
X187628725Y-104534994D01*
X187589562Y-104524500D01*
X187589560Y-104524500D01*
X179250833Y-104524500D01*
X179183794Y-104504815D01*
X179163152Y-104488181D01*
X178520199Y-103845228D01*
X178486714Y-103783905D01*
X178491698Y-103714213D01*
X178533570Y-103658280D01*
X178599034Y-103633863D01*
X178644169Y-103641184D01*
X178644756Y-103639251D01*
X178650572Y-103641014D01*
X178650583Y-103641019D01*
X178805671Y-103671868D01*
X178834985Y-103677699D01*
X178834988Y-103677700D01*
X178834990Y-103677700D01*
X179023012Y-103677700D01*
X179023013Y-103677699D01*
X179207417Y-103641019D01*
X179381125Y-103569067D01*
X179537458Y-103464608D01*
X179670408Y-103331658D01*
X179774867Y-103175325D01*
X179792339Y-103133141D01*
X179836179Y-103078741D01*
X179902473Y-103056675D01*
X179970172Y-103073954D01*
X180017783Y-103125090D01*
X180021452Y-103133123D01*
X180038930Y-103175318D01*
X180038934Y-103175327D01*
X180038936Y-103175331D01*
X180143391Y-103331657D01*
X180143394Y-103331661D01*
X180276338Y-103464605D01*
X180276342Y-103464608D01*
X180432668Y-103569063D01*
X180432681Y-103569070D01*
X180606378Y-103641017D01*
X180606383Y-103641019D01*
X180761471Y-103671868D01*
X180790785Y-103677699D01*
X180790788Y-103677700D01*
X180790790Y-103677700D01*
X180978812Y-103677700D01*
X180978813Y-103677699D01*
X181163217Y-103641019D01*
X181336925Y-103569067D01*
X181493258Y-103464608D01*
X181626208Y-103331658D01*
X181730667Y-103175325D01*
X181748139Y-103133141D01*
X181791979Y-103078741D01*
X181858273Y-103056675D01*
X181925972Y-103073954D01*
X181973583Y-103125090D01*
X181977252Y-103133123D01*
X181994730Y-103175318D01*
X181994734Y-103175327D01*
X181994736Y-103175331D01*
X182099191Y-103331657D01*
X182099194Y-103331661D01*
X182232138Y-103464605D01*
X182232142Y-103464608D01*
X182388468Y-103569063D01*
X182388481Y-103569070D01*
X182562178Y-103641017D01*
X182562183Y-103641019D01*
X182717271Y-103671868D01*
X182746585Y-103677699D01*
X182746588Y-103677700D01*
X182746590Y-103677700D01*
X182934612Y-103677700D01*
X182934613Y-103677699D01*
X182963928Y-103671868D01*
X187230334Y-103671868D01*
X187230334Y-103803651D01*
X187264442Y-103930947D01*
X187284715Y-103966060D01*
X187330334Y-104045074D01*
X187423520Y-104138260D01*
X187537648Y-104204152D01*
X187664942Y-104238260D01*
X187664944Y-104238260D01*
X187796724Y-104238260D01*
X187796726Y-104238260D01*
X187924020Y-104204152D01*
X188038148Y-104138260D01*
X188131334Y-104045074D01*
X188197226Y-103930946D01*
X188231334Y-103803652D01*
X188231334Y-103671868D01*
X188197226Y-103544574D01*
X188131334Y-103430446D01*
X188038148Y-103337260D01*
X187946064Y-103284095D01*
X187924021Y-103271368D01*
X187847829Y-103250953D01*
X187796726Y-103237260D01*
X187664942Y-103237260D01*
X187537646Y-103271368D01*
X187423520Y-103337260D01*
X187423517Y-103337262D01*
X187330336Y-103430443D01*
X187330334Y-103430446D01*
X187264442Y-103544572D01*
X187230334Y-103671868D01*
X182963928Y-103671868D01*
X183119017Y-103641019D01*
X183292725Y-103569067D01*
X183449058Y-103464608D01*
X183582008Y-103331658D01*
X183686467Y-103175325D01*
X183758419Y-103001617D01*
X183795100Y-102817210D01*
X183795100Y-102629190D01*
X183795100Y-102629187D01*
X183795099Y-102629185D01*
X183770825Y-102507151D01*
X183758419Y-102444783D01*
X183735613Y-102389724D01*
X183686470Y-102271081D01*
X183686463Y-102271068D01*
X183582008Y-102114742D01*
X183582005Y-102114738D01*
X183449061Y-101981794D01*
X183449057Y-101981791D01*
X183292731Y-101877336D01*
X183292718Y-101877329D01*
X183119021Y-101805382D01*
X183119011Y-101805379D01*
X183072446Y-101796117D01*
X183010536Y-101763732D01*
X182975961Y-101703016D01*
X182979701Y-101633247D01*
X183020568Y-101576575D01*
X183085586Y-101550994D01*
X183096638Y-101550500D01*
X187349167Y-101550500D01*
X187416206Y-101570185D01*
G37*
%TD.AperFunction*%
%TD*%
%TA.AperFunction,Conductor*%
%TO.N,/AUD-M*%
G36*
X175755660Y-99785843D02*
G01*
X175760220Y-99791778D01*
X176141823Y-100907659D01*
X176141257Y-100916596D01*
X176139025Y-100919718D01*
X176007918Y-101050825D01*
X175999645Y-101054252D01*
X175995860Y-101053623D01*
X175724100Y-100960688D01*
X174879978Y-100672020D01*
X174873259Y-100666100D01*
X174872286Y-100658679D01*
X175015173Y-99936178D01*
X175020139Y-99928729D01*
X175024376Y-99926973D01*
X175746879Y-99784086D01*
X175755660Y-99785843D01*
G37*
%TD.AperFunction*%
%TD*%
%TA.AperFunction,Conductor*%
%TO.N,/AUD-R*%
G36*
X191150070Y-116109191D02*
G01*
X191152796Y-116113476D01*
X191339608Y-116628709D01*
X191339207Y-116637655D01*
X191332597Y-116643696D01*
X191330929Y-116644165D01*
X191052320Y-116700530D01*
X191047680Y-116700530D01*
X190769070Y-116644165D01*
X190761641Y-116639165D01*
X190759922Y-116630377D01*
X190760387Y-116628720D01*
X190947204Y-116113476D01*
X190953245Y-116106866D01*
X190958203Y-116105764D01*
X191141797Y-116105764D01*
X191150070Y-116109191D01*
G37*
%TD.AperFunction*%
%TD*%
%TA.AperFunction,Conductor*%
%TO.N,/HP_L*%
G36*
X196195209Y-102798063D02*
G01*
X196202671Y-102803014D01*
X196202704Y-102803064D01*
X196360198Y-103039714D01*
X196361929Y-103048500D01*
X196356954Y-103055927D01*
X196002950Y-103292245D01*
X195996454Y-103294214D01*
X195814151Y-103294214D01*
X195805878Y-103290787D01*
X195802451Y-103282514D01*
X195802659Y-103280315D01*
X195894757Y-102799000D01*
X195903556Y-102753010D01*
X195908477Y-102745529D01*
X195917247Y-102743718D01*
X196195209Y-102798063D01*
G37*
%TD.AperFunction*%
%TD*%
%TA.AperFunction,Conductor*%
%TO.N,/HP_L*%
G36*
X202996116Y-131416015D02*
G01*
X202998842Y-131420300D01*
X203185654Y-131935533D01*
X203185253Y-131944479D01*
X203178643Y-131950520D01*
X203176975Y-131950989D01*
X202898366Y-132007354D01*
X202893726Y-132007354D01*
X202615116Y-131950989D01*
X202607687Y-131945989D01*
X202605968Y-131937201D01*
X202606433Y-131935544D01*
X202793250Y-131420300D01*
X202799291Y-131413690D01*
X202804249Y-131412588D01*
X202987843Y-131412588D01*
X202996116Y-131416015D01*
G37*
%TD.AperFunction*%
%TD*%
%TA.AperFunction,Conductor*%
%TO.N,/HP_R*%
G36*
X190029344Y-97344116D02*
G01*
X190030193Y-97345626D01*
X190102080Y-97499293D01*
X190221791Y-97755193D01*
X190262422Y-97842046D01*
X190262823Y-97850992D01*
X190260097Y-97855277D01*
X190130277Y-97985097D01*
X190122004Y-97988524D01*
X190117047Y-97987422D01*
X189966428Y-97916961D01*
X189620626Y-97755193D01*
X189614585Y-97748583D01*
X189614986Y-97739637D01*
X189615835Y-97738127D01*
X189772985Y-97501263D01*
X189776263Y-97497985D01*
X190013127Y-97340834D01*
X190021915Y-97339116D01*
X190029344Y-97344116D01*
G37*
%TD.AperFunction*%
%TD*%
%TA.AperFunction,Conductor*%
%TO.N,/AUD-R*%
G36*
X175010420Y-102720972D02*
G01*
X175017870Y-102725939D01*
X175019627Y-102730180D01*
X175162513Y-103452679D01*
X175160756Y-103461460D01*
X175154821Y-103466020D01*
X174038940Y-103847623D01*
X174030003Y-103847057D01*
X174026881Y-103844825D01*
X173895774Y-103713718D01*
X173892347Y-103705445D01*
X173892974Y-103701666D01*
X174274579Y-102585777D01*
X174280499Y-102579059D01*
X174287920Y-102578086D01*
X175010420Y-102720972D01*
G37*
%TD.AperFunction*%
%TD*%
%TA.AperFunction,Conductor*%
%TO.N,Net-(SL3-Pin_1)*%
G36*
X205948281Y-116288632D02*
G01*
X206183806Y-116446225D01*
X206188777Y-116453674D01*
X206188040Y-116460591D01*
X206042251Y-116797894D01*
X206039784Y-116801525D01*
X205912232Y-116929077D01*
X205903959Y-116932504D01*
X205895686Y-116929077D01*
X205893182Y-116925358D01*
X205815932Y-116742531D01*
X205696775Y-116460523D01*
X205696712Y-116451570D01*
X205701018Y-116446266D01*
X205935247Y-116288649D01*
X205944022Y-116286874D01*
X205948281Y-116288632D01*
G37*
%TD.AperFunction*%
%TD*%
%TA.AperFunction,Conductor*%
%TO.N,/HP_R*%
G36*
X208661920Y-133010057D02*
G01*
X208667961Y-133016667D01*
X208668430Y-133018335D01*
X208724795Y-133296945D01*
X208724795Y-133301585D01*
X208668430Y-133580194D01*
X208663430Y-133587623D01*
X208654642Y-133589342D01*
X208652974Y-133588873D01*
X208137741Y-133402061D01*
X208131131Y-133396020D01*
X208130029Y-133391062D01*
X208130029Y-133207467D01*
X208133456Y-133199194D01*
X208137738Y-133196469D01*
X208652976Y-133009656D01*
X208661920Y-133010057D01*
G37*
%TD.AperFunction*%
%TD*%
%TA.AperFunction,Conductor*%
%TO.N,/AUD-M*%
G36*
X191110111Y-107399452D02*
G01*
X191420875Y-107544829D01*
X191606535Y-107631682D01*
X191612576Y-107638292D01*
X191612175Y-107647238D01*
X191611326Y-107648748D01*
X191454177Y-107885610D01*
X191450896Y-107888891D01*
X191214034Y-108046040D01*
X191205246Y-108047759D01*
X191197817Y-108042759D01*
X191196968Y-108041249D01*
X191124159Y-107885610D01*
X190964738Y-107544827D01*
X190964338Y-107535883D01*
X190967062Y-107531600D01*
X191096885Y-107401777D01*
X191105157Y-107398351D01*
X191110111Y-107399452D01*
G37*
%TD.AperFunction*%
%TD*%
%TA.AperFunction,Conductor*%
%TO.N,/AUD-L*%
G36*
X190021371Y-105571340D02*
G01*
X190026896Y-105578387D01*
X190027095Y-105579213D01*
X190083158Y-105856327D01*
X190081439Y-105865115D01*
X190081400Y-105865174D01*
X189921983Y-106102336D01*
X189914524Y-106107290D01*
X189907436Y-106106462D01*
X189495755Y-105919555D01*
X189489639Y-105913015D01*
X189488892Y-105908902D01*
X189488892Y-105725320D01*
X189492319Y-105717047D01*
X189497443Y-105714052D01*
X190012482Y-105570264D01*
X190021371Y-105571340D01*
G37*
%TD.AperFunction*%
%TD*%
M02*
