M48
; DRILL file {KiCad 9.0.0} date 2025-11-20T17:42:55-0800
; FORMAT={-:-/ absolute / metric / decimal}
; #@! TF.CreationDate,2025-11-20T17:42:55-08:00
; #@! TF.GenerationSoftware,Kicad,Pcbnew,9.0.0
; #@! TF.FileFunction,Plated,1,4,PTH
FMAT,2
METRIC
; #@! TA.AperFunction,Plated,PTH,ViaDrill
T1C0.300
; #@! TA.AperFunction,Plated,PTH,ComponentDrill
T2C1.000
; #@! TA.AperFunction,Plated,PTH,ComponentDrill
T3C2.540
%
G90
G05
T1
X170.173Y-107.472
X170.34Y-116.12
X170.57Y-113.574
X170.8Y-124.575
X170.94Y-127.85
X171.38Y-105.62
X171.525Y-122.725
X171.575Y-117.3
X171.749Y-126.625
X171.775Y-136.3
X172.16Y-112.09
X172.375Y-138.675
X172.593Y-129.394
X172.662Y-108.701
X173.167Y-113.435
X173.27Y-115.9
X173.45Y-123.375
X173.5Y-138.525
X174.15Y-105.91
X174.7Y-110.84
X174.903Y-112.418
X174.99Y-122.04
X175.226Y-96.065
X175.578Y-133.039
X175.703Y-112.448
X176.05Y-120.8
X176.075Y-117.825
X176.125Y-125.275
X176.463Y-110.688
X176.56Y-138.69
X176.617Y-112.383
X176.784Y-127.39
X176.98Y-109.92
X177.19Y-136.57
X177.28Y-104.0
X177.6Y-138.9
X177.82Y-117.88
X178.35Y-110.99
X178.6Y-124.6
X178.82Y-116.23
X178.85Y-122.7
X179.076Y-109.732
X179.734Y-111.884
X179.8Y-116.44
X179.801Y-136.445
X179.87Y-110.71
X180.95Y-125.125
X181.109Y-136.259
X181.12Y-123.72
X181.16Y-138.72
X181.61Y-110.595
X181.923Y-129.331
X181.923Y-131.231
X182.081Y-112.256
X182.339Y-121.092
X182.414Y-133.561
X182.741Y-109.57
X183.435Y-108.891
X183.855Y-128.182
X184.213Y-125.402
X184.726Y-132.732
X185.325Y-102.425
X185.789Y-130.54
X186.753Y-133.397
X186.889Y-111.096
X187.004Y-124.156
X187.136Y-116.153
X187.15Y-108.59
X187.175Y-107.6
X187.27Y-119.68
X187.425Y-121.575
X187.839Y-129.37
X188.25Y-100.95
X188.3Y-103.15
X188.39Y-119.67
X188.56Y-126.994
X188.601Y-125.338
X188.606Y-116.148
X188.637Y-122.436
X188.69Y-108.56
X188.771Y-133.539
X188.825Y-105.1
X189.49Y-119.67
X189.775Y-97.5
X189.925Y-107.05
X189.975Y-112.875
X190.058Y-116.147
X190.1Y-100.425
X190.125Y-109.6
X190.146Y-143.319
X190.218Y-133.632
X190.251Y-131.783
X190.327Y-120.904
X190.55Y-137.2
X190.585Y-136.011
X190.9Y-103.7
X191.05Y-116.7
X191.05Y-137.95
X191.142Y-127.476
X191.142Y-130.767
X191.465Y-141.155
X191.5Y-104.45
X191.725Y-136.425
X192.25Y-133.07
X192.274Y-132.169
X192.37Y-120.095
X192.45Y-130.155
X192.525Y-101.2
X192.693Y-142.191
X192.9Y-109.1
X193.075Y-127.55
X193.25Y-138.05
X193.325Y-96.35
X193.567Y-122.53
X193.637Y-124.33
X193.775Y-133.2
X194.0Y-127.95
X194.275Y-135.8
X194.55Y-117.675
X195.0Y-101.075
X195.05Y-105.25
X195.4Y-141.13
X195.55Y-132.025
X196.05Y-115.275
X196.119Y-101.978
X196.2Y-102.8
X196.725Y-140.975
X196.808Y-132.135
X196.9Y-120.5
X196.92Y-100.39
X197.0Y-125.25
X197.025Y-127.9
X197.3Y-138.075
X197.325Y-142.9
X197.4Y-113.15
X197.65Y-114.125
X197.8Y-116.1
X197.825Y-107.0
X197.892Y-100.674
X197.925Y-111.7
X198.193Y-119.433
X198.4Y-115.35
X198.425Y-112.925
X198.65Y-120.9
X198.7Y-139.375
X199.325Y-113.75
X199.419Y-127.751
X199.425Y-117.3
X199.525Y-143.025
X199.55Y-137.68
X199.59Y-126.663
X199.675Y-133.875
X199.7Y-124.325
X199.799Y-129.905
X199.9Y-140.61
X199.925Y-135.8
X200.05Y-117.975
X200.3Y-125.925
X200.7Y-143.25
X200.815Y-127.924
X200.982Y-110.299
X201.2Y-117.9
X201.25Y-136.625
X201.275Y-138.65
X201.75Y-142.825
X201.875Y-114.05
X202.3Y-125.125
X202.425Y-110.85
X202.525Y-138.7
X202.875Y-114.025
X202.896Y-132.007
X203.125Y-141.075
X203.561Y-126.155
X204.675Y-110.575
X204.8Y-127.9
X205.461Y-129.794
X205.942Y-116.285
X206.075Y-120.975
X206.203Y-118.279
X207.176Y-116.236
X208.538Y-131.788
X208.724Y-133.299
X209.138Y-118.103
X209.7Y-127.75
X209.775Y-126.525
X209.825Y-130.475
X209.9Y-133.225
X209.903Y-124.693
X210.108Y-117.458
X212.2Y-113.675
X212.52Y-115.074
X213.248Y-125.21
X213.25Y-120.95
X213.25Y-122.0
X214.725Y-120.625
X214.925Y-117.35
X216.437Y-124.712
X216.475Y-125.85
X216.699Y-131.743
X217.25Y-125.125
X217.425Y-123.7
X217.73Y-133.271
X217.85Y-117.475
X217.875Y-112.675
X218.294Y-125.886
T2
X175.017Y-99.929
X175.017Y-102.723
X176.973Y-102.723
X178.421Y-99.929
X178.929Y-102.723
X180.453Y-99.929
X180.885Y-102.723
X182.841Y-99.929
X182.841Y-102.723
T3
X178.929Y-96.551
T3
G00X171.69Y-98.075
M15
G01X171.69Y-96.805
M16
G05
G00X186.168Y-98.075
M15
G01X186.168Y-96.805
M16
G05
M30
