%TF.GenerationSoftware,KiCad,Pcbnew,9.0.0*%
%TF.CreationDate,2025-11-19T20:28:36-08:00*%
%TF.ProjectId,MegaAV_CE,4d656761-4156-45f4-9345-2e6b69636164,rev?*%
%TF.SameCoordinates,Original*%
%TF.FileFunction,Copper,L3,Inr*%
%TF.FilePolarity,Positive*%
%FSLAX46Y46*%
G04 Gerber Fmt 4.6, Leading zero omitted, Abs format (unit mm)*
G04 Created by KiCad (PCBNEW 9.0.0) date 2025-11-19 20:28:36*
%MOMM*%
%LPD*%
G01*
G04 APERTURE LIST*
%TA.AperFunction,ComponentPad*%
%ADD10C,1.508000*%
%TD*%
%TA.AperFunction,ComponentPad*%
%ADD11O,3.556000X4.826000*%
%TD*%
%TA.AperFunction,ComponentPad*%
%ADD12C,3.556000*%
%TD*%
%TA.AperFunction,ViaPad*%
%ADD13C,0.600000*%
%TD*%
%TA.AperFunction,Conductor*%
%ADD14C,0.600000*%
%TD*%
%TA.AperFunction,Conductor*%
%ADD15C,0.200000*%
%TD*%
G04 APERTURE END LIST*
D10*
%TO.N,/B-OUT*%
%TO.C,CN1*%
X180453000Y-99929200D03*
%TO.N,+5V*%
X178421000Y-99929200D03*
%TO.N,/G-OUT*%
X182840600Y-99929200D03*
%TO.N,/CV-OUT*%
X180884800Y-102723200D03*
%TO.N,/CSync*%
X178929000Y-102723200D03*
%TO.N,/AUD-M*%
X175017400Y-99929200D03*
%TO.N,/R-OUT*%
X182840600Y-102723200D03*
%TO.N,/AUD-L*%
X176973200Y-102723200D03*
%TO.N,/AUD-R*%
X175017400Y-102723200D03*
D11*
%TO.N,GND*%
X171690000Y-97440000D03*
D12*
X178929000Y-96551000D03*
D11*
X186168000Y-97440000D03*
%TD*%
D13*
%TO.N,+5V*%
X191510000Y-141500000D03*
X195550000Y-132025000D03*
X197025000Y-127900000D03*
X188825000Y-105100000D03*
X197650000Y-114125000D03*
X185773858Y-125547964D03*
X177691303Y-113704907D03*
X199425000Y-117300000D03*
X187537768Y-132006155D03*
X191454700Y-133700982D03*
X172375000Y-138675000D03*
X171775000Y-136300000D03*
%TO.N,/B-IN*%
X176391012Y-134075382D03*
X185193582Y-136247138D03*
%TO.N,GND*%
X177094344Y-130752519D03*
X173301516Y-119592818D03*
X202300000Y-125125000D03*
X181625317Y-100588160D03*
X202425000Y-110850000D03*
X194275000Y-135800000D03*
X209825000Y-130475000D03*
X214953331Y-113562060D03*
X201275000Y-138650000D03*
X200075000Y-126700000D03*
X196900000Y-120500000D03*
X193025000Y-141100000D03*
X201750000Y-142825000D03*
X170762501Y-130142693D03*
X201250000Y-136625000D03*
X188892261Y-110656019D03*
X193250000Y-138050000D03*
X173500000Y-138525000D03*
X173774230Y-130761461D03*
X199700000Y-124325000D03*
X194550000Y-117675000D03*
X197400000Y-113150000D03*
X202925117Y-127790625D03*
X209775000Y-126525000D03*
X215116769Y-118010582D03*
X197000000Y-125250000D03*
X204675000Y-110575000D03*
X213250000Y-120950000D03*
X206831150Y-132295475D03*
X193969937Y-95108534D03*
X205997309Y-119949388D03*
X190550000Y-137200000D03*
X199925000Y-135800000D03*
X190701206Y-104483893D03*
X193542948Y-97634681D03*
X198650000Y-120900000D03*
X177600000Y-138900000D03*
X193075000Y-127550000D03*
X205975000Y-118125000D03*
X198700000Y-139375000D03*
X197800000Y-116100000D03*
X188624083Y-104197392D03*
X197325000Y-142900000D03*
X176700463Y-106048485D03*
X209900000Y-133225000D03*
X203125000Y-141075000D03*
X185917916Y-101884498D03*
X217575000Y-129875000D03*
X180049265Y-136049265D03*
X202525000Y-138700000D03*
X199525000Y-143025000D03*
%TO.N,/PSG*%
X177190000Y-136570000D03*
X209700000Y-127750000D03*
X199675000Y-133875000D03*
%TO.N,/32X_L*%
X208538235Y-131788235D03*
X195400000Y-141130000D03*
X181160000Y-138720000D03*
%TO.N,/32X_R*%
X196725000Y-140975000D03*
X191725000Y-136425000D03*
X193775000Y-133200000D03*
X210000000Y-125125000D03*
%TO.N,/FM_R*%
X198239513Y-136415852D03*
X197300000Y-138075000D03*
%TO.N,/FM_L*%
X191050000Y-137950000D03*
X181272150Y-136519321D03*
%TO.N,/G-IN*%
X186200000Y-136258982D03*
X174407745Y-134143738D03*
%TO.N,/R-OUT*%
X172303782Y-111986404D03*
%TO.N,/G-OUT*%
X173839579Y-112247059D03*
%TO.N,/B-OUT*%
X175116940Y-116452775D03*
%TO.N,/CSync*%
X170160091Y-128789494D03*
X173198549Y-136254603D03*
X186845655Y-125535239D03*
%TO.N,/R-IN*%
X173298838Y-133716967D03*
X187198275Y-136237971D03*
%TO.N,/CD_R*%
X176560000Y-138690000D03*
X199900000Y-140610000D03*
X209216282Y-117498666D03*
%TO.N,/CD_L*%
X200700000Y-143250000D03*
X208094712Y-115366674D03*
%TO.N,/AUD-R*%
X191050000Y-116700000D03*
%TO.N,/AUD-L*%
X189739804Y-106119435D03*
%TO.N,/AUD-M*%
X192900000Y-109100000D03*
%TO.N,Net-(C3-Pad2)*%
X194000000Y-127950000D03*
X196662369Y-130580636D03*
%TO.N,Net-(SR3-Pin_1)*%
X213250000Y-122000000D03*
X203675000Y-125950000D03*
X200300000Y-125925000D03*
X202916738Y-117308123D03*
%TO.N,Net-(SL3-Pin_1)*%
X200300000Y-129850000D03*
X214725000Y-120625000D03*
X205950000Y-116250000D03*
%TO.N,/SR*%
X214425000Y-117410000D03*
X208222961Y-117470685D03*
X198193456Y-119433016D03*
%TO.N,/SL*%
X211185045Y-112983451D03*
X200981953Y-110299000D03*
X197925000Y-111700000D03*
%TO.N,/V_REF*%
X195050000Y-105250000D03*
X199325000Y-113750000D03*
X198400000Y-115350000D03*
X189135019Y-127456707D03*
X196050000Y-115275000D03*
X200188235Y-127738235D03*
%TO.N,/HP_R*%
X189775000Y-97500000D03*
X208724265Y-133299265D03*
%TO.N,Net-(HPR_SL2-Pin_1)*%
X216695092Y-129920666D03*
X201830895Y-114003788D03*
X189225000Y-101925000D03*
%TO.N,Net-(HPL_SL2-Pin_1)*%
X198425000Y-112925000D03*
X191500000Y-104450000D03*
X216895710Y-125307108D03*
%TO.N,/HP_L*%
X204191072Y-131620256D03*
X198175793Y-100830125D03*
%TO.N,Net-(C49-Pad2)*%
X178186032Y-107845904D03*
X180939466Y-108439624D03*
%TO.N,Net-(MD1_PU1-A)*%
X178386652Y-131177421D03*
X173192889Y-131995307D03*
X188611412Y-121543364D03*
%TO.N,Net-(FMR_2-C)*%
X204434383Y-126558380D03*
X206226000Y-123459000D03*
%TO.N,Net-(HPL_RES2-C)*%
X198057403Y-106977201D03*
X217875000Y-112675000D03*
X190900000Y-103700000D03*
X216375000Y-123775000D03*
%TO.N,Net-(HPR_RES2-C)*%
X188300000Y-103150000D03*
X197077945Y-101227358D03*
X217425000Y-123700000D03*
X217850000Y-117475000D03*
%TO.N,Net-(C1-Pad2)*%
X170860799Y-103077144D03*
X178387143Y-127660828D03*
%TO.N,Net-(C46-Pad1)*%
X185331792Y-106891324D03*
X174472952Y-110850351D03*
%TO.N,Net-(C47-Pad1)*%
X193987863Y-95965567D03*
X196948268Y-96682714D03*
%TO.N,Net-(IC1-VREF)*%
X184055069Y-117228083D03*
X184019708Y-109713613D03*
%TO.N,Net-(IC1-COUT)*%
X198572452Y-97834544D03*
X182787931Y-116171888D03*
%TO.N,Net-(IC1-YOUT)*%
X181496020Y-116081905D03*
X198598268Y-96682714D03*
%TO.N,/NTSC{slash}PAL*%
X178937308Y-120790781D03*
X189053494Y-136168479D03*
X171618548Y-107134308D03*
%TD*%
D14*
%TO.N,+5V*%
X172700000Y-107507786D02*
X172700000Y-102981761D01*
X171749000Y-133425000D02*
X171749000Y-126625000D01*
X170674000Y-112264000D02*
X170674000Y-109533786D01*
X198450000Y-123525000D02*
X203767068Y-118207932D01*
X171580000Y-113170000D02*
X170674000Y-112264000D01*
X171749000Y-138049000D02*
X171749000Y-133425000D01*
X172700000Y-102981761D02*
X174497561Y-101184200D01*
X171580000Y-117295000D02*
X171580000Y-113170000D01*
X172400000Y-119425000D02*
X172400000Y-118125000D01*
X171575000Y-117300000D02*
X171580000Y-117295000D01*
X199425000Y-117250000D02*
X199425000Y-117300000D01*
X177691303Y-117691483D02*
X177691303Y-113704907D01*
X203767068Y-116942068D02*
X202950000Y-116125000D01*
X203767068Y-118207932D02*
X203767068Y-116942068D01*
X197650000Y-114125000D02*
X198025000Y-114500000D01*
X171749000Y-123633786D02*
X171749000Y-126625000D01*
X198450000Y-126825000D02*
X198450000Y-123525000D01*
X191160000Y-141150000D02*
X174850000Y-141150000D01*
X172400000Y-122982786D02*
X171749000Y-123633786D01*
X198450000Y-133725000D02*
X197250000Y-133725000D01*
X202950000Y-116125000D02*
X200550000Y-116125000D01*
X198450000Y-133725000D02*
X198450000Y-126825000D01*
X174497561Y-101184200D02*
X177166000Y-101184200D01*
X198450000Y-127037476D02*
X197587476Y-127900000D01*
X191510000Y-141500000D02*
X191510000Y-141140000D01*
X191510000Y-141500000D02*
X191160000Y-141150000D01*
X174850000Y-141150000D02*
X171749000Y-138049000D01*
X198925000Y-114500000D02*
X200550000Y-116125000D01*
X200550000Y-116125000D02*
X199425000Y-117250000D01*
X198450000Y-134200000D02*
X198450000Y-133725000D01*
X172400000Y-118125000D02*
X171575000Y-117300000D01*
X198025000Y-114500000D02*
X198925000Y-114500000D01*
X177166000Y-101184200D02*
X178421000Y-99929200D01*
X172400000Y-119425000D02*
X172400000Y-122982786D01*
X170674000Y-109533786D02*
X172700000Y-107507786D01*
X197250000Y-133725000D02*
X195550000Y-132025000D01*
X198450000Y-126825000D02*
X198450000Y-127037476D01*
X191510000Y-141140000D02*
X198450000Y-134200000D01*
X197587476Y-127900000D02*
X197025000Y-127900000D01*
X172400000Y-122982786D02*
X177691303Y-117691483D01*
D15*
%TO.N,/R-OUT*%
X175640786Y-104256409D02*
X181631845Y-104256409D01*
X181631845Y-104256409D02*
X182840600Y-103047654D01*
X173813405Y-109131838D02*
X173813405Y-106083790D01*
X172303782Y-111986404D02*
X172628956Y-111661229D01*
X172628956Y-111661229D02*
X172628956Y-110316287D01*
X172628956Y-110316287D02*
X173813405Y-109131838D01*
X173813405Y-106083790D02*
X175640786Y-104256409D01*
X182840600Y-103047654D02*
X182840600Y-102723200D01*
%TO.N,/G-OUT*%
X173852457Y-112234181D02*
X173839579Y-112247059D01*
X176599265Y-105196457D02*
X174998671Y-106797051D01*
X184398989Y-101508290D02*
X184398989Y-103235524D01*
X182840600Y-99949901D02*
X184398989Y-101508290D01*
X174998671Y-106797051D02*
X174998671Y-109267229D01*
X174998671Y-109267229D02*
X173852457Y-110413443D01*
X182840600Y-99929200D02*
X182840600Y-99949901D01*
X173852457Y-110413443D02*
X173852457Y-112234181D01*
X184398989Y-103235524D02*
X182438056Y-105196457D01*
X182438056Y-105196457D02*
X176599265Y-105196457D01*
%TO.N,/B-OUT*%
X182921991Y-98400374D02*
X181981826Y-98400374D01*
X177476230Y-106145062D02*
X182837152Y-106145062D01*
X181981826Y-98400374D02*
X180453000Y-99929200D01*
X185304370Y-103677844D02*
X185304370Y-100782753D01*
X176080893Y-109801836D02*
X176080893Y-107540399D01*
X175085603Y-115609188D02*
X175085603Y-110797126D01*
X185304370Y-100782753D02*
X182921991Y-98400374D01*
X182837152Y-106145062D02*
X185304370Y-103677844D01*
X175116940Y-116452775D02*
X175107702Y-116443537D01*
X175107702Y-115631287D02*
X175085603Y-115609188D01*
X175107702Y-116443537D02*
X175107702Y-115631287D01*
X176080893Y-107540399D02*
X177476230Y-106145062D01*
X175085603Y-110797126D02*
X176080893Y-109801836D01*
%TO.N,/CSync*%
X186845655Y-125535239D02*
X179837418Y-132543476D01*
X179837418Y-132543476D02*
X176909676Y-132543476D01*
X176909676Y-132543476D02*
X173198549Y-136254603D01*
%TO.N,Net-(HPR_SL2-Pin_1)*%
X201828788Y-114003788D02*
X194025000Y-106200000D01*
X190900000Y-101925000D02*
X189225000Y-101925000D01*
X194025000Y-106200000D02*
X194025000Y-105050000D01*
X201830895Y-114003788D02*
X201828788Y-114003788D01*
X194025000Y-105050000D02*
X190900000Y-101925000D01*
%TO.N,Net-(HPL_SL2-Pin_1)*%
X198425000Y-112925000D02*
X198300057Y-112925000D01*
X191500000Y-106124943D02*
X191500000Y-104450000D01*
X198300057Y-112925000D02*
X191500000Y-106124943D01*
%TO.N,Net-(MD1_PU1-A)*%
X187480811Y-121543364D02*
X188611412Y-121543364D01*
X178386652Y-130637523D02*
X187480811Y-121543364D01*
X178386652Y-131177421D02*
X178386652Y-130637523D01*
%TO.N,Net-(HPR_RES2-C)*%
X188300000Y-103150000D02*
X188300000Y-101701704D01*
X188300000Y-101701704D02*
X189264205Y-100737499D01*
X189264205Y-100737499D02*
X196588086Y-100737499D01*
X196588086Y-100737499D02*
X197077945Y-101227358D01*
%TO.N,Net-(IC1-VREF)*%
X184019708Y-115325809D02*
X184019708Y-109713613D01*
X184055069Y-117228083D02*
X184055069Y-115361170D01*
X184055069Y-115361170D02*
X184019708Y-115325809D01*
%TO.N,Net-(IC1-COUT)*%
X198572452Y-97834544D02*
X198452402Y-97954594D01*
X198452402Y-97954594D02*
X198257452Y-97954594D01*
%TO.N,Net-(IC1-YOUT)*%
X195294598Y-95767439D02*
X194479997Y-96582040D01*
X198310506Y-96394952D02*
X198283268Y-96394952D01*
X197655755Y-95767439D02*
X195294598Y-95767439D01*
X188971821Y-98826557D02*
X186537482Y-101260896D01*
X198598268Y-96682714D02*
X198310506Y-96394952D01*
X181010196Y-115596081D02*
X181496020Y-116081905D01*
X189852006Y-95070375D02*
X188971821Y-95950560D01*
X194479997Y-96582040D02*
X193717709Y-96582040D01*
X192206044Y-95070375D02*
X189852006Y-95070375D01*
X186537482Y-101260896D02*
X186537482Y-104037281D01*
X198283268Y-96394952D02*
X197655755Y-95767439D01*
X188971821Y-95950560D02*
X188971821Y-98826557D01*
X186537482Y-104037281D02*
X181010196Y-109564567D01*
X193717709Y-96582040D02*
X192206044Y-95070375D01*
X181010196Y-109564567D02*
X181010196Y-115596081D01*
%TD*%
%TA.AperFunction,Conductor*%
%TO.N,GND*%
G36*
X177381026Y-94635886D02*
G01*
X177448050Y-94655615D01*
X177493770Y-94708450D01*
X177504676Y-94767994D01*
X177504360Y-94772806D01*
X178224556Y-95493002D01*
X178101651Y-95582298D01*
X177960298Y-95723651D01*
X177871002Y-95846556D01*
X177150807Y-95126361D01*
X177150806Y-95126361D01*
X177030851Y-95282690D01*
X176881541Y-95541301D01*
X176881534Y-95541315D01*
X176767267Y-95817182D01*
X176689976Y-96105634D01*
X176651001Y-96401681D01*
X176651000Y-96401698D01*
X176651000Y-96700301D01*
X176651001Y-96700318D01*
X176689976Y-96996365D01*
X176767267Y-97284817D01*
X176881534Y-97560684D01*
X176881541Y-97560698D01*
X177030844Y-97819298D01*
X177030849Y-97819305D01*
X177150807Y-97975637D01*
X177871001Y-97255443D01*
X177960298Y-97378349D01*
X178101651Y-97519702D01*
X178224555Y-97608997D01*
X177504361Y-98329191D01*
X177660694Y-98449150D01*
X177660701Y-98449155D01*
X177919301Y-98598458D01*
X177919315Y-98598465D01*
X178195182Y-98712732D01*
X178298778Y-98740491D01*
X178358438Y-98776856D01*
X178388967Y-98839703D01*
X178380672Y-98909079D01*
X178336187Y-98962957D01*
X178290875Y-98981883D01*
X178142590Y-99011379D01*
X178142578Y-99011382D01*
X177968881Y-99083329D01*
X177968868Y-99083336D01*
X177812542Y-99187791D01*
X177812538Y-99187794D01*
X177679598Y-99320735D01*
X177679595Y-99320737D01*
X177623388Y-99404855D01*
X177623387Y-99404854D01*
X177620713Y-99408854D01*
X177604881Y-99428994D01*
X177597355Y-99443812D01*
X177593241Y-99449969D01*
X177593242Y-99449969D01*
X177575133Y-99477073D01*
X177553368Y-99529616D01*
X177549370Y-99538305D01*
X177002193Y-100615844D01*
X176954288Y-100666705D01*
X176891631Y-100683700D01*
X175893214Y-100683700D01*
X175826175Y-100664015D01*
X175780420Y-100611211D01*
X175770476Y-100542053D01*
X175790112Y-100490809D01*
X175863263Y-100381331D01*
X175863263Y-100381330D01*
X175863267Y-100381325D01*
X175935219Y-100207617D01*
X175971900Y-100023210D01*
X175971900Y-99835190D01*
X175971900Y-99835187D01*
X175971899Y-99835185D01*
X175963182Y-99791361D01*
X175935219Y-99650783D01*
X175905987Y-99580211D01*
X175863270Y-99477081D01*
X175863263Y-99477068D01*
X175758808Y-99320742D01*
X175758805Y-99320738D01*
X175625861Y-99187794D01*
X175625857Y-99187791D01*
X175469531Y-99083336D01*
X175469518Y-99083329D01*
X175295821Y-99011382D01*
X175295809Y-99011379D01*
X175111413Y-98974700D01*
X175111410Y-98974700D01*
X174923390Y-98974700D01*
X174923387Y-98974700D01*
X174738990Y-99011379D01*
X174738978Y-99011382D01*
X174565281Y-99083329D01*
X174565268Y-99083336D01*
X174408942Y-99187791D01*
X174408938Y-99187794D01*
X174275994Y-99320738D01*
X174275991Y-99320742D01*
X174171536Y-99477068D01*
X174171529Y-99477081D01*
X174099582Y-99650778D01*
X174099579Y-99650790D01*
X174062900Y-99835185D01*
X174062900Y-100023214D01*
X174099579Y-100207609D01*
X174099582Y-100207621D01*
X174171529Y-100381318D01*
X174171536Y-100381331D01*
X174275991Y-100537657D01*
X174275994Y-100537661D01*
X174286322Y-100547989D01*
X174319807Y-100609312D01*
X174314823Y-100679004D01*
X174272951Y-100734937D01*
X174260642Y-100743057D01*
X174190247Y-100783700D01*
X174190244Y-100783702D01*
X172299502Y-102674444D01*
X172299500Y-102674447D01*
X172233608Y-102788573D01*
X172199500Y-102915869D01*
X172199500Y-106708084D01*
X172179815Y-106775123D01*
X172127011Y-106820878D01*
X172057853Y-106830822D01*
X171994297Y-106801797D01*
X171987819Y-106795765D01*
X171925864Y-106733810D01*
X171925862Y-106733808D01*
X171864080Y-106698138D01*
X171811735Y-106667916D01*
X171748087Y-106650862D01*
X171684440Y-106633808D01*
X171552656Y-106633808D01*
X171425360Y-106667916D01*
X171311234Y-106733808D01*
X171311231Y-106733810D01*
X171218050Y-106826991D01*
X171218048Y-106826994D01*
X171152156Y-106941120D01*
X171118048Y-107068416D01*
X171118048Y-107200199D01*
X171152156Y-107327495D01*
X171181143Y-107377701D01*
X171218048Y-107441622D01*
X171311234Y-107534808D01*
X171425362Y-107600700D01*
X171552656Y-107634808D01*
X171552658Y-107634808D01*
X171565802Y-107634808D01*
X171632841Y-107654493D01*
X171678596Y-107707297D01*
X171688540Y-107776455D01*
X171659515Y-107840011D01*
X171653483Y-107846489D01*
X170273502Y-109226469D01*
X170273500Y-109226472D01*
X170207608Y-109340598D01*
X170173500Y-109467894D01*
X170173500Y-112329891D01*
X170207608Y-112457187D01*
X170240554Y-112514250D01*
X170273500Y-112571314D01*
X170273502Y-112571316D01*
X171043181Y-113340995D01*
X171076666Y-113402318D01*
X171079500Y-113428676D01*
X171079500Y-117199124D01*
X171075276Y-117231209D01*
X171074500Y-117234108D01*
X171074500Y-117365892D01*
X171075085Y-117368075D01*
X171108608Y-117493187D01*
X171136151Y-117540892D01*
X171174500Y-117607314D01*
X171532244Y-117965058D01*
X171863181Y-118295994D01*
X171896666Y-118357317D01*
X171899500Y-118383675D01*
X171899500Y-122724110D01*
X171879815Y-122791149D01*
X171863181Y-122811791D01*
X171348502Y-123326469D01*
X171348500Y-123326472D01*
X171282608Y-123440598D01*
X171260022Y-123524892D01*
X171248500Y-123567894D01*
X171248500Y-126559108D01*
X171248500Y-133359108D01*
X171248500Y-137983108D01*
X171248500Y-138114892D01*
X171255467Y-138140892D01*
X171282608Y-138242187D01*
X171309925Y-138289500D01*
X171348500Y-138356314D01*
X171348501Y-138356315D01*
X171348502Y-138356316D01*
X174445159Y-141452972D01*
X174445169Y-141452983D01*
X174449499Y-141457313D01*
X174449500Y-141457314D01*
X174542686Y-141550500D01*
X174542688Y-141550501D01*
X174542689Y-141550502D01*
X174639494Y-141606392D01*
X174639495Y-141606392D01*
X174656814Y-141616392D01*
X174784107Y-141650500D01*
X174784108Y-141650500D01*
X190901324Y-141650500D01*
X190968363Y-141670185D01*
X190989005Y-141686819D01*
X191202686Y-141900500D01*
X191316814Y-141966392D01*
X191444108Y-142000500D01*
X191444110Y-142000500D01*
X191575891Y-142000500D01*
X191575893Y-142000500D01*
X191703186Y-141966392D01*
X191817314Y-141900500D01*
X191910500Y-141807314D01*
X191976392Y-141693186D01*
X192010500Y-141565893D01*
X192010500Y-141434108D01*
X192010500Y-141398676D01*
X192030185Y-141331637D01*
X192046819Y-141310995D01*
X192293706Y-141064108D01*
X194899500Y-141064108D01*
X194899500Y-141195891D01*
X194933608Y-141323187D01*
X194938487Y-141331637D01*
X194999500Y-141437314D01*
X195092686Y-141530500D01*
X195206814Y-141596392D01*
X195334108Y-141630500D01*
X195334110Y-141630500D01*
X195465890Y-141630500D01*
X195465892Y-141630500D01*
X195593186Y-141596392D01*
X195707314Y-141530500D01*
X195800500Y-141437314D01*
X195866392Y-141323186D01*
X195900500Y-141195892D01*
X195900500Y-141064108D01*
X195866392Y-140936814D01*
X195850396Y-140909108D01*
X196224500Y-140909108D01*
X196224500Y-141040891D01*
X196258608Y-141168187D01*
X196274604Y-141195892D01*
X196324500Y-141282314D01*
X196417686Y-141375500D01*
X196531814Y-141441392D01*
X196659108Y-141475500D01*
X196659110Y-141475500D01*
X196790890Y-141475500D01*
X196790892Y-141475500D01*
X196918186Y-141441392D01*
X197032314Y-141375500D01*
X197125500Y-141282314D01*
X197191392Y-141168186D01*
X197225500Y-141040892D01*
X197225500Y-140909108D01*
X197191392Y-140781814D01*
X197125500Y-140667686D01*
X197032314Y-140574500D01*
X196979674Y-140544108D01*
X199399500Y-140544108D01*
X199399500Y-140675891D01*
X199433608Y-140803187D01*
X199444866Y-140822686D01*
X199499500Y-140917314D01*
X199592686Y-141010500D01*
X199706814Y-141076392D01*
X199834108Y-141110500D01*
X199834110Y-141110500D01*
X199965890Y-141110500D01*
X199965892Y-141110500D01*
X200093186Y-141076392D01*
X200207314Y-141010500D01*
X200300500Y-140917314D01*
X200366392Y-140803186D01*
X200400500Y-140675892D01*
X200400500Y-140544108D01*
X200366392Y-140416814D01*
X200300500Y-140302686D01*
X200207314Y-140209500D01*
X200150250Y-140176554D01*
X200093187Y-140143608D01*
X200029539Y-140126554D01*
X199965892Y-140109500D01*
X199834108Y-140109500D01*
X199706812Y-140143608D01*
X199592686Y-140209500D01*
X199592683Y-140209502D01*
X199499502Y-140302683D01*
X199499500Y-140302686D01*
X199433608Y-140416812D01*
X199399500Y-140544108D01*
X196979674Y-140544108D01*
X196975250Y-140541554D01*
X196918187Y-140508608D01*
X196854539Y-140491554D01*
X196790892Y-140474500D01*
X196659108Y-140474500D01*
X196531812Y-140508608D01*
X196417686Y-140574500D01*
X196417683Y-140574502D01*
X196324502Y-140667683D01*
X196324500Y-140667686D01*
X196258608Y-140781812D01*
X196224500Y-140909108D01*
X195850396Y-140909108D01*
X195800500Y-140822686D01*
X195707314Y-140729500D01*
X195650250Y-140696554D01*
X195593187Y-140663608D01*
X195529539Y-140646554D01*
X195465892Y-140629500D01*
X195334108Y-140629500D01*
X195206812Y-140663608D01*
X195092686Y-140729500D01*
X195092683Y-140729502D01*
X194999502Y-140822683D01*
X194999500Y-140822686D01*
X194933608Y-140936812D01*
X194899500Y-141064108D01*
X192293706Y-141064108D01*
X195348706Y-138009108D01*
X196799500Y-138009108D01*
X196799500Y-138140891D01*
X196833608Y-138268187D01*
X196863234Y-138319500D01*
X196899500Y-138382314D01*
X196992686Y-138475500D01*
X197106814Y-138541392D01*
X197234108Y-138575500D01*
X197234110Y-138575500D01*
X197365890Y-138575500D01*
X197365892Y-138575500D01*
X197493186Y-138541392D01*
X197607314Y-138475500D01*
X197700500Y-138382314D01*
X197766392Y-138268186D01*
X197800500Y-138140892D01*
X197800500Y-138009108D01*
X197766392Y-137881814D01*
X197700500Y-137767686D01*
X197607314Y-137674500D01*
X197550250Y-137641554D01*
X197493187Y-137608608D01*
X197429539Y-137591554D01*
X197365892Y-137574500D01*
X197234108Y-137574500D01*
X197106812Y-137608608D01*
X196992686Y-137674500D01*
X196992683Y-137674502D01*
X196899502Y-137767683D01*
X196899500Y-137767686D01*
X196833608Y-137881812D01*
X196799500Y-138009108D01*
X195348706Y-138009108D01*
X197007854Y-136349960D01*
X197739013Y-136349960D01*
X197739013Y-136481744D01*
X197755206Y-136542176D01*
X197773121Y-136609039D01*
X197790114Y-136638471D01*
X197839013Y-136723166D01*
X197932199Y-136816352D01*
X198046327Y-136882244D01*
X198173621Y-136916352D01*
X198173623Y-136916352D01*
X198305403Y-136916352D01*
X198305405Y-136916352D01*
X198432699Y-136882244D01*
X198546827Y-136816352D01*
X198640013Y-136723166D01*
X198705905Y-136609038D01*
X198740013Y-136481744D01*
X198740013Y-136349960D01*
X198705905Y-136222666D01*
X198640013Y-136108538D01*
X198546827Y-136015352D01*
X198477443Y-135975293D01*
X198432700Y-135949460D01*
X198369052Y-135932406D01*
X198305405Y-135915352D01*
X198173621Y-135915352D01*
X198046325Y-135949460D01*
X197932199Y-136015352D01*
X197932196Y-136015354D01*
X197839015Y-136108535D01*
X197839013Y-136108538D01*
X197773121Y-136222664D01*
X197746908Y-136320494D01*
X197739013Y-136349960D01*
X197007854Y-136349960D01*
X197103662Y-136254152D01*
X197689835Y-135667979D01*
X198850500Y-134507314D01*
X198916392Y-134393186D01*
X198950500Y-134265893D01*
X198950500Y-134134108D01*
X198950500Y-134046785D01*
X198970185Y-133979746D01*
X199022989Y-133933991D01*
X199092147Y-133924047D01*
X199155703Y-133953072D01*
X199193477Y-134011850D01*
X199194263Y-134014650D01*
X199197855Y-134028055D01*
X199208608Y-134068187D01*
X199230954Y-134106890D01*
X199274500Y-134182314D01*
X199367686Y-134275500D01*
X199481814Y-134341392D01*
X199609108Y-134375500D01*
X199609110Y-134375500D01*
X199740890Y-134375500D01*
X199740892Y-134375500D01*
X199868186Y-134341392D01*
X199982314Y-134275500D01*
X200075500Y-134182314D01*
X200141392Y-134068186D01*
X200175500Y-133940892D01*
X200175500Y-133809108D01*
X200141392Y-133681814D01*
X200138812Y-133677346D01*
X200114417Y-133635092D01*
X200075500Y-133567686D01*
X199982314Y-133474500D01*
X199904211Y-133429407D01*
X199868187Y-133408608D01*
X199800755Y-133390540D01*
X199740892Y-133374500D01*
X199609108Y-133374500D01*
X199481812Y-133408608D01*
X199367686Y-133474500D01*
X199367683Y-133474502D01*
X199274502Y-133567683D01*
X199274500Y-133567686D01*
X199208608Y-133681812D01*
X199194275Y-133735307D01*
X199157910Y-133794968D01*
X199095063Y-133825497D01*
X199025688Y-133817202D01*
X198971810Y-133772717D01*
X198950535Y-133706165D01*
X198950500Y-133703214D01*
X198950500Y-133233373D01*
X208223765Y-133233373D01*
X208223765Y-133365157D01*
X208235408Y-133408608D01*
X208257873Y-133492452D01*
X208266454Y-133507314D01*
X208323765Y-133606579D01*
X208416951Y-133699765D01*
X208531079Y-133765657D01*
X208658373Y-133799765D01*
X208658375Y-133799765D01*
X208790155Y-133799765D01*
X208790157Y-133799765D01*
X208917451Y-133765657D01*
X209031579Y-133699765D01*
X209124765Y-133606579D01*
X209190657Y-133492451D01*
X209224765Y-133365157D01*
X209224765Y-133233373D01*
X209190657Y-133106079D01*
X209124765Y-132991951D01*
X209031579Y-132898765D01*
X208941591Y-132846810D01*
X208917452Y-132832873D01*
X208853804Y-132815819D01*
X208790157Y-132798765D01*
X208658373Y-132798765D01*
X208531077Y-132832873D01*
X208416951Y-132898765D01*
X208416948Y-132898767D01*
X208323767Y-132991948D01*
X208323765Y-132991951D01*
X208257873Y-133106077D01*
X208250362Y-133134110D01*
X208223765Y-133233373D01*
X198950500Y-133233373D01*
X198950500Y-131554364D01*
X203690572Y-131554364D01*
X203690572Y-131686148D01*
X203693972Y-131698838D01*
X203724680Y-131813443D01*
X203757626Y-131870506D01*
X203790572Y-131927570D01*
X203883758Y-132020756D01*
X203997886Y-132086648D01*
X204125180Y-132120756D01*
X204125182Y-132120756D01*
X204256962Y-132120756D01*
X204256964Y-132120756D01*
X204384258Y-132086648D01*
X204498386Y-132020756D01*
X204591572Y-131927570D01*
X204657464Y-131813442D01*
X204681874Y-131722343D01*
X208037735Y-131722343D01*
X208037735Y-131854126D01*
X208071843Y-131981422D01*
X208094553Y-132020756D01*
X208137735Y-132095549D01*
X208230921Y-132188735D01*
X208345049Y-132254627D01*
X208472343Y-132288735D01*
X208472345Y-132288735D01*
X208604125Y-132288735D01*
X208604127Y-132288735D01*
X208731421Y-132254627D01*
X208845549Y-132188735D01*
X208938735Y-132095549D01*
X209004627Y-131981421D01*
X209038735Y-131854127D01*
X209038735Y-131722343D01*
X209004627Y-131595049D01*
X209004488Y-131594809D01*
X208983588Y-131558608D01*
X208938735Y-131480921D01*
X208845549Y-131387735D01*
X208788485Y-131354789D01*
X208731422Y-131321843D01*
X208667774Y-131304789D01*
X208604127Y-131287735D01*
X208472343Y-131287735D01*
X208345047Y-131321843D01*
X208230921Y-131387735D01*
X208230918Y-131387737D01*
X208137737Y-131480918D01*
X208137735Y-131480921D01*
X208071843Y-131595047D01*
X208037735Y-131722343D01*
X204681874Y-131722343D01*
X204691572Y-131686148D01*
X204691572Y-131554364D01*
X204657464Y-131427070D01*
X204591572Y-131312942D01*
X204498386Y-131219756D01*
X204441322Y-131186810D01*
X204384259Y-131153864D01*
X204320611Y-131136810D01*
X204256964Y-131119756D01*
X204125180Y-131119756D01*
X203997884Y-131153864D01*
X203883758Y-131219756D01*
X203883755Y-131219758D01*
X203790574Y-131312939D01*
X203790572Y-131312942D01*
X203724680Y-131427068D01*
X203709229Y-131484734D01*
X203690572Y-131554364D01*
X198950500Y-131554364D01*
X198950500Y-129784108D01*
X199799500Y-129784108D01*
X199799500Y-129915891D01*
X199833608Y-130043187D01*
X199854941Y-130080136D01*
X199899500Y-130157314D01*
X199992686Y-130250500D01*
X200106814Y-130316392D01*
X200234108Y-130350500D01*
X200234110Y-130350500D01*
X200365890Y-130350500D01*
X200365892Y-130350500D01*
X200493186Y-130316392D01*
X200607314Y-130250500D01*
X200700500Y-130157314D01*
X200766392Y-130043186D01*
X200800500Y-129915892D01*
X200800500Y-129854774D01*
X216194592Y-129854774D01*
X216194592Y-129986557D01*
X216228700Y-130113853D01*
X216228926Y-130114244D01*
X216294592Y-130227980D01*
X216387778Y-130321166D01*
X216501906Y-130387058D01*
X216629200Y-130421166D01*
X216629202Y-130421166D01*
X216760982Y-130421166D01*
X216760984Y-130421166D01*
X216888278Y-130387058D01*
X217002406Y-130321166D01*
X217095592Y-130227980D01*
X217161484Y-130113852D01*
X217195592Y-129986558D01*
X217195592Y-129854774D01*
X217161484Y-129727480D01*
X217095592Y-129613352D01*
X217002406Y-129520166D01*
X216945342Y-129487220D01*
X216888279Y-129454274D01*
X216824631Y-129437220D01*
X216760984Y-129420166D01*
X216629200Y-129420166D01*
X216501904Y-129454274D01*
X216387778Y-129520166D01*
X216387775Y-129520168D01*
X216294594Y-129613349D01*
X216294592Y-129613352D01*
X216228700Y-129727478D01*
X216194592Y-129854774D01*
X200800500Y-129854774D01*
X200800500Y-129784108D01*
X200766392Y-129656814D01*
X200700500Y-129542686D01*
X200607314Y-129449500D01*
X200550250Y-129416554D01*
X200493187Y-129383608D01*
X200429539Y-129366554D01*
X200365892Y-129349500D01*
X200234108Y-129349500D01*
X200106812Y-129383608D01*
X199992686Y-129449500D01*
X199992683Y-129449502D01*
X199899502Y-129542683D01*
X199899500Y-129542686D01*
X199833608Y-129656812D01*
X199799500Y-129784108D01*
X198950500Y-129784108D01*
X198950500Y-127672343D01*
X199687735Y-127672343D01*
X199687735Y-127804127D01*
X199695768Y-127834108D01*
X199721843Y-127931422D01*
X199741744Y-127965891D01*
X199787735Y-128045549D01*
X199880921Y-128138735D01*
X199995049Y-128204627D01*
X200122343Y-128238735D01*
X200122345Y-128238735D01*
X200254125Y-128238735D01*
X200254127Y-128238735D01*
X200381421Y-128204627D01*
X200495549Y-128138735D01*
X200588735Y-128045549D01*
X200654627Y-127931421D01*
X200688735Y-127804127D01*
X200688735Y-127684108D01*
X209199500Y-127684108D01*
X209199500Y-127815892D01*
X209210570Y-127857206D01*
X209233608Y-127943187D01*
X209266554Y-128000250D01*
X209299500Y-128057314D01*
X209392686Y-128150500D01*
X209506814Y-128216392D01*
X209634108Y-128250500D01*
X209634110Y-128250500D01*
X209765890Y-128250500D01*
X209765892Y-128250500D01*
X209893186Y-128216392D01*
X210007314Y-128150500D01*
X210100500Y-128057314D01*
X210166392Y-127943186D01*
X210200500Y-127815892D01*
X210200500Y-127684108D01*
X210166392Y-127556814D01*
X210100500Y-127442686D01*
X210007314Y-127349500D01*
X209912930Y-127295007D01*
X209893187Y-127283608D01*
X209829539Y-127266554D01*
X209765892Y-127249500D01*
X209634108Y-127249500D01*
X209506812Y-127283608D01*
X209392686Y-127349500D01*
X209392683Y-127349502D01*
X209299502Y-127442683D01*
X209299500Y-127442686D01*
X209233608Y-127556812D01*
X209202652Y-127672343D01*
X209199500Y-127684108D01*
X200688735Y-127684108D01*
X200688735Y-127672343D01*
X200654627Y-127545049D01*
X200588735Y-127430921D01*
X200495549Y-127337735D01*
X200401799Y-127283608D01*
X200381422Y-127271843D01*
X200298035Y-127249500D01*
X200254127Y-127237735D01*
X200122343Y-127237735D01*
X199995047Y-127271843D01*
X199880921Y-127337735D01*
X199880918Y-127337737D01*
X199787737Y-127430918D01*
X199787735Y-127430921D01*
X199721843Y-127545047D01*
X199708476Y-127594936D01*
X199687735Y-127672343D01*
X198950500Y-127672343D01*
X198950500Y-125859108D01*
X199799500Y-125859108D01*
X199799500Y-125990892D01*
X199811516Y-126035738D01*
X199833608Y-126118187D01*
X199866554Y-126175250D01*
X199899500Y-126232314D01*
X199992686Y-126325500D01*
X200106814Y-126391392D01*
X200234108Y-126425500D01*
X200234110Y-126425500D01*
X200365890Y-126425500D01*
X200365892Y-126425500D01*
X200493186Y-126391392D01*
X200607314Y-126325500D01*
X200700500Y-126232314D01*
X200766392Y-126118186D01*
X200800500Y-125990892D01*
X200800500Y-125884108D01*
X203174500Y-125884108D01*
X203174500Y-126015892D01*
X203191554Y-126079539D01*
X203208608Y-126143187D01*
X203241554Y-126200250D01*
X203274500Y-126257314D01*
X203367686Y-126350500D01*
X203481814Y-126416392D01*
X203609108Y-126450500D01*
X203609110Y-126450500D01*
X203740890Y-126450500D01*
X203740892Y-126450500D01*
X203777790Y-126440613D01*
X203847637Y-126442274D01*
X203905501Y-126481436D01*
X203933006Y-126545664D01*
X203933883Y-126560387D01*
X203933883Y-126624271D01*
X203967991Y-126751567D01*
X204000937Y-126808630D01*
X204033883Y-126865694D01*
X204127069Y-126958880D01*
X204241197Y-127024772D01*
X204368491Y-127058880D01*
X204368493Y-127058880D01*
X204500273Y-127058880D01*
X204500275Y-127058880D01*
X204627569Y-127024772D01*
X204741697Y-126958880D01*
X204834883Y-126865694D01*
X204900775Y-126751566D01*
X204934883Y-126624272D01*
X204934883Y-126492488D01*
X204900775Y-126365194D01*
X204834883Y-126251066D01*
X204741697Y-126157880D01*
X204672945Y-126118186D01*
X204627570Y-126091988D01*
X204563922Y-126074934D01*
X204500275Y-126057880D01*
X204368491Y-126057880D01*
X204331591Y-126067766D01*
X204261743Y-126066104D01*
X204203881Y-126026941D01*
X204176377Y-125962713D01*
X204175500Y-125947992D01*
X204175500Y-125884110D01*
X204175500Y-125884108D01*
X204141392Y-125756814D01*
X204075500Y-125642686D01*
X203982314Y-125549500D01*
X203897087Y-125500294D01*
X203868187Y-125483608D01*
X203804539Y-125466554D01*
X203740892Y-125449500D01*
X203609108Y-125449500D01*
X203481812Y-125483608D01*
X203367686Y-125549500D01*
X203367683Y-125549502D01*
X203274502Y-125642683D01*
X203274500Y-125642686D01*
X203208608Y-125756812D01*
X203185634Y-125842555D01*
X203174500Y-125884108D01*
X200800500Y-125884108D01*
X200800500Y-125859108D01*
X200766392Y-125731814D01*
X200700500Y-125617686D01*
X200607314Y-125524500D01*
X200533827Y-125482072D01*
X200493187Y-125458608D01*
X200429539Y-125441554D01*
X200365892Y-125424500D01*
X200234108Y-125424500D01*
X200106812Y-125458608D01*
X199992686Y-125524500D01*
X199992683Y-125524502D01*
X199899502Y-125617683D01*
X199899500Y-125617686D01*
X199833608Y-125731812D01*
X199800526Y-125855278D01*
X199799500Y-125859108D01*
X198950500Y-125859108D01*
X198950500Y-125059108D01*
X209499500Y-125059108D01*
X209499500Y-125190892D01*
X209512984Y-125241216D01*
X209533608Y-125318187D01*
X209548651Y-125344242D01*
X209599500Y-125432314D01*
X209692686Y-125525500D01*
X209806814Y-125591392D01*
X209934108Y-125625500D01*
X209934110Y-125625500D01*
X210065890Y-125625500D01*
X210065892Y-125625500D01*
X210193186Y-125591392D01*
X210307314Y-125525500D01*
X210400500Y-125432314D01*
X210466392Y-125318186D01*
X210487016Y-125241216D01*
X216395210Y-125241216D01*
X216395210Y-125372999D01*
X216429318Y-125500295D01*
X216457727Y-125549500D01*
X216495210Y-125614422D01*
X216588396Y-125707608D01*
X216702524Y-125773500D01*
X216829818Y-125807608D01*
X216829820Y-125807608D01*
X216961600Y-125807608D01*
X216961602Y-125807608D01*
X217088896Y-125773500D01*
X217203024Y-125707608D01*
X217296210Y-125614422D01*
X217362102Y-125500294D01*
X217396210Y-125373000D01*
X217396210Y-125241216D01*
X217362102Y-125113922D01*
X217296210Y-124999794D01*
X217203024Y-124906608D01*
X217145960Y-124873662D01*
X217088897Y-124840716D01*
X217002935Y-124817683D01*
X216961602Y-124806608D01*
X216829818Y-124806608D01*
X216702522Y-124840716D01*
X216588396Y-124906608D01*
X216588393Y-124906610D01*
X216495212Y-124999791D01*
X216495210Y-124999794D01*
X216429318Y-125113920D01*
X216395210Y-125241216D01*
X210487016Y-125241216D01*
X210500500Y-125190892D01*
X210500500Y-125059108D01*
X210466392Y-124931814D01*
X210400500Y-124817686D01*
X210307314Y-124724500D01*
X210250250Y-124691554D01*
X210193187Y-124658608D01*
X210129539Y-124641554D01*
X210065892Y-124624500D01*
X209934108Y-124624500D01*
X209806812Y-124658608D01*
X209692686Y-124724500D01*
X209692683Y-124724502D01*
X209599502Y-124817683D01*
X209599500Y-124817686D01*
X209533608Y-124931812D01*
X209502620Y-125047464D01*
X209499500Y-125059108D01*
X198950500Y-125059108D01*
X198950500Y-123783676D01*
X198970185Y-123716637D01*
X198986819Y-123695995D01*
X199289706Y-123393108D01*
X205725500Y-123393108D01*
X205725500Y-123524891D01*
X205759608Y-123652187D01*
X205784901Y-123695995D01*
X205825500Y-123766314D01*
X205918686Y-123859500D01*
X206032814Y-123925392D01*
X206160108Y-123959500D01*
X206160110Y-123959500D01*
X206291890Y-123959500D01*
X206291892Y-123959500D01*
X206419186Y-123925392D01*
X206533314Y-123859500D01*
X206626500Y-123766314D01*
X206659528Y-123709108D01*
X215874500Y-123709108D01*
X215874500Y-123840891D01*
X215908608Y-123968187D01*
X215931199Y-124007315D01*
X215974500Y-124082314D01*
X216067686Y-124175500D01*
X216181814Y-124241392D01*
X216309108Y-124275500D01*
X216309110Y-124275500D01*
X216440890Y-124275500D01*
X216440892Y-124275500D01*
X216568186Y-124241392D01*
X216682314Y-124175500D01*
X216775500Y-124082314D01*
X216814332Y-124015055D01*
X216864896Y-123966842D01*
X216933503Y-123953618D01*
X216998368Y-123979586D01*
X217020091Y-124001568D01*
X217024499Y-124007312D01*
X217024500Y-124007314D01*
X217117686Y-124100500D01*
X217231814Y-124166392D01*
X217359108Y-124200500D01*
X217359110Y-124200500D01*
X217490890Y-124200500D01*
X217490892Y-124200500D01*
X217618186Y-124166392D01*
X217732314Y-124100500D01*
X217825500Y-124007314D01*
X217891392Y-123893186D01*
X217925500Y-123765892D01*
X217925500Y-123634108D01*
X217891392Y-123506814D01*
X217825500Y-123392686D01*
X217732314Y-123299500D01*
X217673965Y-123265812D01*
X217618187Y-123233608D01*
X217554539Y-123216554D01*
X217490892Y-123199500D01*
X217359108Y-123199500D01*
X217231812Y-123233608D01*
X217117686Y-123299500D01*
X217117683Y-123299502D01*
X217024502Y-123392683D01*
X217024500Y-123392686D01*
X216985669Y-123459943D01*
X216935101Y-123508158D01*
X216866494Y-123521380D01*
X216801630Y-123495412D01*
X216779907Y-123473430D01*
X216775502Y-123467689D01*
X216775500Y-123467686D01*
X216682314Y-123374500D01*
X216608380Y-123331814D01*
X216568187Y-123308608D01*
X216504539Y-123291554D01*
X216440892Y-123274500D01*
X216309108Y-123274500D01*
X216181812Y-123308608D01*
X216067686Y-123374500D01*
X216067683Y-123374502D01*
X215974502Y-123467683D01*
X215974500Y-123467686D01*
X215908608Y-123581812D01*
X215874500Y-123709108D01*
X206659528Y-123709108D01*
X206692392Y-123652186D01*
X206726500Y-123524892D01*
X206726500Y-123393108D01*
X206692392Y-123265814D01*
X206626500Y-123151686D01*
X206533314Y-123058500D01*
X206476250Y-123025554D01*
X206419187Y-122992608D01*
X206355539Y-122975554D01*
X206291892Y-122958500D01*
X206160108Y-122958500D01*
X206032812Y-122992608D01*
X205918686Y-123058500D01*
X205918683Y-123058502D01*
X205825502Y-123151683D01*
X205825500Y-123151686D01*
X205759608Y-123265812D01*
X205725500Y-123393108D01*
X199289706Y-123393108D01*
X200748706Y-121934108D01*
X212749500Y-121934108D01*
X212749500Y-122065891D01*
X212783608Y-122193187D01*
X212816554Y-122250250D01*
X212849500Y-122307314D01*
X212942686Y-122400500D01*
X213056814Y-122466392D01*
X213184108Y-122500500D01*
X213184110Y-122500500D01*
X213315890Y-122500500D01*
X213315892Y-122500500D01*
X213443186Y-122466392D01*
X213557314Y-122400500D01*
X213650500Y-122307314D01*
X213716392Y-122193186D01*
X213750500Y-122065892D01*
X213750500Y-121934108D01*
X213716392Y-121806814D01*
X213650500Y-121692686D01*
X213557314Y-121599500D01*
X213493732Y-121562791D01*
X213443187Y-121533608D01*
X213379539Y-121516554D01*
X213315892Y-121499500D01*
X213184108Y-121499500D01*
X213056812Y-121533608D01*
X212942686Y-121599500D01*
X212942683Y-121599502D01*
X212849502Y-121692683D01*
X212849500Y-121692686D01*
X212783608Y-121806812D01*
X212749500Y-121934108D01*
X200748706Y-121934108D01*
X202123706Y-120559108D01*
X214224500Y-120559108D01*
X214224500Y-120690892D01*
X214233610Y-120724891D01*
X214258608Y-120818187D01*
X214291554Y-120875250D01*
X214324500Y-120932314D01*
X214417686Y-121025500D01*
X214531814Y-121091392D01*
X214659108Y-121125500D01*
X214659110Y-121125500D01*
X214790890Y-121125500D01*
X214790892Y-121125500D01*
X214918186Y-121091392D01*
X215032314Y-121025500D01*
X215125500Y-120932314D01*
X215191392Y-120818186D01*
X215225500Y-120690892D01*
X215225500Y-120559108D01*
X215191392Y-120431814D01*
X215125500Y-120317686D01*
X215032314Y-120224500D01*
X214975250Y-120191554D01*
X214918187Y-120158608D01*
X214854539Y-120141554D01*
X214790892Y-120124500D01*
X214659108Y-120124500D01*
X214531812Y-120158608D01*
X214417686Y-120224500D01*
X214417683Y-120224502D01*
X214324502Y-120317683D01*
X214324500Y-120317686D01*
X214258608Y-120431812D01*
X214224500Y-120559108D01*
X202123706Y-120559108D01*
X202219514Y-120463300D01*
X203183908Y-119498906D01*
X204167568Y-118515246D01*
X204233460Y-118401118D01*
X204267568Y-118273824D01*
X204267568Y-118142039D01*
X204267568Y-117404793D01*
X207722461Y-117404793D01*
X207722461Y-117536577D01*
X207730049Y-117564896D01*
X207756569Y-117663872D01*
X207774238Y-117694475D01*
X207822461Y-117777999D01*
X207915647Y-117871185D01*
X208029775Y-117937077D01*
X208157069Y-117971185D01*
X208157071Y-117971185D01*
X208288851Y-117971185D01*
X208288853Y-117971185D01*
X208416147Y-117937077D01*
X208530275Y-117871185D01*
X208620880Y-117780579D01*
X208682199Y-117747097D01*
X208751891Y-117752081D01*
X208807825Y-117793952D01*
X208815611Y-117805757D01*
X208815780Y-117805977D01*
X208815782Y-117805980D01*
X208908968Y-117899166D01*
X209023096Y-117965058D01*
X209150390Y-117999166D01*
X209150392Y-117999166D01*
X209282172Y-117999166D01*
X209282174Y-117999166D01*
X209409468Y-117965058D01*
X209523596Y-117899166D01*
X209616782Y-117805980D01*
X209682674Y-117691852D01*
X209716782Y-117564558D01*
X209716782Y-117432774D01*
X209693024Y-117344108D01*
X213924500Y-117344108D01*
X213924500Y-117475892D01*
X213931311Y-117501310D01*
X213958608Y-117603187D01*
X213973269Y-117628580D01*
X214024500Y-117717314D01*
X214117686Y-117810500D01*
X214202049Y-117859207D01*
X214222793Y-117871184D01*
X214231814Y-117876392D01*
X214359108Y-117910500D01*
X214359110Y-117910500D01*
X214490890Y-117910500D01*
X214490892Y-117910500D01*
X214618186Y-117876392D01*
X214732314Y-117810500D01*
X214825500Y-117717314D01*
X214891392Y-117603186D01*
X214925500Y-117475892D01*
X214925500Y-117409108D01*
X217349500Y-117409108D01*
X217349500Y-117540891D01*
X217383608Y-117668187D01*
X217411972Y-117717314D01*
X217449500Y-117782314D01*
X217542686Y-117875500D01*
X217656814Y-117941392D01*
X217784108Y-117975500D01*
X217784110Y-117975500D01*
X217915890Y-117975500D01*
X217915892Y-117975500D01*
X218043186Y-117941392D01*
X218157314Y-117875500D01*
X218250500Y-117782314D01*
X218316392Y-117668186D01*
X218350500Y-117540892D01*
X218350500Y-117409108D01*
X218316392Y-117281814D01*
X218250500Y-117167686D01*
X218157314Y-117074500D01*
X218088720Y-117034897D01*
X218043187Y-117008608D01*
X217979539Y-116991554D01*
X217915892Y-116974500D01*
X217784108Y-116974500D01*
X217656812Y-117008608D01*
X217542686Y-117074500D01*
X217542683Y-117074502D01*
X217449502Y-117167683D01*
X217449500Y-117167686D01*
X217383608Y-117281812D01*
X217349500Y-117409108D01*
X214925500Y-117409108D01*
X214925500Y-117344108D01*
X214891392Y-117216814D01*
X214825500Y-117102686D01*
X214732314Y-117009500D01*
X214634930Y-116953275D01*
X214618187Y-116943608D01*
X214526966Y-116919166D01*
X214490892Y-116909500D01*
X214359108Y-116909500D01*
X214231812Y-116943608D01*
X214117686Y-117009500D01*
X214117683Y-117009502D01*
X214024502Y-117102683D01*
X214024500Y-117102686D01*
X213958608Y-117216812D01*
X213934850Y-117305480D01*
X213924500Y-117344108D01*
X209693024Y-117344108D01*
X209682674Y-117305480D01*
X209616782Y-117191352D01*
X209523596Y-117098166D01*
X209466532Y-117065220D01*
X209409469Y-117032274D01*
X209321144Y-117008608D01*
X209282174Y-116998166D01*
X209150390Y-116998166D01*
X209023094Y-117032274D01*
X208908968Y-117098166D01*
X208818365Y-117188769D01*
X208757041Y-117222253D01*
X208687350Y-117217269D01*
X208631417Y-117175397D01*
X208623631Y-117163593D01*
X208623463Y-117163374D01*
X208623461Y-117163371D01*
X208530275Y-117070185D01*
X208469151Y-117034895D01*
X208416148Y-117004293D01*
X208352500Y-116987239D01*
X208288853Y-116970185D01*
X208157069Y-116970185D01*
X208029773Y-117004293D01*
X207915647Y-117070185D01*
X207915644Y-117070187D01*
X207822463Y-117163368D01*
X207822461Y-117163371D01*
X207756569Y-117277497D01*
X207732884Y-117365892D01*
X207722461Y-117404793D01*
X204267568Y-117404793D01*
X204267568Y-116876176D01*
X204233460Y-116748882D01*
X204167568Y-116634754D01*
X204074382Y-116541568D01*
X203716922Y-116184108D01*
X205449500Y-116184108D01*
X205449500Y-116315891D01*
X205483608Y-116443187D01*
X205506251Y-116482405D01*
X205549500Y-116557314D01*
X205642686Y-116650500D01*
X205756814Y-116716392D01*
X205884108Y-116750500D01*
X205884110Y-116750500D01*
X206015890Y-116750500D01*
X206015892Y-116750500D01*
X206143186Y-116716392D01*
X206257314Y-116650500D01*
X206350500Y-116557314D01*
X206416392Y-116443186D01*
X206450500Y-116315892D01*
X206450500Y-116184108D01*
X206416392Y-116056814D01*
X206413771Y-116052275D01*
X206401708Y-116031380D01*
X206350500Y-115942686D01*
X206257314Y-115849500D01*
X206199968Y-115816391D01*
X206143187Y-115783608D01*
X206037508Y-115755292D01*
X206015892Y-115749500D01*
X205884108Y-115749500D01*
X205756812Y-115783608D01*
X205642686Y-115849500D01*
X205642683Y-115849502D01*
X205549502Y-115942683D01*
X205549500Y-115942686D01*
X205483608Y-116056812D01*
X205449500Y-116184108D01*
X203716922Y-116184108D01*
X203257314Y-115724500D01*
X203182675Y-115681407D01*
X203143187Y-115658608D01*
X203079539Y-115641554D01*
X203015892Y-115624500D01*
X203015891Y-115624500D01*
X200808676Y-115624500D01*
X200741637Y-115604815D01*
X200720995Y-115588181D01*
X200433596Y-115300782D01*
X207594212Y-115300782D01*
X207594212Y-115432565D01*
X207628320Y-115559861D01*
X207644671Y-115588181D01*
X207694212Y-115673988D01*
X207787398Y-115767174D01*
X207901526Y-115833066D01*
X208028820Y-115867174D01*
X208028822Y-115867174D01*
X208160602Y-115867174D01*
X208160604Y-115867174D01*
X208287898Y-115833066D01*
X208402026Y-115767174D01*
X208495212Y-115673988D01*
X208561104Y-115559860D01*
X208595212Y-115432566D01*
X208595212Y-115300782D01*
X208561104Y-115173488D01*
X208495212Y-115059360D01*
X208402026Y-114966174D01*
X208344962Y-114933228D01*
X208287899Y-114900282D01*
X208224251Y-114883228D01*
X208160604Y-114866174D01*
X208028820Y-114866174D01*
X207901524Y-114900282D01*
X207787398Y-114966174D01*
X207787395Y-114966176D01*
X207694214Y-115059357D01*
X207694212Y-115059360D01*
X207628320Y-115173486D01*
X207594212Y-115300782D01*
X200433596Y-115300782D01*
X199525325Y-114392511D01*
X199491840Y-114331188D01*
X199496824Y-114261496D01*
X199538696Y-114205563D01*
X199551002Y-114197445D01*
X199632314Y-114150500D01*
X199725500Y-114057314D01*
X199791392Y-113943186D01*
X199825500Y-113815892D01*
X199825500Y-113684108D01*
X199791392Y-113556814D01*
X199725500Y-113442686D01*
X199632314Y-113349500D01*
X199573222Y-113315383D01*
X199518187Y-113283608D01*
X199454539Y-113266554D01*
X199390892Y-113249500D01*
X199259108Y-113249500D01*
X199131814Y-113283608D01*
X199131813Y-113283608D01*
X199131811Y-113283609D01*
X199131810Y-113283609D01*
X199028695Y-113343143D01*
X198960795Y-113359616D01*
X198894768Y-113336763D01*
X198851577Y-113281842D01*
X198844936Y-113212289D01*
X198859307Y-113173757D01*
X198891392Y-113118186D01*
X198925500Y-112990892D01*
X198925500Y-112859108D01*
X198891392Y-112731814D01*
X198825500Y-112617686D01*
X198732314Y-112524500D01*
X198658380Y-112481814D01*
X198618187Y-112458608D01*
X198542466Y-112438319D01*
X198490892Y-112424500D01*
X198359108Y-112424500D01*
X198322116Y-112434411D01*
X198310115Y-112434124D01*
X198298871Y-112438319D01*
X198275835Y-112433307D01*
X198252266Y-112432746D01*
X198240619Y-112425647D01*
X198230598Y-112423467D01*
X198202344Y-112402316D01*
X198136238Y-112336210D01*
X198102753Y-112274887D01*
X198107737Y-112205195D01*
X198149609Y-112149262D01*
X198161920Y-112141142D01*
X198232314Y-112100500D01*
X198325500Y-112007314D01*
X198391392Y-111893186D01*
X198425500Y-111765892D01*
X198425500Y-111634108D01*
X198391392Y-111506814D01*
X198325500Y-111392686D01*
X198232314Y-111299500D01*
X198126088Y-111238170D01*
X198118187Y-111233608D01*
X198054539Y-111216554D01*
X197990892Y-111199500D01*
X197859108Y-111199500D01*
X197731812Y-111233608D01*
X197617686Y-111299500D01*
X197617683Y-111299502D01*
X197524502Y-111392683D01*
X197524500Y-111392686D01*
X197483857Y-111463081D01*
X197433289Y-111511296D01*
X197364682Y-111524518D01*
X197299817Y-111498550D01*
X197288789Y-111488761D01*
X191836819Y-106036791D01*
X191803334Y-105975468D01*
X191800500Y-105949110D01*
X191800500Y-104908676D01*
X191820185Y-104841637D01*
X191836819Y-104820995D01*
X191865131Y-104792683D01*
X191900500Y-104757314D01*
X191966392Y-104643186D01*
X192000500Y-104515892D01*
X192000500Y-104384108D01*
X191966392Y-104256814D01*
X191900500Y-104142686D01*
X191807314Y-104049500D01*
X191749193Y-104015944D01*
X191693187Y-103983608D01*
X191629539Y-103966554D01*
X191565892Y-103949500D01*
X191512902Y-103949500D01*
X191445863Y-103929815D01*
X191400108Y-103877011D01*
X191390164Y-103807853D01*
X191393127Y-103793407D01*
X191400500Y-103765892D01*
X191400500Y-103634108D01*
X191366392Y-103506814D01*
X191364264Y-103503129D01*
X191342024Y-103464608D01*
X191300500Y-103392686D01*
X191207314Y-103299500D01*
X191128939Y-103254250D01*
X191093187Y-103233608D01*
X191027061Y-103215890D01*
X190965892Y-103199500D01*
X190834108Y-103199500D01*
X190706812Y-103233608D01*
X190592686Y-103299500D01*
X190592683Y-103299502D01*
X190499502Y-103392683D01*
X190499500Y-103392686D01*
X190433608Y-103506812D01*
X190399500Y-103634108D01*
X190399500Y-103765891D01*
X190433608Y-103893187D01*
X190444938Y-103912810D01*
X190499500Y-104007314D01*
X190592686Y-104100500D01*
X190706814Y-104166392D01*
X190834108Y-104200500D01*
X190834110Y-104200500D01*
X190887098Y-104200500D01*
X190954137Y-104220185D01*
X190999892Y-104272989D01*
X191009836Y-104342147D01*
X191006873Y-104356593D01*
X190999500Y-104384108D01*
X190999500Y-104515891D01*
X191033608Y-104643187D01*
X191066121Y-104699500D01*
X191099500Y-104757314D01*
X191099502Y-104757316D01*
X191163181Y-104820995D01*
X191196666Y-104882318D01*
X191199500Y-104908676D01*
X191199500Y-106164505D01*
X191207024Y-106192584D01*
X191219979Y-106240933D01*
X191219982Y-106240938D01*
X191259535Y-106309447D01*
X191259541Y-106309455D01*
X197894974Y-112944888D01*
X197927067Y-113000474D01*
X197958608Y-113118186D01*
X198024500Y-113232314D01*
X198117686Y-113325500D01*
X198231814Y-113391392D01*
X198359108Y-113425500D01*
X198359110Y-113425500D01*
X198490890Y-113425500D01*
X198490892Y-113425500D01*
X198618186Y-113391392D01*
X198721306Y-113331855D01*
X198789203Y-113315383D01*
X198855230Y-113338235D01*
X198898421Y-113393156D01*
X198905063Y-113462709D01*
X198890691Y-113501243D01*
X198858609Y-113556810D01*
X198858609Y-113556811D01*
X198858609Y-113556812D01*
X198858608Y-113556814D01*
X198846155Y-113603290D01*
X198824500Y-113684108D01*
X198824500Y-113815891D01*
X198831873Y-113843407D01*
X198830210Y-113913256D01*
X198791048Y-113971119D01*
X198726819Y-113998623D01*
X198712098Y-113999500D01*
X198283676Y-113999500D01*
X198216637Y-113979815D01*
X198195995Y-113963181D01*
X197957316Y-113724502D01*
X197957314Y-113724500D01*
X197887353Y-113684108D01*
X197843187Y-113658608D01*
X197770063Y-113639015D01*
X197715892Y-113624500D01*
X197584108Y-113624500D01*
X197456812Y-113658608D01*
X197342686Y-113724500D01*
X197342683Y-113724502D01*
X197249502Y-113817683D01*
X197249500Y-113817686D01*
X197183608Y-113931812D01*
X197165472Y-113999500D01*
X197149500Y-114059108D01*
X197149500Y-114190892D01*
X197153431Y-114205563D01*
X197183608Y-114318187D01*
X197216554Y-114375250D01*
X197249500Y-114432314D01*
X197717686Y-114900500D01*
X197831814Y-114966392D01*
X197859087Y-114973699D01*
X197918747Y-115010064D01*
X197949276Y-115072910D01*
X197940982Y-115142286D01*
X197934386Y-115155464D01*
X197933610Y-115156806D01*
X197933609Y-115156811D01*
X197933608Y-115156813D01*
X197933608Y-115156814D01*
X197899500Y-115284108D01*
X197899500Y-115415892D01*
X197906442Y-115441800D01*
X197933608Y-115543187D01*
X197956200Y-115582316D01*
X197999500Y-115657314D01*
X198092686Y-115750500D01*
X198206814Y-115816392D01*
X198334108Y-115850500D01*
X198334110Y-115850500D01*
X198465890Y-115850500D01*
X198465892Y-115850500D01*
X198593186Y-115816392D01*
X198707314Y-115750500D01*
X198800500Y-115657314D01*
X198866392Y-115543186D01*
X198894062Y-115439915D01*
X198930425Y-115380259D01*
X198993272Y-115349729D01*
X199062648Y-115358023D01*
X199101517Y-115384331D01*
X199754504Y-116037318D01*
X199787989Y-116098641D01*
X199783005Y-116168333D01*
X199754504Y-116212680D01*
X199100245Y-116866940D01*
X199100244Y-116866940D01*
X199100245Y-116866941D01*
X199024500Y-116942686D01*
X198958608Y-117056812D01*
X198930372Y-117162193D01*
X198924500Y-117184108D01*
X198924500Y-117365892D01*
X198925085Y-117368075D01*
X198958608Y-117493187D01*
X198986151Y-117540892D01*
X199024500Y-117607314D01*
X199117686Y-117700500D01*
X199231814Y-117766392D01*
X199359108Y-117800500D01*
X199359110Y-117800500D01*
X199490890Y-117800500D01*
X199490892Y-117800500D01*
X199618186Y-117766392D01*
X199732314Y-117700500D01*
X199825500Y-117607314D01*
X199885641Y-117503145D01*
X199905342Y-117477470D01*
X200720994Y-116661819D01*
X200782317Y-116628334D01*
X200808675Y-116625500D01*
X202635300Y-116625500D01*
X202702339Y-116645185D01*
X202748094Y-116697989D01*
X202758038Y-116767147D01*
X202729013Y-116830703D01*
X202697301Y-116856887D01*
X202609424Y-116907623D01*
X202609421Y-116907625D01*
X202516240Y-117000806D01*
X202516238Y-117000809D01*
X202450346Y-117114935D01*
X202416238Y-117242231D01*
X202416238Y-117374014D01*
X202450346Y-117501310D01*
X202461419Y-117520488D01*
X202516238Y-117615437D01*
X202609424Y-117708623D01*
X202708259Y-117765686D01*
X202723295Y-117774367D01*
X202723552Y-117774515D01*
X202850846Y-117808623D01*
X202850848Y-117808623D01*
X202982628Y-117808623D01*
X202982630Y-117808623D01*
X203109924Y-117774515D01*
X203109925Y-117774514D01*
X203110475Y-117774367D01*
X203135469Y-117774962D01*
X203160215Y-117771404D01*
X203169795Y-117775779D01*
X203180325Y-117776030D01*
X203201028Y-117790042D01*
X203223771Y-117800429D01*
X203229465Y-117809290D01*
X203238187Y-117815193D01*
X203248028Y-117838173D01*
X203261545Y-117859207D01*
X203263824Y-117875062D01*
X203265691Y-117879421D01*
X203266568Y-117894142D01*
X203266568Y-117949256D01*
X203246883Y-118016295D01*
X203230249Y-118036937D01*
X198049502Y-123217683D01*
X198049500Y-123217686D01*
X197983608Y-123331812D01*
X197949500Y-123459108D01*
X197949500Y-126778800D01*
X197929815Y-126845839D01*
X197913181Y-126866481D01*
X197416481Y-127363181D01*
X197355158Y-127396666D01*
X197328800Y-127399500D01*
X196959108Y-127399500D01*
X196831812Y-127433608D01*
X196717686Y-127499500D01*
X196717683Y-127499502D01*
X196624502Y-127592683D01*
X196624500Y-127592686D01*
X196558608Y-127706812D01*
X196532533Y-127804127D01*
X196524500Y-127834108D01*
X196524500Y-127965892D01*
X196537897Y-128015890D01*
X196558608Y-128093187D01*
X196584904Y-128138732D01*
X196624500Y-128207314D01*
X196717686Y-128300500D01*
X196831814Y-128366392D01*
X196959108Y-128400500D01*
X196959110Y-128400500D01*
X197653366Y-128400500D01*
X197653368Y-128400500D01*
X197780662Y-128366392D01*
X197780663Y-128366391D01*
X197788513Y-128364288D01*
X197789049Y-128366291D01*
X197847520Y-128360007D01*
X197909998Y-128391283D01*
X197945649Y-128451373D01*
X197949500Y-128482036D01*
X197949500Y-133100500D01*
X197929815Y-133167539D01*
X197877011Y-133213294D01*
X197825500Y-133224500D01*
X197508676Y-133224500D01*
X197441637Y-133204815D01*
X197420995Y-133188181D01*
X195857316Y-131624502D01*
X195857314Y-131624500D01*
X195776637Y-131577921D01*
X195743187Y-131558608D01*
X195672855Y-131539763D01*
X195615892Y-131524500D01*
X195484108Y-131524500D01*
X195356812Y-131558608D01*
X195242686Y-131624500D01*
X195242683Y-131624502D01*
X195149502Y-131717683D01*
X195149500Y-131717686D01*
X195083608Y-131831812D01*
X195054549Y-131940263D01*
X195049500Y-131959108D01*
X195049500Y-132090892D01*
X195057502Y-132120755D01*
X195083608Y-132218187D01*
X195104647Y-132254627D01*
X195149500Y-132332314D01*
X196942686Y-134125500D01*
X197056814Y-134191392D01*
X197184108Y-134225500D01*
X197315892Y-134225500D01*
X197417324Y-134225500D01*
X197484363Y-134245185D01*
X197530118Y-134297989D01*
X197540062Y-134367147D01*
X197511037Y-134430703D01*
X197505005Y-134437181D01*
X191328154Y-140614030D01*
X191266831Y-140647515D01*
X191234019Y-140648884D01*
X191234019Y-140649500D01*
X175108675Y-140649500D01*
X175041636Y-140629815D01*
X175020994Y-140613181D01*
X173111476Y-138703662D01*
X173031922Y-138624108D01*
X176059500Y-138624108D01*
X176059500Y-138755892D01*
X176076554Y-138819539D01*
X176093608Y-138883187D01*
X176110929Y-138913187D01*
X176159500Y-138997314D01*
X176252686Y-139090500D01*
X176366814Y-139156392D01*
X176494108Y-139190500D01*
X176494110Y-139190500D01*
X176625890Y-139190500D01*
X176625892Y-139190500D01*
X176753186Y-139156392D01*
X176867314Y-139090500D01*
X176960500Y-138997314D01*
X177026392Y-138883186D01*
X177060500Y-138755892D01*
X177060500Y-138654108D01*
X180659500Y-138654108D01*
X180659500Y-138785891D01*
X180693608Y-138913187D01*
X180726554Y-138970250D01*
X180759500Y-139027314D01*
X180852686Y-139120500D01*
X180966814Y-139186392D01*
X181094108Y-139220500D01*
X181094110Y-139220500D01*
X181225890Y-139220500D01*
X181225892Y-139220500D01*
X181353186Y-139186392D01*
X181467314Y-139120500D01*
X181560500Y-139027314D01*
X181626392Y-138913186D01*
X181660500Y-138785892D01*
X181660500Y-138654108D01*
X181626392Y-138526814D01*
X181560500Y-138412686D01*
X181467314Y-138319500D01*
X181378436Y-138268186D01*
X181353187Y-138253608D01*
X181241223Y-138223608D01*
X181225892Y-138219500D01*
X181094108Y-138219500D01*
X180966812Y-138253608D01*
X180852686Y-138319500D01*
X180852683Y-138319502D01*
X180759502Y-138412683D01*
X180759500Y-138412686D01*
X180693608Y-138526812D01*
X180659500Y-138654108D01*
X177060500Y-138654108D01*
X177060500Y-138624108D01*
X177026392Y-138496814D01*
X176960500Y-138382686D01*
X176867314Y-138289500D01*
X176785364Y-138242186D01*
X176753187Y-138223608D01*
X176689539Y-138206554D01*
X176625892Y-138189500D01*
X176494108Y-138189500D01*
X176366812Y-138223608D01*
X176252686Y-138289500D01*
X176252683Y-138289502D01*
X176159502Y-138382683D01*
X176159500Y-138382686D01*
X176093608Y-138496812D01*
X176072524Y-138575500D01*
X176059500Y-138624108D01*
X173031922Y-138624108D01*
X172291922Y-137884108D01*
X190549500Y-137884108D01*
X190549500Y-138015891D01*
X190583608Y-138143187D01*
X190610347Y-138189500D01*
X190649500Y-138257314D01*
X190742686Y-138350500D01*
X190856814Y-138416392D01*
X190984108Y-138450500D01*
X190984110Y-138450500D01*
X191115890Y-138450500D01*
X191115892Y-138450500D01*
X191243186Y-138416392D01*
X191357314Y-138350500D01*
X191450500Y-138257314D01*
X191516392Y-138143186D01*
X191550500Y-138015892D01*
X191550500Y-137884108D01*
X191516392Y-137756814D01*
X191450500Y-137642686D01*
X191357314Y-137549500D01*
X191300250Y-137516554D01*
X191243187Y-137483608D01*
X191179539Y-137466554D01*
X191115892Y-137449500D01*
X190984108Y-137449500D01*
X190856812Y-137483608D01*
X190742686Y-137549500D01*
X190742683Y-137549502D01*
X190649502Y-137642683D01*
X190649500Y-137642686D01*
X190583608Y-137756812D01*
X190549500Y-137884108D01*
X172291922Y-137884108D01*
X172285819Y-137878005D01*
X172252334Y-137816682D01*
X172249500Y-137790324D01*
X172249500Y-136479250D01*
X172253725Y-136447157D01*
X172258012Y-136431157D01*
X172275500Y-136365892D01*
X172275500Y-136234108D01*
X172263336Y-136188711D01*
X172698049Y-136188711D01*
X172698049Y-136320495D01*
X172715103Y-136384142D01*
X172732157Y-136447790D01*
X172764673Y-136504108D01*
X172798049Y-136561917D01*
X172891235Y-136655103D01*
X173005363Y-136720995D01*
X173132657Y-136755103D01*
X173132659Y-136755103D01*
X173264439Y-136755103D01*
X173264441Y-136755103D01*
X173391735Y-136720995D01*
X173505863Y-136655103D01*
X173599049Y-136561917D01*
X173632425Y-136504108D01*
X176689500Y-136504108D01*
X176689500Y-136635892D01*
X176694647Y-136655100D01*
X176723608Y-136763187D01*
X176754302Y-136816349D01*
X176789500Y-136877314D01*
X176882686Y-136970500D01*
X176996814Y-137036392D01*
X177124108Y-137070500D01*
X177124110Y-137070500D01*
X177255890Y-137070500D01*
X177255892Y-137070500D01*
X177383186Y-137036392D01*
X177497314Y-136970500D01*
X177590500Y-136877314D01*
X177656392Y-136763186D01*
X177690500Y-136635892D01*
X177690500Y-136504108D01*
X177676921Y-136453429D01*
X180771650Y-136453429D01*
X180771650Y-136585213D01*
X180785920Y-136638470D01*
X180805758Y-136712508D01*
X180832879Y-136759482D01*
X180871650Y-136826635D01*
X180964836Y-136919821D01*
X181078964Y-136985713D01*
X181206258Y-137019821D01*
X181206260Y-137019821D01*
X181338040Y-137019821D01*
X181338042Y-137019821D01*
X181465336Y-136985713D01*
X181579464Y-136919821D01*
X181672650Y-136826635D01*
X181738542Y-136712507D01*
X181772650Y-136585213D01*
X181772650Y-136453429D01*
X181738542Y-136326135D01*
X181734357Y-136318887D01*
X181685995Y-136235121D01*
X181685994Y-136235120D01*
X181685561Y-136234370D01*
X181672650Y-136212007D01*
X181641889Y-136181246D01*
X184693082Y-136181246D01*
X184693082Y-136313030D01*
X184705429Y-136359110D01*
X184727190Y-136440325D01*
X184760136Y-136497388D01*
X184793082Y-136554452D01*
X184886268Y-136647638D01*
X185000396Y-136713530D01*
X185127690Y-136747638D01*
X185127692Y-136747638D01*
X185259472Y-136747638D01*
X185259474Y-136747638D01*
X185386768Y-136713530D01*
X185500896Y-136647638D01*
X185594082Y-136554452D01*
X185594087Y-136554441D01*
X185594424Y-136554005D01*
X185594813Y-136553720D01*
X185599829Y-136548705D01*
X185600611Y-136549487D01*
X185650851Y-136512801D01*
X185720597Y-136508644D01*
X185781518Y-136542855D01*
X185794453Y-136559922D01*
X185794552Y-136559847D01*
X185799498Y-136566293D01*
X185799500Y-136566296D01*
X185892686Y-136659482D01*
X185986298Y-136713529D01*
X186002989Y-136723166D01*
X186006814Y-136725374D01*
X186134108Y-136759482D01*
X186134110Y-136759482D01*
X186265890Y-136759482D01*
X186265892Y-136759482D01*
X186393186Y-136725374D01*
X186507314Y-136659482D01*
X186600500Y-136566296D01*
X186600504Y-136566288D01*
X186605448Y-136559847D01*
X186606863Y-136560933D01*
X186650154Y-136519647D01*
X186718760Y-136506417D01*
X186783627Y-136532379D01*
X186794666Y-136542176D01*
X186797774Y-136545284D01*
X186797775Y-136545285D01*
X186890961Y-136638471D01*
X187005089Y-136704363D01*
X187132383Y-136738471D01*
X187132385Y-136738471D01*
X187264165Y-136738471D01*
X187264167Y-136738471D01*
X187391461Y-136704363D01*
X187505589Y-136638471D01*
X187598775Y-136545285D01*
X187664667Y-136431157D01*
X187698775Y-136303863D01*
X187698775Y-136172079D01*
X187680155Y-136102587D01*
X188552994Y-136102587D01*
X188552994Y-136234370D01*
X188587102Y-136361666D01*
X188589542Y-136365892D01*
X188652994Y-136475793D01*
X188746180Y-136568979D01*
X188860308Y-136634871D01*
X188987602Y-136668979D01*
X188987604Y-136668979D01*
X189119384Y-136668979D01*
X189119386Y-136668979D01*
X189246680Y-136634871D01*
X189360808Y-136568979D01*
X189453994Y-136475793D01*
X189519886Y-136361665D01*
X189520571Y-136359108D01*
X191224500Y-136359108D01*
X191224500Y-136490892D01*
X191232205Y-136519647D01*
X191258608Y-136618187D01*
X191282450Y-136659481D01*
X191324500Y-136732314D01*
X191417686Y-136825500D01*
X191531814Y-136891392D01*
X191659108Y-136925500D01*
X191659110Y-136925500D01*
X191790890Y-136925500D01*
X191790892Y-136925500D01*
X191918186Y-136891392D01*
X192032314Y-136825500D01*
X192125500Y-136732314D01*
X192191392Y-136618186D01*
X192225500Y-136490892D01*
X192225500Y-136359108D01*
X192191392Y-136231814D01*
X192125500Y-136117686D01*
X192032314Y-136024500D01*
X191950591Y-135977317D01*
X191918187Y-135958608D01*
X191848071Y-135939821D01*
X191790892Y-135924500D01*
X191659108Y-135924500D01*
X191531812Y-135958608D01*
X191417686Y-136024500D01*
X191417683Y-136024502D01*
X191324502Y-136117683D01*
X191324500Y-136117686D01*
X191258608Y-136231812D01*
X191233335Y-136326135D01*
X191224500Y-136359108D01*
X189520571Y-136359108D01*
X189553994Y-136234371D01*
X189553994Y-136102587D01*
X189519886Y-135975293D01*
X189453994Y-135861165D01*
X189360808Y-135767979D01*
X189273868Y-135717784D01*
X189246681Y-135702087D01*
X189183033Y-135685033D01*
X189119386Y-135667979D01*
X188987602Y-135667979D01*
X188860306Y-135702087D01*
X188746180Y-135767979D01*
X188746177Y-135767981D01*
X188652996Y-135861162D01*
X188652994Y-135861165D01*
X188587102Y-135975291D01*
X188552994Y-136102587D01*
X187680155Y-136102587D01*
X187664667Y-136044785D01*
X187598775Y-135930657D01*
X187505589Y-135837471D01*
X187427853Y-135792590D01*
X187391462Y-135771579D01*
X187298379Y-135746638D01*
X187264167Y-135737471D01*
X187132383Y-135737471D01*
X187005087Y-135771579D01*
X186890961Y-135837471D01*
X186890958Y-135837473D01*
X186797777Y-135930654D01*
X186792827Y-135937106D01*
X186791415Y-135936022D01*
X186748096Y-135977317D01*
X186679488Y-135990532D01*
X186614626Y-135964557D01*
X186603608Y-135954776D01*
X186507316Y-135858484D01*
X186507314Y-135858482D01*
X186450250Y-135825536D01*
X186393187Y-135792590D01*
X186301343Y-135767981D01*
X186265892Y-135758482D01*
X186134108Y-135758482D01*
X186006812Y-135792590D01*
X185892686Y-135858482D01*
X185892683Y-135858484D01*
X185799494Y-135951673D01*
X185799144Y-135952130D01*
X185798751Y-135952416D01*
X185793753Y-135957415D01*
X185792972Y-135956634D01*
X185742711Y-135993325D01*
X185672964Y-135997470D01*
X185612049Y-135963249D01*
X185599127Y-135946197D01*
X185599030Y-135946273D01*
X185594084Y-135939827D01*
X185594082Y-135939824D01*
X185500896Y-135846638D01*
X185443832Y-135813692D01*
X185386769Y-135780746D01*
X185303677Y-135758482D01*
X185259474Y-135746638D01*
X185127690Y-135746638D01*
X185000394Y-135780746D01*
X184886268Y-135846638D01*
X184886265Y-135846640D01*
X184793084Y-135939821D01*
X184793082Y-135939824D01*
X184727190Y-136053950D01*
X184709808Y-136118823D01*
X184693082Y-136181246D01*
X181641889Y-136181246D01*
X181579464Y-136118821D01*
X181494038Y-136069500D01*
X181465337Y-136052929D01*
X181401689Y-136035875D01*
X181338042Y-136018821D01*
X181206258Y-136018821D01*
X181078962Y-136052929D01*
X180964836Y-136118821D01*
X180964833Y-136118823D01*
X180871652Y-136212004D01*
X180871650Y-136212007D01*
X180805758Y-136326133D01*
X180777618Y-136431157D01*
X180771650Y-136453429D01*
X177676921Y-136453429D01*
X177656392Y-136376814D01*
X177590500Y-136262686D01*
X177497314Y-136169500D01*
X177422928Y-136126553D01*
X177383187Y-136103608D01*
X177319539Y-136086554D01*
X177255892Y-136069500D01*
X177124108Y-136069500D01*
X176996812Y-136103608D01*
X176882686Y-136169500D01*
X176882683Y-136169502D01*
X176789502Y-136262683D01*
X176789500Y-136262686D01*
X176723608Y-136376812D01*
X176697087Y-136475792D01*
X176689500Y-136504108D01*
X173632425Y-136504108D01*
X173664941Y-136447789D01*
X173699049Y-136320495D01*
X173699049Y-136230435D01*
X173718734Y-136163396D01*
X173735368Y-136142754D01*
X174210143Y-135667979D01*
X175706172Y-134171949D01*
X175767493Y-134138466D01*
X175837185Y-134143450D01*
X175893118Y-134185322D01*
X175913625Y-134227537D01*
X175924619Y-134268566D01*
X175924619Y-134268567D01*
X175928622Y-134275500D01*
X175990512Y-134382696D01*
X176083698Y-134475882D01*
X176197826Y-134541774D01*
X176325120Y-134575882D01*
X176325122Y-134575882D01*
X176456902Y-134575882D01*
X176456904Y-134575882D01*
X176584198Y-134541774D01*
X176698326Y-134475882D01*
X176791512Y-134382696D01*
X176857404Y-134268568D01*
X176891512Y-134141274D01*
X176891512Y-134009490D01*
X176857404Y-133882196D01*
X176791512Y-133768068D01*
X176698326Y-133674882D01*
X176629404Y-133635090D01*
X190954200Y-133635090D01*
X190954200Y-133766874D01*
X190965517Y-133809110D01*
X190988308Y-133894169D01*
X191015283Y-133940890D01*
X191054200Y-134008296D01*
X191147386Y-134101482D01*
X191216306Y-134141273D01*
X191258245Y-134165487D01*
X191261514Y-134167374D01*
X191388808Y-134201482D01*
X191388810Y-134201482D01*
X191520590Y-134201482D01*
X191520592Y-134201482D01*
X191647886Y-134167374D01*
X191762014Y-134101482D01*
X191855200Y-134008296D01*
X191921092Y-133894168D01*
X191955200Y-133766874D01*
X191955200Y-133635090D01*
X191921092Y-133507796D01*
X191855200Y-133393668D01*
X191762014Y-133300482D01*
X191702103Y-133265892D01*
X191647888Y-133234590D01*
X191536763Y-133204815D01*
X191520592Y-133200482D01*
X191388808Y-133200482D01*
X191261512Y-133234590D01*
X191147386Y-133300482D01*
X191147383Y-133300484D01*
X191054202Y-133393665D01*
X191054200Y-133393668D01*
X190988308Y-133507794D01*
X190963468Y-133600500D01*
X190954200Y-133635090D01*
X176629404Y-133635090D01*
X176584197Y-133608989D01*
X176543167Y-133597995D01*
X176483507Y-133561630D01*
X176452979Y-133498782D01*
X176461274Y-133429407D01*
X176487578Y-133390543D01*
X176744014Y-133134108D01*
X193274500Y-133134108D01*
X193274500Y-133265891D01*
X193308608Y-133393187D01*
X193318115Y-133409653D01*
X193374500Y-133507314D01*
X193467686Y-133600500D01*
X193581814Y-133666392D01*
X193709108Y-133700500D01*
X193709110Y-133700500D01*
X193840890Y-133700500D01*
X193840892Y-133700500D01*
X193968186Y-133666392D01*
X194082314Y-133600500D01*
X194175500Y-133507314D01*
X194241392Y-133393186D01*
X194275500Y-133265892D01*
X194275500Y-133134108D01*
X194241392Y-133006814D01*
X194175500Y-132892686D01*
X194082314Y-132799500D01*
X194025250Y-132766554D01*
X193968187Y-132733608D01*
X193904539Y-132716554D01*
X193840892Y-132699500D01*
X193709108Y-132699500D01*
X193581812Y-132733608D01*
X193467686Y-132799500D01*
X193467683Y-132799502D01*
X193374502Y-132892683D01*
X193374500Y-132892686D01*
X193308608Y-133006812D01*
X193274500Y-133134108D01*
X176744014Y-133134108D01*
X176997828Y-132880295D01*
X177059151Y-132846810D01*
X177085509Y-132843976D01*
X179876978Y-132843976D01*
X179876980Y-132843976D01*
X179953407Y-132823497D01*
X180021929Y-132783936D01*
X180077878Y-132727987D01*
X180865602Y-131940263D01*
X187037268Y-131940263D01*
X187037268Y-132072047D01*
X187043565Y-132095548D01*
X187071376Y-132199342D01*
X187096569Y-132242976D01*
X187137268Y-132313469D01*
X187230454Y-132406655D01*
X187344582Y-132472547D01*
X187471876Y-132506655D01*
X187471878Y-132506655D01*
X187603658Y-132506655D01*
X187603660Y-132506655D01*
X187730954Y-132472547D01*
X187845082Y-132406655D01*
X187938268Y-132313469D01*
X188004160Y-132199341D01*
X188038268Y-132072047D01*
X188038268Y-131940263D01*
X188004160Y-131812969D01*
X187938268Y-131698841D01*
X187845082Y-131605655D01*
X187788018Y-131572709D01*
X187730955Y-131539763D01*
X187667307Y-131522709D01*
X187603660Y-131505655D01*
X187471876Y-131505655D01*
X187344580Y-131539763D01*
X187230454Y-131605655D01*
X187230451Y-131605657D01*
X187137270Y-131698838D01*
X187137268Y-131698841D01*
X187071376Y-131812967D01*
X187040175Y-131929415D01*
X187037268Y-131940263D01*
X180865602Y-131940263D01*
X182291121Y-130514744D01*
X196161869Y-130514744D01*
X196161869Y-130646527D01*
X196195977Y-130773823D01*
X196214800Y-130806425D01*
X196261869Y-130887950D01*
X196355055Y-130981136D01*
X196469183Y-131047028D01*
X196596477Y-131081136D01*
X196596479Y-131081136D01*
X196728259Y-131081136D01*
X196728261Y-131081136D01*
X196855555Y-131047028D01*
X196969683Y-130981136D01*
X197062869Y-130887950D01*
X197128761Y-130773822D01*
X197162869Y-130646528D01*
X197162869Y-130514744D01*
X197128761Y-130387450D01*
X197062869Y-130273322D01*
X196969683Y-130180136D01*
X196912619Y-130147190D01*
X196855556Y-130114244D01*
X196791908Y-130097190D01*
X196728261Y-130080136D01*
X196596477Y-130080136D01*
X196469181Y-130114244D01*
X196355055Y-130180136D01*
X196355052Y-130180138D01*
X196261871Y-130273319D01*
X196261869Y-130273322D01*
X196195977Y-130387448D01*
X196161869Y-130514744D01*
X182291121Y-130514744D01*
X183456365Y-129349500D01*
X185415049Y-127390815D01*
X188634519Y-127390815D01*
X188634519Y-127522599D01*
X188641727Y-127549500D01*
X188668627Y-127649894D01*
X188688381Y-127684108D01*
X188734519Y-127764021D01*
X188827705Y-127857207D01*
X188941833Y-127923099D01*
X189069127Y-127957207D01*
X189069129Y-127957207D01*
X189200909Y-127957207D01*
X189200911Y-127957207D01*
X189328205Y-127923099D01*
X189395739Y-127884108D01*
X193499500Y-127884108D01*
X193499500Y-128015892D01*
X193516554Y-128079539D01*
X193533608Y-128143187D01*
X193544082Y-128161328D01*
X193599500Y-128257314D01*
X193692686Y-128350500D01*
X193806814Y-128416392D01*
X193934108Y-128450500D01*
X193934110Y-128450500D01*
X194065890Y-128450500D01*
X194065892Y-128450500D01*
X194193186Y-128416392D01*
X194307314Y-128350500D01*
X194400500Y-128257314D01*
X194466392Y-128143186D01*
X194500500Y-128015892D01*
X194500500Y-127884108D01*
X194466392Y-127756814D01*
X194400500Y-127642686D01*
X194307314Y-127549500D01*
X194250250Y-127516554D01*
X194193187Y-127483608D01*
X194129539Y-127466554D01*
X194065892Y-127449500D01*
X193934108Y-127449500D01*
X193806812Y-127483608D01*
X193692686Y-127549500D01*
X193692683Y-127549502D01*
X193599502Y-127642683D01*
X193599500Y-127642686D01*
X193533608Y-127756812D01*
X193507563Y-127854015D01*
X193499500Y-127884108D01*
X189395739Y-127884108D01*
X189442333Y-127857207D01*
X189535519Y-127764021D01*
X189601411Y-127649893D01*
X189635519Y-127522599D01*
X189635519Y-127390815D01*
X189601411Y-127263521D01*
X189535519Y-127149393D01*
X189442333Y-127056207D01*
X189385269Y-127023261D01*
X189328206Y-126990315D01*
X189264558Y-126973261D01*
X189200911Y-126956207D01*
X189069127Y-126956207D01*
X188941831Y-126990315D01*
X188827705Y-127056207D01*
X188827702Y-127056209D01*
X188734521Y-127149390D01*
X188734519Y-127149393D01*
X188668627Y-127263519D01*
X188648741Y-127337737D01*
X188634519Y-127390815D01*
X185415049Y-127390815D01*
X185510857Y-127295007D01*
X186733806Y-126072058D01*
X186795129Y-126038573D01*
X186821487Y-126035739D01*
X186911545Y-126035739D01*
X186911547Y-126035739D01*
X187038841Y-126001631D01*
X187152969Y-125935739D01*
X187246155Y-125842553D01*
X187312047Y-125728425D01*
X187346155Y-125601131D01*
X187346155Y-125469347D01*
X187312047Y-125342053D01*
X187246155Y-125227925D01*
X187152969Y-125134739D01*
X187095905Y-125101793D01*
X187038842Y-125068847D01*
X186959038Y-125047464D01*
X186911547Y-125034739D01*
X186779763Y-125034739D01*
X186652467Y-125068847D01*
X186538341Y-125134739D01*
X186538338Y-125134741D01*
X186445157Y-125227922D01*
X186445155Y-125227925D01*
X186413470Y-125282805D01*
X186362902Y-125331020D01*
X186294295Y-125344242D01*
X186229431Y-125318274D01*
X186198696Y-125282805D01*
X186174358Y-125240650D01*
X186081172Y-125147464D01*
X186023072Y-125113920D01*
X185967045Y-125081572D01*
X185883206Y-125059108D01*
X185839750Y-125047464D01*
X185707966Y-125047464D01*
X185580670Y-125081572D01*
X185466544Y-125147464D01*
X185466541Y-125147466D01*
X185373360Y-125240647D01*
X185373358Y-125240650D01*
X185307466Y-125354776D01*
X185279645Y-125458608D01*
X185273358Y-125482072D01*
X185273358Y-125613856D01*
X185274384Y-125617686D01*
X185307466Y-125741151D01*
X185326143Y-125773499D01*
X185373358Y-125855278D01*
X185466544Y-125948464D01*
X185580672Y-126014356D01*
X185657845Y-126035034D01*
X185717504Y-126071397D01*
X185748034Y-126134244D01*
X185739740Y-126203620D01*
X185713432Y-126242489D01*
X179749266Y-132206657D01*
X179687943Y-132240142D01*
X179661585Y-132242976D01*
X176870114Y-132242976D01*
X176831900Y-132253215D01*
X176793685Y-132263455D01*
X176766933Y-132278901D01*
X176753557Y-132286624D01*
X176749901Y-132288735D01*
X176725165Y-132303015D01*
X175062888Y-133965292D01*
X175001565Y-133998777D01*
X174931873Y-133993793D01*
X174875940Y-133951921D01*
X174867820Y-133939611D01*
X174850813Y-133910154D01*
X174808245Y-133836424D01*
X174715059Y-133743238D01*
X174639757Y-133699762D01*
X174600932Y-133677346D01*
X174532865Y-133659108D01*
X174473637Y-133643238D01*
X174341853Y-133643238D01*
X174214557Y-133677346D01*
X174100431Y-133743238D01*
X174100428Y-133743240D01*
X174011019Y-133832650D01*
X173949696Y-133866135D01*
X173880004Y-133861151D01*
X173824071Y-133819279D01*
X173799654Y-133753815D01*
X173799338Y-133744969D01*
X173799338Y-133651077D01*
X173799338Y-133651075D01*
X173765230Y-133523781D01*
X173699338Y-133409653D01*
X173606152Y-133316467D01*
X173518554Y-133265892D01*
X173492025Y-133250575D01*
X173427825Y-133233373D01*
X173364730Y-133216467D01*
X173232946Y-133216467D01*
X173105650Y-133250575D01*
X172991524Y-133316467D01*
X172991521Y-133316469D01*
X172898340Y-133409650D01*
X172898338Y-133409653D01*
X172832446Y-133523779D01*
X172798338Y-133651075D01*
X172798338Y-133782858D01*
X172832446Y-133910154D01*
X172850193Y-133940892D01*
X172898338Y-134024281D01*
X172991524Y-134117467D01*
X173105652Y-134183359D01*
X173232946Y-134217467D01*
X173232948Y-134217467D01*
X173364728Y-134217467D01*
X173364730Y-134217467D01*
X173492024Y-134183359D01*
X173606152Y-134117467D01*
X173695564Y-134028055D01*
X173756887Y-133994570D01*
X173826579Y-133999554D01*
X173882512Y-134041426D01*
X173906929Y-134106890D01*
X173907245Y-134115736D01*
X173907245Y-134209630D01*
X173923037Y-134268566D01*
X173941353Y-134336925D01*
X173967781Y-134382698D01*
X174007245Y-134451052D01*
X174100431Y-134544238D01*
X174180490Y-134590460D01*
X174203618Y-134603813D01*
X174251834Y-134654380D01*
X174265057Y-134722987D01*
X174239089Y-134787852D01*
X174229299Y-134798881D01*
X173310396Y-135717784D01*
X173249073Y-135751269D01*
X173222715Y-135754103D01*
X173132657Y-135754103D01*
X173005361Y-135788211D01*
X172891235Y-135854103D01*
X172891232Y-135854105D01*
X172798051Y-135947286D01*
X172798049Y-135947289D01*
X172732157Y-136061415D01*
X172703196Y-136169502D01*
X172698049Y-136188711D01*
X172263336Y-136188711D01*
X172253725Y-136152840D01*
X172249500Y-136120748D01*
X172249500Y-131929415D01*
X172692389Y-131929415D01*
X172692389Y-132061199D01*
X172695296Y-132072047D01*
X172726497Y-132188494D01*
X172736984Y-132206657D01*
X172792389Y-132302621D01*
X172885575Y-132395807D01*
X172999703Y-132461699D01*
X173126997Y-132495807D01*
X173126999Y-132495807D01*
X173258779Y-132495807D01*
X173258781Y-132495807D01*
X173386075Y-132461699D01*
X173500203Y-132395807D01*
X173593389Y-132302621D01*
X173659281Y-132188493D01*
X173693389Y-132061199D01*
X173693389Y-131929415D01*
X173659281Y-131802121D01*
X173593389Y-131687993D01*
X173500203Y-131594807D01*
X173437505Y-131558608D01*
X173386076Y-131528915D01*
X173322428Y-131511861D01*
X173258781Y-131494807D01*
X173126997Y-131494807D01*
X172999701Y-131528915D01*
X172885575Y-131594807D01*
X172885572Y-131594809D01*
X172792391Y-131687990D01*
X172792389Y-131687993D01*
X172726497Y-131802119D01*
X172712562Y-131854126D01*
X172692389Y-131929415D01*
X172249500Y-131929415D01*
X172249500Y-131111529D01*
X177886152Y-131111529D01*
X177886152Y-131243312D01*
X177920260Y-131370608D01*
X177930150Y-131387737D01*
X177986152Y-131484735D01*
X178079338Y-131577921D01*
X178193466Y-131643813D01*
X178320760Y-131677921D01*
X178320762Y-131677921D01*
X178452542Y-131677921D01*
X178452544Y-131677921D01*
X178579838Y-131643813D01*
X178693966Y-131577921D01*
X178787152Y-131484735D01*
X178853044Y-131370607D01*
X178887152Y-131243313D01*
X178887152Y-131111529D01*
X178853044Y-130984235D01*
X178787152Y-130870107D01*
X178770776Y-130853731D01*
X178737291Y-130792408D01*
X178742275Y-130722716D01*
X178770774Y-130678371D01*
X187568963Y-121880183D01*
X187630286Y-121846698D01*
X187656644Y-121843864D01*
X188152736Y-121843864D01*
X188219775Y-121863549D01*
X188240417Y-121880183D01*
X188304098Y-121943864D01*
X188418226Y-122009756D01*
X188545520Y-122043864D01*
X188545522Y-122043864D01*
X188677302Y-122043864D01*
X188677304Y-122043864D01*
X188804598Y-122009756D01*
X188918726Y-121943864D01*
X189011912Y-121850678D01*
X189077804Y-121736550D01*
X189111912Y-121609256D01*
X189111912Y-121477472D01*
X189077804Y-121350178D01*
X189011912Y-121236050D01*
X188918726Y-121142864D01*
X188861662Y-121109918D01*
X188804599Y-121076972D01*
X188740951Y-121059918D01*
X188677304Y-121042864D01*
X188545520Y-121042864D01*
X188418224Y-121076972D01*
X188304098Y-121142864D01*
X188304095Y-121142866D01*
X188240417Y-121206545D01*
X188179094Y-121240030D01*
X188152736Y-121242864D01*
X187441249Y-121242864D01*
X187410678Y-121251055D01*
X187364819Y-121263343D01*
X187364818Y-121263344D01*
X187316433Y-121291280D01*
X187316432Y-121291280D01*
X187296306Y-121302899D01*
X187296298Y-121302905D01*
X178146193Y-130453010D01*
X178146187Y-130453018D01*
X178106634Y-130521527D01*
X178106631Y-130521532D01*
X178086152Y-130597962D01*
X178086152Y-130718744D01*
X178066467Y-130785783D01*
X178049834Y-130806425D01*
X177986152Y-130870107D01*
X177920260Y-130984233D01*
X177886152Y-131111529D01*
X172249500Y-131111529D01*
X172249500Y-127594936D01*
X177886643Y-127594936D01*
X177886643Y-127726720D01*
X177896638Y-127764021D01*
X177920751Y-127854015D01*
X177922594Y-127857207D01*
X177986643Y-127968142D01*
X178079829Y-128061328D01*
X178193957Y-128127220D01*
X178321251Y-128161328D01*
X178321253Y-128161328D01*
X178453033Y-128161328D01*
X178453035Y-128161328D01*
X178580329Y-128127220D01*
X178694457Y-128061328D01*
X178787643Y-127968142D01*
X178853535Y-127854014D01*
X178887643Y-127726720D01*
X178887643Y-127594936D01*
X178853535Y-127467642D01*
X178787643Y-127353514D01*
X178694457Y-127260328D01*
X178637393Y-127227382D01*
X178580330Y-127194436D01*
X178516682Y-127177382D01*
X178453035Y-127160328D01*
X178321251Y-127160328D01*
X178193955Y-127194436D01*
X178079829Y-127260328D01*
X178079826Y-127260330D01*
X177986645Y-127353511D01*
X177986643Y-127353514D01*
X177920751Y-127467640D01*
X177900010Y-127545049D01*
X177886643Y-127594936D01*
X172249500Y-127594936D01*
X172249500Y-123892462D01*
X172269185Y-123825423D01*
X172285819Y-123804781D01*
X172800500Y-123290100D01*
X175365712Y-120724889D01*
X178436808Y-120724889D01*
X178436808Y-120856672D01*
X178470916Y-120983968D01*
X178494895Y-121025500D01*
X178536808Y-121098095D01*
X178629994Y-121191281D01*
X178744122Y-121257173D01*
X178871416Y-121291281D01*
X178871418Y-121291281D01*
X179003198Y-121291281D01*
X179003200Y-121291281D01*
X179130494Y-121257173D01*
X179244622Y-121191281D01*
X179337808Y-121098095D01*
X179403700Y-120983967D01*
X179437808Y-120856673D01*
X179437808Y-120724889D01*
X179403700Y-120597595D01*
X179337808Y-120483467D01*
X179244622Y-120390281D01*
X179187558Y-120357335D01*
X179130495Y-120324389D01*
X179066847Y-120307335D01*
X179003200Y-120290281D01*
X178871416Y-120290281D01*
X178744120Y-120324389D01*
X178629994Y-120390281D01*
X178629991Y-120390283D01*
X178536810Y-120483464D01*
X178536808Y-120483467D01*
X178470916Y-120597593D01*
X178436808Y-120724889D01*
X175365712Y-120724889D01*
X175461520Y-120629081D01*
X176723477Y-119367124D01*
X197692956Y-119367124D01*
X197692956Y-119498907D01*
X197727064Y-119626203D01*
X197760010Y-119683266D01*
X197792956Y-119740330D01*
X197886142Y-119833516D01*
X198000270Y-119899408D01*
X198127564Y-119933516D01*
X198127566Y-119933516D01*
X198259346Y-119933516D01*
X198259348Y-119933516D01*
X198386642Y-119899408D01*
X198500770Y-119833516D01*
X198593956Y-119740330D01*
X198659848Y-119626202D01*
X198693956Y-119498908D01*
X198693956Y-119367124D01*
X198659848Y-119239830D01*
X198593956Y-119125702D01*
X198500770Y-119032516D01*
X198443706Y-118999570D01*
X198386643Y-118966624D01*
X198322995Y-118949570D01*
X198259348Y-118932516D01*
X198127564Y-118932516D01*
X198000268Y-118966624D01*
X197886142Y-119032516D01*
X197886139Y-119032518D01*
X197792958Y-119125699D01*
X197792956Y-119125702D01*
X197727064Y-119239828D01*
X197692956Y-119367124D01*
X176723477Y-119367124D01*
X176819285Y-119271316D01*
X178091799Y-117998801D01*
X178091802Y-117998798D01*
X178105254Y-117975500D01*
X178157695Y-117884669D01*
X178178071Y-117808623D01*
X178191803Y-117757376D01*
X178191803Y-117625591D01*
X178191803Y-113639015D01*
X178157695Y-113511721D01*
X178091803Y-113397593D01*
X177998617Y-113304407D01*
X177903516Y-113249500D01*
X177884490Y-113238515D01*
X177786611Y-113212289D01*
X177757195Y-113204407D01*
X177625411Y-113204407D01*
X177498115Y-113238515D01*
X177383989Y-113304407D01*
X177383986Y-113304409D01*
X177290805Y-113397590D01*
X177290803Y-113397593D01*
X177224911Y-113511719D01*
X177190803Y-113639015D01*
X177190803Y-117432807D01*
X177171118Y-117499846D01*
X177154484Y-117520488D01*
X173112181Y-121562791D01*
X173050858Y-121596276D01*
X172981166Y-121591292D01*
X172925233Y-121549420D01*
X172900816Y-121483956D01*
X172900500Y-121475110D01*
X172900500Y-118059109D01*
X172900500Y-118059108D01*
X172888613Y-118014746D01*
X172866392Y-117931814D01*
X172848381Y-117900618D01*
X172800500Y-117817686D01*
X172707314Y-117724500D01*
X172707313Y-117724499D01*
X172702983Y-117720169D01*
X172702972Y-117720159D01*
X172116819Y-117134005D01*
X172083334Y-117072682D01*
X172080500Y-117046324D01*
X172080500Y-113104109D01*
X172080500Y-113104108D01*
X172063587Y-113040989D01*
X172046392Y-112976814D01*
X172034068Y-112955469D01*
X171983676Y-112868187D01*
X171980502Y-112862689D01*
X171980498Y-112862684D01*
X171210819Y-112093005D01*
X171177334Y-112031682D01*
X171174500Y-112005324D01*
X171174500Y-109792462D01*
X171194185Y-109725423D01*
X171210819Y-109704781D01*
X172122917Y-108792683D01*
X173100500Y-107815100D01*
X173166392Y-107700972D01*
X173200500Y-107573678D01*
X173200500Y-107441893D01*
X173200500Y-103240437D01*
X173220185Y-103173398D01*
X173236819Y-103152756D01*
X173851219Y-102538356D01*
X173912542Y-102504871D01*
X173982234Y-102509855D01*
X174038167Y-102551727D01*
X174062584Y-102617191D01*
X174062900Y-102626037D01*
X174062900Y-102817214D01*
X174099579Y-103001609D01*
X174099582Y-103001621D01*
X174171529Y-103175318D01*
X174171536Y-103175331D01*
X174275991Y-103331657D01*
X174275994Y-103331661D01*
X174408938Y-103464605D01*
X174408942Y-103464608D01*
X174565268Y-103569063D01*
X174565281Y-103569070D01*
X174683026Y-103617841D01*
X174738983Y-103641019D01*
X174923385Y-103677699D01*
X174923388Y-103677700D01*
X174923390Y-103677700D01*
X175111412Y-103677700D01*
X175111413Y-103677699D01*
X175295817Y-103641019D01*
X175448821Y-103577643D01*
X175469518Y-103569070D01*
X175469518Y-103569069D01*
X175469525Y-103569067D01*
X175625858Y-103464608D01*
X175758808Y-103331658D01*
X175863267Y-103175325D01*
X175880739Y-103133141D01*
X175924579Y-103078741D01*
X175990873Y-103056675D01*
X176058572Y-103073954D01*
X176106183Y-103125090D01*
X176109852Y-103133123D01*
X176115755Y-103147372D01*
X176127334Y-103175327D01*
X176127336Y-103175331D01*
X176231791Y-103331657D01*
X176231794Y-103331661D01*
X176364738Y-103464605D01*
X176364742Y-103464608D01*
X176521068Y-103569063D01*
X176521081Y-103569070D01*
X176638826Y-103617841D01*
X176694783Y-103641019D01*
X176879185Y-103677699D01*
X176879188Y-103677700D01*
X176879190Y-103677700D01*
X177067212Y-103677700D01*
X177067213Y-103677699D01*
X177251617Y-103641019D01*
X177404621Y-103577643D01*
X177425318Y-103569070D01*
X177425318Y-103569069D01*
X177425325Y-103569067D01*
X177581658Y-103464608D01*
X177714608Y-103331658D01*
X177819067Y-103175325D01*
X177836539Y-103133141D01*
X177880379Y-103078741D01*
X177946673Y-103056675D01*
X178014372Y-103073954D01*
X178061983Y-103125090D01*
X178065652Y-103133123D01*
X178071555Y-103147372D01*
X178083134Y-103175327D01*
X178083136Y-103175331D01*
X178187591Y-103331657D01*
X178187594Y-103331661D01*
X178320538Y-103464605D01*
X178320542Y-103464608D01*
X178476868Y-103569063D01*
X178476881Y-103569070D01*
X178594626Y-103617841D01*
X178650583Y-103641019D01*
X178834985Y-103677699D01*
X178834988Y-103677700D01*
X178834990Y-103677700D01*
X179023012Y-103677700D01*
X179023013Y-103677699D01*
X179207417Y-103641019D01*
X179360421Y-103577643D01*
X179381118Y-103569070D01*
X179381118Y-103569069D01*
X179381125Y-103569067D01*
X179537458Y-103464608D01*
X179670408Y-103331658D01*
X179774867Y-103175325D01*
X179792339Y-103133141D01*
X179836179Y-103078741D01*
X179902473Y-103056675D01*
X179970172Y-103073954D01*
X180017783Y-103125090D01*
X180021452Y-103133123D01*
X180027355Y-103147372D01*
X180038934Y-103175327D01*
X180038936Y-103175331D01*
X180143391Y-103331657D01*
X180143394Y-103331661D01*
X180276338Y-103464605D01*
X180276342Y-103464608D01*
X180432668Y-103569063D01*
X180432681Y-103569070D01*
X180550426Y-103617841D01*
X180606383Y-103641019D01*
X180790785Y-103677699D01*
X180790788Y-103677700D01*
X180790790Y-103677700D01*
X180978812Y-103677700D01*
X180978813Y-103677699D01*
X181163217Y-103641019D01*
X181316221Y-103577643D01*
X181336918Y-103569070D01*
X181336918Y-103569069D01*
X181336925Y-103569067D01*
X181493258Y-103464608D01*
X181531477Y-103426389D01*
X181559145Y-103411280D01*
X181585899Y-103394613D01*
X181589573Y-103394664D01*
X181592799Y-103392903D01*
X181624238Y-103395151D01*
X181655761Y-103395594D01*
X181658825Y-103397624D01*
X181662491Y-103397887D01*
X181687722Y-103416774D01*
X181714003Y-103434190D01*
X181715482Y-103437554D01*
X181718425Y-103439757D01*
X181729441Y-103469291D01*
X181742133Y-103498148D01*
X181742062Y-103503129D01*
X181742843Y-103505221D01*
X181741637Y-103533438D01*
X181712578Y-103717188D01*
X181682663Y-103780330D01*
X181677782Y-103785500D01*
X181543691Y-103919591D01*
X181482371Y-103953075D01*
X181456012Y-103955909D01*
X175601224Y-103955909D01*
X175563010Y-103966148D01*
X175524795Y-103976388D01*
X175524790Y-103976391D01*
X175456281Y-104015944D01*
X175456273Y-104015950D01*
X173572946Y-105899277D01*
X173572940Y-105899285D01*
X173533387Y-105967794D01*
X173533384Y-105967799D01*
X173519731Y-106018752D01*
X173518281Y-106024167D01*
X173512905Y-106044229D01*
X173512905Y-108956005D01*
X173493220Y-109023044D01*
X173476586Y-109043686D01*
X172388497Y-110131774D01*
X172388491Y-110131782D01*
X172348938Y-110200291D01*
X172348935Y-110200296D01*
X172328456Y-110276726D01*
X172328456Y-111366488D01*
X172308771Y-111433527D01*
X172255967Y-111479282D01*
X172236549Y-111486263D01*
X172110596Y-111520012D01*
X172110594Y-111520012D01*
X172110594Y-111520013D01*
X171996468Y-111585904D01*
X171996465Y-111585906D01*
X171903284Y-111679087D01*
X171903282Y-111679090D01*
X171837390Y-111793216D01*
X171811741Y-111888942D01*
X171803282Y-111920512D01*
X171803282Y-112052296D01*
X171814190Y-112093005D01*
X171837390Y-112179591D01*
X171870336Y-112236654D01*
X171903282Y-112293718D01*
X171996468Y-112386904D01*
X172110596Y-112452796D01*
X172237890Y-112486904D01*
X172237892Y-112486904D01*
X172369672Y-112486904D01*
X172369674Y-112486904D01*
X172496968Y-112452796D01*
X172611096Y-112386904D01*
X172704282Y-112293718D01*
X172770174Y-112179590D01*
X172804282Y-112052296D01*
X172804282Y-111962236D01*
X172823967Y-111895197D01*
X172840599Y-111874555D01*
X172869416Y-111845740D01*
X172894731Y-111801893D01*
X172908977Y-111777218D01*
X172929456Y-111700791D01*
X172929456Y-110492120D01*
X172949141Y-110425081D01*
X172965775Y-110404439D01*
X173488327Y-109881887D01*
X174053865Y-109316349D01*
X174059383Y-109306791D01*
X174072226Y-109284548D01*
X174072226Y-109284546D01*
X174079248Y-109272383D01*
X174093426Y-109247827D01*
X174113905Y-109171400D01*
X174113905Y-106259623D01*
X174133590Y-106192584D01*
X174150224Y-106171942D01*
X175728938Y-104593228D01*
X175790261Y-104559743D01*
X175816619Y-104556909D01*
X181671405Y-104556909D01*
X181671407Y-104556909D01*
X181747834Y-104536430D01*
X181816356Y-104496869D01*
X181872305Y-104440920D01*
X182136486Y-104176737D01*
X182166619Y-104154583D01*
X183248072Y-103588098D01*
X183253333Y-103585501D01*
X183255678Y-103584411D01*
X183292725Y-103569067D01*
X183301885Y-103562945D01*
X183310564Y-103558914D01*
X183336017Y-103555085D01*
X183360577Y-103547392D01*
X183369997Y-103549974D01*
X183379657Y-103548522D01*
X183403137Y-103559061D01*
X183427960Y-103565868D01*
X183434488Y-103573134D01*
X183443399Y-103577134D01*
X183457454Y-103598694D01*
X183474657Y-103617841D01*
X183476220Y-103627481D01*
X183481555Y-103635665D01*
X183481721Y-103661403D01*
X183485842Y-103686809D01*
X183481944Y-103695765D01*
X183482008Y-103705534D01*
X183468233Y-103727277D01*
X183457965Y-103750876D01*
X183450488Y-103759053D01*
X182349904Y-104859638D01*
X182288581Y-104893123D01*
X182262223Y-104895957D01*
X176559703Y-104895957D01*
X176483275Y-104916435D01*
X176414754Y-104955997D01*
X176414751Y-104955999D01*
X174758212Y-106612538D01*
X174758206Y-106612546D01*
X174718653Y-106681055D01*
X174718650Y-106681060D01*
X174698171Y-106757490D01*
X174698171Y-109091396D01*
X174678486Y-109158435D01*
X174661852Y-109179077D01*
X173611998Y-110228930D01*
X173611992Y-110228938D01*
X173572439Y-110297447D01*
X173572436Y-110297452D01*
X173551957Y-110373882D01*
X173551957Y-111775505D01*
X173532272Y-111842544D01*
X173515638Y-111863186D01*
X173439081Y-111939742D01*
X173439079Y-111939745D01*
X173373187Y-112053871D01*
X173339079Y-112181167D01*
X173339079Y-112312950D01*
X173373187Y-112440246D01*
X173382968Y-112457186D01*
X173439079Y-112554373D01*
X173532265Y-112647559D01*
X173646393Y-112713451D01*
X173773687Y-112747559D01*
X173773689Y-112747559D01*
X173905469Y-112747559D01*
X173905471Y-112747559D01*
X174032765Y-112713451D01*
X174146893Y-112647559D01*
X174240079Y-112554373D01*
X174305971Y-112440245D01*
X174340079Y-112312951D01*
X174340079Y-112181167D01*
X174305971Y-112053873D01*
X174305059Y-112052294D01*
X174279090Y-112007314D01*
X174240079Y-111939745D01*
X174189276Y-111888942D01*
X174155791Y-111827619D01*
X174152957Y-111801261D01*
X174152957Y-111444364D01*
X174172642Y-111377325D01*
X174225446Y-111331570D01*
X174294604Y-111321626D01*
X174309041Y-111324587D01*
X174407060Y-111350851D01*
X174407062Y-111350851D01*
X174538841Y-111350851D01*
X174538844Y-111350851D01*
X174629014Y-111326690D01*
X174698859Y-111328353D01*
X174756721Y-111367515D01*
X174784226Y-111431743D01*
X174785103Y-111446465D01*
X174785103Y-115648750D01*
X174802070Y-115712070D01*
X174802977Y-115715454D01*
X174807202Y-115747548D01*
X174807202Y-116003337D01*
X174787517Y-116070376D01*
X174770883Y-116091018D01*
X174716442Y-116145458D01*
X174716440Y-116145461D01*
X174650548Y-116259587D01*
X174616440Y-116386883D01*
X174616440Y-116518666D01*
X174650548Y-116645962D01*
X174680586Y-116697989D01*
X174716440Y-116760089D01*
X174809626Y-116853275D01*
X174923754Y-116919167D01*
X175051048Y-116953275D01*
X175051050Y-116953275D01*
X175182830Y-116953275D01*
X175182832Y-116953275D01*
X175310126Y-116919167D01*
X175424254Y-116853275D01*
X175517440Y-116760089D01*
X175583332Y-116645961D01*
X175617440Y-116518667D01*
X175617440Y-116386883D01*
X175583332Y-116259589D01*
X175517440Y-116145461D01*
X175444520Y-116072541D01*
X175411036Y-116011217D01*
X175408202Y-115984860D01*
X175408202Y-115591726D01*
X175408202Y-115591725D01*
X175405437Y-115581405D01*
X175390328Y-115525017D01*
X175386103Y-115492924D01*
X175386103Y-110972959D01*
X175405788Y-110905920D01*
X175422422Y-110885278D01*
X175866942Y-110440758D01*
X176321353Y-109986347D01*
X176360915Y-109917824D01*
X176381393Y-109841398D01*
X176381393Y-109762274D01*
X176381393Y-107780012D01*
X177685532Y-107780012D01*
X177685532Y-107911796D01*
X177701994Y-107973232D01*
X177719640Y-108039091D01*
X177752586Y-108096154D01*
X177785532Y-108153218D01*
X177878718Y-108246404D01*
X177992846Y-108312296D01*
X178120140Y-108346404D01*
X178120142Y-108346404D01*
X178251922Y-108346404D01*
X178251924Y-108346404D01*
X178379218Y-108312296D01*
X178493346Y-108246404D01*
X178586532Y-108153218D01*
X178652424Y-108039090D01*
X178686532Y-107911796D01*
X178686532Y-107780012D01*
X178652424Y-107652718D01*
X178586532Y-107538590D01*
X178493346Y-107445404D01*
X178436282Y-107412458D01*
X178379219Y-107379512D01*
X178297873Y-107357716D01*
X178251924Y-107345404D01*
X178120140Y-107345404D01*
X177992844Y-107379512D01*
X177878718Y-107445404D01*
X177878715Y-107445406D01*
X177785534Y-107538587D01*
X177785532Y-107538590D01*
X177719640Y-107652716D01*
X177686485Y-107776455D01*
X177685532Y-107780012D01*
X176381393Y-107780012D01*
X176381393Y-107716232D01*
X176401078Y-107649193D01*
X176417712Y-107628551D01*
X177564382Y-106481881D01*
X177625705Y-106448396D01*
X177652063Y-106445562D01*
X182876712Y-106445562D01*
X182876714Y-106445562D01*
X182953141Y-106425083D01*
X183021663Y-106385522D01*
X183077612Y-106329573D01*
X185544830Y-103862355D01*
X185560457Y-103835288D01*
X185584391Y-103793833D01*
X185604870Y-103717406D01*
X185604870Y-100743191D01*
X185603716Y-100738885D01*
X185603619Y-100738521D01*
X185603618Y-100738519D01*
X185601039Y-100728894D01*
X185584392Y-100666765D01*
X185544830Y-100598242D01*
X185418729Y-100472141D01*
X185385244Y-100410818D01*
X185390228Y-100341126D01*
X185432100Y-100285193D01*
X185497564Y-100260776D01*
X185538504Y-100264685D01*
X185722634Y-100314023D01*
X185918000Y-100339742D01*
X185918000Y-99321234D01*
X186068049Y-99345000D01*
X186267951Y-99345000D01*
X186418000Y-99321234D01*
X186418000Y-100339741D01*
X186613365Y-100314023D01*
X186775631Y-100270544D01*
X186845481Y-100272207D01*
X186903344Y-100311369D01*
X186930848Y-100375598D01*
X186919262Y-100444500D01*
X186895406Y-100478000D01*
X186352971Y-101020436D01*
X186297023Y-101076383D01*
X186297017Y-101076391D01*
X186257464Y-101144900D01*
X186257461Y-101144905D01*
X186236982Y-101221335D01*
X186236982Y-103861448D01*
X186217297Y-103928487D01*
X186200663Y-103949129D01*
X181651647Y-108498145D01*
X181590324Y-108531630D01*
X181520632Y-108526646D01*
X181464699Y-108484774D01*
X181440282Y-108419310D01*
X181439966Y-108410464D01*
X181439966Y-108373734D01*
X181439966Y-108373732D01*
X181405858Y-108246438D01*
X181405838Y-108246404D01*
X181352038Y-108153220D01*
X181339966Y-108132310D01*
X181246780Y-108039124D01*
X181189716Y-108006178D01*
X181132653Y-107973232D01*
X181069005Y-107956178D01*
X181005358Y-107939124D01*
X180873574Y-107939124D01*
X180746278Y-107973232D01*
X180632152Y-108039124D01*
X180632149Y-108039126D01*
X180538968Y-108132307D01*
X180538966Y-108132310D01*
X180473074Y-108246436D01*
X180438966Y-108373732D01*
X180438966Y-108505515D01*
X180473074Y-108632811D01*
X180506020Y-108689874D01*
X180538966Y-108746938D01*
X180632152Y-108840124D01*
X180746280Y-108906016D01*
X180873574Y-108940124D01*
X180873576Y-108940124D01*
X180910306Y-108940124D01*
X180977345Y-108959809D01*
X181023100Y-109012613D01*
X181033044Y-109081771D01*
X181004019Y-109145327D01*
X180997987Y-109151805D01*
X180769737Y-109380054D01*
X180769731Y-109380062D01*
X180730178Y-109448571D01*
X180730175Y-109448576D01*
X180724999Y-109467894D01*
X180709696Y-109525005D01*
X180709696Y-115635643D01*
X180730175Y-115712070D01*
X180751785Y-115749500D01*
X180755129Y-115755291D01*
X180769736Y-115780592D01*
X180769738Y-115780595D01*
X180769739Y-115780596D01*
X180959201Y-115970057D01*
X180992686Y-116031380D01*
X180995520Y-116057738D01*
X180995520Y-116147797D01*
X181005250Y-116184110D01*
X181029628Y-116275092D01*
X181062574Y-116332155D01*
X181095520Y-116389219D01*
X181188706Y-116482405D01*
X181302834Y-116548297D01*
X181430128Y-116582405D01*
X181430130Y-116582405D01*
X181561910Y-116582405D01*
X181561912Y-116582405D01*
X181689206Y-116548297D01*
X181803334Y-116482405D01*
X181896520Y-116389219D01*
X181962412Y-116275091D01*
X181996520Y-116147797D01*
X181996520Y-116105996D01*
X182287431Y-116105996D01*
X182287431Y-116237779D01*
X182321539Y-116365075D01*
X182335479Y-116389219D01*
X182387431Y-116479202D01*
X182480617Y-116572388D01*
X182577518Y-116628334D01*
X182588632Y-116634751D01*
X182594745Y-116638280D01*
X182722039Y-116672388D01*
X182722041Y-116672388D01*
X182853821Y-116672388D01*
X182853823Y-116672388D01*
X182981117Y-116638280D01*
X183095245Y-116572388D01*
X183188431Y-116479202D01*
X183254323Y-116365074D01*
X183288431Y-116237780D01*
X183288431Y-116105996D01*
X183254323Y-115978702D01*
X183188431Y-115864574D01*
X183095245Y-115771388D01*
X183020064Y-115727982D01*
X182981118Y-115705496D01*
X182917470Y-115688442D01*
X182853823Y-115671388D01*
X182722039Y-115671388D01*
X182594743Y-115705496D01*
X182480617Y-115771388D01*
X182480614Y-115771390D01*
X182387433Y-115864571D01*
X182387431Y-115864574D01*
X182321539Y-115978700D01*
X182287431Y-116105996D01*
X181996520Y-116105996D01*
X181996520Y-116016013D01*
X181962412Y-115888719D01*
X181896520Y-115774591D01*
X181803334Y-115681405D01*
X181724069Y-115635641D01*
X181689207Y-115615513D01*
X181625559Y-115598459D01*
X181561912Y-115581405D01*
X181471853Y-115581405D01*
X181442412Y-115572760D01*
X181412426Y-115566237D01*
X181407410Y-115562482D01*
X181404814Y-115561720D01*
X181384172Y-115545086D01*
X181347015Y-115507929D01*
X181313530Y-115446606D01*
X181310696Y-115420248D01*
X181310696Y-109740400D01*
X181330381Y-109673361D01*
X181347015Y-109652719D01*
X181352013Y-109647721D01*
X183519208Y-109647721D01*
X183519208Y-109779505D01*
X183522680Y-109792462D01*
X183553316Y-109906800D01*
X183586262Y-109963863D01*
X183619208Y-110020927D01*
X183619210Y-110020929D01*
X183682889Y-110084608D01*
X183716374Y-110145931D01*
X183719208Y-110172289D01*
X183719208Y-115365371D01*
X183729447Y-115403584D01*
X183739687Y-115441800D01*
X183742798Y-115449309D01*
X183740971Y-115450065D01*
X183754569Y-115500800D01*
X183754569Y-116769406D01*
X183734884Y-116836445D01*
X183718251Y-116857087D01*
X183654569Y-116920769D01*
X183588677Y-117034895D01*
X183562121Y-117134005D01*
X183554569Y-117162191D01*
X183554569Y-117293975D01*
X183557652Y-117305480D01*
X183588677Y-117421270D01*
X183595338Y-117432807D01*
X183654569Y-117535397D01*
X183747755Y-117628583D01*
X183816351Y-117668187D01*
X183857341Y-117691853D01*
X183861883Y-117694475D01*
X183989177Y-117728583D01*
X183989179Y-117728583D01*
X184120959Y-117728583D01*
X184120961Y-117728583D01*
X184248255Y-117694475D01*
X184362383Y-117628583D01*
X184455569Y-117535397D01*
X184521461Y-117421269D01*
X184555569Y-117293975D01*
X184555569Y-117162191D01*
X184521461Y-117034897D01*
X184455569Y-116920769D01*
X184391887Y-116857087D01*
X184377182Y-116830156D01*
X184360592Y-116804341D01*
X184359700Y-116798138D01*
X184358403Y-116795763D01*
X184355569Y-116769406D01*
X184355569Y-116634108D01*
X190549500Y-116634108D01*
X190549500Y-116765892D01*
X190550442Y-116769406D01*
X190583608Y-116893187D01*
X190598608Y-116919167D01*
X190649500Y-117007314D01*
X190742686Y-117100500D01*
X190856814Y-117166392D01*
X190984108Y-117200500D01*
X190984110Y-117200500D01*
X191115890Y-117200500D01*
X191115892Y-117200500D01*
X191243186Y-117166392D01*
X191357314Y-117100500D01*
X191450500Y-117007314D01*
X191516392Y-116893186D01*
X191550500Y-116765892D01*
X191550500Y-116634108D01*
X191516392Y-116506814D01*
X191450500Y-116392686D01*
X191357314Y-116299500D01*
X191300250Y-116266554D01*
X191243187Y-116233608D01*
X191165081Y-116212680D01*
X191115892Y-116199500D01*
X190984108Y-116199500D01*
X190856812Y-116233608D01*
X190742686Y-116299500D01*
X190742683Y-116299502D01*
X190649502Y-116392683D01*
X190649500Y-116392686D01*
X190583608Y-116506812D01*
X190551806Y-116625500D01*
X190549500Y-116634108D01*
X184355569Y-116634108D01*
X184355569Y-115321609D01*
X184349989Y-115300784D01*
X184335090Y-115245181D01*
X184333921Y-115243156D01*
X184331499Y-115237876D01*
X184328459Y-115216980D01*
X184326350Y-115209108D01*
X195549500Y-115209108D01*
X195549500Y-115340891D01*
X195583608Y-115468187D01*
X195610809Y-115515299D01*
X195649500Y-115582314D01*
X195742686Y-115675500D01*
X195856814Y-115741392D01*
X195984108Y-115775500D01*
X195984110Y-115775500D01*
X196115890Y-115775500D01*
X196115892Y-115775500D01*
X196243186Y-115741392D01*
X196357314Y-115675500D01*
X196450500Y-115582314D01*
X196516392Y-115468186D01*
X196550500Y-115340892D01*
X196550500Y-115209108D01*
X196516392Y-115081814D01*
X196450500Y-114967686D01*
X196357314Y-114874500D01*
X196300250Y-114841554D01*
X196243187Y-114808608D01*
X196179539Y-114791554D01*
X196115892Y-114774500D01*
X195984108Y-114774500D01*
X195856812Y-114808608D01*
X195742686Y-114874500D01*
X195742683Y-114874502D01*
X195649502Y-114967683D01*
X195649500Y-114967686D01*
X195583608Y-115081812D01*
X195549500Y-115209108D01*
X184326350Y-115209108D01*
X184320208Y-115186178D01*
X184320208Y-110172289D01*
X184339893Y-110105250D01*
X184356527Y-110084608D01*
X184365308Y-110075827D01*
X184420208Y-110020927D01*
X184486100Y-109906799D01*
X184520208Y-109779505D01*
X184520208Y-109647721D01*
X184486100Y-109520427D01*
X184420208Y-109406299D01*
X184327022Y-109313113D01*
X184256476Y-109272383D01*
X184212895Y-109247221D01*
X184135446Y-109226469D01*
X184085600Y-109213113D01*
X183953816Y-109213113D01*
X183826520Y-109247221D01*
X183712394Y-109313113D01*
X183712391Y-109313115D01*
X183619210Y-109406296D01*
X183619208Y-109406299D01*
X183553316Y-109520425D01*
X183523930Y-109630098D01*
X183519208Y-109647721D01*
X181352013Y-109647721D01*
X181965626Y-109034108D01*
X192399500Y-109034108D01*
X192399500Y-109165892D01*
X192400976Y-109171400D01*
X192433608Y-109293187D01*
X192466523Y-109350196D01*
X192499500Y-109407314D01*
X192592686Y-109500500D01*
X192706814Y-109566392D01*
X192834108Y-109600500D01*
X192834110Y-109600500D01*
X192965890Y-109600500D01*
X192965892Y-109600500D01*
X193093186Y-109566392D01*
X193207314Y-109500500D01*
X193300500Y-109407314D01*
X193366392Y-109293186D01*
X193400500Y-109165892D01*
X193400500Y-109034108D01*
X193366392Y-108906814D01*
X193300500Y-108792686D01*
X193207314Y-108699500D01*
X193150250Y-108666554D01*
X193093187Y-108633608D01*
X193029539Y-108616554D01*
X192965892Y-108599500D01*
X192834108Y-108599500D01*
X192706812Y-108633608D01*
X192592686Y-108699500D01*
X192592683Y-108699502D01*
X192499502Y-108792683D01*
X192499500Y-108792686D01*
X192433608Y-108906812D01*
X192402465Y-109023044D01*
X192399500Y-109034108D01*
X181965626Y-109034108D01*
X184174302Y-106825432D01*
X184831292Y-106825432D01*
X184831292Y-106957215D01*
X184865400Y-107084511D01*
X184898346Y-107141574D01*
X184931292Y-107198638D01*
X185024478Y-107291824D01*
X185138606Y-107357716D01*
X185265900Y-107391824D01*
X185265902Y-107391824D01*
X185397682Y-107391824D01*
X185397684Y-107391824D01*
X185524978Y-107357716D01*
X185639106Y-107291824D01*
X185732292Y-107198638D01*
X185798184Y-107084510D01*
X185832292Y-106957216D01*
X185832292Y-106825432D01*
X185798184Y-106698138D01*
X185732292Y-106584010D01*
X185639106Y-106490824D01*
X185560710Y-106445562D01*
X185524979Y-106424932D01*
X185461331Y-106407878D01*
X185397684Y-106390824D01*
X185265900Y-106390824D01*
X185138604Y-106424932D01*
X185024478Y-106490824D01*
X185024475Y-106490826D01*
X184931294Y-106584007D01*
X184931292Y-106584010D01*
X184865400Y-106698136D01*
X184831292Y-106825432D01*
X184174302Y-106825432D01*
X184946191Y-106053543D01*
X189239304Y-106053543D01*
X189239304Y-106185327D01*
X189245449Y-106208261D01*
X189273412Y-106312622D01*
X189275357Y-106315990D01*
X189339304Y-106426749D01*
X189432490Y-106519935D01*
X189530811Y-106576701D01*
X189543465Y-106584007D01*
X189546618Y-106585827D01*
X189673912Y-106619935D01*
X189673914Y-106619935D01*
X189805694Y-106619935D01*
X189805696Y-106619935D01*
X189932990Y-106585827D01*
X190047118Y-106519935D01*
X190140304Y-106426749D01*
X190206196Y-106312621D01*
X190240304Y-106185327D01*
X190240304Y-106053543D01*
X190206196Y-105926249D01*
X190140304Y-105812121D01*
X190047118Y-105718935D01*
X189990054Y-105685989D01*
X189932991Y-105653043D01*
X189869343Y-105635989D01*
X189805696Y-105618935D01*
X189673912Y-105618935D01*
X189546616Y-105653043D01*
X189432490Y-105718935D01*
X189432487Y-105718937D01*
X189339306Y-105812118D01*
X189339304Y-105812121D01*
X189273412Y-105926247D01*
X189262278Y-105967801D01*
X189239304Y-106053543D01*
X184946191Y-106053543D01*
X185965626Y-105034108D01*
X188324500Y-105034108D01*
X188324500Y-105165892D01*
X188333772Y-105200497D01*
X188358608Y-105293187D01*
X188371717Y-105315892D01*
X188424500Y-105407314D01*
X188517686Y-105500500D01*
X188631814Y-105566392D01*
X188759108Y-105600500D01*
X188759110Y-105600500D01*
X188890890Y-105600500D01*
X188890892Y-105600500D01*
X189018186Y-105566392D01*
X189132314Y-105500500D01*
X189225500Y-105407314D01*
X189291392Y-105293186D01*
X189325500Y-105165892D01*
X189325500Y-105034108D01*
X189291392Y-104906814D01*
X189225500Y-104792686D01*
X189132314Y-104699500D01*
X189075250Y-104666554D01*
X189018187Y-104633608D01*
X188954539Y-104616554D01*
X188890892Y-104599500D01*
X188759108Y-104599500D01*
X188631812Y-104633608D01*
X188517686Y-104699500D01*
X188517683Y-104699502D01*
X188424502Y-104792683D01*
X188424500Y-104792686D01*
X188358608Y-104906812D01*
X188345429Y-104955999D01*
X188324500Y-105034108D01*
X185965626Y-105034108D01*
X186061434Y-104938300D01*
X186406506Y-104593228D01*
X186777942Y-104221792D01*
X186790235Y-104200500D01*
X186817503Y-104153270D01*
X186837982Y-104076843D01*
X186837982Y-103084108D01*
X187799500Y-103084108D01*
X187799500Y-103215892D01*
X187814087Y-103270331D01*
X187833608Y-103343187D01*
X187862185Y-103392683D01*
X187899500Y-103457314D01*
X187992686Y-103550500D01*
X188106814Y-103616392D01*
X188234108Y-103650500D01*
X188234110Y-103650500D01*
X188365890Y-103650500D01*
X188365892Y-103650500D01*
X188493186Y-103616392D01*
X188607314Y-103550500D01*
X188700500Y-103457314D01*
X188766392Y-103343186D01*
X188800500Y-103215892D01*
X188800500Y-103084108D01*
X188766392Y-102956814D01*
X188700500Y-102842686D01*
X188636818Y-102779004D01*
X188603334Y-102717680D01*
X188600500Y-102691323D01*
X188600500Y-102305683D01*
X188620185Y-102238644D01*
X188672989Y-102192889D01*
X188742147Y-102182945D01*
X188805703Y-102211970D01*
X188822877Y-102230198D01*
X188824498Y-102232311D01*
X188824500Y-102232314D01*
X188917686Y-102325500D01*
X189031814Y-102391392D01*
X189159108Y-102425500D01*
X189159110Y-102425500D01*
X189290890Y-102425500D01*
X189290892Y-102425500D01*
X189418186Y-102391392D01*
X189532314Y-102325500D01*
X189595995Y-102261819D01*
X189657318Y-102228334D01*
X189683676Y-102225500D01*
X190724167Y-102225500D01*
X190791206Y-102245185D01*
X190811848Y-102261819D01*
X193688181Y-105138152D01*
X193721666Y-105199475D01*
X193724500Y-105225833D01*
X193724500Y-106239562D01*
X193738152Y-106290513D01*
X193744979Y-106315990D01*
X193758784Y-106339900D01*
X193772589Y-106363811D01*
X193780556Y-106377611D01*
X193784539Y-106384510D01*
X201294076Y-113894047D01*
X201327561Y-113955370D01*
X201330395Y-113981728D01*
X201330395Y-114069679D01*
X201364503Y-114196975D01*
X201375714Y-114216392D01*
X201430395Y-114311102D01*
X201523581Y-114404288D01*
X201637709Y-114470180D01*
X201765003Y-114504288D01*
X201765005Y-114504288D01*
X201896785Y-114504288D01*
X201896787Y-114504288D01*
X202024081Y-114470180D01*
X202138209Y-114404288D01*
X202231395Y-114311102D01*
X202297287Y-114196974D01*
X202331395Y-114069680D01*
X202331395Y-113937896D01*
X202297287Y-113810602D01*
X202231395Y-113696474D01*
X202138209Y-113603288D01*
X202057714Y-113556814D01*
X202024082Y-113537396D01*
X201960434Y-113520342D01*
X201896787Y-113503288D01*
X201804621Y-113503288D01*
X201737582Y-113483603D01*
X201716940Y-113466969D01*
X201167530Y-112917559D01*
X210684545Y-112917559D01*
X210684545Y-113049343D01*
X210691554Y-113075500D01*
X210718653Y-113176638D01*
X210734686Y-113204407D01*
X210784545Y-113290765D01*
X210877731Y-113383951D01*
X210949696Y-113425500D01*
X210979457Y-113442683D01*
X210991859Y-113449843D01*
X211119153Y-113483951D01*
X211119155Y-113483951D01*
X211250935Y-113483951D01*
X211250937Y-113483951D01*
X211378231Y-113449843D01*
X211492359Y-113383951D01*
X211585545Y-113290765D01*
X211651437Y-113176637D01*
X211685545Y-113049343D01*
X211685545Y-112917559D01*
X211651437Y-112790265D01*
X211585545Y-112676137D01*
X211518516Y-112609108D01*
X217374500Y-112609108D01*
X217374500Y-112740892D01*
X217387729Y-112790263D01*
X217408608Y-112868187D01*
X217437114Y-112917559D01*
X217474500Y-112982314D01*
X217567686Y-113075500D01*
X217681814Y-113141392D01*
X217809108Y-113175500D01*
X217809110Y-113175500D01*
X217940890Y-113175500D01*
X217940892Y-113175500D01*
X218068186Y-113141392D01*
X218182314Y-113075500D01*
X218275500Y-112982314D01*
X218341392Y-112868186D01*
X218375500Y-112740892D01*
X218375500Y-112609108D01*
X218341392Y-112481814D01*
X218275500Y-112367686D01*
X218182314Y-112274500D01*
X218125250Y-112241554D01*
X218068187Y-112208608D01*
X217965781Y-112181169D01*
X217940892Y-112174500D01*
X217809108Y-112174500D01*
X217681812Y-112208608D01*
X217567686Y-112274500D01*
X217567683Y-112274502D01*
X217474502Y-112367683D01*
X217474500Y-112367686D01*
X217408608Y-112481812D01*
X217384627Y-112571313D01*
X217374500Y-112609108D01*
X211518516Y-112609108D01*
X211492359Y-112582951D01*
X211391123Y-112524502D01*
X211378232Y-112517059D01*
X211314584Y-112500005D01*
X211250937Y-112482951D01*
X211119153Y-112482951D01*
X210991857Y-112517059D01*
X210877731Y-112582951D01*
X210877728Y-112582953D01*
X210784547Y-112676134D01*
X210784545Y-112676137D01*
X210718653Y-112790263D01*
X210699248Y-112862686D01*
X210684545Y-112917559D01*
X201167530Y-112917559D01*
X195161280Y-106911309D01*
X197556903Y-106911309D01*
X197556903Y-107043092D01*
X197591011Y-107170388D01*
X197623957Y-107227451D01*
X197656903Y-107284515D01*
X197750089Y-107377701D01*
X197830979Y-107424403D01*
X197861272Y-107441893D01*
X197864217Y-107443593D01*
X197991511Y-107477701D01*
X197991513Y-107477701D01*
X198123293Y-107477701D01*
X198123295Y-107477701D01*
X198250589Y-107443593D01*
X198364717Y-107377701D01*
X198457903Y-107284515D01*
X198523795Y-107170387D01*
X198557903Y-107043093D01*
X198557903Y-106911309D01*
X198523795Y-106784015D01*
X198457903Y-106669887D01*
X198364717Y-106576701D01*
X198266396Y-106519935D01*
X198250590Y-106510809D01*
X198142627Y-106481881D01*
X198123295Y-106476701D01*
X197991511Y-106476701D01*
X197864215Y-106510809D01*
X197750089Y-106576701D01*
X197750086Y-106576703D01*
X197656905Y-106669884D01*
X197656903Y-106669887D01*
X197591011Y-106784013D01*
X197556903Y-106911309D01*
X195161280Y-106911309D01*
X194361819Y-106111848D01*
X194328334Y-106050525D01*
X194325500Y-106024167D01*
X194325500Y-105421785D01*
X194345185Y-105354746D01*
X194397989Y-105308991D01*
X194467147Y-105299047D01*
X194530703Y-105328072D01*
X194568477Y-105386850D01*
X194569263Y-105389650D01*
X194573996Y-105407313D01*
X194583608Y-105443187D01*
X194602829Y-105476478D01*
X194649500Y-105557314D01*
X194742686Y-105650500D01*
X194856814Y-105716392D01*
X194984108Y-105750500D01*
X194984110Y-105750500D01*
X195115890Y-105750500D01*
X195115892Y-105750500D01*
X195243186Y-105716392D01*
X195357314Y-105650500D01*
X195450500Y-105557314D01*
X195516392Y-105443186D01*
X195550500Y-105315892D01*
X195550500Y-105184108D01*
X195516392Y-105056814D01*
X195450500Y-104942686D01*
X195357314Y-104849500D01*
X195300250Y-104816554D01*
X195243187Y-104783608D01*
X195179539Y-104766554D01*
X195115892Y-104749500D01*
X194984108Y-104749500D01*
X194856812Y-104783608D01*
X194742686Y-104849500D01*
X194742683Y-104849502D01*
X194649502Y-104942683D01*
X194649500Y-104942686D01*
X194583608Y-105056812D01*
X194569275Y-105110307D01*
X194532910Y-105169968D01*
X194470063Y-105200497D01*
X194400688Y-105192202D01*
X194346810Y-105147717D01*
X194325535Y-105081165D01*
X194325500Y-105078214D01*
X194325500Y-105010439D01*
X194325500Y-105010438D01*
X194305021Y-104934011D01*
X194283051Y-104895957D01*
X194265464Y-104865495D01*
X194265458Y-104865487D01*
X191084512Y-101684541D01*
X191084507Y-101684537D01*
X191045715Y-101662141D01*
X191045715Y-101662140D01*
X191045713Y-101662140D01*
X191025711Y-101650592D01*
X191015990Y-101644979D01*
X191015991Y-101644979D01*
X190977775Y-101634739D01*
X190939562Y-101624500D01*
X190939560Y-101624500D01*
X189683676Y-101624500D01*
X189616637Y-101604815D01*
X189595995Y-101588181D01*
X189532316Y-101524502D01*
X189532314Y-101524500D01*
X189475250Y-101491554D01*
X189418187Y-101458608D01*
X189290888Y-101424499D01*
X189285048Y-101423730D01*
X189272067Y-101417986D01*
X189257910Y-101416974D01*
X189240753Y-101404130D01*
X189221154Y-101395458D01*
X189213338Y-101383607D01*
X189201977Y-101375102D01*
X189194487Y-101355022D01*
X189182688Y-101337130D01*
X189182520Y-101322936D01*
X189177560Y-101309638D01*
X189182115Y-101288697D01*
X189181862Y-101267265D01*
X189189684Y-101253901D01*
X189192412Y-101241365D01*
X189213557Y-101213117D01*
X189352359Y-101074315D01*
X189413680Y-101040833D01*
X189440038Y-101037999D01*
X196412253Y-101037999D01*
X196479292Y-101057684D01*
X196499934Y-101074318D01*
X196541126Y-101115510D01*
X196574611Y-101176833D01*
X196577445Y-101203191D01*
X196577445Y-101293250D01*
X196592396Y-101349048D01*
X196611553Y-101420545D01*
X196620897Y-101436729D01*
X196677445Y-101534672D01*
X196770631Y-101627858D01*
X196884759Y-101693750D01*
X197012053Y-101727858D01*
X197012055Y-101727858D01*
X197143835Y-101727858D01*
X197143837Y-101727858D01*
X197271131Y-101693750D01*
X197385259Y-101627858D01*
X197478445Y-101534672D01*
X197544337Y-101420544D01*
X197578445Y-101293250D01*
X197578445Y-101239953D01*
X197598130Y-101172914D01*
X197650934Y-101127159D01*
X197720092Y-101117215D01*
X197783648Y-101146240D01*
X197790126Y-101152272D01*
X197868479Y-101230625D01*
X197982607Y-101296517D01*
X198109901Y-101330625D01*
X198109903Y-101330625D01*
X198241683Y-101330625D01*
X198241685Y-101330625D01*
X198368979Y-101296517D01*
X198483107Y-101230625D01*
X198576293Y-101137439D01*
X198642185Y-101023311D01*
X198676293Y-100896017D01*
X198676293Y-100764233D01*
X198642185Y-100636939D01*
X198576293Y-100522811D01*
X198483107Y-100429625D01*
X198399460Y-100381331D01*
X198368980Y-100363733D01*
X198305332Y-100346679D01*
X198241685Y-100329625D01*
X198109901Y-100329625D01*
X197982605Y-100363733D01*
X197868479Y-100429625D01*
X197868476Y-100429627D01*
X197775295Y-100522808D01*
X197775293Y-100522811D01*
X197709401Y-100636937D01*
X197675293Y-100764233D01*
X197675293Y-100817530D01*
X197655608Y-100884569D01*
X197602804Y-100930324D01*
X197533646Y-100940268D01*
X197470090Y-100911243D01*
X197463612Y-100905211D01*
X197385261Y-100826860D01*
X197385259Y-100826858D01*
X197310511Y-100783702D01*
X197271132Y-100760966D01*
X197204793Y-100743191D01*
X197143837Y-100726858D01*
X197053778Y-100726858D01*
X196986739Y-100707173D01*
X196966097Y-100690539D01*
X196772598Y-100497040D01*
X196772590Y-100497034D01*
X196704081Y-100457481D01*
X196704076Y-100457478D01*
X196678599Y-100450651D01*
X196627648Y-100436999D01*
X189303767Y-100436999D01*
X189224643Y-100436999D01*
X189148215Y-100457477D01*
X189079694Y-100497039D01*
X189079691Y-100497041D01*
X188059541Y-101517191D01*
X188059535Y-101517199D01*
X188019982Y-101585708D01*
X188019979Y-101585713D01*
X188007373Y-101632761D01*
X187999501Y-101662141D01*
X187999500Y-101662143D01*
X187999500Y-102691323D01*
X187979815Y-102758362D01*
X187963182Y-102779004D01*
X187899500Y-102842686D01*
X187833608Y-102956812D01*
X187806042Y-103059691D01*
X187799500Y-103084108D01*
X186837982Y-103084108D01*
X186837982Y-101436729D01*
X186857667Y-101369690D01*
X186874301Y-101349048D01*
X188035377Y-100187972D01*
X189212281Y-99011068D01*
X189242647Y-98958472D01*
X189251842Y-98942546D01*
X189272321Y-98866119D01*
X189272321Y-98002038D01*
X189292006Y-97934999D01*
X189344810Y-97889244D01*
X189413968Y-97879300D01*
X189459474Y-97898468D01*
X189460648Y-97896436D01*
X189467684Y-97900498D01*
X189467686Y-97900500D01*
X189581814Y-97966392D01*
X189709108Y-98000500D01*
X189709110Y-98000500D01*
X189840890Y-98000500D01*
X189840892Y-98000500D01*
X189968186Y-97966392D01*
X190082314Y-97900500D01*
X190175500Y-97807314D01*
X190241392Y-97693186D01*
X190275500Y-97565892D01*
X190275500Y-97434108D01*
X190241392Y-97306814D01*
X190175500Y-97192686D01*
X190082314Y-97099500D01*
X190011569Y-97058655D01*
X189968187Y-97033608D01*
X189904539Y-97016554D01*
X189840892Y-96999500D01*
X189709108Y-96999500D01*
X189581812Y-97033608D01*
X189538431Y-97058655D01*
X189467686Y-97099500D01*
X189467684Y-97099501D01*
X189460648Y-97103564D01*
X189459275Y-97101186D01*
X189406611Y-97121533D01*
X189338170Y-97107480D01*
X189288190Y-97058655D01*
X189272321Y-96997961D01*
X189272321Y-96126393D01*
X189292006Y-96059354D01*
X189308640Y-96038712D01*
X189940158Y-95407194D01*
X190001481Y-95373709D01*
X190027839Y-95370875D01*
X192030211Y-95370875D01*
X192097250Y-95390560D01*
X192117892Y-95407194D01*
X193477249Y-96766551D01*
X193533198Y-96822500D01*
X193533200Y-96822501D01*
X193533204Y-96822504D01*
X193578044Y-96848392D01*
X193601720Y-96862061D01*
X193678147Y-96882540D01*
X193678149Y-96882540D01*
X194519557Y-96882540D01*
X194519559Y-96882540D01*
X194595986Y-96862061D01*
X194664508Y-96822500D01*
X194720457Y-96766551D01*
X195382750Y-96104258D01*
X195444073Y-96070773D01*
X195470431Y-96067939D01*
X196555867Y-96067939D01*
X196622906Y-96087624D01*
X196668661Y-96140428D01*
X196678605Y-96209586D01*
X196649580Y-96273142D01*
X196643548Y-96279620D01*
X196547770Y-96375397D01*
X196547768Y-96375400D01*
X196481876Y-96489526D01*
X196447768Y-96616822D01*
X196447768Y-96748605D01*
X196481876Y-96875901D01*
X196498419Y-96904554D01*
X196547768Y-96990028D01*
X196640954Y-97083214D01*
X196755082Y-97149106D01*
X196882376Y-97183214D01*
X196882378Y-97183214D01*
X197014158Y-97183214D01*
X197014160Y-97183214D01*
X197141454Y-97149106D01*
X197255582Y-97083214D01*
X197348768Y-96990028D01*
X197414660Y-96875900D01*
X197448768Y-96748606D01*
X197448768Y-96616822D01*
X197414660Y-96489528D01*
X197348768Y-96375400D01*
X197255582Y-96282214D01*
X197252988Y-96279620D01*
X197242375Y-96260183D01*
X197227875Y-96243450D01*
X197225958Y-96230118D01*
X197219503Y-96218297D01*
X197221082Y-96196210D01*
X197217931Y-96174292D01*
X197223526Y-96162040D01*
X197224487Y-96148605D01*
X197237757Y-96130878D01*
X197246956Y-96110736D01*
X197258287Y-96103453D01*
X197266359Y-96092672D01*
X197287104Y-96084934D01*
X197305734Y-96072962D01*
X197327652Y-96069810D01*
X197331823Y-96068255D01*
X197340669Y-96067939D01*
X197479922Y-96067939D01*
X197546961Y-96087624D01*
X197567603Y-96104258D01*
X198061449Y-96598104D01*
X198094934Y-96659427D01*
X198097768Y-96685785D01*
X198097768Y-96748605D01*
X198131876Y-96875901D01*
X198148419Y-96904554D01*
X198197768Y-96990028D01*
X198290954Y-97083214D01*
X198386888Y-97138601D01*
X198397447Y-97144698D01*
X198445663Y-97195265D01*
X198458885Y-97263872D01*
X198432917Y-97328737D01*
X198386296Y-97364073D01*
X198386305Y-97364088D01*
X198386185Y-97364156D01*
X198382903Y-97366645D01*
X198379268Y-97368150D01*
X198265138Y-97434044D01*
X198265135Y-97434046D01*
X198171954Y-97527227D01*
X198171952Y-97527230D01*
X198106060Y-97641357D01*
X198100143Y-97663439D01*
X198068052Y-97719022D01*
X198016990Y-97770085D01*
X198016987Y-97770089D01*
X197977434Y-97838598D01*
X197977431Y-97838603D01*
X197963862Y-97889244D01*
X197956952Y-97915032D01*
X197956952Y-97994156D01*
X197958652Y-98000499D01*
X197977431Y-98070584D01*
X197977434Y-98070589D01*
X198016987Y-98139098D01*
X198016991Y-98139103D01*
X198016992Y-98139105D01*
X198072941Y-98195054D01*
X198072943Y-98195055D01*
X198072947Y-98195058D01*
X198123628Y-98224318D01*
X198141463Y-98234615D01*
X198217890Y-98255094D01*
X198266640Y-98255094D01*
X198328639Y-98271706D01*
X198379266Y-98300936D01*
X198506560Y-98335044D01*
X198506562Y-98335044D01*
X198638342Y-98335044D01*
X198638344Y-98335044D01*
X198765638Y-98300936D01*
X198816185Y-98271752D01*
X198884083Y-98255279D01*
X198950110Y-98278130D01*
X198993302Y-98333051D01*
X199002185Y-98379056D01*
X199007894Y-106941120D01*
X199009500Y-109350759D01*
X199009500Y-109389562D01*
X199009525Y-109389658D01*
X199009526Y-109389762D01*
X199009582Y-109389974D01*
X199009583Y-109389977D01*
X199019849Y-109428188D01*
X199019871Y-109428269D01*
X199029979Y-109465989D01*
X199030029Y-109466076D01*
X199030056Y-109466175D01*
X199049782Y-109500289D01*
X199061409Y-109520427D01*
X199069540Y-109534511D01*
X199069552Y-109534526D01*
X199069557Y-109534533D01*
X199069647Y-109534650D01*
X199069661Y-109534668D01*
X199069663Y-109534671D01*
X199097656Y-109562627D01*
X199125489Y-109590460D01*
X199125492Y-109590462D01*
X199125554Y-109590509D01*
X199125641Y-109590575D01*
X199125649Y-109590583D01*
X199159662Y-109610189D01*
X199159722Y-109610252D01*
X199159734Y-109610231D01*
X199194011Y-109630021D01*
X199194014Y-109630022D01*
X199194193Y-109630095D01*
X199194198Y-109630098D01*
X199231850Y-109640160D01*
X199231919Y-109640202D01*
X199231925Y-109640181D01*
X199252563Y-109645710D01*
X199270438Y-109650500D01*
X199270444Y-109650500D01*
X199270634Y-109650525D01*
X199270638Y-109650526D01*
X199309429Y-109650500D01*
X199309455Y-109650500D01*
X200641413Y-109650500D01*
X200708452Y-109670185D01*
X200754207Y-109722989D01*
X200764151Y-109792147D01*
X200735126Y-109855703D01*
X200703415Y-109881886D01*
X200674639Y-109898500D01*
X200674636Y-109898502D01*
X200581455Y-109991683D01*
X200581453Y-109991686D01*
X200515561Y-110105812D01*
X200502066Y-110156177D01*
X200481453Y-110233108D01*
X200481453Y-110364892D01*
X200497580Y-110425081D01*
X200515561Y-110492187D01*
X200544920Y-110543037D01*
X200581453Y-110606314D01*
X200674639Y-110699500D01*
X200788767Y-110765392D01*
X200916061Y-110799500D01*
X200916063Y-110799500D01*
X201047843Y-110799500D01*
X201047845Y-110799500D01*
X201175139Y-110765392D01*
X201289267Y-110699500D01*
X201382453Y-110606314D01*
X201448345Y-110492186D01*
X201482453Y-110364892D01*
X201482453Y-110233108D01*
X201448345Y-110105814D01*
X201448019Y-110105250D01*
X201399335Y-110020927D01*
X201382453Y-109991686D01*
X201289267Y-109898500D01*
X201260491Y-109881886D01*
X201212277Y-109831319D01*
X201199055Y-109762712D01*
X201225023Y-109697848D01*
X201281937Y-109657320D01*
X201322493Y-109650500D01*
X209270438Y-109650500D01*
X214270438Y-109650500D01*
X218875839Y-109650500D01*
X218942878Y-109670185D01*
X218988633Y-109722989D01*
X218999839Y-109774401D01*
X219004356Y-115420248D01*
X219019113Y-133866135D01*
X219019161Y-133925401D01*
X218999530Y-133992456D01*
X218946763Y-134038253D01*
X218895161Y-134049500D01*
X214359562Y-134049500D01*
X204329562Y-134049500D01*
X204250438Y-134049500D01*
X204212224Y-134059739D01*
X204174009Y-134069979D01*
X204174004Y-134069982D01*
X204105495Y-134109535D01*
X204105487Y-134109541D01*
X204049541Y-134165487D01*
X204049535Y-134165495D01*
X204009982Y-134234004D01*
X204009979Y-134234009D01*
X204000719Y-134268568D01*
X203989532Y-134310321D01*
X203989500Y-134310439D01*
X203989500Y-143925256D01*
X203969815Y-143992295D01*
X203917011Y-144038050D01*
X203865429Y-144049256D01*
X169764089Y-144029741D01*
X169697061Y-144010018D01*
X169651336Y-143957188D01*
X169640160Y-143905844D01*
X169639583Y-143184108D01*
X200199500Y-143184108D01*
X200199500Y-143315891D01*
X200233608Y-143443187D01*
X200266554Y-143500250D01*
X200299500Y-143557314D01*
X200392686Y-143650500D01*
X200506814Y-143716392D01*
X200634108Y-143750500D01*
X200634110Y-143750500D01*
X200765890Y-143750500D01*
X200765892Y-143750500D01*
X200893186Y-143716392D01*
X201007314Y-143650500D01*
X201100500Y-143557314D01*
X201166392Y-143443186D01*
X201200500Y-143315892D01*
X201200500Y-143184108D01*
X201166392Y-143056814D01*
X201100500Y-142942686D01*
X201007314Y-142849500D01*
X200950250Y-142816554D01*
X200893187Y-142783608D01*
X200829539Y-142766554D01*
X200765892Y-142749500D01*
X200634108Y-142749500D01*
X200506812Y-142783608D01*
X200392686Y-142849500D01*
X200392683Y-142849502D01*
X200299502Y-142942683D01*
X200299500Y-142942686D01*
X200233608Y-143056812D01*
X200199500Y-143184108D01*
X169639583Y-143184108D01*
X169628448Y-129265125D01*
X169648079Y-129198071D01*
X169700846Y-129152274D01*
X169769997Y-129142275D01*
X169833576Y-129171249D01*
X169840129Y-129177346D01*
X169852777Y-129189994D01*
X169966905Y-129255886D01*
X170094199Y-129289994D01*
X170094201Y-129289994D01*
X170225981Y-129289994D01*
X170225983Y-129289994D01*
X170353277Y-129255886D01*
X170467405Y-129189994D01*
X170560591Y-129096808D01*
X170626483Y-128982680D01*
X170660591Y-128855386D01*
X170660591Y-128723602D01*
X170626483Y-128596308D01*
X170560591Y-128482180D01*
X170467405Y-128388994D01*
X170400730Y-128350499D01*
X170353278Y-128323102D01*
X170268924Y-128300500D01*
X170225983Y-128288994D01*
X170094199Y-128288994D01*
X169966903Y-128323102D01*
X169852777Y-128388994D01*
X169839366Y-128402405D01*
X169778042Y-128435888D01*
X169708350Y-128430902D01*
X169652418Y-128389029D01*
X169628003Y-128323564D01*
X169627687Y-128314844D01*
X169607444Y-103011252D01*
X170360299Y-103011252D01*
X170360299Y-103143036D01*
X170368951Y-103175325D01*
X170394407Y-103270331D01*
X170422919Y-103319714D01*
X170460299Y-103384458D01*
X170553485Y-103477644D01*
X170667613Y-103543536D01*
X170794907Y-103577644D01*
X170794909Y-103577644D01*
X170926689Y-103577644D01*
X170926691Y-103577644D01*
X171053985Y-103543536D01*
X171168113Y-103477644D01*
X171261299Y-103384458D01*
X171327191Y-103270330D01*
X171361299Y-103143036D01*
X171361299Y-103011252D01*
X171327191Y-102883958D01*
X171261299Y-102769830D01*
X171168113Y-102676644D01*
X171111049Y-102643698D01*
X171053986Y-102610752D01*
X170990338Y-102593698D01*
X170926691Y-102576644D01*
X170794907Y-102576644D01*
X170667611Y-102610752D01*
X170553485Y-102676644D01*
X170553482Y-102676646D01*
X170460301Y-102769827D01*
X170460299Y-102769830D01*
X170394407Y-102883956D01*
X170374886Y-102956812D01*
X170360299Y-103011252D01*
X169607444Y-103011252D01*
X169604607Y-99464674D01*
X169624237Y-99397624D01*
X169677004Y-99351827D01*
X169746155Y-99341828D01*
X169809734Y-99370802D01*
X169826982Y-99389093D01*
X169973638Y-99580218D01*
X170184781Y-99791361D01*
X170184788Y-99791367D01*
X170421686Y-99973145D01*
X170421701Y-99973155D01*
X170680301Y-100122458D01*
X170680315Y-100122465D01*
X170956182Y-100236732D01*
X171244634Y-100314023D01*
X171440000Y-100339742D01*
X171440000Y-99321234D01*
X171590049Y-99345000D01*
X171789951Y-99345000D01*
X171940000Y-99321234D01*
X171940000Y-100339741D01*
X172135365Y-100314023D01*
X172423817Y-100236732D01*
X172699684Y-100122465D01*
X172699698Y-100122458D01*
X172958298Y-99973155D01*
X172958313Y-99973145D01*
X173195211Y-99791367D01*
X173195218Y-99791361D01*
X173406361Y-99580218D01*
X173406367Y-99580211D01*
X173588145Y-99343313D01*
X173588155Y-99343298D01*
X173737458Y-99084698D01*
X173737465Y-99084684D01*
X173851732Y-98808817D01*
X173929023Y-98520365D01*
X173967998Y-98224318D01*
X173968000Y-98224301D01*
X173968000Y-97690000D01*
X172960000Y-97690000D01*
X172960000Y-97190000D01*
X173968000Y-97190000D01*
X173968000Y-96655698D01*
X173967998Y-96655681D01*
X173936157Y-96413818D01*
X173929023Y-96359634D01*
X173851732Y-96071182D01*
X173737465Y-95795315D01*
X173737458Y-95795301D01*
X173588155Y-95536701D01*
X173588145Y-95536686D01*
X173406367Y-95299788D01*
X173406361Y-95299781D01*
X173195218Y-95088638D01*
X173195211Y-95088632D01*
X172958313Y-94906854D01*
X172958298Y-94906844D01*
X172884639Y-94864317D01*
X172836423Y-94813750D01*
X172823200Y-94745143D01*
X172849168Y-94680278D01*
X172906083Y-94639750D01*
X172946718Y-94632930D01*
X177381026Y-94635886D01*
G37*
%TD.AperFunction*%
%TA.AperFunction,Conductor*%
G36*
X184084917Y-100001437D02*
G01*
X184124834Y-100028188D01*
X184967551Y-100870905D01*
X185001036Y-100932228D01*
X185003870Y-100958586D01*
X185003870Y-103502011D01*
X184984185Y-103569050D01*
X184967551Y-103589692D01*
X182749000Y-105808243D01*
X182687677Y-105841728D01*
X182661319Y-105844562D01*
X177436668Y-105844562D01*
X177360240Y-105865040D01*
X177291719Y-105904602D01*
X177291716Y-105904604D01*
X175840434Y-107355886D01*
X175840428Y-107355894D01*
X175800875Y-107424403D01*
X175800872Y-107424408D01*
X175780393Y-107500838D01*
X175780393Y-109626003D01*
X175760708Y-109693042D01*
X175744074Y-109713684D01*
X174981767Y-110475990D01*
X174920444Y-110509475D01*
X174850752Y-110504491D01*
X174806405Y-110475990D01*
X174780268Y-110449853D01*
X174780266Y-110449851D01*
X174666138Y-110383959D01*
X174590278Y-110363632D01*
X174530619Y-110327268D01*
X174500090Y-110264421D01*
X174508385Y-110195045D01*
X174534689Y-110156180D01*
X175239131Y-109451740D01*
X175264779Y-109407316D01*
X175265366Y-109406300D01*
X175265366Y-109406299D01*
X175265368Y-109406296D01*
X175278692Y-109383218D01*
X175299171Y-109306791D01*
X175299171Y-106972884D01*
X175318856Y-106905845D01*
X175335490Y-106885203D01*
X176687417Y-105533276D01*
X176748740Y-105499791D01*
X176775098Y-105496957D01*
X182477616Y-105496957D01*
X182477618Y-105496957D01*
X182554045Y-105476478D01*
X182622567Y-105436917D01*
X182678516Y-105380968D01*
X184639449Y-103420035D01*
X184659989Y-103384458D01*
X184679010Y-103351513D01*
X184699489Y-103275086D01*
X184699489Y-101468728D01*
X184679010Y-101392301D01*
X184665956Y-101369690D01*
X184639453Y-101323785D01*
X184639447Y-101323777D01*
X184161214Y-100845544D01*
X184131135Y-100796703D01*
X184126846Y-100783700D01*
X183919392Y-100154707D01*
X183917088Y-100084877D01*
X183952904Y-100024885D01*
X184015468Y-99993780D01*
X184084917Y-100001437D01*
G37*
%TD.AperFunction*%
%TA.AperFunction,Conductor*%
G36*
X182813197Y-98720559D02*
G01*
X182833839Y-98737193D01*
X182859665Y-98763019D01*
X182893150Y-98824342D01*
X182888166Y-98894034D01*
X182846294Y-98949967D01*
X182780830Y-98974384D01*
X182771984Y-98974700D01*
X182746587Y-98974700D01*
X182562190Y-99011379D01*
X182562178Y-99011382D01*
X182388481Y-99083329D01*
X182388468Y-99083336D01*
X182232142Y-99187791D01*
X182232138Y-99187794D01*
X182099194Y-99320738D01*
X182099191Y-99320742D01*
X181994736Y-99477068D01*
X181994729Y-99477081D01*
X181922782Y-99650778D01*
X181922779Y-99650790D01*
X181886100Y-99835185D01*
X181886100Y-100023214D01*
X181922779Y-100207609D01*
X181922782Y-100207621D01*
X181994729Y-100381318D01*
X181994736Y-100381331D01*
X182099191Y-100537657D01*
X182099194Y-100537661D01*
X182232138Y-100670605D01*
X182232142Y-100670608D01*
X182388468Y-100775063D01*
X182388481Y-100775070D01*
X182558622Y-100845544D01*
X182562183Y-100847019D01*
X182603289Y-100855195D01*
X182631758Y-100864551D01*
X182634388Y-100865785D01*
X182634395Y-100865787D01*
X182634396Y-100865788D01*
X183637769Y-101221335D01*
X183687683Y-101239022D01*
X183733948Y-101268220D01*
X184062170Y-101596442D01*
X184095655Y-101657765D01*
X184098489Y-101684123D01*
X184098489Y-103059691D01*
X184078804Y-103126730D01*
X184062170Y-103147372D01*
X183876456Y-103333085D01*
X183815133Y-103366570D01*
X183745441Y-103361586D01*
X183689508Y-103319714D01*
X183665091Y-103254250D01*
X183679943Y-103185977D01*
X183685670Y-103176517D01*
X183686467Y-103175325D01*
X183698046Y-103147372D01*
X183758417Y-103001621D01*
X183758419Y-103001617D01*
X183795100Y-102817210D01*
X183795100Y-102629190D01*
X183795100Y-102629187D01*
X183795099Y-102629185D01*
X183780543Y-102556008D01*
X183758419Y-102444783D01*
X183736304Y-102391392D01*
X183686470Y-102271081D01*
X183686463Y-102271068D01*
X183582008Y-102114742D01*
X183582005Y-102114738D01*
X183449061Y-101981794D01*
X183449057Y-101981791D01*
X183292731Y-101877336D01*
X183292718Y-101877329D01*
X183119021Y-101805382D01*
X183119009Y-101805379D01*
X182934613Y-101768700D01*
X182934610Y-101768700D01*
X182746590Y-101768700D01*
X182746587Y-101768700D01*
X182562190Y-101805379D01*
X182562178Y-101805382D01*
X182388481Y-101877329D01*
X182388468Y-101877336D01*
X182232142Y-101981791D01*
X182232138Y-101981794D01*
X182099194Y-102114738D01*
X182099191Y-102114742D01*
X181994736Y-102271068D01*
X181994729Y-102271081D01*
X181977261Y-102313255D01*
X181933420Y-102367659D01*
X181867126Y-102389724D01*
X181799427Y-102372445D01*
X181751816Y-102321308D01*
X181748139Y-102313255D01*
X181730670Y-102271081D01*
X181730663Y-102271068D01*
X181626208Y-102114742D01*
X181626205Y-102114738D01*
X181493261Y-101981794D01*
X181493257Y-101981791D01*
X181336931Y-101877336D01*
X181336918Y-101877329D01*
X181163221Y-101805382D01*
X181163209Y-101805379D01*
X180978813Y-101768700D01*
X180978810Y-101768700D01*
X180790790Y-101768700D01*
X180790787Y-101768700D01*
X180606390Y-101805379D01*
X180606378Y-101805382D01*
X180432681Y-101877329D01*
X180432668Y-101877336D01*
X180276342Y-101981791D01*
X180276338Y-101981794D01*
X180143394Y-102114738D01*
X180143391Y-102114742D01*
X180038936Y-102271068D01*
X180038929Y-102271081D01*
X180021461Y-102313255D01*
X179977620Y-102367659D01*
X179911326Y-102389724D01*
X179843627Y-102372445D01*
X179796016Y-102321308D01*
X179792339Y-102313255D01*
X179774870Y-102271081D01*
X179774863Y-102271068D01*
X179670408Y-102114742D01*
X179670405Y-102114738D01*
X179537461Y-101981794D01*
X179537457Y-101981791D01*
X179381131Y-101877336D01*
X179381118Y-101877329D01*
X179207421Y-101805382D01*
X179207409Y-101805379D01*
X179023013Y-101768700D01*
X179023010Y-101768700D01*
X178834990Y-101768700D01*
X178834987Y-101768700D01*
X178650590Y-101805379D01*
X178650578Y-101805382D01*
X178476881Y-101877329D01*
X178476868Y-101877336D01*
X178320542Y-101981791D01*
X178320538Y-101981794D01*
X178187594Y-102114738D01*
X178187591Y-102114742D01*
X178083136Y-102271068D01*
X178083129Y-102271081D01*
X178065661Y-102313255D01*
X178021820Y-102367659D01*
X177955526Y-102389724D01*
X177887827Y-102372445D01*
X177840216Y-102321308D01*
X177836539Y-102313255D01*
X177819070Y-102271081D01*
X177819063Y-102271068D01*
X177714608Y-102114742D01*
X177714605Y-102114738D01*
X177581661Y-101981794D01*
X177581657Y-101981791D01*
X177425331Y-101877336D01*
X177425326Y-101877334D01*
X177425325Y-101877333D01*
X177406274Y-101869441D01*
X177390450Y-101862887D01*
X177336047Y-101819045D01*
X177313983Y-101752750D01*
X177331263Y-101685051D01*
X177375905Y-101640939D01*
X177398568Y-101627855D01*
X177473314Y-101584700D01*
X177670945Y-101387067D01*
X177702472Y-101364194D01*
X178816134Y-100798673D01*
X178873125Y-100775067D01*
X178906382Y-100752844D01*
X178921203Y-100745319D01*
X178931731Y-100739580D01*
X178932922Y-100738885D01*
X178933549Y-100738518D01*
X178939900Y-100732527D01*
X178956094Y-100719627D01*
X179029458Y-100670608D01*
X179162408Y-100537658D01*
X179266867Y-100381325D01*
X179322439Y-100247162D01*
X179366280Y-100192758D01*
X179432574Y-100170693D01*
X179500273Y-100187972D01*
X179547884Y-100239109D01*
X179551561Y-100247162D01*
X179607129Y-100381318D01*
X179607136Y-100381331D01*
X179711591Y-100537657D01*
X179711594Y-100537661D01*
X179844538Y-100670605D01*
X179844542Y-100670608D01*
X180000868Y-100775063D01*
X180000881Y-100775070D01*
X180171022Y-100845544D01*
X180174583Y-100847019D01*
X180358985Y-100883699D01*
X180358988Y-100883700D01*
X180358990Y-100883700D01*
X180547012Y-100883700D01*
X180547013Y-100883699D01*
X180731417Y-100847019D01*
X180905125Y-100775067D01*
X181061458Y-100670608D01*
X181194408Y-100537658D01*
X181298867Y-100381325D01*
X181370819Y-100207617D01*
X181379247Y-100165243D01*
X181388036Y-100138001D01*
X181390255Y-100133129D01*
X181390264Y-100133116D01*
X181753169Y-99071909D01*
X181782812Y-99024357D01*
X182069979Y-98737190D01*
X182131301Y-98703708D01*
X182157659Y-98700874D01*
X182746158Y-98700874D01*
X182813197Y-98720559D01*
G37*
%TD.AperFunction*%
%TA.AperFunction,Conductor*%
G36*
X184897646Y-94640897D02*
G01*
X184964670Y-94660626D01*
X185010390Y-94713461D01*
X185020287Y-94782626D01*
X184991220Y-94846162D01*
X184959561Y-94872284D01*
X184899702Y-94906843D01*
X184899686Y-94906854D01*
X184662788Y-95088632D01*
X184662781Y-95088638D01*
X184451638Y-95299781D01*
X184451632Y-95299788D01*
X184269854Y-95536686D01*
X184269844Y-95536701D01*
X184120541Y-95795301D01*
X184120534Y-95795315D01*
X184006267Y-96071182D01*
X183928976Y-96359634D01*
X183890001Y-96655681D01*
X183890000Y-96655698D01*
X183890000Y-97190000D01*
X184898000Y-97190000D01*
X184898000Y-97690000D01*
X183890000Y-97690000D01*
X183890000Y-98224301D01*
X183890001Y-98224318D01*
X183928976Y-98520365D01*
X183978314Y-98704495D01*
X183976651Y-98774345D01*
X183937489Y-98832208D01*
X183873260Y-98859712D01*
X183804358Y-98848126D01*
X183770858Y-98824270D01*
X183106503Y-98159915D01*
X183106495Y-98159909D01*
X183037986Y-98120356D01*
X183037981Y-98120353D01*
X183012504Y-98113526D01*
X182961553Y-98099874D01*
X181942264Y-98099874D01*
X181904050Y-98110113D01*
X181865835Y-98120353D01*
X181865830Y-98120356D01*
X181797321Y-98159909D01*
X181797313Y-98159915D01*
X181357847Y-98599380D01*
X181310290Y-98629028D01*
X180249078Y-98991935D01*
X180244454Y-98993950D01*
X180244148Y-98993249D01*
X180217243Y-99002894D01*
X180174585Y-99011380D01*
X180174580Y-99011381D01*
X180000881Y-99083329D01*
X180000868Y-99083336D01*
X179844542Y-99187791D01*
X179844538Y-99187794D01*
X179711594Y-99320738D01*
X179711591Y-99320742D01*
X179607136Y-99477068D01*
X179607131Y-99477077D01*
X179551561Y-99611238D01*
X179507720Y-99665641D01*
X179441426Y-99687706D01*
X179373727Y-99670427D01*
X179326116Y-99619290D01*
X179322439Y-99611238D01*
X179266868Y-99477077D01*
X179266863Y-99477068D01*
X179162408Y-99320742D01*
X179162405Y-99320738D01*
X179029461Y-99187794D01*
X179029457Y-99187791D01*
X178873131Y-99083336D01*
X178873118Y-99083329D01*
X178835049Y-99067561D01*
X178780645Y-99023720D01*
X178758580Y-98957426D01*
X178775859Y-98889727D01*
X178826996Y-98842116D01*
X178882501Y-98829000D01*
X179078301Y-98829000D01*
X179078318Y-98828998D01*
X179374365Y-98790023D01*
X179662817Y-98712732D01*
X179938684Y-98598465D01*
X179938698Y-98598458D01*
X180197298Y-98449155D01*
X180197315Y-98449144D01*
X180353637Y-98329192D01*
X180353637Y-98329190D01*
X179633443Y-97608997D01*
X179756349Y-97519702D01*
X179897702Y-97378349D01*
X179986997Y-97255444D01*
X180707190Y-97975637D01*
X180707192Y-97975637D01*
X180827144Y-97819315D01*
X180827155Y-97819298D01*
X180976458Y-97560698D01*
X180976465Y-97560684D01*
X181090732Y-97284817D01*
X181168023Y-96996365D01*
X181206998Y-96700318D01*
X181207000Y-96700301D01*
X181207000Y-96401698D01*
X181206998Y-96401681D01*
X181168023Y-96105634D01*
X181090732Y-95817182D01*
X180976465Y-95541315D01*
X180976458Y-95541301D01*
X180827155Y-95282701D01*
X180827150Y-95282694D01*
X180707191Y-95126361D01*
X179986997Y-95846555D01*
X179897702Y-95723651D01*
X179756349Y-95582298D01*
X179633443Y-95493002D01*
X180353638Y-94772807D01*
X180353458Y-94770061D01*
X180368715Y-94701877D01*
X180418413Y-94652767D01*
X180477271Y-94637950D01*
X184897646Y-94640897D01*
G37*
%TD.AperFunction*%
%TA.AperFunction,Conductor*%
G36*
X198875866Y-94650216D02*
G01*
X198942891Y-94669945D01*
X198988611Y-94722780D01*
X198999782Y-94774133D01*
X199000680Y-96122261D01*
X198981040Y-96189314D01*
X198928267Y-96235104D01*
X198859115Y-96245094D01*
X198814680Y-96229731D01*
X198791457Y-96216323D01*
X198791454Y-96216322D01*
X198664160Y-96182214D01*
X198573237Y-96182214D01*
X198557007Y-96177695D01*
X198541666Y-96178128D01*
X198519484Y-96167249D01*
X198509161Y-96164375D01*
X198498412Y-96157887D01*
X198495017Y-96154492D01*
X198443678Y-96124851D01*
X198442632Y-96124220D01*
X198441496Y-96122981D01*
X198419027Y-96105740D01*
X197840267Y-95526980D01*
X197840259Y-95526974D01*
X197771750Y-95487421D01*
X197771745Y-95487418D01*
X197746268Y-95480591D01*
X197695317Y-95466939D01*
X195334160Y-95466939D01*
X195255036Y-95466939D01*
X195178608Y-95487417D01*
X195110087Y-95526979D01*
X195110084Y-95526981D01*
X194692856Y-95944208D01*
X194631533Y-95977693D01*
X194561841Y-95972709D01*
X194505908Y-95930837D01*
X194485401Y-95888623D01*
X194454255Y-95772381D01*
X194388363Y-95658253D01*
X194295177Y-95565067D01*
X194229198Y-95526974D01*
X194181050Y-95499175D01*
X194060741Y-95466939D01*
X194053755Y-95465067D01*
X193921971Y-95465067D01*
X193794675Y-95499175D01*
X193680549Y-95565067D01*
X193680546Y-95565069D01*
X193587365Y-95658250D01*
X193587361Y-95658256D01*
X193533291Y-95751905D01*
X193482723Y-95800120D01*
X193414116Y-95813341D01*
X193349252Y-95787372D01*
X193338224Y-95777584D01*
X192418290Y-94857650D01*
X192384805Y-94796327D01*
X192389789Y-94726635D01*
X192431661Y-94670702D01*
X192497125Y-94646285D01*
X192506027Y-94645969D01*
X198875866Y-94650216D01*
G37*
%TD.AperFunction*%
%TD*%
%TA.AperFunction,Conductor*%
%TO.N,+5V*%
G36*
X177803838Y-99516906D02*
G01*
X177805029Y-99517601D01*
X177811693Y-99522041D01*
X178419759Y-99927195D01*
X178423006Y-99930442D01*
X178832598Y-100545170D01*
X178834333Y-100553955D01*
X178829349Y-100561395D01*
X178828158Y-100562090D01*
X177584627Y-101193560D01*
X177575699Y-101194250D01*
X177571057Y-101191401D01*
X177158798Y-100779142D01*
X177155371Y-100770869D01*
X177156639Y-100765572D01*
X177260321Y-100561395D01*
X177788110Y-99522039D01*
X177794910Y-99516216D01*
X177803838Y-99516906D01*
G37*
%TD.AperFunction*%
%TD*%
%TA.AperFunction,Conductor*%
%TO.N,/R-OUT*%
G36*
X182112987Y-102578455D02*
G01*
X182836536Y-102721549D01*
X182843987Y-102726516D01*
X182844003Y-102726539D01*
X183252291Y-103339308D01*
X183254026Y-103348093D01*
X183249042Y-103355533D01*
X183247983Y-103356160D01*
X182049198Y-103984105D01*
X182040279Y-103984908D01*
X182035496Y-103982014D01*
X181904370Y-103850888D01*
X181900943Y-103842615D01*
X181901085Y-103840801D01*
X182099189Y-102588107D01*
X182103865Y-102580474D01*
X182112572Y-102578382D01*
X182112987Y-102578455D01*
G37*
%TD.AperFunction*%
%TD*%
%TA.AperFunction,Conductor*%
%TO.N,/G-OUT*%
G36*
X183578750Y-99785864D02*
G01*
X183583350Y-99791920D01*
X183628472Y-99928729D01*
X183871670Y-100666096D01*
X183954776Y-100918068D01*
X183954113Y-100926998D01*
X183951938Y-100930006D01*
X183820832Y-101061112D01*
X183812559Y-101064539D01*
X183808651Y-101063867D01*
X182703033Y-100672089D01*
X182696380Y-100666096D01*
X182695463Y-100658794D01*
X182838373Y-99936178D01*
X182843339Y-99928729D01*
X182847576Y-99926973D01*
X183569971Y-99784107D01*
X183578750Y-99785864D01*
G37*
%TD.AperFunction*%
%TD*%
%TA.AperFunction,Conductor*%
%TO.N,/B-OUT*%
G36*
X181440396Y-98805342D02*
G01*
X181443518Y-98807574D01*
X181574625Y-98938681D01*
X181578052Y-98946954D01*
X181577423Y-98950740D01*
X181195820Y-100066621D01*
X181189900Y-100073340D01*
X181182479Y-100074313D01*
X180459980Y-99931427D01*
X180452529Y-99926460D01*
X180450773Y-99922221D01*
X180307886Y-99199719D01*
X180309643Y-99190939D01*
X180315578Y-99186379D01*
X181431462Y-98804776D01*
X181440396Y-98805342D01*
G37*
%TD.AperFunction*%
%TD*%
M02*
