%TF.GenerationSoftware,KiCad,Pcbnew,9.0.0*%
%TF.CreationDate,2025-11-21T22:21:23-08:00*%
%TF.ProjectId,MegaAV_CE_VA0,4d656761-4156-45f4-9345-5f5641302e6b,rev?*%
%TF.SameCoordinates,Original*%
%TF.FileFunction,Copper,L3,Inr*%
%TF.FilePolarity,Positive*%
%FSLAX46Y46*%
G04 Gerber Fmt 4.6, Leading zero omitted, Abs format (unit mm)*
G04 Created by KiCad (PCBNEW 9.0.0) date 2025-11-21 22:21:23*
%MOMM*%
%LPD*%
G01*
G04 APERTURE LIST*
%TA.AperFunction,ComponentPad*%
%ADD10C,1.508000*%
%TD*%
%TA.AperFunction,ComponentPad*%
%ADD11O,3.556000X4.826000*%
%TD*%
%TA.AperFunction,ComponentPad*%
%ADD12C,3.556000*%
%TD*%
%TA.AperFunction,ViaPad*%
%ADD13C,0.600000*%
%TD*%
%TA.AperFunction,Conductor*%
%ADD14C,0.600000*%
%TD*%
%TA.AperFunction,Conductor*%
%ADD15C,0.200000*%
%TD*%
%TA.AperFunction,Conductor*%
%ADD16C,0.350000*%
%TD*%
G04 APERTURE END LIST*
D10*
%TO.N,/B-OUT*%
%TO.C,CN1*%
X180453000Y-99929200D03*
%TO.N,+5V*%
X178421000Y-99929200D03*
%TO.N,/G-OUT*%
X182840600Y-99929200D03*
%TO.N,/CV-OUT*%
X180884800Y-102723200D03*
%TO.N,/CSync*%
X178929000Y-102723200D03*
%TO.N,/AUD-M*%
X175017400Y-99929200D03*
%TO.N,/R-OUT*%
X182840600Y-102723200D03*
%TO.N,/AUD-L*%
X176973200Y-102723200D03*
%TO.N,/AUD-R*%
X175017400Y-102723200D03*
D11*
%TO.N,GND*%
X171690000Y-97440000D03*
D12*
X178929000Y-96551000D03*
D11*
X186168000Y-97440000D03*
%TD*%
D13*
%TO.N,+5V*%
X191510000Y-141500000D03*
X195550000Y-132025000D03*
X187742485Y-109517739D03*
X185773858Y-125547964D03*
X177691303Y-113704907D03*
X199402812Y-117399522D03*
X187537768Y-132006155D03*
X191454700Y-133700982D03*
X172375000Y-138675000D03*
X171775000Y-136300000D03*
%TO.N,/B-IN*%
X176391012Y-134075382D03*
X185193582Y-136247138D03*
%TO.N,GND*%
X177094344Y-130752519D03*
X173301516Y-119592818D03*
X181625317Y-100588160D03*
X194613953Y-129136020D03*
X202425000Y-110850000D03*
X197901106Y-125938898D03*
X194275000Y-135800000D03*
X209825000Y-130475000D03*
X214953331Y-113562060D03*
X201275000Y-138650000D03*
X196365169Y-128995877D03*
X193025000Y-141100000D03*
X201750000Y-142825000D03*
X207073590Y-116534601D03*
X170762501Y-130142693D03*
X201250000Y-136625000D03*
X193379673Y-110595193D03*
X188892261Y-110656019D03*
X193250000Y-138050000D03*
X173500000Y-138525000D03*
X173774230Y-130761461D03*
X209775000Y-126525000D03*
X212973019Y-122926510D03*
X172699660Y-105916949D03*
X215116769Y-118010582D03*
X189488912Y-105477346D03*
X204675000Y-110575000D03*
X200204630Y-125602951D03*
X213250000Y-120950000D03*
X206831150Y-132295475D03*
X193969937Y-95108534D03*
X205997309Y-119949388D03*
X190550000Y-137200000D03*
X199925000Y-135800000D03*
X193542948Y-97634681D03*
X177600000Y-138900000D03*
X215195558Y-127202509D03*
X202286242Y-116695378D03*
X204719468Y-118402952D03*
X198700000Y-139375000D03*
X186470026Y-105469509D03*
X214588528Y-119483156D03*
X197325000Y-142900000D03*
X180490139Y-110082523D03*
X209900000Y-133225000D03*
X203125000Y-141075000D03*
X180203577Y-107588219D03*
X217575000Y-129875000D03*
X180049265Y-136049265D03*
X202525000Y-138700000D03*
X199525000Y-143025000D03*
%TO.N,/PSG*%
X177190000Y-136570000D03*
X209700000Y-127750000D03*
X199675000Y-133875000D03*
%TO.N,/32X_L*%
X208538235Y-131788235D03*
X195400000Y-141130000D03*
X181160000Y-138720000D03*
%TO.N,/32X_R*%
X196725000Y-140975000D03*
X191725000Y-136425000D03*
X193775000Y-133709136D03*
X210000000Y-125125000D03*
%TO.N,/FM_R*%
X198239513Y-136415852D03*
X197300000Y-138075000D03*
%TO.N,/FM_L*%
X191050000Y-137950000D03*
X181077179Y-135989320D03*
%TO.N,/G-IN*%
X186200000Y-136258982D03*
X174407745Y-134143738D03*
%TO.N,/R-OUT*%
X172303782Y-111986404D03*
%TO.N,/G-OUT*%
X173839579Y-112247059D03*
%TO.N,/B-OUT*%
X175116940Y-116452775D03*
%TO.N,/CSync*%
X170160091Y-128789494D03*
X173198549Y-136254603D03*
X186845655Y-125535239D03*
%TO.N,/R-IN*%
X173298838Y-133716967D03*
X187198275Y-136237971D03*
%TO.N,/CD_R*%
X176560000Y-138690000D03*
X199900000Y-140610000D03*
X209216282Y-117498666D03*
%TO.N,/CD_L*%
X200700000Y-143250000D03*
X208094712Y-115366674D03*
%TO.N,/AUD-R*%
X192042578Y-110569305D03*
%TO.N,/AUD-L*%
X188871111Y-106598357D03*
%TO.N,/AUD-M*%
X193427897Y-109313773D03*
%TO.N,Net-(C3-Pad2)*%
X190092677Y-122614522D03*
X198364656Y-133631002D03*
%TO.N,Net-(U3A-+)*%
X186862097Y-116379608D03*
X191212832Y-124673509D03*
%TO.N,Net-(U3B--)*%
X201034177Y-126580443D03*
X193076435Y-129712469D03*
%TO.N,Net-(SR3-Pin_1)*%
X213250000Y-122000000D03*
X203675000Y-125950000D03*
X204685996Y-117455215D03*
X196430689Y-122091530D03*
%TO.N,Net-(SL3-Pin_1)*%
X214725000Y-120625000D03*
X200584067Y-129709743D03*
X205950000Y-116250000D03*
%TO.N,Net-(U7A--)*%
X202290000Y-115289530D03*
X198827041Y-119458126D03*
X200096273Y-115430582D03*
%TO.N,/SR*%
X201167506Y-114545190D03*
X214425000Y-117410000D03*
X208222961Y-117470685D03*
%TO.N,/SL*%
X211185045Y-112983451D03*
X200981953Y-110299000D03*
X197925000Y-111700000D03*
%TO.N,/V_REF*%
X195386982Y-105595793D03*
X191368159Y-102522355D03*
X195757520Y-124028946D03*
X189135019Y-127456707D03*
X196050000Y-115543583D03*
X196050000Y-117028337D03*
%TO.N,/HP_R*%
X189775000Y-97500000D03*
X208724265Y-133299265D03*
%TO.N,Net-(HPR_SL2-Pin_1)*%
X216695092Y-129920666D03*
X201803224Y-114038833D03*
X190546398Y-104462119D03*
%TO.N,Net-(C42-Pad1)*%
X194991770Y-112262760D03*
X199925591Y-114517131D03*
%TO.N,Net-(HPL_SL2-Pin_1)*%
X197059666Y-112096792D03*
X191749616Y-105751282D03*
X216895710Y-125307108D03*
%TO.N,/HP_L*%
X204191072Y-131620256D03*
X198175793Y-100830125D03*
%TO.N,Net-(C49-Pad2)*%
X178186032Y-107845904D03*
X180285868Y-109012400D03*
%TO.N,Net-(MD1_PU1-A)*%
X178386652Y-131177421D03*
X173192889Y-131995307D03*
X188611412Y-121543364D03*
%TO.N,Net-(U7C--)*%
X194921571Y-114204640D03*
X200137134Y-113274203D03*
%TO.N,Net-(FMR_1-C)*%
X207328986Y-117322028D03*
X196080116Y-119496794D03*
X210221193Y-120729900D03*
X190531994Y-116773797D03*
X201964981Y-119264912D03*
%TO.N,Net-(FML_2-C)*%
X201880624Y-128750269D03*
X203548650Y-123885916D03*
%TO.N,Net-(FMR_2-C)*%
X204434383Y-126558380D03*
X206226000Y-123459000D03*
%TO.N,Net-(HPL_RES2-C)*%
X198057403Y-106977201D03*
X217875000Y-112675000D03*
X191860629Y-104445152D03*
X216375000Y-123775000D03*
%TO.N,Net-(HPR_RES2-C)*%
X187922100Y-103220440D03*
X197077945Y-101227358D03*
X217425000Y-123700000D03*
X217850000Y-117475000D03*
%TO.N,Net-(C1-Pad2)*%
X170860799Y-103077144D03*
X178387143Y-127660828D03*
%TO.N,Net-(C46-Pad1)*%
X182297752Y-106885737D03*
X174472952Y-110850351D03*
%TO.N,Net-(C47-Pad1)*%
X193987863Y-95965567D03*
X196948268Y-96682714D03*
%TO.N,Net-(IC1-VREF)*%
X184055069Y-117228083D03*
X184019708Y-109713613D03*
%TO.N,Net-(IC1-COUT)*%
X198572452Y-97834544D03*
X182787931Y-116171888D03*
%TO.N,Net-(IC1-YOUT)*%
X181496020Y-116081905D03*
X198598268Y-96682714D03*
%TO.N,/REGION*%
X171641264Y-107141486D03*
X178937308Y-120790781D03*
X189053494Y-136168479D03*
%TD*%
D14*
%TO.N,+5V*%
X170674000Y-109533786D02*
X170670768Y-109530554D01*
X171580000Y-113170000D02*
X170674000Y-112264000D01*
X171749000Y-133425000D02*
X171749000Y-126625000D01*
X199917703Y-121844898D02*
X199917703Y-117914413D01*
X171749000Y-138049000D02*
X171749000Y-133425000D01*
X195550000Y-126212601D02*
X199917703Y-121844898D01*
X172400000Y-118125000D02*
X171575000Y-117300000D01*
X177691303Y-117691483D02*
X177691303Y-113704907D01*
X171749000Y-123633786D02*
X171749000Y-126625000D01*
X171575000Y-117300000D02*
X171580000Y-117295000D01*
X191160000Y-141150000D02*
X174850000Y-141150000D01*
X172400000Y-122982786D02*
X171749000Y-123633786D01*
X170670768Y-105010993D02*
X174497561Y-101184200D01*
X174497561Y-101184200D02*
X177166000Y-101184200D01*
X199917703Y-117914413D02*
X199402812Y-117399522D01*
X191510000Y-141500000D02*
X191160000Y-141150000D01*
X174850000Y-141150000D02*
X171749000Y-138049000D01*
X170670768Y-109530554D02*
X170670768Y-105010993D01*
X170674000Y-112264000D02*
X170674000Y-109533786D01*
X172400000Y-122982786D02*
X172400000Y-118125000D01*
X177166000Y-101184200D02*
X178421000Y-99929200D01*
X195550000Y-137100000D02*
X195550000Y-132025000D01*
X191510000Y-141500000D02*
X191510000Y-141140000D01*
X191510000Y-141140000D02*
X195550000Y-137100000D01*
X171580000Y-117295000D02*
X171580000Y-113170000D01*
X172400000Y-122982786D02*
X177691303Y-117691483D01*
X195550000Y-132025000D02*
X195550000Y-126212601D01*
D15*
%TO.N,/R-OUT*%
X175640786Y-104256409D02*
X181631845Y-104256409D01*
X181631845Y-104256409D02*
X182840600Y-103047654D01*
X173813405Y-109131838D02*
X173813405Y-106083790D01*
X172303782Y-111986404D02*
X172628956Y-111661229D01*
X172628956Y-111661229D02*
X172628956Y-110316287D01*
X172628956Y-110316287D02*
X173813405Y-109131838D01*
X173813405Y-106083790D02*
X175640786Y-104256409D01*
X182840600Y-103047654D02*
X182840600Y-102723200D01*
%TO.N,/G-OUT*%
X173852457Y-112234181D02*
X173839579Y-112247059D01*
X176599265Y-105196457D02*
X174998671Y-106797051D01*
X184398989Y-101508290D02*
X184398989Y-103235524D01*
X182840600Y-99949901D02*
X184398989Y-101508290D01*
X174998671Y-106797051D02*
X174998671Y-109267229D01*
X174998671Y-109267229D02*
X173852457Y-110413443D01*
X182840600Y-99929200D02*
X182840600Y-99949901D01*
X173852457Y-110413443D02*
X173852457Y-112234181D01*
X184398989Y-103235524D02*
X182438056Y-105196457D01*
X182438056Y-105196457D02*
X176599265Y-105196457D01*
%TO.N,/B-OUT*%
X182921991Y-98400374D02*
X181981826Y-98400374D01*
X177476230Y-106145062D02*
X182837152Y-106145062D01*
X181981826Y-98400374D02*
X180453000Y-99929200D01*
X185304370Y-103677844D02*
X185304370Y-100782753D01*
X176080893Y-109801836D02*
X176080893Y-107540399D01*
X175085603Y-115609188D02*
X175085603Y-110797126D01*
X185304370Y-100782753D02*
X182921991Y-98400374D01*
X182837152Y-106145062D02*
X185304370Y-103677844D01*
X175116940Y-116452775D02*
X175107702Y-116443537D01*
X175107702Y-115631287D02*
X175085603Y-115609188D01*
X175107702Y-116443537D02*
X175107702Y-115631287D01*
X176080893Y-107540399D02*
X177476230Y-106145062D01*
X175085603Y-110797126D02*
X176080893Y-109801836D01*
%TO.N,/CSync*%
X186845655Y-125535239D02*
X179837418Y-132543476D01*
X179837418Y-132543476D02*
X176909676Y-132543476D01*
X176909676Y-132543476D02*
X173198549Y-136254603D01*
%TO.N,Net-(U7A--)*%
X202290000Y-115289530D02*
X200237325Y-115289530D01*
X200237325Y-115289530D02*
X200096273Y-115430582D01*
D16*
%TO.N,/V_REF*%
X195035732Y-105244543D02*
X195035732Y-104485992D01*
X195386982Y-105595793D02*
X195035732Y-105244543D01*
X194706902Y-104168372D02*
X193060885Y-102522355D01*
X194718112Y-104168372D02*
X194706902Y-104168372D01*
X195035732Y-104485992D02*
X194718112Y-104168372D01*
X193060885Y-102522355D02*
X191368159Y-102522355D01*
D15*
%TO.N,Net-(HPR_SL2-Pin_1)*%
X201810608Y-114022052D02*
X201828788Y-114003872D01*
X191370341Y-103638176D02*
X190546398Y-104462119D01*
X201828788Y-114003872D02*
X201828788Y-114003788D01*
X192613176Y-103638176D02*
X191370341Y-103638176D01*
X201810608Y-114031449D02*
X201810608Y-114022052D01*
X194025000Y-105050000D02*
X192613176Y-103638176D01*
X201828788Y-114003788D02*
X194025000Y-106200000D01*
X201803224Y-114038833D02*
X201810608Y-114031449D01*
X194025000Y-106200000D02*
X194025000Y-105050000D01*
%TO.N,Net-(C42-Pad1)*%
X194879668Y-112262760D02*
X194991770Y-112262760D01*
X193455985Y-113686443D02*
X194879668Y-112262760D01*
X199897532Y-114545190D02*
X199556370Y-114545190D01*
X193455985Y-115086253D02*
X193455985Y-113686443D01*
X194776494Y-116406762D02*
X193455985Y-115086253D01*
X199556370Y-114545190D02*
X197694798Y-116406762D01*
X199925591Y-114517131D02*
X199897532Y-114545190D01*
X197694798Y-116406762D02*
X194776494Y-116406762D01*
%TO.N,Net-(HPL_SL2-Pin_1)*%
X197059666Y-111684609D02*
X193072100Y-107697043D01*
X197059666Y-112096792D02*
X197059666Y-111684609D01*
X193072100Y-107073766D02*
X191749616Y-105751282D01*
X193072100Y-107697043D02*
X193072100Y-107073766D01*
%TO.N,Net-(MD1_PU1-A)*%
X187480811Y-121543364D02*
X188611412Y-121543364D01*
X178386652Y-130637523D02*
X187480811Y-121543364D01*
X178386652Y-131177421D02*
X178386652Y-130637523D01*
%TO.N,Net-(U7C--)*%
X199561308Y-113526635D02*
X195599576Y-113526635D01*
X199813740Y-113274203D02*
X199561308Y-113526635D01*
X195599576Y-113526635D02*
X194921571Y-114204640D01*
X200137134Y-113274203D02*
X199813740Y-113274203D01*
%TO.N,Net-(FMR_1-C)*%
X190531994Y-116773797D02*
X193254991Y-119496794D01*
X193254991Y-119496794D02*
X196080116Y-119496794D01*
%TO.N,Net-(FML_2-C)*%
X201913841Y-128666193D02*
X201913841Y-125557257D01*
X203548650Y-123922448D02*
X203548650Y-123885916D01*
X201880624Y-128699410D02*
X201913841Y-128666193D01*
X201913841Y-125557257D02*
X203548650Y-123922448D01*
X201880624Y-128750269D02*
X201880624Y-128699410D01*
%TO.N,Net-(HPR_RES2-C)*%
X188300000Y-101701704D02*
X189264205Y-100737499D01*
X188300000Y-102842540D02*
X188300000Y-101701704D01*
X196588086Y-100737499D02*
X197077945Y-101227358D01*
X189264205Y-100737499D02*
X196588086Y-100737499D01*
X187922100Y-103220440D02*
X188300000Y-102842540D01*
%TO.N,Net-(IC1-VREF)*%
X184019708Y-115325809D02*
X184019708Y-109713613D01*
X184055069Y-117228083D02*
X184055069Y-115361170D01*
X184055069Y-115361170D02*
X184019708Y-115325809D01*
%TO.N,Net-(IC1-COUT)*%
X198572452Y-97834544D02*
X198452402Y-97954594D01*
X198452402Y-97954594D02*
X198257452Y-97954594D01*
%TO.N,Net-(IC1-YOUT)*%
X189852006Y-95070375D02*
X188971821Y-95950560D01*
X186537482Y-104037281D02*
X181958663Y-108616100D01*
X192206044Y-95070375D02*
X189852006Y-95070375D01*
X186537482Y-101260896D02*
X186537482Y-104037281D01*
X181958663Y-108616100D02*
X181958663Y-115619262D01*
X188971821Y-98826557D02*
X186537482Y-101260896D01*
X195294598Y-95767439D02*
X194479997Y-96582040D01*
X198598268Y-96682714D02*
X198310506Y-96394952D01*
X198283268Y-96394952D02*
X197655755Y-95767439D01*
X181958663Y-115619262D02*
X181496020Y-116081905D01*
X197655755Y-95767439D02*
X195294598Y-95767439D01*
X193717709Y-96582040D02*
X192206044Y-95070375D01*
X188971821Y-95950560D02*
X188971821Y-98826557D01*
X194479997Y-96582040D02*
X193717709Y-96582040D01*
X198310506Y-96394952D02*
X198283268Y-96394952D01*
%TD*%
%TA.AperFunction,Conductor*%
%TO.N,/B-OUT*%
G36*
X181440396Y-98805342D02*
G01*
X181443518Y-98807574D01*
X181574625Y-98938681D01*
X181578052Y-98946954D01*
X181577423Y-98950740D01*
X181195820Y-100066621D01*
X181189900Y-100073340D01*
X181182479Y-100074313D01*
X180459980Y-99931427D01*
X180452529Y-99926460D01*
X180450773Y-99922221D01*
X180307886Y-99199719D01*
X180309643Y-99190939D01*
X180315578Y-99186379D01*
X181431462Y-98804776D01*
X181440396Y-98805342D01*
G37*
%TD.AperFunction*%
%TD*%
%TA.AperFunction,Conductor*%
%TO.N,+5V*%
G36*
X177803838Y-99516906D02*
G01*
X177805029Y-99517601D01*
X177811693Y-99522041D01*
X178419759Y-99927195D01*
X178423006Y-99930442D01*
X178832598Y-100545170D01*
X178834333Y-100553955D01*
X178829349Y-100561395D01*
X178828158Y-100562090D01*
X177584627Y-101193560D01*
X177575699Y-101194250D01*
X177571057Y-101191401D01*
X177158798Y-100779142D01*
X177155371Y-100770869D01*
X177156639Y-100765572D01*
X177260321Y-100561395D01*
X177788110Y-99522039D01*
X177794910Y-99516216D01*
X177803838Y-99516906D01*
G37*
%TD.AperFunction*%
%TD*%
%TA.AperFunction,Conductor*%
%TO.N,/V_REF*%
G36*
X195213457Y-105148634D02*
G01*
X195542903Y-105340104D01*
X195548334Y-105347224D01*
X195547140Y-105356099D01*
X195546764Y-105356702D01*
X195388286Y-105594832D01*
X195385019Y-105598096D01*
X195149027Y-105754835D01*
X195140240Y-105756558D01*
X195132808Y-105751562D01*
X195131884Y-105749888D01*
X194950376Y-105346352D01*
X194868152Y-105163548D01*
X194867884Y-105154599D01*
X194874024Y-105148080D01*
X194878823Y-105147050D01*
X195207578Y-105147050D01*
X195213457Y-105148634D01*
G37*
%TD.AperFunction*%
%TD*%
%TA.AperFunction,Conductor*%
%TO.N,GND*%
G36*
X177381026Y-94635886D02*
G01*
X177448050Y-94655615D01*
X177493770Y-94708450D01*
X177504676Y-94767994D01*
X177504360Y-94772806D01*
X178224556Y-95493002D01*
X178101651Y-95582298D01*
X177960298Y-95723651D01*
X177871002Y-95846556D01*
X177150807Y-95126361D01*
X177150806Y-95126361D01*
X177030851Y-95282690D01*
X176881541Y-95541301D01*
X176881534Y-95541315D01*
X176767267Y-95817182D01*
X176689976Y-96105634D01*
X176651001Y-96401681D01*
X176651000Y-96401698D01*
X176651000Y-96700301D01*
X176651001Y-96700318D01*
X176689976Y-96996365D01*
X176767267Y-97284817D01*
X176881534Y-97560684D01*
X176881541Y-97560698D01*
X177030844Y-97819298D01*
X177030849Y-97819305D01*
X177150807Y-97975637D01*
X177871001Y-97255443D01*
X177960298Y-97378349D01*
X178101651Y-97519702D01*
X178224555Y-97608997D01*
X177504361Y-98329191D01*
X177660694Y-98449150D01*
X177660701Y-98449155D01*
X177919301Y-98598458D01*
X177919315Y-98598465D01*
X178195182Y-98712732D01*
X178298778Y-98740491D01*
X178358438Y-98776856D01*
X178388967Y-98839703D01*
X178380672Y-98909079D01*
X178336187Y-98962957D01*
X178290875Y-98981883D01*
X178142590Y-99011379D01*
X178142578Y-99011382D01*
X177968881Y-99083329D01*
X177968868Y-99083336D01*
X177812542Y-99187791D01*
X177812538Y-99187794D01*
X177679598Y-99320735D01*
X177679595Y-99320737D01*
X177623388Y-99404855D01*
X177623387Y-99404854D01*
X177620713Y-99408854D01*
X177604881Y-99428994D01*
X177597355Y-99443812D01*
X177593241Y-99449969D01*
X177593242Y-99449969D01*
X177575133Y-99477073D01*
X177553368Y-99529616D01*
X177549370Y-99538305D01*
X177002193Y-100615844D01*
X176954288Y-100666705D01*
X176891631Y-100683700D01*
X175893214Y-100683700D01*
X175826175Y-100664015D01*
X175780420Y-100611211D01*
X175770476Y-100542053D01*
X175790112Y-100490809D01*
X175863263Y-100381331D01*
X175863263Y-100381330D01*
X175863267Y-100381325D01*
X175935219Y-100207617D01*
X175971900Y-100023210D01*
X175971900Y-99835190D01*
X175971900Y-99835187D01*
X175971899Y-99835185D01*
X175963182Y-99791361D01*
X175935219Y-99650783D01*
X175905987Y-99580211D01*
X175863270Y-99477081D01*
X175863263Y-99477068D01*
X175758808Y-99320742D01*
X175758805Y-99320738D01*
X175625861Y-99187794D01*
X175625857Y-99187791D01*
X175469531Y-99083336D01*
X175469518Y-99083329D01*
X175295821Y-99011382D01*
X175295809Y-99011379D01*
X175111413Y-98974700D01*
X175111410Y-98974700D01*
X174923390Y-98974700D01*
X174923387Y-98974700D01*
X174738990Y-99011379D01*
X174738978Y-99011382D01*
X174565281Y-99083329D01*
X174565268Y-99083336D01*
X174408942Y-99187791D01*
X174408938Y-99187794D01*
X174275994Y-99320738D01*
X174275991Y-99320742D01*
X174171536Y-99477068D01*
X174171529Y-99477081D01*
X174099582Y-99650778D01*
X174099579Y-99650790D01*
X174062900Y-99835185D01*
X174062900Y-100023214D01*
X174099579Y-100207609D01*
X174099582Y-100207621D01*
X174171529Y-100381318D01*
X174171536Y-100381331D01*
X174275991Y-100537657D01*
X174275994Y-100537661D01*
X174286322Y-100547989D01*
X174319807Y-100609312D01*
X174314823Y-100679004D01*
X174272951Y-100734937D01*
X174260642Y-100743057D01*
X174190247Y-100783700D01*
X174190244Y-100783702D01*
X171478987Y-103494959D01*
X171417664Y-103528444D01*
X171347972Y-103523460D01*
X171292039Y-103481588D01*
X171267622Y-103416124D01*
X171282474Y-103347851D01*
X171283920Y-103345277D01*
X171288309Y-103337676D01*
X171327191Y-103270330D01*
X171361299Y-103143036D01*
X171361299Y-103011252D01*
X171327191Y-102883958D01*
X171326119Y-102882102D01*
X171295847Y-102829669D01*
X171261299Y-102769830D01*
X171168113Y-102676644D01*
X171111049Y-102643698D01*
X171053986Y-102610752D01*
X170969994Y-102588247D01*
X170926691Y-102576644D01*
X170794907Y-102576644D01*
X170667611Y-102610752D01*
X170553485Y-102676644D01*
X170553482Y-102676646D01*
X170460301Y-102769827D01*
X170460299Y-102769830D01*
X170394407Y-102883956D01*
X170374426Y-102958529D01*
X170360299Y-103011252D01*
X170360299Y-103143036D01*
X170368951Y-103175325D01*
X170394407Y-103270331D01*
X170422919Y-103319714D01*
X170460299Y-103384458D01*
X170553485Y-103477644D01*
X170641473Y-103528444D01*
X170667609Y-103543534D01*
X170667613Y-103543536D01*
X170794907Y-103577644D01*
X170794909Y-103577644D01*
X170926689Y-103577644D01*
X170926691Y-103577644D01*
X171053985Y-103543536D01*
X171128932Y-103500264D01*
X171196832Y-103483791D01*
X171262859Y-103506643D01*
X171306050Y-103561563D01*
X171312692Y-103631117D01*
X171280677Y-103693220D01*
X171278614Y-103695332D01*
X170363454Y-104610493D01*
X170270270Y-104703676D01*
X170270268Y-104703679D01*
X170204376Y-104817805D01*
X170170268Y-104945101D01*
X170170268Y-109596444D01*
X170171329Y-109604502D01*
X170170832Y-109604567D01*
X170173500Y-109624832D01*
X170173500Y-112329891D01*
X170207608Y-112457187D01*
X170230763Y-112497291D01*
X170273500Y-112571314D01*
X170273502Y-112571316D01*
X171043181Y-113340995D01*
X171076666Y-113402318D01*
X171079500Y-113428676D01*
X171079500Y-117199124D01*
X171075276Y-117231209D01*
X171074500Y-117234108D01*
X171074500Y-117365892D01*
X171080778Y-117389323D01*
X171108608Y-117493187D01*
X171136151Y-117540892D01*
X171174500Y-117607314D01*
X171532244Y-117965058D01*
X171863181Y-118295994D01*
X171896666Y-118357317D01*
X171899500Y-118383675D01*
X171899500Y-122724110D01*
X171879815Y-122791149D01*
X171863181Y-122811791D01*
X171348502Y-123326469D01*
X171348500Y-123326472D01*
X171282608Y-123440598D01*
X171260022Y-123524892D01*
X171248500Y-123567894D01*
X171248500Y-126559108D01*
X171248500Y-133359108D01*
X171248500Y-137983108D01*
X171248500Y-138114892D01*
X171255467Y-138140892D01*
X171282608Y-138242187D01*
X171309925Y-138289500D01*
X171348500Y-138356314D01*
X171348501Y-138356315D01*
X171348502Y-138356316D01*
X174445159Y-141452972D01*
X174445169Y-141452983D01*
X174449499Y-141457313D01*
X174449500Y-141457314D01*
X174542686Y-141550500D01*
X174542688Y-141550501D01*
X174542689Y-141550502D01*
X174639494Y-141606392D01*
X174639495Y-141606392D01*
X174656814Y-141616392D01*
X174784107Y-141650500D01*
X174784108Y-141650500D01*
X190901324Y-141650500D01*
X190968363Y-141670185D01*
X190989005Y-141686819D01*
X191109500Y-141807314D01*
X191202686Y-141900500D01*
X191316814Y-141966392D01*
X191444108Y-142000500D01*
X191444110Y-142000500D01*
X191575891Y-142000500D01*
X191575892Y-142000500D01*
X191575893Y-142000500D01*
X191703186Y-141966392D01*
X191817314Y-141900500D01*
X191910500Y-141807314D01*
X191976392Y-141693186D01*
X192010500Y-141565893D01*
X192010500Y-141434108D01*
X192010500Y-141398676D01*
X192030185Y-141331637D01*
X192046819Y-141310995D01*
X192293706Y-141064108D01*
X194899500Y-141064108D01*
X194899500Y-141195891D01*
X194933608Y-141323187D01*
X194938487Y-141331637D01*
X194999500Y-141437314D01*
X195092686Y-141530500D01*
X195206814Y-141596392D01*
X195334108Y-141630500D01*
X195334110Y-141630500D01*
X195465890Y-141630500D01*
X195465892Y-141630500D01*
X195593186Y-141596392D01*
X195707314Y-141530500D01*
X195800500Y-141437314D01*
X195866392Y-141323186D01*
X195900500Y-141195892D01*
X195900500Y-141064108D01*
X195866392Y-140936814D01*
X195850396Y-140909108D01*
X196224500Y-140909108D01*
X196224500Y-141040891D01*
X196258608Y-141168187D01*
X196274604Y-141195892D01*
X196324500Y-141282314D01*
X196417686Y-141375500D01*
X196531814Y-141441392D01*
X196659108Y-141475500D01*
X196659110Y-141475500D01*
X196790890Y-141475500D01*
X196790892Y-141475500D01*
X196918186Y-141441392D01*
X197032314Y-141375500D01*
X197125500Y-141282314D01*
X197191392Y-141168186D01*
X197225500Y-141040892D01*
X197225500Y-140909108D01*
X197191392Y-140781814D01*
X197125500Y-140667686D01*
X197032314Y-140574500D01*
X196979674Y-140544108D01*
X199399500Y-140544108D01*
X199399500Y-140675891D01*
X199433608Y-140803187D01*
X199444866Y-140822686D01*
X199499500Y-140917314D01*
X199592686Y-141010500D01*
X199706814Y-141076392D01*
X199834108Y-141110500D01*
X199834110Y-141110500D01*
X199965890Y-141110500D01*
X199965892Y-141110500D01*
X200093186Y-141076392D01*
X200207314Y-141010500D01*
X200300500Y-140917314D01*
X200366392Y-140803186D01*
X200400500Y-140675892D01*
X200400500Y-140544108D01*
X200366392Y-140416814D01*
X200300500Y-140302686D01*
X200207314Y-140209500D01*
X200150250Y-140176554D01*
X200093187Y-140143608D01*
X200029539Y-140126554D01*
X199965892Y-140109500D01*
X199834108Y-140109500D01*
X199706812Y-140143608D01*
X199592686Y-140209500D01*
X199592683Y-140209502D01*
X199499502Y-140302683D01*
X199499500Y-140302686D01*
X199433608Y-140416812D01*
X199399500Y-140544108D01*
X196979674Y-140544108D01*
X196975250Y-140541554D01*
X196918187Y-140508608D01*
X196854539Y-140491554D01*
X196790892Y-140474500D01*
X196659108Y-140474500D01*
X196531812Y-140508608D01*
X196417686Y-140574500D01*
X196417683Y-140574502D01*
X196324502Y-140667683D01*
X196324500Y-140667686D01*
X196258608Y-140781812D01*
X196224500Y-140909108D01*
X195850396Y-140909108D01*
X195800500Y-140822686D01*
X195707314Y-140729500D01*
X195650250Y-140696554D01*
X195593187Y-140663608D01*
X195529539Y-140646554D01*
X195465892Y-140629500D01*
X195334108Y-140629500D01*
X195206812Y-140663608D01*
X195092686Y-140729500D01*
X195092683Y-140729502D01*
X194999502Y-140822683D01*
X194999500Y-140822686D01*
X194933608Y-140936812D01*
X194899500Y-141064108D01*
X192293706Y-141064108D01*
X195348706Y-138009108D01*
X196799500Y-138009108D01*
X196799500Y-138140891D01*
X196833608Y-138268187D01*
X196863234Y-138319500D01*
X196899500Y-138382314D01*
X196992686Y-138475500D01*
X197106814Y-138541392D01*
X197234108Y-138575500D01*
X197234110Y-138575500D01*
X197365890Y-138575500D01*
X197365892Y-138575500D01*
X197493186Y-138541392D01*
X197607314Y-138475500D01*
X197700500Y-138382314D01*
X197766392Y-138268186D01*
X197800500Y-138140892D01*
X197800500Y-138009108D01*
X197766392Y-137881814D01*
X197700500Y-137767686D01*
X197607314Y-137674500D01*
X197550250Y-137641554D01*
X197493187Y-137608608D01*
X197429539Y-137591554D01*
X197365892Y-137574500D01*
X197234108Y-137574500D01*
X197106812Y-137608608D01*
X196992686Y-137674500D01*
X196992683Y-137674502D01*
X196899502Y-137767683D01*
X196899500Y-137767686D01*
X196833608Y-137881812D01*
X196799500Y-138009108D01*
X195348706Y-138009108D01*
X195444514Y-137913300D01*
X195683314Y-137674500D01*
X195950500Y-137407314D01*
X196016392Y-137293186D01*
X196050500Y-137165892D01*
X196050500Y-137034107D01*
X196050500Y-136349960D01*
X197739013Y-136349960D01*
X197739013Y-136481744D01*
X197755206Y-136542176D01*
X197773121Y-136609039D01*
X197790114Y-136638471D01*
X197839013Y-136723166D01*
X197932199Y-136816352D01*
X198046327Y-136882244D01*
X198173621Y-136916352D01*
X198173623Y-136916352D01*
X198305403Y-136916352D01*
X198305405Y-136916352D01*
X198432699Y-136882244D01*
X198546827Y-136816352D01*
X198640013Y-136723166D01*
X198705905Y-136609038D01*
X198740013Y-136481744D01*
X198740013Y-136349960D01*
X198705905Y-136222666D01*
X198640013Y-136108538D01*
X198546827Y-136015352D01*
X198477443Y-135975293D01*
X198432700Y-135949460D01*
X198369052Y-135932406D01*
X198305405Y-135915352D01*
X198173621Y-135915352D01*
X198046325Y-135949460D01*
X197932199Y-136015352D01*
X197932196Y-136015354D01*
X197839015Y-136108535D01*
X197839013Y-136108538D01*
X197773121Y-136222664D01*
X197746908Y-136320494D01*
X197739013Y-136349960D01*
X196050500Y-136349960D01*
X196050500Y-133565110D01*
X197864156Y-133565110D01*
X197864156Y-133696894D01*
X197876574Y-133743238D01*
X197898264Y-133824189D01*
X197922482Y-133866135D01*
X197964156Y-133938316D01*
X198057342Y-134031502D01*
X198171470Y-134097394D01*
X198298764Y-134131502D01*
X198298766Y-134131502D01*
X198430546Y-134131502D01*
X198430548Y-134131502D01*
X198557842Y-134097394D01*
X198671970Y-134031502D01*
X198765156Y-133938316D01*
X198831048Y-133824188D01*
X198835089Y-133809108D01*
X199174500Y-133809108D01*
X199174500Y-133940892D01*
X199177455Y-133951921D01*
X199208608Y-134068187D01*
X199232539Y-134109636D01*
X199274500Y-134182314D01*
X199367686Y-134275500D01*
X199481814Y-134341392D01*
X199609108Y-134375500D01*
X199609110Y-134375500D01*
X199740890Y-134375500D01*
X199740892Y-134375500D01*
X199868186Y-134341392D01*
X199982314Y-134275500D01*
X200075500Y-134182314D01*
X200141392Y-134068186D01*
X200175500Y-133940892D01*
X200175500Y-133809108D01*
X200141392Y-133681814D01*
X200138812Y-133677346D01*
X200123645Y-133651075D01*
X200075500Y-133567686D01*
X199982314Y-133474500D01*
X199904211Y-133429407D01*
X199868187Y-133408608D01*
X199800755Y-133390540D01*
X199740892Y-133374500D01*
X199609108Y-133374500D01*
X199481812Y-133408608D01*
X199367686Y-133474500D01*
X199367683Y-133474502D01*
X199274502Y-133567683D01*
X199274500Y-133567686D01*
X199208608Y-133681812D01*
X199181533Y-133782859D01*
X199174500Y-133809108D01*
X198835089Y-133809108D01*
X198865156Y-133696894D01*
X198865156Y-133565110D01*
X198831048Y-133437816D01*
X198765156Y-133323688D01*
X198674841Y-133233373D01*
X208223765Y-133233373D01*
X208223765Y-133365157D01*
X208233589Y-133401822D01*
X208257873Y-133492452D01*
X208261528Y-133498782D01*
X208323765Y-133606579D01*
X208416951Y-133699765D01*
X208531079Y-133765657D01*
X208658373Y-133799765D01*
X208658375Y-133799765D01*
X208790155Y-133799765D01*
X208790157Y-133799765D01*
X208917451Y-133765657D01*
X209031579Y-133699765D01*
X209124765Y-133606579D01*
X209190657Y-133492451D01*
X209224765Y-133365157D01*
X209224765Y-133233373D01*
X209190657Y-133106079D01*
X209124765Y-132991951D01*
X209031579Y-132898765D01*
X208941591Y-132846810D01*
X208917452Y-132832873D01*
X208853804Y-132815819D01*
X208790157Y-132798765D01*
X208658373Y-132798765D01*
X208531077Y-132832873D01*
X208416951Y-132898765D01*
X208416948Y-132898767D01*
X208323767Y-132991948D01*
X208323765Y-132991951D01*
X208257873Y-133106077D01*
X208251329Y-133130502D01*
X208223765Y-133233373D01*
X198674841Y-133233373D01*
X198671970Y-133230502D01*
X198614906Y-133197556D01*
X198557843Y-133164610D01*
X198494195Y-133147556D01*
X198430548Y-133130502D01*
X198298764Y-133130502D01*
X198171468Y-133164610D01*
X198057342Y-133230502D01*
X198057339Y-133230504D01*
X197964158Y-133323685D01*
X197964156Y-133323688D01*
X197898264Y-133437814D01*
X197875230Y-133523781D01*
X197864156Y-133565110D01*
X196050500Y-133565110D01*
X196050500Y-131959108D01*
X196050500Y-131554364D01*
X203690572Y-131554364D01*
X203690572Y-131686148D01*
X203693972Y-131698838D01*
X203724680Y-131813443D01*
X203757626Y-131870506D01*
X203790572Y-131927570D01*
X203883758Y-132020756D01*
X203997886Y-132086648D01*
X204125180Y-132120756D01*
X204125182Y-132120756D01*
X204256962Y-132120756D01*
X204256964Y-132120756D01*
X204384258Y-132086648D01*
X204498386Y-132020756D01*
X204591572Y-131927570D01*
X204657464Y-131813442D01*
X204681874Y-131722343D01*
X208037735Y-131722343D01*
X208037735Y-131854126D01*
X208071843Y-131981422D01*
X208094553Y-132020756D01*
X208137735Y-132095549D01*
X208230921Y-132188735D01*
X208345049Y-132254627D01*
X208472343Y-132288735D01*
X208472345Y-132288735D01*
X208604125Y-132288735D01*
X208604127Y-132288735D01*
X208731421Y-132254627D01*
X208845549Y-132188735D01*
X208938735Y-132095549D01*
X209004627Y-131981421D01*
X209038735Y-131854127D01*
X209038735Y-131722343D01*
X209004627Y-131595049D01*
X209004488Y-131594809D01*
X208994736Y-131577918D01*
X208938735Y-131480921D01*
X208845549Y-131387735D01*
X208788485Y-131354789D01*
X208731422Y-131321843D01*
X208667774Y-131304789D01*
X208604127Y-131287735D01*
X208472343Y-131287735D01*
X208345047Y-131321843D01*
X208230921Y-131387735D01*
X208230918Y-131387737D01*
X208137737Y-131480918D01*
X208137735Y-131480921D01*
X208071843Y-131595047D01*
X208037735Y-131722343D01*
X204681874Y-131722343D01*
X204691572Y-131686148D01*
X204691572Y-131554364D01*
X204657464Y-131427070D01*
X204591572Y-131312942D01*
X204498386Y-131219756D01*
X204441322Y-131186810D01*
X204384259Y-131153864D01*
X204320611Y-131136810D01*
X204256964Y-131119756D01*
X204125180Y-131119756D01*
X203997884Y-131153864D01*
X203883758Y-131219756D01*
X203883755Y-131219758D01*
X203790574Y-131312939D01*
X203790572Y-131312942D01*
X203724680Y-131427068D01*
X203709229Y-131484734D01*
X203690572Y-131554364D01*
X196050500Y-131554364D01*
X196050500Y-129643851D01*
X200083567Y-129643851D01*
X200083567Y-129775635D01*
X200093995Y-129814553D01*
X200117675Y-129902930D01*
X200119249Y-129905656D01*
X200183567Y-130017057D01*
X200276753Y-130110243D01*
X200390881Y-130176135D01*
X200518175Y-130210243D01*
X200518177Y-130210243D01*
X200649957Y-130210243D01*
X200649959Y-130210243D01*
X200777253Y-130176135D01*
X200891381Y-130110243D01*
X200984567Y-130017057D01*
X201050459Y-129902929D01*
X201063362Y-129854774D01*
X216194592Y-129854774D01*
X216194592Y-129986557D01*
X216228700Y-130113853D01*
X216261646Y-130170916D01*
X216294592Y-130227980D01*
X216387778Y-130321166D01*
X216501906Y-130387058D01*
X216629200Y-130421166D01*
X216629202Y-130421166D01*
X216760982Y-130421166D01*
X216760984Y-130421166D01*
X216888278Y-130387058D01*
X217002406Y-130321166D01*
X217095592Y-130227980D01*
X217161484Y-130113852D01*
X217195592Y-129986558D01*
X217195592Y-129854774D01*
X217161484Y-129727480D01*
X217095592Y-129613352D01*
X217002406Y-129520166D01*
X216945342Y-129487220D01*
X216888279Y-129454274D01*
X216824631Y-129437220D01*
X216760984Y-129420166D01*
X216629200Y-129420166D01*
X216501904Y-129454274D01*
X216387778Y-129520166D01*
X216387775Y-129520168D01*
X216294594Y-129613349D01*
X216294592Y-129613352D01*
X216228700Y-129727478D01*
X216194592Y-129854774D01*
X201063362Y-129854774D01*
X201084567Y-129775635D01*
X201084567Y-129643851D01*
X201050459Y-129516557D01*
X200984567Y-129402429D01*
X200891381Y-129309243D01*
X200834317Y-129276297D01*
X200777254Y-129243351D01*
X200713606Y-129226297D01*
X200649959Y-129209243D01*
X200518175Y-129209243D01*
X200390879Y-129243351D01*
X200276753Y-129309243D01*
X200276750Y-129309245D01*
X200183569Y-129402426D01*
X200183567Y-129402429D01*
X200117675Y-129516555D01*
X200116707Y-129520168D01*
X200083567Y-129643851D01*
X196050500Y-129643851D01*
X196050500Y-126514551D01*
X200533677Y-126514551D01*
X200533677Y-126646334D01*
X200567785Y-126773630D01*
X200600731Y-126830693D01*
X200633677Y-126887757D01*
X200726863Y-126980943D01*
X200840991Y-127046835D01*
X200968285Y-127080943D01*
X200968287Y-127080943D01*
X201100067Y-127080943D01*
X201100069Y-127080943D01*
X201227363Y-127046835D01*
X201341491Y-126980943D01*
X201401660Y-126920774D01*
X201462983Y-126887289D01*
X201532675Y-126892273D01*
X201588608Y-126934145D01*
X201613025Y-126999609D01*
X201613341Y-127008455D01*
X201613341Y-128258376D01*
X201593656Y-128325415D01*
X201577022Y-128346057D01*
X201480126Y-128442952D01*
X201480124Y-128442955D01*
X201414232Y-128557081D01*
X201380124Y-128684377D01*
X201380124Y-128816160D01*
X201414232Y-128943456D01*
X201436879Y-128982681D01*
X201480124Y-129057583D01*
X201573310Y-129150769D01*
X201687438Y-129216661D01*
X201814732Y-129250769D01*
X201814734Y-129250769D01*
X201946514Y-129250769D01*
X201946516Y-129250769D01*
X202073810Y-129216661D01*
X202187938Y-129150769D01*
X202281124Y-129057583D01*
X202347016Y-128943455D01*
X202381124Y-128816161D01*
X202381124Y-128684377D01*
X202347016Y-128557083D01*
X202281124Y-128442955D01*
X202250660Y-128412491D01*
X202217175Y-128351168D01*
X202214341Y-128324810D01*
X202214341Y-127684108D01*
X209199500Y-127684108D01*
X209199500Y-127815892D01*
X209210570Y-127857206D01*
X209233608Y-127943187D01*
X209266554Y-128000250D01*
X209299500Y-128057314D01*
X209392686Y-128150500D01*
X209506814Y-128216392D01*
X209634108Y-128250500D01*
X209634110Y-128250500D01*
X209765890Y-128250500D01*
X209765892Y-128250500D01*
X209893186Y-128216392D01*
X210007314Y-128150500D01*
X210100500Y-128057314D01*
X210166392Y-127943186D01*
X210200500Y-127815892D01*
X210200500Y-127684108D01*
X210166392Y-127556814D01*
X210100500Y-127442686D01*
X210007314Y-127349500D01*
X209950250Y-127316554D01*
X209893187Y-127283608D01*
X209829539Y-127266554D01*
X209765892Y-127249500D01*
X209634108Y-127249500D01*
X209506812Y-127283608D01*
X209392686Y-127349500D01*
X209392683Y-127349502D01*
X209299502Y-127442683D01*
X209299500Y-127442686D01*
X209233608Y-127556812D01*
X209199500Y-127684108D01*
X202214341Y-127684108D01*
X202214341Y-125884108D01*
X203174500Y-125884108D01*
X203174500Y-126015892D01*
X203191554Y-126079539D01*
X203208608Y-126143187D01*
X203229830Y-126179943D01*
X203274500Y-126257314D01*
X203367686Y-126350500D01*
X203481814Y-126416392D01*
X203609108Y-126450500D01*
X203609110Y-126450500D01*
X203740890Y-126450500D01*
X203740892Y-126450500D01*
X203777790Y-126440613D01*
X203847637Y-126442274D01*
X203905501Y-126481436D01*
X203933006Y-126545664D01*
X203933883Y-126560387D01*
X203933883Y-126624272D01*
X203939795Y-126646335D01*
X203967991Y-126751567D01*
X204000937Y-126808630D01*
X204033883Y-126865694D01*
X204127069Y-126958880D01*
X204241197Y-127024772D01*
X204368491Y-127058880D01*
X204368493Y-127058880D01*
X204500273Y-127058880D01*
X204500275Y-127058880D01*
X204627569Y-127024772D01*
X204741697Y-126958880D01*
X204834883Y-126865694D01*
X204900775Y-126751566D01*
X204934883Y-126624272D01*
X204934883Y-126492488D01*
X204900775Y-126365194D01*
X204834883Y-126251066D01*
X204741697Y-126157880D01*
X204665783Y-126114051D01*
X204627570Y-126091988D01*
X204563922Y-126074934D01*
X204500275Y-126057880D01*
X204368491Y-126057880D01*
X204331591Y-126067766D01*
X204261743Y-126066104D01*
X204203881Y-126026941D01*
X204176377Y-125962713D01*
X204175500Y-125947992D01*
X204175500Y-125884110D01*
X204175500Y-125884108D01*
X204141392Y-125756814D01*
X204075500Y-125642686D01*
X203982314Y-125549500D01*
X203897087Y-125500294D01*
X203868187Y-125483608D01*
X203804539Y-125466554D01*
X203740892Y-125449500D01*
X203609108Y-125449500D01*
X203481812Y-125483608D01*
X203367686Y-125549500D01*
X203367683Y-125549502D01*
X203274502Y-125642683D01*
X203274500Y-125642686D01*
X203208608Y-125756812D01*
X203185634Y-125842555D01*
X203174500Y-125884108D01*
X202214341Y-125884108D01*
X202214341Y-125733090D01*
X202234026Y-125666051D01*
X202250660Y-125645409D01*
X202836961Y-125059108D01*
X209499500Y-125059108D01*
X209499500Y-125190892D01*
X209512984Y-125241216D01*
X209533608Y-125318187D01*
X209548651Y-125344242D01*
X209599500Y-125432314D01*
X209692686Y-125525500D01*
X209806814Y-125591392D01*
X209934108Y-125625500D01*
X209934110Y-125625500D01*
X210065890Y-125625500D01*
X210065892Y-125625500D01*
X210193186Y-125591392D01*
X210307314Y-125525500D01*
X210400500Y-125432314D01*
X210466392Y-125318186D01*
X210487016Y-125241216D01*
X216395210Y-125241216D01*
X216395210Y-125372999D01*
X216429318Y-125500295D01*
X216457727Y-125549500D01*
X216495210Y-125614422D01*
X216588396Y-125707608D01*
X216702524Y-125773500D01*
X216829818Y-125807608D01*
X216829820Y-125807608D01*
X216961600Y-125807608D01*
X216961602Y-125807608D01*
X217088896Y-125773500D01*
X217203024Y-125707608D01*
X217296210Y-125614422D01*
X217362102Y-125500294D01*
X217396210Y-125373000D01*
X217396210Y-125241216D01*
X217362102Y-125113922D01*
X217296210Y-124999794D01*
X217203024Y-124906608D01*
X217133893Y-124866695D01*
X217088897Y-124840716D01*
X217002935Y-124817683D01*
X216961602Y-124806608D01*
X216829818Y-124806608D01*
X216702522Y-124840716D01*
X216588396Y-124906608D01*
X216588393Y-124906610D01*
X216495212Y-124999791D01*
X216495210Y-124999794D01*
X216429318Y-125113920D01*
X216395210Y-125241216D01*
X210487016Y-125241216D01*
X210500500Y-125190892D01*
X210500500Y-125059108D01*
X210466392Y-124931814D01*
X210400500Y-124817686D01*
X210307314Y-124724500D01*
X210250250Y-124691554D01*
X210193187Y-124658608D01*
X210129539Y-124641554D01*
X210065892Y-124624500D01*
X209934108Y-124624500D01*
X209806812Y-124658608D01*
X209692686Y-124724500D01*
X209692683Y-124724502D01*
X209599502Y-124817683D01*
X209599500Y-124817686D01*
X209533608Y-124931812D01*
X209502620Y-125047464D01*
X209499500Y-125059108D01*
X202836961Y-125059108D01*
X203473334Y-124422735D01*
X203534657Y-124389250D01*
X203561015Y-124386416D01*
X203614540Y-124386416D01*
X203614542Y-124386416D01*
X203741836Y-124352308D01*
X203855964Y-124286416D01*
X203949150Y-124193230D01*
X204015042Y-124079102D01*
X204049150Y-123951808D01*
X204049150Y-123820024D01*
X204015042Y-123692730D01*
X203949150Y-123578602D01*
X203855964Y-123485416D01*
X203778341Y-123440600D01*
X203741837Y-123419524D01*
X203678189Y-123402470D01*
X203643249Y-123393108D01*
X205725500Y-123393108D01*
X205725500Y-123524892D01*
X205737022Y-123567894D01*
X205759608Y-123652187D01*
X205783015Y-123692728D01*
X205825500Y-123766314D01*
X205918686Y-123859500D01*
X206032814Y-123925392D01*
X206160108Y-123959500D01*
X206160110Y-123959500D01*
X206291890Y-123959500D01*
X206291892Y-123959500D01*
X206419186Y-123925392D01*
X206533314Y-123859500D01*
X206626500Y-123766314D01*
X206659528Y-123709108D01*
X215874500Y-123709108D01*
X215874500Y-123840891D01*
X215908608Y-123968187D01*
X215931199Y-124007315D01*
X215974500Y-124082314D01*
X216067686Y-124175500D01*
X216181814Y-124241392D01*
X216309108Y-124275500D01*
X216309110Y-124275500D01*
X216440890Y-124275500D01*
X216440892Y-124275500D01*
X216568186Y-124241392D01*
X216682314Y-124175500D01*
X216775500Y-124082314D01*
X216814332Y-124015055D01*
X216864896Y-123966842D01*
X216933503Y-123953618D01*
X216998368Y-123979586D01*
X217020091Y-124001568D01*
X217024499Y-124007312D01*
X217024500Y-124007314D01*
X217117686Y-124100500D01*
X217231814Y-124166392D01*
X217359108Y-124200500D01*
X217359110Y-124200500D01*
X217490890Y-124200500D01*
X217490892Y-124200500D01*
X217618186Y-124166392D01*
X217732314Y-124100500D01*
X217825500Y-124007314D01*
X217891392Y-123893186D01*
X217925500Y-123765892D01*
X217925500Y-123634108D01*
X217891392Y-123506814D01*
X217825500Y-123392686D01*
X217732314Y-123299500D01*
X217673965Y-123265812D01*
X217618187Y-123233608D01*
X217554539Y-123216554D01*
X217490892Y-123199500D01*
X217359108Y-123199500D01*
X217231812Y-123233608D01*
X217117686Y-123299500D01*
X217117683Y-123299502D01*
X217024502Y-123392683D01*
X217024500Y-123392686D01*
X216985669Y-123459943D01*
X216935101Y-123508158D01*
X216866494Y-123521380D01*
X216801630Y-123495412D01*
X216779907Y-123473430D01*
X216775502Y-123467689D01*
X216775500Y-123467686D01*
X216682314Y-123374500D01*
X216625250Y-123341554D01*
X216568187Y-123308608D01*
X216504539Y-123291554D01*
X216440892Y-123274500D01*
X216309108Y-123274500D01*
X216181812Y-123308608D01*
X216067686Y-123374500D01*
X216067683Y-123374502D01*
X215974502Y-123467683D01*
X215974500Y-123467686D01*
X215908608Y-123581812D01*
X215874500Y-123709108D01*
X206659528Y-123709108D01*
X206692392Y-123652186D01*
X206726500Y-123524892D01*
X206726500Y-123393108D01*
X206692392Y-123265814D01*
X206626500Y-123151686D01*
X206533314Y-123058500D01*
X206458008Y-123015022D01*
X206419187Y-122992608D01*
X206355539Y-122975554D01*
X206291892Y-122958500D01*
X206160108Y-122958500D01*
X206032812Y-122992608D01*
X205918686Y-123058500D01*
X205918683Y-123058502D01*
X205825502Y-123151683D01*
X205825500Y-123151686D01*
X205759608Y-123265812D01*
X205743355Y-123326472D01*
X205725500Y-123393108D01*
X203643249Y-123393108D01*
X203614542Y-123385416D01*
X203482758Y-123385416D01*
X203355462Y-123419524D01*
X203241336Y-123485416D01*
X203241333Y-123485418D01*
X203148152Y-123578599D01*
X203148150Y-123578602D01*
X203082258Y-123692728D01*
X203048150Y-123820024D01*
X203048150Y-123946614D01*
X203028465Y-124013653D01*
X203011831Y-124034295D01*
X201729330Y-125316797D01*
X201673382Y-125372744D01*
X201673376Y-125372752D01*
X201633823Y-125441261D01*
X201633820Y-125441266D01*
X201622886Y-125482072D01*
X201618004Y-125500295D01*
X201613341Y-125517696D01*
X201613341Y-126152431D01*
X201593656Y-126219470D01*
X201540852Y-126265225D01*
X201471694Y-126275169D01*
X201408138Y-126246144D01*
X201401660Y-126240112D01*
X201341493Y-126179945D01*
X201341491Y-126179943D01*
X201277826Y-126143186D01*
X201227364Y-126114051D01*
X201145022Y-126091988D01*
X201100069Y-126079943D01*
X200968285Y-126079943D01*
X200840989Y-126114051D01*
X200726863Y-126179943D01*
X200726860Y-126179945D01*
X200633679Y-126273126D01*
X200633677Y-126273129D01*
X200567785Y-126387255D01*
X200533677Y-126514551D01*
X196050500Y-126514551D01*
X196050500Y-126471277D01*
X196070185Y-126404238D01*
X196086819Y-126383596D01*
X198197406Y-124273009D01*
X200318203Y-122152212D01*
X200384095Y-122038084D01*
X200411955Y-121934108D01*
X212749500Y-121934108D01*
X212749500Y-122065891D01*
X212783608Y-122193187D01*
X212816554Y-122250250D01*
X212849500Y-122307314D01*
X212942686Y-122400500D01*
X213056814Y-122466392D01*
X213184108Y-122500500D01*
X213184110Y-122500500D01*
X213315890Y-122500500D01*
X213315892Y-122500500D01*
X213443186Y-122466392D01*
X213557314Y-122400500D01*
X213650500Y-122307314D01*
X213716392Y-122193186D01*
X213750500Y-122065892D01*
X213750500Y-121934108D01*
X213716392Y-121806814D01*
X213650500Y-121692686D01*
X213557314Y-121599500D01*
X213493732Y-121562791D01*
X213443187Y-121533608D01*
X213379539Y-121516554D01*
X213315892Y-121499500D01*
X213184108Y-121499500D01*
X213056812Y-121533608D01*
X212942686Y-121599500D01*
X212942683Y-121599502D01*
X212849502Y-121692683D01*
X212849500Y-121692686D01*
X212783608Y-121806812D01*
X212749500Y-121934108D01*
X200411955Y-121934108D01*
X200418203Y-121910790D01*
X200418203Y-121779005D01*
X200418203Y-120664008D01*
X209720693Y-120664008D01*
X209720693Y-120795792D01*
X209726694Y-120818187D01*
X209754801Y-120923087D01*
X209787747Y-120980150D01*
X209820693Y-121037214D01*
X209913879Y-121130400D01*
X210012714Y-121187463D01*
X210019322Y-121191278D01*
X210028007Y-121196292D01*
X210155301Y-121230400D01*
X210155303Y-121230400D01*
X210287083Y-121230400D01*
X210287085Y-121230400D01*
X210414379Y-121196292D01*
X210528507Y-121130400D01*
X210621693Y-121037214D01*
X210687585Y-120923086D01*
X210721693Y-120795792D01*
X210721693Y-120664008D01*
X210693585Y-120559108D01*
X214224500Y-120559108D01*
X214224500Y-120690892D01*
X214233610Y-120724891D01*
X214258608Y-120818187D01*
X214291554Y-120875250D01*
X214324500Y-120932314D01*
X214417686Y-121025500D01*
X214531814Y-121091392D01*
X214659108Y-121125500D01*
X214659110Y-121125500D01*
X214790890Y-121125500D01*
X214790892Y-121125500D01*
X214918186Y-121091392D01*
X215032314Y-121025500D01*
X215125500Y-120932314D01*
X215191392Y-120818186D01*
X215225500Y-120690892D01*
X215225500Y-120559108D01*
X215191392Y-120431814D01*
X215186062Y-120422583D01*
X215167413Y-120390281D01*
X215125500Y-120317686D01*
X215032314Y-120224500D01*
X214975250Y-120191554D01*
X214918187Y-120158608D01*
X214854539Y-120141554D01*
X214790892Y-120124500D01*
X214659108Y-120124500D01*
X214531812Y-120158608D01*
X214417686Y-120224500D01*
X214417683Y-120224502D01*
X214324502Y-120317683D01*
X214324500Y-120317686D01*
X214258608Y-120431812D01*
X214230501Y-120536712D01*
X214224500Y-120559108D01*
X210693585Y-120559108D01*
X210687585Y-120536714D01*
X210621693Y-120422586D01*
X210528507Y-120329400D01*
X210460751Y-120290281D01*
X210414380Y-120263508D01*
X210350732Y-120246454D01*
X210287085Y-120229400D01*
X210155301Y-120229400D01*
X210028005Y-120263508D01*
X209913879Y-120329400D01*
X209913876Y-120329402D01*
X209820695Y-120422583D01*
X209820693Y-120422586D01*
X209754801Y-120536712D01*
X209720693Y-120664008D01*
X200418203Y-120664008D01*
X200418203Y-119199020D01*
X201464481Y-119199020D01*
X201464481Y-119330803D01*
X201498589Y-119458099D01*
X201531535Y-119515162D01*
X201564481Y-119572226D01*
X201657667Y-119665412D01*
X201771795Y-119731304D01*
X201899089Y-119765412D01*
X201899091Y-119765412D01*
X202030871Y-119765412D01*
X202030873Y-119765412D01*
X202158167Y-119731304D01*
X202272295Y-119665412D01*
X202365481Y-119572226D01*
X202431373Y-119458098D01*
X202465481Y-119330804D01*
X202465481Y-119199020D01*
X202431373Y-119071726D01*
X202423233Y-119057628D01*
X202413698Y-119041112D01*
X202365481Y-118957598D01*
X202272295Y-118864412D01*
X202215231Y-118831466D01*
X202158168Y-118798520D01*
X202094520Y-118781466D01*
X202030873Y-118764412D01*
X201899089Y-118764412D01*
X201771793Y-118798520D01*
X201657667Y-118864412D01*
X201657664Y-118864414D01*
X201564483Y-118957595D01*
X201564481Y-118957598D01*
X201498589Y-119071724D01*
X201464481Y-119199020D01*
X200418203Y-119199020D01*
X200418203Y-117848521D01*
X200384095Y-117721227D01*
X200383478Y-117720159D01*
X200353472Y-117668187D01*
X200318203Y-117607099D01*
X200225017Y-117513913D01*
X200100427Y-117389323D01*
X204185496Y-117389323D01*
X204185496Y-117521107D01*
X204197138Y-117564556D01*
X204219604Y-117648402D01*
X204244691Y-117691853D01*
X204285496Y-117762529D01*
X204378682Y-117855715D01*
X204492810Y-117921607D01*
X204620104Y-117955715D01*
X204620106Y-117955715D01*
X204751886Y-117955715D01*
X204751888Y-117955715D01*
X204879182Y-117921607D01*
X204993310Y-117855715D01*
X205086496Y-117762529D01*
X205152388Y-117648401D01*
X205186496Y-117521107D01*
X205186496Y-117389323D01*
X205152388Y-117262029D01*
X205148986Y-117256136D01*
X206828486Y-117256136D01*
X206828486Y-117387920D01*
X206840505Y-117432776D01*
X206862594Y-117515215D01*
X206877419Y-117540892D01*
X206928486Y-117629342D01*
X207021672Y-117722528D01*
X207135800Y-117788420D01*
X207263094Y-117822528D01*
X207263096Y-117822528D01*
X207394876Y-117822528D01*
X207394878Y-117822528D01*
X207522172Y-117788420D01*
X207636300Y-117722528D01*
X207636301Y-117722526D01*
X207643338Y-117718464D01*
X207644943Y-117721244D01*
X207696003Y-117701456D01*
X207764459Y-117715437D01*
X207813809Y-117763014D01*
X207822461Y-117777999D01*
X207915647Y-117871185D01*
X208029775Y-117937077D01*
X208157069Y-117971185D01*
X208157071Y-117971185D01*
X208288851Y-117971185D01*
X208288853Y-117971185D01*
X208416147Y-117937077D01*
X208530275Y-117871185D01*
X208620880Y-117780579D01*
X208682199Y-117747097D01*
X208751891Y-117752081D01*
X208807825Y-117793952D01*
X208815611Y-117805757D01*
X208815780Y-117805977D01*
X208815782Y-117805980D01*
X208908968Y-117899166D01*
X209023096Y-117965058D01*
X209150390Y-117999166D01*
X209150392Y-117999166D01*
X209282172Y-117999166D01*
X209282174Y-117999166D01*
X209409468Y-117965058D01*
X209523596Y-117899166D01*
X209616782Y-117805980D01*
X209682674Y-117691852D01*
X209716782Y-117564558D01*
X209716782Y-117432774D01*
X209693024Y-117344108D01*
X213924500Y-117344108D01*
X213924500Y-117475892D01*
X213936449Y-117520488D01*
X213958608Y-117603187D01*
X213991554Y-117660250D01*
X214024500Y-117717314D01*
X214117686Y-117810500D01*
X214216521Y-117867563D01*
X214222793Y-117871184D01*
X214231814Y-117876392D01*
X214359108Y-117910500D01*
X214359110Y-117910500D01*
X214490890Y-117910500D01*
X214490892Y-117910500D01*
X214618186Y-117876392D01*
X214732314Y-117810500D01*
X214825500Y-117717314D01*
X214891392Y-117603186D01*
X214925500Y-117475892D01*
X214925500Y-117409108D01*
X217349500Y-117409108D01*
X217349500Y-117540891D01*
X217383608Y-117668187D01*
X217411972Y-117717314D01*
X217449500Y-117782314D01*
X217542686Y-117875500D01*
X217656814Y-117941392D01*
X217784108Y-117975500D01*
X217784110Y-117975500D01*
X217915890Y-117975500D01*
X217915892Y-117975500D01*
X218043186Y-117941392D01*
X218157314Y-117875500D01*
X218250500Y-117782314D01*
X218316392Y-117668186D01*
X218350500Y-117540892D01*
X218350500Y-117409108D01*
X218316392Y-117281814D01*
X218312051Y-117274296D01*
X218304969Y-117262029D01*
X218250500Y-117167686D01*
X218157314Y-117074500D01*
X218088720Y-117034897D01*
X218043187Y-117008608D01*
X217969347Y-116988823D01*
X217915892Y-116974500D01*
X217784108Y-116974500D01*
X217656812Y-117008608D01*
X217542686Y-117074500D01*
X217542683Y-117074502D01*
X217449502Y-117167683D01*
X217449500Y-117167686D01*
X217383608Y-117281812D01*
X217349500Y-117409108D01*
X214925500Y-117409108D01*
X214925500Y-117344108D01*
X214891392Y-117216814D01*
X214825500Y-117102686D01*
X214732314Y-117009500D01*
X214664219Y-116970185D01*
X214618187Y-116943608D01*
X214535789Y-116921530D01*
X214490892Y-116909500D01*
X214359108Y-116909500D01*
X214231812Y-116943608D01*
X214117686Y-117009500D01*
X214117683Y-117009502D01*
X214024502Y-117102683D01*
X214024500Y-117102686D01*
X213958608Y-117216812D01*
X213934850Y-117305480D01*
X213924500Y-117344108D01*
X209693024Y-117344108D01*
X209682674Y-117305480D01*
X209616782Y-117191352D01*
X209523596Y-117098166D01*
X209466532Y-117065220D01*
X209409469Y-117032274D01*
X209305040Y-117004293D01*
X209282174Y-116998166D01*
X209150390Y-116998166D01*
X209023094Y-117032274D01*
X208908968Y-117098166D01*
X208818365Y-117188769D01*
X208757041Y-117222253D01*
X208687350Y-117217269D01*
X208631417Y-117175397D01*
X208623631Y-117163593D01*
X208623463Y-117163374D01*
X208623461Y-117163371D01*
X208530275Y-117070185D01*
X208469151Y-117034895D01*
X208416148Y-117004293D01*
X208352500Y-116987239D01*
X208288853Y-116970185D01*
X208157069Y-116970185D01*
X208029773Y-117004293D01*
X207976767Y-117034897D01*
X207915647Y-117070185D01*
X207915645Y-117070186D01*
X207908609Y-117074249D01*
X207907013Y-117071485D01*
X207855817Y-117091267D01*
X207787374Y-117077216D01*
X207738135Y-117029695D01*
X207729486Y-117014714D01*
X207636300Y-116921528D01*
X207535542Y-116863355D01*
X207522173Y-116855636D01*
X207458525Y-116838582D01*
X207394878Y-116821528D01*
X207263094Y-116821528D01*
X207135798Y-116855636D01*
X207021672Y-116921528D01*
X207021669Y-116921530D01*
X206928488Y-117014711D01*
X206928486Y-117014714D01*
X206862594Y-117128840D01*
X206843762Y-117199124D01*
X206828486Y-117256136D01*
X205148986Y-117256136D01*
X205086496Y-117147901D01*
X204993310Y-117054715D01*
X204936246Y-117021769D01*
X204879183Y-116988823D01*
X204780744Y-116962447D01*
X204751888Y-116954715D01*
X204620104Y-116954715D01*
X204492808Y-116988823D01*
X204378682Y-117054715D01*
X204378679Y-117054717D01*
X204285498Y-117147898D01*
X204285496Y-117147901D01*
X204219604Y-117262027D01*
X204191774Y-117365892D01*
X204185496Y-117389323D01*
X200100427Y-117389323D01*
X199710126Y-116999022D01*
X199653062Y-116966076D01*
X199595999Y-116933130D01*
X199532351Y-116916076D01*
X199468704Y-116899022D01*
X199336920Y-116899022D01*
X199209624Y-116933130D01*
X199095498Y-116999022D01*
X199095495Y-116999024D01*
X199002314Y-117092205D01*
X199002312Y-117092208D01*
X198936420Y-117206334D01*
X198902312Y-117333630D01*
X198902312Y-117465414D01*
X198917235Y-117521107D01*
X198936420Y-117592709D01*
X198957572Y-117629344D01*
X199002312Y-117706836D01*
X199002314Y-117706838D01*
X199380884Y-118085408D01*
X199414369Y-118146731D01*
X199417203Y-118173089D01*
X199417203Y-119041112D01*
X199397518Y-119108151D01*
X199344714Y-119153906D01*
X199275556Y-119163850D01*
X199212000Y-119134825D01*
X199205522Y-119128793D01*
X199134357Y-119057628D01*
X199134355Y-119057626D01*
X199077291Y-119024680D01*
X199020228Y-118991734D01*
X198956580Y-118974680D01*
X198892933Y-118957626D01*
X198761149Y-118957626D01*
X198633853Y-118991734D01*
X198519727Y-119057626D01*
X198519724Y-119057628D01*
X198426543Y-119150809D01*
X198426541Y-119150812D01*
X198360649Y-119264938D01*
X198350288Y-119303608D01*
X198326541Y-119392234D01*
X198326541Y-119524018D01*
X198336902Y-119562685D01*
X198360649Y-119651313D01*
X198393595Y-119708376D01*
X198426541Y-119765440D01*
X198519727Y-119858626D01*
X198633855Y-119924518D01*
X198761149Y-119958626D01*
X198761151Y-119958626D01*
X198892931Y-119958626D01*
X198892933Y-119958626D01*
X199020227Y-119924518D01*
X199134355Y-119858626D01*
X199205522Y-119787459D01*
X199266845Y-119753974D01*
X199336537Y-119758958D01*
X199392470Y-119800830D01*
X199416887Y-119866294D01*
X199417203Y-119875140D01*
X199417203Y-121586222D01*
X199397518Y-121653261D01*
X199380884Y-121673903D01*
X195149502Y-125905284D01*
X195149500Y-125905287D01*
X195083608Y-126019413D01*
X195049500Y-126146709D01*
X195049500Y-136841323D01*
X195029815Y-136908362D01*
X195013181Y-136929004D01*
X191328154Y-140614030D01*
X191266831Y-140647515D01*
X191234019Y-140648884D01*
X191234019Y-140649500D01*
X175108675Y-140649500D01*
X175041636Y-140629815D01*
X175020994Y-140613181D01*
X173111476Y-138703662D01*
X173031922Y-138624108D01*
X176059500Y-138624108D01*
X176059500Y-138755892D01*
X176076554Y-138819539D01*
X176093608Y-138883187D01*
X176110929Y-138913187D01*
X176159500Y-138997314D01*
X176252686Y-139090500D01*
X176366814Y-139156392D01*
X176494108Y-139190500D01*
X176494110Y-139190500D01*
X176625890Y-139190500D01*
X176625892Y-139190500D01*
X176753186Y-139156392D01*
X176867314Y-139090500D01*
X176960500Y-138997314D01*
X177026392Y-138883186D01*
X177060500Y-138755892D01*
X177060500Y-138654108D01*
X180659500Y-138654108D01*
X180659500Y-138785891D01*
X180693608Y-138913187D01*
X180726554Y-138970250D01*
X180759500Y-139027314D01*
X180852686Y-139120500D01*
X180966814Y-139186392D01*
X181094108Y-139220500D01*
X181094110Y-139220500D01*
X181225890Y-139220500D01*
X181225892Y-139220500D01*
X181353186Y-139186392D01*
X181467314Y-139120500D01*
X181560500Y-139027314D01*
X181626392Y-138913186D01*
X181660500Y-138785892D01*
X181660500Y-138654108D01*
X181626392Y-138526814D01*
X181560500Y-138412686D01*
X181467314Y-138319500D01*
X181378436Y-138268186D01*
X181353187Y-138253608D01*
X181241223Y-138223608D01*
X181225892Y-138219500D01*
X181094108Y-138219500D01*
X180966812Y-138253608D01*
X180852686Y-138319500D01*
X180852683Y-138319502D01*
X180759502Y-138412683D01*
X180759500Y-138412686D01*
X180693608Y-138526812D01*
X180659500Y-138654108D01*
X177060500Y-138654108D01*
X177060500Y-138624108D01*
X177026392Y-138496814D01*
X176960500Y-138382686D01*
X176867314Y-138289500D01*
X176785364Y-138242186D01*
X176753187Y-138223608D01*
X176689539Y-138206554D01*
X176625892Y-138189500D01*
X176494108Y-138189500D01*
X176366812Y-138223608D01*
X176252686Y-138289500D01*
X176252683Y-138289502D01*
X176159502Y-138382683D01*
X176159500Y-138382686D01*
X176093608Y-138496812D01*
X176072524Y-138575500D01*
X176059500Y-138624108D01*
X173031922Y-138624108D01*
X172291922Y-137884108D01*
X190549500Y-137884108D01*
X190549500Y-138015891D01*
X190583608Y-138143187D01*
X190610347Y-138189500D01*
X190649500Y-138257314D01*
X190742686Y-138350500D01*
X190856814Y-138416392D01*
X190984108Y-138450500D01*
X190984110Y-138450500D01*
X191115890Y-138450500D01*
X191115892Y-138450500D01*
X191243186Y-138416392D01*
X191357314Y-138350500D01*
X191450500Y-138257314D01*
X191516392Y-138143186D01*
X191550500Y-138015892D01*
X191550500Y-137884108D01*
X191516392Y-137756814D01*
X191450500Y-137642686D01*
X191357314Y-137549500D01*
X191300250Y-137516554D01*
X191243187Y-137483608D01*
X191179539Y-137466554D01*
X191115892Y-137449500D01*
X190984108Y-137449500D01*
X190856812Y-137483608D01*
X190742686Y-137549500D01*
X190742683Y-137549502D01*
X190649502Y-137642683D01*
X190649500Y-137642686D01*
X190583608Y-137756812D01*
X190549500Y-137884108D01*
X172291922Y-137884108D01*
X172285819Y-137878005D01*
X172252334Y-137816682D01*
X172249500Y-137790324D01*
X172249500Y-136479250D01*
X172253725Y-136447157D01*
X172258012Y-136431157D01*
X172275500Y-136365892D01*
X172275500Y-136234108D01*
X172263336Y-136188711D01*
X172698049Y-136188711D01*
X172698049Y-136320495D01*
X172715103Y-136384142D01*
X172732157Y-136447790D01*
X172764673Y-136504108D01*
X172798049Y-136561917D01*
X172891235Y-136655103D01*
X173005363Y-136720995D01*
X173132657Y-136755103D01*
X173132659Y-136755103D01*
X173264439Y-136755103D01*
X173264441Y-136755103D01*
X173391735Y-136720995D01*
X173505863Y-136655103D01*
X173599049Y-136561917D01*
X173632425Y-136504108D01*
X176689500Y-136504108D01*
X176689500Y-136635892D01*
X176694647Y-136655100D01*
X176723608Y-136763187D01*
X176754302Y-136816349D01*
X176789500Y-136877314D01*
X176882686Y-136970500D01*
X176996814Y-137036392D01*
X177124108Y-137070500D01*
X177124110Y-137070500D01*
X177255890Y-137070500D01*
X177255892Y-137070500D01*
X177383186Y-137036392D01*
X177497314Y-136970500D01*
X177590500Y-136877314D01*
X177656392Y-136763186D01*
X177690500Y-136635892D01*
X177690500Y-136504108D01*
X177656392Y-136376814D01*
X177590500Y-136262686D01*
X177497314Y-136169500D01*
X177422928Y-136126553D01*
X177383187Y-136103608D01*
X177319539Y-136086554D01*
X177255892Y-136069500D01*
X177124108Y-136069500D01*
X176996812Y-136103608D01*
X176882686Y-136169500D01*
X176882683Y-136169502D01*
X176789502Y-136262683D01*
X176789500Y-136262686D01*
X176723608Y-136376812D01*
X176697087Y-136475792D01*
X176689500Y-136504108D01*
X173632425Y-136504108D01*
X173664941Y-136447789D01*
X173699049Y-136320495D01*
X173699049Y-136230435D01*
X173718734Y-136163396D01*
X173735368Y-136142754D01*
X173954694Y-135923428D01*
X180576679Y-135923428D01*
X180576679Y-136055212D01*
X180589373Y-136102587D01*
X180610787Y-136182507D01*
X180640581Y-136234110D01*
X180676679Y-136296634D01*
X180769865Y-136389820D01*
X180857340Y-136440324D01*
X180877854Y-136452168D01*
X180883993Y-136455712D01*
X181011287Y-136489820D01*
X181011289Y-136489820D01*
X181143069Y-136489820D01*
X181143071Y-136489820D01*
X181270365Y-136455712D01*
X181384493Y-136389820D01*
X181477679Y-136296634D01*
X181543571Y-136182506D01*
X181543909Y-136181246D01*
X184693082Y-136181246D01*
X184693082Y-136313030D01*
X184705429Y-136359110D01*
X184727190Y-136440325D01*
X184760136Y-136497388D01*
X184793082Y-136554452D01*
X184886268Y-136647638D01*
X185000396Y-136713530D01*
X185127690Y-136747638D01*
X185127692Y-136747638D01*
X185259472Y-136747638D01*
X185259474Y-136747638D01*
X185386768Y-136713530D01*
X185500896Y-136647638D01*
X185594082Y-136554452D01*
X185594087Y-136554441D01*
X185594424Y-136554005D01*
X185594813Y-136553720D01*
X185599829Y-136548705D01*
X185600611Y-136549487D01*
X185650851Y-136512801D01*
X185720597Y-136508644D01*
X185781518Y-136542855D01*
X185794453Y-136559922D01*
X185794552Y-136559847D01*
X185799498Y-136566293D01*
X185799500Y-136566296D01*
X185892686Y-136659482D01*
X185970422Y-136704363D01*
X186002989Y-136723166D01*
X186006814Y-136725374D01*
X186134108Y-136759482D01*
X186134110Y-136759482D01*
X186265890Y-136759482D01*
X186265892Y-136759482D01*
X186393186Y-136725374D01*
X186507314Y-136659482D01*
X186600500Y-136566296D01*
X186600504Y-136566288D01*
X186605448Y-136559847D01*
X186606863Y-136560933D01*
X186650154Y-136519647D01*
X186718760Y-136506417D01*
X186783627Y-136532379D01*
X186794666Y-136542176D01*
X186797774Y-136545284D01*
X186797775Y-136545285D01*
X186890961Y-136638471D01*
X187005089Y-136704363D01*
X187132383Y-136738471D01*
X187132385Y-136738471D01*
X187264165Y-136738471D01*
X187264167Y-136738471D01*
X187391461Y-136704363D01*
X187505589Y-136638471D01*
X187598775Y-136545285D01*
X187664667Y-136431157D01*
X187698775Y-136303863D01*
X187698775Y-136172079D01*
X187680155Y-136102587D01*
X188552994Y-136102587D01*
X188552994Y-136234370D01*
X188587102Y-136361666D01*
X188603357Y-136389820D01*
X188652994Y-136475793D01*
X188746180Y-136568979D01*
X188860308Y-136634871D01*
X188987602Y-136668979D01*
X188987604Y-136668979D01*
X189119384Y-136668979D01*
X189119386Y-136668979D01*
X189246680Y-136634871D01*
X189360808Y-136568979D01*
X189453994Y-136475793D01*
X189519886Y-136361665D01*
X189520571Y-136359108D01*
X191224500Y-136359108D01*
X191224500Y-136490892D01*
X191232205Y-136519647D01*
X191258608Y-136618187D01*
X191282450Y-136659481D01*
X191324500Y-136732314D01*
X191417686Y-136825500D01*
X191531814Y-136891392D01*
X191659108Y-136925500D01*
X191659110Y-136925500D01*
X191790890Y-136925500D01*
X191790892Y-136925500D01*
X191918186Y-136891392D01*
X192032314Y-136825500D01*
X192125500Y-136732314D01*
X192191392Y-136618186D01*
X192225500Y-136490892D01*
X192225500Y-136359108D01*
X192191392Y-136231814D01*
X192125500Y-136117686D01*
X192032314Y-136024500D01*
X191950591Y-135977317D01*
X191918187Y-135958608D01*
X191848071Y-135939821D01*
X191790892Y-135924500D01*
X191659108Y-135924500D01*
X191531812Y-135958608D01*
X191417686Y-136024500D01*
X191417683Y-136024502D01*
X191324502Y-136117683D01*
X191324500Y-136117686D01*
X191258608Y-136231812D01*
X191236847Y-136313029D01*
X191224500Y-136359108D01*
X189520571Y-136359108D01*
X189553994Y-136234371D01*
X189553994Y-136102587D01*
X189519886Y-135975293D01*
X189453994Y-135861165D01*
X189360808Y-135767979D01*
X189273868Y-135717784D01*
X189246681Y-135702087D01*
X189171725Y-135682003D01*
X189119386Y-135667979D01*
X188987602Y-135667979D01*
X188860306Y-135702087D01*
X188746180Y-135767979D01*
X188746177Y-135767981D01*
X188652996Y-135861162D01*
X188652994Y-135861165D01*
X188587102Y-135975291D01*
X188552994Y-136102587D01*
X187680155Y-136102587D01*
X187664667Y-136044785D01*
X187598775Y-135930657D01*
X187505589Y-135837471D01*
X187448525Y-135804525D01*
X187391462Y-135771579D01*
X187298379Y-135746638D01*
X187264167Y-135737471D01*
X187132383Y-135737471D01*
X187005087Y-135771579D01*
X186890961Y-135837471D01*
X186890958Y-135837473D01*
X186797777Y-135930654D01*
X186792827Y-135937106D01*
X186791415Y-135936022D01*
X186748096Y-135977317D01*
X186679488Y-135990532D01*
X186614626Y-135964557D01*
X186603608Y-135954776D01*
X186507316Y-135858484D01*
X186507314Y-135858482D01*
X186450250Y-135825536D01*
X186393187Y-135792590D01*
X186301343Y-135767981D01*
X186265892Y-135758482D01*
X186134108Y-135758482D01*
X186006812Y-135792590D01*
X185892686Y-135858482D01*
X185892683Y-135858484D01*
X185799494Y-135951673D01*
X185799144Y-135952130D01*
X185798751Y-135952416D01*
X185793753Y-135957415D01*
X185792972Y-135956634D01*
X185742711Y-135993325D01*
X185672964Y-135997470D01*
X185612049Y-135963249D01*
X185599127Y-135946197D01*
X185599030Y-135946273D01*
X185594084Y-135939827D01*
X185594082Y-135939824D01*
X185500896Y-135846638D01*
X185413421Y-135796134D01*
X185386769Y-135780746D01*
X185303677Y-135758482D01*
X185259474Y-135746638D01*
X185127690Y-135746638D01*
X185000394Y-135780746D01*
X184886268Y-135846638D01*
X184886265Y-135846640D01*
X184793084Y-135939821D01*
X184793082Y-135939824D01*
X184727190Y-136053950D01*
X184709292Y-136120748D01*
X184693082Y-136181246D01*
X181543909Y-136181246D01*
X181577679Y-136055212D01*
X181577679Y-135923428D01*
X181543571Y-135796134D01*
X181477679Y-135682006D01*
X181384493Y-135588820D01*
X181327429Y-135555874D01*
X181270366Y-135522928D01*
X181206718Y-135505874D01*
X181143071Y-135488820D01*
X181011287Y-135488820D01*
X180883991Y-135522928D01*
X180769865Y-135588820D01*
X180769862Y-135588822D01*
X180676681Y-135682003D01*
X180676679Y-135682006D01*
X180610787Y-135796132D01*
X180593363Y-135861162D01*
X180576679Y-135923428D01*
X173954694Y-135923428D01*
X174050502Y-135827620D01*
X174389302Y-135488820D01*
X175706172Y-134171949D01*
X175767493Y-134138466D01*
X175837185Y-134143450D01*
X175893118Y-134185322D01*
X175913625Y-134227537D01*
X175924619Y-134268566D01*
X175924619Y-134268567D01*
X175928622Y-134275500D01*
X175990512Y-134382696D01*
X176083698Y-134475882D01*
X176197826Y-134541774D01*
X176325120Y-134575882D01*
X176325122Y-134575882D01*
X176456902Y-134575882D01*
X176456904Y-134575882D01*
X176584198Y-134541774D01*
X176698326Y-134475882D01*
X176791512Y-134382696D01*
X176857404Y-134268568D01*
X176891512Y-134141274D01*
X176891512Y-134009490D01*
X176857404Y-133882196D01*
X176791512Y-133768068D01*
X176698326Y-133674882D01*
X176629404Y-133635090D01*
X190954200Y-133635090D01*
X190954200Y-133766874D01*
X190965517Y-133809110D01*
X190988308Y-133894169D01*
X191015283Y-133940890D01*
X191054200Y-134008296D01*
X191147386Y-134101482D01*
X191216306Y-134141273D01*
X191258245Y-134165487D01*
X191261514Y-134167374D01*
X191388808Y-134201482D01*
X191388810Y-134201482D01*
X191520590Y-134201482D01*
X191520592Y-134201482D01*
X191647886Y-134167374D01*
X191762014Y-134101482D01*
X191855200Y-134008296D01*
X191921092Y-133894168D01*
X191955200Y-133766874D01*
X191955200Y-133643244D01*
X193274500Y-133643244D01*
X193274500Y-133775028D01*
X193281128Y-133799764D01*
X193308608Y-133902323D01*
X193329389Y-133938316D01*
X193374500Y-134016450D01*
X193467686Y-134109636D01*
X193581814Y-134175528D01*
X193709108Y-134209636D01*
X193709110Y-134209636D01*
X193840890Y-134209636D01*
X193840892Y-134209636D01*
X193968186Y-134175528D01*
X194082314Y-134109636D01*
X194175500Y-134016450D01*
X194241392Y-133902322D01*
X194275500Y-133775028D01*
X194275500Y-133643244D01*
X194241392Y-133515950D01*
X194175500Y-133401822D01*
X194082314Y-133308636D01*
X193981750Y-133250575D01*
X193968187Y-133242744D01*
X193904539Y-133225690D01*
X193840892Y-133208636D01*
X193709108Y-133208636D01*
X193581812Y-133242744D01*
X193467686Y-133308636D01*
X193467683Y-133308638D01*
X193374502Y-133401819D01*
X193374500Y-133401822D01*
X193308608Y-133515948D01*
X193283678Y-133608990D01*
X193274500Y-133643244D01*
X191955200Y-133643244D01*
X191955200Y-133635090D01*
X191921092Y-133507796D01*
X191855200Y-133393668D01*
X191762014Y-133300482D01*
X191675573Y-133250575D01*
X191647887Y-133234590D01*
X191551023Y-133208636D01*
X191520592Y-133200482D01*
X191388808Y-133200482D01*
X191261512Y-133234590D01*
X191147386Y-133300482D01*
X191147383Y-133300484D01*
X191054202Y-133393665D01*
X191054200Y-133393668D01*
X190988308Y-133507794D01*
X190968187Y-133582890D01*
X190954200Y-133635090D01*
X176629404Y-133635090D01*
X176584197Y-133608989D01*
X176543167Y-133597995D01*
X176483507Y-133561630D01*
X176452979Y-133498782D01*
X176461274Y-133429407D01*
X176487578Y-133390543D01*
X176997828Y-132880295D01*
X177059151Y-132846810D01*
X177085509Y-132843976D01*
X179876978Y-132843976D01*
X179876980Y-132843976D01*
X179953407Y-132823497D01*
X180021929Y-132783936D01*
X180077878Y-132727987D01*
X180865602Y-131940263D01*
X187037268Y-131940263D01*
X187037268Y-132072046D01*
X187071376Y-132199342D01*
X187096569Y-132242976D01*
X187137268Y-132313469D01*
X187230454Y-132406655D01*
X187344582Y-132472547D01*
X187471876Y-132506655D01*
X187471878Y-132506655D01*
X187603658Y-132506655D01*
X187603660Y-132506655D01*
X187730954Y-132472547D01*
X187845082Y-132406655D01*
X187938268Y-132313469D01*
X188004160Y-132199341D01*
X188038268Y-132072047D01*
X188038268Y-131940263D01*
X188004160Y-131812969D01*
X187938268Y-131698841D01*
X187845082Y-131605655D01*
X187788018Y-131572709D01*
X187730955Y-131539763D01*
X187667307Y-131522709D01*
X187603660Y-131505655D01*
X187471876Y-131505655D01*
X187344580Y-131539763D01*
X187230454Y-131605655D01*
X187230451Y-131605657D01*
X187137270Y-131698838D01*
X187137268Y-131698841D01*
X187071376Y-131812967D01*
X187037268Y-131940263D01*
X180865602Y-131940263D01*
X183159287Y-129646577D01*
X192575935Y-129646577D01*
X192575935Y-129778360D01*
X192610043Y-129905656D01*
X192642989Y-129962719D01*
X192675935Y-130019783D01*
X192769121Y-130112969D01*
X192883249Y-130178861D01*
X193010543Y-130212969D01*
X193010545Y-130212969D01*
X193142325Y-130212969D01*
X193142327Y-130212969D01*
X193269621Y-130178861D01*
X193383749Y-130112969D01*
X193476935Y-130019783D01*
X193542827Y-129905655D01*
X193576935Y-129778361D01*
X193576935Y-129646577D01*
X193542827Y-129519283D01*
X193476935Y-129405155D01*
X193383749Y-129311969D01*
X193286611Y-129255886D01*
X193269622Y-129246077D01*
X193205974Y-129229023D01*
X193142327Y-129211969D01*
X193010543Y-129211969D01*
X192883247Y-129246077D01*
X192769121Y-129311969D01*
X192769118Y-129311971D01*
X192675937Y-129405152D01*
X192675935Y-129405155D01*
X192610043Y-129519281D01*
X192575935Y-129646577D01*
X183159287Y-129646577D01*
X185415048Y-127390815D01*
X188634519Y-127390815D01*
X188634519Y-127522598D01*
X188668627Y-127649894D01*
X188688381Y-127684108D01*
X188734519Y-127764021D01*
X188827705Y-127857207D01*
X188941833Y-127923099D01*
X189069127Y-127957207D01*
X189069129Y-127957207D01*
X189200909Y-127957207D01*
X189200911Y-127957207D01*
X189328205Y-127923099D01*
X189442333Y-127857207D01*
X189535519Y-127764021D01*
X189601411Y-127649893D01*
X189635519Y-127522599D01*
X189635519Y-127390815D01*
X189601411Y-127263521D01*
X189535519Y-127149393D01*
X189442333Y-127056207D01*
X189385269Y-127023261D01*
X189328206Y-126990315D01*
X189264558Y-126973261D01*
X189200911Y-126956207D01*
X189069127Y-126956207D01*
X188941831Y-126990315D01*
X188827705Y-127056207D01*
X188827702Y-127056209D01*
X188734521Y-127149390D01*
X188734519Y-127149393D01*
X188668627Y-127263519D01*
X188634519Y-127390815D01*
X185415048Y-127390815D01*
X186733806Y-126072057D01*
X186795129Y-126038573D01*
X186821487Y-126035739D01*
X186911545Y-126035739D01*
X186911547Y-126035739D01*
X187038841Y-126001631D01*
X187152969Y-125935739D01*
X187246155Y-125842553D01*
X187312047Y-125728425D01*
X187346155Y-125601131D01*
X187346155Y-125469347D01*
X187312047Y-125342053D01*
X187246155Y-125227925D01*
X187152969Y-125134739D01*
X187095905Y-125101793D01*
X187038842Y-125068847D01*
X186959038Y-125047464D01*
X186911547Y-125034739D01*
X186779763Y-125034739D01*
X186652467Y-125068847D01*
X186538341Y-125134739D01*
X186538338Y-125134741D01*
X186445157Y-125227922D01*
X186445155Y-125227925D01*
X186413470Y-125282805D01*
X186362902Y-125331020D01*
X186294295Y-125344242D01*
X186229431Y-125318274D01*
X186198696Y-125282805D01*
X186174358Y-125240650D01*
X186081172Y-125147464D01*
X186023072Y-125113920D01*
X185967045Y-125081572D01*
X185883206Y-125059108D01*
X185839750Y-125047464D01*
X185707966Y-125047464D01*
X185580670Y-125081572D01*
X185466544Y-125147464D01*
X185466541Y-125147466D01*
X185373360Y-125240647D01*
X185373358Y-125240650D01*
X185307466Y-125354776D01*
X185276768Y-125469347D01*
X185273358Y-125482072D01*
X185273358Y-125613856D01*
X185290412Y-125677503D01*
X185307466Y-125741151D01*
X185326143Y-125773499D01*
X185373358Y-125855278D01*
X185466544Y-125948464D01*
X185580672Y-126014356D01*
X185657845Y-126035034D01*
X185717504Y-126071397D01*
X185748034Y-126134244D01*
X185739740Y-126203620D01*
X185713432Y-126242489D01*
X179749266Y-132206657D01*
X179687943Y-132240142D01*
X179661585Y-132242976D01*
X176870114Y-132242976D01*
X176831900Y-132253215D01*
X176793685Y-132263455D01*
X176766933Y-132278901D01*
X176753557Y-132286624D01*
X176749901Y-132288735D01*
X176725165Y-132303015D01*
X175062888Y-133965292D01*
X175001565Y-133998777D01*
X174931873Y-133993793D01*
X174875940Y-133951921D01*
X174867820Y-133939611D01*
X174808245Y-133836424D01*
X174715059Y-133743238D01*
X174634789Y-133696894D01*
X174600932Y-133677346D01*
X174537284Y-133660292D01*
X174473637Y-133643238D01*
X174341853Y-133643238D01*
X174214557Y-133677346D01*
X174100431Y-133743238D01*
X174100428Y-133743240D01*
X174011019Y-133832650D01*
X173949696Y-133866135D01*
X173880004Y-133861151D01*
X173824071Y-133819279D01*
X173799654Y-133753815D01*
X173799338Y-133744969D01*
X173799338Y-133651077D01*
X173799338Y-133651075D01*
X173765230Y-133523781D01*
X173699338Y-133409653D01*
X173606152Y-133316467D01*
X173549088Y-133283521D01*
X173492025Y-133250575D01*
X173417110Y-133230502D01*
X173364730Y-133216467D01*
X173232946Y-133216467D01*
X173105650Y-133250575D01*
X172991524Y-133316467D01*
X172991521Y-133316469D01*
X172898340Y-133409650D01*
X172898338Y-133409653D01*
X172832446Y-133523779D01*
X172798338Y-133651075D01*
X172798338Y-133782858D01*
X172832446Y-133910154D01*
X172850193Y-133940892D01*
X172898338Y-134024281D01*
X172991524Y-134117467D01*
X173105652Y-134183359D01*
X173232946Y-134217467D01*
X173232948Y-134217467D01*
X173364728Y-134217467D01*
X173364730Y-134217467D01*
X173492024Y-134183359D01*
X173606152Y-134117467D01*
X173695564Y-134028055D01*
X173756887Y-133994570D01*
X173826579Y-133999554D01*
X173882512Y-134041426D01*
X173906929Y-134106890D01*
X173907245Y-134115736D01*
X173907245Y-134209630D01*
X173907247Y-134209636D01*
X173941353Y-134336925D01*
X173967781Y-134382698D01*
X174007245Y-134451052D01*
X174100431Y-134544238D01*
X174180490Y-134590460D01*
X174203618Y-134603813D01*
X174251834Y-134654380D01*
X174265057Y-134722987D01*
X174239089Y-134787852D01*
X174229299Y-134798881D01*
X173310396Y-135717784D01*
X173249073Y-135751269D01*
X173222715Y-135754103D01*
X173132657Y-135754103D01*
X173005361Y-135788211D01*
X172891235Y-135854103D01*
X172891232Y-135854105D01*
X172798051Y-135947286D01*
X172798049Y-135947289D01*
X172732157Y-136061415D01*
X172703196Y-136169502D01*
X172698049Y-136188711D01*
X172263336Y-136188711D01*
X172253725Y-136152840D01*
X172249500Y-136120748D01*
X172249500Y-131929415D01*
X172692389Y-131929415D01*
X172692389Y-132061199D01*
X172695296Y-132072047D01*
X172726497Y-132188494D01*
X172736984Y-132206657D01*
X172792389Y-132302621D01*
X172885575Y-132395807D01*
X172999703Y-132461699D01*
X173126997Y-132495807D01*
X173126999Y-132495807D01*
X173258779Y-132495807D01*
X173258781Y-132495807D01*
X173386075Y-132461699D01*
X173500203Y-132395807D01*
X173593389Y-132302621D01*
X173659281Y-132188493D01*
X173693389Y-132061199D01*
X173693389Y-131929415D01*
X173659281Y-131802121D01*
X173593389Y-131687993D01*
X173500203Y-131594807D01*
X173443139Y-131561861D01*
X173386076Y-131528915D01*
X173322428Y-131511861D01*
X173258781Y-131494807D01*
X173126997Y-131494807D01*
X172999701Y-131528915D01*
X172885575Y-131594807D01*
X172885572Y-131594809D01*
X172792391Y-131687990D01*
X172792389Y-131687993D01*
X172726497Y-131802119D01*
X172712562Y-131854126D01*
X172692389Y-131929415D01*
X172249500Y-131929415D01*
X172249500Y-131111529D01*
X177886152Y-131111529D01*
X177886152Y-131243312D01*
X177920260Y-131370608D01*
X177930150Y-131387737D01*
X177986152Y-131484735D01*
X178079338Y-131577921D01*
X178193466Y-131643813D01*
X178320760Y-131677921D01*
X178320762Y-131677921D01*
X178452542Y-131677921D01*
X178452544Y-131677921D01*
X178579838Y-131643813D01*
X178693966Y-131577921D01*
X178787152Y-131484735D01*
X178853044Y-131370607D01*
X178887152Y-131243313D01*
X178887152Y-131111529D01*
X178853044Y-130984235D01*
X178787152Y-130870107D01*
X178770776Y-130853731D01*
X178737291Y-130792408D01*
X178742275Y-130722716D01*
X178770774Y-130678371D01*
X184841529Y-124607617D01*
X190712332Y-124607617D01*
X190712332Y-124739400D01*
X190746440Y-124866696D01*
X190769484Y-124906608D01*
X190812332Y-124980823D01*
X190905518Y-125074009D01*
X191019646Y-125139901D01*
X191146940Y-125174009D01*
X191146942Y-125174009D01*
X191278722Y-125174009D01*
X191278724Y-125174009D01*
X191406018Y-125139901D01*
X191520146Y-125074009D01*
X191613332Y-124980823D01*
X191679224Y-124866695D01*
X191713332Y-124739401D01*
X191713332Y-124607617D01*
X191679224Y-124480323D01*
X191613332Y-124366195D01*
X191520146Y-124273009D01*
X191463082Y-124240063D01*
X191406019Y-124207117D01*
X191342371Y-124190063D01*
X191278724Y-124173009D01*
X191146940Y-124173009D01*
X191019644Y-124207117D01*
X190905518Y-124273009D01*
X190905515Y-124273011D01*
X190812334Y-124366192D01*
X190812332Y-124366195D01*
X190746440Y-124480321D01*
X190712332Y-124607617D01*
X184841529Y-124607617D01*
X185486092Y-123963054D01*
X195257020Y-123963054D01*
X195257020Y-124094838D01*
X195258537Y-124100499D01*
X195291128Y-124222133D01*
X195321940Y-124275500D01*
X195357020Y-124336260D01*
X195450206Y-124429446D01*
X195564334Y-124495338D01*
X195691628Y-124529446D01*
X195691630Y-124529446D01*
X195823410Y-124529446D01*
X195823412Y-124529446D01*
X195950706Y-124495338D01*
X196064834Y-124429446D01*
X196158020Y-124336260D01*
X196223912Y-124222132D01*
X196258020Y-124094838D01*
X196258020Y-123963054D01*
X196223912Y-123835760D01*
X196158020Y-123721632D01*
X196064834Y-123628446D01*
X196007770Y-123595500D01*
X195950707Y-123562554D01*
X195887059Y-123545500D01*
X195823412Y-123528446D01*
X195691628Y-123528446D01*
X195564332Y-123562554D01*
X195450206Y-123628446D01*
X195450203Y-123628448D01*
X195357022Y-123721629D01*
X195357020Y-123721632D01*
X195291128Y-123835758D01*
X195267112Y-123925391D01*
X195257020Y-123963054D01*
X185486092Y-123963054D01*
X186900516Y-122548630D01*
X189592177Y-122548630D01*
X189592177Y-122680413D01*
X189626285Y-122807709D01*
X189628642Y-122811791D01*
X189692177Y-122921836D01*
X189785363Y-123015022D01*
X189899491Y-123080914D01*
X190026785Y-123115022D01*
X190026787Y-123115022D01*
X190158567Y-123115022D01*
X190158569Y-123115022D01*
X190285863Y-123080914D01*
X190399991Y-123015022D01*
X190493177Y-122921836D01*
X190559069Y-122807708D01*
X190593177Y-122680414D01*
X190593177Y-122548630D01*
X190559069Y-122421336D01*
X190493177Y-122307208D01*
X190399991Y-122214022D01*
X190342927Y-122181076D01*
X190285864Y-122148130D01*
X190267923Y-122143323D01*
X190158569Y-122114022D01*
X190026785Y-122114022D01*
X189899489Y-122148130D01*
X189785363Y-122214022D01*
X189785360Y-122214024D01*
X189692179Y-122307205D01*
X189692177Y-122307208D01*
X189626285Y-122421334D01*
X189592177Y-122548630D01*
X186900516Y-122548630D01*
X187568963Y-121880183D01*
X187630286Y-121846698D01*
X187656644Y-121843864D01*
X188152736Y-121843864D01*
X188219775Y-121863549D01*
X188240417Y-121880183D01*
X188304098Y-121943864D01*
X188418226Y-122009756D01*
X188545520Y-122043864D01*
X188545522Y-122043864D01*
X188677302Y-122043864D01*
X188677304Y-122043864D01*
X188745325Y-122025638D01*
X195930189Y-122025638D01*
X195930189Y-122157421D01*
X195964297Y-122284717D01*
X195977343Y-122307313D01*
X196030189Y-122398844D01*
X196123375Y-122492030D01*
X196237503Y-122557922D01*
X196364797Y-122592030D01*
X196364799Y-122592030D01*
X196496579Y-122592030D01*
X196496581Y-122592030D01*
X196623875Y-122557922D01*
X196738003Y-122492030D01*
X196831189Y-122398844D01*
X196897081Y-122284716D01*
X196931189Y-122157422D01*
X196931189Y-122025638D01*
X196897081Y-121898344D01*
X196831189Y-121784216D01*
X196738003Y-121691030D01*
X196672585Y-121653261D01*
X196623876Y-121625138D01*
X196528199Y-121599502D01*
X196496581Y-121591030D01*
X196364797Y-121591030D01*
X196237501Y-121625138D01*
X196123375Y-121691030D01*
X196123372Y-121691032D01*
X196030191Y-121784213D01*
X196030189Y-121784216D01*
X195964297Y-121898342D01*
X195930189Y-122025638D01*
X188745325Y-122025638D01*
X188804598Y-122009756D01*
X188918726Y-121943864D01*
X189011912Y-121850678D01*
X189077804Y-121736550D01*
X189111912Y-121609256D01*
X189111912Y-121477472D01*
X189077804Y-121350178D01*
X189011912Y-121236050D01*
X188918726Y-121142864D01*
X188861662Y-121109918D01*
X188804599Y-121076972D01*
X188740951Y-121059918D01*
X188677304Y-121042864D01*
X188545520Y-121042864D01*
X188418224Y-121076972D01*
X188304098Y-121142864D01*
X188304095Y-121142866D01*
X188240417Y-121206545D01*
X188179094Y-121240030D01*
X188152736Y-121242864D01*
X187441249Y-121242864D01*
X187410678Y-121251055D01*
X187364819Y-121263343D01*
X187364818Y-121263344D01*
X187316433Y-121291280D01*
X187316432Y-121291280D01*
X187296306Y-121302899D01*
X187296298Y-121302905D01*
X178146193Y-130453010D01*
X178146187Y-130453018D01*
X178106634Y-130521527D01*
X178106631Y-130521532D01*
X178086152Y-130597962D01*
X178086152Y-130718744D01*
X178066467Y-130785783D01*
X178049834Y-130806425D01*
X177986152Y-130870107D01*
X177920260Y-130984233D01*
X177886152Y-131111529D01*
X172249500Y-131111529D01*
X172249500Y-127594936D01*
X177886643Y-127594936D01*
X177886643Y-127726720D01*
X177896638Y-127764021D01*
X177920751Y-127854015D01*
X177922594Y-127857207D01*
X177986643Y-127968142D01*
X178079829Y-128061328D01*
X178193957Y-128127220D01*
X178321251Y-128161328D01*
X178321253Y-128161328D01*
X178453033Y-128161328D01*
X178453035Y-128161328D01*
X178580329Y-128127220D01*
X178694457Y-128061328D01*
X178787643Y-127968142D01*
X178853535Y-127854014D01*
X178887643Y-127726720D01*
X178887643Y-127594936D01*
X178853535Y-127467642D01*
X178787643Y-127353514D01*
X178694457Y-127260328D01*
X178637393Y-127227382D01*
X178580330Y-127194436D01*
X178516682Y-127177382D01*
X178453035Y-127160328D01*
X178321251Y-127160328D01*
X178193955Y-127194436D01*
X178079829Y-127260328D01*
X178079826Y-127260330D01*
X177986645Y-127353511D01*
X177986643Y-127353514D01*
X177920751Y-127467640D01*
X177906025Y-127522599D01*
X177886643Y-127594936D01*
X172249500Y-127594936D01*
X172249500Y-123892462D01*
X172269185Y-123825423D01*
X172285819Y-123804781D01*
X172800500Y-123290100D01*
X175365712Y-120724889D01*
X178436808Y-120724889D01*
X178436808Y-120856672D01*
X178470916Y-120983968D01*
X178494895Y-121025500D01*
X178536808Y-121098095D01*
X178629994Y-121191281D01*
X178744122Y-121257173D01*
X178871416Y-121291281D01*
X178871418Y-121291281D01*
X179003198Y-121291281D01*
X179003200Y-121291281D01*
X179130494Y-121257173D01*
X179244622Y-121191281D01*
X179337808Y-121098095D01*
X179403700Y-120983967D01*
X179437808Y-120856673D01*
X179437808Y-120724889D01*
X179403700Y-120597595D01*
X179337808Y-120483467D01*
X179244622Y-120390281D01*
X179187558Y-120357335D01*
X179130495Y-120324389D01*
X179066847Y-120307335D01*
X179003200Y-120290281D01*
X178871416Y-120290281D01*
X178744120Y-120324389D01*
X178629994Y-120390281D01*
X178629991Y-120390283D01*
X178536810Y-120483464D01*
X178536808Y-120483467D01*
X178470916Y-120597593D01*
X178436808Y-120724889D01*
X175365712Y-120724889D01*
X175461520Y-120629081D01*
X178091800Y-117998800D01*
X178091802Y-117998798D01*
X178102479Y-117980306D01*
X178157695Y-117884669D01*
X178173608Y-117825280D01*
X178191803Y-117757376D01*
X178191803Y-117625591D01*
X178191803Y-113639015D01*
X178157695Y-113511721D01*
X178091803Y-113397593D01*
X177998617Y-113304407D01*
X177941553Y-113271461D01*
X177884490Y-113238515D01*
X177820842Y-113221461D01*
X177757195Y-113204407D01*
X177625411Y-113204407D01*
X177498115Y-113238515D01*
X177383989Y-113304407D01*
X177383986Y-113304409D01*
X177290805Y-113397590D01*
X177290803Y-113397593D01*
X177224911Y-113511719D01*
X177190803Y-113639015D01*
X177190803Y-117432807D01*
X177171118Y-117499846D01*
X177154484Y-117520488D01*
X173112181Y-121562791D01*
X173050858Y-121596276D01*
X172981166Y-121591292D01*
X172925233Y-121549420D01*
X172900816Y-121483956D01*
X172900500Y-121475110D01*
X172900500Y-118059110D01*
X172900500Y-118059108D01*
X172866392Y-117931814D01*
X172800500Y-117817686D01*
X172707314Y-117724500D01*
X172707313Y-117724499D01*
X172702983Y-117720169D01*
X172702972Y-117720159D01*
X172116819Y-117134005D01*
X172083334Y-117072682D01*
X172080500Y-117046324D01*
X172080500Y-113104109D01*
X172080500Y-113104108D01*
X172076637Y-113089692D01*
X172046392Y-112976814D01*
X172029519Y-112947589D01*
X171980500Y-112862686D01*
X171887314Y-112769500D01*
X171210819Y-112093005D01*
X171177334Y-112031682D01*
X171174500Y-112005324D01*
X171174500Y-109467895D01*
X171173439Y-109459835D01*
X171173935Y-109459769D01*
X171171268Y-109439506D01*
X171171268Y-107662835D01*
X171190953Y-107595796D01*
X171243757Y-107550041D01*
X171312915Y-107540097D01*
X171357269Y-107555449D01*
X171448072Y-107607875D01*
X171448073Y-107607875D01*
X171448078Y-107607878D01*
X171575372Y-107641986D01*
X171575374Y-107641986D01*
X171707154Y-107641986D01*
X171707156Y-107641986D01*
X171834450Y-107607878D01*
X171948578Y-107541986D01*
X172041764Y-107448800D01*
X172107656Y-107334672D01*
X172141764Y-107207378D01*
X172141764Y-107075594D01*
X172107656Y-106948300D01*
X172041764Y-106834172D01*
X171948578Y-106740986D01*
X171891514Y-106708040D01*
X171834451Y-106675094D01*
X171770803Y-106658040D01*
X171707156Y-106640986D01*
X171575372Y-106640986D01*
X171448078Y-106675094D01*
X171448077Y-106675094D01*
X171448075Y-106675095D01*
X171448074Y-106675095D01*
X171357268Y-106727523D01*
X171289368Y-106743996D01*
X171223341Y-106721144D01*
X171180151Y-106666223D01*
X171171268Y-106620136D01*
X171171268Y-105269669D01*
X171190953Y-105202630D01*
X171207587Y-105181988D01*
X173851219Y-102538356D01*
X173912542Y-102504871D01*
X173982234Y-102509855D01*
X174038167Y-102551727D01*
X174062584Y-102617191D01*
X174062900Y-102626037D01*
X174062900Y-102817214D01*
X174099579Y-103001609D01*
X174099582Y-103001621D01*
X174171529Y-103175318D01*
X174171536Y-103175331D01*
X174275991Y-103331657D01*
X174275994Y-103331661D01*
X174408938Y-103464605D01*
X174408942Y-103464608D01*
X174565268Y-103569063D01*
X174565281Y-103569070D01*
X174706299Y-103627481D01*
X174738983Y-103641019D01*
X174923385Y-103677699D01*
X174923388Y-103677700D01*
X174923390Y-103677700D01*
X175111412Y-103677700D01*
X175111413Y-103677699D01*
X175295817Y-103641019D01*
X175448821Y-103577643D01*
X175469518Y-103569070D01*
X175469518Y-103569069D01*
X175469525Y-103569067D01*
X175625858Y-103464608D01*
X175758808Y-103331658D01*
X175863267Y-103175325D01*
X175880739Y-103133141D01*
X175924579Y-103078741D01*
X175990873Y-103056675D01*
X176058572Y-103073954D01*
X176106183Y-103125090D01*
X176109852Y-103133123D01*
X176115755Y-103147372D01*
X176127334Y-103175327D01*
X176127336Y-103175331D01*
X176231791Y-103331657D01*
X176231794Y-103331661D01*
X176364738Y-103464605D01*
X176364742Y-103464608D01*
X176521068Y-103569063D01*
X176521081Y-103569070D01*
X176662099Y-103627481D01*
X176694783Y-103641019D01*
X176879185Y-103677699D01*
X176879188Y-103677700D01*
X176879190Y-103677700D01*
X177067212Y-103677700D01*
X177067213Y-103677699D01*
X177251617Y-103641019D01*
X177404621Y-103577643D01*
X177425318Y-103569070D01*
X177425318Y-103569069D01*
X177425325Y-103569067D01*
X177581658Y-103464608D01*
X177714608Y-103331658D01*
X177819067Y-103175325D01*
X177836539Y-103133141D01*
X177880379Y-103078741D01*
X177946673Y-103056675D01*
X178014372Y-103073954D01*
X178061983Y-103125090D01*
X178065652Y-103133123D01*
X178071555Y-103147372D01*
X178083134Y-103175327D01*
X178083136Y-103175331D01*
X178187591Y-103331657D01*
X178187594Y-103331661D01*
X178320538Y-103464605D01*
X178320542Y-103464608D01*
X178476868Y-103569063D01*
X178476881Y-103569070D01*
X178617899Y-103627481D01*
X178650583Y-103641019D01*
X178834985Y-103677699D01*
X178834988Y-103677700D01*
X178834990Y-103677700D01*
X179023012Y-103677700D01*
X179023013Y-103677699D01*
X179207417Y-103641019D01*
X179360421Y-103577643D01*
X179381118Y-103569070D01*
X179381118Y-103569069D01*
X179381125Y-103569067D01*
X179537458Y-103464608D01*
X179670408Y-103331658D01*
X179774867Y-103175325D01*
X179792339Y-103133141D01*
X179836179Y-103078741D01*
X179902473Y-103056675D01*
X179970172Y-103073954D01*
X180017783Y-103125090D01*
X180021452Y-103133123D01*
X180027355Y-103147372D01*
X180038934Y-103175327D01*
X180038936Y-103175331D01*
X180143391Y-103331657D01*
X180143394Y-103331661D01*
X180276338Y-103464605D01*
X180276342Y-103464608D01*
X180432668Y-103569063D01*
X180432681Y-103569070D01*
X180573699Y-103627481D01*
X180606383Y-103641019D01*
X180790785Y-103677699D01*
X180790788Y-103677700D01*
X180790790Y-103677700D01*
X180978812Y-103677700D01*
X180978813Y-103677699D01*
X181163217Y-103641019D01*
X181316221Y-103577643D01*
X181336918Y-103569070D01*
X181336918Y-103569069D01*
X181336925Y-103569067D01*
X181493258Y-103464608D01*
X181531477Y-103426389D01*
X181559145Y-103411280D01*
X181585899Y-103394613D01*
X181589573Y-103394664D01*
X181592799Y-103392903D01*
X181624238Y-103395151D01*
X181655761Y-103395594D01*
X181658825Y-103397624D01*
X181662491Y-103397887D01*
X181687722Y-103416774D01*
X181714003Y-103434190D01*
X181715482Y-103437554D01*
X181718425Y-103439757D01*
X181729441Y-103469291D01*
X181742133Y-103498148D01*
X181742062Y-103503129D01*
X181742843Y-103505221D01*
X181741637Y-103533438D01*
X181712578Y-103717188D01*
X181682663Y-103780330D01*
X181677782Y-103785500D01*
X181543691Y-103919591D01*
X181482371Y-103953075D01*
X181456012Y-103955909D01*
X175601224Y-103955909D01*
X175563010Y-103966148D01*
X175524795Y-103976388D01*
X175524790Y-103976391D01*
X175456281Y-104015944D01*
X175456273Y-104015950D01*
X173572946Y-105899277D01*
X173572940Y-105899285D01*
X173533387Y-105967794D01*
X173533384Y-105967799D01*
X173525749Y-105996293D01*
X173518281Y-106024167D01*
X173512905Y-106044229D01*
X173512905Y-108956005D01*
X173493220Y-109023044D01*
X173476586Y-109043686D01*
X172388497Y-110131774D01*
X172388491Y-110131782D01*
X172348938Y-110200291D01*
X172348935Y-110200296D01*
X172328456Y-110276726D01*
X172328456Y-111366488D01*
X172308771Y-111433527D01*
X172255967Y-111479282D01*
X172236549Y-111486263D01*
X172110596Y-111520012D01*
X172110594Y-111520012D01*
X172110594Y-111520013D01*
X171996468Y-111585904D01*
X171996465Y-111585906D01*
X171903284Y-111679087D01*
X171903282Y-111679090D01*
X171837390Y-111793216D01*
X171818890Y-111862260D01*
X171803282Y-111920512D01*
X171803282Y-112052296D01*
X171807911Y-112069572D01*
X171837390Y-112179591D01*
X171864293Y-112226187D01*
X171903282Y-112293718D01*
X171996468Y-112386904D01*
X172110596Y-112452796D01*
X172237890Y-112486904D01*
X172237892Y-112486904D01*
X172369672Y-112486904D01*
X172369674Y-112486904D01*
X172496968Y-112452796D01*
X172611096Y-112386904D01*
X172704282Y-112293718D01*
X172770174Y-112179590D01*
X172804282Y-112052296D01*
X172804282Y-111962236D01*
X172823967Y-111895197D01*
X172829012Y-111887930D01*
X172834329Y-111880826D01*
X172869416Y-111845740D01*
X172895479Y-111800597D01*
X172908977Y-111777218D01*
X172929456Y-111700791D01*
X172929456Y-110492120D01*
X172949141Y-110425081D01*
X172965775Y-110404439D01*
X173488327Y-109881887D01*
X174053865Y-109316349D01*
X174081993Y-109267629D01*
X174093426Y-109247827D01*
X174113905Y-109171400D01*
X174113905Y-106259623D01*
X174133590Y-106192584D01*
X174150224Y-106171942D01*
X175728938Y-104593228D01*
X175790261Y-104559743D01*
X175816619Y-104556909D01*
X181671405Y-104556909D01*
X181671407Y-104556909D01*
X181747834Y-104536430D01*
X181816356Y-104496869D01*
X181872305Y-104440920D01*
X182136486Y-104176737D01*
X182166619Y-104154583D01*
X183248072Y-103588098D01*
X183253333Y-103585501D01*
X183255678Y-103584411D01*
X183292725Y-103569067D01*
X183301885Y-103562945D01*
X183310564Y-103558914D01*
X183336017Y-103555085D01*
X183360577Y-103547392D01*
X183369997Y-103549974D01*
X183379657Y-103548522D01*
X183403137Y-103559061D01*
X183427960Y-103565868D01*
X183434488Y-103573134D01*
X183443399Y-103577134D01*
X183457454Y-103598694D01*
X183474657Y-103617841D01*
X183476220Y-103627481D01*
X183481555Y-103635665D01*
X183481721Y-103661403D01*
X183485842Y-103686809D01*
X183481944Y-103695765D01*
X183482008Y-103705534D01*
X183468233Y-103727277D01*
X183457965Y-103750876D01*
X183450488Y-103759053D01*
X182349904Y-104859638D01*
X182288581Y-104893123D01*
X182262223Y-104895957D01*
X176559703Y-104895957D01*
X176483275Y-104916435D01*
X176414754Y-104955997D01*
X176414751Y-104955999D01*
X174758212Y-106612538D01*
X174758206Y-106612546D01*
X174718653Y-106681055D01*
X174718650Y-106681060D01*
X174698171Y-106757490D01*
X174698171Y-109091396D01*
X174678486Y-109158435D01*
X174661852Y-109179077D01*
X173611998Y-110228930D01*
X173611992Y-110228938D01*
X173572439Y-110297447D01*
X173572436Y-110297452D01*
X173551957Y-110373882D01*
X173551957Y-111775505D01*
X173532272Y-111842544D01*
X173515638Y-111863186D01*
X173439081Y-111939742D01*
X173439079Y-111939745D01*
X173373187Y-112053871D01*
X173346286Y-112154269D01*
X173339079Y-112181167D01*
X173339079Y-112312951D01*
X173343286Y-112328651D01*
X173373187Y-112440246D01*
X173382968Y-112457186D01*
X173439079Y-112554373D01*
X173532265Y-112647559D01*
X173646393Y-112713451D01*
X173773687Y-112747559D01*
X173773689Y-112747559D01*
X173905469Y-112747559D01*
X173905471Y-112747559D01*
X174032765Y-112713451D01*
X174146893Y-112647559D01*
X174240079Y-112554373D01*
X174305971Y-112440245D01*
X174340079Y-112312951D01*
X174340079Y-112181167D01*
X174305971Y-112053873D01*
X174305059Y-112052294D01*
X174279090Y-112007314D01*
X174240079Y-111939745D01*
X174189276Y-111888942D01*
X174155791Y-111827619D01*
X174152957Y-111801261D01*
X174152957Y-111444364D01*
X174172642Y-111377325D01*
X174225446Y-111331570D01*
X174294604Y-111321626D01*
X174309041Y-111324587D01*
X174407060Y-111350851D01*
X174407062Y-111350851D01*
X174538841Y-111350851D01*
X174538844Y-111350851D01*
X174629014Y-111326690D01*
X174698859Y-111328353D01*
X174756721Y-111367515D01*
X174784226Y-111431743D01*
X174785103Y-111446465D01*
X174785103Y-115648750D01*
X174801256Y-115709032D01*
X174802977Y-115715454D01*
X174807202Y-115747548D01*
X174807202Y-116003337D01*
X174787517Y-116070376D01*
X174770883Y-116091018D01*
X174716442Y-116145458D01*
X174716440Y-116145461D01*
X174650548Y-116259587D01*
X174616440Y-116386883D01*
X174616440Y-116518666D01*
X174650548Y-116645962D01*
X174674117Y-116686784D01*
X174716440Y-116760089D01*
X174809626Y-116853275D01*
X174923754Y-116919167D01*
X175051048Y-116953275D01*
X175051050Y-116953275D01*
X175182830Y-116953275D01*
X175182832Y-116953275D01*
X175310126Y-116919167D01*
X175424254Y-116853275D01*
X175517440Y-116760089D01*
X175583332Y-116645961D01*
X175617440Y-116518667D01*
X175617440Y-116386883D01*
X175583332Y-116259589D01*
X175517440Y-116145461D01*
X175444520Y-116072541D01*
X175411036Y-116011217D01*
X175408202Y-115984860D01*
X175408202Y-115591728D01*
X175408202Y-115591725D01*
X175404980Y-115579700D01*
X175390328Y-115525017D01*
X175386103Y-115492924D01*
X175386103Y-110972959D01*
X175405788Y-110905920D01*
X175422422Y-110885278D01*
X175866942Y-110440758D01*
X176321353Y-109986347D01*
X176360915Y-109917824D01*
X176381393Y-109841398D01*
X176381393Y-109762274D01*
X176381393Y-108946508D01*
X179785368Y-108946508D01*
X179785368Y-109078291D01*
X179819476Y-109205587D01*
X179835758Y-109233787D01*
X179885368Y-109319714D01*
X179978554Y-109412900D01*
X180092682Y-109478792D01*
X180219976Y-109512900D01*
X180219978Y-109512900D01*
X180351758Y-109512900D01*
X180351760Y-109512900D01*
X180479054Y-109478792D01*
X180593182Y-109412900D01*
X180686368Y-109319714D01*
X180752260Y-109205586D01*
X180786368Y-109078292D01*
X180786368Y-108946508D01*
X180752260Y-108819214D01*
X180686368Y-108705086D01*
X180593182Y-108611900D01*
X180531933Y-108576538D01*
X180479055Y-108546008D01*
X180415407Y-108528954D01*
X180351760Y-108511900D01*
X180219976Y-108511900D01*
X180092680Y-108546008D01*
X179978554Y-108611900D01*
X179978551Y-108611902D01*
X179885370Y-108705083D01*
X179885368Y-108705086D01*
X179819476Y-108819212D01*
X179785368Y-108946508D01*
X176381393Y-108946508D01*
X176381393Y-107780012D01*
X177685532Y-107780012D01*
X177685532Y-107911795D01*
X177719640Y-108039091D01*
X177752586Y-108096154D01*
X177785532Y-108153218D01*
X177878718Y-108246404D01*
X177992846Y-108312296D01*
X178120140Y-108346404D01*
X178120142Y-108346404D01*
X178251922Y-108346404D01*
X178251924Y-108346404D01*
X178379218Y-108312296D01*
X178493346Y-108246404D01*
X178586532Y-108153218D01*
X178652424Y-108039090D01*
X178686532Y-107911796D01*
X178686532Y-107780012D01*
X178652424Y-107652718D01*
X178586532Y-107538590D01*
X178493346Y-107445404D01*
X178436282Y-107412458D01*
X178379219Y-107379512D01*
X178305028Y-107359633D01*
X178251924Y-107345404D01*
X178120140Y-107345404D01*
X177992844Y-107379512D01*
X177878718Y-107445404D01*
X177878715Y-107445406D01*
X177785534Y-107538587D01*
X177785532Y-107538590D01*
X177719640Y-107652716D01*
X177685532Y-107780012D01*
X176381393Y-107780012D01*
X176381393Y-107716232D01*
X176401078Y-107649193D01*
X176417712Y-107628551D01*
X177564382Y-106481881D01*
X177625705Y-106448396D01*
X177652063Y-106445562D01*
X181759185Y-106445562D01*
X181826224Y-106465247D01*
X181871979Y-106518051D01*
X181881923Y-106587209D01*
X181866572Y-106631563D01*
X181831360Y-106692549D01*
X181804835Y-106791543D01*
X181797252Y-106819845D01*
X181797252Y-106951629D01*
X181799964Y-106961750D01*
X181831360Y-107078924D01*
X181842868Y-107098856D01*
X181897252Y-107193051D01*
X181990438Y-107286237D01*
X182104566Y-107352129D01*
X182231860Y-107386237D01*
X182231862Y-107386237D01*
X182363641Y-107386237D01*
X182363644Y-107386237D01*
X182462931Y-107359633D01*
X182532777Y-107361296D01*
X182590639Y-107400458D01*
X182618144Y-107464686D01*
X182606558Y-107533589D01*
X182582702Y-107567089D01*
X181774152Y-108375640D01*
X181718204Y-108431587D01*
X181718198Y-108431595D01*
X181678645Y-108500104D01*
X181678642Y-108500109D01*
X181658163Y-108576539D01*
X181658163Y-115443427D01*
X181649518Y-115472867D01*
X181642995Y-115502854D01*
X181639240Y-115507869D01*
X181638478Y-115510466D01*
X181621844Y-115531108D01*
X181607866Y-115545086D01*
X181546543Y-115578571D01*
X181520185Y-115581405D01*
X181430128Y-115581405D01*
X181302832Y-115615513D01*
X181188706Y-115681405D01*
X181188703Y-115681407D01*
X181095522Y-115774588D01*
X181095520Y-115774591D01*
X181029628Y-115888717D01*
X181005408Y-115979110D01*
X180995520Y-116016013D01*
X180995520Y-116147797D01*
X181012574Y-116211444D01*
X181029628Y-116275092D01*
X181062574Y-116332155D01*
X181095520Y-116389219D01*
X181188706Y-116482405D01*
X181302834Y-116548297D01*
X181430128Y-116582405D01*
X181430130Y-116582405D01*
X181561910Y-116582405D01*
X181561912Y-116582405D01*
X181689206Y-116548297D01*
X181803334Y-116482405D01*
X181896520Y-116389219D01*
X181962412Y-116275091D01*
X181996520Y-116147797D01*
X181996520Y-116057737D01*
X182005164Y-116028296D01*
X182011688Y-115998310D01*
X182015442Y-115993294D01*
X182016205Y-115990698D01*
X182032839Y-115970056D01*
X182089774Y-115913121D01*
X182103146Y-115899749D01*
X182164468Y-115866265D01*
X182234160Y-115871249D01*
X182290093Y-115913121D01*
X182314510Y-115978585D01*
X182310601Y-116019523D01*
X182306783Y-116033773D01*
X182287431Y-116105996D01*
X182287431Y-116237779D01*
X182321539Y-116365075D01*
X182335479Y-116389219D01*
X182387431Y-116479202D01*
X182480617Y-116572388D01*
X182594745Y-116638280D01*
X182722039Y-116672388D01*
X182722041Y-116672388D01*
X182853821Y-116672388D01*
X182853823Y-116672388D01*
X182981117Y-116638280D01*
X183095245Y-116572388D01*
X183188431Y-116479202D01*
X183254323Y-116365074D01*
X183288431Y-116237780D01*
X183288431Y-116105996D01*
X183254323Y-115978702D01*
X183254255Y-115978585D01*
X183245494Y-115963409D01*
X183188431Y-115864574D01*
X183095245Y-115771388D01*
X183020064Y-115727982D01*
X182981118Y-115705496D01*
X182917470Y-115688442D01*
X182853823Y-115671388D01*
X182722039Y-115671388D01*
X182594743Y-115705496D01*
X182480617Y-115771388D01*
X182480613Y-115771391D01*
X182464132Y-115787872D01*
X182402808Y-115821356D01*
X182333117Y-115816370D01*
X182277184Y-115774497D01*
X182252769Y-115709032D01*
X182256679Y-115668093D01*
X182259163Y-115658824D01*
X182259163Y-109647721D01*
X183519208Y-109647721D01*
X183519208Y-109779505D01*
X183531413Y-109825055D01*
X183553316Y-109906800D01*
X183586262Y-109963863D01*
X183619208Y-110020927D01*
X183619210Y-110020929D01*
X183682889Y-110084608D01*
X183716374Y-110145931D01*
X183719208Y-110172289D01*
X183719208Y-115365371D01*
X183729447Y-115403584D01*
X183739687Y-115441800D01*
X183742798Y-115449309D01*
X183740971Y-115450065D01*
X183754569Y-115500800D01*
X183754569Y-116769406D01*
X183734884Y-116836445D01*
X183718251Y-116857087D01*
X183654569Y-116920769D01*
X183588677Y-117034895D01*
X183570514Y-117102683D01*
X183554569Y-117162191D01*
X183554569Y-117293975D01*
X183568002Y-117344108D01*
X183588677Y-117421270D01*
X183614164Y-117465414D01*
X183654569Y-117535397D01*
X183747755Y-117628583D01*
X183816351Y-117668187D01*
X183857341Y-117691853D01*
X183861883Y-117694475D01*
X183989177Y-117728583D01*
X183989179Y-117728583D01*
X184120959Y-117728583D01*
X184120961Y-117728583D01*
X184248255Y-117694475D01*
X184362383Y-117628583D01*
X184455569Y-117535397D01*
X184521461Y-117421269D01*
X184555569Y-117293975D01*
X184555569Y-117162191D01*
X184521461Y-117034897D01*
X184455569Y-116920769D01*
X184391887Y-116857087D01*
X184358403Y-116795763D01*
X184355569Y-116769406D01*
X184355569Y-116313716D01*
X186361597Y-116313716D01*
X186361597Y-116445500D01*
X186370627Y-116479201D01*
X186395705Y-116572795D01*
X186428651Y-116629858D01*
X186461597Y-116686922D01*
X186554783Y-116780108D01*
X186668911Y-116846000D01*
X186796205Y-116880108D01*
X186796207Y-116880108D01*
X186927987Y-116880108D01*
X186927989Y-116880108D01*
X187055283Y-116846000D01*
X187169411Y-116780108D01*
X187241614Y-116707905D01*
X190031494Y-116707905D01*
X190031494Y-116839689D01*
X190035767Y-116855636D01*
X190065602Y-116966984D01*
X190098548Y-117024047D01*
X190131494Y-117081111D01*
X190224680Y-117174297D01*
X190338808Y-117240189D01*
X190466102Y-117274297D01*
X190466104Y-117274297D01*
X190556161Y-117274297D01*
X190623200Y-117293982D01*
X190643842Y-117310616D01*
X193014531Y-119681305D01*
X193070480Y-119737254D01*
X193070482Y-119737255D01*
X193070486Y-119737258D01*
X193119251Y-119765412D01*
X193139002Y-119776815D01*
X193215429Y-119797294D01*
X195621440Y-119797294D01*
X195688479Y-119816979D01*
X195709121Y-119833613D01*
X195772802Y-119897294D01*
X195886930Y-119963186D01*
X196014224Y-119997294D01*
X196014226Y-119997294D01*
X196146006Y-119997294D01*
X196146008Y-119997294D01*
X196273302Y-119963186D01*
X196387430Y-119897294D01*
X196480616Y-119804108D01*
X196546508Y-119689980D01*
X196580616Y-119562686D01*
X196580616Y-119430902D01*
X196546508Y-119303608D01*
X196480616Y-119189480D01*
X196387430Y-119096294D01*
X196320455Y-119057626D01*
X196273303Y-119030402D01*
X196209655Y-119013348D01*
X196146008Y-118996294D01*
X196014224Y-118996294D01*
X195886928Y-119030402D01*
X195772802Y-119096294D01*
X195772799Y-119096296D01*
X195709121Y-119159975D01*
X195647798Y-119193460D01*
X195621440Y-119196294D01*
X193430824Y-119196294D01*
X193363785Y-119176609D01*
X193343143Y-119159975D01*
X191068813Y-116885645D01*
X191035328Y-116824322D01*
X191032494Y-116797964D01*
X191032494Y-116707907D01*
X191032494Y-116707905D01*
X190998386Y-116580611D01*
X190993638Y-116572388D01*
X190979729Y-116548296D01*
X190932494Y-116466483D01*
X190839308Y-116373297D01*
X190782244Y-116340351D01*
X190725181Y-116307405D01*
X190661533Y-116290351D01*
X190597886Y-116273297D01*
X190466102Y-116273297D01*
X190338806Y-116307405D01*
X190224680Y-116373297D01*
X190224677Y-116373299D01*
X190131496Y-116466480D01*
X190131494Y-116466483D01*
X190065602Y-116580609D01*
X190037153Y-116686784D01*
X190031494Y-116707905D01*
X187241614Y-116707905D01*
X187262597Y-116686922D01*
X187328489Y-116572794D01*
X187362597Y-116445500D01*
X187362597Y-116313716D01*
X187328489Y-116186422D01*
X187262597Y-116072294D01*
X187169411Y-115979108D01*
X187108746Y-115944083D01*
X187055284Y-115913216D01*
X186991636Y-115896162D01*
X186927989Y-115879108D01*
X186796205Y-115879108D01*
X186668909Y-115913216D01*
X186554783Y-115979108D01*
X186554780Y-115979110D01*
X186461599Y-116072291D01*
X186461597Y-116072294D01*
X186395705Y-116186420D01*
X186376100Y-116259589D01*
X186361597Y-116313716D01*
X184355569Y-116313716D01*
X184355569Y-115321609D01*
X184349989Y-115300784D01*
X184335090Y-115245181D01*
X184335089Y-115245179D01*
X184331979Y-115237671D01*
X184333799Y-115236916D01*
X184320208Y-115186178D01*
X184320208Y-110503413D01*
X191542078Y-110503413D01*
X191542078Y-110635196D01*
X191576186Y-110762492D01*
X191597553Y-110799500D01*
X191642078Y-110876619D01*
X191735264Y-110969805D01*
X191849392Y-111035697D01*
X191976686Y-111069805D01*
X191976688Y-111069805D01*
X192108468Y-111069805D01*
X192108470Y-111069805D01*
X192235764Y-111035697D01*
X192349892Y-110969805D01*
X192443078Y-110876619D01*
X192508970Y-110762491D01*
X192543078Y-110635197D01*
X192543078Y-110503413D01*
X192508970Y-110376119D01*
X192507678Y-110373882D01*
X192493804Y-110349851D01*
X192443078Y-110261991D01*
X192349892Y-110168805D01*
X192292828Y-110135859D01*
X192235765Y-110102913D01*
X192167448Y-110084608D01*
X192108470Y-110068805D01*
X191976686Y-110068805D01*
X191849390Y-110102913D01*
X191735264Y-110168805D01*
X191735261Y-110168807D01*
X191642080Y-110261988D01*
X191642078Y-110261991D01*
X191576186Y-110376117D01*
X191542078Y-110503413D01*
X184320208Y-110503413D01*
X184320208Y-110172289D01*
X184339893Y-110105250D01*
X184356527Y-110084608D01*
X184372330Y-110068805D01*
X184420208Y-110020927D01*
X184486100Y-109906799D01*
X184520208Y-109779505D01*
X184520208Y-109647721D01*
X184486100Y-109520427D01*
X184486099Y-109520425D01*
X184486099Y-109520424D01*
X184477610Y-109505722D01*
X184477609Y-109505720D01*
X184462061Y-109478791D01*
X184446505Y-109451847D01*
X187241985Y-109451847D01*
X187241985Y-109583631D01*
X187257137Y-109640181D01*
X187276093Y-109710926D01*
X187283058Y-109722989D01*
X187341985Y-109825053D01*
X187435171Y-109918239D01*
X187549299Y-109984131D01*
X187676593Y-110018239D01*
X187676595Y-110018239D01*
X187808375Y-110018239D01*
X187808377Y-110018239D01*
X187935671Y-109984131D01*
X188049799Y-109918239D01*
X188142985Y-109825053D01*
X188208877Y-109710925D01*
X188242985Y-109583631D01*
X188242985Y-109451847D01*
X188208877Y-109324553D01*
X188142985Y-109210425D01*
X188049799Y-109117239D01*
X187982338Y-109078290D01*
X187935672Y-109051347D01*
X187872024Y-109034293D01*
X187808377Y-109017239D01*
X187676593Y-109017239D01*
X187549297Y-109051347D01*
X187435171Y-109117239D01*
X187435168Y-109117241D01*
X187341987Y-109210422D01*
X187341985Y-109210425D01*
X187276093Y-109324551D01*
X187252421Y-109412899D01*
X187241985Y-109451847D01*
X184446505Y-109451847D01*
X184420208Y-109406299D01*
X184327022Y-109313113D01*
X184248242Y-109267629D01*
X184212895Y-109247221D01*
X184149247Y-109230167D01*
X184085600Y-109213113D01*
X183953816Y-109213113D01*
X183826520Y-109247221D01*
X183712394Y-109313113D01*
X183712391Y-109313115D01*
X183619210Y-109406296D01*
X183619208Y-109406299D01*
X183553316Y-109520425D01*
X183523930Y-109630098D01*
X183519208Y-109647721D01*
X182259163Y-109647721D01*
X182259163Y-108791933D01*
X182278848Y-108724894D01*
X182295482Y-108704252D01*
X184467269Y-106532465D01*
X188370611Y-106532465D01*
X188370611Y-106664249D01*
X188385856Y-106721144D01*
X188404719Y-106791544D01*
X188421059Y-106819845D01*
X188470611Y-106905671D01*
X188563797Y-106998857D01*
X188677925Y-107064749D01*
X188805219Y-107098857D01*
X188805221Y-107098857D01*
X188937001Y-107098857D01*
X188937003Y-107098857D01*
X189064297Y-107064749D01*
X189178425Y-106998857D01*
X189271611Y-106905671D01*
X189337503Y-106791543D01*
X189371611Y-106664249D01*
X189371611Y-106532465D01*
X189337503Y-106405171D01*
X189271611Y-106291043D01*
X189178425Y-106197857D01*
X189098621Y-106151782D01*
X189064298Y-106131965D01*
X189000650Y-106114911D01*
X188937003Y-106097857D01*
X188805219Y-106097857D01*
X188677923Y-106131965D01*
X188563797Y-106197857D01*
X188563794Y-106197859D01*
X188470613Y-106291040D01*
X188470611Y-106291043D01*
X188404719Y-106405169D01*
X188379943Y-106497636D01*
X188370611Y-106532465D01*
X184467269Y-106532465D01*
X185314344Y-105685390D01*
X191249116Y-105685390D01*
X191249116Y-105817174D01*
X191256455Y-105844562D01*
X191283224Y-105944469D01*
X191313145Y-105996292D01*
X191349116Y-106058596D01*
X191442302Y-106151782D01*
X191556430Y-106217674D01*
X191683724Y-106251782D01*
X191683726Y-106251782D01*
X191773783Y-106251782D01*
X191840822Y-106271467D01*
X191861464Y-106288101D01*
X192735281Y-107161918D01*
X192768766Y-107223241D01*
X192771600Y-107249599D01*
X192771600Y-107736605D01*
X192783231Y-107780012D01*
X192792080Y-107813036D01*
X192792081Y-107813037D01*
X192808167Y-107840898D01*
X192808169Y-107840900D01*
X192831639Y-107881553D01*
X193551678Y-108601592D01*
X193585163Y-108662915D01*
X193580179Y-108732607D01*
X193538307Y-108788540D01*
X193472843Y-108812957D01*
X193463997Y-108813273D01*
X193362005Y-108813273D01*
X193234709Y-108847381D01*
X193120583Y-108913273D01*
X193120580Y-108913275D01*
X193027399Y-109006456D01*
X193027397Y-109006459D01*
X192961505Y-109120585D01*
X192937434Y-109210422D01*
X192927397Y-109247881D01*
X192927397Y-109379665D01*
X192936302Y-109412899D01*
X192961505Y-109506960D01*
X192993644Y-109562626D01*
X193027397Y-109621087D01*
X193120583Y-109714273D01*
X193234711Y-109780165D01*
X193362005Y-109814273D01*
X193362007Y-109814273D01*
X193493787Y-109814273D01*
X193493789Y-109814273D01*
X193621083Y-109780165D01*
X193735211Y-109714273D01*
X193828397Y-109621087D01*
X193894289Y-109506959D01*
X193928397Y-109379665D01*
X193928397Y-109277673D01*
X193948082Y-109210634D01*
X194000886Y-109164879D01*
X194070044Y-109154935D01*
X194133600Y-109183960D01*
X194140078Y-109189992D01*
X196621313Y-111671227D01*
X196654798Y-111732550D01*
X196649814Y-111802242D01*
X196641019Y-111820908D01*
X196593275Y-111903602D01*
X196593275Y-111903603D01*
X196593274Y-111903605D01*
X196593274Y-111903606D01*
X196559166Y-112030900D01*
X196559166Y-112162684D01*
X196569299Y-112200500D01*
X196593274Y-112289979D01*
X196616318Y-112329891D01*
X196659166Y-112404106D01*
X196752352Y-112497292D01*
X196866480Y-112563184D01*
X196993774Y-112597292D01*
X196993776Y-112597292D01*
X197125556Y-112597292D01*
X197125558Y-112597292D01*
X197252852Y-112563184D01*
X197366980Y-112497292D01*
X197460166Y-112404106D01*
X197526058Y-112289978D01*
X197540477Y-112236163D01*
X197576840Y-112176505D01*
X197639687Y-112145975D01*
X197709062Y-112154269D01*
X197722253Y-112160872D01*
X197731811Y-112166391D01*
X197731813Y-112166391D01*
X197731814Y-112166392D01*
X197859108Y-112200500D01*
X197859110Y-112200500D01*
X197990890Y-112200500D01*
X197990892Y-112200500D01*
X198118186Y-112166392D01*
X198232314Y-112100500D01*
X198325500Y-112007314D01*
X198391392Y-111893186D01*
X198425500Y-111765892D01*
X198425500Y-111634108D01*
X198391392Y-111506814D01*
X198325500Y-111392686D01*
X198232314Y-111299500D01*
X198126088Y-111238170D01*
X198118187Y-111233608D01*
X198054539Y-111216554D01*
X197990892Y-111199500D01*
X197859108Y-111199500D01*
X197731812Y-111233608D01*
X197617686Y-111299500D01*
X197617683Y-111299502D01*
X197524502Y-111392683D01*
X197524500Y-111392686D01*
X197483857Y-111463081D01*
X197433289Y-111511296D01*
X197364682Y-111524518D01*
X197299817Y-111498550D01*
X197288789Y-111488761D01*
X193408919Y-107608891D01*
X193375434Y-107547568D01*
X193372600Y-107521210D01*
X193372600Y-107034205D01*
X193372600Y-107034204D01*
X193352121Y-106957777D01*
X193352117Y-106957770D01*
X193312564Y-106889261D01*
X193312558Y-106889253D01*
X192286435Y-105863130D01*
X192252950Y-105801807D01*
X192250116Y-105775449D01*
X192250116Y-105685392D01*
X192250116Y-105685390D01*
X192216008Y-105558096D01*
X192150116Y-105443968D01*
X192056930Y-105350782D01*
X191999866Y-105317836D01*
X191942803Y-105284890D01*
X191879155Y-105267836D01*
X191815508Y-105250782D01*
X191683724Y-105250782D01*
X191556428Y-105284890D01*
X191442302Y-105350782D01*
X191442299Y-105350784D01*
X191349118Y-105443965D01*
X191349116Y-105443968D01*
X191283224Y-105558094D01*
X191255468Y-105661683D01*
X191249116Y-105685390D01*
X185314344Y-105685390D01*
X186603507Y-104396227D01*
X190045898Y-104396227D01*
X190045898Y-104528011D01*
X190062952Y-104591658D01*
X190080006Y-104655306D01*
X190101706Y-104692891D01*
X190145898Y-104769433D01*
X190239084Y-104862619D01*
X190353212Y-104928511D01*
X190480506Y-104962619D01*
X190480508Y-104962619D01*
X190612288Y-104962619D01*
X190612290Y-104962619D01*
X190739584Y-104928511D01*
X190853712Y-104862619D01*
X190946898Y-104769433D01*
X191012790Y-104655305D01*
X191046898Y-104528011D01*
X191046898Y-104437951D01*
X191055542Y-104408510D01*
X191062066Y-104378524D01*
X191065820Y-104373508D01*
X191066583Y-104370912D01*
X191083217Y-104350270D01*
X191148448Y-104285039D01*
X191209771Y-104251554D01*
X191279463Y-104256538D01*
X191335396Y-104298410D01*
X191359813Y-104363874D01*
X191360129Y-104372720D01*
X191360129Y-104511043D01*
X191394237Y-104638339D01*
X191410515Y-104666533D01*
X191460129Y-104752466D01*
X191553315Y-104845652D01*
X191667443Y-104911544D01*
X191794737Y-104945652D01*
X191794739Y-104945652D01*
X191926519Y-104945652D01*
X191926521Y-104945652D01*
X192053815Y-104911544D01*
X192167943Y-104845652D01*
X192261129Y-104752466D01*
X192327021Y-104638338D01*
X192361129Y-104511044D01*
X192361129Y-104379260D01*
X192327021Y-104251966D01*
X192261129Y-104137838D01*
X192261127Y-104137836D01*
X192257065Y-104130800D01*
X192258263Y-104130107D01*
X192256256Y-104124916D01*
X192246960Y-104114187D01*
X192243910Y-104092976D01*
X192236184Y-104072989D01*
X192239036Y-104059082D01*
X192237016Y-104045029D01*
X192245918Y-104025536D01*
X192250224Y-104004545D01*
X192260142Y-103994387D01*
X192266041Y-103981473D01*
X192284069Y-103969886D01*
X192299040Y-103954557D01*
X192314020Y-103950638D01*
X192324819Y-103943699D01*
X192359754Y-103938676D01*
X192437343Y-103938676D01*
X192504382Y-103958361D01*
X192525024Y-103974995D01*
X193688181Y-105138152D01*
X193721666Y-105199475D01*
X193724500Y-105225833D01*
X193724500Y-106239562D01*
X193733049Y-106271467D01*
X193744979Y-106315989D01*
X193752820Y-106329569D01*
X193752821Y-106329573D01*
X193784535Y-106384504D01*
X193784541Y-106384512D01*
X200000205Y-112600176D01*
X200033690Y-112661499D01*
X200028706Y-112731191D01*
X199986834Y-112787124D01*
X199951317Y-112804377D01*
X199951452Y-112804703D01*
X199946000Y-112806960D01*
X199944622Y-112807630D01*
X199943948Y-112807811D01*
X199943947Y-112807811D01*
X199943945Y-112807812D01*
X199829820Y-112873703D01*
X199829816Y-112873706D01*
X199734975Y-112968546D01*
X199704207Y-112989108D01*
X199704790Y-112990118D01*
X199697753Y-112994180D01*
X199697752Y-112994181D01*
X199658894Y-113016615D01*
X199629232Y-113033741D01*
X199629226Y-113033745D01*
X199473156Y-113189816D01*
X199411833Y-113223301D01*
X199385475Y-113226135D01*
X195560014Y-113226135D01*
X195521800Y-113236374D01*
X195483585Y-113246614D01*
X195483580Y-113246617D01*
X195415071Y-113286170D01*
X195415063Y-113286176D01*
X195033418Y-113667821D01*
X194972095Y-113701306D01*
X194945737Y-113704140D01*
X194855679Y-113704140D01*
X194728383Y-113738248D01*
X194614257Y-113804140D01*
X194614254Y-113804142D01*
X194521073Y-113897323D01*
X194521071Y-113897326D01*
X194455179Y-114011452D01*
X194421071Y-114138748D01*
X194421071Y-114270531D01*
X194455179Y-114397827D01*
X194479143Y-114439333D01*
X194521071Y-114511954D01*
X194614257Y-114605140D01*
X194728385Y-114671032D01*
X194855679Y-114705140D01*
X194855681Y-114705140D01*
X194987461Y-114705140D01*
X194987463Y-114705140D01*
X195114757Y-114671032D01*
X195228885Y-114605140D01*
X195322071Y-114511954D01*
X195387963Y-114397826D01*
X195422071Y-114270532D01*
X195422071Y-114180472D01*
X195441756Y-114113433D01*
X195458390Y-114092791D01*
X195687728Y-113863454D01*
X195749051Y-113829969D01*
X195775409Y-113827135D01*
X199600868Y-113827135D01*
X199600870Y-113827135D01*
X199677297Y-113806656D01*
X199745819Y-113767095D01*
X199767861Y-113745052D01*
X199829180Y-113711569D01*
X199898871Y-113716552D01*
X199917532Y-113725344D01*
X199943948Y-113740595D01*
X200071242Y-113774703D01*
X200071244Y-113774703D01*
X200203024Y-113774703D01*
X200203026Y-113774703D01*
X200330320Y-113740595D01*
X200444448Y-113674703D01*
X200537634Y-113581517D01*
X200603526Y-113467389D01*
X200603702Y-113466729D01*
X200604003Y-113466235D01*
X200606634Y-113459885D01*
X200607623Y-113460294D01*
X200640057Y-113407069D01*
X200702900Y-113376532D01*
X200772277Y-113384817D01*
X200811160Y-113411131D01*
X201233038Y-113833009D01*
X201266523Y-113894332D01*
X201261539Y-113964024D01*
X201219667Y-114019957D01*
X201154203Y-114044374D01*
X201145357Y-114044690D01*
X201101614Y-114044690D01*
X200974318Y-114078798D01*
X200860192Y-114144690D01*
X200860189Y-114144692D01*
X200767008Y-114237873D01*
X200767006Y-114237876D01*
X200701114Y-114352002D01*
X200669285Y-114470793D01*
X200632920Y-114530454D01*
X200570073Y-114560983D01*
X200500697Y-114552688D01*
X200446820Y-114508203D01*
X200426571Y-114454887D01*
X200426091Y-114451246D01*
X200426091Y-114451239D01*
X200391983Y-114323945D01*
X200326091Y-114209817D01*
X200232905Y-114116631D01*
X200175841Y-114083685D01*
X200118778Y-114050739D01*
X200055130Y-114033685D01*
X199991483Y-114016631D01*
X199859699Y-114016631D01*
X199732403Y-114050739D01*
X199618277Y-114116631D01*
X199525087Y-114209820D01*
X199520145Y-114216262D01*
X199517617Y-114214322D01*
X199477854Y-114252205D01*
X199472878Y-114254629D01*
X199463324Y-114259020D01*
X199440381Y-114265169D01*
X199407950Y-114283893D01*
X199402976Y-114286764D01*
X199402971Y-114286767D01*
X199371859Y-114304729D01*
X199371857Y-114304731D01*
X197606646Y-116069943D01*
X197545323Y-116103428D01*
X197518965Y-116106262D01*
X196494497Y-116106262D01*
X196427458Y-116086577D01*
X196381703Y-116033773D01*
X196371759Y-115964615D01*
X196400784Y-115901059D01*
X196406816Y-115894581D01*
X196422289Y-115879108D01*
X196450500Y-115850897D01*
X196516392Y-115736769D01*
X196550500Y-115609475D01*
X196550500Y-115477691D01*
X196516392Y-115350397D01*
X196450500Y-115236269D01*
X196357314Y-115143083D01*
X196299801Y-115109878D01*
X196243187Y-115077191D01*
X196176628Y-115059357D01*
X196115892Y-115043083D01*
X195984108Y-115043083D01*
X195856812Y-115077191D01*
X195742686Y-115143083D01*
X195742683Y-115143085D01*
X195649502Y-115236266D01*
X195649500Y-115236269D01*
X195583608Y-115350395D01*
X195561591Y-115432565D01*
X195549500Y-115477691D01*
X195549500Y-115609475D01*
X195566089Y-115671388D01*
X195583608Y-115736770D01*
X195613112Y-115787872D01*
X195649500Y-115850897D01*
X195649502Y-115850899D01*
X195693184Y-115894581D01*
X195726669Y-115955904D01*
X195721685Y-116025596D01*
X195679813Y-116081529D01*
X195614349Y-116105946D01*
X195605503Y-116106262D01*
X194952327Y-116106262D01*
X194885288Y-116086577D01*
X194864646Y-116069943D01*
X193792804Y-114998101D01*
X193759319Y-114936778D01*
X193756485Y-114910420D01*
X193756485Y-113862275D01*
X193776170Y-113795236D01*
X193792799Y-113774598D01*
X194779242Y-112788155D01*
X194840565Y-112754671D01*
X194899015Y-112756061D01*
X194925878Y-112763260D01*
X194925880Y-112763260D01*
X195057660Y-112763260D01*
X195057662Y-112763260D01*
X195184956Y-112729152D01*
X195299084Y-112663260D01*
X195392270Y-112570074D01*
X195458162Y-112455946D01*
X195492270Y-112328652D01*
X195492270Y-112196868D01*
X195458162Y-112069574D01*
X195392270Y-111955446D01*
X195299084Y-111862260D01*
X195239084Y-111827619D01*
X195184957Y-111796368D01*
X195113490Y-111777219D01*
X195057662Y-111762260D01*
X194925878Y-111762260D01*
X194798582Y-111796368D01*
X194684456Y-111862260D01*
X194684453Y-111862262D01*
X194591272Y-111955443D01*
X194591270Y-111955446D01*
X194525378Y-112069572D01*
X194517091Y-112100500D01*
X194495477Y-112181169D01*
X194489167Y-112204718D01*
X194485786Y-112203812D01*
X194463802Y-112253091D01*
X194457061Y-112260395D01*
X193271474Y-113445983D01*
X193215526Y-113501930D01*
X193215520Y-113501938D01*
X193175967Y-113570447D01*
X193175964Y-113570452D01*
X193172999Y-113581519D01*
X193155485Y-113646881D01*
X193155485Y-115125815D01*
X193160112Y-115143083D01*
X193175964Y-115202242D01*
X193211106Y-115263111D01*
X193215525Y-115270765D01*
X193909376Y-115964615D01*
X194591983Y-116647222D01*
X194635570Y-116672387D01*
X194660502Y-116686782D01*
X194660506Y-116686784D01*
X194736932Y-116707262D01*
X195456276Y-116707262D01*
X195523315Y-116726947D01*
X195569070Y-116779751D01*
X195579014Y-116848909D01*
X195576051Y-116863352D01*
X195549500Y-116962445D01*
X195549500Y-117094229D01*
X195560158Y-117134005D01*
X195583608Y-117221524D01*
X195606994Y-117262029D01*
X195649500Y-117335651D01*
X195742686Y-117428837D01*
X195856814Y-117494729D01*
X195984108Y-117528837D01*
X195984110Y-117528837D01*
X196115890Y-117528837D01*
X196115892Y-117528837D01*
X196243186Y-117494729D01*
X196357314Y-117428837D01*
X196450500Y-117335651D01*
X196516392Y-117221523D01*
X196550500Y-117094229D01*
X196550500Y-116962445D01*
X196523949Y-116863354D01*
X196525612Y-116793505D01*
X196564775Y-116735643D01*
X196629003Y-116708139D01*
X196643724Y-116707262D01*
X197734358Y-116707262D01*
X197734360Y-116707262D01*
X197810787Y-116686783D01*
X197879309Y-116647222D01*
X197935258Y-116591273D01*
X198342422Y-116184108D01*
X205449500Y-116184108D01*
X205449500Y-116315892D01*
X205464882Y-116373299D01*
X205483608Y-116443187D01*
X205506251Y-116482405D01*
X205549500Y-116557314D01*
X205642686Y-116650500D01*
X205756814Y-116716392D01*
X205884108Y-116750500D01*
X205884110Y-116750500D01*
X206015890Y-116750500D01*
X206015892Y-116750500D01*
X206143186Y-116716392D01*
X206257314Y-116650500D01*
X206350500Y-116557314D01*
X206416392Y-116443186D01*
X206450500Y-116315892D01*
X206450500Y-116184108D01*
X206416392Y-116056814D01*
X206413771Y-116052275D01*
X206398368Y-116025596D01*
X206350500Y-115942686D01*
X206257314Y-115849500D01*
X206178113Y-115803773D01*
X206143187Y-115783608D01*
X206039859Y-115755922D01*
X206015892Y-115749500D01*
X205884108Y-115749500D01*
X205756812Y-115783608D01*
X205642686Y-115849500D01*
X205642683Y-115849502D01*
X205549502Y-115942683D01*
X205549500Y-115942686D01*
X205483608Y-116056812D01*
X205459856Y-116145458D01*
X205449500Y-116184108D01*
X198342422Y-116184108D01*
X199430024Y-115096505D01*
X199491345Y-115063022D01*
X199561036Y-115068006D01*
X199616970Y-115109878D01*
X199641387Y-115175342D01*
X199632268Y-115231632D01*
X199629882Y-115237393D01*
X199629881Y-115237395D01*
X199629881Y-115237396D01*
X199595773Y-115364690D01*
X199595773Y-115496474D01*
X199598826Y-115507869D01*
X199629881Y-115623769D01*
X199655472Y-115668093D01*
X199695773Y-115737896D01*
X199788959Y-115831082D01*
X199903087Y-115896974D01*
X200030381Y-115931082D01*
X200030383Y-115931082D01*
X200162163Y-115931082D01*
X200162165Y-115931082D01*
X200289459Y-115896974D01*
X200403587Y-115831082D01*
X200496773Y-115737896D01*
X200546348Y-115652030D01*
X200596915Y-115603814D01*
X200653735Y-115590030D01*
X201831324Y-115590030D01*
X201898363Y-115609715D01*
X201919005Y-115626349D01*
X201982686Y-115690030D01*
X202096814Y-115755922D01*
X202224108Y-115790030D01*
X202224110Y-115790030D01*
X202355890Y-115790030D01*
X202355892Y-115790030D01*
X202483186Y-115755922D01*
X202597314Y-115690030D01*
X202690500Y-115596844D01*
X202756392Y-115482716D01*
X202790500Y-115355422D01*
X202790500Y-115300782D01*
X207594212Y-115300782D01*
X207594212Y-115432565D01*
X207628320Y-115559861D01*
X207646716Y-115591723D01*
X207694212Y-115673988D01*
X207787398Y-115767174D01*
X207872608Y-115816370D01*
X207898089Y-115831082D01*
X207901526Y-115833066D01*
X208028820Y-115867174D01*
X208028822Y-115867174D01*
X208160602Y-115867174D01*
X208160604Y-115867174D01*
X208287898Y-115833066D01*
X208402026Y-115767174D01*
X208495212Y-115673988D01*
X208561104Y-115559860D01*
X208595212Y-115432566D01*
X208595212Y-115300782D01*
X208561104Y-115173488D01*
X208495212Y-115059360D01*
X208402026Y-114966174D01*
X208344962Y-114933228D01*
X208287899Y-114900282D01*
X208224251Y-114883228D01*
X208160604Y-114866174D01*
X208028820Y-114866174D01*
X207901524Y-114900282D01*
X207787398Y-114966174D01*
X207787395Y-114966176D01*
X207694214Y-115059357D01*
X207694212Y-115059360D01*
X207628320Y-115173486D01*
X207594212Y-115300782D01*
X202790500Y-115300782D01*
X202790500Y-115223638D01*
X202756392Y-115096344D01*
X202690500Y-114982216D01*
X202597314Y-114889030D01*
X202534049Y-114852504D01*
X202483187Y-114823138D01*
X202408137Y-114803029D01*
X202355892Y-114789030D01*
X202224108Y-114789030D01*
X202096812Y-114823138D01*
X201982686Y-114889030D01*
X201982683Y-114889032D01*
X201919005Y-114952711D01*
X201892077Y-114967414D01*
X201866259Y-114984007D01*
X201860058Y-114984898D01*
X201857682Y-114986196D01*
X201831324Y-114989030D01*
X201703957Y-114989030D01*
X201636918Y-114969345D01*
X201591163Y-114916541D01*
X201581219Y-114847383D01*
X201596570Y-114803029D01*
X201604653Y-114789030D01*
X201633898Y-114738376D01*
X201662605Y-114631237D01*
X201698969Y-114571579D01*
X201761815Y-114541050D01*
X201782379Y-114539333D01*
X201869114Y-114539333D01*
X201869116Y-114539333D01*
X201996410Y-114505225D01*
X202110538Y-114439333D01*
X202203724Y-114346147D01*
X202269616Y-114232019D01*
X202303724Y-114104725D01*
X202303724Y-113972941D01*
X202269616Y-113845647D01*
X202203724Y-113731519D01*
X202110538Y-113638333D01*
X202012134Y-113581519D01*
X201996411Y-113572441D01*
X201932763Y-113555387D01*
X201869116Y-113538333D01*
X201869115Y-113538333D01*
X201839666Y-113538333D01*
X201772627Y-113518648D01*
X201751985Y-113502014D01*
X201167530Y-112917559D01*
X210684545Y-112917559D01*
X210684545Y-113049343D01*
X210691554Y-113075500D01*
X210718653Y-113176638D01*
X210747231Y-113226135D01*
X210784545Y-113290765D01*
X210877731Y-113383951D01*
X210991859Y-113449843D01*
X211119153Y-113483951D01*
X211119155Y-113483951D01*
X211250935Y-113483951D01*
X211250937Y-113483951D01*
X211378231Y-113449843D01*
X211492359Y-113383951D01*
X211585545Y-113290765D01*
X211651437Y-113176637D01*
X211685545Y-113049343D01*
X211685545Y-112917559D01*
X211651437Y-112790265D01*
X211650219Y-112788156D01*
X211630887Y-112754671D01*
X211585545Y-112676137D01*
X211518516Y-112609108D01*
X217374500Y-112609108D01*
X217374500Y-112740892D01*
X217383292Y-112773703D01*
X217408608Y-112868187D01*
X217437114Y-112917559D01*
X217474500Y-112982314D01*
X217567686Y-113075500D01*
X217681814Y-113141392D01*
X217809108Y-113175500D01*
X217809110Y-113175500D01*
X217940890Y-113175500D01*
X217940892Y-113175500D01*
X218068186Y-113141392D01*
X218182314Y-113075500D01*
X218275500Y-112982314D01*
X218341392Y-112868186D01*
X218375500Y-112740892D01*
X218375500Y-112609108D01*
X218341392Y-112481814D01*
X218275500Y-112367686D01*
X218182314Y-112274500D01*
X218098634Y-112226187D01*
X218068187Y-112208608D01*
X217965781Y-112181169D01*
X217940892Y-112174500D01*
X217809108Y-112174500D01*
X217681812Y-112208608D01*
X217567686Y-112274500D01*
X217567683Y-112274502D01*
X217474502Y-112367683D01*
X217474500Y-112367686D01*
X217408608Y-112481812D01*
X217386805Y-112563183D01*
X217374500Y-112609108D01*
X211518516Y-112609108D01*
X211492359Y-112582951D01*
X211435295Y-112550005D01*
X211378232Y-112517059D01*
X211304455Y-112497291D01*
X211250937Y-112482951D01*
X211119153Y-112482951D01*
X210991857Y-112517059D01*
X210877731Y-112582951D01*
X210877728Y-112582953D01*
X210784547Y-112676134D01*
X210784545Y-112676137D01*
X210718653Y-112790263D01*
X210713951Y-112807812D01*
X210684545Y-112917559D01*
X201167530Y-112917559D01*
X195161280Y-106911309D01*
X197556903Y-106911309D01*
X197556903Y-107043093D01*
X197562706Y-107064749D01*
X197591011Y-107170388D01*
X197612367Y-107207377D01*
X197656903Y-107284515D01*
X197750089Y-107377701D01*
X197864217Y-107443593D01*
X197991511Y-107477701D01*
X197991513Y-107477701D01*
X198123293Y-107477701D01*
X198123295Y-107477701D01*
X198250589Y-107443593D01*
X198364717Y-107377701D01*
X198457903Y-107284515D01*
X198523795Y-107170387D01*
X198557903Y-107043093D01*
X198557903Y-106911309D01*
X198523795Y-106784015D01*
X198457903Y-106669887D01*
X198364717Y-106576701D01*
X198288102Y-106532467D01*
X198250590Y-106510809D01*
X198142627Y-106481881D01*
X198123295Y-106476701D01*
X197991511Y-106476701D01*
X197864215Y-106510809D01*
X197750089Y-106576701D01*
X197750086Y-106576703D01*
X197656905Y-106669884D01*
X197656903Y-106669887D01*
X197591011Y-106784013D01*
X197563898Y-106885203D01*
X197556903Y-106911309D01*
X195161280Y-106911309D01*
X194361819Y-106111848D01*
X194328334Y-106050525D01*
X194325500Y-106024167D01*
X194325500Y-105010437D01*
X194324629Y-105007187D01*
X194324628Y-105007183D01*
X194305022Y-104934012D01*
X194265460Y-104865489D01*
X192797687Y-103397716D01*
X192762401Y-103377344D01*
X192762401Y-103377343D01*
X192762397Y-103377342D01*
X192735108Y-103361586D01*
X192729166Y-103358155D01*
X192729167Y-103358155D01*
X192690711Y-103347851D01*
X192652738Y-103337676D01*
X191330779Y-103337676D01*
X191279827Y-103351328D01*
X191254351Y-103358155D01*
X191228141Y-103373287D01*
X191221120Y-103377342D01*
X191221118Y-103377343D01*
X191221116Y-103377344D01*
X191185831Y-103397715D01*
X191185828Y-103397717D01*
X190658245Y-103925300D01*
X190596922Y-103958785D01*
X190570564Y-103961619D01*
X190480506Y-103961619D01*
X190353210Y-103995727D01*
X190239084Y-104061619D01*
X190239081Y-104061621D01*
X190145900Y-104154802D01*
X190145898Y-104154805D01*
X190080006Y-104268931D01*
X190071569Y-104300419D01*
X190045898Y-104396227D01*
X186603507Y-104396227D01*
X186699315Y-104300419D01*
X186730803Y-104268931D01*
X186777942Y-104221792D01*
X186780797Y-104216847D01*
X186817503Y-104153270D01*
X186837982Y-104076843D01*
X186837982Y-103154548D01*
X187421600Y-103154548D01*
X187421600Y-103286332D01*
X187437394Y-103345277D01*
X187455708Y-103413627D01*
X187487846Y-103469291D01*
X187521600Y-103527754D01*
X187614786Y-103620940D01*
X187728914Y-103686832D01*
X187856208Y-103720940D01*
X187856210Y-103720940D01*
X187987990Y-103720940D01*
X187987992Y-103720940D01*
X188115286Y-103686832D01*
X188229414Y-103620940D01*
X188322600Y-103527754D01*
X188388492Y-103413626D01*
X188422600Y-103286332D01*
X188422600Y-103196273D01*
X188442285Y-103129234D01*
X188458919Y-103108592D01*
X188493557Y-103073954D01*
X188540460Y-103027051D01*
X188542883Y-103022855D01*
X188580021Y-102958529D01*
X188600500Y-102882102D01*
X188600500Y-102456463D01*
X190867659Y-102456463D01*
X190867659Y-102588247D01*
X190877785Y-102626037D01*
X190901767Y-102715542D01*
X190905482Y-102721976D01*
X190967659Y-102829669D01*
X191060845Y-102922855D01*
X191174973Y-102988747D01*
X191302267Y-103022855D01*
X191302269Y-103022855D01*
X191434049Y-103022855D01*
X191434051Y-103022855D01*
X191561345Y-102988747D01*
X191675473Y-102922855D01*
X191675474Y-102922853D01*
X191682511Y-102918791D01*
X191683290Y-102920141D01*
X191739830Y-102898285D01*
X191750146Y-102897855D01*
X192853986Y-102897855D01*
X192921025Y-102917540D01*
X192941667Y-102934174D01*
X194476340Y-104468847D01*
X194476341Y-104468848D01*
X194476343Y-104468849D01*
X194488724Y-104475997D01*
X194514407Y-104495704D01*
X194623913Y-104605210D01*
X194657398Y-104666533D01*
X194660232Y-104692891D01*
X194660232Y-105293978D01*
X194683541Y-105380968D01*
X194685823Y-105389484D01*
X194721256Y-105450855D01*
X194735255Y-105475102D01*
X194735260Y-105475108D01*
X194805872Y-105545720D01*
X194809365Y-105550783D01*
X194812367Y-105552736D01*
X194831278Y-105582535D01*
X194911263Y-105760362D01*
X194917948Y-105779123D01*
X194920590Y-105788980D01*
X194933510Y-105811358D01*
X194939209Y-105822491D01*
X194944462Y-105834170D01*
X194944470Y-105834186D01*
X194951972Y-105849194D01*
X194951979Y-105849206D01*
X194952905Y-105850886D01*
X194955514Y-105855472D01*
X194959890Y-105861400D01*
X194959791Y-105861473D01*
X194971685Y-105877479D01*
X194984271Y-105899279D01*
X194986482Y-105903107D01*
X195079668Y-105996293D01*
X195193796Y-106062185D01*
X195321090Y-106096293D01*
X195321092Y-106096293D01*
X195452872Y-106096293D01*
X195452874Y-106096293D01*
X195580168Y-106062185D01*
X195694296Y-105996293D01*
X195787482Y-105903107D01*
X195853374Y-105788979D01*
X195887482Y-105661685D01*
X195887482Y-105529901D01*
X195853374Y-105402607D01*
X195787482Y-105288479D01*
X195694296Y-105195293D01*
X195694295Y-105195292D01*
X195694294Y-105195291D01*
X195673537Y-105183307D01*
X195671274Y-105181969D01*
X195661814Y-105176236D01*
X195646164Y-105162432D01*
X195471933Y-105061170D01*
X195470968Y-105060586D01*
X195448122Y-105035585D01*
X195424854Y-105011041D01*
X195424553Y-105009792D01*
X195423836Y-105009008D01*
X195422552Y-105001494D01*
X195411232Y-104954538D01*
X195411232Y-104436559D01*
X195411231Y-104436555D01*
X195401171Y-104399008D01*
X195385643Y-104341055D01*
X195336207Y-104255430D01*
X194948675Y-103867898D01*
X194948674Y-103867897D01*
X194931408Y-103857928D01*
X194926800Y-103854677D01*
X194924341Y-103851578D01*
X194910605Y-103841038D01*
X193291448Y-102221881D01*
X193291447Y-102221880D01*
X193205823Y-102172445D01*
X193158071Y-102159650D01*
X193158069Y-102159649D01*
X193158067Y-102159648D01*
X193110321Y-102146855D01*
X193110320Y-102146855D01*
X191750146Y-102146855D01*
X191683107Y-102127170D01*
X191675892Y-102122097D01*
X191561346Y-102055963D01*
X191497698Y-102038909D01*
X191434051Y-102021855D01*
X191302267Y-102021855D01*
X191174971Y-102055963D01*
X191060845Y-102121855D01*
X191060842Y-102121857D01*
X190967661Y-102215038D01*
X190967659Y-102215041D01*
X190901767Y-102329167D01*
X190890171Y-102372445D01*
X190867659Y-102456463D01*
X188600500Y-102456463D01*
X188600500Y-101877537D01*
X188620185Y-101810498D01*
X188636819Y-101789856D01*
X189352357Y-101074318D01*
X189413680Y-101040833D01*
X189440038Y-101037999D01*
X196412253Y-101037999D01*
X196441693Y-101046643D01*
X196471680Y-101053167D01*
X196476695Y-101056921D01*
X196479292Y-101057684D01*
X196499934Y-101074318D01*
X196541126Y-101115510D01*
X196574611Y-101176833D01*
X196577445Y-101203191D01*
X196577445Y-101293250D01*
X196585625Y-101323777D01*
X196611553Y-101420545D01*
X196620897Y-101436729D01*
X196677445Y-101534672D01*
X196770631Y-101627858D01*
X196884759Y-101693750D01*
X197012053Y-101727858D01*
X197012055Y-101727858D01*
X197143835Y-101727858D01*
X197143837Y-101727858D01*
X197271131Y-101693750D01*
X197385259Y-101627858D01*
X197478445Y-101534672D01*
X197544337Y-101420544D01*
X197578445Y-101293250D01*
X197578445Y-101239953D01*
X197598130Y-101172914D01*
X197650934Y-101127159D01*
X197720092Y-101117215D01*
X197783648Y-101146240D01*
X197790126Y-101152272D01*
X197868479Y-101230625D01*
X197982607Y-101296517D01*
X198109901Y-101330625D01*
X198109903Y-101330625D01*
X198241683Y-101330625D01*
X198241685Y-101330625D01*
X198368979Y-101296517D01*
X198483107Y-101230625D01*
X198576293Y-101137439D01*
X198642185Y-101023311D01*
X198676293Y-100896017D01*
X198676293Y-100764233D01*
X198642185Y-100636939D01*
X198576293Y-100522811D01*
X198483107Y-100429625D01*
X198399460Y-100381331D01*
X198368980Y-100363733D01*
X198305332Y-100346679D01*
X198241685Y-100329625D01*
X198109901Y-100329625D01*
X197982605Y-100363733D01*
X197868479Y-100429625D01*
X197868476Y-100429627D01*
X197775295Y-100522808D01*
X197775293Y-100522811D01*
X197709401Y-100636937D01*
X197675293Y-100764233D01*
X197675293Y-100817530D01*
X197655608Y-100884569D01*
X197602804Y-100930324D01*
X197533646Y-100940268D01*
X197470090Y-100911243D01*
X197463612Y-100905211D01*
X197385261Y-100826860D01*
X197385259Y-100826858D01*
X197310511Y-100783702D01*
X197271132Y-100760966D01*
X197204793Y-100743191D01*
X197143837Y-100726858D01*
X197053778Y-100726858D01*
X196986739Y-100707173D01*
X196966097Y-100690539D01*
X196772598Y-100497040D01*
X196772590Y-100497034D01*
X196704081Y-100457481D01*
X196704076Y-100457478D01*
X196678599Y-100450651D01*
X196627648Y-100436999D01*
X189303767Y-100436999D01*
X189224643Y-100436999D01*
X189148215Y-100457477D01*
X189079694Y-100497039D01*
X189079691Y-100497041D01*
X188059541Y-101517191D01*
X188059535Y-101517199D01*
X188019982Y-101585708D01*
X188019979Y-101585713D01*
X187999500Y-101662143D01*
X187999500Y-102595940D01*
X187979815Y-102662979D01*
X187927011Y-102708734D01*
X187875500Y-102719940D01*
X187856208Y-102719940D01*
X187728912Y-102754048D01*
X187614786Y-102819940D01*
X187614783Y-102819942D01*
X187521602Y-102913123D01*
X187521600Y-102913126D01*
X187455708Y-103027252D01*
X187443195Y-103073954D01*
X187421600Y-103154548D01*
X186837982Y-103154548D01*
X186837982Y-101436729D01*
X186857667Y-101369690D01*
X186874301Y-101349048D01*
X188035377Y-100187972D01*
X189212281Y-99011068D01*
X189242647Y-98958472D01*
X189251842Y-98942546D01*
X189272321Y-98866119D01*
X189272321Y-98002038D01*
X189292006Y-97934999D01*
X189344810Y-97889244D01*
X189413968Y-97879300D01*
X189459474Y-97898468D01*
X189460648Y-97896436D01*
X189467684Y-97900498D01*
X189467686Y-97900500D01*
X189581814Y-97966392D01*
X189709108Y-98000500D01*
X189709110Y-98000500D01*
X189840890Y-98000500D01*
X189840892Y-98000500D01*
X189968186Y-97966392D01*
X190082314Y-97900500D01*
X190175500Y-97807314D01*
X190241392Y-97693186D01*
X190275500Y-97565892D01*
X190275500Y-97434108D01*
X190241392Y-97306814D01*
X190175500Y-97192686D01*
X190082314Y-97099500D01*
X190011569Y-97058655D01*
X189968187Y-97033608D01*
X189904539Y-97016554D01*
X189840892Y-96999500D01*
X189709108Y-96999500D01*
X189581812Y-97033608D01*
X189538431Y-97058655D01*
X189467686Y-97099500D01*
X189467684Y-97099501D01*
X189460648Y-97103564D01*
X189459275Y-97101186D01*
X189406611Y-97121533D01*
X189338170Y-97107480D01*
X189288190Y-97058655D01*
X189272321Y-96997961D01*
X189272321Y-96126393D01*
X189292006Y-96059354D01*
X189308640Y-96038712D01*
X189940158Y-95407194D01*
X190001481Y-95373709D01*
X190027839Y-95370875D01*
X192030211Y-95370875D01*
X192097250Y-95390560D01*
X192117892Y-95407194D01*
X193477249Y-96766551D01*
X193533198Y-96822500D01*
X193533200Y-96822501D01*
X193533204Y-96822504D01*
X193578044Y-96848392D01*
X193601720Y-96862061D01*
X193678147Y-96882540D01*
X193678149Y-96882540D01*
X194519557Y-96882540D01*
X194519559Y-96882540D01*
X194595986Y-96862061D01*
X194664508Y-96822500D01*
X194720457Y-96766551D01*
X195382750Y-96104258D01*
X195444073Y-96070773D01*
X195470431Y-96067939D01*
X196555867Y-96067939D01*
X196622906Y-96087624D01*
X196668661Y-96140428D01*
X196678605Y-96209586D01*
X196649580Y-96273142D01*
X196643548Y-96279620D01*
X196547770Y-96375397D01*
X196547768Y-96375400D01*
X196481876Y-96489526D01*
X196447768Y-96616822D01*
X196447768Y-96748605D01*
X196481876Y-96875901D01*
X196498419Y-96904554D01*
X196547768Y-96990028D01*
X196640954Y-97083214D01*
X196755082Y-97149106D01*
X196882376Y-97183214D01*
X196882378Y-97183214D01*
X197014158Y-97183214D01*
X197014160Y-97183214D01*
X197141454Y-97149106D01*
X197255582Y-97083214D01*
X197348768Y-96990028D01*
X197414660Y-96875900D01*
X197448768Y-96748606D01*
X197448768Y-96616822D01*
X197414660Y-96489528D01*
X197348768Y-96375400D01*
X197255582Y-96282214D01*
X197252988Y-96279620D01*
X197242375Y-96260183D01*
X197227875Y-96243450D01*
X197225958Y-96230118D01*
X197219503Y-96218297D01*
X197221082Y-96196210D01*
X197217931Y-96174292D01*
X197223526Y-96162040D01*
X197224487Y-96148605D01*
X197237757Y-96130878D01*
X197246956Y-96110736D01*
X197258287Y-96103453D01*
X197266359Y-96092672D01*
X197287104Y-96084934D01*
X197305734Y-96072962D01*
X197327652Y-96069810D01*
X197331823Y-96068255D01*
X197340669Y-96067939D01*
X197479922Y-96067939D01*
X197546961Y-96087624D01*
X197567603Y-96104258D01*
X198061449Y-96598104D01*
X198094934Y-96659427D01*
X198097768Y-96685785D01*
X198097768Y-96748605D01*
X198131876Y-96875901D01*
X198148419Y-96904554D01*
X198197768Y-96990028D01*
X198290954Y-97083214D01*
X198386888Y-97138601D01*
X198397447Y-97144698D01*
X198445663Y-97195265D01*
X198458885Y-97263872D01*
X198432917Y-97328737D01*
X198386296Y-97364073D01*
X198386305Y-97364088D01*
X198386185Y-97364156D01*
X198382903Y-97366645D01*
X198379268Y-97368150D01*
X198265138Y-97434044D01*
X198265135Y-97434046D01*
X198171954Y-97527227D01*
X198171952Y-97527230D01*
X198106060Y-97641357D01*
X198100143Y-97663439D01*
X198068052Y-97719022D01*
X198016990Y-97770085D01*
X198016987Y-97770089D01*
X197977434Y-97838598D01*
X197977431Y-97838603D01*
X197963862Y-97889244D01*
X197956952Y-97915032D01*
X197956952Y-97994156D01*
X197958652Y-98000499D01*
X197977431Y-98070584D01*
X197977434Y-98070589D01*
X198016987Y-98139098D01*
X198016991Y-98139103D01*
X198016992Y-98139105D01*
X198072941Y-98195054D01*
X198072943Y-98195055D01*
X198072947Y-98195058D01*
X198123628Y-98224318D01*
X198141463Y-98234615D01*
X198217890Y-98255094D01*
X198266640Y-98255094D01*
X198328639Y-98271706D01*
X198379266Y-98300936D01*
X198506560Y-98335044D01*
X198506562Y-98335044D01*
X198638342Y-98335044D01*
X198638344Y-98335044D01*
X198765638Y-98300936D01*
X198816185Y-98271752D01*
X198884083Y-98255279D01*
X198950110Y-98278130D01*
X198993302Y-98333051D01*
X199002185Y-98379056D01*
X199007898Y-106948298D01*
X199009500Y-109350759D01*
X199009500Y-109389562D01*
X199009525Y-109389658D01*
X199009526Y-109389762D01*
X199009582Y-109389974D01*
X199009583Y-109389977D01*
X199015742Y-109412900D01*
X199019871Y-109428269D01*
X199029979Y-109465989D01*
X199030029Y-109466076D01*
X199030056Y-109466175D01*
X199030102Y-109466255D01*
X199030103Y-109466257D01*
X199037351Y-109478791D01*
X199049782Y-109500289D01*
X199061409Y-109520427D01*
X199069540Y-109534511D01*
X199069552Y-109534526D01*
X199069557Y-109534533D01*
X199069647Y-109534650D01*
X199069661Y-109534668D01*
X199069663Y-109534671D01*
X199097656Y-109562627D01*
X199125489Y-109590460D01*
X199125492Y-109590462D01*
X199125554Y-109590509D01*
X199125641Y-109590575D01*
X199125649Y-109590583D01*
X199159662Y-109610189D01*
X199159722Y-109610252D01*
X199159734Y-109610231D01*
X199194011Y-109630021D01*
X199194014Y-109630022D01*
X199194193Y-109630095D01*
X199194198Y-109630098D01*
X199231850Y-109640160D01*
X199231919Y-109640202D01*
X199231925Y-109640181D01*
X199252563Y-109645710D01*
X199270438Y-109650500D01*
X199270444Y-109650500D01*
X199270634Y-109650525D01*
X199270638Y-109650526D01*
X199309429Y-109650500D01*
X199309455Y-109650500D01*
X200641413Y-109650500D01*
X200708452Y-109670185D01*
X200754207Y-109722989D01*
X200764151Y-109792147D01*
X200735126Y-109855703D01*
X200703415Y-109881886D01*
X200674639Y-109898500D01*
X200674636Y-109898502D01*
X200581455Y-109991683D01*
X200581453Y-109991686D01*
X200515561Y-110105812D01*
X200502066Y-110156177D01*
X200481453Y-110233108D01*
X200481453Y-110364892D01*
X200497580Y-110425081D01*
X200515561Y-110492187D01*
X200544920Y-110543037D01*
X200581453Y-110606314D01*
X200674639Y-110699500D01*
X200788767Y-110765392D01*
X200916061Y-110799500D01*
X200916063Y-110799500D01*
X201047843Y-110799500D01*
X201047845Y-110799500D01*
X201175139Y-110765392D01*
X201289267Y-110699500D01*
X201382453Y-110606314D01*
X201448345Y-110492186D01*
X201482453Y-110364892D01*
X201482453Y-110233108D01*
X201448345Y-110105814D01*
X201448019Y-110105250D01*
X201399335Y-110020927D01*
X201382453Y-109991686D01*
X201289267Y-109898500D01*
X201260491Y-109881886D01*
X201212277Y-109831319D01*
X201199055Y-109762712D01*
X201225023Y-109697848D01*
X201281937Y-109657320D01*
X201322493Y-109650500D01*
X209270438Y-109650500D01*
X214270438Y-109650500D01*
X218875839Y-109650500D01*
X218942878Y-109670185D01*
X218988633Y-109722989D01*
X218999839Y-109774401D01*
X219004701Y-115850899D01*
X219019142Y-133902323D01*
X219019161Y-133925401D01*
X218999530Y-133992456D01*
X218946763Y-134038253D01*
X218895161Y-134049500D01*
X214359562Y-134049500D01*
X204329562Y-134049500D01*
X204250438Y-134049500D01*
X204212224Y-134059739D01*
X204174009Y-134069979D01*
X204174004Y-134069982D01*
X204105495Y-134109535D01*
X204105487Y-134109541D01*
X204049541Y-134165487D01*
X204049535Y-134165495D01*
X204009982Y-134234004D01*
X204009979Y-134234009D01*
X204000719Y-134268568D01*
X203989532Y-134310321D01*
X203989500Y-134310439D01*
X203989500Y-143925256D01*
X203969815Y-143992295D01*
X203917011Y-144038050D01*
X203865429Y-144049256D01*
X169764089Y-144029741D01*
X169697061Y-144010018D01*
X169651336Y-143957188D01*
X169640160Y-143905844D01*
X169639583Y-143184108D01*
X200199500Y-143184108D01*
X200199500Y-143315891D01*
X200233608Y-143443187D01*
X200266554Y-143500250D01*
X200299500Y-143557314D01*
X200392686Y-143650500D01*
X200506814Y-143716392D01*
X200634108Y-143750500D01*
X200634110Y-143750500D01*
X200765890Y-143750500D01*
X200765892Y-143750500D01*
X200893186Y-143716392D01*
X201007314Y-143650500D01*
X201100500Y-143557314D01*
X201166392Y-143443186D01*
X201200500Y-143315892D01*
X201200500Y-143184108D01*
X201166392Y-143056814D01*
X201100500Y-142942686D01*
X201007314Y-142849500D01*
X200950250Y-142816554D01*
X200893187Y-142783608D01*
X200829539Y-142766554D01*
X200765892Y-142749500D01*
X200634108Y-142749500D01*
X200506812Y-142783608D01*
X200392686Y-142849500D01*
X200392683Y-142849502D01*
X200299502Y-142942683D01*
X200299500Y-142942686D01*
X200233608Y-143056812D01*
X200199500Y-143184108D01*
X169639583Y-143184108D01*
X169628448Y-129265125D01*
X169648079Y-129198071D01*
X169700846Y-129152274D01*
X169769997Y-129142275D01*
X169833576Y-129171249D01*
X169840129Y-129177346D01*
X169852777Y-129189994D01*
X169966905Y-129255886D01*
X170094199Y-129289994D01*
X170094201Y-129289994D01*
X170225981Y-129289994D01*
X170225983Y-129289994D01*
X170353277Y-129255886D01*
X170467405Y-129189994D01*
X170560591Y-129096808D01*
X170626483Y-128982680D01*
X170660591Y-128855386D01*
X170660591Y-128723602D01*
X170626483Y-128596308D01*
X170560591Y-128482180D01*
X170467405Y-128388994D01*
X170401889Y-128351168D01*
X170353278Y-128323102D01*
X170289630Y-128306048D01*
X170225983Y-128288994D01*
X170094199Y-128288994D01*
X169966903Y-128323102D01*
X169852777Y-128388994D01*
X169839366Y-128402405D01*
X169778042Y-128435888D01*
X169708350Y-128430902D01*
X169652418Y-128389029D01*
X169628003Y-128323564D01*
X169627687Y-128314844D01*
X169604607Y-99464674D01*
X169624237Y-99397624D01*
X169677004Y-99351827D01*
X169746155Y-99341828D01*
X169809734Y-99370802D01*
X169826982Y-99389093D01*
X169973638Y-99580218D01*
X170184781Y-99791361D01*
X170184788Y-99791367D01*
X170421686Y-99973145D01*
X170421701Y-99973155D01*
X170680301Y-100122458D01*
X170680315Y-100122465D01*
X170956182Y-100236732D01*
X171244634Y-100314023D01*
X171440000Y-100339742D01*
X171440000Y-99321234D01*
X171590049Y-99345000D01*
X171789951Y-99345000D01*
X171940000Y-99321234D01*
X171940000Y-100339741D01*
X172135365Y-100314023D01*
X172423817Y-100236732D01*
X172699684Y-100122465D01*
X172699698Y-100122458D01*
X172958298Y-99973155D01*
X172958313Y-99973145D01*
X173195211Y-99791367D01*
X173195218Y-99791361D01*
X173406361Y-99580218D01*
X173406367Y-99580211D01*
X173588145Y-99343313D01*
X173588155Y-99343298D01*
X173737458Y-99084698D01*
X173737465Y-99084684D01*
X173851732Y-98808817D01*
X173929023Y-98520365D01*
X173967998Y-98224318D01*
X173968000Y-98224301D01*
X173968000Y-97690000D01*
X172960000Y-97690000D01*
X172960000Y-97190000D01*
X173968000Y-97190000D01*
X173968000Y-96655698D01*
X173967998Y-96655681D01*
X173936157Y-96413818D01*
X173929023Y-96359634D01*
X173851732Y-96071182D01*
X173737465Y-95795315D01*
X173737458Y-95795301D01*
X173588155Y-95536701D01*
X173588145Y-95536686D01*
X173406367Y-95299788D01*
X173406361Y-95299781D01*
X173195218Y-95088638D01*
X173195211Y-95088632D01*
X172958313Y-94906854D01*
X172958298Y-94906844D01*
X172884639Y-94864317D01*
X172836423Y-94813750D01*
X172823200Y-94745143D01*
X172849168Y-94680278D01*
X172906083Y-94639750D01*
X172946718Y-94632930D01*
X177381026Y-94635886D01*
G37*
%TD.AperFunction*%
%TA.AperFunction,Conductor*%
G36*
X186418000Y-100339741D02*
G01*
X186613365Y-100314023D01*
X186775631Y-100270544D01*
X186845481Y-100272207D01*
X186903344Y-100311369D01*
X186930848Y-100375598D01*
X186919262Y-100444500D01*
X186895406Y-100478000D01*
X186352971Y-101020436D01*
X186297023Y-101076383D01*
X186297017Y-101076391D01*
X186257464Y-101144900D01*
X186257461Y-101144905D01*
X186236982Y-101221335D01*
X186236982Y-103861448D01*
X186217297Y-103928487D01*
X186200663Y-103949129D01*
X182979104Y-107170687D01*
X182917781Y-107204172D01*
X182848089Y-107199188D01*
X182792156Y-107157316D01*
X182767739Y-107091852D01*
X182771647Y-107050920D01*
X182798252Y-106951629D01*
X182798252Y-106819845D01*
X182764144Y-106692551D01*
X182728931Y-106631561D01*
X182712459Y-106563663D01*
X182735311Y-106497636D01*
X182790232Y-106454445D01*
X182836319Y-106445562D01*
X182876712Y-106445562D01*
X182876714Y-106445562D01*
X182953141Y-106425083D01*
X183021663Y-106385522D01*
X183077612Y-106329573D01*
X185544830Y-103862355D01*
X185550364Y-103852770D01*
X185584391Y-103793833D01*
X185604870Y-103717406D01*
X185604870Y-100743191D01*
X185603716Y-100738885D01*
X185603619Y-100738521D01*
X185603618Y-100738519D01*
X185601039Y-100728894D01*
X185584392Y-100666765D01*
X185544830Y-100598242D01*
X185418729Y-100472141D01*
X185385244Y-100410818D01*
X185390228Y-100341126D01*
X185432100Y-100285193D01*
X185497564Y-100260776D01*
X185538504Y-100264685D01*
X185722634Y-100314023D01*
X185918000Y-100339742D01*
X185918000Y-99321234D01*
X186068049Y-99345000D01*
X186267951Y-99345000D01*
X186418000Y-99321234D01*
X186418000Y-100339741D01*
G37*
%TD.AperFunction*%
%TA.AperFunction,Conductor*%
G36*
X182813197Y-98720559D02*
G01*
X182833839Y-98737193D01*
X182859665Y-98763019D01*
X182893150Y-98824342D01*
X182888166Y-98894034D01*
X182846294Y-98949967D01*
X182780830Y-98974384D01*
X182771984Y-98974700D01*
X182746587Y-98974700D01*
X182562190Y-99011379D01*
X182562178Y-99011382D01*
X182388481Y-99083329D01*
X182388468Y-99083336D01*
X182232142Y-99187791D01*
X182232138Y-99187794D01*
X182099194Y-99320738D01*
X182099191Y-99320742D01*
X181994736Y-99477068D01*
X181994729Y-99477081D01*
X181922782Y-99650778D01*
X181922779Y-99650790D01*
X181886100Y-99835185D01*
X181886100Y-100023214D01*
X181922779Y-100207609D01*
X181922782Y-100207621D01*
X181994729Y-100381318D01*
X181994736Y-100381331D01*
X182099191Y-100537657D01*
X182099194Y-100537661D01*
X182232138Y-100670605D01*
X182232142Y-100670608D01*
X182388468Y-100775063D01*
X182388481Y-100775070D01*
X182558622Y-100845544D01*
X182562183Y-100847019D01*
X182603289Y-100855195D01*
X182631758Y-100864551D01*
X182634388Y-100865785D01*
X182634395Y-100865787D01*
X182634396Y-100865788D01*
X183637769Y-101221335D01*
X183687683Y-101239022D01*
X183733948Y-101268220D01*
X184062170Y-101596442D01*
X184095655Y-101657765D01*
X184098489Y-101684123D01*
X184098489Y-103059691D01*
X184078804Y-103126730D01*
X184062170Y-103147372D01*
X183876456Y-103333085D01*
X183815133Y-103366570D01*
X183745441Y-103361586D01*
X183689508Y-103319714D01*
X183665091Y-103254250D01*
X183679943Y-103185977D01*
X183685670Y-103176517D01*
X183686467Y-103175325D01*
X183698046Y-103147372D01*
X183747800Y-103027254D01*
X183758419Y-103001617D01*
X183795100Y-102817210D01*
X183795100Y-102629190D01*
X183795100Y-102629187D01*
X183795099Y-102629185D01*
X183780543Y-102556008D01*
X183758419Y-102444783D01*
X183728456Y-102372445D01*
X183686470Y-102271081D01*
X183686463Y-102271068D01*
X183582008Y-102114742D01*
X183582005Y-102114738D01*
X183449061Y-101981794D01*
X183449057Y-101981791D01*
X183292731Y-101877336D01*
X183292718Y-101877329D01*
X183119021Y-101805382D01*
X183119009Y-101805379D01*
X182934613Y-101768700D01*
X182934610Y-101768700D01*
X182746590Y-101768700D01*
X182746587Y-101768700D01*
X182562190Y-101805379D01*
X182562178Y-101805382D01*
X182388481Y-101877329D01*
X182388468Y-101877336D01*
X182232142Y-101981791D01*
X182232138Y-101981794D01*
X182099194Y-102114738D01*
X182099191Y-102114742D01*
X181994736Y-102271068D01*
X181994729Y-102271081D01*
X181977261Y-102313255D01*
X181933420Y-102367659D01*
X181867126Y-102389724D01*
X181799427Y-102372445D01*
X181751816Y-102321308D01*
X181748139Y-102313255D01*
X181730670Y-102271081D01*
X181730663Y-102271068D01*
X181626208Y-102114742D01*
X181626205Y-102114738D01*
X181493261Y-101981794D01*
X181493257Y-101981791D01*
X181336931Y-101877336D01*
X181336918Y-101877329D01*
X181163221Y-101805382D01*
X181163209Y-101805379D01*
X180978813Y-101768700D01*
X180978810Y-101768700D01*
X180790790Y-101768700D01*
X180790787Y-101768700D01*
X180606390Y-101805379D01*
X180606378Y-101805382D01*
X180432681Y-101877329D01*
X180432668Y-101877336D01*
X180276342Y-101981791D01*
X180276338Y-101981794D01*
X180143394Y-102114738D01*
X180143391Y-102114742D01*
X180038936Y-102271068D01*
X180038929Y-102271081D01*
X180021461Y-102313255D01*
X179977620Y-102367659D01*
X179911326Y-102389724D01*
X179843627Y-102372445D01*
X179796016Y-102321308D01*
X179792339Y-102313255D01*
X179774870Y-102271081D01*
X179774863Y-102271068D01*
X179670408Y-102114742D01*
X179670405Y-102114738D01*
X179537461Y-101981794D01*
X179537457Y-101981791D01*
X179381131Y-101877336D01*
X179381118Y-101877329D01*
X179207421Y-101805382D01*
X179207409Y-101805379D01*
X179023013Y-101768700D01*
X179023010Y-101768700D01*
X178834990Y-101768700D01*
X178834987Y-101768700D01*
X178650590Y-101805379D01*
X178650578Y-101805382D01*
X178476881Y-101877329D01*
X178476868Y-101877336D01*
X178320542Y-101981791D01*
X178320538Y-101981794D01*
X178187594Y-102114738D01*
X178187591Y-102114742D01*
X178083136Y-102271068D01*
X178083129Y-102271081D01*
X178065661Y-102313255D01*
X178021820Y-102367659D01*
X177955526Y-102389724D01*
X177887827Y-102372445D01*
X177840216Y-102321308D01*
X177836539Y-102313255D01*
X177819070Y-102271081D01*
X177819063Y-102271068D01*
X177714608Y-102114742D01*
X177714605Y-102114738D01*
X177581661Y-101981794D01*
X177581657Y-101981791D01*
X177425331Y-101877336D01*
X177425326Y-101877334D01*
X177425325Y-101877333D01*
X177406274Y-101869441D01*
X177390450Y-101862887D01*
X177336047Y-101819045D01*
X177313983Y-101752750D01*
X177331263Y-101685051D01*
X177375905Y-101640939D01*
X177398568Y-101627855D01*
X177473314Y-101584700D01*
X177670945Y-101387067D01*
X177702472Y-101364194D01*
X178816134Y-100798673D01*
X178873125Y-100775067D01*
X178906382Y-100752844D01*
X178921203Y-100745319D01*
X178931731Y-100739580D01*
X178932922Y-100738885D01*
X178933549Y-100738518D01*
X178939900Y-100732527D01*
X178956094Y-100719627D01*
X179029458Y-100670608D01*
X179162408Y-100537658D01*
X179266867Y-100381325D01*
X179322439Y-100247162D01*
X179366280Y-100192758D01*
X179432574Y-100170693D01*
X179500273Y-100187972D01*
X179547884Y-100239109D01*
X179551561Y-100247162D01*
X179607129Y-100381318D01*
X179607136Y-100381331D01*
X179711591Y-100537657D01*
X179711594Y-100537661D01*
X179844538Y-100670605D01*
X179844542Y-100670608D01*
X180000868Y-100775063D01*
X180000881Y-100775070D01*
X180171022Y-100845544D01*
X180174583Y-100847019D01*
X180358985Y-100883699D01*
X180358988Y-100883700D01*
X180358990Y-100883700D01*
X180547012Y-100883700D01*
X180547013Y-100883699D01*
X180731417Y-100847019D01*
X180905125Y-100775067D01*
X181061458Y-100670608D01*
X181194408Y-100537658D01*
X181298867Y-100381325D01*
X181370819Y-100207617D01*
X181379247Y-100165243D01*
X181388036Y-100138001D01*
X181390255Y-100133129D01*
X181390264Y-100133116D01*
X181753169Y-99071909D01*
X181782812Y-99024357D01*
X182069979Y-98737190D01*
X182131301Y-98703708D01*
X182157659Y-98700874D01*
X182746158Y-98700874D01*
X182813197Y-98720559D01*
G37*
%TD.AperFunction*%
%TA.AperFunction,Conductor*%
G36*
X184897646Y-94640897D02*
G01*
X184964670Y-94660626D01*
X185010390Y-94713461D01*
X185020287Y-94782626D01*
X184991220Y-94846162D01*
X184959561Y-94872284D01*
X184899702Y-94906843D01*
X184899686Y-94906854D01*
X184662788Y-95088632D01*
X184662781Y-95088638D01*
X184451638Y-95299781D01*
X184451632Y-95299788D01*
X184269854Y-95536686D01*
X184269844Y-95536701D01*
X184120541Y-95795301D01*
X184120534Y-95795315D01*
X184006267Y-96071182D01*
X183928976Y-96359634D01*
X183890001Y-96655681D01*
X183890000Y-96655698D01*
X183890000Y-97190000D01*
X184898000Y-97190000D01*
X184898000Y-97690000D01*
X183890000Y-97690000D01*
X183890000Y-98224301D01*
X183890001Y-98224318D01*
X183928976Y-98520365D01*
X183978314Y-98704495D01*
X183976651Y-98774345D01*
X183937489Y-98832208D01*
X183873260Y-98859712D01*
X183804358Y-98848126D01*
X183770858Y-98824270D01*
X183106503Y-98159915D01*
X183106495Y-98159909D01*
X183037986Y-98120356D01*
X183037981Y-98120353D01*
X183012504Y-98113526D01*
X182961553Y-98099874D01*
X181942264Y-98099874D01*
X181904050Y-98110113D01*
X181865835Y-98120353D01*
X181865830Y-98120356D01*
X181797321Y-98159909D01*
X181797313Y-98159915D01*
X181357847Y-98599380D01*
X181310290Y-98629028D01*
X180249078Y-98991935D01*
X180244454Y-98993950D01*
X180244148Y-98993249D01*
X180217243Y-99002894D01*
X180174585Y-99011380D01*
X180174580Y-99011381D01*
X180000881Y-99083329D01*
X180000868Y-99083336D01*
X179844542Y-99187791D01*
X179844538Y-99187794D01*
X179711594Y-99320738D01*
X179711591Y-99320742D01*
X179607136Y-99477068D01*
X179607131Y-99477077D01*
X179551561Y-99611238D01*
X179507720Y-99665641D01*
X179441426Y-99687706D01*
X179373727Y-99670427D01*
X179326116Y-99619290D01*
X179322439Y-99611238D01*
X179266868Y-99477077D01*
X179266863Y-99477068D01*
X179162408Y-99320742D01*
X179162405Y-99320738D01*
X179029461Y-99187794D01*
X179029457Y-99187791D01*
X178873131Y-99083336D01*
X178873118Y-99083329D01*
X178835049Y-99067561D01*
X178780645Y-99023720D01*
X178758580Y-98957426D01*
X178775859Y-98889727D01*
X178826996Y-98842116D01*
X178882501Y-98829000D01*
X179078301Y-98829000D01*
X179078318Y-98828998D01*
X179374365Y-98790023D01*
X179662817Y-98712732D01*
X179938684Y-98598465D01*
X179938698Y-98598458D01*
X180197298Y-98449155D01*
X180197315Y-98449144D01*
X180353637Y-98329192D01*
X180353637Y-98329190D01*
X179633443Y-97608997D01*
X179756349Y-97519702D01*
X179897702Y-97378349D01*
X179986997Y-97255444D01*
X180707190Y-97975637D01*
X180707192Y-97975637D01*
X180827144Y-97819315D01*
X180827155Y-97819298D01*
X180976458Y-97560698D01*
X180976465Y-97560684D01*
X181090732Y-97284817D01*
X181168023Y-96996365D01*
X181206998Y-96700318D01*
X181207000Y-96700301D01*
X181207000Y-96401698D01*
X181206998Y-96401681D01*
X181168023Y-96105634D01*
X181090732Y-95817182D01*
X180976465Y-95541315D01*
X180976458Y-95541301D01*
X180827155Y-95282701D01*
X180827150Y-95282694D01*
X180707191Y-95126361D01*
X179986997Y-95846555D01*
X179897702Y-95723651D01*
X179756349Y-95582298D01*
X179633443Y-95493002D01*
X180353638Y-94772807D01*
X180353458Y-94770061D01*
X180368715Y-94701877D01*
X180418413Y-94652767D01*
X180477271Y-94637950D01*
X184897646Y-94640897D01*
G37*
%TD.AperFunction*%
%TA.AperFunction,Conductor*%
G36*
X198875866Y-94650216D02*
G01*
X198942891Y-94669945D01*
X198988611Y-94722780D01*
X198999782Y-94774133D01*
X199000680Y-96122261D01*
X198981040Y-96189314D01*
X198928267Y-96235104D01*
X198859115Y-96245094D01*
X198814680Y-96229731D01*
X198791457Y-96216323D01*
X198791454Y-96216322D01*
X198664160Y-96182214D01*
X198573237Y-96182214D01*
X198557007Y-96177695D01*
X198541666Y-96178128D01*
X198519484Y-96167249D01*
X198509161Y-96164375D01*
X198498412Y-96157887D01*
X198495017Y-96154492D01*
X198443678Y-96124851D01*
X198442632Y-96124220D01*
X198441496Y-96122981D01*
X198419027Y-96105740D01*
X197840267Y-95526980D01*
X197840259Y-95526974D01*
X197771750Y-95487421D01*
X197771745Y-95487418D01*
X197746268Y-95480591D01*
X197695317Y-95466939D01*
X195334160Y-95466939D01*
X195255036Y-95466939D01*
X195178608Y-95487417D01*
X195110087Y-95526979D01*
X195110084Y-95526981D01*
X194692856Y-95944208D01*
X194631533Y-95977693D01*
X194561841Y-95972709D01*
X194505908Y-95930837D01*
X194485401Y-95888623D01*
X194454255Y-95772381D01*
X194388363Y-95658253D01*
X194295177Y-95565067D01*
X194229198Y-95526974D01*
X194181050Y-95499175D01*
X194060741Y-95466939D01*
X194053755Y-95465067D01*
X193921971Y-95465067D01*
X193794675Y-95499175D01*
X193680549Y-95565067D01*
X193680546Y-95565069D01*
X193587365Y-95658250D01*
X193587361Y-95658256D01*
X193533291Y-95751905D01*
X193482723Y-95800120D01*
X193414116Y-95813341D01*
X193349252Y-95787372D01*
X193338224Y-95777584D01*
X192418290Y-94857650D01*
X192384805Y-94796327D01*
X192389789Y-94726635D01*
X192431661Y-94670702D01*
X192497125Y-94646285D01*
X192506027Y-94645969D01*
X198875866Y-94650216D01*
G37*
%TD.AperFunction*%
%TD*%
%TA.AperFunction,Conductor*%
%TO.N,/G-OUT*%
G36*
X183578750Y-99785864D02*
G01*
X183583350Y-99791920D01*
X183628472Y-99928729D01*
X183871670Y-100666096D01*
X183954776Y-100918068D01*
X183954113Y-100926998D01*
X183951938Y-100930006D01*
X183820832Y-101061112D01*
X183812559Y-101064539D01*
X183808651Y-101063867D01*
X182703033Y-100672089D01*
X182696380Y-100666096D01*
X182695463Y-100658794D01*
X182838373Y-99936178D01*
X182843339Y-99928729D01*
X182847576Y-99926973D01*
X183569971Y-99784107D01*
X183578750Y-99785864D01*
G37*
%TD.AperFunction*%
%TD*%
%TA.AperFunction,Conductor*%
%TO.N,/R-OUT*%
G36*
X182112987Y-102578455D02*
G01*
X182836536Y-102721549D01*
X182843987Y-102726516D01*
X182844003Y-102726539D01*
X183252291Y-103339308D01*
X183254026Y-103348093D01*
X183249042Y-103355533D01*
X183247983Y-103356160D01*
X182049198Y-103984105D01*
X182040279Y-103984908D01*
X182035496Y-103982014D01*
X181904370Y-103850888D01*
X181900943Y-103842615D01*
X181901085Y-103840801D01*
X182099189Y-102588107D01*
X182103865Y-102580474D01*
X182112572Y-102578382D01*
X182112987Y-102578455D01*
G37*
%TD.AperFunction*%
%TD*%
M02*
