%TF.GenerationSoftware,KiCad,Pcbnew,9.0.0*%
%TF.CreationDate,2025-11-21T22:21:23-08:00*%
%TF.ProjectId,MegaAV_CE_VA0,4d656761-4156-45f4-9345-5f5641302e6b,rev?*%
%TF.SameCoordinates,Original*%
%TF.FileFunction,Legend,Top*%
%TF.FilePolarity,Positive*%
%FSLAX46Y46*%
G04 Gerber Fmt 4.6, Leading zero omitted, Abs format (unit mm)*
G04 Created by KiCad (PCBNEW 9.0.0) date 2025-11-21 22:21:23*
%MOMM*%
%LPD*%
G01*
G04 APERTURE LIST*
%ADD10C,0.100000*%
%ADD11C,0.101600*%
%ADD12C,0.093750*%
%ADD13C,0.125000*%
%ADD14C,0.150000*%
%ADD15C,0.120000*%
%ADD16C,0.127000*%
G04 APERTURE END LIST*
D10*
X201800000Y-122250000D02*
X203300000Y-122250000D01*
X214137474Y-110930025D02*
X214850000Y-110300000D01*
X201150000Y-138800000D02*
X202050000Y-138800000D01*
X217425000Y-110300000D02*
X215938509Y-110300000D01*
X205892351Y-120538776D02*
X205906745Y-119800000D01*
X201800000Y-120900000D02*
X203300000Y-120900000D01*
X214326812Y-113400000D02*
X216850000Y-113400000D01*
X209987812Y-121486182D02*
X208437812Y-121486182D01*
X214501586Y-118100000D02*
X216800000Y-118100000D01*
X205350000Y-122250000D02*
X206434703Y-121400902D01*
X209887246Y-120297070D02*
X208437246Y-120297070D01*
X214516034Y-116750000D02*
X216850000Y-116750000D01*
X201050000Y-136650000D02*
X202300000Y-136650000D01*
X206149999Y-121623766D02*
X206150000Y-122850000D01*
X202050000Y-138800000D02*
X202350000Y-139100000D01*
X199660000Y-132800000D02*
X199370000Y-133100000D01*
X214850000Y-110300000D02*
X215049989Y-110300000D01*
X200950000Y-134500000D02*
X202000000Y-134500000D01*
X202000000Y-134500000D02*
X202400000Y-134900000D01*
X205350000Y-121000000D02*
X206434703Y-120077552D01*
X217425000Y-110300000D02*
X217875000Y-110700000D01*
X202300000Y-136650000D02*
X202650000Y-137000000D01*
X214349285Y-112200000D02*
X216850000Y-112200000D01*
X218008646Y-131755405D02*
X218008646Y-131155405D01*
X218008646Y-131441119D02*
X218351503Y-131441119D01*
X218351503Y-131755405D02*
X218351503Y-131155405D01*
X218637217Y-131755405D02*
X218637217Y-131155405D01*
X218637217Y-131155405D02*
X218865788Y-131155405D01*
X218865788Y-131155405D02*
X218922931Y-131183976D01*
X218922931Y-131183976D02*
X218951502Y-131212548D01*
X218951502Y-131212548D02*
X218980074Y-131269691D01*
X218980074Y-131269691D02*
X218980074Y-131355405D01*
X218980074Y-131355405D02*
X218951502Y-131412548D01*
X218951502Y-131412548D02*
X218922931Y-131441119D01*
X218922931Y-131441119D02*
X218865788Y-131469691D01*
X218865788Y-131469691D02*
X218637217Y-131469691D01*
X218008646Y-132721371D02*
X218008646Y-132121371D01*
X218008646Y-132121371D02*
X218237217Y-132121371D01*
X218237217Y-132121371D02*
X218294360Y-132149942D01*
X218294360Y-132149942D02*
X218322931Y-132178514D01*
X218322931Y-132178514D02*
X218351503Y-132235657D01*
X218351503Y-132235657D02*
X218351503Y-132321371D01*
X218351503Y-132321371D02*
X218322931Y-132378514D01*
X218322931Y-132378514D02*
X218294360Y-132407085D01*
X218294360Y-132407085D02*
X218237217Y-132435657D01*
X218237217Y-132435657D02*
X218008646Y-132435657D01*
X218922931Y-132721371D02*
X218580074Y-132721371D01*
X218751503Y-132721371D02*
X218751503Y-132121371D01*
X218751503Y-132121371D02*
X218694360Y-132207085D01*
X218694360Y-132207085D02*
X218637217Y-132264228D01*
X218637217Y-132264228D02*
X218580074Y-132292800D01*
X181668035Y-131029440D02*
X181610893Y-131000869D01*
X181610893Y-131000869D02*
X181525178Y-131000869D01*
X181525178Y-131000869D02*
X181439464Y-131029440D01*
X181439464Y-131029440D02*
X181382321Y-131086583D01*
X181382321Y-131086583D02*
X181353750Y-131143726D01*
X181353750Y-131143726D02*
X181325178Y-131258012D01*
X181325178Y-131258012D02*
X181325178Y-131343726D01*
X181325178Y-131343726D02*
X181353750Y-131458012D01*
X181353750Y-131458012D02*
X181382321Y-131515155D01*
X181382321Y-131515155D02*
X181439464Y-131572298D01*
X181439464Y-131572298D02*
X181525178Y-131600869D01*
X181525178Y-131600869D02*
X181582321Y-131600869D01*
X181582321Y-131600869D02*
X181668035Y-131572298D01*
X181668035Y-131572298D02*
X181696607Y-131543726D01*
X181696607Y-131543726D02*
X181696607Y-131343726D01*
X181696607Y-131343726D02*
X181582321Y-131343726D01*
X181953750Y-131600869D02*
X181953750Y-131000869D01*
X181953750Y-131000869D02*
X182296607Y-131600869D01*
X182296607Y-131600869D02*
X182296607Y-131000869D01*
X182582321Y-131600869D02*
X182582321Y-131000869D01*
X182582321Y-131000869D02*
X182725178Y-131000869D01*
X182725178Y-131000869D02*
X182810892Y-131029440D01*
X182810892Y-131029440D02*
X182868035Y-131086583D01*
X182868035Y-131086583D02*
X182896606Y-131143726D01*
X182896606Y-131143726D02*
X182925178Y-131258012D01*
X182925178Y-131258012D02*
X182925178Y-131343726D01*
X182925178Y-131343726D02*
X182896606Y-131458012D01*
X182896606Y-131458012D02*
X182868035Y-131515155D01*
X182868035Y-131515155D02*
X182810892Y-131572298D01*
X182810892Y-131572298D02*
X182725178Y-131600869D01*
X182725178Y-131600869D02*
X182582321Y-131600869D01*
X187223846Y-119178073D02*
X187223846Y-118578073D01*
X187223846Y-118578073D02*
X187423846Y-119006644D01*
X187423846Y-119006644D02*
X187623846Y-118578073D01*
X187623846Y-118578073D02*
X187623846Y-119178073D01*
X187909560Y-119178073D02*
X187909560Y-118578073D01*
X187909560Y-118578073D02*
X188052417Y-118578073D01*
X188052417Y-118578073D02*
X188138131Y-118606644D01*
X188138131Y-118606644D02*
X188195274Y-118663787D01*
X188195274Y-118663787D02*
X188223845Y-118720930D01*
X188223845Y-118720930D02*
X188252417Y-118835216D01*
X188252417Y-118835216D02*
X188252417Y-118920930D01*
X188252417Y-118920930D02*
X188223845Y-119035216D01*
X188223845Y-119035216D02*
X188195274Y-119092359D01*
X188195274Y-119092359D02*
X188138131Y-119149502D01*
X188138131Y-119149502D02*
X188052417Y-119178073D01*
X188052417Y-119178073D02*
X187909560Y-119178073D01*
X188823845Y-119178073D02*
X188480988Y-119178073D01*
X188652417Y-119178073D02*
X188652417Y-118578073D01*
X188652417Y-118578073D02*
X188595274Y-118663787D01*
X188595274Y-118663787D02*
X188538131Y-118720930D01*
X188538131Y-118720930D02*
X188480988Y-118749502D01*
X187223846Y-120144039D02*
X187223846Y-119544039D01*
X187223846Y-119544039D02*
X187452417Y-119544039D01*
X187452417Y-119544039D02*
X187509560Y-119572610D01*
X187509560Y-119572610D02*
X187538131Y-119601182D01*
X187538131Y-119601182D02*
X187566703Y-119658325D01*
X187566703Y-119658325D02*
X187566703Y-119744039D01*
X187566703Y-119744039D02*
X187538131Y-119801182D01*
X187538131Y-119801182D02*
X187509560Y-119829753D01*
X187509560Y-119829753D02*
X187452417Y-119858325D01*
X187452417Y-119858325D02*
X187223846Y-119858325D01*
X187823846Y-119544039D02*
X187823846Y-120029753D01*
X187823846Y-120029753D02*
X187852417Y-120086896D01*
X187852417Y-120086896D02*
X187880989Y-120115468D01*
X187880989Y-120115468D02*
X187938131Y-120144039D01*
X187938131Y-120144039D02*
X188052417Y-120144039D01*
X188052417Y-120144039D02*
X188109560Y-120115468D01*
X188109560Y-120115468D02*
X188138131Y-120086896D01*
X188138131Y-120086896D02*
X188166703Y-120029753D01*
X188166703Y-120029753D02*
X188166703Y-119544039D01*
X199567217Y-134188609D02*
X199233884Y-134188609D01*
X199233884Y-134712419D02*
X199233884Y-133712419D01*
X199233884Y-133712419D02*
X199710074Y-133712419D01*
X195601503Y-139655405D02*
X195972931Y-139655405D01*
X195972931Y-139655405D02*
X195772931Y-139883976D01*
X195772931Y-139883976D02*
X195858646Y-139883976D01*
X195858646Y-139883976D02*
X195915789Y-139912548D01*
X195915789Y-139912548D02*
X195944360Y-139941119D01*
X195944360Y-139941119D02*
X195972931Y-139998262D01*
X195972931Y-139998262D02*
X195972931Y-140141119D01*
X195972931Y-140141119D02*
X195944360Y-140198262D01*
X195944360Y-140198262D02*
X195915789Y-140226834D01*
X195915789Y-140226834D02*
X195858646Y-140255405D01*
X195858646Y-140255405D02*
X195687217Y-140255405D01*
X195687217Y-140255405D02*
X195630074Y-140226834D01*
X195630074Y-140226834D02*
X195601503Y-140198262D01*
X196201503Y-139712548D02*
X196230075Y-139683976D01*
X196230075Y-139683976D02*
X196287218Y-139655405D01*
X196287218Y-139655405D02*
X196430075Y-139655405D01*
X196430075Y-139655405D02*
X196487218Y-139683976D01*
X196487218Y-139683976D02*
X196515789Y-139712548D01*
X196515789Y-139712548D02*
X196544360Y-139769691D01*
X196544360Y-139769691D02*
X196544360Y-139826834D01*
X196544360Y-139826834D02*
X196515789Y-139912548D01*
X196515789Y-139912548D02*
X196172932Y-140255405D01*
X196172932Y-140255405D02*
X196544360Y-140255405D01*
X196744361Y-140255405D02*
X197058647Y-139855405D01*
X196744361Y-139855405D02*
X197058647Y-140255405D01*
X196401503Y-141221371D02*
X196115789Y-141221371D01*
X196115789Y-141221371D02*
X196115789Y-140621371D01*
X179496316Y-108410126D02*
X179496316Y-107810126D01*
X179496316Y-107810126D02*
X179724887Y-107810126D01*
X179724887Y-107810126D02*
X179782030Y-107838697D01*
X179782030Y-107838697D02*
X179810601Y-107867269D01*
X179810601Y-107867269D02*
X179839173Y-107924412D01*
X179839173Y-107924412D02*
X179839173Y-108010126D01*
X179839173Y-108010126D02*
X179810601Y-108067269D01*
X179810601Y-108067269D02*
X179782030Y-108095840D01*
X179782030Y-108095840D02*
X179724887Y-108124412D01*
X179724887Y-108124412D02*
X179496316Y-108124412D01*
X180067744Y-108238697D02*
X180353459Y-108238697D01*
X180010601Y-108410126D02*
X180210601Y-107810126D01*
X180210601Y-107810126D02*
X180410601Y-108410126D01*
X180896316Y-108410126D02*
X180610602Y-108410126D01*
X180610602Y-108410126D02*
X180610602Y-107810126D01*
D11*
X218688479Y-122267619D02*
X218053479Y-122267619D01*
X218053479Y-122267619D02*
X218053479Y-122025714D01*
X218053479Y-122025714D02*
X218083717Y-121965238D01*
X218083717Y-121965238D02*
X218113955Y-121935000D01*
X218113955Y-121935000D02*
X218174431Y-121904762D01*
X218174431Y-121904762D02*
X218265145Y-121904762D01*
X218265145Y-121904762D02*
X218325621Y-121935000D01*
X218325621Y-121935000D02*
X218355860Y-121965238D01*
X218355860Y-121965238D02*
X218386098Y-122025714D01*
X218386098Y-122025714D02*
X218386098Y-122267619D01*
X218688479Y-121360476D02*
X218355860Y-121360476D01*
X218355860Y-121360476D02*
X218295383Y-121390714D01*
X218295383Y-121390714D02*
X218265145Y-121451190D01*
X218265145Y-121451190D02*
X218265145Y-121572143D01*
X218265145Y-121572143D02*
X218295383Y-121632619D01*
X218658241Y-121360476D02*
X218688479Y-121420952D01*
X218688479Y-121420952D02*
X218688479Y-121572143D01*
X218688479Y-121572143D02*
X218658241Y-121632619D01*
X218658241Y-121632619D02*
X218597764Y-121662857D01*
X218597764Y-121662857D02*
X218537288Y-121662857D01*
X218537288Y-121662857D02*
X218476812Y-121632619D01*
X218476812Y-121632619D02*
X218446574Y-121572143D01*
X218446574Y-121572143D02*
X218446574Y-121420952D01*
X218446574Y-121420952D02*
X218416336Y-121360476D01*
X218658241Y-121088333D02*
X218688479Y-121027857D01*
X218688479Y-121027857D02*
X218688479Y-120906905D01*
X218688479Y-120906905D02*
X218658241Y-120846428D01*
X218658241Y-120846428D02*
X218597764Y-120816190D01*
X218597764Y-120816190D02*
X218567526Y-120816190D01*
X218567526Y-120816190D02*
X218507050Y-120846428D01*
X218507050Y-120846428D02*
X218476812Y-120906905D01*
X218476812Y-120906905D02*
X218476812Y-120997619D01*
X218476812Y-120997619D02*
X218446574Y-121058095D01*
X218446574Y-121058095D02*
X218386098Y-121088333D01*
X218386098Y-121088333D02*
X218355860Y-121088333D01*
X218355860Y-121088333D02*
X218295383Y-121058095D01*
X218295383Y-121058095D02*
X218265145Y-120997619D01*
X218265145Y-120997619D02*
X218265145Y-120906905D01*
X218265145Y-120906905D02*
X218295383Y-120846428D01*
X218658241Y-120574285D02*
X218688479Y-120513809D01*
X218688479Y-120513809D02*
X218688479Y-120392857D01*
X218688479Y-120392857D02*
X218658241Y-120332380D01*
X218658241Y-120332380D02*
X218597764Y-120302142D01*
X218597764Y-120302142D02*
X218567526Y-120302142D01*
X218567526Y-120302142D02*
X218507050Y-120332380D01*
X218507050Y-120332380D02*
X218476812Y-120392857D01*
X218476812Y-120392857D02*
X218476812Y-120483571D01*
X218476812Y-120483571D02*
X218446574Y-120544047D01*
X218446574Y-120544047D02*
X218386098Y-120574285D01*
X218386098Y-120574285D02*
X218355860Y-120574285D01*
X218355860Y-120574285D02*
X218295383Y-120544047D01*
X218295383Y-120544047D02*
X218265145Y-120483571D01*
X218265145Y-120483571D02*
X218265145Y-120392857D01*
X218265145Y-120392857D02*
X218295383Y-120332380D01*
D10*
X209997760Y-130668121D02*
X209997760Y-130144311D01*
X209997760Y-130144311D02*
X209950141Y-130049073D01*
X209950141Y-130049073D02*
X209854903Y-130001454D01*
X209854903Y-130001454D02*
X209664427Y-130001454D01*
X209664427Y-130001454D02*
X209569189Y-130049073D01*
X209997760Y-130620502D02*
X209902522Y-130668121D01*
X209902522Y-130668121D02*
X209664427Y-130668121D01*
X209664427Y-130668121D02*
X209569189Y-130620502D01*
X209569189Y-130620502D02*
X209521570Y-130525263D01*
X209521570Y-130525263D02*
X209521570Y-130430025D01*
X209521570Y-130430025D02*
X209569189Y-130334787D01*
X209569189Y-130334787D02*
X209664427Y-130287168D01*
X209664427Y-130287168D02*
X209902522Y-130287168D01*
X209902522Y-130287168D02*
X209997760Y-130239549D01*
D12*
X178993908Y-120709308D02*
X179029623Y-120745022D01*
X179029623Y-120745022D02*
X179065337Y-120852165D01*
X179065337Y-120852165D02*
X179065337Y-120923593D01*
X179065337Y-120923593D02*
X179029623Y-121030736D01*
X179029623Y-121030736D02*
X178958194Y-121102165D01*
X178958194Y-121102165D02*
X178886765Y-121137879D01*
X178886765Y-121137879D02*
X178743908Y-121173593D01*
X178743908Y-121173593D02*
X178636765Y-121173593D01*
X178636765Y-121173593D02*
X178493908Y-121137879D01*
X178493908Y-121137879D02*
X178422480Y-121102165D01*
X178422480Y-121102165D02*
X178351051Y-121030736D01*
X178351051Y-121030736D02*
X178315337Y-120923593D01*
X178315337Y-120923593D02*
X178315337Y-120852165D01*
X178315337Y-120852165D02*
X178351051Y-120745022D01*
X178351051Y-120745022D02*
X178386765Y-120709308D01*
X178315337Y-120459308D02*
X179065337Y-119959308D01*
X178315337Y-119959308D02*
X179065337Y-120459308D01*
X178851051Y-119709307D02*
X178851051Y-119352165D01*
X179065337Y-119780736D02*
X178315337Y-119530736D01*
X178315337Y-119530736D02*
X179065337Y-119280736D01*
X179065337Y-118637879D02*
X179065337Y-119066450D01*
X179065337Y-118852165D02*
X178315337Y-118852165D01*
X178315337Y-118852165D02*
X178422480Y-118923593D01*
X178422480Y-118923593D02*
X178493908Y-118995022D01*
X178493908Y-118995022D02*
X178529623Y-119066450D01*
X178315337Y-117995022D02*
X178315337Y-118137879D01*
X178315337Y-118137879D02*
X178351051Y-118209307D01*
X178351051Y-118209307D02*
X178386765Y-118245022D01*
X178386765Y-118245022D02*
X178493908Y-118316450D01*
X178493908Y-118316450D02*
X178636765Y-118352164D01*
X178636765Y-118352164D02*
X178922480Y-118352164D01*
X178922480Y-118352164D02*
X178993908Y-118316450D01*
X178993908Y-118316450D02*
X179029623Y-118280736D01*
X179029623Y-118280736D02*
X179065337Y-118209307D01*
X179065337Y-118209307D02*
X179065337Y-118066450D01*
X179065337Y-118066450D02*
X179029623Y-117995022D01*
X179029623Y-117995022D02*
X178993908Y-117959307D01*
X178993908Y-117959307D02*
X178922480Y-117923593D01*
X178922480Y-117923593D02*
X178743908Y-117923593D01*
X178743908Y-117923593D02*
X178672480Y-117959307D01*
X178672480Y-117959307D02*
X178636765Y-117995022D01*
X178636765Y-117995022D02*
X178601051Y-118066450D01*
X178601051Y-118066450D02*
X178601051Y-118209307D01*
X178601051Y-118209307D02*
X178636765Y-118280736D01*
X178636765Y-118280736D02*
X178672480Y-118316450D01*
X178672480Y-118316450D02*
X178743908Y-118352164D01*
X178565337Y-117280736D02*
X179065337Y-117280736D01*
X178279623Y-117459307D02*
X178815337Y-117637878D01*
X178815337Y-117637878D02*
X178815337Y-117173593D01*
X178315337Y-116530735D02*
X178315337Y-116887878D01*
X178315337Y-116887878D02*
X178672480Y-116923592D01*
X178672480Y-116923592D02*
X178636765Y-116887878D01*
X178636765Y-116887878D02*
X178601051Y-116816450D01*
X178601051Y-116816450D02*
X178601051Y-116637878D01*
X178601051Y-116637878D02*
X178636765Y-116566450D01*
X178636765Y-116566450D02*
X178672480Y-116530735D01*
X178672480Y-116530735D02*
X178743908Y-116495021D01*
X178743908Y-116495021D02*
X178922480Y-116495021D01*
X178922480Y-116495021D02*
X178993908Y-116530735D01*
X178993908Y-116530735D02*
X179029623Y-116566450D01*
X179029623Y-116566450D02*
X179065337Y-116637878D01*
X179065337Y-116637878D02*
X179065337Y-116816450D01*
X179065337Y-116816450D02*
X179029623Y-116887878D01*
X179029623Y-116887878D02*
X178993908Y-116923592D01*
X180201366Y-120709308D02*
X180237081Y-120745022D01*
X180237081Y-120745022D02*
X180272795Y-120852165D01*
X180272795Y-120852165D02*
X180272795Y-120923593D01*
X180272795Y-120923593D02*
X180237081Y-121030736D01*
X180237081Y-121030736D02*
X180165652Y-121102165D01*
X180165652Y-121102165D02*
X180094223Y-121137879D01*
X180094223Y-121137879D02*
X179951366Y-121173593D01*
X179951366Y-121173593D02*
X179844223Y-121173593D01*
X179844223Y-121173593D02*
X179701366Y-121137879D01*
X179701366Y-121137879D02*
X179629938Y-121102165D01*
X179629938Y-121102165D02*
X179558509Y-121030736D01*
X179558509Y-121030736D02*
X179522795Y-120923593D01*
X179522795Y-120923593D02*
X179522795Y-120852165D01*
X179522795Y-120852165D02*
X179558509Y-120745022D01*
X179558509Y-120745022D02*
X179594223Y-120709308D01*
X179522795Y-120459308D02*
X180272795Y-119959308D01*
X179522795Y-119959308D02*
X180272795Y-120459308D01*
X180058509Y-119709307D02*
X180058509Y-119352165D01*
X180272795Y-119780736D02*
X179522795Y-119530736D01*
X179522795Y-119530736D02*
X180272795Y-119280736D01*
X179594223Y-119066450D02*
X179558509Y-119030736D01*
X179558509Y-119030736D02*
X179522795Y-118959308D01*
X179522795Y-118959308D02*
X179522795Y-118780736D01*
X179522795Y-118780736D02*
X179558509Y-118709308D01*
X179558509Y-118709308D02*
X179594223Y-118673593D01*
X179594223Y-118673593D02*
X179665652Y-118637879D01*
X179665652Y-118637879D02*
X179737081Y-118637879D01*
X179737081Y-118637879D02*
X179844223Y-118673593D01*
X179844223Y-118673593D02*
X180272795Y-119102165D01*
X180272795Y-119102165D02*
X180272795Y-118637879D01*
X179522795Y-118173593D02*
X179522795Y-118102164D01*
X179522795Y-118102164D02*
X179558509Y-118030736D01*
X179558509Y-118030736D02*
X179594223Y-117995022D01*
X179594223Y-117995022D02*
X179665652Y-117959307D01*
X179665652Y-117959307D02*
X179808509Y-117923593D01*
X179808509Y-117923593D02*
X179987081Y-117923593D01*
X179987081Y-117923593D02*
X180129938Y-117959307D01*
X180129938Y-117959307D02*
X180201366Y-117995022D01*
X180201366Y-117995022D02*
X180237081Y-118030736D01*
X180237081Y-118030736D02*
X180272795Y-118102164D01*
X180272795Y-118102164D02*
X180272795Y-118173593D01*
X180272795Y-118173593D02*
X180237081Y-118245022D01*
X180237081Y-118245022D02*
X180201366Y-118280736D01*
X180201366Y-118280736D02*
X180129938Y-118316450D01*
X180129938Y-118316450D02*
X179987081Y-118352164D01*
X179987081Y-118352164D02*
X179808509Y-118352164D01*
X179808509Y-118352164D02*
X179665652Y-118316450D01*
X179665652Y-118316450D02*
X179594223Y-118280736D01*
X179594223Y-118280736D02*
X179558509Y-118245022D01*
X179558509Y-118245022D02*
X179522795Y-118173593D01*
X179522795Y-117673593D02*
X179522795Y-117173593D01*
X179522795Y-117173593D02*
X180272795Y-117495021D01*
X179522795Y-116530735D02*
X179522795Y-116887878D01*
X179522795Y-116887878D02*
X179879938Y-116923592D01*
X179879938Y-116923592D02*
X179844223Y-116887878D01*
X179844223Y-116887878D02*
X179808509Y-116816450D01*
X179808509Y-116816450D02*
X179808509Y-116637878D01*
X179808509Y-116637878D02*
X179844223Y-116566450D01*
X179844223Y-116566450D02*
X179879938Y-116530735D01*
X179879938Y-116530735D02*
X179951366Y-116495021D01*
X179951366Y-116495021D02*
X180129938Y-116495021D01*
X180129938Y-116495021D02*
X180201366Y-116530735D01*
X180201366Y-116530735D02*
X180237081Y-116566450D01*
X180237081Y-116566450D02*
X180272795Y-116637878D01*
X180272795Y-116637878D02*
X180272795Y-116816450D01*
X180272795Y-116816450D02*
X180237081Y-116887878D01*
X180237081Y-116887878D02*
X180201366Y-116923592D01*
X181087396Y-120887879D02*
X181123110Y-120780736D01*
X181123110Y-120780736D02*
X181158824Y-120745022D01*
X181158824Y-120745022D02*
X181230253Y-120709308D01*
X181230253Y-120709308D02*
X181337396Y-120709308D01*
X181337396Y-120709308D02*
X181408824Y-120745022D01*
X181408824Y-120745022D02*
X181444539Y-120780736D01*
X181444539Y-120780736D02*
X181480253Y-120852165D01*
X181480253Y-120852165D02*
X181480253Y-121137879D01*
X181480253Y-121137879D02*
X180730253Y-121137879D01*
X180730253Y-121137879D02*
X180730253Y-120887879D01*
X180730253Y-120887879D02*
X180765967Y-120816451D01*
X180765967Y-120816451D02*
X180801681Y-120780736D01*
X180801681Y-120780736D02*
X180873110Y-120745022D01*
X180873110Y-120745022D02*
X180944539Y-120745022D01*
X180944539Y-120745022D02*
X181015967Y-120780736D01*
X181015967Y-120780736D02*
X181051681Y-120816451D01*
X181051681Y-120816451D02*
X181087396Y-120887879D01*
X181087396Y-120887879D02*
X181087396Y-121137879D01*
X181480253Y-120387879D02*
X180730253Y-120387879D01*
X181087396Y-120387879D02*
X181087396Y-119959308D01*
X181480253Y-119959308D02*
X180730253Y-119959308D01*
X180730253Y-119673594D02*
X180730253Y-119173594D01*
X180730253Y-119173594D02*
X181480253Y-119495022D01*
X180801681Y-118923593D02*
X180765967Y-118887879D01*
X180765967Y-118887879D02*
X180730253Y-118816451D01*
X180730253Y-118816451D02*
X180730253Y-118637879D01*
X180730253Y-118637879D02*
X180765967Y-118566451D01*
X180765967Y-118566451D02*
X180801681Y-118530736D01*
X180801681Y-118530736D02*
X180873110Y-118495022D01*
X180873110Y-118495022D02*
X180944539Y-118495022D01*
X180944539Y-118495022D02*
X181051681Y-118530736D01*
X181051681Y-118530736D02*
X181480253Y-118959308D01*
X181480253Y-118959308D02*
X181480253Y-118495022D01*
X180730253Y-118245022D02*
X180730253Y-117780736D01*
X180730253Y-117780736D02*
X181015967Y-118030736D01*
X181015967Y-118030736D02*
X181015967Y-117923593D01*
X181015967Y-117923593D02*
X181051681Y-117852165D01*
X181051681Y-117852165D02*
X181087396Y-117816450D01*
X181087396Y-117816450D02*
X181158824Y-117780736D01*
X181158824Y-117780736D02*
X181337396Y-117780736D01*
X181337396Y-117780736D02*
X181408824Y-117816450D01*
X181408824Y-117816450D02*
X181444539Y-117852165D01*
X181444539Y-117852165D02*
X181480253Y-117923593D01*
X181480253Y-117923593D02*
X181480253Y-118137879D01*
X181480253Y-118137879D02*
X181444539Y-118209307D01*
X181444539Y-118209307D02*
X181408824Y-118245022D01*
X180730253Y-117137879D02*
X180730253Y-117280736D01*
X180730253Y-117280736D02*
X180765967Y-117352164D01*
X180765967Y-117352164D02*
X180801681Y-117387879D01*
X180801681Y-117387879D02*
X180908824Y-117459307D01*
X180908824Y-117459307D02*
X181051681Y-117495021D01*
X181051681Y-117495021D02*
X181337396Y-117495021D01*
X181337396Y-117495021D02*
X181408824Y-117459307D01*
X181408824Y-117459307D02*
X181444539Y-117423593D01*
X181444539Y-117423593D02*
X181480253Y-117352164D01*
X181480253Y-117352164D02*
X181480253Y-117209307D01*
X181480253Y-117209307D02*
X181444539Y-117137879D01*
X181444539Y-117137879D02*
X181408824Y-117102164D01*
X181408824Y-117102164D02*
X181337396Y-117066450D01*
X181337396Y-117066450D02*
X181158824Y-117066450D01*
X181158824Y-117066450D02*
X181087396Y-117102164D01*
X181087396Y-117102164D02*
X181051681Y-117137879D01*
X181051681Y-117137879D02*
X181015967Y-117209307D01*
X181015967Y-117209307D02*
X181015967Y-117352164D01*
X181015967Y-117352164D02*
X181051681Y-117423593D01*
X181051681Y-117423593D02*
X181087396Y-117459307D01*
X181087396Y-117459307D02*
X181158824Y-117495021D01*
X182687711Y-121137879D02*
X181937711Y-121137879D01*
X182687711Y-120709308D02*
X182259139Y-121030736D01*
X181937711Y-120709308D02*
X182366282Y-121137879D01*
X182473425Y-120423593D02*
X182473425Y-120066451D01*
X182687711Y-120495022D02*
X181937711Y-120245022D01*
X181937711Y-120245022D02*
X182687711Y-119995022D01*
X182009139Y-119780736D02*
X181973425Y-119745022D01*
X181973425Y-119745022D02*
X181937711Y-119673594D01*
X181937711Y-119673594D02*
X181937711Y-119495022D01*
X181937711Y-119495022D02*
X181973425Y-119423594D01*
X181973425Y-119423594D02*
X182009139Y-119387879D01*
X182009139Y-119387879D02*
X182080568Y-119352165D01*
X182080568Y-119352165D02*
X182151997Y-119352165D01*
X182151997Y-119352165D02*
X182259139Y-119387879D01*
X182259139Y-119387879D02*
X182687711Y-119816451D01*
X182687711Y-119816451D02*
X182687711Y-119352165D01*
X182687711Y-118637879D02*
X182687711Y-119066450D01*
X182687711Y-118852165D02*
X181937711Y-118852165D01*
X181937711Y-118852165D02*
X182044854Y-118923593D01*
X182044854Y-118923593D02*
X182116282Y-118995022D01*
X182116282Y-118995022D02*
X182151997Y-119066450D01*
X182687711Y-118280736D02*
X182687711Y-118137879D01*
X182687711Y-118137879D02*
X182651997Y-118066450D01*
X182651997Y-118066450D02*
X182616282Y-118030736D01*
X182616282Y-118030736D02*
X182509139Y-117959307D01*
X182509139Y-117959307D02*
X182366282Y-117923593D01*
X182366282Y-117923593D02*
X182080568Y-117923593D01*
X182080568Y-117923593D02*
X182009139Y-117959307D01*
X182009139Y-117959307D02*
X181973425Y-117995022D01*
X181973425Y-117995022D02*
X181937711Y-118066450D01*
X181937711Y-118066450D02*
X181937711Y-118209307D01*
X181937711Y-118209307D02*
X181973425Y-118280736D01*
X181973425Y-118280736D02*
X182009139Y-118316450D01*
X182009139Y-118316450D02*
X182080568Y-118352164D01*
X182080568Y-118352164D02*
X182259139Y-118352164D01*
X182259139Y-118352164D02*
X182330568Y-118316450D01*
X182330568Y-118316450D02*
X182366282Y-118280736D01*
X182366282Y-118280736D02*
X182401997Y-118209307D01*
X182401997Y-118209307D02*
X182401997Y-118066450D01*
X182401997Y-118066450D02*
X182366282Y-117995022D01*
X182366282Y-117995022D02*
X182330568Y-117959307D01*
X182330568Y-117959307D02*
X182259139Y-117923593D01*
X182259139Y-117495021D02*
X182223425Y-117566450D01*
X182223425Y-117566450D02*
X182187711Y-117602164D01*
X182187711Y-117602164D02*
X182116282Y-117637878D01*
X182116282Y-117637878D02*
X182080568Y-117637878D01*
X182080568Y-117637878D02*
X182009139Y-117602164D01*
X182009139Y-117602164D02*
X181973425Y-117566450D01*
X181973425Y-117566450D02*
X181937711Y-117495021D01*
X181937711Y-117495021D02*
X181937711Y-117352164D01*
X181937711Y-117352164D02*
X181973425Y-117280736D01*
X181973425Y-117280736D02*
X182009139Y-117245021D01*
X182009139Y-117245021D02*
X182080568Y-117209307D01*
X182080568Y-117209307D02*
X182116282Y-117209307D01*
X182116282Y-117209307D02*
X182187711Y-117245021D01*
X182187711Y-117245021D02*
X182223425Y-117280736D01*
X182223425Y-117280736D02*
X182259139Y-117352164D01*
X182259139Y-117352164D02*
X182259139Y-117495021D01*
X182259139Y-117495021D02*
X182294854Y-117566450D01*
X182294854Y-117566450D02*
X182330568Y-117602164D01*
X182330568Y-117602164D02*
X182401997Y-117637878D01*
X182401997Y-117637878D02*
X182544854Y-117637878D01*
X182544854Y-117637878D02*
X182616282Y-117602164D01*
X182616282Y-117602164D02*
X182651997Y-117566450D01*
X182651997Y-117566450D02*
X182687711Y-117495021D01*
X182687711Y-117495021D02*
X182687711Y-117352164D01*
X182687711Y-117352164D02*
X182651997Y-117280736D01*
X182651997Y-117280736D02*
X182616282Y-117245021D01*
X182616282Y-117245021D02*
X182544854Y-117209307D01*
X182544854Y-117209307D02*
X182401997Y-117209307D01*
X182401997Y-117209307D02*
X182330568Y-117245021D01*
X182330568Y-117245021D02*
X182294854Y-117280736D01*
X182294854Y-117280736D02*
X182259139Y-117352164D01*
X182294854Y-116637878D02*
X182330568Y-116530735D01*
X182330568Y-116530735D02*
X182366282Y-116495021D01*
X182366282Y-116495021D02*
X182437711Y-116459307D01*
X182437711Y-116459307D02*
X182544854Y-116459307D01*
X182544854Y-116459307D02*
X182616282Y-116495021D01*
X182616282Y-116495021D02*
X182651997Y-116530735D01*
X182651997Y-116530735D02*
X182687711Y-116602164D01*
X182687711Y-116602164D02*
X182687711Y-116887878D01*
X182687711Y-116887878D02*
X181937711Y-116887878D01*
X181937711Y-116887878D02*
X181937711Y-116637878D01*
X181937711Y-116637878D02*
X181973425Y-116566450D01*
X181973425Y-116566450D02*
X182009139Y-116530735D01*
X182009139Y-116530735D02*
X182080568Y-116495021D01*
X182080568Y-116495021D02*
X182151997Y-116495021D01*
X182151997Y-116495021D02*
X182223425Y-116530735D01*
X182223425Y-116530735D02*
X182259139Y-116566450D01*
X182259139Y-116566450D02*
X182294854Y-116637878D01*
X182294854Y-116637878D02*
X182294854Y-116887878D01*
X182687711Y-116137878D02*
X181937711Y-116137878D01*
X181937711Y-116137878D02*
X181937711Y-115959307D01*
X181937711Y-115959307D02*
X181973425Y-115852164D01*
X181973425Y-115852164D02*
X182044854Y-115780735D01*
X182044854Y-115780735D02*
X182116282Y-115745021D01*
X182116282Y-115745021D02*
X182259139Y-115709307D01*
X182259139Y-115709307D02*
X182366282Y-115709307D01*
X182366282Y-115709307D02*
X182509139Y-115745021D01*
X182509139Y-115745021D02*
X182580568Y-115780735D01*
X182580568Y-115780735D02*
X182651997Y-115852164D01*
X182651997Y-115852164D02*
X182687711Y-115959307D01*
X182687711Y-115959307D02*
X182687711Y-116137878D01*
X183895169Y-121137879D02*
X183145169Y-121137879D01*
X183145169Y-121137879D02*
X183680883Y-120887879D01*
X183680883Y-120887879D02*
X183145169Y-120637879D01*
X183145169Y-120637879D02*
X183895169Y-120637879D01*
X183502312Y-120030736D02*
X183538026Y-119923593D01*
X183538026Y-119923593D02*
X183573740Y-119887879D01*
X183573740Y-119887879D02*
X183645169Y-119852165D01*
X183645169Y-119852165D02*
X183752312Y-119852165D01*
X183752312Y-119852165D02*
X183823740Y-119887879D01*
X183823740Y-119887879D02*
X183859455Y-119923593D01*
X183859455Y-119923593D02*
X183895169Y-119995022D01*
X183895169Y-119995022D02*
X183895169Y-120280736D01*
X183895169Y-120280736D02*
X183145169Y-120280736D01*
X183145169Y-120280736D02*
X183145169Y-120030736D01*
X183145169Y-120030736D02*
X183180883Y-119959308D01*
X183180883Y-119959308D02*
X183216597Y-119923593D01*
X183216597Y-119923593D02*
X183288026Y-119887879D01*
X183288026Y-119887879D02*
X183359455Y-119887879D01*
X183359455Y-119887879D02*
X183430883Y-119923593D01*
X183430883Y-119923593D02*
X183466597Y-119959308D01*
X183466597Y-119959308D02*
X183502312Y-120030736D01*
X183502312Y-120030736D02*
X183502312Y-120280736D01*
X183145169Y-119602165D02*
X183145169Y-119137879D01*
X183145169Y-119137879D02*
X183430883Y-119387879D01*
X183430883Y-119387879D02*
X183430883Y-119280736D01*
X183430883Y-119280736D02*
X183466597Y-119209308D01*
X183466597Y-119209308D02*
X183502312Y-119173593D01*
X183502312Y-119173593D02*
X183573740Y-119137879D01*
X183573740Y-119137879D02*
X183752312Y-119137879D01*
X183752312Y-119137879D02*
X183823740Y-119173593D01*
X183823740Y-119173593D02*
X183859455Y-119209308D01*
X183859455Y-119209308D02*
X183895169Y-119280736D01*
X183895169Y-119280736D02*
X183895169Y-119495022D01*
X183895169Y-119495022D02*
X183859455Y-119566450D01*
X183859455Y-119566450D02*
X183823740Y-119602165D01*
X183145169Y-118459307D02*
X183145169Y-118816450D01*
X183145169Y-118816450D02*
X183502312Y-118852164D01*
X183502312Y-118852164D02*
X183466597Y-118816450D01*
X183466597Y-118816450D02*
X183430883Y-118745022D01*
X183430883Y-118745022D02*
X183430883Y-118566450D01*
X183430883Y-118566450D02*
X183466597Y-118495022D01*
X183466597Y-118495022D02*
X183502312Y-118459307D01*
X183502312Y-118459307D02*
X183573740Y-118423593D01*
X183573740Y-118423593D02*
X183752312Y-118423593D01*
X183752312Y-118423593D02*
X183823740Y-118459307D01*
X183823740Y-118459307D02*
X183859455Y-118495022D01*
X183859455Y-118495022D02*
X183895169Y-118566450D01*
X183895169Y-118566450D02*
X183895169Y-118745022D01*
X183895169Y-118745022D02*
X183859455Y-118816450D01*
X183859455Y-118816450D02*
X183823740Y-118852164D01*
X183895169Y-117709307D02*
X183895169Y-118137878D01*
X183895169Y-117923593D02*
X183145169Y-117923593D01*
X183145169Y-117923593D02*
X183252312Y-117995021D01*
X183252312Y-117995021D02*
X183323740Y-118066450D01*
X183323740Y-118066450D02*
X183359455Y-118137878D01*
X183145169Y-117066450D02*
X183145169Y-117209307D01*
X183145169Y-117209307D02*
X183180883Y-117280735D01*
X183180883Y-117280735D02*
X183216597Y-117316450D01*
X183216597Y-117316450D02*
X183323740Y-117387878D01*
X183323740Y-117387878D02*
X183466597Y-117423592D01*
X183466597Y-117423592D02*
X183752312Y-117423592D01*
X183752312Y-117423592D02*
X183823740Y-117387878D01*
X183823740Y-117387878D02*
X183859455Y-117352164D01*
X183859455Y-117352164D02*
X183895169Y-117280735D01*
X183895169Y-117280735D02*
X183895169Y-117137878D01*
X183895169Y-117137878D02*
X183859455Y-117066450D01*
X183859455Y-117066450D02*
X183823740Y-117030735D01*
X183823740Y-117030735D02*
X183752312Y-116995021D01*
X183752312Y-116995021D02*
X183573740Y-116995021D01*
X183573740Y-116995021D02*
X183502312Y-117030735D01*
X183502312Y-117030735D02*
X183466597Y-117066450D01*
X183466597Y-117066450D02*
X183430883Y-117137878D01*
X183430883Y-117137878D02*
X183430883Y-117280735D01*
X183430883Y-117280735D02*
X183466597Y-117352164D01*
X183466597Y-117352164D02*
X183502312Y-117387878D01*
X183502312Y-117387878D02*
X183573740Y-117423592D01*
X185102627Y-121137879D02*
X184352627Y-121137879D01*
X184352627Y-121137879D02*
X184888341Y-120887879D01*
X184888341Y-120887879D02*
X184352627Y-120637879D01*
X184352627Y-120637879D02*
X185102627Y-120637879D01*
X185102627Y-120280736D02*
X184352627Y-120280736D01*
X184352627Y-120280736D02*
X184888341Y-120030736D01*
X184888341Y-120030736D02*
X184352627Y-119780736D01*
X184352627Y-119780736D02*
X185102627Y-119780736D01*
X185102627Y-119030736D02*
X185102627Y-119459307D01*
X185102627Y-119245022D02*
X184352627Y-119245022D01*
X184352627Y-119245022D02*
X184459770Y-119316450D01*
X184459770Y-119316450D02*
X184531198Y-119387879D01*
X184531198Y-119387879D02*
X184566913Y-119459307D01*
X184424055Y-118745021D02*
X184388341Y-118709307D01*
X184388341Y-118709307D02*
X184352627Y-118637879D01*
X184352627Y-118637879D02*
X184352627Y-118459307D01*
X184352627Y-118459307D02*
X184388341Y-118387879D01*
X184388341Y-118387879D02*
X184424055Y-118352164D01*
X184424055Y-118352164D02*
X184495484Y-118316450D01*
X184495484Y-118316450D02*
X184566913Y-118316450D01*
X184566913Y-118316450D02*
X184674055Y-118352164D01*
X184674055Y-118352164D02*
X185102627Y-118780736D01*
X185102627Y-118780736D02*
X185102627Y-118316450D01*
X184352627Y-117673593D02*
X184352627Y-117816450D01*
X184352627Y-117816450D02*
X184388341Y-117887878D01*
X184388341Y-117887878D02*
X184424055Y-117923593D01*
X184424055Y-117923593D02*
X184531198Y-117995021D01*
X184531198Y-117995021D02*
X184674055Y-118030735D01*
X184674055Y-118030735D02*
X184959770Y-118030735D01*
X184959770Y-118030735D02*
X185031198Y-117995021D01*
X185031198Y-117995021D02*
X185066913Y-117959307D01*
X185066913Y-117959307D02*
X185102627Y-117887878D01*
X185102627Y-117887878D02*
X185102627Y-117745021D01*
X185102627Y-117745021D02*
X185066913Y-117673593D01*
X185066913Y-117673593D02*
X185031198Y-117637878D01*
X185031198Y-117637878D02*
X184959770Y-117602164D01*
X184959770Y-117602164D02*
X184781198Y-117602164D01*
X184781198Y-117602164D02*
X184709770Y-117637878D01*
X184709770Y-117637878D02*
X184674055Y-117673593D01*
X184674055Y-117673593D02*
X184638341Y-117745021D01*
X184638341Y-117745021D02*
X184638341Y-117887878D01*
X184638341Y-117887878D02*
X184674055Y-117959307D01*
X184674055Y-117959307D02*
X184709770Y-117995021D01*
X184709770Y-117995021D02*
X184781198Y-118030735D01*
X184674055Y-117173592D02*
X184638341Y-117245021D01*
X184638341Y-117245021D02*
X184602627Y-117280735D01*
X184602627Y-117280735D02*
X184531198Y-117316449D01*
X184531198Y-117316449D02*
X184495484Y-117316449D01*
X184495484Y-117316449D02*
X184424055Y-117280735D01*
X184424055Y-117280735D02*
X184388341Y-117245021D01*
X184388341Y-117245021D02*
X184352627Y-117173592D01*
X184352627Y-117173592D02*
X184352627Y-117030735D01*
X184352627Y-117030735D02*
X184388341Y-116959307D01*
X184388341Y-116959307D02*
X184424055Y-116923592D01*
X184424055Y-116923592D02*
X184495484Y-116887878D01*
X184495484Y-116887878D02*
X184531198Y-116887878D01*
X184531198Y-116887878D02*
X184602627Y-116923592D01*
X184602627Y-116923592D02*
X184638341Y-116959307D01*
X184638341Y-116959307D02*
X184674055Y-117030735D01*
X184674055Y-117030735D02*
X184674055Y-117173592D01*
X184674055Y-117173592D02*
X184709770Y-117245021D01*
X184709770Y-117245021D02*
X184745484Y-117280735D01*
X184745484Y-117280735D02*
X184816913Y-117316449D01*
X184816913Y-117316449D02*
X184959770Y-117316449D01*
X184959770Y-117316449D02*
X185031198Y-117280735D01*
X185031198Y-117280735D02*
X185066913Y-117245021D01*
X185066913Y-117245021D02*
X185102627Y-117173592D01*
X185102627Y-117173592D02*
X185102627Y-117030735D01*
X185102627Y-117030735D02*
X185066913Y-116959307D01*
X185066913Y-116959307D02*
X185031198Y-116923592D01*
X185031198Y-116923592D02*
X184959770Y-116887878D01*
X184959770Y-116887878D02*
X184816913Y-116887878D01*
X184816913Y-116887878D02*
X184745484Y-116923592D01*
X184745484Y-116923592D02*
X184709770Y-116959307D01*
X184709770Y-116959307D02*
X184674055Y-117030735D01*
D11*
X196676615Y-99463106D02*
X196646377Y-99493345D01*
X196646377Y-99493345D02*
X196555663Y-99523583D01*
X196555663Y-99523583D02*
X196495187Y-99523583D01*
X196495187Y-99523583D02*
X196404472Y-99493345D01*
X196404472Y-99493345D02*
X196343996Y-99432868D01*
X196343996Y-99432868D02*
X196313758Y-99372392D01*
X196313758Y-99372392D02*
X196283520Y-99251440D01*
X196283520Y-99251440D02*
X196283520Y-99160725D01*
X196283520Y-99160725D02*
X196313758Y-99039773D01*
X196313758Y-99039773D02*
X196343996Y-98979297D01*
X196343996Y-98979297D02*
X196404472Y-98918821D01*
X196404472Y-98918821D02*
X196495187Y-98888583D01*
X196495187Y-98888583D02*
X196555663Y-98888583D01*
X196555663Y-98888583D02*
X196646377Y-98918821D01*
X196646377Y-98918821D02*
X196676615Y-98949059D01*
D13*
X209540796Y-128675159D02*
X209540796Y-127675159D01*
X209540796Y-128056111D02*
X209636034Y-128008492D01*
X209636034Y-128008492D02*
X209826510Y-128008492D01*
X209826510Y-128008492D02*
X209921748Y-128056111D01*
X209921748Y-128056111D02*
X209969367Y-128103730D01*
X209969367Y-128103730D02*
X210016986Y-128198968D01*
X210016986Y-128198968D02*
X210016986Y-128484682D01*
X210016986Y-128484682D02*
X209969367Y-128579920D01*
X209969367Y-128579920D02*
X209921748Y-128627540D01*
X209921748Y-128627540D02*
X209826510Y-128675159D01*
X209826510Y-128675159D02*
X209636034Y-128675159D01*
X209636034Y-128675159D02*
X209540796Y-128627540D01*
D10*
X176413646Y-135855453D02*
X176499360Y-135884025D01*
X176499360Y-135884025D02*
X176527931Y-135912596D01*
X176527931Y-135912596D02*
X176556503Y-135969739D01*
X176556503Y-135969739D02*
X176556503Y-136055453D01*
X176556503Y-136055453D02*
X176527931Y-136112596D01*
X176527931Y-136112596D02*
X176499360Y-136141168D01*
X176499360Y-136141168D02*
X176442217Y-136169739D01*
X176442217Y-136169739D02*
X176213646Y-136169739D01*
X176213646Y-136169739D02*
X176213646Y-135569739D01*
X176213646Y-135569739D02*
X176413646Y-135569739D01*
X176413646Y-135569739D02*
X176470789Y-135598310D01*
X176470789Y-135598310D02*
X176499360Y-135626882D01*
X176499360Y-135626882D02*
X176527931Y-135684025D01*
X176527931Y-135684025D02*
X176527931Y-135741168D01*
X176527931Y-135741168D02*
X176499360Y-135798310D01*
X176499360Y-135798310D02*
X176470789Y-135826882D01*
X176470789Y-135826882D02*
X176413646Y-135855453D01*
X176413646Y-135855453D02*
X176213646Y-135855453D01*
X218047416Y-125642385D02*
X218047416Y-125042385D01*
X218047416Y-125328099D02*
X218390273Y-125328099D01*
X218390273Y-125642385D02*
X218390273Y-125042385D01*
X218675987Y-125642385D02*
X218675987Y-125042385D01*
X218675987Y-125042385D02*
X218904558Y-125042385D01*
X218904558Y-125042385D02*
X218961701Y-125070956D01*
X218961701Y-125070956D02*
X218990272Y-125099528D01*
X218990272Y-125099528D02*
X219018844Y-125156671D01*
X219018844Y-125156671D02*
X219018844Y-125242385D01*
X219018844Y-125242385D02*
X218990272Y-125299528D01*
X218990272Y-125299528D02*
X218961701Y-125328099D01*
X218961701Y-125328099D02*
X218904558Y-125356671D01*
X218904558Y-125356671D02*
X218675987Y-125356671D01*
X218047416Y-126608351D02*
X218047416Y-126008351D01*
X218047416Y-126008351D02*
X218275987Y-126008351D01*
X218275987Y-126008351D02*
X218333130Y-126036922D01*
X218333130Y-126036922D02*
X218361701Y-126065494D01*
X218361701Y-126065494D02*
X218390273Y-126122637D01*
X218390273Y-126122637D02*
X218390273Y-126208351D01*
X218390273Y-126208351D02*
X218361701Y-126265494D01*
X218361701Y-126265494D02*
X218333130Y-126294065D01*
X218333130Y-126294065D02*
X218275987Y-126322637D01*
X218275987Y-126322637D02*
X218047416Y-126322637D01*
X218618844Y-126065494D02*
X218647416Y-126036922D01*
X218647416Y-126036922D02*
X218704559Y-126008351D01*
X218704559Y-126008351D02*
X218847416Y-126008351D01*
X218847416Y-126008351D02*
X218904559Y-126036922D01*
X218904559Y-126036922D02*
X218933130Y-126065494D01*
X218933130Y-126065494D02*
X218961701Y-126122637D01*
X218961701Y-126122637D02*
X218961701Y-126179780D01*
X218961701Y-126179780D02*
X218933130Y-126265494D01*
X218933130Y-126265494D02*
X218590273Y-126608351D01*
X218590273Y-126608351D02*
X218961701Y-126608351D01*
X209930084Y-126831487D02*
X209834846Y-126879106D01*
X209834846Y-126879106D02*
X209644370Y-126879106D01*
X209644370Y-126879106D02*
X209549132Y-126831487D01*
X209549132Y-126831487D02*
X209501513Y-126783867D01*
X209501513Y-126783867D02*
X209453894Y-126688629D01*
X209453894Y-126688629D02*
X209453894Y-126402915D01*
X209453894Y-126402915D02*
X209501513Y-126307677D01*
X209501513Y-126307677D02*
X209549132Y-126260058D01*
X209549132Y-126260058D02*
X209644370Y-126212439D01*
X209644370Y-126212439D02*
X209834846Y-126212439D01*
X209834846Y-126212439D02*
X209930084Y-126260058D01*
X211456160Y-112914591D02*
X212122826Y-112914591D01*
X212122826Y-112914591D02*
X211456160Y-113914591D01*
X211456160Y-113914591D02*
X212122826Y-113914591D01*
X200281503Y-141364228D02*
X200252931Y-141392800D01*
X200252931Y-141392800D02*
X200167217Y-141421371D01*
X200167217Y-141421371D02*
X200110074Y-141421371D01*
X200110074Y-141421371D02*
X200024360Y-141392800D01*
X200024360Y-141392800D02*
X199967217Y-141335657D01*
X199967217Y-141335657D02*
X199938646Y-141278514D01*
X199938646Y-141278514D02*
X199910074Y-141164228D01*
X199910074Y-141164228D02*
X199910074Y-141078514D01*
X199910074Y-141078514D02*
X199938646Y-140964228D01*
X199938646Y-140964228D02*
X199967217Y-140907085D01*
X199967217Y-140907085D02*
X200024360Y-140849942D01*
X200024360Y-140849942D02*
X200110074Y-140821371D01*
X200110074Y-140821371D02*
X200167217Y-140821371D01*
X200167217Y-140821371D02*
X200252931Y-140849942D01*
X200252931Y-140849942D02*
X200281503Y-140878514D01*
X200538646Y-141421371D02*
X200538646Y-140821371D01*
X200538646Y-140821371D02*
X200681503Y-140821371D01*
X200681503Y-140821371D02*
X200767217Y-140849942D01*
X200767217Y-140849942D02*
X200824360Y-140907085D01*
X200824360Y-140907085D02*
X200852931Y-140964228D01*
X200852931Y-140964228D02*
X200881503Y-141078514D01*
X200881503Y-141078514D02*
X200881503Y-141164228D01*
X200881503Y-141164228D02*
X200852931Y-141278514D01*
X200852931Y-141278514D02*
X200824360Y-141335657D01*
X200824360Y-141335657D02*
X200767217Y-141392800D01*
X200767217Y-141392800D02*
X200681503Y-141421371D01*
X200681503Y-141421371D02*
X200538646Y-141421371D01*
X201424360Y-141421371D02*
X201138646Y-141421371D01*
X201138646Y-141421371D02*
X201138646Y-140821371D01*
X174567408Y-135590836D02*
X174510266Y-135562265D01*
X174510266Y-135562265D02*
X174424551Y-135562265D01*
X174424551Y-135562265D02*
X174338837Y-135590836D01*
X174338837Y-135590836D02*
X174281694Y-135647979D01*
X174281694Y-135647979D02*
X174253123Y-135705122D01*
X174253123Y-135705122D02*
X174224551Y-135819408D01*
X174224551Y-135819408D02*
X174224551Y-135905122D01*
X174224551Y-135905122D02*
X174253123Y-136019408D01*
X174253123Y-136019408D02*
X174281694Y-136076551D01*
X174281694Y-136076551D02*
X174338837Y-136133694D01*
X174338837Y-136133694D02*
X174424551Y-136162265D01*
X174424551Y-136162265D02*
X174481694Y-136162265D01*
X174481694Y-136162265D02*
X174567408Y-136133694D01*
X174567408Y-136133694D02*
X174595980Y-136105122D01*
X174595980Y-136105122D02*
X174595980Y-135905122D01*
X174595980Y-135905122D02*
X174481694Y-135905122D01*
X178920611Y-135036221D02*
X179006326Y-135064792D01*
X179006326Y-135064792D02*
X179149183Y-135064792D01*
X179149183Y-135064792D02*
X179206326Y-135036221D01*
X179206326Y-135036221D02*
X179234897Y-135007649D01*
X179234897Y-135007649D02*
X179263468Y-134950506D01*
X179263468Y-134950506D02*
X179263468Y-134893363D01*
X179263468Y-134893363D02*
X179234897Y-134836221D01*
X179234897Y-134836221D02*
X179206326Y-134807649D01*
X179206326Y-134807649D02*
X179149183Y-134779078D01*
X179149183Y-134779078D02*
X179034897Y-134750506D01*
X179034897Y-134750506D02*
X178977754Y-134721935D01*
X178977754Y-134721935D02*
X178949183Y-134693363D01*
X178949183Y-134693363D02*
X178920611Y-134636221D01*
X178920611Y-134636221D02*
X178920611Y-134579078D01*
X178920611Y-134579078D02*
X178949183Y-134521935D01*
X178949183Y-134521935D02*
X178977754Y-134493363D01*
X178977754Y-134493363D02*
X179034897Y-134464792D01*
X179034897Y-134464792D02*
X179177754Y-134464792D01*
X179177754Y-134464792D02*
X179263468Y-134493363D01*
X179720612Y-134750506D02*
X179806326Y-134779078D01*
X179806326Y-134779078D02*
X179834897Y-134807649D01*
X179834897Y-134807649D02*
X179863469Y-134864792D01*
X179863469Y-134864792D02*
X179863469Y-134950506D01*
X179863469Y-134950506D02*
X179834897Y-135007649D01*
X179834897Y-135007649D02*
X179806326Y-135036221D01*
X179806326Y-135036221D02*
X179749183Y-135064792D01*
X179749183Y-135064792D02*
X179520612Y-135064792D01*
X179520612Y-135064792D02*
X179520612Y-134464792D01*
X179520612Y-134464792D02*
X179720612Y-134464792D01*
X179720612Y-134464792D02*
X179777755Y-134493363D01*
X179777755Y-134493363D02*
X179806326Y-134521935D01*
X179806326Y-134521935D02*
X179834897Y-134579078D01*
X179834897Y-134579078D02*
X179834897Y-134636221D01*
X179834897Y-134636221D02*
X179806326Y-134693363D01*
X179806326Y-134693363D02*
X179777755Y-134721935D01*
X179777755Y-134721935D02*
X179720612Y-134750506D01*
X179720612Y-134750506D02*
X179520612Y-134750506D01*
X180463469Y-135007649D02*
X180434897Y-135036221D01*
X180434897Y-135036221D02*
X180349183Y-135064792D01*
X180349183Y-135064792D02*
X180292040Y-135064792D01*
X180292040Y-135064792D02*
X180206326Y-135036221D01*
X180206326Y-135036221D02*
X180149183Y-134979078D01*
X180149183Y-134979078D02*
X180120612Y-134921935D01*
X180120612Y-134921935D02*
X180092040Y-134807649D01*
X180092040Y-134807649D02*
X180092040Y-134721935D01*
X180092040Y-134721935D02*
X180120612Y-134607649D01*
X180120612Y-134607649D02*
X180149183Y-134550506D01*
X180149183Y-134550506D02*
X180206326Y-134493363D01*
X180206326Y-134493363D02*
X180292040Y-134464792D01*
X180292040Y-134464792D02*
X180349183Y-134464792D01*
X180349183Y-134464792D02*
X180434897Y-134493363D01*
X180434897Y-134493363D02*
X180463469Y-134521935D01*
X181063469Y-135064792D02*
X180863469Y-134779078D01*
X180720612Y-135064792D02*
X180720612Y-134464792D01*
X180720612Y-134464792D02*
X180949183Y-134464792D01*
X180949183Y-134464792D02*
X181006326Y-134493363D01*
X181006326Y-134493363D02*
X181034897Y-134521935D01*
X181034897Y-134521935D02*
X181063469Y-134579078D01*
X181063469Y-134579078D02*
X181063469Y-134664792D01*
X181063469Y-134664792D02*
X181034897Y-134721935D01*
X181034897Y-134721935D02*
X181006326Y-134750506D01*
X181006326Y-134750506D02*
X180949183Y-134779078D01*
X180949183Y-134779078D02*
X180720612Y-134779078D01*
X172393817Y-136241982D02*
X172193817Y-135956268D01*
X172050960Y-136241982D02*
X172050960Y-135641982D01*
X172050960Y-135641982D02*
X172279531Y-135641982D01*
X172279531Y-135641982D02*
X172336674Y-135670553D01*
X172336674Y-135670553D02*
X172365245Y-135699125D01*
X172365245Y-135699125D02*
X172393817Y-135756268D01*
X172393817Y-135756268D02*
X172393817Y-135841982D01*
X172393817Y-135841982D02*
X172365245Y-135899125D01*
X172365245Y-135899125D02*
X172336674Y-135927696D01*
X172336674Y-135927696D02*
X172279531Y-135956268D01*
X172279531Y-135956268D02*
X172050960Y-135956268D01*
X215566019Y-110312700D02*
X215566019Y-110788891D01*
X215232686Y-109788891D02*
X215566019Y-110312700D01*
X215566019Y-110312700D02*
X215899352Y-109788891D01*
X205599557Y-118467309D02*
X205647176Y-118419690D01*
X205647176Y-118419690D02*
X205742414Y-118372071D01*
X205742414Y-118372071D02*
X205980509Y-118372071D01*
X205980509Y-118372071D02*
X206075747Y-118419690D01*
X206075747Y-118419690D02*
X206123366Y-118467309D01*
X206123366Y-118467309D02*
X206170985Y-118562547D01*
X206170985Y-118562547D02*
X206170985Y-118657785D01*
X206170985Y-118657785D02*
X206123366Y-118800642D01*
X206123366Y-118800642D02*
X205551938Y-119372071D01*
X205551938Y-119372071D02*
X206170985Y-119372071D01*
D12*
X172047409Y-118359021D02*
X172011695Y-118394736D01*
X172011695Y-118394736D02*
X171904552Y-118430450D01*
X171904552Y-118430450D02*
X171833124Y-118430450D01*
X171833124Y-118430450D02*
X171725981Y-118394736D01*
X171725981Y-118394736D02*
X171654552Y-118323307D01*
X171654552Y-118323307D02*
X171618838Y-118251878D01*
X171618838Y-118251878D02*
X171583124Y-118109021D01*
X171583124Y-118109021D02*
X171583124Y-118001878D01*
X171583124Y-118001878D02*
X171618838Y-117859021D01*
X171618838Y-117859021D02*
X171654552Y-117787593D01*
X171654552Y-117787593D02*
X171725981Y-117716164D01*
X171725981Y-117716164D02*
X171833124Y-117680450D01*
X171833124Y-117680450D02*
X171904552Y-117680450D01*
X171904552Y-117680450D02*
X172011695Y-117716164D01*
X172011695Y-117716164D02*
X172047409Y-117751878D01*
X172475981Y-118430450D02*
X172404552Y-118394736D01*
X172404552Y-118394736D02*
X172368838Y-118359021D01*
X172368838Y-118359021D02*
X172333124Y-118287593D01*
X172333124Y-118287593D02*
X172333124Y-118073307D01*
X172333124Y-118073307D02*
X172368838Y-118001878D01*
X172368838Y-118001878D02*
X172404552Y-117966164D01*
X172404552Y-117966164D02*
X172475981Y-117930450D01*
X172475981Y-117930450D02*
X172583124Y-117930450D01*
X172583124Y-117930450D02*
X172654552Y-117966164D01*
X172654552Y-117966164D02*
X172690267Y-118001878D01*
X172690267Y-118001878D02*
X172725981Y-118073307D01*
X172725981Y-118073307D02*
X172725981Y-118287593D01*
X172725981Y-118287593D02*
X172690267Y-118359021D01*
X172690267Y-118359021D02*
X172654552Y-118394736D01*
X172654552Y-118394736D02*
X172583124Y-118430450D01*
X172583124Y-118430450D02*
X172475981Y-118430450D01*
X173047409Y-118430450D02*
X173047409Y-117930450D01*
X173047409Y-118001878D02*
X173083123Y-117966164D01*
X173083123Y-117966164D02*
X173154552Y-117930450D01*
X173154552Y-117930450D02*
X173261695Y-117930450D01*
X173261695Y-117930450D02*
X173333123Y-117966164D01*
X173333123Y-117966164D02*
X173368838Y-118037593D01*
X173368838Y-118037593D02*
X173368838Y-118430450D01*
X173368838Y-118037593D02*
X173404552Y-117966164D01*
X173404552Y-117966164D02*
X173475980Y-117930450D01*
X173475980Y-117930450D02*
X173583123Y-117930450D01*
X173583123Y-117930450D02*
X173654552Y-117966164D01*
X173654552Y-117966164D02*
X173690266Y-118037593D01*
X173690266Y-118037593D02*
X173690266Y-118430450D01*
X174047409Y-117930450D02*
X174047409Y-118680450D01*
X174047409Y-117966164D02*
X174118838Y-117930450D01*
X174118838Y-117930450D02*
X174261695Y-117930450D01*
X174261695Y-117930450D02*
X174333123Y-117966164D01*
X174333123Y-117966164D02*
X174368838Y-118001878D01*
X174368838Y-118001878D02*
X174404552Y-118073307D01*
X174404552Y-118073307D02*
X174404552Y-118287593D01*
X174404552Y-118287593D02*
X174368838Y-118359021D01*
X174368838Y-118359021D02*
X174333123Y-118394736D01*
X174333123Y-118394736D02*
X174261695Y-118430450D01*
X174261695Y-118430450D02*
X174118838Y-118430450D01*
X174118838Y-118430450D02*
X174047409Y-118394736D01*
X175047409Y-118430450D02*
X175047409Y-118037593D01*
X175047409Y-118037593D02*
X175011694Y-117966164D01*
X175011694Y-117966164D02*
X174940266Y-117930450D01*
X174940266Y-117930450D02*
X174797409Y-117930450D01*
X174797409Y-117930450D02*
X174725980Y-117966164D01*
X175047409Y-118394736D02*
X174975980Y-118430450D01*
X174975980Y-118430450D02*
X174797409Y-118430450D01*
X174797409Y-118430450D02*
X174725980Y-118394736D01*
X174725980Y-118394736D02*
X174690266Y-118323307D01*
X174690266Y-118323307D02*
X174690266Y-118251878D01*
X174690266Y-118251878D02*
X174725980Y-118180450D01*
X174725980Y-118180450D02*
X174797409Y-118144736D01*
X174797409Y-118144736D02*
X174975980Y-118144736D01*
X174975980Y-118144736D02*
X175047409Y-118109021D01*
X175297408Y-117930450D02*
X175583122Y-117930450D01*
X175404551Y-117680450D02*
X175404551Y-118323307D01*
X175404551Y-118323307D02*
X175440265Y-118394736D01*
X175440265Y-118394736D02*
X175511694Y-118430450D01*
X175511694Y-118430450D02*
X175583122Y-118430450D01*
X175833122Y-118430450D02*
X175833122Y-117930450D01*
X175833122Y-117680450D02*
X175797408Y-117716164D01*
X175797408Y-117716164D02*
X175833122Y-117751878D01*
X175833122Y-117751878D02*
X175868836Y-117716164D01*
X175868836Y-117716164D02*
X175833122Y-117680450D01*
X175833122Y-117680450D02*
X175833122Y-117751878D01*
X176190265Y-118430450D02*
X176190265Y-117680450D01*
X176190265Y-117966164D02*
X176261694Y-117930450D01*
X176261694Y-117930450D02*
X176404551Y-117930450D01*
X176404551Y-117930450D02*
X176475979Y-117966164D01*
X176475979Y-117966164D02*
X176511694Y-118001878D01*
X176511694Y-118001878D02*
X176547408Y-118073307D01*
X176547408Y-118073307D02*
X176547408Y-118287593D01*
X176547408Y-118287593D02*
X176511694Y-118359021D01*
X176511694Y-118359021D02*
X176475979Y-118394736D01*
X176475979Y-118394736D02*
X176404551Y-118430450D01*
X176404551Y-118430450D02*
X176261694Y-118430450D01*
X176261694Y-118430450D02*
X176190265Y-118394736D01*
X176975979Y-118430450D02*
X176904550Y-118394736D01*
X176904550Y-118394736D02*
X176868836Y-118323307D01*
X176868836Y-118323307D02*
X176868836Y-117680450D01*
X177547407Y-118394736D02*
X177475979Y-118430450D01*
X177475979Y-118430450D02*
X177333122Y-118430450D01*
X177333122Y-118430450D02*
X177261693Y-118394736D01*
X177261693Y-118394736D02*
X177225979Y-118323307D01*
X177225979Y-118323307D02*
X177225979Y-118037593D01*
X177225979Y-118037593D02*
X177261693Y-117966164D01*
X177261693Y-117966164D02*
X177333122Y-117930450D01*
X177333122Y-117930450D02*
X177475979Y-117930450D01*
X177475979Y-117930450D02*
X177547407Y-117966164D01*
X177547407Y-117966164D02*
X177583122Y-118037593D01*
X177583122Y-118037593D02*
X177583122Y-118109021D01*
X177583122Y-118109021D02*
X177225979Y-118180450D01*
X171547409Y-119137908D02*
X171690267Y-119637908D01*
X171690267Y-119637908D02*
X171833124Y-119280765D01*
X171833124Y-119280765D02*
X171975981Y-119637908D01*
X171975981Y-119637908D02*
X172118838Y-119137908D01*
X172404552Y-119637908D02*
X172404552Y-119137908D01*
X172404552Y-118887908D02*
X172368838Y-118923622D01*
X172368838Y-118923622D02*
X172404552Y-118959336D01*
X172404552Y-118959336D02*
X172440266Y-118923622D01*
X172440266Y-118923622D02*
X172404552Y-118887908D01*
X172404552Y-118887908D02*
X172404552Y-118959336D01*
X172654552Y-119137908D02*
X172940266Y-119137908D01*
X172761695Y-118887908D02*
X172761695Y-119530765D01*
X172761695Y-119530765D02*
X172797409Y-119602194D01*
X172797409Y-119602194D02*
X172868838Y-119637908D01*
X172868838Y-119637908D02*
X172940266Y-119637908D01*
X173190266Y-119637908D02*
X173190266Y-118887908D01*
X173511695Y-119637908D02*
X173511695Y-119245051D01*
X173511695Y-119245051D02*
X173475980Y-119173622D01*
X173475980Y-119173622D02*
X173404552Y-119137908D01*
X173404552Y-119137908D02*
X173297409Y-119137908D01*
X173297409Y-119137908D02*
X173225980Y-119173622D01*
X173225980Y-119173622D02*
X173190266Y-119209336D01*
X173868837Y-119566479D02*
X173904551Y-119602194D01*
X173904551Y-119602194D02*
X173868837Y-119637908D01*
X173868837Y-119637908D02*
X173833123Y-119602194D01*
X173833123Y-119602194D02*
X173868837Y-119566479D01*
X173868837Y-119566479D02*
X173868837Y-119637908D01*
X173868837Y-119173622D02*
X173904551Y-119209336D01*
X173904551Y-119209336D02*
X173868837Y-119245051D01*
X173868837Y-119245051D02*
X173833123Y-119209336D01*
X173833123Y-119209336D02*
X173868837Y-119173622D01*
X173868837Y-119173622D02*
X173868837Y-119245051D01*
D10*
X183125896Y-135041279D02*
X183097324Y-135069851D01*
X183097324Y-135069851D02*
X183011610Y-135098422D01*
X183011610Y-135098422D02*
X182954467Y-135098422D01*
X182954467Y-135098422D02*
X182868753Y-135069851D01*
X182868753Y-135069851D02*
X182811610Y-135012708D01*
X182811610Y-135012708D02*
X182783039Y-134955565D01*
X182783039Y-134955565D02*
X182754467Y-134841279D01*
X182754467Y-134841279D02*
X182754467Y-134755565D01*
X182754467Y-134755565D02*
X182783039Y-134641279D01*
X182783039Y-134641279D02*
X182811610Y-134584136D01*
X182811610Y-134584136D02*
X182868753Y-134526993D01*
X182868753Y-134526993D02*
X182954467Y-134498422D01*
X182954467Y-134498422D02*
X183011610Y-134498422D01*
X183011610Y-134498422D02*
X183097324Y-134526993D01*
X183097324Y-134526993D02*
X183125896Y-134555565D01*
X183354467Y-135069851D02*
X183440182Y-135098422D01*
X183440182Y-135098422D02*
X183583039Y-135098422D01*
X183583039Y-135098422D02*
X183640182Y-135069851D01*
X183640182Y-135069851D02*
X183668753Y-135041279D01*
X183668753Y-135041279D02*
X183697324Y-134984136D01*
X183697324Y-134984136D02*
X183697324Y-134926993D01*
X183697324Y-134926993D02*
X183668753Y-134869851D01*
X183668753Y-134869851D02*
X183640182Y-134841279D01*
X183640182Y-134841279D02*
X183583039Y-134812708D01*
X183583039Y-134812708D02*
X183468753Y-134784136D01*
X183468753Y-134784136D02*
X183411610Y-134755565D01*
X183411610Y-134755565D02*
X183383039Y-134726993D01*
X183383039Y-134726993D02*
X183354467Y-134669851D01*
X183354467Y-134669851D02*
X183354467Y-134612708D01*
X183354467Y-134612708D02*
X183383039Y-134555565D01*
X183383039Y-134555565D02*
X183411610Y-134526993D01*
X183411610Y-134526993D02*
X183468753Y-134498422D01*
X183468753Y-134498422D02*
X183611610Y-134498422D01*
X183611610Y-134498422D02*
X183697324Y-134526993D01*
X184068753Y-134812708D02*
X184068753Y-135098422D01*
X183868753Y-134498422D02*
X184068753Y-134812708D01*
X184068753Y-134812708D02*
X184268753Y-134498422D01*
X184468754Y-135098422D02*
X184468754Y-134498422D01*
X184468754Y-134498422D02*
X184811611Y-135098422D01*
X184811611Y-135098422D02*
X184811611Y-134498422D01*
X185440182Y-135041279D02*
X185411610Y-135069851D01*
X185411610Y-135069851D02*
X185325896Y-135098422D01*
X185325896Y-135098422D02*
X185268753Y-135098422D01*
X185268753Y-135098422D02*
X185183039Y-135069851D01*
X185183039Y-135069851D02*
X185125896Y-135012708D01*
X185125896Y-135012708D02*
X185097325Y-134955565D01*
X185097325Y-134955565D02*
X185068753Y-134841279D01*
X185068753Y-134841279D02*
X185068753Y-134755565D01*
X185068753Y-134755565D02*
X185097325Y-134641279D01*
X185097325Y-134641279D02*
X185125896Y-134584136D01*
X185125896Y-134584136D02*
X185183039Y-134526993D01*
X185183039Y-134526993D02*
X185268753Y-134498422D01*
X185268753Y-134498422D02*
X185325896Y-134498422D01*
X185325896Y-134498422D02*
X185411610Y-134526993D01*
X185411610Y-134526993D02*
X185440182Y-134555565D01*
X206777178Y-123914603D02*
X206205750Y-123914603D01*
X206491464Y-123914603D02*
X206491464Y-122914603D01*
X206491464Y-122914603D02*
X206396226Y-123057460D01*
X206396226Y-123057460D02*
X206300988Y-123152698D01*
X206300988Y-123152698D02*
X206205750Y-123200317D01*
X193412931Y-140659942D02*
X193355789Y-140631371D01*
X193355789Y-140631371D02*
X193270074Y-140631371D01*
X193270074Y-140631371D02*
X193184360Y-140659942D01*
X193184360Y-140659942D02*
X193127217Y-140717085D01*
X193127217Y-140717085D02*
X193098646Y-140774228D01*
X193098646Y-140774228D02*
X193070074Y-140888514D01*
X193070074Y-140888514D02*
X193070074Y-140974228D01*
X193070074Y-140974228D02*
X193098646Y-141088514D01*
X193098646Y-141088514D02*
X193127217Y-141145657D01*
X193127217Y-141145657D02*
X193184360Y-141202800D01*
X193184360Y-141202800D02*
X193270074Y-141231371D01*
X193270074Y-141231371D02*
X193327217Y-141231371D01*
X193327217Y-141231371D02*
X193412931Y-141202800D01*
X193412931Y-141202800D02*
X193441503Y-141174228D01*
X193441503Y-141174228D02*
X193441503Y-140974228D01*
X193441503Y-140974228D02*
X193327217Y-140974228D01*
X193698646Y-141231371D02*
X193698646Y-140631371D01*
X193698646Y-140631371D02*
X194041503Y-141231371D01*
X194041503Y-141231371D02*
X194041503Y-140631371D01*
X194327217Y-141231371D02*
X194327217Y-140631371D01*
X194327217Y-140631371D02*
X194470074Y-140631371D01*
X194470074Y-140631371D02*
X194555788Y-140659942D01*
X194555788Y-140659942D02*
X194612931Y-140717085D01*
X194612931Y-140717085D02*
X194641502Y-140774228D01*
X194641502Y-140774228D02*
X194670074Y-140888514D01*
X194670074Y-140888514D02*
X194670074Y-140974228D01*
X194670074Y-140974228D02*
X194641502Y-141088514D01*
X194641502Y-141088514D02*
X194612931Y-141145657D01*
X194612931Y-141145657D02*
X194555788Y-141202800D01*
X194555788Y-141202800D02*
X194470074Y-141231371D01*
X194470074Y-141231371D02*
X194327217Y-141231371D01*
X200577085Y-138111353D02*
X200577085Y-138311353D01*
X200891371Y-138311353D02*
X200291371Y-138311353D01*
X200291371Y-138311353D02*
X200291371Y-138025639D01*
X200891371Y-137797067D02*
X200291371Y-137797067D01*
X200291371Y-137797067D02*
X200719942Y-137597067D01*
X200719942Y-137597067D02*
X200291371Y-137397067D01*
X200291371Y-137397067D02*
X200891371Y-137397067D01*
X200891371Y-136768496D02*
X200605657Y-136968496D01*
X200891371Y-137111353D02*
X200291371Y-137111353D01*
X200291371Y-137111353D02*
X200291371Y-136882782D01*
X200291371Y-136882782D02*
X200319942Y-136825639D01*
X200319942Y-136825639D02*
X200348514Y-136797068D01*
X200348514Y-136797068D02*
X200405657Y-136768496D01*
X200405657Y-136768496D02*
X200491371Y-136768496D01*
X200491371Y-136768496D02*
X200548514Y-136797068D01*
X200548514Y-136797068D02*
X200577085Y-136825639D01*
X200577085Y-136825639D02*
X200605657Y-136882782D01*
X200605657Y-136882782D02*
X200605657Y-137111353D01*
X209959148Y-124917130D02*
X209959148Y-123917130D01*
X209959148Y-124869511D02*
X209863910Y-124917130D01*
X209863910Y-124917130D02*
X209673434Y-124917130D01*
X209673434Y-124917130D02*
X209578196Y-124869511D01*
X209578196Y-124869511D02*
X209530577Y-124821891D01*
X209530577Y-124821891D02*
X209482958Y-124726653D01*
X209482958Y-124726653D02*
X209482958Y-124440939D01*
X209482958Y-124440939D02*
X209530577Y-124345701D01*
X209530577Y-124345701D02*
X209578196Y-124298082D01*
X209578196Y-124298082D02*
X209673434Y-124250463D01*
X209673434Y-124250463D02*
X209863910Y-124250463D01*
X209863910Y-124250463D02*
X209959148Y-124298082D01*
X206218628Y-132078646D02*
X206818628Y-132078646D01*
X206532914Y-132078646D02*
X206532914Y-132421503D01*
X206218628Y-132421503D02*
X206818628Y-132421503D01*
X206218628Y-132707217D02*
X206818628Y-132707217D01*
X206818628Y-132707217D02*
X206818628Y-132935788D01*
X206818628Y-132935788D02*
X206790057Y-132992931D01*
X206790057Y-132992931D02*
X206761485Y-133021502D01*
X206761485Y-133021502D02*
X206704342Y-133050074D01*
X206704342Y-133050074D02*
X206618628Y-133050074D01*
X206618628Y-133050074D02*
X206561485Y-133021502D01*
X206561485Y-133021502D02*
X206532914Y-132992931D01*
X206532914Y-132992931D02*
X206504342Y-132935788D01*
X206504342Y-132935788D02*
X206504342Y-132707217D01*
X206218628Y-133650074D02*
X206504342Y-133450074D01*
X206218628Y-133307217D02*
X206818628Y-133307217D01*
X206818628Y-133307217D02*
X206818628Y-133535788D01*
X206818628Y-133535788D02*
X206790057Y-133592931D01*
X206790057Y-133592931D02*
X206761485Y-133621502D01*
X206761485Y-133621502D02*
X206704342Y-133650074D01*
X206704342Y-133650074D02*
X206618628Y-133650074D01*
X206618628Y-133650074D02*
X206561485Y-133621502D01*
X206561485Y-133621502D02*
X206532914Y-133592931D01*
X206532914Y-133592931D02*
X206504342Y-133535788D01*
X206504342Y-133535788D02*
X206504342Y-133307217D01*
X197801503Y-139605405D02*
X198172931Y-139605405D01*
X198172931Y-139605405D02*
X197972931Y-139833976D01*
X197972931Y-139833976D02*
X198058646Y-139833976D01*
X198058646Y-139833976D02*
X198115789Y-139862548D01*
X198115789Y-139862548D02*
X198144360Y-139891119D01*
X198144360Y-139891119D02*
X198172931Y-139948262D01*
X198172931Y-139948262D02*
X198172931Y-140091119D01*
X198172931Y-140091119D02*
X198144360Y-140148262D01*
X198144360Y-140148262D02*
X198115789Y-140176834D01*
X198115789Y-140176834D02*
X198058646Y-140205405D01*
X198058646Y-140205405D02*
X197887217Y-140205405D01*
X197887217Y-140205405D02*
X197830074Y-140176834D01*
X197830074Y-140176834D02*
X197801503Y-140148262D01*
X198401503Y-139662548D02*
X198430075Y-139633976D01*
X198430075Y-139633976D02*
X198487218Y-139605405D01*
X198487218Y-139605405D02*
X198630075Y-139605405D01*
X198630075Y-139605405D02*
X198687218Y-139633976D01*
X198687218Y-139633976D02*
X198715789Y-139662548D01*
X198715789Y-139662548D02*
X198744360Y-139719691D01*
X198744360Y-139719691D02*
X198744360Y-139776834D01*
X198744360Y-139776834D02*
X198715789Y-139862548D01*
X198715789Y-139862548D02*
X198372932Y-140205405D01*
X198372932Y-140205405D02*
X198744360Y-140205405D01*
X198944361Y-140205405D02*
X199258647Y-139805405D01*
X198944361Y-139805405D02*
X199258647Y-140205405D01*
X198658646Y-141171371D02*
X198458646Y-140885657D01*
X198315789Y-141171371D02*
X198315789Y-140571371D01*
X198315789Y-140571371D02*
X198544360Y-140571371D01*
X198544360Y-140571371D02*
X198601503Y-140599942D01*
X198601503Y-140599942D02*
X198630074Y-140628514D01*
X198630074Y-140628514D02*
X198658646Y-140685657D01*
X198658646Y-140685657D02*
X198658646Y-140771371D01*
X198658646Y-140771371D02*
X198630074Y-140828514D01*
X198630074Y-140828514D02*
X198601503Y-140857085D01*
X198601503Y-140857085D02*
X198544360Y-140885657D01*
X198544360Y-140885657D02*
X198315789Y-140885657D01*
X211093153Y-117400628D02*
X211759819Y-117400628D01*
X211759819Y-117400628D02*
X211093153Y-118400628D01*
X211093153Y-118400628D02*
X211759819Y-118400628D01*
X190518646Y-141042800D02*
X190975789Y-141042800D01*
X190747217Y-141271371D02*
X190747217Y-140814228D01*
X191547217Y-140671371D02*
X191261503Y-140671371D01*
X191261503Y-140671371D02*
X191232931Y-140957085D01*
X191232931Y-140957085D02*
X191261503Y-140928514D01*
X191261503Y-140928514D02*
X191318646Y-140899942D01*
X191318646Y-140899942D02*
X191461503Y-140899942D01*
X191461503Y-140899942D02*
X191518646Y-140928514D01*
X191518646Y-140928514D02*
X191547217Y-140957085D01*
X191547217Y-140957085D02*
X191575788Y-141014228D01*
X191575788Y-141014228D02*
X191575788Y-141157085D01*
X191575788Y-141157085D02*
X191547217Y-141214228D01*
X191547217Y-141214228D02*
X191518646Y-141242800D01*
X191518646Y-141242800D02*
X191461503Y-141271371D01*
X191461503Y-141271371D02*
X191318646Y-141271371D01*
X191318646Y-141271371D02*
X191261503Y-141242800D01*
X191261503Y-141242800D02*
X191232931Y-141214228D01*
X191747217Y-140671371D02*
X191947217Y-141271371D01*
X191947217Y-141271371D02*
X192147217Y-140671371D01*
X202411503Y-141384228D02*
X202382931Y-141412800D01*
X202382931Y-141412800D02*
X202297217Y-141441371D01*
X202297217Y-141441371D02*
X202240074Y-141441371D01*
X202240074Y-141441371D02*
X202154360Y-141412800D01*
X202154360Y-141412800D02*
X202097217Y-141355657D01*
X202097217Y-141355657D02*
X202068646Y-141298514D01*
X202068646Y-141298514D02*
X202040074Y-141184228D01*
X202040074Y-141184228D02*
X202040074Y-141098514D01*
X202040074Y-141098514D02*
X202068646Y-140984228D01*
X202068646Y-140984228D02*
X202097217Y-140927085D01*
X202097217Y-140927085D02*
X202154360Y-140869942D01*
X202154360Y-140869942D02*
X202240074Y-140841371D01*
X202240074Y-140841371D02*
X202297217Y-140841371D01*
X202297217Y-140841371D02*
X202382931Y-140869942D01*
X202382931Y-140869942D02*
X202411503Y-140898514D01*
X202668646Y-141441371D02*
X202668646Y-140841371D01*
X202668646Y-140841371D02*
X202811503Y-140841371D01*
X202811503Y-140841371D02*
X202897217Y-140869942D01*
X202897217Y-140869942D02*
X202954360Y-140927085D01*
X202954360Y-140927085D02*
X202982931Y-140984228D01*
X202982931Y-140984228D02*
X203011503Y-141098514D01*
X203011503Y-141098514D02*
X203011503Y-141184228D01*
X203011503Y-141184228D02*
X202982931Y-141298514D01*
X202982931Y-141298514D02*
X202954360Y-141355657D01*
X202954360Y-141355657D02*
X202897217Y-141412800D01*
X202897217Y-141412800D02*
X202811503Y-141441371D01*
X202811503Y-141441371D02*
X202668646Y-141441371D01*
X203611503Y-141441371D02*
X203411503Y-141155657D01*
X203268646Y-141441371D02*
X203268646Y-140841371D01*
X203268646Y-140841371D02*
X203497217Y-140841371D01*
X203497217Y-140841371D02*
X203554360Y-140869942D01*
X203554360Y-140869942D02*
X203582931Y-140898514D01*
X203582931Y-140898514D02*
X203611503Y-140955657D01*
X203611503Y-140955657D02*
X203611503Y-141041371D01*
X203611503Y-141041371D02*
X203582931Y-141098514D01*
X203582931Y-141098514D02*
X203554360Y-141127085D01*
X203554360Y-141127085D02*
X203497217Y-141155657D01*
X203497217Y-141155657D02*
X203268646Y-141155657D01*
X200881371Y-136191353D02*
X200281371Y-136191353D01*
X200281371Y-136191353D02*
X200281371Y-135962782D01*
X200281371Y-135962782D02*
X200309942Y-135905639D01*
X200309942Y-135905639D02*
X200338514Y-135877068D01*
X200338514Y-135877068D02*
X200395657Y-135848496D01*
X200395657Y-135848496D02*
X200481371Y-135848496D01*
X200481371Y-135848496D02*
X200538514Y-135877068D01*
X200538514Y-135877068D02*
X200567085Y-135905639D01*
X200567085Y-135905639D02*
X200595657Y-135962782D01*
X200595657Y-135962782D02*
X200595657Y-136191353D01*
X200852800Y-135619925D02*
X200881371Y-135534211D01*
X200881371Y-135534211D02*
X200881371Y-135391353D01*
X200881371Y-135391353D02*
X200852800Y-135334211D01*
X200852800Y-135334211D02*
X200824228Y-135305639D01*
X200824228Y-135305639D02*
X200767085Y-135277068D01*
X200767085Y-135277068D02*
X200709942Y-135277068D01*
X200709942Y-135277068D02*
X200652800Y-135305639D01*
X200652800Y-135305639D02*
X200624228Y-135334211D01*
X200624228Y-135334211D02*
X200595657Y-135391353D01*
X200595657Y-135391353D02*
X200567085Y-135505639D01*
X200567085Y-135505639D02*
X200538514Y-135562782D01*
X200538514Y-135562782D02*
X200509942Y-135591353D01*
X200509942Y-135591353D02*
X200452800Y-135619925D01*
X200452800Y-135619925D02*
X200395657Y-135619925D01*
X200395657Y-135619925D02*
X200338514Y-135591353D01*
X200338514Y-135591353D02*
X200309942Y-135562782D01*
X200309942Y-135562782D02*
X200281371Y-135505639D01*
X200281371Y-135505639D02*
X200281371Y-135362782D01*
X200281371Y-135362782D02*
X200309942Y-135277068D01*
X200309942Y-134705639D02*
X200281371Y-134762782D01*
X200281371Y-134762782D02*
X200281371Y-134848496D01*
X200281371Y-134848496D02*
X200309942Y-134934210D01*
X200309942Y-134934210D02*
X200367085Y-134991353D01*
X200367085Y-134991353D02*
X200424228Y-135019924D01*
X200424228Y-135019924D02*
X200538514Y-135048496D01*
X200538514Y-135048496D02*
X200624228Y-135048496D01*
X200624228Y-135048496D02*
X200738514Y-135019924D01*
X200738514Y-135019924D02*
X200795657Y-134991353D01*
X200795657Y-134991353D02*
X200852800Y-134934210D01*
X200852800Y-134934210D02*
X200881371Y-134848496D01*
X200881371Y-134848496D02*
X200881371Y-134791353D01*
X200881371Y-134791353D02*
X200852800Y-134705639D01*
X200852800Y-134705639D02*
X200824228Y-134677067D01*
X200824228Y-134677067D02*
X200624228Y-134677067D01*
X200624228Y-134677067D02*
X200624228Y-134791353D01*
X209945446Y-132585049D02*
X209945446Y-131585049D01*
X209945446Y-132537430D02*
X209850208Y-132585049D01*
X209850208Y-132585049D02*
X209659732Y-132585049D01*
X209659732Y-132585049D02*
X209564494Y-132537430D01*
X209564494Y-132537430D02*
X209516875Y-132489810D01*
X209516875Y-132489810D02*
X209469256Y-132394572D01*
X209469256Y-132394572D02*
X209469256Y-132108858D01*
X209469256Y-132108858D02*
X209516875Y-132013620D01*
X209516875Y-132013620D02*
X209564494Y-131966001D01*
X209564494Y-131966001D02*
X209659732Y-131918382D01*
X209659732Y-131918382D02*
X209850208Y-131918382D01*
X209850208Y-131918382D02*
X209945446Y-131966001D01*
X211418597Y-116288259D02*
X211418597Y-116764450D01*
X211085264Y-115764450D02*
X211418597Y-116288259D01*
X211418597Y-116288259D02*
X211751930Y-115764450D01*
X200607085Y-140041353D02*
X200607085Y-140241353D01*
X200921371Y-140241353D02*
X200321371Y-140241353D01*
X200321371Y-140241353D02*
X200321371Y-139955639D01*
X200921371Y-139727067D02*
X200321371Y-139727067D01*
X200321371Y-139727067D02*
X200749942Y-139527067D01*
X200749942Y-139527067D02*
X200321371Y-139327067D01*
X200321371Y-139327067D02*
X200921371Y-139327067D01*
X200921371Y-138755639D02*
X200921371Y-139041353D01*
X200921371Y-139041353D02*
X200321371Y-139041353D01*
X203698628Y-132188646D02*
X204298628Y-132188646D01*
X204012914Y-132188646D02*
X204012914Y-132531503D01*
X203698628Y-132531503D02*
X204298628Y-132531503D01*
X203698628Y-132817217D02*
X204298628Y-132817217D01*
X204298628Y-132817217D02*
X204298628Y-133045788D01*
X204298628Y-133045788D02*
X204270057Y-133102931D01*
X204270057Y-133102931D02*
X204241485Y-133131502D01*
X204241485Y-133131502D02*
X204184342Y-133160074D01*
X204184342Y-133160074D02*
X204098628Y-133160074D01*
X204098628Y-133160074D02*
X204041485Y-133131502D01*
X204041485Y-133131502D02*
X204012914Y-133102931D01*
X204012914Y-133102931D02*
X203984342Y-133045788D01*
X203984342Y-133045788D02*
X203984342Y-132817217D01*
X203698628Y-133702931D02*
X203698628Y-133417217D01*
X203698628Y-133417217D02*
X204298628Y-133417217D01*
D11*
X196487958Y-95395753D02*
X196487958Y-95698134D01*
X196276292Y-95063134D02*
X196487958Y-95395753D01*
X196487958Y-95395753D02*
X196699625Y-95063134D01*
D12*
X188987073Y-104195642D02*
X189415645Y-104195642D01*
X189201359Y-104945642D02*
X189201359Y-104195642D01*
X189629931Y-104909928D02*
X189737074Y-104945642D01*
X189737074Y-104945642D02*
X189915645Y-104945642D01*
X189915645Y-104945642D02*
X189987074Y-104909928D01*
X189987074Y-104909928D02*
X190022788Y-104874213D01*
X190022788Y-104874213D02*
X190058502Y-104802785D01*
X190058502Y-104802785D02*
X190058502Y-104731356D01*
X190058502Y-104731356D02*
X190022788Y-104659928D01*
X190022788Y-104659928D02*
X189987074Y-104624213D01*
X189987074Y-104624213D02*
X189915645Y-104588499D01*
X189915645Y-104588499D02*
X189772788Y-104552785D01*
X189772788Y-104552785D02*
X189701359Y-104517070D01*
X189701359Y-104517070D02*
X189665645Y-104481356D01*
X189665645Y-104481356D02*
X189629931Y-104409928D01*
X189629931Y-104409928D02*
X189629931Y-104338499D01*
X189629931Y-104338499D02*
X189665645Y-104267070D01*
X189665645Y-104267070D02*
X189701359Y-104231356D01*
X189701359Y-104231356D02*
X189772788Y-104195642D01*
X189772788Y-104195642D02*
X189951359Y-104195642D01*
X189951359Y-104195642D02*
X190058502Y-104231356D01*
X190415645Y-104945642D02*
X190558502Y-104945642D01*
X190558502Y-104945642D02*
X190629931Y-104909928D01*
X190629931Y-104909928D02*
X190665645Y-104874213D01*
X190665645Y-104874213D02*
X190737074Y-104767070D01*
X190737074Y-104767070D02*
X190772788Y-104624213D01*
X190772788Y-104624213D02*
X190772788Y-104338499D01*
X190772788Y-104338499D02*
X190737074Y-104267070D01*
X190737074Y-104267070D02*
X190701360Y-104231356D01*
X190701360Y-104231356D02*
X190629931Y-104195642D01*
X190629931Y-104195642D02*
X190487074Y-104195642D01*
X190487074Y-104195642D02*
X190415645Y-104231356D01*
X190415645Y-104231356D02*
X190379931Y-104267070D01*
X190379931Y-104267070D02*
X190344217Y-104338499D01*
X190344217Y-104338499D02*
X190344217Y-104517070D01*
X190344217Y-104517070D02*
X190379931Y-104588499D01*
X190379931Y-104588499D02*
X190415645Y-104624213D01*
X190415645Y-104624213D02*
X190487074Y-104659928D01*
X190487074Y-104659928D02*
X190629931Y-104659928D01*
X190629931Y-104659928D02*
X190701360Y-104624213D01*
X190701360Y-104624213D02*
X190737074Y-104588499D01*
X190737074Y-104588499D02*
X190772788Y-104517070D01*
X191058503Y-104267070D02*
X191094217Y-104231356D01*
X191094217Y-104231356D02*
X191165646Y-104195642D01*
X191165646Y-104195642D02*
X191344217Y-104195642D01*
X191344217Y-104195642D02*
X191415646Y-104231356D01*
X191415646Y-104231356D02*
X191451360Y-104267070D01*
X191451360Y-104267070D02*
X191487074Y-104338499D01*
X191487074Y-104338499D02*
X191487074Y-104409928D01*
X191487074Y-104409928D02*
X191451360Y-104517070D01*
X191451360Y-104517070D02*
X191022788Y-104945642D01*
X191022788Y-104945642D02*
X191487074Y-104945642D01*
X191772789Y-104267070D02*
X191808503Y-104231356D01*
X191808503Y-104231356D02*
X191879932Y-104195642D01*
X191879932Y-104195642D02*
X192058503Y-104195642D01*
X192058503Y-104195642D02*
X192129932Y-104231356D01*
X192129932Y-104231356D02*
X192165646Y-104267070D01*
X192165646Y-104267070D02*
X192201360Y-104338499D01*
X192201360Y-104338499D02*
X192201360Y-104409928D01*
X192201360Y-104409928D02*
X192165646Y-104517070D01*
X192165646Y-104517070D02*
X191737074Y-104945642D01*
X191737074Y-104945642D02*
X192201360Y-104945642D01*
D10*
X170978640Y-106083911D02*
X170778640Y-105798197D01*
X170635783Y-106083911D02*
X170635783Y-105483911D01*
X170635783Y-105483911D02*
X170864354Y-105483911D01*
X170864354Y-105483911D02*
X170921497Y-105512482D01*
X170921497Y-105512482D02*
X170950068Y-105541054D01*
X170950068Y-105541054D02*
X170978640Y-105598197D01*
X170978640Y-105598197D02*
X170978640Y-105683911D01*
X170978640Y-105683911D02*
X170950068Y-105741054D01*
X170950068Y-105741054D02*
X170921497Y-105769625D01*
X170921497Y-105769625D02*
X170864354Y-105798197D01*
X170864354Y-105798197D02*
X170635783Y-105798197D01*
X171235783Y-105769625D02*
X171435783Y-105769625D01*
X171521497Y-106083911D02*
X171235783Y-106083911D01*
X171235783Y-106083911D02*
X171235783Y-105483911D01*
X171235783Y-105483911D02*
X171521497Y-105483911D01*
X172092925Y-105512482D02*
X172035783Y-105483911D01*
X172035783Y-105483911D02*
X171950068Y-105483911D01*
X171950068Y-105483911D02*
X171864354Y-105512482D01*
X171864354Y-105512482D02*
X171807211Y-105569625D01*
X171807211Y-105569625D02*
X171778640Y-105626768D01*
X171778640Y-105626768D02*
X171750068Y-105741054D01*
X171750068Y-105741054D02*
X171750068Y-105826768D01*
X171750068Y-105826768D02*
X171778640Y-105941054D01*
X171778640Y-105941054D02*
X171807211Y-105998197D01*
X171807211Y-105998197D02*
X171864354Y-106055340D01*
X171864354Y-106055340D02*
X171950068Y-106083911D01*
X171950068Y-106083911D02*
X172007211Y-106083911D01*
X172007211Y-106083911D02*
X172092925Y-106055340D01*
X172092925Y-106055340D02*
X172121497Y-106026768D01*
X172121497Y-106026768D02*
X172121497Y-105826768D01*
X172121497Y-105826768D02*
X172007211Y-105826768D01*
X172378640Y-106083911D02*
X172378640Y-105483911D01*
X172778639Y-105483911D02*
X172892925Y-105483911D01*
X172892925Y-105483911D02*
X172950068Y-105512482D01*
X172950068Y-105512482D02*
X173007211Y-105569625D01*
X173007211Y-105569625D02*
X173035782Y-105683911D01*
X173035782Y-105683911D02*
X173035782Y-105883911D01*
X173035782Y-105883911D02*
X173007211Y-105998197D01*
X173007211Y-105998197D02*
X172950068Y-106055340D01*
X172950068Y-106055340D02*
X172892925Y-106083911D01*
X172892925Y-106083911D02*
X172778639Y-106083911D01*
X172778639Y-106083911D02*
X172721497Y-106055340D01*
X172721497Y-106055340D02*
X172664354Y-105998197D01*
X172664354Y-105998197D02*
X172635782Y-105883911D01*
X172635782Y-105883911D02*
X172635782Y-105683911D01*
X172635782Y-105683911D02*
X172664354Y-105569625D01*
X172664354Y-105569625D02*
X172721497Y-105512482D01*
X172721497Y-105512482D02*
X172778639Y-105483911D01*
X173292925Y-106083911D02*
X173292925Y-105483911D01*
X173292925Y-105483911D02*
X173635782Y-106083911D01*
X173635782Y-106083911D02*
X173635782Y-105483911D01*
D14*
X194745065Y-124968667D02*
X194745065Y-125778190D01*
X194745065Y-125778190D02*
X194792684Y-125873428D01*
X194792684Y-125873428D02*
X194840303Y-125921048D01*
X194840303Y-125921048D02*
X194935541Y-125968667D01*
X194935541Y-125968667D02*
X195126017Y-125968667D01*
X195126017Y-125968667D02*
X195221255Y-125921048D01*
X195221255Y-125921048D02*
X195268874Y-125873428D01*
X195268874Y-125873428D02*
X195316493Y-125778190D01*
X195316493Y-125778190D02*
X195316493Y-124968667D01*
X195697446Y-124968667D02*
X196364112Y-124968667D01*
X196364112Y-124968667D02*
X195935541Y-125968667D01*
D11*
X215405536Y-122741048D02*
X215429726Y-122668476D01*
X215429726Y-122668476D02*
X215429726Y-122547524D01*
X215429726Y-122547524D02*
X215405536Y-122499143D01*
X215405536Y-122499143D02*
X215381345Y-122474952D01*
X215381345Y-122474952D02*
X215332964Y-122450762D01*
X215332964Y-122450762D02*
X215284583Y-122450762D01*
X215284583Y-122450762D02*
X215236202Y-122474952D01*
X215236202Y-122474952D02*
X215212012Y-122499143D01*
X215212012Y-122499143D02*
X215187821Y-122547524D01*
X215187821Y-122547524D02*
X215163631Y-122644286D01*
X215163631Y-122644286D02*
X215139440Y-122692667D01*
X215139440Y-122692667D02*
X215115250Y-122716857D01*
X215115250Y-122716857D02*
X215066869Y-122741048D01*
X215066869Y-122741048D02*
X215018488Y-122741048D01*
X215018488Y-122741048D02*
X214970107Y-122716857D01*
X214970107Y-122716857D02*
X214945916Y-122692667D01*
X214945916Y-122692667D02*
X214921726Y-122644286D01*
X214921726Y-122644286D02*
X214921726Y-122523333D01*
X214921726Y-122523333D02*
X214945916Y-122450762D01*
X215429726Y-121942761D02*
X215187821Y-122112095D01*
X215429726Y-122233047D02*
X214921726Y-122233047D01*
X214921726Y-122233047D02*
X214921726Y-122039523D01*
X214921726Y-122039523D02*
X214945916Y-121991142D01*
X214945916Y-121991142D02*
X214970107Y-121966952D01*
X214970107Y-121966952D02*
X215018488Y-121942761D01*
X215018488Y-121942761D02*
X215091059Y-121942761D01*
X215091059Y-121942761D02*
X215139440Y-121966952D01*
X215139440Y-121966952D02*
X215163631Y-121991142D01*
X215163631Y-121991142D02*
X215187821Y-122039523D01*
X215187821Y-122039523D02*
X215187821Y-122233047D01*
X214921726Y-121773428D02*
X214921726Y-121458952D01*
X214921726Y-121458952D02*
X215115250Y-121628285D01*
X215115250Y-121628285D02*
X215115250Y-121555714D01*
X215115250Y-121555714D02*
X215139440Y-121507333D01*
X215139440Y-121507333D02*
X215163631Y-121483142D01*
X215163631Y-121483142D02*
X215212012Y-121458952D01*
X215212012Y-121458952D02*
X215332964Y-121458952D01*
X215332964Y-121458952D02*
X215381345Y-121483142D01*
X215381345Y-121483142D02*
X215405536Y-121507333D01*
X215405536Y-121507333D02*
X215429726Y-121555714D01*
X215429726Y-121555714D02*
X215429726Y-121700857D01*
X215429726Y-121700857D02*
X215405536Y-121749238D01*
X215405536Y-121749238D02*
X215381345Y-121773428D01*
D14*
X194812326Y-116691406D02*
X194812326Y-117500929D01*
X194812326Y-117500929D02*
X194859945Y-117596167D01*
X194859945Y-117596167D02*
X194907564Y-117643787D01*
X194907564Y-117643787D02*
X195002802Y-117691406D01*
X195002802Y-117691406D02*
X195193278Y-117691406D01*
X195193278Y-117691406D02*
X195288516Y-117643787D01*
X195288516Y-117643787D02*
X195336135Y-117596167D01*
X195336135Y-117596167D02*
X195383754Y-117500929D01*
X195383754Y-117500929D02*
X195383754Y-116691406D01*
X195764707Y-116691406D02*
X196383754Y-116691406D01*
X196383754Y-116691406D02*
X196050421Y-117072358D01*
X196050421Y-117072358D02*
X196193278Y-117072358D01*
X196193278Y-117072358D02*
X196288516Y-117119977D01*
X196288516Y-117119977D02*
X196336135Y-117167596D01*
X196336135Y-117167596D02*
X196383754Y-117262834D01*
X196383754Y-117262834D02*
X196383754Y-117500929D01*
X196383754Y-117500929D02*
X196336135Y-117596167D01*
X196336135Y-117596167D02*
X196288516Y-117643787D01*
X196288516Y-117643787D02*
X196193278Y-117691406D01*
X196193278Y-117691406D02*
X195907564Y-117691406D01*
X195907564Y-117691406D02*
X195812326Y-117643787D01*
X195812326Y-117643787D02*
X195764707Y-117596167D01*
D11*
X215355536Y-121042667D02*
X215379726Y-120970095D01*
X215379726Y-120970095D02*
X215379726Y-120849143D01*
X215379726Y-120849143D02*
X215355536Y-120800762D01*
X215355536Y-120800762D02*
X215331345Y-120776571D01*
X215331345Y-120776571D02*
X215282964Y-120752381D01*
X215282964Y-120752381D02*
X215234583Y-120752381D01*
X215234583Y-120752381D02*
X215186202Y-120776571D01*
X215186202Y-120776571D02*
X215162012Y-120800762D01*
X215162012Y-120800762D02*
X215137821Y-120849143D01*
X215137821Y-120849143D02*
X215113631Y-120945905D01*
X215113631Y-120945905D02*
X215089440Y-120994286D01*
X215089440Y-120994286D02*
X215065250Y-121018476D01*
X215065250Y-121018476D02*
X215016869Y-121042667D01*
X215016869Y-121042667D02*
X214968488Y-121042667D01*
X214968488Y-121042667D02*
X214920107Y-121018476D01*
X214920107Y-121018476D02*
X214895916Y-120994286D01*
X214895916Y-120994286D02*
X214871726Y-120945905D01*
X214871726Y-120945905D02*
X214871726Y-120824952D01*
X214871726Y-120824952D02*
X214895916Y-120752381D01*
X215379726Y-120292761D02*
X215379726Y-120534666D01*
X215379726Y-120534666D02*
X214871726Y-120534666D01*
X214871726Y-120171809D02*
X214871726Y-119857333D01*
X214871726Y-119857333D02*
X215065250Y-120026666D01*
X215065250Y-120026666D02*
X215065250Y-119954095D01*
X215065250Y-119954095D02*
X215089440Y-119905714D01*
X215089440Y-119905714D02*
X215113631Y-119881523D01*
X215113631Y-119881523D02*
X215162012Y-119857333D01*
X215162012Y-119857333D02*
X215282964Y-119857333D01*
X215282964Y-119857333D02*
X215331345Y-119881523D01*
X215331345Y-119881523D02*
X215355536Y-119905714D01*
X215355536Y-119905714D02*
X215379726Y-119954095D01*
X215379726Y-119954095D02*
X215379726Y-120099238D01*
X215379726Y-120099238D02*
X215355536Y-120147619D01*
X215355536Y-120147619D02*
X215331345Y-120171809D01*
D14*
X171739205Y-117154313D02*
X171739205Y-116154313D01*
X172786823Y-117059074D02*
X172739204Y-117106694D01*
X172739204Y-117106694D02*
X172596347Y-117154313D01*
X172596347Y-117154313D02*
X172501109Y-117154313D01*
X172501109Y-117154313D02*
X172358252Y-117106694D01*
X172358252Y-117106694D02*
X172263014Y-117011455D01*
X172263014Y-117011455D02*
X172215395Y-116916217D01*
X172215395Y-116916217D02*
X172167776Y-116725741D01*
X172167776Y-116725741D02*
X172167776Y-116582884D01*
X172167776Y-116582884D02*
X172215395Y-116392408D01*
X172215395Y-116392408D02*
X172263014Y-116297170D01*
X172263014Y-116297170D02*
X172358252Y-116201932D01*
X172358252Y-116201932D02*
X172501109Y-116154313D01*
X172501109Y-116154313D02*
X172596347Y-116154313D01*
X172596347Y-116154313D02*
X172739204Y-116201932D01*
X172739204Y-116201932D02*
X172786823Y-116249551D01*
X173739204Y-117154313D02*
X173167776Y-117154313D01*
X173453490Y-117154313D02*
X173453490Y-116154313D01*
X173453490Y-116154313D02*
X173358252Y-116297170D01*
X173358252Y-116297170D02*
X173263014Y-116392408D01*
X173263014Y-116392408D02*
X173167776Y-116440027D01*
X189638020Y-102722294D02*
X189638020Y-103531817D01*
X189638020Y-103531817D02*
X189685639Y-103627055D01*
X189685639Y-103627055D02*
X189733258Y-103674675D01*
X189733258Y-103674675D02*
X189828496Y-103722294D01*
X189828496Y-103722294D02*
X190018972Y-103722294D01*
X190018972Y-103722294D02*
X190114210Y-103674675D01*
X190114210Y-103674675D02*
X190161829Y-103627055D01*
X190161829Y-103627055D02*
X190209448Y-103531817D01*
X190209448Y-103531817D02*
X190209448Y-102722294D01*
X191114210Y-102722294D02*
X190923734Y-102722294D01*
X190923734Y-102722294D02*
X190828496Y-102769913D01*
X190828496Y-102769913D02*
X190780877Y-102817532D01*
X190780877Y-102817532D02*
X190685639Y-102960389D01*
X190685639Y-102960389D02*
X190638020Y-103150865D01*
X190638020Y-103150865D02*
X190638020Y-103531817D01*
X190638020Y-103531817D02*
X190685639Y-103627055D01*
X190685639Y-103627055D02*
X190733258Y-103674675D01*
X190733258Y-103674675D02*
X190828496Y-103722294D01*
X190828496Y-103722294D02*
X191018972Y-103722294D01*
X191018972Y-103722294D02*
X191114210Y-103674675D01*
X191114210Y-103674675D02*
X191161829Y-103627055D01*
X191161829Y-103627055D02*
X191209448Y-103531817D01*
X191209448Y-103531817D02*
X191209448Y-103293722D01*
X191209448Y-103293722D02*
X191161829Y-103198484D01*
X191161829Y-103198484D02*
X191114210Y-103150865D01*
X191114210Y-103150865D02*
X191018972Y-103103246D01*
X191018972Y-103103246D02*
X190828496Y-103103246D01*
X190828496Y-103103246D02*
X190733258Y-103150865D01*
X190733258Y-103150865D02*
X190685639Y-103198484D01*
X190685639Y-103198484D02*
X190638020Y-103293722D01*
D15*
%TO.C,PSGPD2*%
X210175000Y-130550000D02*
X210175000Y-129950000D01*
X210875000Y-129250000D02*
X212275000Y-129250000D01*
X212275000Y-131250000D02*
X210875000Y-131250000D01*
X212975000Y-129950000D02*
X212975000Y-130550000D01*
X210175000Y-129950000D02*
G75*
G02*
X210875000Y-129250000I700000J0D01*
G01*
X210875000Y-131250000D02*
G75*
G02*
X210175000Y-130550000I0J700000D01*
G01*
X212275000Y-129250000D02*
G75*
G02*
X212975000Y-129950000I1J-699999D01*
G01*
X212975000Y-130550000D02*
G75*
G02*
X212275000Y-131250000I-699999J-1D01*
G01*
%TO.C,R21*%
X208829703Y-122322070D02*
X208829703Y-122014788D01*
X209589703Y-122322070D02*
X209589703Y-122014788D01*
%TO.C,C31*%
X188572489Y-106812908D02*
X189094993Y-106812908D01*
X188572489Y-108282908D02*
X189094993Y-108282908D01*
%TO.C,R40*%
X202953641Y-115420000D02*
X202646359Y-115420000D01*
X202953641Y-116180000D02*
X202646359Y-116180000D01*
%TO.C,C56*%
X187399878Y-123819234D02*
X187399878Y-128029234D01*
X187399878Y-128029234D02*
X190419878Y-128029234D01*
X190419878Y-128029234D02*
X190419878Y-123819234D01*
%TO.C,R66*%
X175521623Y-129721691D02*
X175521623Y-129414409D01*
X176281623Y-129721691D02*
X176281623Y-129414409D01*
%TO.C,R46*%
X198941359Y-109695000D02*
X199248641Y-109695000D01*
X198941359Y-110455000D02*
X199248641Y-110455000D01*
%TO.C,U7*%
X195579240Y-112313814D02*
X193629240Y-112313814D01*
X195579240Y-112313814D02*
X197529240Y-112313814D01*
X195579240Y-121183814D02*
X193629240Y-121183814D01*
X195579240Y-121183814D02*
X197529240Y-121183814D01*
X198519240Y-121448814D02*
X198039240Y-121448814D01*
X198279240Y-121118814D01*
X198519240Y-121448814D01*
G36*
X198519240Y-121448814D02*
G01*
X198039240Y-121448814D01*
X198279240Y-121118814D01*
X198519240Y-121448814D01*
G37*
%TO.C,C11*%
X190893416Y-126792646D02*
X190893416Y-126576974D01*
X191613416Y-126792646D02*
X191613416Y-126576974D01*
%TO.C,R57*%
X172187973Y-129683558D02*
X172187973Y-129376276D01*
X172947973Y-129683558D02*
X172947973Y-129376276D01*
%TO.C,C26*%
X205290684Y-114522481D02*
X205290684Y-113999977D01*
X206760684Y-114522481D02*
X206760684Y-113999977D01*
%TO.C,R26*%
X204860935Y-124374746D02*
X204386419Y-124374746D01*
X204860935Y-125419746D02*
X204386419Y-125419746D01*
%TO.C,HPL_RES2*%
X216375000Y-111250000D02*
X216375000Y-111850000D01*
X216675000Y-111550000D02*
X216375000Y-111250000D01*
X216675000Y-111550000D02*
X216375000Y-111850000D01*
X216875000Y-114150000D02*
X216875000Y-111350000D01*
X217575000Y-110700000D02*
X218175000Y-110700000D01*
X218175000Y-114800000D02*
X217575000Y-114800000D01*
X218875000Y-111350000D02*
X218875000Y-114150000D01*
X216875000Y-111400000D02*
G75*
G02*
X217575000Y-110700000I699999J1D01*
G01*
X217575000Y-114800000D02*
G75*
G02*
X216875000Y-114100000I0J700000D01*
G01*
X218175000Y-110700000D02*
G75*
G02*
X218875000Y-111400000I1J-699999D01*
G01*
X218875000Y-114100000D02*
G75*
G02*
X218175000Y-114800000I-700000J0D01*
G01*
%TO.C,MD1_PU1*%
X186573511Y-121853791D02*
X186573511Y-121253791D01*
X187273511Y-120553791D02*
X188673511Y-120553791D01*
X188673511Y-122553791D02*
X187273511Y-122553791D01*
X189373511Y-121253791D02*
X189373511Y-121853791D01*
X186573511Y-121253791D02*
G75*
G02*
X187273511Y-120553791I700000J0D01*
G01*
X187273511Y-122553791D02*
G75*
G02*
X186573511Y-121853791I0J700000D01*
G01*
X188673511Y-120553791D02*
G75*
G02*
X189373511Y-121253791I1J-699999D01*
G01*
X189373511Y-121853791D02*
G75*
G02*
X188673511Y-122553791I-699999J-1D01*
G01*
%TO.C,R32*%
X203370000Y-129186359D02*
X203370000Y-129493641D01*
X204130000Y-129186359D02*
X204130000Y-129493641D01*
%TO.C,C36*%
X199017164Y-110665000D02*
X199232836Y-110665000D01*
X199017164Y-111385000D02*
X199232836Y-111385000D01*
%TO.C,FML_1*%
X199775000Y-122975000D02*
X199775000Y-120175000D01*
X200475000Y-119525000D02*
X201075000Y-119525000D01*
X201075000Y-123625000D02*
X200475000Y-123625000D01*
X201775000Y-120175000D02*
X201775000Y-122975000D01*
X201975000Y-122775000D02*
X202275000Y-122475000D01*
X201975000Y-122775000D02*
X202275000Y-123075000D01*
X202275000Y-123075000D02*
X202275000Y-122475000D01*
X199775000Y-120225000D02*
G75*
G02*
X200475000Y-119525000I700000J0D01*
G01*
X200475000Y-123625000D02*
G75*
G02*
X199775000Y-122925000I-1J699999D01*
G01*
X201075000Y-119525000D02*
G75*
G02*
X201775000Y-120225000I0J-700000D01*
G01*
X201775000Y-122925000D02*
G75*
G02*
X201075000Y-123625000I-699999J-1D01*
G01*
%TO.C,R7*%
X190880887Y-124268368D02*
X190880887Y-123961086D01*
X191640887Y-124268368D02*
X191640887Y-123961086D01*
%TO.C,C32*%
X178349485Y-126400242D02*
X178349485Y-126922746D01*
X179819485Y-126400242D02*
X179819485Y-126922746D01*
%TO.C,C54*%
X186859087Y-133019337D02*
X187381591Y-133019337D01*
X186859087Y-134489337D02*
X187381591Y-134489337D01*
%TO.C,R27*%
X205253641Y-126545000D02*
X204946359Y-126545000D01*
X205253641Y-127305000D02*
X204946359Y-127305000D01*
%TO.C,C46*%
X181375252Y-105375737D02*
X181375252Y-108395737D01*
X181375252Y-108395737D02*
X185585252Y-108395737D01*
X185585252Y-105375737D02*
X181375252Y-105375737D01*
%TO.C,R56*%
X176726124Y-131849204D02*
X177200640Y-131849204D01*
X176726124Y-132894204D02*
X177200640Y-132894204D01*
%TO.C,C4*%
X194725000Y-134601252D02*
X194725000Y-134078748D01*
X196195000Y-134601252D02*
X196195000Y-134078748D01*
%TO.C,R15*%
X213561697Y-132523116D02*
X213561697Y-132048600D01*
X214606697Y-132523116D02*
X214606697Y-132048600D01*
%TO.C,R37*%
X170711995Y-131880964D02*
X171186511Y-131880964D01*
X170711995Y-132925964D02*
X171186511Y-132925964D01*
%TO.C,R36*%
X186465611Y-125159302D02*
X186158329Y-125159302D01*
X186465611Y-125919302D02*
X186158329Y-125919302D01*
%TO.C,HPR_RES1*%
X211991794Y-115910000D02*
X211991794Y-116510000D01*
X212291794Y-116210000D02*
X211991794Y-115910000D01*
X212291794Y-116210000D02*
X211991794Y-116510000D01*
X212491794Y-118810000D02*
X212491794Y-116010000D01*
X213191794Y-115360000D02*
X213791794Y-115360000D01*
X213791794Y-119460000D02*
X213191794Y-119460000D01*
X214491794Y-116010000D02*
X214491794Y-118810000D01*
X212491794Y-116060000D02*
G75*
G02*
X213191794Y-115360000I699999J1D01*
G01*
X213191794Y-119460000D02*
G75*
G02*
X212491794Y-118760000I0J700000D01*
G01*
X213791794Y-115360000D02*
G75*
G02*
X214491794Y-116060000I1J-699999D01*
G01*
X214491794Y-118760000D02*
G75*
G02*
X213791794Y-119460000I-700000J0D01*
G01*
%TO.C,R67*%
X184388353Y-126259986D02*
X184388353Y-125952704D01*
X185148353Y-126259986D02*
X185148353Y-125952704D01*
%TO.C,C37*%
X201061913Y-117181742D02*
X201584417Y-117181742D01*
X201061913Y-118651742D02*
X201584417Y-118651742D01*
%TO.C,R30*%
X213120000Y-126528641D02*
X213120000Y-126221359D01*
X213880000Y-126528641D02*
X213880000Y-126221359D01*
%TO.C,C47*%
X191503527Y-94444101D02*
X191503527Y-97464101D01*
X191503527Y-97464101D02*
X195713527Y-97464101D01*
X195713527Y-94444101D02*
X191503527Y-94444101D01*
%TO.C,R74*%
X175430792Y-110319519D02*
X174956276Y-110319519D01*
X175430792Y-111364519D02*
X174956276Y-111364519D01*
%TO.C,R41*%
X202878641Y-112820000D02*
X202571359Y-112820000D01*
X202878641Y-113580000D02*
X202571359Y-113580000D01*
%TO.C,C51*%
X183259859Y-110385750D02*
X183259859Y-110908254D01*
X184729859Y-110385750D02*
X184729859Y-110908254D01*
%TO.C,R48*%
X201010437Y-112829942D02*
X200703155Y-112829942D01*
X201010437Y-113589942D02*
X200703155Y-113589942D01*
%TO.C,C15*%
X201206390Y-125868975D02*
X201206390Y-125346471D01*
X202676390Y-125868975D02*
X202676390Y-125346471D01*
%TO.C,R68*%
X179481113Y-129620157D02*
X179481113Y-129312875D01*
X180241113Y-129620157D02*
X180241113Y-129312875D01*
%TO.C,R23*%
X202220000Y-122586359D02*
X202220000Y-122893641D01*
X202980000Y-122586359D02*
X202980000Y-122893641D01*
%TO.C,U3*%
X195426106Y-121503898D02*
X193476106Y-121503898D01*
X195426106Y-121503898D02*
X197376106Y-121503898D01*
X195426106Y-130373898D02*
X193476106Y-130373898D01*
X195426106Y-130373898D02*
X197376106Y-130373898D01*
X192726106Y-121568898D02*
X192486106Y-121238898D01*
X192966106Y-121238898D01*
X192726106Y-121568898D01*
G36*
X192726106Y-121568898D02*
G01*
X192486106Y-121238898D01*
X192966106Y-121238898D01*
X192726106Y-121568898D01*
G37*
%TO.C,R58*%
X174589760Y-129721691D02*
X174589760Y-129414409D01*
X175349760Y-129721691D02*
X175349760Y-129414409D01*
%TO.C,R31*%
X203320000Y-126613641D02*
X203320000Y-126306359D01*
X204080000Y-126613641D02*
X204080000Y-126306359D01*
%TO.C,R22*%
X208854703Y-119989788D02*
X208854703Y-120297070D01*
X209614703Y-119989788D02*
X209614703Y-120297070D01*
%TO.C,R79*%
X215761571Y-111940525D02*
X215761571Y-111633243D01*
X216521571Y-111940525D02*
X216521571Y-111633243D01*
%TO.C,R25*%
X198560000Y-131823641D02*
X198560000Y-131516359D01*
X199320000Y-131823641D02*
X199320000Y-131516359D01*
%TO.C,R35*%
X180000634Y-110977685D02*
X179526118Y-110977685D01*
X180000634Y-112022685D02*
X179526118Y-112022685D01*
%TO.C,PSGPD4*%
X199670000Y-133010000D02*
X199670000Y-131610000D01*
X200370000Y-130910000D02*
X200970000Y-130910000D01*
X200970000Y-133710000D02*
X200370000Y-133710000D01*
X201670000Y-131610000D02*
X201670000Y-133010000D01*
X199670000Y-131610000D02*
G75*
G02*
X200370000Y-130910000I699999J1D01*
G01*
X200370000Y-133710000D02*
G75*
G02*
X199670000Y-133010000I0J700000D01*
G01*
X200970000Y-130910000D02*
G75*
G02*
X201670000Y-131610000I1J-699999D01*
G01*
X201670000Y-133010000D02*
G75*
G02*
X200970000Y-133710000I-700000J0D01*
G01*
%TO.C,R61*%
X215023331Y-123569510D02*
X215023331Y-123876792D01*
X215783331Y-123569510D02*
X215783331Y-123876792D01*
%TO.C,C49*%
X177262946Y-107254872D02*
X177262946Y-107470544D01*
X177982946Y-107254872D02*
X177982946Y-107470544D01*
%TO.C,IC1*%
X170505163Y-114688265D02*
X170795163Y-114688265D01*
X170505163Y-118548265D02*
X170505163Y-114688265D01*
X170505163Y-118548265D02*
X170505163Y-122408265D01*
X170505163Y-122408265D02*
X170795163Y-122408265D01*
X186125163Y-114688265D02*
X185835163Y-114688265D01*
X186125163Y-118548265D02*
X186125163Y-114688265D01*
X186125163Y-118548265D02*
X186125163Y-122408265D01*
X186125163Y-122408265D02*
X185835163Y-122408265D01*
X170795163Y-123248265D02*
X170325163Y-123588265D01*
X170325163Y-122908265D01*
X170795163Y-123248265D01*
G36*
X170795163Y-123248265D02*
G01*
X170325163Y-123588265D01*
X170325163Y-122908265D01*
X170795163Y-123248265D01*
G37*
%TO.C,R17*%
X213494515Y-124207031D02*
X213494515Y-123732515D01*
X214539515Y-124207031D02*
X214539515Y-123732515D01*
%TO.C,C44*%
X196240000Y-107611252D02*
X196240000Y-106188748D01*
X198060000Y-107611252D02*
X198060000Y-106188748D01*
%TO.C,FO1*%
X176941741Y-109835170D02*
X176941741Y-109235170D01*
X177641741Y-108535170D02*
X179041741Y-108535170D01*
X179041741Y-110535170D02*
X177641741Y-110535170D01*
X179741741Y-109235170D02*
X179741741Y-109835170D01*
X176941741Y-109235170D02*
G75*
G02*
X177641741Y-108535170I699999J1D01*
G01*
X177641741Y-110535170D02*
G75*
G02*
X176941741Y-109835170I-1J699999D01*
G01*
X179041741Y-108535170D02*
G75*
G02*
X179741741Y-109235170I0J-700000D01*
G01*
X179741741Y-109835170D02*
G75*
G02*
X179041741Y-110535170I-700000J0D01*
G01*
%TO.C,R70*%
X178416739Y-129648651D02*
X178416739Y-129341369D01*
X179176739Y-129648651D02*
X179176739Y-129341369D01*
%TO.C,C28*%
X171216528Y-127009674D02*
X171216528Y-126487170D01*
X172686528Y-127009674D02*
X172686528Y-126487170D01*
%TO.C,C34*%
X175131931Y-127009176D02*
X175131931Y-126486672D01*
X176601931Y-127009176D02*
X176601931Y-126486672D01*
%TO.C,R39*%
X203786633Y-113987448D02*
X203312117Y-113987448D01*
X203786633Y-115032448D02*
X203312117Y-115032448D01*
%TO.C,PSGPD3*%
X210175000Y-128625000D02*
X210175000Y-128025000D01*
X210875000Y-127325000D02*
X212275000Y-127325000D01*
X212275000Y-129325000D02*
X210875000Y-129325000D01*
X212975000Y-128025000D02*
X212975000Y-128625000D01*
X210175000Y-128025000D02*
G75*
G02*
X210875000Y-127325000I700000J0D01*
G01*
X210875000Y-129325000D02*
G75*
G02*
X210175000Y-128625000I0J700000D01*
G01*
X212275000Y-127325000D02*
G75*
G02*
X212975000Y-128025000I1J-699999D01*
G01*
X212975000Y-128625000D02*
G75*
G02*
X212275000Y-129325000I-699999J-1D01*
G01*
%TO.C,C48*%
X191503709Y-97980978D02*
X191503709Y-101000978D01*
X191503709Y-101000978D02*
X195713709Y-101000978D01*
X195713709Y-97980978D02*
X191503709Y-97980978D01*
%TO.C,R55*%
X196903641Y-109670000D02*
X196596359Y-109670000D01*
X196903641Y-110430000D02*
X196596359Y-110430000D01*
%TO.C,32XPD2*%
X210225000Y-124725000D02*
X210225000Y-124125000D01*
X210925000Y-123425000D02*
X212325000Y-123425000D01*
X212325000Y-125425000D02*
X210925000Y-125425000D01*
X213025000Y-124125000D02*
X213025000Y-124725000D01*
X210225000Y-124125000D02*
G75*
G02*
X210925000Y-123425000I700000J0D01*
G01*
X210925000Y-125425000D02*
G75*
G02*
X210225000Y-124725000I0J700000D01*
G01*
X212325000Y-123425000D02*
G75*
G02*
X213025000Y-124125000I1J-699999D01*
G01*
X213025000Y-124725000D02*
G75*
G02*
X212325000Y-125425000I-699999J-1D01*
G01*
%TO.C,R28*%
X205300250Y-127616528D02*
X204992968Y-127616528D01*
X205300250Y-128376528D02*
X204992968Y-128376528D01*
%TO.C,R73*%
X176571844Y-130164777D02*
X176571844Y-129690261D01*
X177616844Y-130164777D02*
X177616844Y-129690261D01*
%TO.C,C14*%
X189786020Y-119041837D02*
X189786020Y-118519333D01*
X191256020Y-119041837D02*
X191256020Y-118519333D01*
%TO.C,C52*%
X187066304Y-110743272D02*
X186543800Y-110743272D01*
X187066304Y-112213272D02*
X186543800Y-112213272D01*
%TO.C,U6*%
X190497100Y-101295440D02*
X188547100Y-101295440D01*
X190497100Y-101295440D02*
X192447100Y-101295440D01*
X190497100Y-106415440D02*
X188547100Y-106415440D01*
X190497100Y-106415440D02*
X192447100Y-106415440D01*
X193437100Y-106650440D02*
X192957100Y-106650440D01*
X193197100Y-106320440D01*
X193437100Y-106650440D01*
G36*
X193437100Y-106650440D02*
G01*
X192957100Y-106650440D01*
X193197100Y-106320440D01*
X193437100Y-106650440D01*
G37*
%TO.C,L1*%
X181531509Y-111067542D02*
X181531509Y-110268298D01*
X182651509Y-111067542D02*
X182651509Y-110268298D01*
%TO.C,R65*%
X215773744Y-116452931D02*
X215773744Y-116145649D01*
X216533744Y-116452931D02*
X216533744Y-116145649D01*
%TO.C,R49*%
X196596359Y-110670000D02*
X196903641Y-110670000D01*
X196596359Y-111430000D02*
X196903641Y-111430000D01*
%TO.C,C50*%
X178337965Y-107435104D02*
X178337965Y-107219432D01*
X179057965Y-107435104D02*
X179057965Y-107219432D01*
%TO.C,C12*%
X190703590Y-121182006D02*
X190487918Y-121182006D01*
X190703590Y-121902006D02*
X190487918Y-121902006D01*
%TO.C,C27*%
X207277328Y-113389255D02*
X207277328Y-112866751D01*
X208747328Y-113389255D02*
X208747328Y-112866751D01*
%TO.C,C39*%
X187734375Y-113053512D02*
X188256879Y-113053512D01*
X187734375Y-114523512D02*
X188256879Y-114523512D01*
%TO.C,R45*%
X174977337Y-108520888D02*
X175451853Y-108520888D01*
X174977337Y-109565888D02*
X175451853Y-109565888D01*
%TO.C,R29*%
X204838466Y-129740900D02*
X204838466Y-130215416D01*
X205883466Y-129740900D02*
X205883466Y-130215416D01*
%TO.C,C43*%
X192940848Y-107305183D02*
X194363352Y-107305183D01*
X192940848Y-109125183D02*
X194363352Y-109125183D01*
%TO.C,C24*%
X209299721Y-116047640D02*
X209299721Y-115525136D01*
X210769721Y-116047640D02*
X210769721Y-115525136D01*
%TO.C,R75*%
X198010526Y-96160214D02*
X197536010Y-96160214D01*
X198010526Y-97205214D02*
X197536010Y-97205214D01*
%TO.C,C55*%
X190805768Y-133041307D02*
X190283264Y-133041307D01*
X190805768Y-134511307D02*
X190283264Y-134511307D01*
%TO.C,C13*%
X194242707Y-131670236D02*
X194242707Y-131454564D01*
X194962707Y-131670236D02*
X194962707Y-131454564D01*
%TO.C,C45*%
X194205464Y-101290000D02*
X194205464Y-104310000D01*
X194205464Y-104310000D02*
X198415464Y-104310000D01*
X198415464Y-101290000D02*
X194205464Y-101290000D01*
%TO.C,R8*%
X193180167Y-131257483D02*
X193180167Y-131564765D01*
X193940167Y-131257483D02*
X193940167Y-131564765D01*
%TO.C,R4*%
X190764341Y-122238176D02*
X190457059Y-122238176D01*
X190764341Y-122998176D02*
X190457059Y-122998176D01*
%TO.C,HPL_RES1*%
X211842537Y-111275000D02*
X211842537Y-111875000D01*
X212142537Y-111575000D02*
X211842537Y-111275000D01*
X212142537Y-111575000D02*
X211842537Y-111875000D01*
X212342537Y-114175000D02*
X212342537Y-111375000D01*
X213042537Y-110725000D02*
X213642537Y-110725000D01*
X213642537Y-114825000D02*
X213042537Y-114825000D01*
X214342537Y-111375000D02*
X214342537Y-114175000D01*
X212342537Y-111425000D02*
G75*
G02*
X213042537Y-110725000I699999J1D01*
G01*
X213042537Y-114825000D02*
G75*
G02*
X212342537Y-114125000I0J700000D01*
G01*
X213642537Y-110725000D02*
G75*
G02*
X214342537Y-111425000I1J-699999D01*
G01*
X214342537Y-114125000D02*
G75*
G02*
X213642537Y-114825000I-700000J0D01*
G01*
%TO.C,C19*%
X208061252Y-124065000D02*
X207538748Y-124065000D01*
X208061252Y-125535000D02*
X207538748Y-125535000D01*
%TO.C,R33*%
X214554089Y-129411009D02*
X215028605Y-129411009D01*
X214554089Y-130456009D02*
X215028605Y-130456009D01*
%TO.C,C53*%
X187053737Y-108782739D02*
X186531233Y-108782739D01*
X187053737Y-110252739D02*
X186531233Y-110252739D01*
%TO.C,FMR_1*%
X209984703Y-122183429D02*
X209984703Y-119383429D01*
X210684703Y-118733429D02*
X211284703Y-118733429D01*
X211284703Y-122833429D02*
X210684703Y-122833429D01*
X211984703Y-119383429D02*
X211984703Y-122183429D01*
X212184703Y-121983429D02*
X212484703Y-121683429D01*
X212184703Y-121983429D02*
X212484703Y-122283429D01*
X212484703Y-122283429D02*
X212484703Y-121683429D01*
X209984703Y-119433429D02*
G75*
G02*
X210684703Y-118733429I700000J0D01*
G01*
X210684703Y-122833429D02*
G75*
G02*
X209984703Y-122133429I-1J699999D01*
G01*
X211284703Y-118733429D02*
G75*
G02*
X211984703Y-119433429I0J-700000D01*
G01*
X211984703Y-122133429D02*
G75*
G02*
X211284703Y-122833429I-699999J-1D01*
G01*
%TO.C,C29*%
X173170907Y-127017051D02*
X173170907Y-126494547D01*
X174640907Y-127017051D02*
X174640907Y-126494547D01*
%TO.C,C21*%
X208061252Y-128015000D02*
X207538748Y-128015000D01*
X208061252Y-129485000D02*
X207538748Y-129485000D01*
%TO.C,FMR_2*%
X206434703Y-122183429D02*
X206434703Y-119383429D01*
X207134703Y-118733429D02*
X207734703Y-118733429D01*
X207734703Y-122833429D02*
X207134703Y-122833429D01*
X208434703Y-119383429D02*
X208434703Y-122183429D01*
X208634703Y-121983429D02*
X208934703Y-121683429D01*
X208634703Y-121983429D02*
X208934703Y-122283429D01*
X208934703Y-122283429D02*
X208934703Y-121683429D01*
X206434703Y-119433429D02*
G75*
G02*
X207134703Y-118733429I700000J0D01*
G01*
X207134703Y-122833429D02*
G75*
G02*
X206434703Y-122133429I-1J699999D01*
G01*
X207734703Y-118733429D02*
G75*
G02*
X208434703Y-119433429I0J-700000D01*
G01*
X208434703Y-122133429D02*
G75*
G02*
X207734703Y-122833429I-699999J-1D01*
G01*
%TO.C,C22*%
X208061252Y-129990000D02*
X207538748Y-129990000D01*
X208061252Y-131460000D02*
X207538748Y-131460000D01*
%TO.C,C42*%
X194228830Y-109659305D02*
X192806326Y-109659305D01*
X194228830Y-111479305D02*
X192806326Y-111479305D01*
%TO.C,C1*%
X170511360Y-101594738D02*
X170511360Y-101810410D01*
X171231360Y-101594738D02*
X171231360Y-101810410D01*
%TO.C,R47*%
X200493493Y-115113804D02*
X200800775Y-115113804D01*
X200493493Y-115873804D02*
X200800775Y-115873804D01*
%TO.C,C20*%
X208061252Y-126040000D02*
X207538748Y-126040000D01*
X208061252Y-127510000D02*
X207538748Y-127510000D01*
%TO.C,32XPD1*%
X210175000Y-132500000D02*
X210175000Y-131900000D01*
X210875000Y-131200000D02*
X212275000Y-131200000D01*
X212275000Y-133200000D02*
X210875000Y-133200000D01*
X212975000Y-131900000D02*
X212975000Y-132500000D01*
X210175000Y-131900000D02*
G75*
G02*
X210875000Y-131200000I700000J0D01*
G01*
X210875000Y-133200000D02*
G75*
G02*
X210175000Y-132500000I0J700000D01*
G01*
X212275000Y-131200000D02*
G75*
G02*
X212975000Y-131900000I1J-699999D01*
G01*
X212975000Y-132500000D02*
G75*
G02*
X212275000Y-133200000I-699999J-1D01*
G01*
%TO.C,C35*%
X200520614Y-116090400D02*
X200736286Y-116090400D01*
X200520614Y-116810400D02*
X200736286Y-116810400D01*
%TO.C,Z1*%
X170090000Y-137480000D02*
X171100000Y-137480000D01*
X170090000Y-141140000D02*
X170090000Y-137480000D01*
X171110000Y-137680000D02*
X171110000Y-137480000D01*
X171110000Y-137680000D02*
X171300000Y-137680000D01*
X171300000Y-137680000D02*
X171300000Y-136980000D01*
X171400000Y-142890000D02*
X173300000Y-142890000D01*
X175700000Y-142890000D02*
X174700000Y-142890000D01*
X177100000Y-142890000D02*
X182300000Y-142890000D01*
X183700000Y-142890000D02*
X184700000Y-142890000D01*
X186100000Y-142890000D02*
X188000000Y-142890000D01*
X188290000Y-137480000D02*
X188290000Y-137680000D01*
X188290000Y-137680000D02*
X188100000Y-137680000D01*
X188300000Y-137480000D02*
X189310000Y-137480000D01*
X189310000Y-137480000D02*
X189310000Y-141140000D01*
%TO.C,C3*%
X197095000Y-135541252D02*
X197095000Y-135018748D01*
X198565000Y-135541252D02*
X198565000Y-135018748D01*
%TO.C,R5*%
X193199139Y-132499588D02*
X193506421Y-132499588D01*
X193199139Y-133259588D02*
X193506421Y-133259588D01*
%TO.C,R59*%
X176173855Y-107203426D02*
X176173855Y-107510708D01*
X176933855Y-107203426D02*
X176933855Y-107510708D01*
%TO.C,D2*%
X179649504Y-104965228D02*
X176989504Y-104965228D01*
X179649504Y-106665228D02*
X176989504Y-106665228D01*
X179649504Y-106665228D02*
X179649504Y-104965228D01*
%TO.C,R60*%
X218026679Y-123530576D02*
X218026679Y-123837858D01*
X218786679Y-123530576D02*
X218786679Y-123837858D01*
%TO.C,C33*%
X180541739Y-126433266D02*
X180541739Y-126955770D01*
X182011739Y-126433266D02*
X182011739Y-126955770D01*
%TO.C,R34*%
X214490632Y-127907995D02*
X214965148Y-127907995D01*
X214490632Y-128952995D02*
X214965148Y-128952995D01*
%TO.C,R54*%
X189914601Y-113192432D02*
X189914601Y-112885150D01*
X190674601Y-113192432D02*
X190674601Y-112885150D01*
%TO.C,HPR_RES2*%
X216375000Y-115885000D02*
X216375000Y-116485000D01*
X216675000Y-116185000D02*
X216375000Y-115885000D01*
X216675000Y-116185000D02*
X216375000Y-116485000D01*
X216875000Y-118785000D02*
X216875000Y-115985000D01*
X217575000Y-115335000D02*
X218175000Y-115335000D01*
X218175000Y-119435000D02*
X217575000Y-119435000D01*
X218875000Y-115985000D02*
X218875000Y-118785000D01*
X216875000Y-116035000D02*
G75*
G02*
X217575000Y-115335000I699999J1D01*
G01*
X217575000Y-119435000D02*
G75*
G02*
X216875000Y-118735000I0J700000D01*
G01*
X218175000Y-115335000D02*
G75*
G02*
X218875000Y-116035000I1J-699999D01*
G01*
X218875000Y-118735000D02*
G75*
G02*
X218175000Y-119435000I-700000J0D01*
G01*
%TO.C,R62*%
X215765000Y-113948641D02*
X215765000Y-113641359D01*
X216525000Y-113948641D02*
X216525000Y-113641359D01*
%TO.C,C30*%
X196430990Y-130916364D02*
X196953494Y-130916364D01*
X196430990Y-132386364D02*
X196953494Y-132386364D01*
%TO.C,R76*%
X197984710Y-97312044D02*
X197510194Y-97312044D01*
X197984710Y-98357044D02*
X197510194Y-98357044D01*
%TO.C,C25*%
X204525835Y-116744548D02*
X205048339Y-116744548D01*
X204525835Y-118214548D02*
X205048339Y-118214548D01*
%TO.C,R69*%
X170729548Y-130276919D02*
X170729548Y-129802403D01*
X171774548Y-130276919D02*
X171774548Y-129802403D01*
%TO.C,R52*%
X190934721Y-113153256D02*
X190934721Y-112845974D01*
X191694721Y-113153256D02*
X191694721Y-112845974D01*
%TO.C,R71*%
X173251730Y-130173719D02*
X173251730Y-129699203D01*
X174296730Y-130173719D02*
X174296730Y-129699203D01*
%TO.C,R38*%
X174239208Y-131849646D02*
X173764692Y-131849646D01*
X174239208Y-132894646D02*
X173764692Y-132894646D01*
%TO.C,R24*%
X202195000Y-120336359D02*
X202195000Y-120643641D01*
X202955000Y-120336359D02*
X202955000Y-120643641D01*
%TO.C,C9*%
X187234261Y-116019608D02*
X187449933Y-116019608D01*
X187234261Y-116739608D02*
X187449933Y-116739608D01*
%TO.C,C38*%
X182519325Y-126958267D02*
X182519325Y-126435763D01*
X183989325Y-126958267D02*
X183989325Y-126435763D01*
%TO.C,R53*%
X200589232Y-114137131D02*
X200281950Y-114137131D01*
X200589232Y-114897131D02*
X200281950Y-114897131D01*
D16*
%TO.C,CN1*%
X171309000Y-91725000D02*
X171309000Y-104425000D01*
X171309000Y-91725000D02*
X186549000Y-91725000D01*
X171309000Y-104425000D02*
X186549000Y-104425000D01*
X186549000Y-104425000D02*
X186549000Y-91725000D01*
D15*
%TO.C,U2*%
X187314798Y-130612632D02*
X187314798Y-129812632D01*
X187314798Y-130612632D02*
X187314798Y-131412632D01*
X190434798Y-130612632D02*
X190434798Y-129812632D01*
X190434798Y-130612632D02*
X190434798Y-131412632D01*
X187364798Y-131912632D02*
X187034798Y-132152632D01*
X187034798Y-131672632D01*
X187364798Y-131912632D01*
G36*
X187364798Y-131912632D02*
G01*
X187034798Y-132152632D01*
X187034798Y-131672632D01*
X187364798Y-131912632D01*
G37*
%TO.C,R64*%
X215770000Y-118538641D02*
X215770000Y-118231359D01*
X216530000Y-118538641D02*
X216530000Y-118231359D01*
%TO.C,PSGPD1*%
X210200000Y-126675000D02*
X210200000Y-126075000D01*
X210900000Y-125375000D02*
X212300000Y-125375000D01*
X212300000Y-127375000D02*
X210900000Y-127375000D01*
X213000000Y-126075000D02*
X213000000Y-126675000D01*
X210200000Y-126075000D02*
G75*
G02*
X210900000Y-125375000I700000J0D01*
G01*
X210900000Y-127375000D02*
G75*
G02*
X210200000Y-126675000I0J700000D01*
G01*
X212300000Y-125375000D02*
G75*
G02*
X213000000Y-126075000I1J-699999D01*
G01*
X213000000Y-126675000D02*
G75*
G02*
X212300000Y-127375000I-699999J-1D01*
G01*
%TO.C,R72*%
X187495594Y-114904875D02*
X187188312Y-114904875D01*
X187495594Y-115664875D02*
X187188312Y-115664875D01*
%TO.C,R42*%
X203410673Y-111430155D02*
X202936157Y-111430155D01*
X203410673Y-112475155D02*
X202936157Y-112475155D01*
%TO.C,C41*%
X188265000Y-95675000D02*
X188265000Y-99885000D01*
X188265000Y-99885000D02*
X191285000Y-99885000D01*
X191285000Y-99885000D02*
X191285000Y-95675000D01*
%TO.C,FML_2*%
X203350000Y-123025000D02*
X203350000Y-120225000D01*
X204050000Y-119575000D02*
X204650000Y-119575000D01*
X204650000Y-123675000D02*
X204050000Y-123675000D01*
X205350000Y-120225000D02*
X205350000Y-123025000D01*
X205550000Y-122825000D02*
X205850000Y-122525000D01*
X205550000Y-122825000D02*
X205850000Y-123125000D01*
X205850000Y-123125000D02*
X205850000Y-122525000D01*
X203350000Y-120275000D02*
G75*
G02*
X204050000Y-119575000I700000J0D01*
G01*
X204050000Y-123675000D02*
G75*
G02*
X203350000Y-122975000I-1J699999D01*
G01*
X204650000Y-119575000D02*
G75*
G02*
X205350000Y-120275000I0J-700000D01*
G01*
X205350000Y-122975000D02*
G75*
G02*
X204650000Y-123675000I-699999J-1D01*
G01*
%TD*%
M02*
