%TF.GenerationSoftware,KiCad,Pcbnew,9.0.0*%
%TF.CreationDate,2025-11-21T22:21:23-08:00*%
%TF.ProjectId,MegaAV_CE_VA0,4d656761-4156-45f4-9345-5f5641302e6b,rev?*%
%TF.SameCoordinates,Original*%
%TF.FileFunction,Soldermask,Top*%
%TF.FilePolarity,Negative*%
%FSLAX46Y46*%
G04 Gerber Fmt 4.6, Leading zero omitted, Abs format (unit mm)*
G04 Created by KiCad (PCBNEW 9.0.0) date 2025-11-21 22:21:23*
%MOMM*%
%LPD*%
G01*
G04 APERTURE LIST*
G04 Aperture macros list*
%AMRoundRect*
0 Rectangle with rounded corners*
0 $1 Rounding radius*
0 $2 $3 $4 $5 $6 $7 $8 $9 X,Y pos of 4 corners*
0 Add a 4 corners polygon primitive as box body*
4,1,4,$2,$3,$4,$5,$6,$7,$8,$9,$2,$3,0*
0 Add four circle primitives for the rounded corners*
1,1,$1+$1,$2,$3*
1,1,$1+$1,$4,$5*
1,1,$1+$1,$6,$7*
1,1,$1+$1,$8,$9*
0 Add four rect primitives between the rounded corners*
20,1,$1+$1,$2,$3,$4,$5,0*
20,1,$1+$1,$4,$5,$6,$7,0*
20,1,$1+$1,$6,$7,$8,$9,0*
20,1,$1+$1,$8,$9,$2,$3,0*%
%AMFreePoly0*
4,1,23,0.500000,-0.750000,0.000000,-0.750000,0.000000,-0.745722,-0.065263,-0.745722,-0.191342,-0.711940,-0.304381,-0.646677,-0.396677,-0.554381,-0.461940,-0.441342,-0.495722,-0.315263,-0.495722,-0.250000,-0.500000,-0.250000,-0.500000,0.250000,-0.495722,0.250000,-0.495722,0.315263,-0.461940,0.441342,-0.396677,0.554381,-0.304381,0.646677,-0.191342,0.711940,-0.065263,0.745722,0.000000,0.745722,
0.000000,0.750000,0.500000,0.750000,0.500000,-0.750000,0.500000,-0.750000,$1*%
%AMFreePoly1*
4,1,23,0.000000,0.745722,0.065263,0.745722,0.191342,0.711940,0.304381,0.646677,0.396677,0.554381,0.461940,0.441342,0.495722,0.315263,0.495722,0.250000,0.500000,0.250000,0.500000,-0.250000,0.495722,-0.250000,0.495722,-0.315263,0.461940,-0.441342,0.396677,-0.554381,0.304381,-0.646677,0.191342,-0.711940,0.065263,-0.745722,0.000000,-0.745722,0.000000,-0.750000,-0.500000,-0.750000,
-0.500000,0.750000,0.000000,0.750000,0.000000,0.745722,0.000000,0.745722,$1*%
%AMFreePoly2*
4,1,23,0.550000,-0.750000,0.000000,-0.750000,0.000000,-0.745722,-0.065263,-0.745722,-0.191342,-0.711940,-0.304381,-0.646677,-0.396677,-0.554381,-0.461940,-0.441342,-0.495722,-0.315263,-0.495722,-0.250000,-0.500000,-0.250000,-0.500000,0.250000,-0.495722,0.250000,-0.495722,0.315263,-0.461940,0.441342,-0.396677,0.554381,-0.304381,0.646677,-0.191342,0.711940,-0.065263,0.745722,0.000000,0.745722,
0.000000,0.750000,0.550000,0.750000,0.550000,-0.750000,0.550000,-0.750000,$1*%
%AMFreePoly3*
4,1,23,0.000000,0.745722,0.065263,0.745722,0.191342,0.711940,0.304381,0.646677,0.396677,0.554381,0.461940,0.441342,0.495722,0.315263,0.495722,0.250000,0.500000,0.250000,0.500000,-0.250000,0.495722,-0.250000,0.495722,-0.315263,0.461940,-0.441342,0.396677,-0.554381,0.304381,-0.646677,0.191342,-0.711940,0.065263,-0.745722,0.000000,-0.745722,0.000000,-0.750000,-0.550000,-0.750000,
-0.550000,0.750000,0.000000,0.750000,0.000000,0.745722,0.000000,0.745722,$1*%
G04 Aperture macros list end*
%ADD10RoundRect,0.250000X-0.750000X0.250000X-0.750000X-0.250000X0.750000X-0.250000X0.750000X0.250000X0*%
%ADD11FreePoly0,180.000000*%
%ADD12FreePoly1,180.000000*%
%ADD13RoundRect,0.250000X0.250000X0.750000X-0.250000X0.750000X-0.250000X-0.750000X0.250000X-0.750000X0*%
%ADD14RoundRect,0.135000X0.185000X-0.135000X0.185000X0.135000X-0.185000X0.135000X-0.185000X-0.135000X0*%
%ADD15RoundRect,0.250000X-0.250000X-0.475000X0.250000X-0.475000X0.250000X0.475000X-0.250000X0.475000X0*%
%ADD16RoundRect,0.135000X0.135000X0.185000X-0.135000X0.185000X-0.135000X-0.185000X0.135000X-0.185000X0*%
%ADD17RoundRect,0.250000X0.925000X-0.412500X0.925000X0.412500X-0.925000X0.412500X-0.925000X-0.412500X0*%
%ADD18RoundRect,0.135000X-0.135000X-0.185000X0.135000X-0.185000X0.135000X0.185000X-0.135000X0.185000X0*%
%ADD19RoundRect,0.150000X0.825000X0.150000X-0.825000X0.150000X-0.825000X-0.150000X0.825000X-0.150000X0*%
%ADD20RoundRect,0.250000X-0.250000X-0.750000X0.250000X-0.750000X0.250000X0.750000X-0.250000X0.750000X0*%
%ADD21RoundRect,0.140000X0.170000X-0.140000X0.170000X0.140000X-0.170000X0.140000X-0.170000X-0.140000X0*%
%ADD22RoundRect,0.250000X0.475000X-0.250000X0.475000X0.250000X-0.475000X0.250000X-0.475000X-0.250000X0*%
%ADD23RoundRect,0.200000X0.200000X0.275000X-0.200000X0.275000X-0.200000X-0.275000X0.200000X-0.275000X0*%
%ADD24RoundRect,0.250000X0.750000X-0.250000X0.750000X0.250000X-0.750000X0.250000X-0.750000X-0.250000X0*%
%ADD25FreePoly2,270.000000*%
%ADD26R,1.500000X1.000000*%
%ADD27FreePoly3,270.000000*%
%ADD28RoundRect,0.135000X-0.185000X0.135000X-0.185000X-0.135000X0.185000X-0.135000X0.185000X0.135000X0*%
%ADD29RoundRect,0.140000X-0.140000X-0.170000X0.140000X-0.170000X0.140000X0.170000X-0.140000X0.170000X0*%
%ADD30FreePoly2,90.000000*%
%ADD31FreePoly3,90.000000*%
%ADD32RoundRect,0.250000X-0.475000X0.250000X-0.475000X-0.250000X0.475000X-0.250000X0.475000X0.250000X0*%
%ADD33RoundRect,0.250000X-0.412500X-0.925000X0.412500X-0.925000X0.412500X0.925000X-0.412500X0.925000X0*%
%ADD34RoundRect,0.200000X-0.200000X-0.275000X0.200000X-0.275000X0.200000X0.275000X-0.200000X0.275000X0*%
%ADD35RoundRect,0.200000X0.275000X-0.200000X0.275000X0.200000X-0.275000X0.200000X-0.275000X-0.200000X0*%
%ADD36RoundRect,0.150000X-0.825000X-0.150000X0.825000X-0.150000X0.825000X0.150000X-0.825000X0.150000X0*%
%ADD37FreePoly0,270.000000*%
%ADD38FreePoly1,270.000000*%
%ADD39RoundRect,0.140000X-0.170000X0.140000X-0.170000X-0.140000X0.170000X-0.140000X0.170000X0.140000X0*%
%ADD40RoundRect,0.137500X0.137500X-1.187500X0.137500X1.187500X-0.137500X1.187500X-0.137500X-1.187500X0*%
%ADD41RoundRect,0.250000X0.650000X-0.325000X0.650000X0.325000X-0.650000X0.325000X-0.650000X-0.325000X0*%
%ADD42FreePoly0,0.000000*%
%ADD43FreePoly1,0.000000*%
%ADD44RoundRect,0.250000X0.250000X0.475000X-0.250000X0.475000X-0.250000X-0.475000X0.250000X-0.475000X0*%
%ADD45RoundRect,0.150000X0.725000X0.150000X-0.725000X0.150000X-0.725000X-0.150000X0.725000X-0.150000X0*%
%ADD46RoundRect,0.218750X0.381250X-0.218750X0.381250X0.218750X-0.381250X0.218750X-0.381250X-0.218750X0*%
%ADD47RoundRect,0.140000X0.140000X0.170000X-0.140000X0.170000X-0.140000X-0.170000X0.140000X-0.170000X0*%
%ADD48RoundRect,0.200000X-0.275000X0.200000X-0.275000X-0.200000X0.275000X-0.200000X0.275000X0.200000X0*%
%ADD49RoundRect,0.250000X-0.325000X-0.650000X0.325000X-0.650000X0.325000X0.650000X-0.325000X0.650000X0*%
%ADD50RoundRect,0.250000X0.325000X0.650000X-0.325000X0.650000X-0.325000X-0.650000X0.325000X-0.650000X0*%
%ADD51R,0.300000X0.800000*%
%ADD52R,1.220000X1.400000*%
%ADD53R,0.850000X1.400000*%
%ADD54RoundRect,0.112500X0.187500X0.112500X-0.187500X0.112500X-0.187500X-0.112500X0.187500X-0.112500X0*%
%ADD55C,1.711200*%
%ADD56O,3.759200X5.029200*%
%ADD57C,3.759200*%
%ADD58RoundRect,0.150000X0.150000X-0.512500X0.150000X0.512500X-0.150000X0.512500X-0.150000X-0.512500X0*%
G04 APERTURE END LIST*
%TO.C,PSGPD2*%
G36*
X211725000Y-131000000D02*
G01*
X211425000Y-131000000D01*
X211425000Y-129500000D01*
X211725000Y-129500000D01*
X211725000Y-131000000D01*
G37*
%TO.C,HPL_RES2*%
G36*
X218625000Y-112000000D02*
G01*
X217125000Y-112000000D01*
X217125000Y-113500000D01*
X218625000Y-113500000D01*
X218625000Y-112000000D01*
G37*
%TO.C,MD1_PU1*%
G36*
X188123511Y-122303791D02*
G01*
X187823511Y-122303791D01*
X187823511Y-120803791D01*
X188123511Y-120803791D01*
X188123511Y-122303791D01*
G37*
%TO.C,FML_1*%
G36*
X200025000Y-122325000D02*
G01*
X201525000Y-122325000D01*
X201525000Y-120825000D01*
X200025000Y-120825000D01*
X200025000Y-122325000D01*
G37*
%TO.C,HPR_RES1*%
G36*
X214241794Y-116660000D02*
G01*
X212741794Y-116660000D01*
X212741794Y-118160000D01*
X214241794Y-118160000D01*
X214241794Y-116660000D01*
G37*
%TO.C,PSGPD4*%
G36*
X201420000Y-132160000D02*
G01*
X199920000Y-132160000D01*
X199920000Y-132460000D01*
X201420000Y-132460000D01*
X201420000Y-132160000D01*
G37*
%TO.C,FO1*%
G36*
X178191741Y-108785170D02*
G01*
X178491741Y-108785170D01*
X178491741Y-110285170D01*
X178191741Y-110285170D01*
X178191741Y-108785170D01*
G37*
%TO.C,PSGPD3*%
G36*
X211725000Y-129075000D02*
G01*
X211425000Y-129075000D01*
X211425000Y-127575000D01*
X211725000Y-127575000D01*
X211725000Y-129075000D01*
G37*
%TO.C,32XPD2*%
G36*
X211775000Y-125175000D02*
G01*
X211475000Y-125175000D01*
X211475000Y-123675000D01*
X211775000Y-123675000D01*
X211775000Y-125175000D01*
G37*
%TO.C,HPL_RES1*%
G36*
X214092537Y-112025000D02*
G01*
X212592537Y-112025000D01*
X212592537Y-113525000D01*
X214092537Y-113525000D01*
X214092537Y-112025000D01*
G37*
%TO.C,FMR_1*%
G36*
X210234703Y-121533429D02*
G01*
X211734703Y-121533429D01*
X211734703Y-120033429D01*
X210234703Y-120033429D01*
X210234703Y-121533429D01*
G37*
%TO.C,FMR_2*%
G36*
X206684703Y-121533429D02*
G01*
X208184703Y-121533429D01*
X208184703Y-120033429D01*
X206684703Y-120033429D01*
X206684703Y-121533429D01*
G37*
%TO.C,32XPD1*%
G36*
X211725000Y-132950000D02*
G01*
X211425000Y-132950000D01*
X211425000Y-131450000D01*
X211725000Y-131450000D01*
X211725000Y-132950000D01*
G37*
%TO.C,HPR_RES2*%
G36*
X218625000Y-116635000D02*
G01*
X217125000Y-116635000D01*
X217125000Y-118135000D01*
X218625000Y-118135000D01*
X218625000Y-116635000D01*
G37*
%TO.C,PSGPD1*%
G36*
X211750000Y-127125000D02*
G01*
X211450000Y-127125000D01*
X211450000Y-125625000D01*
X211750000Y-125625000D01*
X211750000Y-127125000D01*
G37*
%TO.C,FML_2*%
G36*
X203600000Y-122375000D02*
G01*
X205100000Y-122375000D01*
X205100000Y-120875000D01*
X203600000Y-120875000D01*
X203600000Y-122375000D01*
G37*
%TD*%
D10*
%TO.C,REGION*%
X172111038Y-107153929D03*
%TD*%
D11*
%TO.C,PSGPD2*%
X212225000Y-130250000D03*
D12*
X210925000Y-130250000D03*
%TD*%
D13*
%TO.C,B_IN1*%
X176381601Y-134377860D03*
%TD*%
D14*
%TO.C,R21*%
X209209703Y-122678429D03*
X209209703Y-121658429D03*
%TD*%
D15*
%TO.C,C31*%
X187883741Y-107547908D03*
X189783741Y-107547908D03*
%TD*%
D16*
%TO.C,R40*%
X203310000Y-115800000D03*
X202290000Y-115800000D03*
%TD*%
D17*
%TO.C,C56*%
X188909878Y-127106734D03*
X188909878Y-124031734D03*
%TD*%
D13*
%TO.C,S_IN1*%
X184200229Y-133008778D03*
%TD*%
D14*
%TO.C,R66*%
X175901623Y-130078050D03*
X175901623Y-129058050D03*
%TD*%
D18*
%TO.C,R46*%
X198585000Y-110075000D03*
X199605000Y-110075000D03*
%TD*%
D19*
%TO.C,U7*%
X198054240Y-120558814D03*
X198054240Y-119288814D03*
X198054240Y-118018814D03*
X198054240Y-116748814D03*
X198054240Y-115478814D03*
X198054240Y-114208814D03*
X198054240Y-112938814D03*
X193104240Y-112938814D03*
X193104240Y-114208814D03*
X193104240Y-115478814D03*
X193104240Y-116748814D03*
X193104240Y-118018814D03*
X193104240Y-119288814D03*
X193104240Y-120558814D03*
%TD*%
D20*
%TO.C,G_IN1*%
X174451322Y-134396922D03*
%TD*%
D21*
%TO.C,C11*%
X191253416Y-127164810D03*
X191253416Y-126204810D03*
%TD*%
D20*
%TO.C,CD_L1*%
X200620000Y-142700000D03*
%TD*%
D14*
%TO.C,R57*%
X172567973Y-130039917D03*
X172567973Y-129019917D03*
%TD*%
D22*
%TO.C,C26*%
X206025684Y-115211229D03*
X206025684Y-113311229D03*
%TD*%
D23*
%TO.C,R26*%
X205448677Y-124897246D03*
X203798677Y-124897246D03*
%TD*%
D24*
%TO.C,SR3*%
X216650000Y-122125000D03*
%TD*%
D25*
%TO.C,HPL_RES2*%
X217875000Y-111450000D03*
D26*
X217875000Y-112750000D03*
D27*
X217875000Y-114050000D03*
%TD*%
D11*
%TO.C,MD1_PU1*%
X188623511Y-121553791D03*
D12*
X187323511Y-121553791D03*
%TD*%
D28*
%TO.C,R32*%
X203750000Y-128830000D03*
X203750000Y-129850000D03*
%TD*%
D29*
%TO.C,C36*%
X198645000Y-111025000D03*
X199605000Y-111025000D03*
%TD*%
D24*
%TO.C,CHROMA1*%
X197878207Y-99173916D03*
%TD*%
D30*
%TO.C,FML_1*%
X200775000Y-122875000D03*
D26*
X200775000Y-121575000D03*
D31*
X200775000Y-120275000D03*
%TD*%
D14*
%TO.C,R7*%
X191260887Y-124624727D03*
X191260887Y-123604727D03*
%TD*%
D32*
%TO.C,C32*%
X179084485Y-125711494D03*
X179084485Y-127611494D03*
%TD*%
D15*
%TO.C,C54*%
X186170339Y-133754337D03*
X188070339Y-133754337D03*
%TD*%
D16*
%TO.C,R27*%
X205610000Y-126925000D03*
X204590000Y-126925000D03*
%TD*%
D24*
%TO.C,FM_R1*%
X202540000Y-137660000D03*
%TD*%
D33*
%TO.C,C46*%
X182297752Y-106885737D03*
X185372752Y-106885737D03*
%TD*%
D34*
%TO.C,R56*%
X176138382Y-132371704D03*
X177788382Y-132371704D03*
%TD*%
D22*
%TO.C,C4*%
X195460000Y-135290000D03*
X195460000Y-133390000D03*
%TD*%
D24*
%TO.C,HPL_SL2*%
X216895710Y-125307108D03*
%TD*%
D35*
%TO.C,R15*%
X214084197Y-133110858D03*
X214084197Y-131460858D03*
%TD*%
D20*
%TO.C,HP_L1*%
X202675000Y-132875000D03*
%TD*%
D34*
%TO.C,R37*%
X170124253Y-132403464D03*
X171774253Y-132403464D03*
%TD*%
D16*
%TO.C,R36*%
X186821970Y-125539302D03*
X185801970Y-125539302D03*
%TD*%
D25*
%TO.C,HPR_RES1*%
X213491794Y-116110000D03*
D26*
X213491794Y-117410000D03*
D27*
X213491794Y-118710000D03*
%TD*%
D20*
%TO.C,HP_R1*%
X205325000Y-132865000D03*
%TD*%
D14*
%TO.C,R67*%
X184768353Y-126616345D03*
X184768353Y-125596345D03*
%TD*%
D15*
%TO.C,C37*%
X200373165Y-117916742D03*
X202273165Y-117916742D03*
%TD*%
D14*
%TO.C,R30*%
X213500000Y-126885000D03*
X213500000Y-125865000D03*
%TD*%
D33*
%TO.C,C47*%
X192426027Y-95954101D03*
X195501027Y-95954101D03*
%TD*%
D23*
%TO.C,R74*%
X176018534Y-110842019D03*
X174368534Y-110842019D03*
%TD*%
D16*
%TO.C,R41*%
X203235000Y-113200000D03*
X202215000Y-113200000D03*
%TD*%
D32*
%TO.C,C51*%
X183994859Y-109697002D03*
X183994859Y-111597002D03*
%TD*%
D16*
%TO.C,R48*%
X201366796Y-113209942D03*
X200346796Y-113209942D03*
%TD*%
D22*
%TO.C,C15*%
X201941390Y-126557723D03*
X201941390Y-124657723D03*
%TD*%
D14*
%TO.C,R68*%
X179861113Y-129976516D03*
X179861113Y-128956516D03*
%TD*%
D28*
%TO.C,R23*%
X202600000Y-122230000D03*
X202600000Y-123250000D03*
%TD*%
D20*
%TO.C,32X_L1*%
X196280000Y-142730000D03*
%TD*%
D36*
%TO.C,U3*%
X192951106Y-122128898D03*
X192951106Y-123398898D03*
X192951106Y-124668898D03*
X192951106Y-125938898D03*
X192951106Y-127208898D03*
X192951106Y-128478898D03*
X192951106Y-129748898D03*
X197901106Y-129748898D03*
X197901106Y-128478898D03*
X197901106Y-127208898D03*
X197901106Y-125938898D03*
X197901106Y-124668898D03*
X197901106Y-123398898D03*
X197901106Y-122128898D03*
%TD*%
D14*
%TO.C,R58*%
X174969760Y-130078050D03*
X174969760Y-129058050D03*
%TD*%
%TO.C,R31*%
X203700000Y-126970000D03*
X203700000Y-125950000D03*
%TD*%
D28*
%TO.C,R22*%
X209234703Y-119633429D03*
X209234703Y-120653429D03*
%TD*%
D24*
%TO.C,SL3*%
X216650000Y-120475000D03*
%TD*%
D10*
%TO.C,HPL_SL1*%
X216855293Y-126749678D03*
%TD*%
D14*
%TO.C,R79*%
X216141571Y-112296884D03*
X216141571Y-111276884D03*
%TD*%
%TO.C,R25*%
X198940000Y-132180000D03*
X198940000Y-131160000D03*
%TD*%
D20*
%TO.C,R_IN1*%
X172225448Y-134427317D03*
%TD*%
D23*
%TO.C,R35*%
X180588376Y-111500185D03*
X178938376Y-111500185D03*
%TD*%
D37*
%TO.C,PSGPD4*%
X200670000Y-131660000D03*
D38*
X200670000Y-132960000D03*
%TD*%
D28*
%TO.C,R61*%
X215403331Y-123213151D03*
X215403331Y-124233151D03*
%TD*%
D39*
%TO.C,C49*%
X177622946Y-106882708D03*
X177622946Y-107842708D03*
%TD*%
D40*
%TO.C,IC1*%
X171330163Y-122873265D03*
X172600163Y-122873265D03*
X173870163Y-122873265D03*
X175140163Y-122873265D03*
X176410163Y-122873265D03*
X177680163Y-122873265D03*
X178950163Y-122873265D03*
X180220163Y-122873265D03*
X181490163Y-122873265D03*
X182760163Y-122873265D03*
X184030163Y-122873265D03*
X185300163Y-122873265D03*
X185300163Y-114223265D03*
X184030163Y-114223265D03*
X182760163Y-114223265D03*
X181490163Y-114223265D03*
X180220163Y-114223265D03*
X178950163Y-114223265D03*
X177680163Y-114223265D03*
X176410163Y-114223265D03*
X175140163Y-114223265D03*
X173870163Y-114223265D03*
X172600163Y-114223265D03*
X171330163Y-114223265D03*
%TD*%
D35*
%TO.C,R17*%
X214017015Y-124794773D03*
X214017015Y-123144773D03*
%TD*%
D24*
%TO.C,HPR_SL2*%
X216620000Y-131380000D03*
%TD*%
D41*
%TO.C,C44*%
X197150000Y-108375000D03*
X197150000Y-105425000D03*
%TD*%
D42*
%TO.C,FO1*%
X177691741Y-109535170D03*
D43*
X178991741Y-109535170D03*
%TD*%
D14*
%TO.C,R70*%
X178796739Y-130005010D03*
X178796739Y-128985010D03*
%TD*%
D22*
%TO.C,C28*%
X171951528Y-127698422D03*
X171951528Y-125798422D03*
%TD*%
%TO.C,C34*%
X175866931Y-127697924D03*
X175866931Y-125797924D03*
%TD*%
D23*
%TO.C,R39*%
X204374375Y-114509948D03*
X202724375Y-114509948D03*
%TD*%
D20*
%TO.C,GND1*%
X193970000Y-142820000D03*
%TD*%
%TO.C,5V1*%
X191510000Y-142820000D03*
%TD*%
D11*
%TO.C,PSGPD3*%
X212225000Y-128325000D03*
D12*
X210925000Y-128325000D03*
%TD*%
D33*
%TO.C,C48*%
X192426209Y-99490978D03*
X195501209Y-99490978D03*
%TD*%
D16*
%TO.C,R55*%
X197260000Y-110050000D03*
X196240000Y-110050000D03*
%TD*%
D11*
%TO.C,32XPD2*%
X212275000Y-124425000D03*
D12*
X210975000Y-124425000D03*
%TD*%
D16*
%TO.C,R28*%
X205656609Y-127996528D03*
X204636609Y-127996528D03*
%TD*%
D35*
%TO.C,R73*%
X177094344Y-130752519D03*
X177094344Y-129102519D03*
%TD*%
D24*
%TO.C,LUMA1*%
X197847500Y-95420000D03*
%TD*%
D22*
%TO.C,C14*%
X190521020Y-119730585D03*
X190521020Y-117830585D03*
%TD*%
D44*
%TO.C,C52*%
X187755052Y-111478272D03*
X185855052Y-111478272D03*
%TD*%
D45*
%TO.C,U6*%
X193072100Y-105760440D03*
X193072100Y-104490440D03*
X193072100Y-103220440D03*
X193072100Y-101950440D03*
X187922100Y-101950440D03*
X187922100Y-103220440D03*
X187922100Y-104490440D03*
X187922100Y-105760440D03*
%TD*%
D46*
%TO.C,L1*%
X182091509Y-111730420D03*
X182091509Y-109605420D03*
%TD*%
D14*
%TO.C,R65*%
X216153744Y-116809290D03*
X216153744Y-115789290D03*
%TD*%
D18*
%TO.C,R49*%
X196240000Y-111050000D03*
X197260000Y-111050000D03*
%TD*%
D21*
%TO.C,C50*%
X178697965Y-107807268D03*
X178697965Y-106847268D03*
%TD*%
D47*
%TO.C,C12*%
X191075754Y-121542006D03*
X190115754Y-121542006D03*
%TD*%
D22*
%TO.C,C27*%
X208012328Y-114078003D03*
X208012328Y-112178003D03*
%TD*%
D15*
%TO.C,C39*%
X187045627Y-113788512D03*
X188945627Y-113788512D03*
%TD*%
D34*
%TO.C,R45*%
X174389595Y-109043388D03*
X176039595Y-109043388D03*
%TD*%
D48*
%TO.C,R29*%
X205360966Y-129153158D03*
X205360966Y-130803158D03*
%TD*%
D49*
%TO.C,C43*%
X192177100Y-108215183D03*
X195127100Y-108215183D03*
%TD*%
D22*
%TO.C,C24*%
X210034721Y-116736388D03*
X210034721Y-114836388D03*
%TD*%
D23*
%TO.C,R75*%
X198598268Y-96682714D03*
X196948268Y-96682714D03*
%TD*%
D20*
%TO.C,CD_R1*%
X202790000Y-142700000D03*
%TD*%
D44*
%TO.C,C55*%
X191494516Y-133776307D03*
X189594516Y-133776307D03*
%TD*%
D21*
%TO.C,C13*%
X194602707Y-132042400D03*
X194602707Y-131082400D03*
%TD*%
D33*
%TO.C,C45*%
X195127964Y-102800000D03*
X198202964Y-102800000D03*
%TD*%
D28*
%TO.C,R8*%
X193560167Y-130901124D03*
X193560167Y-131921124D03*
%TD*%
D16*
%TO.C,R4*%
X191120700Y-122618176D03*
X190100700Y-122618176D03*
%TD*%
D25*
%TO.C,HPL_RES1*%
X213342537Y-111475000D03*
D26*
X213342537Y-112775000D03*
D27*
X213342537Y-114075000D03*
%TD*%
D44*
%TO.C,C19*%
X208750000Y-124800000D03*
X206850000Y-124800000D03*
%TD*%
D34*
%TO.C,R33*%
X213966347Y-129933509D03*
X215616347Y-129933509D03*
%TD*%
D44*
%TO.C,C53*%
X187742485Y-109517739D03*
X185842485Y-109517739D03*
%TD*%
D30*
%TO.C,FMR_1*%
X210984703Y-122083429D03*
D26*
X210984703Y-120783429D03*
D31*
X210984703Y-119483429D03*
%TD*%
D22*
%TO.C,C29*%
X173905907Y-127705799D03*
X173905907Y-125805799D03*
%TD*%
D44*
%TO.C,C21*%
X208750000Y-128750000D03*
X206850000Y-128750000D03*
%TD*%
D24*
%TO.C,HPR_SL1*%
X216620000Y-132660000D03*
%TD*%
D30*
%TO.C,FMR_2*%
X207434703Y-122083429D03*
D26*
X207434703Y-120783429D03*
D31*
X207434703Y-119483429D03*
%TD*%
D44*
%TO.C,C22*%
X208750000Y-130725000D03*
X206850000Y-130725000D03*
%TD*%
D50*
%TO.C,C42*%
X194992578Y-110569305D03*
X192042578Y-110569305D03*
%TD*%
D39*
%TO.C,C1*%
X170871360Y-101222574D03*
X170871360Y-102182574D03*
%TD*%
D18*
%TO.C,R47*%
X200137134Y-115493804D03*
X201157134Y-115493804D03*
%TD*%
D44*
%TO.C,C20*%
X208750000Y-126775000D03*
X206850000Y-126775000D03*
%TD*%
D11*
%TO.C,32XPD1*%
X212225000Y-132200000D03*
D12*
X210925000Y-132200000D03*
%TD*%
D29*
%TO.C,C35*%
X200148450Y-116450400D03*
X201108450Y-116450400D03*
%TD*%
D51*
%TO.C,Z1*%
X171700000Y-137360000D03*
X172200000Y-137360000D03*
X172700000Y-137360000D03*
X173200000Y-137360000D03*
X173700000Y-137360000D03*
X174200000Y-137360000D03*
X174700000Y-137360000D03*
X175200000Y-137360000D03*
X175700000Y-137360000D03*
X176200000Y-137360000D03*
X176700000Y-137360000D03*
X177200000Y-137360000D03*
X177700000Y-137360000D03*
X178200000Y-137360000D03*
X178700000Y-137360000D03*
X179200000Y-137360000D03*
X179700000Y-137360000D03*
X180200000Y-137360000D03*
X180700000Y-137360000D03*
X181200000Y-137360000D03*
X181700000Y-137360000D03*
X182200000Y-137360000D03*
X182700000Y-137360000D03*
X183200000Y-137360000D03*
X183700000Y-137360000D03*
X184200000Y-137360000D03*
X184700000Y-137360000D03*
X185200000Y-137360000D03*
X185700000Y-137360000D03*
X186200000Y-137360000D03*
X186700000Y-137360000D03*
X187200000Y-137360000D03*
X187700000Y-137360000D03*
D52*
X170460000Y-142210000D03*
D53*
X174025000Y-143220000D03*
X176375000Y-143220000D03*
X183025000Y-143220000D03*
X185375000Y-143220000D03*
D52*
X188940000Y-142210000D03*
%TD*%
D22*
%TO.C,C3*%
X197830000Y-136230000D03*
X197830000Y-134330000D03*
%TD*%
D24*
%TO.C,FM_L1*%
X202510000Y-139750000D03*
%TD*%
D18*
%TO.C,R5*%
X192842780Y-132879588D03*
X193862780Y-132879588D03*
%TD*%
D28*
%TO.C,R59*%
X176553855Y-106847067D03*
X176553855Y-107867067D03*
%TD*%
D54*
%TO.C,D2*%
X179089504Y-105815228D03*
X176989504Y-105815228D03*
%TD*%
D28*
%TO.C,R60*%
X218406679Y-123174217D03*
X218406679Y-124194217D03*
%TD*%
D32*
%TO.C,C33*%
X181276739Y-125744518D03*
X181276739Y-127644518D03*
%TD*%
D20*
%TO.C,SBCR1*%
X179916590Y-133100038D03*
%TD*%
D34*
%TO.C,R34*%
X213902890Y-128430495D03*
X215552890Y-128430495D03*
%TD*%
D14*
%TO.C,R54*%
X190294601Y-113548791D03*
X190294601Y-112528791D03*
%TD*%
D25*
%TO.C,HPR_RES2*%
X217875000Y-116085000D03*
D26*
X217875000Y-117385000D03*
D27*
X217875000Y-118685000D03*
%TD*%
D14*
%TO.C,R62*%
X216145000Y-114305000D03*
X216145000Y-113285000D03*
%TD*%
D15*
%TO.C,C30*%
X195742242Y-131651364D03*
X197642242Y-131651364D03*
%TD*%
D23*
%TO.C,R76*%
X198572452Y-97834544D03*
X196922452Y-97834544D03*
%TD*%
D15*
%TO.C,C25*%
X203837087Y-117479548D03*
X205737087Y-117479548D03*
%TD*%
D35*
%TO.C,R69*%
X171252048Y-130864661D03*
X171252048Y-129214661D03*
%TD*%
D14*
%TO.C,R52*%
X191314721Y-113509615D03*
X191314721Y-112489615D03*
%TD*%
D35*
%TO.C,R71*%
X173774230Y-130761461D03*
X173774230Y-129111461D03*
%TD*%
D23*
%TO.C,R38*%
X174826950Y-132372146D03*
X173176950Y-132372146D03*
%TD*%
D20*
%TO.C,32X_R1*%
X198440000Y-142720000D03*
%TD*%
%TO.C,GND2*%
X182072878Y-133024189D03*
%TD*%
D28*
%TO.C,R24*%
X202575000Y-119980000D03*
X202575000Y-121000000D03*
%TD*%
D29*
%TO.C,C9*%
X186862097Y-116379608D03*
X187822097Y-116379608D03*
%TD*%
D22*
%TO.C,C38*%
X183254325Y-127647015D03*
X183254325Y-125747015D03*
%TD*%
D16*
%TO.C,R53*%
X200945591Y-114517131D03*
X199925591Y-114517131D03*
%TD*%
D55*
%TO.C,CN1*%
X180453000Y-99929200D03*
X178421000Y-99929200D03*
X182840600Y-99929200D03*
X180884800Y-102723200D03*
X178929000Y-102723200D03*
X175017400Y-99929200D03*
X182840600Y-102723200D03*
X176973200Y-102723200D03*
X175017400Y-102723200D03*
D56*
X171690000Y-97440000D03*
D57*
X178929000Y-96551000D03*
D56*
X186168000Y-97440000D03*
%TD*%
D58*
%TO.C,U2*%
X187924798Y-131750132D03*
X188874798Y-131750132D03*
X189824798Y-131750132D03*
X189824798Y-129475132D03*
X187924798Y-129475132D03*
%TD*%
D14*
%TO.C,R64*%
X216150000Y-118895000D03*
X216150000Y-117875000D03*
%TD*%
D11*
%TO.C,PSGPD1*%
X212250000Y-126375000D03*
D12*
X210950000Y-126375000D03*
%TD*%
D16*
%TO.C,R72*%
X187851953Y-115284875D03*
X186831953Y-115284875D03*
%TD*%
D23*
%TO.C,R42*%
X203998415Y-111952655D03*
X202348415Y-111952655D03*
%TD*%
D17*
%TO.C,C41*%
X189775000Y-98962500D03*
X189775000Y-95887500D03*
%TD*%
D24*
%TO.C,P1*%
X202530000Y-135610000D03*
%TD*%
D30*
%TO.C,FML_2*%
X204350000Y-122925000D03*
D26*
X204350000Y-121625000D03*
D31*
X204350000Y-120325000D03*
%TD*%
M02*
