M48
; DRILL file {KiCad 9.0.0} date 2025-11-19T20:28:31-0800
; FORMAT={-:-/ absolute / metric / decimal}
; #@! TF.CreationDate,2025-11-19T20:28:31-08:00
; #@! TF.GenerationSoftware,Kicad,Pcbnew,9.0.0
; #@! TF.FileFunction,Plated,1,4,PTH
FMAT,2
METRIC
; #@! TA.AperFunction,Plated,PTH,ViaDrill
T1C0.300
; #@! TA.AperFunction,Plated,PTH,ComponentDrill
T2C1.000
; #@! TA.AperFunction,Plated,PTH,ComponentDrill
T3C2.540
%
G90
G05
T1
X170.16Y-128.789
X170.763Y-130.143
X170.861Y-103.077
X171.619Y-107.134
X171.775Y-136.3
X172.304Y-111.986
X172.375Y-138.675
X173.193Y-131.995
X173.199Y-136.255
X173.299Y-133.717
X173.302Y-119.593
X173.5Y-138.525
X173.774Y-130.761
X173.84Y-112.247
X174.408Y-134.144
X174.473Y-110.85
X175.117Y-116.453
X176.391Y-134.075
X176.56Y-138.69
X176.7Y-106.048
X177.094Y-130.753
X177.19Y-136.57
X177.6Y-138.9
X177.691Y-113.705
X178.186Y-107.846
X178.387Y-131.177
X178.387Y-127.661
X178.937Y-120.791
X180.049Y-136.049
X180.939Y-108.44
X181.16Y-138.72
X181.272Y-136.519
X181.496Y-116.082
X181.625Y-100.588
X182.788Y-116.172
X184.02Y-109.714
X184.055Y-117.228
X185.194Y-136.247
X185.332Y-106.891
X185.774Y-125.548
X185.918Y-101.884
X186.2Y-136.259
X186.846Y-125.535
X187.198Y-136.238
X187.538Y-132.006
X188.3Y-103.15
X188.611Y-121.543
X188.624Y-104.197
X188.825Y-105.1
X188.892Y-110.656
X189.053Y-136.168
X189.135Y-127.457
X189.225Y-101.925
X189.74Y-106.119
X189.775Y-97.5
X190.55Y-137.2
X190.701Y-104.484
X190.9Y-103.7
X191.05Y-116.7
X191.05Y-137.95
X191.455Y-133.701
X191.5Y-104.45
X191.51Y-141.5
X191.725Y-136.425
X192.9Y-109.1
X193.025Y-141.1
X193.075Y-127.55
X193.25Y-138.05
X193.543Y-97.635
X193.775Y-133.2
X193.97Y-95.109
X193.988Y-95.966
X194.0Y-127.95
X194.275Y-135.8
X194.55Y-117.675
X195.05Y-105.25
X195.4Y-141.13
X195.55Y-132.025
X196.05Y-115.275
X196.662Y-130.581
X196.725Y-140.975
X196.9Y-120.5
X196.948Y-96.683
X197.0Y-125.25
X197.025Y-127.9
X197.078Y-101.227
X197.3Y-138.075
X197.325Y-142.9
X197.4Y-113.15
X197.65Y-114.125
X197.8Y-116.1
X197.925Y-111.7
X198.057Y-106.977
X198.176Y-100.83
X198.193Y-119.433
X198.24Y-136.416
X198.4Y-115.35
X198.425Y-112.925
X198.572Y-97.835
X198.598Y-96.683
X198.65Y-120.9
X198.7Y-139.375
X199.325Y-113.75
X199.425Y-117.3
X199.525Y-143.025
X199.675Y-133.875
X199.7Y-124.325
X199.9Y-140.61
X199.925Y-135.8
X200.075Y-126.7
X200.188Y-127.738
X200.3Y-125.925
X200.3Y-129.85
X200.7Y-143.25
X200.982Y-110.299
X201.25Y-136.625
X201.275Y-138.65
X201.75Y-142.825
X201.831Y-114.004
X202.3Y-125.125
X202.425Y-110.85
X202.525Y-138.7
X202.917Y-117.308
X202.925Y-127.791
X203.125Y-141.075
X203.675Y-125.95
X204.191Y-131.62
X204.434Y-126.558
X204.675Y-110.575
X205.95Y-116.25
X205.975Y-118.125
X205.997Y-119.949
X206.226Y-123.459
X206.831Y-132.295
X208.095Y-115.367
X208.223Y-117.471
X208.538Y-131.788
X208.724Y-133.299
X209.216Y-117.499
X209.7Y-127.75
X209.775Y-126.525
X209.825Y-130.475
X209.9Y-133.225
X210.0Y-125.125
X211.185Y-112.983
X213.25Y-120.95
X213.25Y-122.0
X214.425Y-117.41
X214.725Y-120.625
X214.953Y-113.562
X215.117Y-118.011
X216.375Y-123.775
X216.695Y-129.921
X216.896Y-125.307
X217.425Y-123.7
X217.575Y-129.875
X217.85Y-117.475
X217.875Y-112.675
T2
X175.017Y-99.929
X175.017Y-102.723
X176.973Y-102.723
X178.421Y-99.929
X178.929Y-102.723
X180.453Y-99.929
X180.885Y-102.723
X182.841Y-99.929
X182.841Y-102.723
T3
X178.929Y-96.551
T3
G00X171.69Y-98.075
M15
G01X171.69Y-96.805
M16
G05
G00X186.168Y-98.075
M15
G01X186.168Y-96.805
M16
G05
M30
